<?xml version="1.0" standalone="no"?>
<!DOCTYPE svg PUBLIC "-//W3C//DTD SVG 1.1//EN" "http://www.w3.org/Graphics/SVG/1.1/DTD/svg11.dtd" >
<svg xmlns="http://www.w3.org/2000/svg" xmlns:xlink="http://www.w3.org/1999/xlink" version="1.1">
<metadata>
Created by FontForge 20170731 at Thu Jul 14 05:56:28 2022
 By Aleksey,,,
Copyright 2014-2018 Indian Type Foundry. All rights reserved.
</metadata>
<defs>
<font id="SVN-Poppins-BlackItalic" horiz-adv-x="680" >
  <font-face 
    font-family="SVN-Poppins Black"
    font-weight="900"
    font-style="italic"
    font-stretch="normal"
    units-per-em="1000"
    panose-1="0 0 10 0 0 0 0 0 0 0"
    ascent="800"
    descent="-200"
    x-height="564"
    cap-height="708"
    bbox="-174 -346 1248.13 1148"
    underline-thickness="50"
    underline-position="-150"
    slope="-10"
    unicode-range="U+000D-FB02"
  />
<missing-glyph horiz-adv-x="500" 
d="M0 700h500v-700h-500v700zM420 650h-340l170 -255zM450 95v510l-170 -255zM420 50l-170 255l-170 -255h340zM50 95l170 255l-170 255v-510z" />
    <glyph glyph-name=".notdef" horiz-adv-x="500" 
d="M0 700h500v-700h-500v700zM420 650h-340l170 -255zM450 95v510l-170 -255zM420 50l-170 255l-170 -255h340zM50 95l170 255l-170 255v-510z" />
    <glyph glyph-name=".null" horiz-adv-x="0" 
 />
    <glyph glyph-name="nonmarkingreturn" unicode="&#xd;" horiz-adv-x="170" 
 />
    <glyph glyph-name="NULL" horiz-adv-x="0" 
 />
    <glyph glyph-name="NULL" horiz-adv-x="0" 
 />
    <glyph glyph-name="space" unicode=" " horiz-adv-x="170" 
 />
    <glyph glyph-name="exclam" unicode="!" horiz-adv-x="455" 
d="M190 755h242l-109 -474h-190zM323 101q-4 -23 -16.5 -43t-31.5 -34.5t-44 -23t-54 -8.5q-60 0 -88.5 31.5t-20.5 77.5q8 47 48 79t100 32q59 0 87 -32t20 -79z" />
    <glyph glyph-name="quotedbl" unicode="&#x22;" horiz-adv-x="490" 
d="M137 803h175l-55 -235h-148zM362 803h175l-55 -235h-148z" />
    <glyph glyph-name="numbersign" unicode="#" horiz-adv-x="933" 
d="M583 421h-139l-37 -95h139zM467 124h-139l-48 -124h-205l48 124h-141l36 202h184l37 95h-136l35 202h180l46 117h205l-46 -117h139l46 117h206l-46 -117h115l-35 -202h-159l-37 -95h111l-36 -202h-154l-48 -124h-206z" />
    <glyph glyph-name="dollar" unicode="$" horiz-adv-x="665" 
d="M248 -5q-54 5 -98.5 22t-75 45.5t-44.5 69.5t-8 95h236q-2 -23 4 -36t17 -20l18 98q-39 11 -84 25t-80.5 39.5t-55 66t-8.5 104.5q9 51 37.5 90t70 66t93 42t106.5 17l14 81h62l-14 -81q117 -8 176 -65.5t48 -162.5h-239q2 21 -3 33t-13 19l-17 -98q39 -13 84.5 -28
t82.5 -40t57.5 -65t9.5 -103q-8 -44 -33 -83t-65 -68t-94.5 -46.5t-121.5 -18.5l-14 -80h-62zM386 204q3 15 -5.5 25.5t-25.5 18.5l-15 -86q18 3 30.5 13.5t15.5 28.5zM309 514q-2 -14 4 -24.5t19 -19.5l14 80q-33 -6 -37 -36z" />
    <glyph glyph-name="percent" unicode="%" horiz-adv-x="896" 
d="M65 540q8 46 28 80t48 56.5t63 33.5t74 11q38 0 69 -11t51 -33.5t27.5 -56.5t-0.5 -80q-8 -45 -27.5 -79t-47 -56.5t-62.5 -33.5t-73 -11q-39 0 -70 11t-51.5 33.5t-28.5 56.5t0 79zM254 592q-34 0 -44 -52q-9 -51 25 -51q37 0 46 51q10 52 -27 52zM605 711h212
l-499 -711h-212zM497 171q8 46 28 80t48 56.5t63 33.5t73 11q39 0 69.5 -11t50.5 -33.5t27.5 -56.5t-0.5 -80t-27.5 -80t-47 -56.5t-62 -33.5t-73.5 -11q-38 0 -69 11t-51.5 33.5t-28.5 56.5t0 80zM686 223q-36 0 -45 -52t26 -52q17 0 28.5 13t16.5 39q9 52 -26 52z" />
    <glyph glyph-name="ampersand" unicode="&#x26;" horiz-adv-x="837" 
d="M436 524q1 3 1 9q0 15 -10.5 22t-22.5 7q-17 0 -30.5 -10.5t-13.5 -32.5q0 -32 31 -67l134 -156q20 30 36 61l4 9h215l-14 -26q-29 -52 -60 -96t-66 -82l139 -162h-244l-41 46q-104 -56 -231 -56q-59 0 -106.5 13t-80.5 37t-51 57.5t-18 74.5q0 39 13 73t36.5 63
t55.5 52.5t70 41.5q-29 46 -29 91q0 50 21 90t58 68.5t87 44t109 15.5q54 0 94 -12.5t66.5 -33.5t39.5 -49.5t13 -60.5q0 -15 -3 -31h-202zM312 165q18 0 34.5 2.5t32.5 7.5l-99 111q-22 -15 -33.5 -33.5t-11.5 -35.5q0 -21 19 -36.5t58 -15.5z" />
    <glyph glyph-name="quotesingle" unicode="'" horiz-adv-x="265" 
d="M137 803h175l-55 -235h-148z" />
    <glyph glyph-name="parenleft" unicode="(" horiz-adv-x="463" 
d="M171 -229q-60 68 -91.5 169t-31.5 224q0 100 22 204t63.5 200.5t101 181t134.5 145.5h214l-4 -21q-71 -63 -129 -142t-99.5 -167t-64.5 -182.5t-23 -189.5q0 -117 32.5 -220.5t92.5 -181.5l-3 -20h-214z" />
    <glyph glyph-name="parenright" unicode=")" horiz-adv-x="463" 
d="M433 502q0 -100 -22 -204t-63.5 -200.5t-101 -181t-134.5 -145.5h-214l3 20q72 63 130.5 142t100 167.5t64 183t22.5 188.5q0 117 -32.5 220.5t-93.5 181.5l4 21h214q60 -68 91.5 -169t31.5 -224z" />
    <glyph glyph-name="asterisk" unicode="*" horiz-adv-x="561" 
d="M387 625l108 84l46 -121l-117 -36l105 -34l-96 -127l-72 86l8 -117h-139l48 117l-100 -87l-52 129l117 36l-103 32l88 121l77 -83l-10 119h142z" />
    <glyph glyph-name="plus" unicode="+" horiz-adv-x="551" 
d="M437 595l-27 -154h149l-36 -203h-149l-27 -153h-213l27 153h-149l36 203h149l27 154h213z" />
    <glyph glyph-name="comma" unicode="," horiz-adv-x="348" 
d="M70 185h220l-157 -303h-146z" />
    <glyph glyph-name="hyphen" unicode="-" horiz-adv-x="576" 
d="M47 433h466l-33 -183h-466z" />
    <glyph glyph-name="period" unicode="." horiz-adv-x="319" 
d="M255 101q-4 -23 -16.5 -43t-31.5 -34.5t-44 -23t-54 -8.5q-60 0 -88.5 31.5t-20.5 77.5q8 47 48 79t100 32q59 0 87 -32t20 -79z" />
    <glyph glyph-name="slash" unicode="/" horiz-adv-x="399" 
d="M349 955h212l-469 -1153h-213z" />
    <glyph glyph-name="zero" unicode="0" horiz-adv-x="662" 
d="M46 362q14 77 42.5 142.5t73.5 113.5t106 75t141 27q79 0 131 -27t80.5 -75t34 -113.5t-8.5 -142.5t-42.5 -142.5t-73.5 -113.5t-106.5 -75t-140.5 -27q-80 0 -132 27t-79.5 75t-33.5 113.5t8 142.5zM427 362q5 30 7.5 56.5t-2.5 47t-19 32.5t-41 12t-45.5 -12
t-30.5 -32.5t-19.5 -47t-12.5 -56.5t-7.5 -56.5t2.5 -47t19.5 -32.5t41.5 -12t45 12t30 32.5t19.5 47t12.5 56.5z" />
    <glyph glyph-name="one" unicode="1" horiz-adv-x="399" 
d="M154 506h-106l37 208h339l-125 -714h-233z" />
    <glyph glyph-name="two" unicode="2" horiz-adv-x="566" 
d="M9 175q60 39 118.5 80t105.5 81.5t78.5 78.5t37.5 71q5 29 -3.5 39t-22.5 10q-20 0 -31.5 -16t-20.5 -65h-215q15 72 47.5 122.5t75 82.5t93 46.5t101.5 14.5q68 0 111.5 -18.5t66.5 -48.5t29 -68t-1 -77q-9 -50 -35.5 -96.5t-65 -87.5t-84.5 -75.5t-94 -61.5h229
l-32 -177h-517z" />
    <glyph glyph-name="three" unicode="3" horiz-adv-x="615" 
d="M84 484q24 115 101 175.5t200 60.5q61 0 104.5 -15.5t70 -42t35.5 -62.5t2 -77q-7 -38 -22.5 -65t-35 -46t-40.5 -30t-38 -16v-4q48 -19 75 -56.5t15 -103.5q-9 -47 -33 -85.5t-60.5 -66t-85 -42.5t-106.5 -15q-62 0 -110 13.5t-79.5 43.5t-44 77t-1.5 113h216
q-8 -34 0.5 -52.5t40.5 -18.5q18 0 32.5 13t18.5 35q5 26 -10 40t-61 14h-37l32 174h36q6 0 17.5 0.5t23.5 5t22 15t14 30.5q5 26 -4.5 37t-23.5 11q-12 0 -20.5 -5.5t-14 -14.5t-8.5 -19.5t-5 -20.5h-216v0z" />
    <glyph glyph-name="four" unicode="4" horiz-adv-x="704" 
d="M335 109h-313l32 184l373 421h239l-73 -415h72l-34 -190h-72l-20 -109h-224zM387 299l29 164l-137 -164h108z" />
    <glyph glyph-name="five" unicode="5" horiz-adv-x="660" 
d="M663 714l-34 -190h-290l-15 -83q23 17 54.5 27t69.5 10q53 0 89 -19t56 -51t25 -73.5t-3 -87.5q-22 -118 -101 -182.5t-197 -64.5q-66 0 -114.5 17t-78 47.5t-39.5 72.5t0 92h216q-1 -6 -0.5 -13.5t4.5 -14t12.5 -11t22.5 -4.5q26 0 41 18t20 47t-6.5 43.5t-35.5 14.5
q-23 0 -35 -10.5t-14 -22.5h-216l79 438h490z" />
    <glyph glyph-name="six" unicode="6" horiz-adv-x="633" 
d="M405 492q0 28 -9 42.5t-34 14.5q-20 0 -34.5 -10.5t-25 -30.5t-18 -48.5t-13.5 -64.5q23 27 59.5 43t80.5 16q46 0 82.5 -14t59 -42t30.5 -70t-2 -97t-36 -99t-65 -75t-89.5 -47.5t-110.5 -16.5q-85 0 -134 27.5t-71.5 75.5t-22.5 112.5t14 139.5q18 98 46 168.5
t69.5 115.5t97 66.5t128.5 21.5q64 0 106 -19.5t66 -51.5t31 -73t2 -84h-207zM326 289q-26 0 -45 -14t-24 -41q-5 -29 8.5 -43t40.5 -14t45.5 14t23.5 43q5 27 -9 41t-40 14z" />
    <glyph glyph-name="seven" unicode="7" horiz-adv-x="512" 
d="M579 714l-29 -162l-342 -552h-228l339 525h-256l34 189h482z" />
    <glyph glyph-name="eight" unicode="8" horiz-adv-x="657" 
d="M170 382q-35 21 -51.5 56.5t-6.5 87.5q6 34 28.5 68.5t60 62.5t90.5 45.5t121 17.5t114.5 -17.5t74 -45.5t36.5 -62.5t3 -68.5q-10 -52 -40 -87.5t-72 -56.5q91 -55 70 -168q-11 -56 -41.5 -98t-74.5 -70.5t-97.5 -42.5t-108.5 -14q-56 0 -104 14t-81 42.5t-48.5 70.5
t-4.5 98q21 114 132 168zM380 549q-20 0 -36 -16t-21 -43q-5 -29 6 -42.5t30 -13.5t35 13.5t21 42.5q5 27 -5 43t-30 16zM332 292q-30 0 -51 -18.5t-26 -47.5q-5 -27 8 -46t45 -19t52 19t25 46q5 29 -9 47.5t-44 18.5z" />
    <glyph glyph-name="nine" unicode="9" horiz-adv-x="597" 
d="M244 221q1 -28 11 -42.5t35 -14.5q20 0 34 10.5t24 30.5t17 48.5t13 64.5q-23 -27 -59 -43t-80 -16q-47 0 -83 14t-59 42t-31 69.5t2 97.5q10 55 36 99t65 75t89.5 47.5t110.5 16.5q85 0 134.5 -26t72.5 -72t23 -109.5t-13 -138.5q-17 -90 -42.5 -161t-64.5 -120
t-93 -74.5t-127 -25.5q-64 0 -108.5 19.5t-71.5 51.5t-37 73t-5 84h207zM324 424q26 0 45 14t24 41q5 29 -8.5 43t-40.5 14t-45.5 -14t-23.5 -43q-5 -27 9 -41t40 -14z" />
    <glyph glyph-name="colon" unicode=":" horiz-adv-x="319" 
d="M255 101q-4 -23 -16.5 -43t-31.5 -34.5t-44 -23t-54 -8.5q-60 0 -88.5 31.5t-20.5 77.5q8 47 48 79t100 32q59 0 87 -32t20 -79zM255 497q-4 -23 -16.5 -43t-31.5 -34.5t-44 -23t-54 -8.5q-60 0 -88.5 31.5t-20.5 77.5q8 47 48 79t100 32q59 0 87 -32t20 -79z" />
    <glyph glyph-name="semicolon" unicode=";" horiz-adv-x="385" 
d="M340 482q-4 -23 -16.5 -43t-31.5 -34.5t-44 -23t-54 -8.5q-60 0 -88.5 31.5t-20.5 77.5q8 47 48 79t100 32q59 0 87 -32t20 -79zM63 185h220l-157 -303h-146z" />
    <glyph glyph-name="less" unicode="&#x3c;" horiz-adv-x="497" 
d="M449 125h-277l-142 215l218 216h277l-218 -216z" />
    <glyph glyph-name="equal" unicode="=" horiz-adv-x="626" 
d="M23 300h586l-35 -201h-586zM73 580h586l-36 -201h-586z" />
    <glyph glyph-name="greater" unicode="&#x3e;" horiz-adv-x="497" 
d="M210 340l-142 216h277l142 -216l-218 -215h-277z" />
    <glyph glyph-name="question" unicode="?" horiz-adv-x="538" 
d="M65 548q6 45 27.5 85.5t58.5 71.5t89 49.5t119 18.5q53 0 96 -13.5t70.5 -40.5t39 -68t1.5 -96q-8 -45 -30 -81t-55 -61.5t-75 -40t-90 -15.5l-18 -71h-196l31 212h84q58 0 93 13t39 45q3 18 -5.5 27.5t-22.5 9.5q-22 0 -33 -13.5t-14 -31.5h-209zM297 101
q-4 -23 -16.5 -43t-31.5 -34.5t-44 -23t-54 -8.5q-60 0 -88.5 31.5t-20.5 77.5q8 47 48 79t100 32q59 0 87 -32t20 -79z" />
    <glyph glyph-name="at" unicode="@" horiz-adv-x="1114" 
d="M762 -4q-56 0 -94 20t-55 57q-26 -39 -67 -59.5t-94 -20.5q-72 0 -113.5 41.5t-41.5 118.5q0 53 16 102.5t44.5 87.5t69 61t88.5 23q42 0 69 -17t37 -46l10 58h172l-39 -221q-5 -29 0.5 -46t28.5 -17q21 0 36.5 14t25.5 37.5t14.5 54.5t4.5 65q0 52 -18.5 94.5t-53 73
t-83 47.5t-109.5 17q-83 0 -154 -31t-123.5 -84t-82.5 -123.5t-30 -150.5q0 -56 17 -102t48.5 -78.5t77.5 -50t104 -17.5q55 0 102 10t84 26l38 -139q-104 -46 -234 -46q-90 0 -163.5 27t-125 77t-80 120t-28.5 157q0 121 44 222.5t120.5 174.5t180.5 113.5t224 40.5
q92 0 167.5 -27t129 -76.5t82.5 -118t29 -150.5q0 -66 -17.5 -124.5t-52.5 -101.5t-86.5 -68t-118.5 -25zM591 224q0 23 -12 36.5t-31 13.5q-26 0 -46 -22t-20 -57q0 -23 11.5 -35.5t31.5 -12.5q24 0 45 21t21 56z" />
    <glyph glyph-name="A" unicode="A" horiz-adv-x="773" 
d="M473 107h-236l-54 -107h-233l384 708h256l133 -708h-234zM420 471l-99 -197h128z" />
    <glyph glyph-name="B" unicode="B" horiz-adv-x="684" 
d="M422 227q9 51 -50 51h-101l-17 -100h101q30 0 46 11.5t21 37.5zM452 481q9 51 -50 51h-86l-18 -100h86q59 0 68 49zM643 194q-16 -94 -86 -144t-186 -50h-371l125 708h361q53 0 93.5 -11.5t67 -34.5t37 -57.5t2.5 -80.5q-11 -64 -52 -105.5t-96 -55.5q63 -16 89.5 -62.5
t15.5 -106.5z" />
    <glyph glyph-name="C" unicode="C" horiz-adv-x="753" 
d="M43 355q14 79 49.5 145t89.5 114t123.5 74.5t150.5 26.5q70 0 125 -20t92.5 -57t57 -88t19.5 -114h-234q-10 35 -36 54.5t-64 19.5q-57 0 -96.5 -42t-51.5 -113q-13 -71 12 -113t82 -42q38 0 70.5 19.5t55.5 54.5h234q-22 -63 -60 -114t-88.5 -88t-112.5 -57t-132 -20
q-81 0 -141.5 26.5t-97 74.5t-49 114t1.5 145z" />
    <glyph glyph-name="D" unicode="D" horiz-adv-x="743" 
d="M420 708q85 0 148.5 -26.5t103 -73t53.5 -111.5t1 -141q-14 -76 -51 -141t-93.5 -113t-129 -75t-157.5 -27h-295l125 708h295zM310 198q74 0 125.5 40t65.5 118q7 39 0.5 68.5t-24.5 49.5t-46 30t-65 10h-53l-56 -316h53z" />
    <glyph glyph-name="E" unicode="E" horiz-adv-x="556" 
d="M566 532h-250l-15 -88h220l-30 -167h-220l-18 -100h250l-31 -177h-472l125 708h472z" />
    <glyph glyph-name="F" unicode="F" horiz-adv-x="575" 
d="M125 708h500l-31 -176h-278l-17 -98h200l-30 -167h-200l-47 -267h-222z" />
    <glyph glyph-name="G" unicode="G" horiz-adv-x="752" 
d="M43 355q14 79 50 145t91 114t126 74.5t154 26.5q70 0 124.5 -17.5t91 -50t54.5 -78.5t16 -103h-234q-9 20 -30.5 32t-56.5 12q-65 0 -107 -42t-54 -113q-15 -83 16.5 -124t113.5 -41q38 0 71 14.5t64 47.5h-177l27 157h361l-39 -222q-24 -32 -58.5 -66t-80 -62t-102 -46
t-125.5 -18q-84 0 -145.5 26.5t-100 74.5t-51.5 114t1 145z" />
    <glyph glyph-name="H" unicode="H" horiz-adv-x="755" 
d="M482 276h-211l-49 -276h-222l125 708h222l-45 -255h211l45 255h222l-125 -708h-222z" />
    <glyph glyph-name="I" unicode="I" horiz-adv-x="322" 
d="M125 708h222l-125 -708h-222z" />
    <glyph glyph-name="J" unicode="J" horiz-adv-x="590" 
d="M398 708h221l-80 -457q-23 -130 -102.5 -194t-196.5 -64q-62 0 -111 17.5t-80 52t-42 86.5t1 122h219q-4 -23 -2.5 -38t6.5 -24t14 -12.5t20 -3.5q18 0 32 11.5t21 46.5z" />
    <glyph glyph-name="K" unicode="K" horiz-adv-x="755" 
d="M276 308l-54 -308h-222l125 708h222l-53 -298l256 298h251l-305 -339l196 -369h-264z" />
    <glyph glyph-name="L" unicode="L" horiz-adv-x="506" 
d="M347 708l-95 -540h214l-30 -168h-436l125 708h222z" />
    <glyph glyph-name="M" unicode="M" horiz-adv-x="951" 
d="M125 708h272l81 -426l227 426h271l-125 -708h-221l62 352l-171 -352h-190l-47 355l-62 -355h-222z" />
    <glyph glyph-name="N" unicode="N" horiz-adv-x="779" 
d="M804 708l-125 -708h-222l-172 356l-63 -356h-222l125 708h222l171 -362l64 362h222z" />
    <glyph glyph-name="O" unicode="O" horiz-adv-x="788" 
d="M767 427q0 -96 -30 -175.5t-85.5 -137t-133 -89.5t-171.5 -32q-68 0 -123.5 21.5t-94.5 60.5t-60.5 93.5t-21.5 120.5q0 96 30 175.5t85 136t132 88t170 31.5q70 0 126 -21t95.5 -59.5t60.5 -92.5t21 -120zM265 317q0 -54 29 -85.5t87 -31.5q40 0 71.5 16.5t53.5 44
t33 63.5t11 75q0 54 -28.5 85t-85.5 31q-41 0 -72.5 -16t-53.5 -43.5t-33.5 -63.5t-11.5 -75z" />
    <glyph glyph-name="P" unicode="P" horiz-adv-x="649" 
d="M356 400q38 0 56.5 18t23.5 47t-7 47t-50 18h-63l-23 -130h63zM661 465q-9 -49 -33.5 -92.5t-64 -76.5t-93 -52t-120.5 -19h-88l-40 -225h-222l125 708h310q67 0 114 -18t75 -50t37 -76.5t0 -98.5z" />
    <glyph glyph-name="Q" unicode="Q" horiz-adv-x="788" 
d="M265 317q0 -54 29 -85.5t87 -31.5q40 0 71.5 16.5t53.5 44t33 63.5t11 75q0 54 -28.5 85t-85.5 31q-41 0 -72.5 -16t-53.5 -43.5t-33.5 -63.5t-11.5 -75zM767 427q0 -116 -43.5 -207.5t-121.5 -148.5l106 -186h-262l-47 111q-26 -3 -52 -3q-68 0 -123.5 21.5t-94.5 60.5
t-60.5 93.5t-21.5 120.5q0 96 30 175.5t85 136t132 88t170 31.5q70 0 126 -21t95.5 -59.5t60.5 -92.5t21 -120z" />
    <glyph glyph-name="R" unicode="R" horiz-adv-x="670" 
d="M456 462q5 27 -8.5 43.5t-45.5 16.5h-88l-21 -120h88q32 0 50.5 14t24.5 46zM455 708q67 0 114 -18t75.5 -49.5t38 -73.5t0.5 -91q-13 -70 -60.5 -125t-128.5 -80l106 -271h-244l-89 254l-45 -254h-222l125 708h330z" />
    <glyph glyph-name="S" unicode="S" horiz-adv-x="642" 
d="M592 221q0 -48 -19.5 -90t-56.5 -72.5t-90.5 -48t-121.5 -17.5q-67 0 -122 14t-93 43t-56.5 73t-11.5 104h236q-6 -61 51 -61q17 0 29.5 9t12.5 26q0 22 -21 37.5t-52.5 29.5t-68 29.5t-68 39.5t-52.5 58t-21 85q0 58 22 102.5t61.5 75t93.5 46.5t118 16q61 0 113 -15.5
t88 -45t53.5 -72t10.5 -96.5h-239q5 28 -6 42t-33 14q-17 0 -28 -9.5t-11 -26.5q0 -21 21 -37t52 -31t68 -32.5t68 -43t52 -60.5t21 -86z" />
    <glyph glyph-name="T" unicode="T" horiz-adv-x="616" 
d="M85 708h596l-31 -176h-188l-94 -532h-222l94 532h-186z" />
    <glyph glyph-name="U" unicode="U" horiz-adv-x="719" 
d="M121 708h221l-70 -399q-8 -46 7 -76t65 -30q51 0 78 30t35 76l70 399h221l-70 -399q-14 -81 -48.5 -140.5t-84 -98.5t-111 -58t-129.5 -19q-66 0 -119.5 20t-88 59.5t-47.5 99t1 137.5z" />
    <glyph glyph-name="V" unicode="V" horiz-adv-x="763" 
d="M75 708h236l60 -487l231 487h236l-363 -708h-287z" />
    <glyph glyph-name="W" unicode="W" horiz-adv-x="1100" 
d="M105 708h239l-14 -446l174 446h242l17 -446l143 446h239l-287 -708h-276l-11 402l-153 -402h-276z" />
    <glyph glyph-name="X" unicode="X" horiz-adv-x="764" 
d="M354 184l-141 -184h-253l297 365l-182 343h263l94 -177l135 177h253l-292 -358l186 -350h-263z" />
    <glyph glyph-name="Y" unicode="Y" horiz-adv-x="730" 
d="M75 708h254l69 -251l157 251h250l-341 -493l-38 -215h-222l38 215z" />
    <glyph glyph-name="Z" unicode="Z" horiz-adv-x="630" 
d="M626 541l-349 -364h284l-31 -177h-530l30 167l344 365h-280l31 176h530z" />
    <glyph glyph-name="bracketleft" unicode="[" horiz-adv-x="533" 
d="M203 895h382l-31 -178h-174l-136 -768h174l-31 -178h-382z" />
    <glyph glyph-name="backslash" unicode="\" horiz-adv-x="592" 
d="M437 -198h-212l-36 1153h212z" />
    <glyph glyph-name="bracketright" unicode="]" horiz-adv-x="533" 
d="M546 895l-198 -1124h-382l31 178h174l136 768h-174l31 178h382z" />
    <glyph glyph-name="asciicircum" unicode="^" horiz-adv-x="758" 
d="M411 460l-187 -298h-220l343 549h218l147 -549h-220z" />
    <glyph glyph-name="underscore" unicode="_" horiz-adv-x="764" 
d="M-8 -42h675l-38 -216h-675z" />
    <glyph glyph-name="grave" unicode="`" horiz-adv-x="324" 
d="M112 860l240 -110l-27 -148l-242 94z" />
    <glyph glyph-name="a" unicode="a" 
d="M20 282q12 68 39.5 122t65.5 91t84 56.5t95 19.5q57 0 92 -23t49 -61l14 77h221l-100 -564h-221l14 77q-27 -38 -70.5 -61t-100.5 -23q-49 0 -88 19.5t-64 56.5t-33.5 91t3.5 122zM409 282q8 47 -11 71t-54 24t-63 -24t-36 -71t11 -71t54 -24t63 24t36 71z" />
    <glyph glyph-name="b" unicode="b" 
d="M308 487q27 38 70 61t100 23q49 0 88 -19.5t64 -56.5t33.5 -91t-3.5 -122t-39.5 -122t-65.5 -91t-84 -56.5t-95 -19.5q-57 0 -91.5 23t-48.5 61l-14 -77h-222l131 740h222zM435 282q8 47 -11 71t-54 24t-63 -24t-36 -71t11 -71t54 -24t63 24t36 71z" />
    <glyph glyph-name="c" unicode="c" horiz-adv-x="609" 
d="M20 282q12 67 42.5 121t75.5 91t101.5 57t119.5 20q109 0 174 -61.5t66 -172.5h-235q-3 20 -13 32t-31 12q-26 0 -46 -24t-29 -75t3 -75t38 -24q21 0 35 12t23 32h235q-20 -56 -52.5 -99.5t-74 -73.5t-91.5 -45.5t-104 -15.5q-63 0 -112.5 20t-81 57t-43.5 90.5t0 121.5z
" />
    <glyph glyph-name="d" unicode="d" 
d="M20 282q12 68 39.5 122t65.5 91t84 56.5t95 19.5q57 0 91.5 -23t48.5 -61l45 253h222l-131 -740h-222l14 77q-27 -38 -70 -61t-100 -23q-49 0 -88 19.5t-64 56.5t-33.5 91t3.5 122zM409 282q8 47 -11 71t-54 24t-63 -24t-36 -71t11 -71t54 -24t63 24t36 71z" />
    <glyph glyph-name="e" unicode="e" horiz-adv-x="616" 
d="M328 397q-60 0 -81 -63h133q6 34 -10.5 48.5t-41.5 14.5zM570 203q-17 -45 -48 -83.5t-72 -66.5t-90.5 -44t-102.5 -16q-63 0 -112.5 20t-81 57t-43.5 90.5t0 121.5q12 67 42.5 121t75.5 91t101.5 57t119.5 20t112.5 -19.5t81.5 -56t44 -89.5t0 -119q-2 -11 -4.5 -22
t-6.5 -22h-356q-5 -43 9.5 -58t37.5 -15q22 0 36 10t22 23h235z" />
    <glyph glyph-name="f" unicode="f" horiz-adv-x="385" 
d="M87 379h-60l33 185h60q12 60 40.5 105.5t73 75t102.5 42t129 6.5l-33 -189q-38 5 -58.5 -4t-30.5 -36h82l-33 -185h-83l-67 -379h-222z" />
    <glyph glyph-name="g" unicode="g" 
d="M20 282q12 68 39.5 122t65.5 91t84 56.5t95 19.5q57 0 92 -23t49 -61l14 77h221l-98 -554q-10 -56 -34.5 -108t-65.5 -91.5t-100.5 -63.5t-138.5 -24q-69 0 -120.5 17t-84.5 47.5t-48 74t-11 97.5h218q2 -44 64 -44q17 0 32.5 3.5t29 14t23.5 29t15 48.5l12 67
q-27 -38 -70.5 -61t-100.5 -23q-49 0 -88 19.5t-64 56.5t-33.5 91t3.5 122zM409 282q8 47 -11 71t-54 24t-63 -24t-36 -71t11 -71t54 -24t63 24t36 71z" />
    <glyph glyph-name="h" unicode="h" horiz-adv-x="697" 
d="M131 740h222l-46 -261q30 36 77.5 62.5t110.5 26.5q49 0 84 -17t56 -48.5t27.5 -76t-3.5 -99.5l-58 -327h-221l53 299q8 41 -10 64t-54 23q-37 0 -61.5 -23t-32.5 -64v1l-53 -300h-222z" />
    <glyph glyph-name="i" unicode="i" horiz-adv-x="322" 
d="M100 564h222l-100 -564h-222zM231 620q-53 0 -81.5 28t-24.5 69q3 41 35.5 69.5t85.5 28.5q52 0 80 -28.5t25 -69.5q-4 -41 -36 -69t-84 -28z" />
    <glyph glyph-name="j" unicode="j" horiz-adv-x="320" 
d="M322 564l-107 -603q-11 -66 -36.5 -110t-61.5 -71t-80.5 -38.5t-93.5 -11.5h-74l33 189h43q41 0 48 38l107 607h222zM231 620q-53 0 -81.5 28t-24.5 69q3 41 35.5 69.5t85.5 28.5q52 0 80 -28.5t25 -69.5q-4 -41 -36 -69t-84 -28z" />
    <glyph glyph-name="k" unicode="k" horiz-adv-x="676" 
d="M131 740h222l-69 -388l179 212h258l-261 -284l166 -280h-265l-99 225l-40 -225h-222z" />
    <glyph glyph-name="l" unicode="l" horiz-adv-x="322" 
d="M131 740h222l-131 -740h-222z" />
    <glyph glyph-name="m" unicode="m" horiz-adv-x="1076" 
d="M812 299q6 36 -11.5 56.5t-53.5 20.5q-37 0 -62 -20t-31 -55l-53 -301h-221l53 299q6 36 -11.5 56.5t-53.5 20.5q-37 0 -62 -20.5t-31 -55.5l-53 -300h-222l100 564h222l-14 -76q29 33 73 56.5t104 23.5q62 0 104 -27t61 -75q18 21 40.5 39.5t48 32.5t54.5 22t60 8
q55 0 94.5 -17t62.5 -48.5t30.5 -76t-2.5 -99.5l-58 -327h-221z" />
    <glyph glyph-name="n" unicode="n" horiz-adv-x="697" 
d="M433 299q8 41 -10 64t-54 23q-37 0 -61.5 -23t-32.5 -63l-53 -300h-222l100 564h222l-15 -85q30 36 77.5 62.5t110.5 26.5q49 0 84 -17t56 -48.5t27.5 -76t-3.5 -99.5l-58 -327h-221z" />
    <glyph glyph-name="o" unicode="o" horiz-adv-x="636" 
d="M622 334q0 -75 -27 -137.5t-74.5 -108t-112.5 -70.5t-141 -25q-56 0 -102.5 16.5t-80 47.5t-52 74.5t-18.5 97.5q0 74 27 137t74.5 108.5t112.5 71t141 25.5q56 0 102.5 -17t80 -47.5t52 -74.5t18.5 -98zM242 253q0 -35 16.5 -51.5t42.5 -16.5q23 0 40.5 11.5t29 30
t17.5 41t6 43.5q0 35 -17 51.5t-42 16.5q-23 0 -40.5 -11.5t-29 -30t-17.5 -41t-6 -43.5z" />
    <glyph glyph-name="p" unicode="p" 
d="M308 487q27 38 70 61t100 23q49 0 88 -19.5t64 -56.5t33.5 -91t-3.5 -122t-39.5 -122t-65.5 -91t-84 -56.5t-95 -19.5q-57 0 -91.5 23t-48.5 61l-61 -347h-222l147 834h222zM435 282q8 47 -11 71t-54 24t-63 -24t-36 -71t11 -71t54 -24t63 24t36 71z" />
    <glyph glyph-name="q" unicode="q" 
d="M19 278q11 64 40.5 117t70.5 91.5t90 60t99 21.5q44 0 76 -12t55 -42l9 50h221l-147 -834h-221l58 332q-36 -35 -72 -51.5t-80 -16.5q-50 0 -91.5 20.5t-69 58t-38.5 89.5t0 116zM409 282q5 27 0 45t-15.5 29t-24 15.5t-25.5 4.5t-27.5 -5t-30 -17t-26 -30.5t-16.5 -45.5
t0.5 -44.5t16 -28t24 -14.5t25.5 -4t27.5 4.5t29.5 16t25.5 29.5t16.5 45z" />
    <glyph glyph-name="r" unicode="r" horiz-adv-x="467" 
d="M222 0h-222l100 564h222l-18 -104q42 48 95 78t108 30l-41 -237h-63q-60 0 -94.5 -21t-45.5 -79z" />
    <glyph glyph-name="s" unicode="s" horiz-adv-x="579" 
d="M526 177q0 -45 -20 -79t-56 -57.5t-85 -35.5t-107 -12q-61 0 -110.5 14.5t-83.5 41.5t-50 64t-8 82h213q-1 -26 15 -37.5t42 -11.5q17 0 29.5 8t12.5 19q0 16 -20.5 25.5t-51.5 18t-67 19.5t-67 30t-51.5 48.5t-20.5 76.5q0 38 17.5 71t49.5 57t77 38t101 14
q62 0 109.5 -16t79.5 -43.5t47.5 -64t14.5 -78.5h-197q0 23 -14 35.5t-41 12.5q-17 0 -28.5 -6.5t-11.5 -19.5q0 -15 21 -25t52 -19.5t68 -20.5t68 -30t52 -47.5t21 -71.5z" />
    <glyph glyph-name="t" unicode="t" horiz-adv-x="436" 
d="M102 379h-70l33 185h70l24 136h222l-24 -136h92l-33 -185h-92l-27 -152q-6 -38 35 -38h53l-34 -189h-84q-50 0 -90 11.5t-66.5 38.5t-36.5 71t2 110z" />
    <glyph glyph-name="u" unicode="u" horiz-adv-x="697" 
d="M597 0h-222l15 85q-30 -36 -77.5 -62.5t-110.5 -26.5q-49 0 -84.5 17t-56.5 48.5t-27 76t4 99.5l58 327h221l-53 -299q-8 -41 10 -64t54 -23q37 0 61.5 23t32.5 63l53 300h222z" />
    <glyph glyph-name="v" unicode="v" horiz-adv-x="671" 
d="M295 564l28 -353l153 353h236l-288 -564h-277l-88 564h236z" />
    <glyph glyph-name="w" unicode="w" horiz-adv-x="903" 
d="M49 564h220l-13 -343l133 343h237l16 -347l109 347h205l-234 -564h-250l-12 318l-128 -318h-250z" />
    <glyph glyph-name="x" unicode="x" horiz-adv-x="668" 
d="M298 127l-94 -127h-244l242 297l-152 267h248l72 -128l95 128h244l-247 -290l156 -274h-248z" />
    <glyph glyph-name="y" unicode="y" horiz-adv-x="677" 
d="M40 564h247l55 -286l150 286h245l-508 -834h-243l194 298z" />
    <glyph glyph-name="z" unicode="z" horiz-adv-x="518" 
d="M507 390l-261 -206h235l-33 -184h-478l31 174l251 206h-212l33 184h465z" />
    <glyph glyph-name="braceleft" unicode="{" horiz-adv-x="484" 
d="M135 191q0 23 -17.5 37t-64.5 14l32 181q53 0 75.5 15.5t27.5 47.5q4 19 4.5 44.5t0.5 53t1 54.5t5 50q9 50 31.5 88.5t57 65t79 40t95.5 13.5h76l-31 -177h-34q-33 0 -48.5 -14.5t-20.5 -39.5q-3 -15 -4 -38.5t-2.5 -49.5l-3 -52t-5.5 -47q-10 -57 -43 -95t-90 -49v-2
q44 -9 65 -35.5t21 -63.5q0 -26 -9 -61.5t-19.5 -71.5t-19 -67t-8.5 -47q0 -18 11.5 -28.5t39.5 -10.5h34l-31 -177h-76q-91 0 -143 41t-52 120q0 31 10.5 69.5t22.5 75.5t22.5 68t10.5 48z" />
    <glyph glyph-name="bar" unicode="|" horiz-adv-x="262" 
d="M338 828l-171 -972h-222l171 972h222z" />
    <glyph glyph-name="braceright" unicode="}" horiz-adv-x="484" 
d="M417 242q-53 0 -75.5 -17.5t-27.5 -46.5q-3 -18 -3.5 -42t-0.5 -51t-1.5 -55t-5.5 -54q-18 -101 -89 -154t-174 -53h-76l31 177h34q33 0 48 14.5t20 39.5q3 15 4.5 38.5t2.5 49.5t2.5 52t5.5 47q11 57 43.5 95t90.5 49v2q-54 11 -73.5 49t-9.5 95q4 21 11.5 47t15.5 52
t14.5 49.5t9.5 38.5q5 25 -5.5 39.5t-43.5 14.5h-34l31 177h76q103 0 155.5 -53t35.5 -154q-5 -26 -14 -54t-18 -55t-17.5 -51t-11.5 -42q-5 -32 11.5 -47.5t69.5 -15.5z" />
    <glyph glyph-name="asciitilde" unicode="~" horiz-adv-x="711" 
d="M2 181q24 70 54.5 120.5t66.5 82t76.5 46.5t84.5 15q36 0 63.5 -10.5t50.5 -23t43 -23t42 -10.5q27 0 43 15.5t28 53.5h166q-23 -71 -54 -121t-67 -81.5t-77 -46.5t-84 -15q-36 0 -63.5 10.5t-50.5 23t-43.5 23t-42.5 10.5q-27 0 -43 -16t-29 -53h-164v0z" />
    <glyph glyph-name="uni00A0" unicode="&#xa0;" horiz-adv-x="170" 
 />
    <glyph glyph-name="exclamdown" unicode="&#xa1;" horiz-adv-x="455" 
d="M266 -187h-242l109 474h190zM133 467q4 23 16.5 43t31.5 34.5t44 23t54 8.5q60 0 88.5 -31.5t20.5 -77.5q-8 -47 -48 -79t-100 -32q-59 0 -87 32t-20 79z" />
    <glyph glyph-name="cent" unicode="&#xa2;" horiz-adv-x="579" 
d="M545 205q-12 -49 -38 -86.5t-62 -64.5t-79 -42t-88 -19l-13 -76h-62l13 76q-111 9 -166.5 75t-34.5 186q10 59 36 105.5t63.5 79t86.5 51t106 23.5l14 76h62l-14 -76q43 -4 81 -19t65 -41.5t40 -64t8 -86.5h-203q-5 20 -19.5 27.5t-29.5 7.5q-35 0 -56 -22.5t-28 -61.5
t6 -61t48 -22q15 0 34 8t27 27h203v0z" />
    <glyph glyph-name="sterling" unicode="&#xa3;" horiz-adv-x="679" 
d="M138 548q9 53 35.5 94.5t65 70t88 43.5t105.5 15q64 0 109.5 -18t73 -50t38 -76t4.5 -96h-204q2 26 -8 43t-37 17q-29 0 -43.5 -18.5t-20.5 -50.5q-4 -20 -1.5 -46t5.5 -55h169l-26 -147h-151q-9 -26 -28 -56t-53 -53h335l-30 -171h-552l-8 104q52 35 82.5 76t45.5 100
h-102l26 147h77q-2 29 -1.5 60.5t6.5 66.5z" />
    <glyph glyph-name="currency" unicode="&#xa4;" horiz-adv-x="603" 
d="M379 377q6 33 -9.5 46t-38.5 13t-43 -13t-25 -46q-6 -32 9.5 -44.5t38.5 -12.5t42.5 12.5t25.5 44.5zM382 206q-42 -13 -94 -13t-92 14l-81 -69l-66 81l61 52q-27 44 -17 108q12 65 57 109l-44 53l94 81l60 -73q43 12 93 12q46 0 85 -11l85 72l66 -81l-60 -50
q32 -47 20 -112t-58 -111l41 -49l-94 -81z" />
    <glyph glyph-name="yen" unicode="&#xa5;" horiz-adv-x="730" 
d="M449 128l-23 -128h-222l23 128h-201l25 144h172l-13 36h-152l25 144h79l-87 256h254l63 -284l163 284h250l-177 -256h77l-25 -144h-152l-25 -36h170l-25 -144h-199z" />
    <glyph glyph-name="brokenbar" unicode="&#xa6;" horiz-adv-x="432" 
d="M328 287l-76 -431h-222l76 431h222zM125 398l76 430h222l-76 -430h-222z" />
    <glyph glyph-name="section" unicode="&#xa7;" horiz-adv-x="595" 
d="M103 532q7 42 29.5 77t58 60.5t84 39.5t107.5 14q56 0 96 -16t64.5 -44t34.5 -66.5t6 -83.5h-219q4 34 -2 44t-13 10q-16 0 -20 -24q-3 -14 2.5 -26t20.5 -25t41 -28.5t65 -36.5q58 -35 89 -80.5t21 -102.5q-8 -44 -34 -79.5t-88 -63.5q25 -33 32 -70.5t1 -74.5
q-8 -42 -30 -77t-57.5 -60.5t-84 -39.5t-107.5 -14q-56 0 -96 16t-64.5 44t-34.5 66.5t-6 83.5h219q-2 -17 -1.5 -27.5t2.5 -16.5t5.5 -8t7.5 -2q7 0 13 5.5t8 18.5q2 14 -3.5 26t-21 25t-41 29t-63.5 37q-60 34 -90 79.5t-20 102.5q4 21 12 42t22.5 39.5t35.5 34.5t51 28
q-24 33 -31 70.5t-1 73.5zM332 244q5 23 -2 39t-27 16t-33.5 -15.5t-18.5 -39.5q-4 -23 3.5 -39t26.5 -16q20 0 33.5 16t17.5 39z" />
    <glyph glyph-name="dieresis" unicode="&#xa8;" horiz-adv-x="417" 
d="M155 620q-32 0 -52 19.5t-20 49.5q0 22 8.5 40.5t22.5 32.5t32.5 22t38.5 8q34 0 53.5 -19.5t19.5 -51.5q0 -21 -8.5 -39.5t-22.5 -32t-32.5 -21.5t-39.5 -8zM380 620q-32 0 -52 19.5t-20 49.5q0 22 8.5 40.5t22.5 32.5t32.5 22t38.5 8q34 0 53.5 -19.5t19.5 -51.5
q0 -21 -8.5 -39.5t-22.5 -32t-32.5 -21.5t-39.5 -8z" />
    <glyph glyph-name="copyright" unicode="&#xa9;" horiz-adv-x="771" 
d="M463 720q79 0 140 -26.5t99 -74.5t52 -114.5t0 -146.5t-51.5 -147t-93 -115t-125.5 -75t-149 -27t-140 27t-99 75t-52.5 115t-0.5 147t52 146.5t93.5 114.5t125.5 74.5t149 26.5zM452 655q-66 0 -123 -21t-101 -59.5t-73.5 -93.5t-41.5 -123t-1.5 -123t40.5 -94
t79.5 -60.5t115.5 -21.5t122.5 21.5t100.5 60.5t73.5 94t41.5 123t2 123t-40.5 93.5t-79.5 59.5t-115 21zM442 578q40 0 74 -12.5t58 -36t36.5 -56.5t11.5 -75h-184q-2 13 -8 24t-23 11q-21 0 -36.5 -18.5t-22.5 -57.5t2 -57.5t30 -18.5q17 0 27.5 11t16.5 24h184
q-14 -42 -38.5 -75t-57 -56.5t-70.5 -36t-78 -12.5q-51 0 -89.5 15.5t-63.5 44t-34 69.5t0 92t32.5 92t58.5 69.5t79 44t95 15.5z" />
    <glyph glyph-name="ordfeminine" unicode="&#xaa;" horiz-adv-x="481" 
d="M64 530q8 44 26.5 78t45 57t58 35t66.5 12q42 0 65.5 -13.5t37.5 -40.5l9 50h164l-62 -353h-164l9 49q-24 -27 -51.5 -40.5t-69.5 -13.5q-35 0 -63 11.5t-46.5 34t-25.5 56.5t1 78zM341 532q5 25 -9 37.5t-36 12.5t-40 -13.5t-23 -39.5t9 -37t36 -11t40 12.5t23 38.5z
" />
    <glyph glyph-name="guillemotleft" unicode="&#xab;" horiz-adv-x="618" 
d="M294 120h-201l-46 175l108 175h201l-110 -175zM549 120h-201l-46 175l108 175h201l-110 -175z" />
    <glyph glyph-name="logicalnot" unicode="&#xac;" horiz-adv-x="794" 
d="M50 448h708l-51 -293h-222l22 127h-486z" />
    <glyph glyph-name="uni00AD" unicode="&#xad;" horiz-adv-x="576" 
d="M47 433h466l-33 -183h-466z" />
    <glyph glyph-name="registered" unicode="&#xae;" horiz-adv-x="511" 
d="M322 656q-71 0 -120.5 -43t-62.5 -115q-12 -70 22 -114t105 -44q35 0 65.5 11.5t54.5 32.5t40 50t22 64q13 72 -21.5 115t-104.5 43zM255 275q-50 0 -88.5 16.5t-63 46t-34.5 70.5t-1 90t32.5 90t59 70.5t79.5 46t94 16.5q49 0 87.5 -16.5t63.5 -46t34.5 -70.5t0.5 -90
t-32.5 -90t-58.5 -70.5t-79.5 -46t-93.5 -16.5zM402 538q-8 -43 -46 -60l32 -82h-91l-22 67l-12 -67h-83l37 210h120q35 0 53 -18t12 -50zM286 541l-4 -22h17q12 0 15 11q2 11 -11 11h-17z" />
    <glyph glyph-name="macron" unicode="&#xaf;" horiz-adv-x="451" 
d="M96 769h431l-26 -147h-431z" />
    <glyph glyph-name="degree" unicode="&#xb0;" horiz-adv-x="496" 
d="M67 533q8 43 30 77t56 57t77.5 35.5t94.5 12.5t90 -12.5t64.5 -35.5t35.5 -57t2 -77t-29 -77.5t-54 -58.5t-76 -37t-94 -13t-90.5 13t-66 37t-37.5 58.5t-3 77.5zM348 531q3 19 0.5 32t-9 21.5t-15.5 12t-18 3.5q-20 0 -41.5 -15.5t-28.5 -53.5q-3 -18 0.5 -31t11 -21
t17.5 -11.5t20 -3.5q18 0 37 15t26 52z" />
    <glyph glyph-name="plusminus" unicode="&#xb1;" horiz-adv-x="551" 
d="M443 630l-15 -85h149l-35 -201h-149l-8 -47h149l-36 -201h-511l36 201h149l8 47h-149l35 201h149l15 85h213z" />
    <glyph glyph-name="twosuperior" unicode="&#xb2;" horiz-adv-x="422" 
d="M91 569q16 65 76 106.5t153 41.5q45 0 73.5 -10t44.5 -25.5t21 -35t2 -37.5q-7 -36 -44.5 -62.5t-116.5 -54.5l-43 -15h170l-22 -125h-345l22 122l147 70q28 13 41 26t15 25q2 8 -7 8q-17 0 -24 -34h-163v0z" />
    <glyph glyph-name="threesuperior" unicode="&#xb3;" horiz-adv-x="403" 
d="M72 577q4 25 18 50.5t39.5 45t64 32t92.5 12.5q81 0 118.5 -29t29.5 -77q-10 -62 -88 -74l-1 -4q45 -11 60 -30.5t10 -50.5q-9 -51 -60 -77t-130 -26q-56 0 -91.5 9.5t-55.5 27t-26.5 42t-3.5 54.5h172q-2 -12 1 -16t10 -4q5 0 9.5 4t6.5 17q3 14 -2.5 19.5t-19.5 5.5
h-30l9 54h21q27 0 31 26q3 17 -9 17q-13 0 -19 -28h-156v0z" />
    <glyph glyph-name="acute" unicode="&#xb4;" horiz-adv-x="279" 
d="M371 860l-29 -164l-276 -94l27 148z" />
    <glyph glyph-name="uni00B5" unicode="&#xb5;" horiz-adv-x="751" 
d="M626 0h-222l14 77q-29 -33 -72.5 -57t-99.5 -24l-47 -266h-221l147 834h221l-53 -298q-6 -36 11.5 -57t53.5 -21q37 0 62 21t31 57v-2l53 300h222z" />
    <glyph glyph-name="paragraph" unicode="&#xb6;" horiz-adv-x="778" 
d="M778 708l-125 -708h-177l96 542h-58l-96 -542h-176l47 265h-31q-65 0 -106.5 19t-65 50.5t-29.5 71t1 80.5t27 80.5t54 71t83 51t114 19.5h442z" />
    <glyph glyph-name="periodcentered" unicode="&#xb7;" horiz-adv-x="349" 
d="M270 296q-4 -23 -16.5 -43t-31.5 -34.5t-44 -23t-54 -8.5q-60 0 -88.5 31.5t-20.5 77.5q8 47 48 79t100 32q59 0 87 -32t20 -79z" />
    <glyph glyph-name="cedilla" unicode="&#xb8;" horiz-adv-x="343" 
d="M149 -27q18 0 39.5 -5.5t39 -19.5t26.5 -37.5t3 -59.5t-24.5 -59.5t-43 -37.5t-52 -19.5t-52.5 -5.5h-173l20 113h150q26 0 29 16q3 15 -23 15h-85l24 134h128z" />
    <glyph glyph-name="onesuperior" unicode="&#xb9;" horiz-adv-x="285" 
d="M138 577h-66l22 127h230l-62 -352h-164z" />
    <glyph glyph-name="ordmasculine" unicode="&#xba;" horiz-adv-x="470" 
d="M64 529q7 39 27.5 72t52.5 57t74 37.5t92 13.5t87.5 -13.5t61.5 -37.5t33 -57t2 -72q-7 -38 -27.5 -71.5t-53 -58t-75 -38.5t-92.5 -14t-87 14t-60.5 38.5t-32.5 58t-2 71.5zM327 529q5 29 -7 42t-32 13t-36 -13t-21 -42t6.5 -42.5t31.5 -13.5t36.5 13.5t21.5 42.5z" />
    <glyph glyph-name="guillemotright" unicode="&#xbb;" horiz-adv-x="618" 
d="M276 120l111 175l-49 175h202l45 -175l-107 -175h-202zM21 120l111 175l-49 175h202l45 -175l-107 -175h-202z" />
    <glyph glyph-name="onequarter" unicode="&#xbc;" horiz-adv-x="879" 
d="M573 708h216l-512 -708h-217zM833 146l-15 -88h-35l-11 -58h-165l11 58h-203l14 84l178 209h227l-36 -205h35zM643 151l17 99l-76 -99h59zM163 577h-66l22 127h230l-62 -352h-164z" />
    <glyph glyph-name="onehalf" unicode="&#xbd;" horiz-adv-x="928" 
d="M584 711h216l-523 -711h-217zM163 577h-66l22 127h230l-62 -352h-164zM545 216q16 65 76 106.5t153 41.5q45 0 73.5 -10t44.5 -25.5t21 -35t2 -37.5q-7 -36 -44.5 -62.5t-116.5 -54.5l-43 -15h170l-22 -125h-345l22 122l147 70q28 13 41 26t15 25q2 8 -7 8q-17 0 -24 -34
h-163z" />
    <glyph glyph-name="threequarters" unicode="&#xbe;" horiz-adv-x="1024" 
d="M706 711h217l-496 -711h-216zM985 146l-15 -88h-35l-11 -58h-164l11 58h-204l14 84l158 209h247l-36 -205h35zM795 146l22 124l-81 -124h59zM125 577q4 25 18 50.5t39.5 45t64 32t92.5 12.5q81 0 118.5 -29t29.5 -77q-10 -62 -88 -74l-1 -4q45 -11 60 -30.5t10 -50.5
q-9 -51 -60 -77t-130 -26q-56 0 -91.5 9.5t-55.5 27t-26.5 42t-3.5 54.5h172q-2 -12 1 -16t10 -4q5 0 9.5 4t6.5 17q3 14 -2.5 19.5t-19.5 5.5h-30l9 54h21q27 0 31 26q3 17 -9 17q-13 0 -19 -28h-156z" />
    <glyph glyph-name="questiondown" unicode="&#xbf;" horiz-adv-x="538" 
d="M471 25q-6 -45 -27.5 -85.5t-58.5 -71.5t-89 -49.5t-119 -18.5q-53 0 -96 13.5t-70.5 40.5t-39 68t-1.5 96q8 45 30 81t55 61.5t75 40t90 15.5l18 71h196l-31 -212h-84q-58 0 -93 -13t-39 -45q-3 -18 5.5 -27.5t22.5 -9.5q22 0 33 13.5t14 31.5h209zM239 472
q4 23 16.5 43t31.5 34.5t44 23t54 8.5q60 0 88.5 -31.5t20.5 -77.5q-8 -47 -48 -79t-100 -32q-59 0 -87 32t-20 79z" />
    <glyph glyph-name="Agrave" unicode="&#xc0;" horiz-adv-x="773" 
d="M473 107h-236l-54 -107h-233l384 708h256l133 -708h-234zM420 471l-99 -197h128zM401 973l206 -120l-68 -101l-213 107z" />
    <glyph glyph-name="Aacute" unicode="&#xc1;" horiz-adv-x="773" 
d="M473 107h-236l-54 -107h-233l384 708h256l133 -708h-234zM420 471l-99 -197h128zM640 856l-240 -104l-57 104l236 117z" />
    <glyph glyph-name="Acircumflex" unicode="&#xc2;" horiz-adv-x="773" 
d="M473 107h-236l-54 -107h-233l384 708h256l133 -708h-234zM420 471l-99 -197h128zM343 742l-53 95l200 106l170 -106l-70 -95l-115 62z" />
    <glyph glyph-name="Atilde" unicode="&#xc3;" horiz-adv-x="773" 
d="M473 107h-236l-54 -107h-233l384 708h256l133 -708h-234zM420 471l-99 -197h128zM284 754q11 78 47 117t84 39q27 0 43.5 -6.5t28 -15t20 -15t18.5 -6.5q9 0 17 7t12 33h116q-10 -78 -47 -116.5t-85 -38.5q-28 0 -44.5 6.5t-27.5 14t-18.5 14t-17.5 6.5q-9 0 -17 -6.5
t-12 -32.5h-117z" />
    <glyph glyph-name="Adieresis" unicode="&#xc4;" horiz-adv-x="773" 
d="M473 107h-236l-54 -107h-233l384 708h256l133 -708h-234zM359 767q-32 0 -52 19.5t-20 49.5q0 22 8.5 40.5t22.5 32.5t32.5 22t38.5 8q34 0 53.5 -19.5t19.5 -51.5q0 -21 -8.5 -39.5t-22.5 -32t-32.5 -21.5t-39.5 -8zM584 767q-32 0 -52 19.5t-20 49.5q0 22 8.5 40.5
t22.5 32.5t32.5 22t38.5 8q34 0 53.5 -19.5t19.5 -51.5q0 -21 -8.5 -39.5t-22.5 -32t-32.5 -21.5t-39.5 -8zM420 471l-99 -197h128z" />
    <glyph glyph-name="Aring" unicode="&#xc5;" horiz-adv-x="773" 
d="M473 107h-236l-54 -107h-233l384 708h256l133 -708h-234zM537 872q4 22 -7 34.5t-31 12.5t-35 -12.5t-19 -34.5q-4 -21 7 -34t31 -13t35 13t19 34zM359 872q6 31 20.5 55.5t35.5 41.5t46.5 26t52.5 9t49.5 -9t37.5 -26t21.5 -41.5t0.5 -55.5q-5 -31 -19.5 -55.5
t-35.5 -41.5t-47 -26t-53 -9t-49.5 9t-37.5 26t-21 41.5t-1 55.5zM420 471l-99 -197h128z" />
    <glyph glyph-name="AE" unicode="&#xc6;" horiz-adv-x="986" 
d="M360 264h127l48 273zM756 532l-15 -85h210l-29 -167h-210l-19 -103h240l-31 -177h-462l17 97h-204l-62 -97h-241l464 708h613l-31 -176h-240z" />
    <glyph glyph-name="Ccedilla" unicode="&#xc7;" horiz-adv-x="753" 
d="M43 355q14 79 49.5 145t89.5 114t123.5 74.5t150.5 26.5q70 0 125 -20t92.5 -57t57 -88t19.5 -114h-234q-10 35 -36 54.5t-64 19.5q-57 0 -96.5 -42t-51.5 -113q-13 -71 12 -113t82 -42q38 0 70.5 19.5t55.5 54.5h234q-20 -55 -51.5 -101.5t-73 -82t-92.5 -58.5t-109 -32
h5l-6 -34q18 0 39.5 -5.5t39 -19.5t26.5 -37.5t3 -59.5t-24.5 -59.5t-43 -37.5t-52 -19.5t-52.5 -5.5h-173l20 113h150q26 0 29 16q3 15 -23 15h-85l24 133q-67 9 -116 38.5t-78.5 76t-39 108t3.5 133.5z" />
    <glyph glyph-name="Egrave" unicode="&#xc8;" horiz-adv-x="556" 
d="M566 532h-250l-15 -88h220l-30 -167h-220l-18 -100h250l-31 -177h-472l125 708h472zM291 973l206 -120l-68 -101l-213 107z" />
    <glyph glyph-name="Eacute" unicode="&#xc9;" horiz-adv-x="556" 
d="M566 532h-250l-15 -88h220l-30 -167h-220l-18 -100h250l-31 -177h-472l125 708h472zM548 856l-240 -104l-57 104l236 117z" />
    <glyph glyph-name="Ecircumflex" unicode="&#xca;" horiz-adv-x="556" 
d="M566 532h-250l-15 -88h220l-30 -167h-220l-18 -100h250l-31 -177h-472l125 708h472zM232 742l-53 95l200 106l170 -106l-70 -95l-115 62z" />
    <glyph glyph-name="Edieresis" unicode="&#xcb;" horiz-adv-x="556" 
d="M566 532h-250l-15 -88h220l-30 -167h-220l-18 -100h250l-31 -177h-472l125 708h472zM254 767q-32 0 -52 19.5t-20 49.5q0 22 8.5 40.5t22.5 32.5t32.5 22t38.5 8q34 0 53.5 -19.5t19.5 -51.5q0 -21 -8.5 -39.5t-22.5 -32t-32.5 -21.5t-39.5 -8zM479 767q-32 0 -52 19.5
t-20 49.5q0 22 8.5 40.5t22.5 32.5t32.5 22t38.5 8q34 0 53.5 -19.5t19.5 -51.5q0 -21 -8.5 -39.5t-22.5 -32t-32.5 -21.5t-39.5 -8z" />
    <glyph glyph-name="Igrave" unicode="&#xcc;" horiz-adv-x="322" 
d="M125 708h222l-125 -708h-222zM181 973l206 -120l-68 -101l-213 107z" />
    <glyph glyph-name="Iacute" unicode="&#xcd;" horiz-adv-x="322" 
d="M125 708h222l-125 -708h-222zM399 856l-240 -104l-57 104l236 117z" />
    <glyph glyph-name="Icircumflex" unicode="&#xce;" horiz-adv-x="322" 
d="M125 708h222l-125 -708h-222zM408 739l-150 88l-181 -88l25 144l181 85l150 -85z" />
    <glyph glyph-name="Idieresis" unicode="&#xcf;" horiz-adv-x="322" 
d="M125 708h222l-125 -708h-222zM134 767q-32 0 -52 19.5t-20 49.5q0 22 8.5 40.5t22.5 32.5t32.5 22t38.5 8q34 0 53.5 -19.5t19.5 -51.5q0 -21 -8.5 -39.5t-22.5 -32t-32.5 -21.5t-39.5 -8zM359 767q-32 0 -52 19.5t-20 49.5q0 22 8.5 40.5t22.5 32.5t32.5 22t38.5 8
q34 0 53.5 -19.5t19.5 -51.5q0 -21 -8.5 -39.5t-22.5 -32t-32.5 -21.5t-39.5 -8z" />
    <glyph glyph-name="Eth" unicode="&#xd0;" horiz-adv-x="743" 
d="M420 708q85 0 148.5 -26.5t103 -73t53.5 -111.5t1 -141q-14 -76 -51 -141t-93.5 -113t-129 -75t-157.5 -27h-295l47 268h-49l31 176h49l47 264h295zM310 198q74 0 125.5 40t65.5 118q7 39 0.5 68.5t-24.5 49.5t-46 30t-65 10h-53l-12 -70h130l-31 -176h-131l-12 -70h53z
" />
    <glyph glyph-name="Ntilde" unicode="&#xd1;" horiz-adv-x="779" 
d="M804 708l-125 -708h-222l-172 356l-63 -356h-222l125 708h222l171 -362l64 362h222zM239 759q34 96 82 136t110 40q24 0 43 -7t34.5 -16t29.5 -16t29 -7q37 0 52 47h109q-33 -96 -81.5 -135.5t-109.5 -39.5q-24 0 -43 7t-35 15.5t-30 15.5t-29 7q-36 0 -53 -47h-108z" />
    <glyph glyph-name="Ograve" unicode="&#xd2;" horiz-adv-x="788" 
d="M767 427q0 -96 -30 -175.5t-85.5 -137t-133 -89.5t-171.5 -32q-68 0 -123.5 21.5t-94.5 60.5t-60.5 93.5t-21.5 120.5q0 96 30 175.5t85 136t132 88t170 31.5q70 0 126 -21t95.5 -59.5t60.5 -92.5t21 -120zM265 317q0 -54 29 -85.5t87 -31.5q40 0 71.5 16.5t53.5 44
t33 63.5t11 75q0 54 -28.5 85t-85.5 31q-41 0 -72.5 -16t-53.5 -43.5t-33.5 -63.5t-11.5 -75zM391 973l206 -120l-68 -101l-213 107z" />
    <glyph glyph-name="Oacute" unicode="&#xd3;" horiz-adv-x="788" 
d="M767 427q0 -96 -30 -175.5t-85.5 -137t-133 -89.5t-171.5 -32q-68 0 -123.5 21.5t-94.5 60.5t-60.5 93.5t-21.5 120.5q0 96 30 175.5t85 136t132 88t170 31.5q70 0 126 -21t95.5 -59.5t60.5 -92.5t21 -120zM265 317q0 -54 29 -85.5t87 -31.5q40 0 71.5 16.5t53.5 44
t33 63.5t11 75q0 54 -28.5 85t-85.5 31q-41 0 -72.5 -16t-53.5 -43.5t-33.5 -63.5t-11.5 -75zM652 856l-240 -104l-57 104l236 117z" />
    <glyph glyph-name="Ocircumflex" unicode="&#xd4;" horiz-adv-x="788" 
d="M767 427q0 -96 -30 -175.5t-85.5 -137t-133 -89.5t-171.5 -32q-68 0 -123.5 21.5t-94.5 60.5t-60.5 93.5t-21.5 120.5q0 96 30 175.5t85 136t132 88t170 31.5q70 0 126 -21t95.5 -59.5t60.5 -92.5t21 -120zM265 317q0 -54 29 -85.5t87 -31.5q40 0 71.5 16.5t53.5 44
t33 63.5t11 75q0 54 -28.5 85t-85.5 31q-41 0 -72.5 -16t-53.5 -43.5t-33.5 -63.5t-11.5 -75zM345 742l-53 95l200 106l170 -106l-70 -95l-115 62z" />
    <glyph glyph-name="Otilde" unicode="&#xd5;" horiz-adv-x="788" 
d="M767 427q0 -96 -30 -175.5t-85.5 -137t-133 -89.5t-171.5 -32q-68 0 -123.5 21.5t-94.5 60.5t-60.5 93.5t-21.5 120.5q0 96 30 175.5t85 136t132 88t170 31.5q70 0 126 -21t95.5 -59.5t60.5 -92.5t21 -120zM265 317q0 -54 29 -85.5t87 -31.5q40 0 71.5 16.5t53.5 44
t33 63.5t11 75q0 54 -28.5 85t-85.5 31q-41 0 -72.5 -16t-53.5 -43.5t-33.5 -63.5t-11.5 -75zM287 754q11 78 47 117t84 39q27 0 43.5 -6.5t28 -15t20 -15t18.5 -6.5q9 0 17 7t12 33h116q-10 -78 -47 -116.5t-85 -38.5q-28 0 -44.5 6.5t-27.5 14t-18.5 14t-17.5 6.5
q-9 0 -17 -6.5t-12 -32.5h-117z" />
    <glyph glyph-name="Odieresis" unicode="&#xd6;" horiz-adv-x="788" 
d="M767 427q0 -96 -30 -175.5t-85.5 -137t-133 -89.5t-171.5 -32q-68 0 -123.5 21.5t-94.5 60.5t-60.5 93.5t-21.5 120.5q0 96 30 175.5t85 136t132 88t170 31.5q70 0 126 -21t95.5 -59.5t60.5 -92.5t21 -120zM265 317q0 -54 29 -85.5t87 -31.5q40 0 71.5 16.5t53.5 44
t33 63.5t11 75q0 54 -28.5 85t-85.5 31q-41 0 -72.5 -16t-53.5 -43.5t-33.5 -63.5t-11.5 -75zM367 767q-32 0 -52 19.5t-20 49.5q0 22 8.5 40.5t22.5 32.5t32.5 22t38.5 8q34 0 53.5 -19.5t19.5 -51.5q0 -21 -8.5 -39.5t-22.5 -32t-32.5 -21.5t-39.5 -8zM592 767
q-32 0 -52 19.5t-20 49.5q0 22 8.5 40.5t22.5 32.5t32.5 22t38.5 8q34 0 53.5 -19.5t19.5 -51.5q0 -21 -8.5 -39.5t-22.5 -32t-32.5 -21.5t-39.5 -8z" />
    <glyph glyph-name="multiply" unicode="&#xd7;" horiz-adv-x="581" 
d="M9 221l147 126l-99 120l172 145l98 -118l137 118l119 -142l-138 -119l106 -128l-173 -145l-104 127l-147 -126z" />
    <glyph glyph-name="Oslash" unicode="&#xd8;" horiz-adv-x="788" 
d="M766 427q0 -96 -30 -175.5t-85.5 -137t-133 -89.5t-171.5 -32q-61 0 -111.5 17t-88.5 49l-62 -58h-116l125 117q-23 35 -35 78t-12 93q0 96 30 175.5t85 136t132 88t170 31.5q63 0 115 -17t90 -49l62 58h115l-125 -117q46 -71 46 -168zM264 317q0 -21 4 -36l234 218
q-29 16 -67 16q-41 0 -72.5 -16t-53.5 -43.5t-33.5 -63.5t-11.5 -75zM380 200q40 0 71.5 16.5t53.5 44t33 63.5t11 75q0 18 -3 33l-232 -216q25 -16 66 -16z" />
    <glyph glyph-name="Ugrave" unicode="&#xd9;" horiz-adv-x="719" 
d="M121 708h221l-70 -399q-8 -46 7 -76t65 -30q51 0 78 30t35 76l70 399h221l-70 -399q-14 -81 -48.5 -140.5t-84 -98.5t-111 -58t-129.5 -19q-66 0 -119.5 20t-88 59.5t-47.5 99t1 137.5zM353 973l206 -120l-68 -101l-213 107z" />
    <glyph glyph-name="Uacute" unicode="&#xda;" horiz-adv-x="719" 
d="M121 708h221l-70 -399q-8 -46 7 -76t65 -30q51 0 78 30t35 76l70 399h221l-70 -399q-14 -81 -48.5 -140.5t-84 -98.5t-111 -58t-129.5 -19q-66 0 -119.5 20t-88 59.5t-47.5 99t1 137.5zM650 856l-240 -104l-57 104l236 117z" />
    <glyph glyph-name="Ucircumflex" unicode="&#xdb;" horiz-adv-x="719" 
d="M121 708h221l-70 -399q-8 -46 7 -76t65 -30q51 0 78 30t35 76l70 399h221l-70 -399q-14 -81 -48.5 -140.5t-84 -98.5t-111 -58t-129.5 -19q-66 0 -119.5 20t-88 59.5t-47.5 99t1 137.5zM606 739l-150 88l-181 -88l25 144l181 85l150 -85z" />
    <glyph glyph-name="Udieresis" unicode="&#xdc;" horiz-adv-x="719" 
d="M121 708h221l-70 -399q-8 -46 7 -76t65 -30q51 0 78 30t35 76l70 399h221l-70 -399q-14 -81 -48.5 -140.5t-84 -98.5t-111 -58t-129.5 -19q-66 0 -119.5 20t-88 59.5t-47.5 99t1 137.5zM332 767q-32 0 -52 19.5t-20 49.5q0 22 8.5 40.5t22.5 32.5t32.5 22t38.5 8
q34 0 53.5 -19.5t19.5 -51.5q0 -21 -8.5 -39.5t-22.5 -32t-32.5 -21.5t-39.5 -8zM557 767q-32 0 -52 19.5t-20 49.5q0 22 8.5 40.5t22.5 32.5t32.5 22t38.5 8q34 0 53.5 -19.5t19.5 -51.5q0 -21 -8.5 -39.5t-22.5 -32t-32.5 -21.5t-39.5 -8z" />
    <glyph glyph-name="Yacute" unicode="&#xdd;" horiz-adv-x="730" 
d="M75 708h254l69 -251l157 251h250l-341 -493l-38 -215h-222l38 215zM634 856l-240 -104l-57 104l236 117z" />
    <glyph glyph-name="Thorn" unicode="&#xde;" horiz-adv-x="649" 
d="M336 290q38 0 57 18t24 47t-7.5 47t-50.5 18h-63l-23 -130h63zM642 355q-8 -47 -32.5 -89t-64 -73.5t-93 -49.5t-120.5 -18h-88l-22 -125h-222l125 708h220l-21 -120h90q67 0 114 -17t75.5 -48t38 -74t0.5 -94z" />
    <glyph glyph-name="germandbls" unicode="&#xdf;" horiz-adv-x="773" 
d="M84 509q11 60 40.5 107.5t75 80t105 49.5t130.5 17q57 0 103.5 -12.5t79.5 -34t51 -52t18 -66.5q0 -42 -19 -74t-42.5 -57t-42.5 -43t-19 -31q0 -5 2 -8.5t9.5 -8.5t22 -12t40.5 -18q31 -14 53 -28t36.5 -31.5t21.5 -39.5t7 -51q0 -47 -19 -85t-53 -65t-81.5 -41.5
t-105.5 -14.5q-111 0 -168.5 50.5t-58.5 147.5h194q2 -20 15 -32.5t31 -12.5q15 0 25 8t10 20q0 13 -13.5 24t-53.5 28q-74 30 -107 57t-33 66q0 30 19 56.5t42 50t42 44.5t19 41q0 19 -16.5 30.5t-44.5 11.5q-37 0 -63.5 -22t-32.5 -59l-88 -499h-220z" />
    <glyph glyph-name="agrave" unicode="&#xe0;" 
d="M20 282q12 68 39.5 122t65.5 91t84 56.5t95 19.5q57 0 92 -23t49 -61l14 77h221l-100 -564h-221l14 77q-27 -38 -70.5 -61t-100.5 -23q-49 0 -88 19.5t-64 56.5t-33.5 91t3.5 122zM409 282q8 47 -11 71t-54 24t-63 -24t-36 -71t11 -71t54 -24t63 24t36 71zM309 830
l206 -120l-68 -101l-213 107z" />
    <glyph glyph-name="aacute" unicode="&#xe1;" 
d="M20 282q12 68 39.5 122t65.5 91t84 56.5t95 19.5q57 0 92 -23t49 -61l14 77h221l-100 -564h-221l14 77q-27 -38 -70.5 -61t-100.5 -23q-49 0 -88 19.5t-64 56.5t-33.5 91t3.5 122zM409 282q8 47 -11 71t-54 24t-63 -24t-36 -71t11 -71t54 -24t63 24t36 71zM564 713
l-240 -104l-57 104l236 117z" />
    <glyph glyph-name="acircumflex" unicode="&#xe2;" 
d="M20 282q12 68 39.5 122t65.5 91t84 56.5t95 19.5q57 0 92 -23t49 -61l14 77h221l-100 -564h-221l14 77q-27 -38 -70.5 -61t-100.5 -23q-49 0 -88 19.5t-64 56.5t-33.5 91t3.5 122zM409 282q8 47 -11 71t-54 24t-63 -24t-36 -71t11 -71t54 -24t63 24t36 71zM275 599
l-53 95l200 106l170 -106l-70 -95l-115 62z" />
    <glyph glyph-name="atilde" unicode="&#xe3;" 
d="M20 282q12 68 39.5 122t65.5 91t84 56.5t95 19.5q57 0 92 -23t49 -61l14 77h221l-100 -564h-221l14 77q-27 -38 -70.5 -61t-100.5 -23q-49 0 -88 19.5t-64 56.5t-33.5 91t3.5 122zM409 282q8 47 -11 71t-54 24t-63 -24t-36 -71t11 -71t54 -24t63 24t36 71zM214 611
q11 78 47 117t84 39q27 0 43.5 -6.5t28 -15t20 -15t18.5 -6.5q9 0 17 7t12 33h116q-10 -78 -47 -116.5t-85 -38.5q-28 0 -44.5 6.5t-27.5 14t-18.5 14t-17.5 6.5q-9 0 -17 -6.5t-12 -32.5h-117z" />
    <glyph glyph-name="adieresis" unicode="&#xe4;" 
d="M20 282q12 68 39.5 122t65.5 91t84 56.5t95 19.5q57 0 92 -23t49 -61l14 77h221l-100 -564h-221l14 77q-27 -38 -70.5 -61t-100.5 -23q-49 0 -88 19.5t-64 56.5t-33.5 91t3.5 122zM409 282q8 47 -11 71t-54 24t-63 -24t-36 -71t11 -71t54 -24t63 24t36 71zM293 620
q-32 0 -52 19.5t-20 49.5q0 22 8.5 40.5t22.5 32.5t32.5 22t38.5 8q34 0 53.5 -19.5t19.5 -51.5q0 -21 -8.5 -39.5t-22.5 -32t-32.5 -21.5t-39.5 -8zM518 620q-32 0 -52 19.5t-20 49.5q0 22 8.5 40.5t22.5 32.5t32.5 22t38.5 8q34 0 53.5 -19.5t19.5 -51.5q0 -21 -8.5 -39.5
t-22.5 -32t-32.5 -21.5t-39.5 -8z" />
    <glyph glyph-name="aring" unicode="&#xe5;" 
d="M20 282q12 68 39.5 122t65.5 91t84 56.5t95 19.5q57 0 92 -23t49 -61l14 77h221l-100 -564h-221l14 77q-27 -38 -70.5 -61t-100.5 -23q-49 0 -88 19.5t-64 56.5t-33.5 91t3.5 122zM409 282q8 47 -11 71t-54 24t-63 -24t-36 -71t11 -71t54 -24t63 24t36 71zM293 725
q6 31 20.5 55.5t35.5 41.5t46.5 26t52.5 9t49.5 -9t37.5 -26t21.5 -41.5t0.5 -55.5q-5 -31 -19.5 -55.5t-35.5 -41.5t-47 -26t-53 -9t-49.5 9t-37.5 26t-21 41.5t-1 55.5zM471 725q4 22 -7 34.5t-31 12.5t-35 -12.5t-19 -34.5q-4 -21 7 -34t31 -13t35 13t19 34z" />
    <glyph glyph-name="ae" unicode="&#xe6;" horiz-adv-x="1054" 
d="M744 397q-29 0 -55.5 -13t-40.5 -50h170q6 33 -17 48t-57 15zM1008 203q-17 -45 -43.5 -83.5t-61 -66.5t-74.5 -44t-84 -16q-61 0 -99 22.5t-52 61.5l-14 -77h-221l14 77q-27 -38 -70.5 -61t-100.5 -23q-49 0 -88 19.5t-64 56.5t-33.5 91t3.5 122t39.5 122t65.5 91
t84 56.5t95 19.5q57 0 92 -23t49 -61l14 77h221l-14 -77q27 40 73.5 62t107.5 22q52 0 92.5 -19.5t65.5 -56t33.5 -89.5t-3.5 -119q-2 -11 -5 -22t-8 -22h-391q-2 -45 16.5 -60.5t49.5 -15.5q29 0 47 9.5t29 26.5h235zM245 282q-8 -47 11 -71t54 -24t63 24t36 71t-11 71
t-54 24t-63 -24t-36 -71z" />
    <glyph glyph-name="ccedilla" unicode="&#xe7;" horiz-adv-x="609" 
d="M20 282q12 67 42.5 121t75.5 91t101.5 57t119.5 20q109 0 174 -61.5t66 -172.5h-235q-3 20 -13 32t-31 12q-26 0 -46 -24t-29 -75t3 -75t38 -24q21 0 35 12t23 32h235q-34 -94 -101 -152.5t-155 -75.5l-6 -33q18 0 39.5 -5.5t39 -19.5t26.5 -37.5t3 -59.5t-24.5 -59.5
t-43 -37.5t-52 -19.5t-52.5 -5.5h-173l20 113h150q26 0 29 16q3 15 -23 15h-85l24 132q-49 9 -86.5 32.5t-60.5 60t-31 84.5t3 107z" />
    <glyph glyph-name="egrave" unicode="&#xe8;" horiz-adv-x="616" 
d="M328 397q-60 0 -81 -63h133q6 34 -10.5 48.5t-41.5 14.5zM570 203q-17 -45 -48 -83.5t-72 -66.5t-90.5 -44t-102.5 -16q-63 0 -112.5 20t-81 57t-43.5 90.5t0 121.5q12 67 42.5 121t75.5 91t101.5 57t119.5 20t112.5 -19.5t81.5 -56t44 -89.5t0 -119q-2 -11 -4.5 -22
t-6.5 -22h-356q-5 -43 9.5 -58t37.5 -15q22 0 36 10t22 23h235zM291 830l206 -120l-68 -101l-213 107z" />
    <glyph glyph-name="eacute" unicode="&#xe9;" horiz-adv-x="616" 
d="M328 397q-60 0 -81 -63h133q6 34 -10.5 48.5t-41.5 14.5zM570 203q-17 -45 -48 -83.5t-72 -66.5t-90.5 -44t-102.5 -16q-63 0 -112.5 20t-81 57t-43.5 90.5t0 121.5q12 67 42.5 121t75.5 91t101.5 57t119.5 20t112.5 -19.5t81.5 -56t44 -89.5t0 -119q-2 -11 -4.5 -22
t-6.5 -22h-356q-5 -43 9.5 -58t37.5 -15q22 0 36 10t22 23h235zM556 713l-240 -104l-57 104l236 117z" />
    <glyph glyph-name="ecircumflex" unicode="&#xea;" horiz-adv-x="616" 
d="M328 397q-60 0 -81 -63h133q6 34 -10.5 48.5t-41.5 14.5zM570 203q-17 -45 -48 -83.5t-72 -66.5t-90.5 -44t-102.5 -16q-63 0 -112.5 20t-81 57t-43.5 90.5t0 121.5q12 67 42.5 121t75.5 91t101.5 57t119.5 20t112.5 -19.5t81.5 -56t44 -89.5t0 -119q-2 -11 -4.5 -22
t-6.5 -22h-356q-5 -43 9.5 -58t37.5 -15q22 0 36 10t22 23h235zM241 599l-53 95l200 106l170 -106l-70 -95l-115 62z" />
    <glyph glyph-name="edieresis" unicode="&#xeb;" horiz-adv-x="616" 
d="M328 397q-60 0 -81 -63h133q6 34 -10.5 48.5t-41.5 14.5zM570 203q-17 -45 -48 -83.5t-72 -66.5t-90.5 -44t-102.5 -16q-63 0 -112.5 20t-81 57t-43.5 90.5t0 121.5q12 67 42.5 121t75.5 91t101.5 57t119.5 20t112.5 -19.5t81.5 -56t44 -89.5t0 -119q-2 -11 -4.5 -22
t-6.5 -22h-356q-5 -43 9.5 -58t37.5 -15q22 0 36 10t22 23h235zM268 620q-32 0 -52 19.5t-20 49.5q0 22 8.5 40.5t22.5 32.5t32.5 22t38.5 8q34 0 53.5 -19.5t19.5 -51.5q0 -21 -8.5 -39.5t-22.5 -32t-32.5 -21.5t-39.5 -8zM493 620q-32 0 -52 19.5t-20 49.5q0 22 8.5 40.5
t22.5 32.5t32.5 22t38.5 8q34 0 53.5 -19.5t19.5 -51.5q0 -21 -8.5 -39.5t-22.5 -32t-32.5 -21.5t-39.5 -8z" />
    <glyph glyph-name="igrave" unicode="&#xec;" horiz-adv-x="372" 
d="M125 564h222l-100 -564h-222zM183 830l206 -120l-68 -101l-213 107z" />
    <glyph glyph-name="iacute" unicode="&#xed;" horiz-adv-x="372" 
d="M125 564h222l-100 -564h-222zM397 713l-240 -104l-57 104l236 117z" />
    <glyph glyph-name="icircumflex" unicode="&#xee;" horiz-adv-x="372" 
d="M125 564h222l-100 -564h-222zM407 592l-150 88l-181 -88l25 144l181 85l150 -85z" />
    <glyph glyph-name="idieresis" unicode="&#xef;" horiz-adv-x="372" 
d="M125 564h222l-100 -564h-222zM133 620q-32 0 -52 19.5t-20 49.5q0 22 8.5 40.5t22.5 32.5t32.5 22t38.5 8q34 0 53.5 -19.5t19.5 -51.5q0 -21 -8.5 -39.5t-22.5 -32t-32.5 -21.5t-39.5 -8zM358 620q-32 0 -52 19.5t-20 49.5q0 22 8.5 40.5t22.5 32.5t32.5 22t38.5 8
q34 0 53.5 -19.5t19.5 -51.5q0 -21 -8.5 -39.5t-22.5 -32t-32.5 -21.5t-39.5 -8z" />
    <glyph glyph-name="eth" unicode="&#xf0;" horiz-adv-x="643" 
d="M20 284q12 67 43 119.5t75.5 89t99 56t113.5 19.5q17 0 37 -2t41 -6q-7 25 -20 52l-91 -24l13 72l46 12q-23 41 -49 68h193l18 -24l70 19l-13 -72l-22 -6q38 -73 54.5 -161t0.5 -179q-14 -79 -48 -139t-81.5 -101t-105 -62t-117.5 -21q-62 0 -114 20t-87.5 57.5
t-51.5 91.5t-4 121zM246 282q-5 -27 0 -45.5t15.5 -29.5t24 -16t25.5 -5q26 0 51 21t35 75q5 27 1 45t-12.5 29.5t-20.5 16t-24 4.5q-13 0 -27.5 -4.5t-28 -16t-24 -29.5t-15.5 -45z" />
    <glyph glyph-name="ntilde" unicode="&#xf1;" horiz-adv-x="697" 
d="M369 386q-37 0 -61.5 -23t-32.5 -63l-53 -300h-222l100 564h222l-15 -85q30 36 77.5 62.5t110.5 26.5q49 0 84 -17t56 -48.5t27.5 -76t-3.5 -99.5l-58 -327h-221l53 299q8 41 -10 64t-54 23zM208 612q34 96 82 136t110 40q24 0 43 -7t34.5 -16t29.5 -16t29 -7q37 0 52 47
h109q-33 -96 -81.5 -135.5t-109.5 -39.5q-24 0 -43 7t-35 15.5t-30 15.5t-29 7q-36 0 -53 -47h-108z" />
    <glyph glyph-name="ograve" unicode="&#xf2;" horiz-adv-x="636" 
d="M622 334q0 -75 -27 -137.5t-74.5 -108t-112.5 -70.5t-141 -25q-56 0 -102.5 16.5t-80 47.5t-52 74.5t-18.5 97.5q0 74 27 137t74.5 108.5t112.5 71t141 25.5q56 0 102.5 -17t80 -47.5t52 -74.5t18.5 -98zM242 253q0 -35 16.5 -51.5t42.5 -16.5q23 0 40.5 11.5t29 30
t17.5 41t6 43.5q0 35 -17 51.5t-42 16.5q-23 0 -40.5 -11.5t-29 -30t-17.5 -41t-6 -43.5zM290 830l206 -120l-68 -101l-213 107z" />
    <glyph glyph-name="oacute" unicode="&#xf3;" horiz-adv-x="636" 
d="M622 334q0 -75 -27 -137.5t-74.5 -108t-112.5 -70.5t-141 -25q-56 0 -102.5 16.5t-80 47.5t-52 74.5t-18.5 97.5q0 74 27 137t74.5 108.5t112.5 71t141 25.5q56 0 102.5 -17t80 -47.5t52 -74.5t18.5 -98zM242 253q0 -35 16.5 -51.5t42.5 -16.5q23 0 40.5 11.5t29 30
t17.5 41t6 43.5q0 35 -17 51.5t-42 16.5q-23 0 -40.5 -11.5t-29 -30t-17.5 -41t-6 -43.5zM555 713l-240 -104l-57 104l236 117z" />
    <glyph glyph-name="ocircumflex" unicode="&#xf4;" horiz-adv-x="636" 
d="M622 334q0 -75 -27 -137.5t-74.5 -108t-112.5 -70.5t-141 -25q-56 0 -102.5 16.5t-80 47.5t-52 74.5t-18.5 97.5q0 74 27 137t74.5 108.5t112.5 71t141 25.5q56 0 102.5 -17t80 -47.5t52 -74.5t18.5 -98zM242 253q0 -35 16.5 -51.5t42.5 -16.5q23 0 40.5 11.5t29 30
t17.5 41t6 43.5q0 35 -17 51.5t-42 16.5q-23 0 -40.5 -11.5t-29 -30t-17.5 -41t-6 -43.5zM248 599l-53 95l200 106l170 -106l-70 -95l-115 62z" />
    <glyph glyph-name="otilde" unicode="&#xf5;" horiz-adv-x="636" 
d="M622 334q0 -75 -27 -137.5t-74.5 -108t-112.5 -70.5t-141 -25q-56 0 -102.5 16.5t-80 47.5t-52 74.5t-18.5 97.5q0 74 27 137t74.5 108.5t112.5 71t141 25.5q56 0 102.5 -17t80 -47.5t52 -74.5t18.5 -98zM242 253q0 -35 16.5 -51.5t42.5 -16.5q23 0 40.5 11.5t29 30
t17.5 41t6 43.5q0 35 -17 51.5t-42 16.5q-23 0 -40.5 -11.5t-29 -30t-17.5 -41t-6 -43.5zM190 611q11 78 47 117t84 39q27 0 43.5 -6.5t28 -15t20 -15t18.5 -6.5q9 0 17 7t12 33h116q-10 -78 -47 -116.5t-85 -38.5q-28 0 -44.5 6.5t-27.5 14t-18.5 14t-17.5 6.5
q-9 0 -17 -6.5t-12 -32.5h-117z" />
    <glyph glyph-name="odieresis" unicode="&#xf6;" horiz-adv-x="636" 
d="M622 334q0 -75 -27 -137.5t-74.5 -108t-112.5 -70.5t-141 -25q-56 0 -102.5 16.5t-80 47.5t-52 74.5t-18.5 97.5q0 74 27 137t74.5 108.5t112.5 71t141 25.5q56 0 102.5 -17t80 -47.5t52 -74.5t18.5 -98zM242 253q0 -35 16.5 -51.5t42.5 -16.5q23 0 40.5 11.5t29 30
t17.5 41t6 43.5q0 35 -17 51.5t-42 16.5q-23 0 -40.5 -11.5t-29 -30t-17.5 -41t-6 -43.5zM265 627q-32 0 -52 19.5t-20 49.5q0 22 8.5 40.5t22.5 32.5t32.5 22t38.5 8q34 0 53.5 -19.5t19.5 -51.5q0 -21 -8.5 -39.5t-22.5 -32t-32.5 -21.5t-39.5 -8zM490 627q-32 0 -52 19.5
t-20 49.5q0 22 8.5 40.5t22.5 32.5t32.5 22t38.5 8q34 0 53.5 -19.5t19.5 -51.5q0 -21 -8.5 -39.5t-22.5 -32t-32.5 -21.5t-39.5 -8z" />
    <glyph glyph-name="divide" unicode="&#xf7;" horiz-adv-x="551" 
d="M48 441h511l-35 -201h-511zM353 101q-4 -23 -16.5 -43t-31.5 -34.5t-44 -23t-54 -8.5q-60 0 -88.5 31.5t-20.5 77.5q8 47 48 79t100 32q59 0 87 -32t20 -79zM463 576q-4 -23 -16.5 -43t-31.5 -34.5t-44 -23t-54 -8.5q-60 0 -88.5 31.5t-20.5 77.5q8 47 48 79t100 32
q59 0 87 -32t20 -79z" />
    <glyph glyph-name="oslash" unicode="&#xf8;" horiz-adv-x="621" 
d="M614 334q0 -75 -27 -137.5t-74.5 -108t-112.5 -70.5t-141 -25q-48 0 -89 12t-73 35l-44 -40h-103l98 89q-42 59 -42 140q0 74 27 137t74.5 108.5t112.5 71t141 25.5q97 0 162 -48l45 41h103l-99 -90q42 -59 42 -140zM327 379q-22 0 -39 -11t-28.5 -28t-18 -38.5
t-7.5 -42.5l123 113q-13 7 -30 7zM293 185q22 0 38.5 10.5t28.5 28t18.5 38.5t7.5 42l-123 -112q13 -7 30 -7z" />
    <glyph glyph-name="ugrave" unicode="&#xf9;" horiz-adv-x="697" 
d="M597 0h-222l15 85q-30 -36 -77.5 -62.5t-110.5 -26.5q-49 0 -84.5 17t-56.5 48.5t-27 76t4 99.5l58 327h221l-53 -299q-8 -41 10 -64t54 -23q37 0 61.5 23t32.5 63l53 300h222zM309 830l206 -120l-68 -101l-213 107z" />
    <glyph glyph-name="uacute" unicode="&#xfa;" horiz-adv-x="697" 
d="M597 0h-222l15 85q-30 -36 -77.5 -62.5t-110.5 -26.5q-49 0 -84.5 17t-56.5 48.5t-27 76t4 99.5l58 327h221l-53 -299q-8 -41 10 -64t54 -23q37 0 61.5 23t32.5 63l53 300h222zM609 713l-240 -104l-57 104l236 117z" />
    <glyph glyph-name="ucircumflex" unicode="&#xfb;" horiz-adv-x="697" 
d="M597 0h-222l15 85q-30 -36 -77.5 -62.5t-110.5 -26.5q-49 0 -84.5 17t-56.5 48.5t-27 76t4 99.5l58 327h221l-53 -299q-8 -41 10 -64t54 -23q37 0 61.5 23t32.5 63l53 300h222zM569 592l-150 88l-181 -88l25 144l181 85l150 -85z" />
    <glyph glyph-name="udieresis" unicode="&#xfc;" horiz-adv-x="697" 
d="M597 0h-222l15 85q-30 -36 -77.5 -62.5t-110.5 -26.5q-49 0 -84.5 17t-56.5 48.5t-27 76t4 99.5l58 327h221l-53 -299q-8 -41 10 -64t54 -23q37 0 61.5 23t32.5 63l53 300h222zM295 620q-32 0 -52 19.5t-20 49.5q0 22 8.5 40.5t22.5 32.5t32.5 22t38.5 8q34 0 53.5 -19.5
t19.5 -51.5q0 -21 -8.5 -39.5t-22.5 -32t-32.5 -21.5t-39.5 -8zM520 620q-32 0 -52 19.5t-20 49.5q0 22 8.5 40.5t22.5 32.5t32.5 22t38.5 8q34 0 53.5 -19.5t19.5 -51.5q0 -21 -8.5 -39.5t-22.5 -32t-32.5 -21.5t-39.5 -8z" />
    <glyph glyph-name="yacute" unicode="&#xfd;" horiz-adv-x="677" 
d="M40 564h247l55 -286l150 286h245l-508 -834h-243l194 298zM593 713l-240 -104l-57 104l236 117z" />
    <glyph glyph-name="thorn" unicode="&#xfe;" 
d="M313 514q33 30 68 42t80 12q50 0 91.5 -21.5t69 -60t38 -91.5t-0.5 -117t-40.5 -116t-70 -89.5t-89.5 -58t-99 -20.5q-45 0 -74.5 16.5t-52.5 51.5l-58 -332h-222l178 1010h222zM434 278q5 27 0.5 45.5t-14.5 30.5t-23.5 17t-25.5 5q-13 0 -28 -4.5t-29.5 -15.5
t-25.5 -29t-16 -45t0 -45t15 -29.5t23.5 -16t26.5 -4.5q12 0 27 4t29 14.5t25 28t16 44.5z" />
    <glyph glyph-name="ydieresis" unicode="&#xff;" horiz-adv-x="677" 
d="M40 564h247l55 -286l150 286h245l-508 -834h-243l194 298zM285 620q-32 0 -52 19.5t-20 49.5q0 22 8.5 40.5t22.5 32.5t32.5 22t38.5 8q34 0 53.5 -19.5t19.5 -51.5q0 -21 -8.5 -39.5t-22.5 -32t-32.5 -21.5t-39.5 -8zM510 620q-32 0 -52 19.5t-20 49.5q0 22 8.5 40.5
t22.5 32.5t32.5 22t38.5 8q34 0 53.5 -19.5t19.5 -51.5q0 -21 -8.5 -39.5t-22.5 -32t-32.5 -21.5t-39.5 -8z" />
    <glyph glyph-name="Amacron" unicode="&#x100;" horiz-adv-x="773" 
d="M473 107h-236l-54 -107h-233l384 708h256l133 -708h-234zM284 916h431l-26 -147h-431zM420 471l-99 -197h128z" />
    <glyph glyph-name="amacron" unicode="&#x101;" 
d="M20 282q12 68 39.5 122t65.5 91t84 56.5t95 19.5q57 0 92 -23t49 -61l14 77h221l-100 -564h-221l14 77q-27 -38 -70.5 -61t-100.5 -23q-49 0 -88 19.5t-64 56.5t-33.5 91t3.5 122zM409 282q8 47 -11 71t-54 24t-63 -24t-36 -71t11 -71t54 -24t63 24t36 71zM218 769h431
l-26 -147h-431z" />
    <glyph glyph-name="Abreve" unicode="&#x102;" horiz-adv-x="773" 
d="M473 107h-236l-54 -107h-233l384 708h256l133 -708h-234zM420 471l-99 -197h128zM467 742q-82 0 -125 40.5t-29 118.5h130q-5 -29 6.5 -41.5t36.5 -12.5q22 0 38.5 12.5t21.5 41.5h132q-14 -78 -69.5 -118.5t-141.5 -40.5z" />
    <glyph glyph-name="abreve" unicode="&#x103;" 
d="M20 282q12 68 39.5 122t65.5 91t84 56.5t95 19.5q57 0 92 -23t49 -61l14 77h221l-100 -564h-221l14 77q-27 -38 -70.5 -61t-100.5 -23q-49 0 -88 19.5t-64 56.5t-33.5 91t3.5 122zM409 282q8 47 -11 71t-54 24t-63 -24t-36 -71t11 -71t54 -24t63 24t36 71zM393 599
q-82 0 -125 40.5t-29 118.5h130q-5 -29 6.5 -41.5t36.5 -12.5q22 0 38.5 12.5t21.5 41.5h132q-14 -78 -69.5 -118.5t-141.5 -40.5z" />
    <glyph glyph-name="Aogonek" unicode="&#x104;" horiz-adv-x="773" 
d="M590 708l133 -708l-47 -19q-51 -20 -67.5 -35.5t-18.5 -27.5q-5 -25 32 -25q34 0 85 16l-20 -116q-26 -8 -55.5 -12t-61.5 -4q-75 0 -112 33t-26 93q5 27 18 50.5t39 46.5l-16 107h-236l-54 -107h-233l384 708h256zM420 471l-99 -197h128z" />
    <glyph glyph-name="aogonek" unicode="&#x105;" 
d="M20 282q12 68 39.5 122t65.5 91t84 56.5t95 19.5q57 0 92 -23t49 -61l14 77h221l-100 -564l-46 -21q-45 -20 -65 -35t-23 -30q-2 -9 5.5 -15t24.5 -6q37 0 88 16l-20 -116q-26 -8 -55 -12t-61 -4q-76 0 -113 32t-27 88q5 29 20.5 54t50.5 51l14 75q-27 -38 -70.5 -61
t-100.5 -23q-49 0 -88 19.5t-64 56.5t-33.5 91t3.5 122zM409 282q8 47 -11 71t-54 24t-63 -24t-36 -71t11 -71t54 -24t63 24t36 71z" />
    <glyph glyph-name="Cacute" unicode="&#x106;" horiz-adv-x="753" 
d="M43 355q14 79 49.5 145t89.5 114t123.5 74.5t150.5 26.5q70 0 125 -20t92.5 -57t57 -88t19.5 -114h-234q-10 35 -36 54.5t-64 19.5q-57 0 -96.5 -42t-51.5 -113q-13 -71 12 -113t82 -42q38 0 70.5 19.5t55.5 54.5h234q-22 -63 -60 -114t-88.5 -88t-112.5 -57t-132 -20
q-81 0 -141.5 26.5t-97 74.5t-49 114t1.5 145zM633 1007l-29 -164l-276 -94l27 148z" />
    <glyph glyph-name="cacute" unicode="&#x107;" horiz-adv-x="609" 
d="M20 282q12 67 42.5 121t75.5 91t101.5 57t119.5 20q109 0 174 -61.5t66 -172.5h-235q-3 20 -13 32t-31 12q-26 0 -46 -24t-29 -75t3 -75t38 -24q21 0 35 12t23 32h235q-20 -56 -52.5 -99.5t-74 -73.5t-91.5 -45.5t-104 -15.5q-63 0 -112.5 20t-81 57t-43.5 90.5t0 121.5z
M529 860l-29 -164l-276 -94l27 148z" />
    <glyph glyph-name="Cdotaccent" unicode="&#x10a;" horiz-adv-x="753" 
d="M43 355q14 79 49.5 145t89.5 114t123.5 74.5t150.5 26.5q70 0 125 -20t92.5 -57t57 -88t19.5 -114h-234q-10 35 -36 54.5t-64 19.5q-57 0 -96.5 -42t-51.5 -113q-13 -71 12 -113t82 -42q38 0 70.5 19.5t55.5 54.5h234q-22 -63 -60 -114t-88.5 -88t-112.5 -57t-132 -20
q-81 0 -141.5 26.5t-97 74.5t-49 114t1.5 145zM461 767q-36 0 -56.5 24.5t-13.5 60.5q6 38 35 62.5t65 24.5q38 0 58 -24.5t14 -62.5q-7 -36 -35.5 -60.5t-66.5 -24.5z" />
    <glyph glyph-name="cdotaccent" unicode="&#x10b;" horiz-adv-x="609" 
d="M20 282q12 67 42.5 121t75.5 91t101.5 57t119.5 20q109 0 174 -61.5t66 -172.5h-235q-3 20 -13 32t-31 12q-26 0 -46 -24t-29 -75t3 -75t38 -24q21 0 35 12t23 32h235q-20 -56 -52.5 -99.5t-74 -73.5t-91.5 -45.5t-104 -15.5q-63 0 -112.5 20t-81 57t-43.5 90.5t0 121.5z
M357 620q-36 0 -56.5 24.5t-13.5 60.5q6 38 35 62.5t65 24.5q38 0 58 -24.5t14 -62.5q-7 -36 -35.5 -60.5t-66.5 -24.5z" />
    <glyph glyph-name="Ccaron" unicode="&#x10c;" horiz-adv-x="753" 
d="M43 355q14 79 49.5 145t89.5 114t123.5 74.5t150.5 26.5q70 0 125 -20t92.5 -57t57 -88t19.5 -114h-234q-10 35 -36 54.5t-64 19.5q-57 0 -96.5 -42t-51.5 -113q-13 -71 12 -113t82 -42q38 0 70.5 19.5t55.5 54.5h234q-22 -63 -60 -114t-88.5 -88t-112.5 -57t-132 -20
q-81 0 -141.5 26.5t-97 74.5t-49 114t1.5 145zM663 968l-25 -144l-180 -85l-151 85l25 144l151 -88z" />
    <glyph glyph-name="ccaron" unicode="&#x10d;" horiz-adv-x="609" 
d="M20 282q12 67 42.5 121t75.5 91t101.5 57t119.5 20q109 0 174 -61.5t66 -172.5h-235q-3 20 -13 32t-31 12q-26 0 -46 -24t-29 -75t3 -75t38 -24q21 0 35 12t23 32h235q-20 -56 -52.5 -99.5t-74 -73.5t-91.5 -45.5t-104 -15.5q-63 0 -112.5 20t-81 57t-43.5 90.5t0 121.5z
M559 821l-25 -144l-180 -85l-151 85l25 144l151 -88z" />
    <glyph glyph-name="Dcaron" unicode="&#x10e;" horiz-adv-x="743" 
d="M420 708q85 0 148.5 -26.5t103 -73t53.5 -111.5t1 -141q-14 -76 -51 -141t-93.5 -113t-129 -75t-157.5 -27h-295l125 708h295zM310 198q74 0 125.5 40t65.5 118q7 39 0.5 68.5t-24.5 49.5t-46 30t-65 10h-53l-56 -316h53zM645 968l-25 -144l-180 -85l-151 85l25 144
l151 -88z" />
    <glyph glyph-name="dcaron" unicode="&#x10f;" horiz-adv-x="882" 
d="M927 740q8 -35 8 -68.5t-6 -65.5q-6 -36 -21.5 -68.5t-40 -56.5t-58 -38t-76.5 -14l14 79q55 0 68 74l2 12h-72l26 146h156zM20 282q12 68 39.5 122t65.5 91t84 56.5t95 19.5q57 0 91.5 -23t48.5 -61l45 253h222l-131 -740h-222l14 77q-27 -38 -70 -61t-100 -23
q-49 0 -88 19.5t-64 56.5t-33.5 91t3.5 122zM409 282q8 47 -11 71t-54 24t-63 -24t-36 -71t11 -71t54 -24t63 24t36 71z" />
    <glyph glyph-name="Dcroat" unicode="&#x110;" horiz-adv-x="743" 
d="M420 708q85 0 148.5 -26.5t103 -73t53.5 -111.5t1 -141q-14 -76 -51 -141t-93.5 -113t-129 -75t-157.5 -27h-295l47 268h-49l28 156h49l50 284h295zM310 198q74 0 125.5 40t65.5 118q7 39 0.5 68.5t-24.5 49.5t-46 30t-65 10h-53l-15 -90h130l-28 -156h-131l-12 -70h53z
" />
    <glyph glyph-name="dcroat" unicode="&#x111;" horiz-adv-x="704" 
d="M409 282q8 47 -11 71t-54 24t-63 -24t-36 -71t11 -71t54 -24t63 24t36 71zM20 282q12 68 39.5 122t65.5 91t84 56.5t95 19.5q57 0 91.5 -23t48.5 -61l19 105h-148l19 106h148l7 42h222l-7 -42h64l-19 -106h-64l-105 -592h-222l14 77q-27 -38 -70 -61t-100 -23
q-49 0 -88 19.5t-64 56.5t-33.5 91t3.5 122z" />
    <glyph glyph-name="Emacron" unicode="&#x112;" horiz-adv-x="556" 
d="M566 532h-250l-15 -88h220l-30 -167h-220l-18 -100h250l-31 -177h-472l125 708h472zM179 916h431l-26 -147h-431z" />
    <glyph glyph-name="emacron" unicode="&#x113;" horiz-adv-x="616" 
d="M328 397q-60 0 -81 -63h133q6 34 -10.5 48.5t-41.5 14.5zM570 203q-17 -45 -48 -83.5t-72 -66.5t-90.5 -44t-102.5 -16q-63 0 -112.5 20t-81 57t-43.5 90.5t0 121.5q12 67 42.5 121t75.5 91t101.5 57t119.5 20t112.5 -19.5t81.5 -56t44 -89.5t0 -119q-2 -11 -4.5 -22
t-6.5 -22h-356q-5 -43 9.5 -58t37.5 -15q22 0 36 10t22 23h235zM193 769h431l-26 -147h-431z" />
    <glyph glyph-name="Ebreve" unicode="&#x114;" horiz-adv-x="556" 
d="M566 532h-250l-15 -88h220l-30 -167h-220l-18 -100h250l-31 -177h-472l125 708h472zM588 950q-9 -52 -30.5 -90t-51.5 -63t-66.5 -37.5t-75.5 -12.5t-71 12.5t-53 37.5t-29 63t1 90l3 17h103q-5 -29 10 -45.5t64 -16.5t70 16.5t26 45.5h103z" />
    <glyph glyph-name="ebreve" unicode="&#x115;" horiz-adv-x="616" 
d="M328 397q-60 0 -81 -63h133q6 34 -10.5 48.5t-41.5 14.5zM570 203q-17 -45 -48 -83.5t-72 -66.5t-90.5 -44t-102.5 -16q-63 0 -112.5 20t-81 57t-43.5 90.5t0 121.5q12 67 42.5 121t75.5 91t101.5 57t119.5 20t112.5 -19.5t81.5 -56t44 -89.5t0 -119q-2 -11 -4.5 -22
t-6.5 -22h-356q-5 -43 9.5 -58t37.5 -15q22 0 36 10t22 23h235zM602 803q-9 -52 -30.5 -90t-51.5 -63t-66.5 -37.5t-75.5 -12.5t-71 12.5t-53 37.5t-29 63t1 90l3 17h103q-5 -29 10 -45.5t64 -16.5t70 16.5t26 45.5h103z" />
    <glyph glyph-name="Edotaccent" unicode="&#x116;" horiz-adv-x="556" 
d="M566 532h-250l-15 -88h220l-30 -167h-220l-18 -100h250l-31 -177h-472l125 708h472zM366 767q-36 0 -56.5 24.5t-13.5 60.5q6 38 35 62.5t65 24.5q38 0 58 -24.5t14 -62.5q-7 -36 -35.5 -60.5t-66.5 -24.5z" />
    <glyph glyph-name="edotaccent" unicode="&#x117;" horiz-adv-x="616" 
d="M328 397q-60 0 -81 -63h133q6 34 -10.5 48.5t-41.5 14.5zM570 203q-17 -45 -48 -83.5t-72 -66.5t-90.5 -44t-102.5 -16q-63 0 -112.5 20t-81 57t-43.5 90.5t0 121.5q12 67 42.5 121t75.5 91t101.5 57t119.5 20t112.5 -19.5t81.5 -56t44 -89.5t0 -119q-2 -11 -4.5 -22
t-6.5 -22h-356q-5 -43 9.5 -58t37.5 -15q22 0 36 10t22 23h235zM380 620q-36 0 -56.5 24.5t-13.5 60.5q6 38 35 62.5t65 24.5q38 0 58 -24.5t14 -62.5q-7 -36 -35.5 -60.5t-66.5 -24.5z" />
    <glyph glyph-name="Eogonek" unicode="&#x118;" horiz-adv-x="556" 
d="M566 532h-250l-15 -88h220l-30 -167h-220l-18 -100h250l-31 -177l-46 -21q-45 -20 -65 -35t-23 -30q-2 -9 5.5 -15t24.5 -6q37 0 88 16l-20 -116q-26 -8 -55 -12t-61 -4q-76 0 -113 32t-27 88q5 28 20.5 53t48.5 50h-249l125 708h472z" />
    <glyph glyph-name="eogonek" unicode="&#x119;" horiz-adv-x="616" 
d="M328 397q-60 0 -81 -63h133q6 34 -10.5 48.5t-41.5 14.5zM319 -199q-26 -8 -55 -12t-61 -4q-76 0 -113 32t-27 88q5 29 22.5 56t55.5 53q-72 30 -105.5 99t-15.5 169q12 67 42.5 121t75.5 91t101.5 57t119.5 20t112.5 -19.5t81.5 -56t44 -89.5t0 -119q-2 -11 -4.5 -22
t-6.5 -22h-356q-5 -43 9.5 -58t37.5 -15q22 0 36 10t22 23h235q-13 -35 -34.5 -65.5t-49.5 -56t-62 -44.5t-72 -30l-43 -20q-45 -20 -65 -35t-23 -30q-2 -9 5.5 -15t24.5 -6q37 0 88 16z" />
    <glyph glyph-name="Ecaron" unicode="&#x11a;" horiz-adv-x="556" 
d="M566 532h-250l-15 -88h220l-30 -167h-220l-18 -100h250l-31 -177h-472l125 708h472zM568 968l-25 -144l-180 -85l-151 85l25 144l151 -88z" />
    <glyph glyph-name="ecaron" unicode="&#x11b;" horiz-adv-x="616" 
d="M328 397q-60 0 -81 -63h133q6 34 -10.5 48.5t-41.5 14.5zM570 203q-17 -45 -48 -83.5t-72 -66.5t-90.5 -44t-102.5 -16q-63 0 -112.5 20t-81 57t-43.5 90.5t0 121.5q12 67 42.5 121t75.5 91t101.5 57t119.5 20t112.5 -19.5t81.5 -56t44 -89.5t0 -119q-2 -11 -4.5 -22
t-6.5 -22h-356q-5 -43 9.5 -58t37.5 -15q22 0 36 10t22 23h235zM582 821l-25 -144l-180 -85l-151 85l25 144l151 -88z" />
    <glyph glyph-name="Gbreve" unicode="&#x11e;" horiz-adv-x="752" 
d="M43 355q14 79 50 145t91 114t126 74.5t154 26.5q70 0 124.5 -17.5t91 -50t54.5 -78.5t16 -103h-234q-9 20 -30.5 32t-56.5 12q-65 0 -107 -42t-54 -113q-15 -83 16.5 -124t113.5 -41q38 0 71 14.5t64 47.5h-177l27 157h361l-39 -222q-24 -32 -58.5 -66t-80 -62t-102 -46
t-125.5 -18q-84 0 -145.5 26.5t-100 74.5t-51.5 114t1 145zM683 950q-9 -52 -30.5 -90t-51.5 -63t-66.5 -37.5t-75.5 -12.5t-71 12.5t-53 37.5t-29 63t1 90l3 17h103q-5 -29 10 -45.5t64 -16.5t70 16.5t26 45.5h103z" />
    <glyph glyph-name="gbreve" unicode="&#x11f;" 
d="M20 282q12 68 39.5 122t65.5 91t84 56.5t95 19.5q57 0 92 -23t49 -61l14 77h221l-98 -554q-10 -56 -34.5 -108t-65.5 -91.5t-100.5 -63.5t-138.5 -24q-69 0 -120.5 17t-84.5 47.5t-48 74t-11 97.5h218q2 -44 64 -44q17 0 32.5 3.5t29 14t23.5 29t15 48.5l12 67
q-27 -38 -70.5 -61t-100.5 -23q-49 0 -88 19.5t-64 56.5t-33.5 91t3.5 122zM409 282q8 47 -11 71t-54 24t-63 -24t-36 -71t11 -71t54 -24t63 24t36 71zM627 803q-9 -52 -30.5 -90t-51.5 -63t-66.5 -37.5t-75.5 -12.5t-71 12.5t-53 37.5t-29 63t1 90l3 17h103
q-5 -29 10 -45.5t64 -16.5t70 16.5t26 45.5h103z" />
    <glyph glyph-name="Gdotaccent" unicode="&#x120;" horiz-adv-x="752" 
d="M43 355q14 79 50 145t91 114t126 74.5t154 26.5q70 0 124.5 -17.5t91 -50t54.5 -78.5t16 -103h-234q-9 20 -30.5 32t-56.5 12q-65 0 -107 -42t-54 -113q-15 -83 16.5 -124t113.5 -41q38 0 71 14.5t64 47.5h-177l27 157h361l-39 -222q-24 -32 -58.5 -66t-80 -62t-102 -46
t-125.5 -18q-84 0 -145.5 26.5t-100 74.5t-51.5 114t1 145zM461 767q-36 0 -56.5 24.5t-13.5 60.5q6 38 35 62.5t65 24.5q38 0 58 -24.5t14 -62.5q-7 -36 -35.5 -60.5t-66.5 -24.5z" />
    <glyph glyph-name="gdotaccent" unicode="&#x121;" 
d="M20 282q12 68 39.5 122t65.5 91t84 56.5t95 19.5q57 0 92 -23t49 -61l14 77h221l-98 -554q-10 -56 -34.5 -108t-65.5 -91.5t-100.5 -63.5t-138.5 -24q-69 0 -120.5 17t-84.5 47.5t-48 74t-11 97.5h218q2 -44 64 -44q17 0 32.5 3.5t29 14t23.5 29t15 48.5l12 67
q-27 -38 -70.5 -61t-100.5 -23q-49 0 -88 19.5t-64 56.5t-33.5 91t3.5 122zM409 282q8 47 -11 71t-54 24t-63 -24t-36 -71t11 -71t54 -24t63 24t36 71zM405 620q-36 0 -56.5 24.5t-13.5 60.5q6 38 35 62.5t65 24.5q38 0 58 -24.5t14 -62.5q-7 -36 -35.5 -60.5t-66.5 -24.5z
" />
    <glyph glyph-name="uni0122" unicode="&#x122;" horiz-adv-x="756" 
d="M398 -35q8 -35 8 -69t-6 -66q-6 -36 -21.5 -68t-40 -56t-58 -38t-76.5 -14l14 78q26 0 43.5 18t24.5 57l2 11h-72l26 147h156zM43 355q14 79 50 145t91 114t126 74.5t154 26.5q70 0 124.5 -17.5t91 -50t54.5 -78.5t16 -103h-234q-9 20 -30.5 32t-56.5 12q-65 0 -107 -42
t-54 -113q-15 -83 16.5 -124t113.5 -41q38 0 71 14.5t64 47.5h-177l27 157h361l-39 -222q-24 -32 -58.5 -66t-80 -62t-102 -46t-125.5 -18q-84 0 -145.5 26.5t-100 74.5t-51.5 114t1 145z" />
    <glyph glyph-name="uni0123" unicode="&#x123;" 
d="M338 599q-8 35 -7.5 69t6.5 66q6 36 21.5 68t40 56t58 38t75.5 14l-14 -78q-26 0 -43.5 -18t-24.5 -57l-2 -11h72l-26 -147h-156zM20 282q12 68 39.5 122t65.5 91t84 56.5t95 19.5q57 0 92 -23t49 -61l14 77h221l-98 -554q-10 -56 -34.5 -108t-65.5 -91.5t-100.5 -63.5
t-138.5 -24q-69 0 -120.5 17t-84.5 47.5t-48 74t-11 97.5h218q2 -44 64 -44q17 0 32.5 3.5t29 14t23.5 29t15 48.5l12 67q-27 -38 -70.5 -61t-100.5 -23q-49 0 -88 19.5t-64 56.5t-33.5 91t3.5 122zM409 282q8 47 -11 71t-54 24t-63 -24t-36 -71t11 -71t54 -24t63 24t36 71z
" />
    <glyph glyph-name="Itilde" unicode="&#x128;" horiz-adv-x="322" 
d="M125 708h222l-125 -708h-222zM57 754q11 78 47 117t84 39q27 0 43.5 -6.5t28 -15t20 -15t18.5 -6.5q9 0 17 7t12 33h116q-10 -78 -47 -116.5t-85 -38.5q-28 0 -44.5 6.5t-27.5 14t-18.5 14t-17.5 6.5q-9 0 -17 -6.5t-12 -32.5h-117z" />
    <glyph glyph-name="itilde" unicode="&#x129;" horiz-adv-x="372" 
d="M125 564h222l-100 -564h-222zM71 611q11 78 43 117t77 39q24 0 39.5 -6.5t26 -15t18 -15t16.5 -6.5q8 0 15.5 7t11.5 33h106q-9 -78 -43 -116.5t-78 -38.5q-25 0 -40.5 6.5t-25 14t-16.5 14t-16 6.5q-8 0 -15.5 -6.5t-11.5 -32.5h-107z" />
    <glyph glyph-name="Imacron" unicode="&#x12a;" horiz-adv-x="322" 
d="M125 708h222l-125 -708h-222zM59 916h431l-26 -147h-431z" />
    <glyph glyph-name="imacron" unicode="&#x12b;" horiz-adv-x="372" 
d="M125 564h222l-100 -564h-222zM58 769h431l-26 -147h-431z" />
    <glyph glyph-name="uni012C" unicode="&#x12c;" horiz-adv-x="322" 
d="M125 708h222l-125 -708h-222zM468 950q-9 -52 -30.5 -90t-51.5 -63t-66.5 -37.5t-75.5 -12.5t-71 12.5t-53 37.5t-29 63t1 90l3 17h103q-5 -29 10 -45.5t64 -16.5t70 16.5t26 45.5h103z" />
    <glyph glyph-name="uni012D" unicode="&#x12d;" horiz-adv-x="372" 
d="M125 564h222l-100 -564h-222zM467 803q-9 -52 -30.5 -90t-51.5 -63t-66.5 -37.5t-75.5 -12.5t-71 12.5t-53 37.5t-29 63t1 90l3 17h103q-5 -29 10 -45.5t64 -16.5t70 16.5t26 45.5h103z" />
    <glyph glyph-name="Iogonek" unicode="&#x12e;" horiz-adv-x="322" 
d="M186 -207q-26 -8 -55 -12t-61 -4q-76 0 -113 32t-27 88q5 28 20.5 53.5t49.5 50.5l125 707h222l-125 -708l-46 -21q-45 -20 -65 -35t-23 -30q-2 -9 5.5 -15t24.5 -6q37 0 88 16l-20 -116v0z" />
    <glyph glyph-name="iogonek" unicode="&#x12f;" horiz-adv-x="322" 
d="M100 564h222l-100 -564v-1l-46 -21q-45 -20 -65 -35t-23 -30q-2 -9 5.5 -15t24.5 -6q37 0 88 16l-20 -116q-26 -8 -55 -12t-61 -4q-76 0 -113 32t-27 88q5 28 20.5 53.5t49.5 50.5zM220 609q-60 0 -88.5 31.5t-20.5 77.5q8 47 47.5 79t99.5 32q59 0 87.5 -32t20.5 -79
q-4 -23 -16.5 -43t-31.5 -34.5t-44 -23t-54 -8.5z" />
    <glyph glyph-name="Idotaccent" unicode="&#x130;" horiz-adv-x="322" 
d="M125 708h222l-125 -708h-222zM246 767q-36 0 -56.5 24.5t-13.5 60.5q6 38 35 62.5t65 24.5q38 0 58 -24.5t14 -62.5q-7 -36 -35.5 -60.5t-66.5 -24.5z" />
    <glyph glyph-name="dotlessi" unicode="&#x131;" horiz-adv-x="372" 
d="M125 564h222l-100 -564h-222z" />
    <glyph glyph-name="uni0136" unicode="&#x136;" horiz-adv-x="798" 
d="M419 -35q8 -35 7.5 -69t-6.5 -66q-6 -36 -21.5 -68t-40 -56t-58 -38t-75.5 -14l14 78q26 0 43.5 18t24.5 57l2 11h-72l26 147h156zM276 308l-54 -308h-222l125 708h222l-53 -298l256 298h251l-305 -339l196 -369h-264z" />
    <glyph glyph-name="uni0137" unicode="&#x137;" horiz-adv-x="676" 
d="M362 -35q8 -35 7.5 -69t-6.5 -66q-6 -36 -21.5 -68t-40 -56t-58 -38t-75.5 -14l14 78q26 0 43.5 18t24.5 57l2 11h-72l26 147h156zM131 740h222l-69 -388l179 212h258l-261 -284l166 -280h-265l-99 225l-40 -225h-222z" />
    <glyph glyph-name="Lacute" unicode="&#x139;" horiz-adv-x="506" 
d="M347 708l-95 -540h214l-30 -168h-436l125 708h222zM487 1007l-29 -164l-276 -94l27 148z" />
    <glyph glyph-name="lacute" unicode="&#x13a;" horiz-adv-x="322" 
d="M131 740h222l-131 -740h-222zM423 1036l-29 -164l-276 -94l27 148z" />
    <glyph glyph-name="uni013B" unicode="&#x13b;" horiz-adv-x="511" 
d="M310 -35q8 -35 8 -69t-6 -66q-6 -36 -21.5 -68t-40 -56t-58 -38t-76.5 -14l14 78q26 0 43.5 18t24.5 57l2 11h-72l26 147h156zM347 708l-95 -540h214l-30 -168h-436l125 708h222z" />
    <glyph glyph-name="uni013C" unicode="&#x13c;" horiz-adv-x="322" 
d="M187 -35q8 -35 7.5 -69t-6.5 -66q-6 -36 -21.5 -68t-40 -56t-58 -38t-75.5 -14l14 78q26 0 43.5 18t24.5 57l2 11h-72l26 147h156zM131 740h222l-131 -740h-222z" />
    <glyph glyph-name="Lcaron" unicode="&#x13d;" horiz-adv-x="577" 
d="M600 708q8 -35 7.5 -68.5t-6.5 -65.5q-6 -36 -21.5 -68.5t-40 -56.5t-58 -38t-75.5 -14l14 79q26 0 43.5 18t24.5 56l2 12h-72l26 146h156zM347 708l-95 -540h214l-30 -168h-436l125 708h222z" />
    <glyph glyph-name="lcaron" unicode="&#x13e;" horiz-adv-x="516" 
d="M562 740q8 -35 7.5 -68.5t-6.5 -65.5q-6 -36 -21.5 -68.5t-40 -56.5t-58 -38t-75.5 -14l14 79q26 0 43.5 18t24.5 56l2 12h-72l26 146h156zM131 740h222l-131 -740h-222z" />
    <glyph glyph-name="Ldot" unicode="&#x13f;" horiz-adv-x="506" 
d="M347 708l-95 -540h214l-30 -168h-436l125 708h222zM315 767q-36 0 -56.5 24.5t-13.5 60.5q6 38 35 62.5t65 24.5q38 0 58 -24.5t14 -62.5q-7 -36 -35.5 -60.5t-66.5 -24.5z" />
    <glyph glyph-name="ldot" unicode="&#x140;" horiz-adv-x="322" 
d="M251 796q-36 0 -56.5 24.5t-13.5 60.5q6 38 35 62.5t65 24.5q38 0 58 -24.5t14 -62.5q-7 -36 -35.5 -60.5t-66.5 -24.5zM131 740h222l-131 -740h-222z" />
    <glyph glyph-name="Lslash" unicode="&#x141;" horiz-adv-x="521" 
d="M362 708l-34 -195l78 21l-38 -216l-78 -21l-23 -129h214l-30 -168h-436l42 236l-58 -15l38 216l58 15l45 256h222z" />
    <glyph glyph-name="lslash" unicode="&#x142;" horiz-adv-x="372" 
d="M67 239l-68 -18l38 216l69 18l50 285h222l-40 -224l68 18l-38 -216l-68 -18l-53 -300h-222z" />
    <glyph glyph-name="Nacute" unicode="&#x143;" horiz-adv-x="779" 
d="M804 708l-125 -708h-222l-172 356l-63 -356h-222l125 708h222l171 -362l64 362h222zM645 1007l-29 -164l-276 -94l27 148z" />
    <glyph glyph-name="nacute" unicode="&#x144;" horiz-adv-x="697" 
d="M614 860l-29 -164l-276 -94l27 148zM433 299q8 41 -10 64t-54 23q-37 0 -61.5 -23t-32.5 -63l-53 -300h-222l100 564h222l-15 -85q30 36 77.5 62.5t110.5 26.5q49 0 84 -17t56 -48.5t27.5 -76t-3.5 -99.5l-58 -327h-221z" />
    <glyph glyph-name="uni0145" unicode="&#x145;" horiz-adv-x="829" 
d="M434 -35q8 -35 8 -69t-6 -66q-6 -36 -21.5 -68t-40 -56t-58 -38t-76.5 -14l14 78q26 0 43.5 18t24.5 57l2 11h-72l26 147h156zM804 708l-125 -708h-222l-172 356l-63 -356h-222l125 708h222l171 -362l64 362h222z" />
    <glyph glyph-name="uni0146" unicode="&#x146;" horiz-adv-x="697" 
d="M393 -35q8 -35 7.5 -69t-6.5 -66q-6 -36 -21.5 -68t-40 -56t-58 -38t-75.5 -14l14 78q26 0 43.5 18t24.5 57l2 11h-72l26 147h156zM433 299q8 41 -10 64t-54 23q-37 0 -61.5 -23t-32.5 -63l-53 -300h-222l100 564h222l-15 -85q30 36 77.5 62.5t110.5 26.5q49 0 84 -17
t56 -48.5t27.5 -76t-3.5 -99.5l-58 -327h-221z" />
    <glyph glyph-name="Ncaron" unicode="&#x147;" horiz-adv-x="779" 
d="M804 708l-125 -708h-222l-172 356l-63 -356h-222l125 708h222l171 -362l64 362h222zM675 968l-25 -144l-180 -85l-151 85l25 144l151 -88z" />
    <glyph glyph-name="ncaron" unicode="&#x148;" horiz-adv-x="697" 
d="M433 299q8 41 -10 64t-54 23q-37 0 -61.5 -23t-32.5 -63l-53 -300h-222l100 564h222l-15 -85q30 36 77.5 62.5t110.5 26.5q49 0 84 -17t56 -48.5t27.5 -76t-3.5 -99.5l-58 -327h-221zM644 821l-25 -144l-180 -85l-151 85l25 144l151 -88z" />
    <glyph glyph-name="Omacron" unicode="&#x14c;" horiz-adv-x="788" 
d="M767 427q0 -96 -30 -175.5t-85.5 -137t-133 -89.5t-171.5 -32q-68 0 -123.5 21.5t-94.5 60.5t-60.5 93.5t-21.5 120.5q0 96 30 175.5t85 136t132 88t170 31.5q70 0 126 -21t95.5 -59.5t60.5 -92.5t21 -120zM265 317q0 -54 29 -85.5t87 -31.5q40 0 71.5 16.5t53.5 44
t33 63.5t11 75q0 54 -28.5 85t-85.5 31q-41 0 -72.5 -16t-53.5 -43.5t-33.5 -63.5t-11.5 -75zM292 916h431l-26 -147h-431z" />
    <glyph glyph-name="omacron" unicode="&#x14d;" horiz-adv-x="636" 
d="M622 334q0 -75 -27 -137.5t-74.5 -108t-112.5 -70.5t-141 -25q-56 0 -102.5 16.5t-80 47.5t-52 74.5t-18.5 97.5q0 74 27 137t74.5 108.5t112.5 71t141 25.5q56 0 102.5 -17t80 -47.5t52 -74.5t18.5 -98zM242 253q0 -35 16.5 -51.5t42.5 -16.5q23 0 40.5 11.5t29 30
t17.5 41t6 43.5q0 35 -17 51.5t-42 16.5q-23 0 -40.5 -11.5t-29 -30t-17.5 -41t-6 -43.5zM190 776h431l-26 -147h-431z" />
    <glyph glyph-name="uni014E" unicode="&#x14e;" horiz-adv-x="788" 
d="M767 427q0 -96 -30 -175.5t-85.5 -137t-133 -89.5t-171.5 -32q-68 0 -123.5 21.5t-94.5 60.5t-60.5 93.5t-21.5 120.5q0 96 30 175.5t85 136t132 88t170 31.5q70 0 126 -21t95.5 -59.5t60.5 -92.5t21 -120zM265 317q0 -54 29 -85.5t87 -31.5q40 0 71.5 16.5t53.5 44
t33 63.5t11 75q0 54 -28.5 85t-85.5 31q-41 0 -72.5 -16t-53.5 -43.5t-33.5 -63.5t-11.5 -75zM701 950q-9 -52 -30.5 -90t-51.5 -63t-66.5 -37.5t-75.5 -12.5t-71 12.5t-53 37.5t-29 63t1 90l3 17h103q-5 -29 10 -45.5t64 -16.5t70 16.5t26 45.5h103z" />
    <glyph glyph-name="uni014F" unicode="&#x14f;" horiz-adv-x="636" 
d="M622 334q0 -75 -27 -137.5t-74.5 -108t-112.5 -70.5t-141 -25q-56 0 -102.5 16.5t-80 47.5t-52 74.5t-18.5 97.5q0 74 27 137t74.5 108.5t112.5 71t141 25.5q56 0 102.5 -17t80 -47.5t52 -74.5t18.5 -98zM242 253q0 -35 16.5 -51.5t42.5 -16.5q23 0 40.5 11.5t29 30
t17.5 41t6 43.5q0 35 -17 51.5t-42 16.5q-23 0 -40.5 -11.5t-29 -30t-17.5 -41t-6 -43.5zM599 810q-9 -52 -30.5 -90t-51.5 -63t-66.5 -37.5t-75.5 -12.5t-71 12.5t-53 37.5t-29 63t1 90l3 17h103q-5 -29 10 -45.5t64 -16.5t70 16.5t26 45.5h103z" />
    <glyph glyph-name="Ohungarumlaut" unicode="&#x150;" horiz-adv-x="788" 
d="M767 427q0 -96 -30 -175.5t-85.5 -137t-133 -89.5t-171.5 -32q-68 0 -123.5 21.5t-94.5 60.5t-60.5 93.5t-21.5 120.5q0 96 30 175.5t85 136t132 88t170 31.5q70 0 126 -21t95.5 -59.5t60.5 -92.5t21 -120zM265 317q0 -54 29 -85.5t87 -31.5q40 0 71.5 16.5t53.5 44
t33 63.5t11 75q0 54 -28.5 85t-85.5 31q-41 0 -72.5 -16t-53.5 -43.5t-33.5 -63.5t-11.5 -75zM821 992l-183 -244h-133l148 244h168zM576 992l-158 -244h-133l123 244h168z" />
    <glyph glyph-name="ohungarumlaut" unicode="&#x151;" horiz-adv-x="636" 
d="M622 334q0 -75 -27 -137.5t-74.5 -108t-112.5 -70.5t-141 -25q-56 0 -102.5 16.5t-80 47.5t-52 74.5t-18.5 97.5q0 74 27 137t74.5 108.5t112.5 71t141 25.5q56 0 102.5 -17t80 -47.5t52 -74.5t18.5 -98zM242 253q0 -35 16.5 -51.5t42.5 -16.5q23 0 40.5 11.5t29 30
t17.5 41t6 43.5q0 35 -17 51.5t-42 16.5q-23 0 -40.5 -11.5t-29 -30t-17.5 -41t-6 -43.5zM719 852l-183 -244h-133l148 244h168zM474 852l-158 -244h-133l123 244h168z" />
    <glyph glyph-name="OE" unicode="&#x152;" horiz-adv-x="1056" 
d="M816 532l-15 -88h220l-30 -167h-220l-18 -100h250l-31 -177h-472l7 37q-38 -25 -83.5 -36t-90.5 -13q-76 0 -135 27t-96.5 75.5t-51.5 115.5t0 148t52 148t92.5 115.5t123 75.5t144.5 27q45 0 86.5 -12t70.5 -37l6 37h472l-31 -176h-250zM443 515q-69 0 -111.5 -43.5
t-55.5 -117.5q-14 -74 13.5 -117.5t96.5 -43.5q67 0 110 43.5t57 117.5q13 74 -15 117.5t-95 43.5z" />
    <glyph glyph-name="oe" unicode="&#x153;" horiz-adv-x="1022" 
d="M391 282q9 51 -9 74t-47 23t-55 -23t-35 -74t8.5 -74t47.5 -23q29 0 55 23t35 74zM708 397q-60 0 -81 -63h133q6 34 -10.5 48.5t-41.5 14.5zM20 282q12 67 44 121t78.5 91t104.5 57t122 20q109 0 177 -56q42 27 90.5 41.5t102.5 14.5q63 0 112.5 -19.5t81.5 -56t44 -89.5
t0 -119q-2 -11 -5 -22t-8 -22h-354q-3 -23 0 -37t9.5 -22t16 -11t21.5 -3q22 0 36 10t22 23h235q-17 -45 -48 -83.5t-72 -66.5t-90.5 -44t-102.5 -16q-54 0 -97.5 14.5t-75.5 41.5q-42 -27 -92.5 -41.5t-104.5 -14.5q-64 0 -115 20t-84.5 57t-46.5 90.5t-1 121.5z" />
    <glyph glyph-name="Racute" unicode="&#x154;" horiz-adv-x="670" 
d="M456 462q5 27 -8.5 43.5t-45.5 16.5h-88l-21 -120h88q32 0 50.5 14t24.5 46zM455 708q67 0 114 -18t75.5 -49.5t38 -73.5t0.5 -91q-13 -70 -60.5 -125t-128.5 -80l106 -271h-244l-89 254l-45 -254h-222l125 708h330zM581 1007l-29 -164l-276 -94l27 148z" />
    <glyph glyph-name="racute" unicode="&#x155;" horiz-adv-x="467" 
d="M222 0h-222l100 564h222l-18 -104q42 48 95 78t108 30l-41 -237h-63q-60 0 -94.5 -21t-45.5 -79zM505 860l-29 -164l-276 -94l27 148z" />
    <glyph glyph-name="uni0156" unicode="&#x156;" horiz-adv-x="701" 
d="M370 -35q8 -35 8 -69t-6 -66q-6 -36 -21.5 -68t-40 -56t-58 -38t-76.5 -14l14 78q26 0 43.5 18t24.5 57l2 11h-72l26 147h156zM0 0l125 708h330q67 0 114 -18t75.5 -49.5t38 -73.5t0.5 -91q-13 -70 -60.5 -125t-128.5 -80l106 -271h-244l-89 254l-45 -254h-222zM456 462
q5 27 -8.5 43.5t-45.5 16.5h-88l-21 -120h88q32 0 50.5 14t24.5 46z" />
    <glyph glyph-name="uni0157" unicode="&#x157;" horiz-adv-x="467" 
d="M180 -35q8 -35 7.5 -69t-6.5 -66q-6 -36 -21.5 -68t-40 -56t-58 -38t-75.5 -14l14 78q26 0 43.5 18t24.5 57l2 11h-72l26 147h156zM222 0h-222l100 564h222l-18 -104q42 48 95 78t108 30l-41 -237h-63q-60 0 -94.5 -21t-45.5 -79z" />
    <glyph glyph-name="Rcaron" unicode="&#x158;" horiz-adv-x="670" 
d="M456 462q5 27 -8.5 43.5t-45.5 16.5h-88l-21 -120h88q32 0 50.5 14t24.5 46zM455 708q67 0 114 -18t75.5 -49.5t38 -73.5t0.5 -91q-13 -70 -60.5 -125t-128.5 -80l106 -271h-244l-89 254l-45 -254h-222l125 708h330zM611 968l-25 -144l-180 -85l-151 85l25 144l151 -88z
" />
    <glyph glyph-name="rcaron" unicode="&#x159;" horiz-adv-x="467" 
d="M222 0h-222l100 564h222l-18 -104q42 48 95 78t108 30l-41 -237h-63q-60 0 -94.5 -21t-45.5 -79zM535 821l-25 -144l-180 -85l-151 85l25 144l151 -88z" />
    <glyph glyph-name="Sacute" unicode="&#x15a;" horiz-adv-x="642" 
d="M592 221q0 -48 -19.5 -90t-56.5 -72.5t-90.5 -48t-121.5 -17.5q-67 0 -122 14t-93 43t-56.5 73t-11.5 104h236q-6 -61 51 -61q17 0 29.5 9t12.5 26q0 22 -21 37.5t-52.5 29.5t-68 29.5t-68 39.5t-52.5 58t-21 85q0 58 22 102.5t61.5 75t93.5 46.5t118 16q61 0 113 -15.5
t88 -45t53.5 -72t10.5 -96.5h-239q5 28 -6 42t-33 14q-17 0 -28 -9.5t-11 -26.5q0 -21 21 -37t52 -31t68 -32.5t68 -43t52 -60.5t21 -86zM586 1007l-29 -164l-276 -94l27 148z" />
    <glyph glyph-name="sacute" unicode="&#x15b;" horiz-adv-x="579" 
d="M526 177q0 -45 -20 -79t-56 -57.5t-85 -35.5t-107 -12q-61 0 -110.5 14.5t-83.5 41.5t-50 64t-8 82h213q-1 -26 15 -37.5t42 -11.5q17 0 29.5 8t12.5 19q0 16 -20.5 25.5t-51.5 18t-67 19.5t-67 30t-51.5 48.5t-20.5 76.5q0 38 17.5 71t49.5 57t77 38t101 14
q62 0 109.5 -16t79.5 -43.5t47.5 -64t14.5 -78.5h-197q0 23 -14 35.5t-41 12.5q-17 0 -28.5 -6.5t-11.5 -19.5q0 -15 21 -25t52 -19.5t68 -20.5t68 -30t52 -47.5t21 -71.5zM532 860l-29 -164l-276 -94l27 148z" />
    <glyph glyph-name="uni015E" unicode="&#x15e;" horiz-adv-x="642" 
d="M592 221q0 -44 -16 -82.5t-46.5 -68t-75 -49t-101.5 -25.5l-5 -30q18 0 39.5 -5.5t39 -19.5t26.5 -37.5t3 -59.5t-24.5 -59.5t-43 -37.5t-52 -19.5t-52.5 -5.5h-173l20 113h150q26 0 29 16q3 15 -23 15h-85l24 132q-51 7 -91.5 25t-67.5 46.5t-39.5 68t-6.5 89.5h236
q-6 -61 51 -61q17 0 29.5 9t12.5 26q0 22 -21 37.5t-52.5 29.5t-68 29.5t-68 39.5t-52.5 58t-21 85q0 58 22 102.5t61.5 75t93.5 46.5t118 16q61 0 113 -15.5t88 -45t53.5 -72t10.5 -96.5h-239q5 28 -6 42t-33 14q-17 0 -28 -9.5t-11 -26.5q0 -21 21 -37t52 -31t68 -32.5
t68 -43t52 -60.5t21 -86z" />
    <glyph glyph-name="uni015F" unicode="&#x15f;" horiz-adv-x="579" 
d="M526 177q0 -38 -14.5 -68.5t-41 -53t-63.5 -37t-81 -20.5l-6 -32q18 0 39.5 -5.5t39 -19.5t26.5 -37.5t3 -59.5t-24.5 -59.5t-43 -37.5t-52 -19.5t-52.5 -5.5h-173l20 113h150q26 0 29 16q3 15 -23 15h-85l23 131q-48 7 -86 24t-63.5 42.5t-36.5 59t-5 72.5h213
q-1 -26 15 -37.5t42 -11.5q17 0 29.5 8t12.5 19q0 16 -20.5 25.5t-51.5 18t-67 19.5t-67 30t-51.5 48.5t-20.5 76.5q0 38 17.5 71t49.5 57t77 38t101 14q62 0 109.5 -16t79.5 -43.5t47.5 -64t14.5 -78.5h-197q0 23 -14 35.5t-41 12.5q-17 0 -28.5 -6.5t-11.5 -19.5
q0 -15 21 -25t52 -19.5t68 -20.5t68 -30t52 -47.5t21 -71.5z" />
    <glyph glyph-name="Scaron" unicode="&#x160;" horiz-adv-x="642" 
d="M592 221q0 -48 -19.5 -90t-56.5 -72.5t-90.5 -48t-121.5 -17.5q-67 0 -122 14t-93 43t-56.5 73t-11.5 104h236q-6 -61 51 -61q17 0 29.5 9t12.5 26q0 22 -21 37.5t-52.5 29.5t-68 29.5t-68 39.5t-52.5 58t-21 85q0 58 22 102.5t61.5 75t93.5 46.5t118 16q61 0 113 -15.5
t88 -45t53.5 -72t10.5 -96.5h-239q5 28 -6 42t-33 14q-17 0 -28 -9.5t-11 -26.5q0 -21 21 -37t52 -31t68 -32.5t68 -43t52 -60.5t21 -86zM616 968l-25 -144l-180 -85l-151 85l25 144l151 -88z" />
    <glyph glyph-name="scaron" unicode="&#x161;" horiz-adv-x="579" 
d="M526 177q0 -45 -20 -79t-56 -57.5t-85 -35.5t-107 -12q-61 0 -110.5 14.5t-83.5 41.5t-50 64t-8 82h213q-1 -26 15 -37.5t42 -11.5q17 0 29.5 8t12.5 19q0 16 -20.5 25.5t-51.5 18t-67 19.5t-67 30t-51.5 48.5t-20.5 76.5q0 38 17.5 71t49.5 57t77 38t101 14
q62 0 109.5 -16t79.5 -43.5t47.5 -64t14.5 -78.5h-197q0 23 -14 35.5t-41 12.5q-17 0 -28.5 -6.5t-11.5 -19.5q0 -15 21 -25t52 -19.5t68 -20.5t68 -30t52 -47.5t21 -71.5zM562 821l-25 -144l-180 -85l-151 85l25 144l151 -88z" />
    <glyph glyph-name="uni0162" unicode="&#x162;" horiz-adv-x="616" 
d="M85 708h596l-31 -176h-188l-94 -532h-41l-6 -34q18 0 39.5 -5.5t39 -19.5t26.5 -37.5t3 -59.5t-24.5 -59.5t-43 -37.5t-52 -19.5t-52.5 -5.5h-173l20 113h150q26 0 29 16q3 15 -23 15h-85l24 134h-53l94 532h-186z" />
    <glyph glyph-name="uni0163" unicode="&#x163;" horiz-adv-x="436" 
d="M102 379h-70l33 185h70l24 136h222l-24 -136h92l-33 -185h-92l-27 -152q-6 -38 35 -38h53l-34 -189h-84h-4l-5 -27q18 0 39.5 -5.5t39 -19.5t26.5 -37.5t3 -59.5t-24.5 -59.5t-43 -37.5t-52 -19.5t-52.5 -5.5h-173l20 113h150q26 0 29 16q3 15 -23 15h-85l27 155
q-42 24 -59.5 72.5t-3.5 130.5z" />
    <glyph glyph-name="Tcaron" unicode="&#x164;" horiz-adv-x="616" 
d="M85 708h596l-31 -176h-188l-94 -532h-222l94 532h-186zM589 968l-25 -144l-180 -85l-151 85l25 144l151 -88z" />
    <glyph glyph-name="tcaron" unicode="&#x165;" horiz-adv-x="436" 
d="M601 890q8 -35 9 -63.5t-5 -60.5q-6 -33 -20.5 -61.5t-38.5 -50t-57 -33.5t-76 -12l14 79q55 0 61 39l3 17h-72l26 146h156zM102 379h-70l33 185h70l24 136h222l-24 -136h92l-33 -185h-92l-27 -152q-6 -38 35 -38h53l-34 -189h-84q-50 0 -90 11.5t-66.5 38.5t-36.5 71
t2 110z" />
    <glyph glyph-name="Utilde" unicode="&#x168;" horiz-adv-x="719" 
d="M121 708h221l-70 -399q-8 -46 7 -76t65 -30q51 0 78 30t35 76l70 399h221l-70 -399q-14 -81 -48.5 -140.5t-84 -98.5t-111 -58t-129.5 -19q-66 0 -119.5 20t-88 59.5t-47.5 99t1 137.5zM253 754q11 78 47 117t84 39q27 0 43.5 -6.5t28 -15t20 -15t18.5 -6.5q9 0 17 7
t12 33h116q-10 -78 -47 -116.5t-85 -38.5q-28 0 -44.5 6.5t-27.5 14t-18.5 14t-17.5 6.5q-9 0 -17 -6.5t-12 -32.5h-117z" />
    <glyph glyph-name="utilde" unicode="&#x169;" horiz-adv-x="697" 
d="M390 85q-30 -36 -77.5 -62.5t-110.5 -26.5q-49 0 -84.5 17t-56.5 48.5t-27 76t4 99.5l58 327h221l-53 -299q-8 -41 10 -64t54 -23q37 0 61.5 23t32.5 63l53 300h222l-100 -564h-222zM219 611q11 78 47 117t84 39q27 0 43.5 -6.5t28 -15t20 -15t18.5 -6.5q9 0 17 7t12 33
h116q-10 -78 -47 -116.5t-85 -38.5q-28 0 -44.5 6.5t-27.5 14t-18.5 14t-17.5 6.5q-9 0 -17 -6.5t-12 -32.5h-117z" />
    <glyph glyph-name="Umacron" unicode="&#x16a;" horiz-adv-x="719" 
d="M121 708h221l-70 -399q-8 -46 7 -76t65 -30q51 0 78 30t35 76l70 399h221l-70 -399q-14 -81 -48.5 -140.5t-84 -98.5t-111 -58t-129.5 -19q-66 0 -119.5 20t-88 59.5t-47.5 99t1 137.5zM257 916h431l-26 -147h-431z" />
    <glyph glyph-name="umacron" unicode="&#x16b;" horiz-adv-x="697" 
d="M597 0h-222l15 85q-30 -36 -77.5 -62.5t-110.5 -26.5q-49 0 -84.5 17t-56.5 48.5t-27 76t4 99.5l58 327h221l-53 -299q-8 -41 10 -64t54 -23q37 0 61.5 23t32.5 63l53 300h222zM220 769h431l-26 -147h-431z" />
    <glyph glyph-name="Ubreve" unicode="&#x16c;" horiz-adv-x="719" 
d="M121 708h221l-70 -399q-8 -46 7 -76t65 -30q51 0 78 30t35 76l70 399h221l-70 -399q-14 -81 -48.5 -140.5t-84 -98.5t-111 -58t-129.5 -19q-66 0 -119.5 20t-88 59.5t-47.5 99t1 137.5zM666 950q-9 -52 -30.5 -90t-51.5 -63t-66.5 -37.5t-75.5 -12.5t-71 12.5t-53 37.5
t-29 63t1 90l3 17h103q-5 -29 10 -45.5t64 -16.5t70 16.5t26 45.5h103z" />
    <glyph glyph-name="ubreve" unicode="&#x16d;" horiz-adv-x="697" 
d="M597 0h-222l15 85q-30 -36 -77.5 -62.5t-110.5 -26.5q-49 0 -84.5 17t-56.5 48.5t-27 76t4 99.5l58 327h221l-53 -299q-8 -41 10 -64t54 -23q37 0 61.5 23t32.5 63l53 300h222zM629 803q-9 -52 -30.5 -90t-51.5 -63t-66.5 -37.5t-75.5 -12.5t-71 12.5t-53 37.5t-29 63
t1 90l3 17h103q-5 -29 10 -45.5t64 -16.5t70 16.5t26 45.5h103z" />
    <glyph glyph-name="Uring" unicode="&#x16e;" horiz-adv-x="719" 
d="M121 708h221l-70 -399q-8 -46 7 -76t65 -30q51 0 78 30t35 76l70 399h221l-70 -399q-14 -81 -48.5 -140.5t-84 -98.5t-111 -58t-129.5 -19q-66 0 -119.5 20t-88 59.5t-47.5 99t1 137.5zM332 872q6 31 20.5 55.5t35.5 41.5t46.5 26t52.5 9t49.5 -9t37.5 -26t21.5 -41.5
t0.5 -55.5q-5 -31 -19.5 -55.5t-35.5 -41.5t-47 -26t-53 -9t-49.5 9t-37.5 26t-21 41.5t-1 55.5zM510 872q4 22 -7 34.5t-31 12.5t-35 -12.5t-19 -34.5q-4 -21 7 -34t31 -13t35 13t19 34z" />
    <glyph glyph-name="uring" unicode="&#x16f;" horiz-adv-x="697" 
d="M597 0h-222l15 85q-30 -36 -77.5 -62.5t-110.5 -26.5q-49 0 -84.5 17t-56.5 48.5t-27 76t4 99.5l58 327h221l-53 -299q-8 -41 10 -64t54 -23q37 0 61.5 23t32.5 63l53 300h222zM473 725q4 22 -7 34.5t-31 12.5t-35 -12.5t-19 -34.5q-4 -21 7 -34t31 -13t35 13t19 34z
M295 725q6 31 20.5 55.5t35.5 41.5t46.5 26t52.5 9t49.5 -9t37.5 -26t21.5 -41.5t0.5 -55.5q-5 -31 -19.5 -55.5t-35.5 -41.5t-47 -26t-53 -9t-49.5 9t-37.5 26t-21 41.5t-1 55.5z" />
    <glyph glyph-name="Uhungarumlaut" unicode="&#x170;" horiz-adv-x="719" 
d="M121 708h221l-70 -399q-8 -46 7 -76t65 -30q51 0 78 30t35 76l70 399h221l-70 -399q-14 -81 -48.5 -140.5t-84 -98.5t-111 -58t-129.5 -19q-66 0 -119.5 20t-88 59.5t-47.5 99t1 137.5zM786 992l-183 -244h-133l148 244h168zM541 992l-158 -244h-133l123 244h168z" />
    <glyph glyph-name="uhungarumlaut" unicode="&#x171;" horiz-adv-x="697" 
d="M597 0h-222l15 85q-30 -36 -77.5 -62.5t-110.5 -26.5q-49 0 -84.5 17t-56.5 48.5t-27 76t4 99.5l58 327h221l-53 -299q-8 -41 10 -64t54 -23q37 0 61.5 23t32.5 63l53 300h222zM504 845l-158 -244h-133l123 244h168zM749 845l-183 -244h-133l148 244h168z" />
    <glyph glyph-name="Uogonek" unicode="&#x172;" horiz-adv-x="719" 
d="M121 708h221l-70 -399q-8 -46 7 -76t65 -30q51 0 78 30t35 76l70 399h221l-70 -399q-12 -66 -37.5 -118t-61.5 -90t-81.5 -62.5t-97.5 -35.5l-46 -21q-45 -20 -65 -35t-23 -30q-2 -9 5.5 -15t24.5 -6q37 0 88 16l-20 -116q-26 -8 -55 -12t-61 -4q-76 0 -113 32t-27 88
q5 30 23 57.5t58 54.5q-80 29 -119.5 103.5t-18.5 193.5z" />
    <glyph glyph-name="uogonek" unicode="&#x173;" horiz-adv-x="697" 
d="M597 0h-1l1 -3l-46 -21q-45 -20 -65 -35t-23 -30q-2 -9 5.5 -15t24.5 -6q37 0 88 16l-20 -116q-26 -8 -55 -12t-61 -4q-76 0 -113 32t-27 88q5 29 21.5 54.5t51.5 51.5h-3l15 85q-30 -36 -77.5 -62.5t-110.5 -26.5q-49 0 -84.5 17t-56.5 48.5t-27 76t4 99.5l58 327h221
l-53 -299q-8 -41 10 -64t54 -23q37 0 61.5 23t32.5 63l53 300h222z" />
    <glyph glyph-name="Wcircumflex" unicode="&#x174;" horiz-adv-x="1100" 
d="M105 708h239l-14 -446l174 446h242l17 -446l143 446h239l-287 -708h-276l-11 402l-153 -402h-276zM771 736l-150 88l-181 -88l25 144l181 85l150 -85z" />
    <glyph glyph-name="wcircumflex" unicode="&#x175;" horiz-adv-x="903" 
d="M49 564h220l-13 -343l133 343h237l16 -347l109 347h205l-234 -564h-250l-12 318l-128 -318h-250zM673 592l-150 88l-181 -88l25 144l181 85l150 -85z" />
    <glyph glyph-name="Ycircumflex" unicode="&#x176;" horiz-adv-x="730" 
d="M75 708h254l69 -251l157 251h250l-341 -493l-38 -215h-222l38 215zM612 739l-150 88l-181 -88l25 144l181 85l150 -85z" />
    <glyph glyph-name="ycircumflex" unicode="&#x177;" horiz-adv-x="677" 
d="M40 564h247l55 -286l150 286h245l-508 -834h-243l194 298zM559 592l-150 88l-181 -88l25 144l181 85l150 -85z" />
    <glyph glyph-name="Ydieresis" unicode="&#x178;" horiz-adv-x="730" 
d="M75 708h254l69 -251l157 251h250l-341 -493l-38 -215h-222l38 215zM338 767q-32 0 -52 19.5t-20 49.5q0 22 8.5 40.5t22.5 32.5t32.5 22t38.5 8q34 0 53.5 -19.5t19.5 -51.5q0 -21 -8.5 -39.5t-22.5 -32t-32.5 -21.5t-39.5 -8zM563 767q-32 0 -52 19.5t-20 49.5
q0 22 8.5 40.5t22.5 32.5t32.5 22t38.5 8q34 0 53.5 -19.5t19.5 -51.5q0 -21 -8.5 -39.5t-22.5 -32t-32.5 -21.5t-39.5 -8z" />
    <glyph glyph-name="Zacute" unicode="&#x179;" horiz-adv-x="630" 
d="M626 541l-349 -364h284l-31 -177h-530l30 167l344 365h-280l31 176h530zM571 1007l-29 -164l-276 -94l27 148z" />
    <glyph glyph-name="zacute" unicode="&#x17a;" horiz-adv-x="518" 
d="M507 390l-261 -206h235l-33 -184h-478l31 174l251 206h-212l33 184h465zM496 860l-29 -164l-276 -94l27 148z" />
    <glyph glyph-name="Zdotaccent" unicode="&#x17b;" horiz-adv-x="630" 
d="M626 541l-349 -364h284l-31 -177h-530l30 167l344 365h-280l31 176h530zM399 767q-36 0 -56.5 24.5t-13.5 60.5q6 38 35 62.5t65 24.5q38 0 58 -24.5t14 -62.5q-7 -36 -35.5 -60.5t-66.5 -24.5z" />
    <glyph glyph-name="zdotaccent" unicode="&#x17c;" horiz-adv-x="518" 
d="M507 390l-261 -206h235l-33 -184h-478l31 174l251 206h-212l33 184h465zM324 620q-36 0 -56.5 24.5t-13.5 60.5q6 38 35 62.5t65 24.5q38 0 58 -24.5t14 -62.5q-7 -36 -35.5 -60.5t-66.5 -24.5z" />
    <glyph glyph-name="Zcaron" unicode="&#x17d;" horiz-adv-x="630" 
d="M626 541l-349 -364h284l-31 -177h-530l30 167l344 365h-280l31 176h530zM601 968l-25 -144l-180 -85l-151 85l25 144l151 -88z" />
    <glyph glyph-name="zcaron" unicode="&#x17e;" horiz-adv-x="518" 
d="M507 390l-261 -206h235l-33 -184h-478l31 174l251 206h-212l33 184h465zM526 821l-25 -144l-180 -85l-151 85l25 144l151 -88z" />
    <glyph glyph-name="uni018F" unicode="&#x18f;" horiz-adv-x="788" 
d="M372 196q24 0 47.5 6t44.5 18.5t37 31t24 42.5h-258q-2 -23 4.5 -41t21 -31t34.5 -19.5t45 -6.5zM340 -9q-67 0 -122 22.5t-94 62t-60 93.5t-21 116q0 30 4.5 62.5t15.5 61.5h484q7 57 -23 88.5t-84 31.5q-39 0 -74 -18.5t-50 -50.5h-233q21 60 58 109.5t87 84.5
t110.5 54t127.5 19q69 0 125.5 -22t96.5 -61t62 -92.5t22 -115.5q0 -93 -32 -174t-89.5 -141.5t-137 -95t-173.5 -34.5z" />
    <glyph glyph-name="florin" unicode="&#x192;" horiz-adv-x="340" 
d="M130 569q33 118 115.5 171t222.5 53l-52 -189q-26 0 -42.5 -7t-22.5 -28l-1 -5h62l-52 -185h-63l-134 -477q-18 -64 -49 -105t-71 -65t-87 -33t-97 -9h-33l51 190h38q10 0 16.5 6.5t9.5 15.5l135 477h-41l52 185h42l1 5v0z" />
    <glyph glyph-name="Ohorn" unicode="&#x1a0;" horiz-adv-x="788" 
d="M767 427q0 -96 -30 -175.5t-85.5 -137t-133 -89.5t-171.5 -32q-68 0 -123.5 21.5t-94.5 60.5t-60.5 93.5t-21.5 120.5q0 96 30 175.5t85 136t132 88t170 31.5q52 0 97 -12q37 2 65 25t37 75h175q-13 -73 -53.5 -115.5t-95.5 -57.5q38 -38 58 -91t20 -117zM265 317
q0 -54 29 -85.5t87 -31.5q40 0 71.5 16.5t53.5 44t33 63.5t11 75q0 54 -28.5 85t-85.5 31q-41 0 -72.5 -16t-53.5 -43.5t-33.5 -63.5t-11.5 -75z" />
    <glyph glyph-name="ohorn" unicode="&#x1a1;" horiz-adv-x="636" 
d="M622 334q0 -75 -27 -137.5t-74.5 -108t-112.5 -70.5t-141 -25q-56 0 -102.5 16.5t-80 47.5t-52 74.5t-18.5 97.5q0 74 27 137t74.5 108.5t112.5 71t141 25.5q17 0 34 -2t33 -5q36 2 63 25.5t36 74.5h175q-12 -72 -51.5 -114t-93.5 -58q27 -30 42 -70t15 -88zM242 253
q0 -35 16.5 -51.5t42.5 -16.5q23 0 40.5 11.5t29 30t17.5 41t6 43.5q0 35 -17 51.5t-42 16.5q-23 0 -40.5 -11.5t-29 -30t-17.5 -41t-6 -43.5z" />
    <glyph glyph-name="Uhorn" unicode="&#x1af;" horiz-adv-x="719" 
d="M121 708h221l-70 -399q-8 -46 7 -76t65 -30q51 0 78 30t35 76l70 399h36q39 0 69 23t39 77h175q-10 -59 -39 -98t-69 -59l-60 -342q-14 -81 -48.5 -140.5t-84 -98.5t-111 -58t-129.5 -19q-66 0 -119.5 20t-88 59.5t-47.5 99t1 137.5z" />
    <glyph glyph-name="uhorn" unicode="&#x1b0;" horiz-adv-x="697" 
d="M795 664q-11 -60 -39.5 -98.5t-68.5 -59.5l-90 -506h-222l15 85q-30 -36 -77.5 -62.5t-110.5 -26.5q-49 0 -84.5 17t-56.5 48.5t-27 76t4 99.5l58 327h221l-53 -299q-8 -41 10 -64t54 -23q37 0 61.5 23t32.5 63l53 300h37q39 0 69 23t39 77h175v0z" />
    <glyph glyph-name="uni01FC" unicode="&#x1fc;" horiz-adv-x="986" 
d="M708 1004l-29 -164l-276 -94l27 148zM360 264h127l48 273zM756 532l-15 -85h210l-29 -167h-210l-19 -103h240l-31 -177h-462l17 97h-204l-62 -97h-241l464 708h613l-31 -176h-240z" />
    <glyph glyph-name="uni01FD" unicode="&#x1fd;" horiz-adv-x="1054" 
d="M744 397q-29 0 -55.5 -13t-40.5 -50h170q6 33 -17 48t-57 15zM1008 203q-17 -45 -43.5 -83.5t-61 -66.5t-74.5 -44t-84 -16q-61 0 -99 22.5t-52 61.5l-14 -77h-221l14 77q-27 -38 -70.5 -61t-100.5 -23q-49 0 -88 19.5t-64 56.5t-33.5 91t3.5 122t39.5 122t65.5 91
t84 56.5t95 19.5q57 0 92 -23t49 -61l14 77h221l-14 -77q27 40 73.5 62t107.5 22q52 0 92.5 -19.5t65.5 -56t33.5 -89.5t-3.5 -119q-2 -11 -5 -22t-8 -22h-391q-2 -45 16.5 -60.5t49.5 -15.5q29 0 47 9.5t29 26.5h235zM245 282q-8 -47 11 -71t54 -24t63 24t36 71t-11 71
t-54 24t-63 -24t-36 -71zM759 860l-29 -164l-276 -94l27 148z" />
    <glyph glyph-name="uni0218" unicode="&#x218;" horiz-adv-x="685" 
d="M363 -35q8 -35 8 -69t-6 -66q-6 -36 -21.5 -68t-40 -56t-58 -38t-76.5 -14l14 78q26 0 43.5 18t24.5 57l2 11h-72l26 147h156zM592 221q0 -48 -19.5 -90t-56.5 -72.5t-90.5 -48t-121.5 -17.5q-67 0 -122 14t-93 43t-56.5 73t-11.5 104h236q-6 -61 51 -61q17 0 29.5 9
t12.5 26q0 22 -21 37.5t-52.5 29.5t-68 29.5t-68 39.5t-52.5 58t-21 85q0 58 22 102.5t61.5 75t93.5 46.5t118 16q61 0 113 -15.5t88 -45t53.5 -72t10.5 -96.5h-239q5 28 -6 42t-33 14q-17 0 -28 -9.5t-11 -26.5q0 -21 21 -37t52 -31t68 -32.5t68 -43t52 -60.5t21 -86z" />
    <glyph glyph-name="uni0219" unicode="&#x219;" horiz-adv-x="579" 
d="M308 -35q8 -35 7.5 -69t-6.5 -66q-6 -36 -21.5 -68t-40 -56t-58 -38t-75.5 -14l14 78q26 0 43.5 18t24.5 57l2 11h-72l26 147h156zM526 177q0 -45 -20 -79t-56 -57.5t-85 -35.5t-107 -12q-61 0 -110.5 14.5t-83.5 41.5t-50 64t-8 82h213q-1 -26 15 -37.5t42 -11.5
q17 0 29.5 8t12.5 19q0 16 -20.5 25.5t-51.5 18t-67 19.5t-67 30t-51.5 48.5t-20.5 76.5q0 38 17.5 71t49.5 57t77 38t101 14q62 0 109.5 -16t79.5 -43.5t47.5 -64t14.5 -78.5h-197q0 23 -14 35.5t-41 12.5q-17 0 -28.5 -6.5t-11.5 -19.5q0 -15 21 -25t52 -19.5t68 -20.5
t68 -30t52 -47.5t21 -71.5z" />
    <glyph glyph-name="uni021A" unicode="&#x21a;" horiz-adv-x="616" 
d="M329 -35q8 -35 7.5 -69t-6.5 -66q-6 -36 -21.5 -68t-40 -56t-58 -38t-75.5 -14l14 78q26 0 43.5 18t24.5 57l2 11h-72l26 147h156zM85 708h596l-31 -176h-188l-94 -532h-222l94 532h-186z" />
    <glyph glyph-name="uni021B" unicode="&#x21b;" horiz-adv-x="436" 
d="M247 -35q8 -35 8 -69t-6 -66q-6 -36 -21.5 -68t-40 -56t-58 -38t-76.5 -14l14 78q26 0 43.5 18t24.5 57l2 11h-72l26 147h156zM102 379h-70l33 185h70l24 136h222l-24 -136h92l-33 -185h-92l-27 -152q-6 -38 35 -38h53l-34 -189h-84q-50 0 -90 11.5t-66.5 38.5t-36.5 71
t2 110z" />
    <glyph glyph-name="uni0259" unicode="&#x259;" horiz-adv-x="616" 
d="M288 167q60 0 81 63h-133q-6 -34 10.5 -48.5t41.5 -14.5zM257 -7q-63 0 -112.5 19.5t-81.5 56t-44 89.5t0 119q2 11 4.5 22t6.5 22h356q5 43 -9.5 58t-37.5 15q-22 0 -36 -10t-22 -23h-235q17 45 48 83.5t72 66.5t90.5 44t102.5 16q63 0 112.5 -20t81 -57t43.5 -91
t0 -121q-12 -68 -42.5 -121.5t-75.5 -90.5t-101.5 -57t-119.5 -20z" />
    <glyph glyph-name="uni02BC" unicode="&#x2bc;" horiz-adv-x="378" 
d="M87 413l96 295h220l-170 -295h-146z" />
    <glyph glyph-name="circumflex" unicode="&#x2c6;" horiz-adv-x="351" 
d="M396 592l-150 88l-181 -88l25 144l181 85l150 -85z" />
    <glyph glyph-name="caron" unicode="&#x2c7;" horiz-adv-x="351" 
d="M436 821l-25 -144l-180 -85l-151 85l25 144l151 -88z" />
    <glyph glyph-name="uni02C9" unicode="&#x2c9;" horiz-adv-x="451" 
d="M96 769h431l-26 -147h-431z" />
    <glyph glyph-name="breve" unicode="&#x2d8;" horiz-adv-x="395" 
d="M478 803q-9 -52 -30.5 -90t-51.5 -63t-66.5 -37.5t-75.5 -12.5t-71 12.5t-53 37.5t-29 63t1 90l3 17h103q-5 -29 10 -45.5t64 -16.5t70 16.5t26 45.5h103l-3 -17v0z" />
    <glyph glyph-name="dotaccent" unicode="&#x2d9;" horiz-adv-x="192" 
d="M155 620q-36 0 -56.5 24.5t-13.5 60.5q6 38 35 62.5t65 24.5q38 0 58 -24.5t14 -62.5q-7 -36 -35.5 -60.5t-66.5 -24.5z" />
    <glyph glyph-name="ring" unicode="&#x2da;" horiz-adv-x="283" 
d="M88 725q6 31 20.5 55.5t35.5 41.5t46.5 26t52.5 9t49.5 -9t37.5 -26t21.5 -41.5t0.5 -55.5q-5 -31 -19.5 -55.5t-35.5 -41.5t-47 -26t-53 -9t-49.5 9t-37.5 26t-21 41.5t-1 55.5zM266 725q4 22 -7 34.5t-31 12.5t-35 -12.5t-19 -34.5q-4 -21 7 -34t31 -13t35 13t19 34z
" />
    <glyph glyph-name="ogonek" unicode="&#x2db;" horiz-adv-x="302" 
d="M217 94l25 -94l-46 -21q-45 -20 -65 -35t-23 -30q-2 -9 5.5 -15t24.5 -6q37 0 88 16l-20 -116q-26 -8 -55 -12t-61 -4q-76 0 -113 32t-27 88q4 25 17 47.5t38.5 44.5t67 44t104.5 46z" />
    <glyph glyph-name="tilde" unicode="&#x2dc;" horiz-adv-x="458" 
d="M58 612q34 96 82 136t110 40q24 0 43 -7t34.5 -16t29.5 -16t29 -7q37 0 52 47h109q-33 -96 -81.5 -135.5t-109.5 -39.5q-24 0 -43 7t-35 15.5t-30 15.5t-29 7q-36 0 -53 -47h-108v0z" />
    <glyph glyph-name="hungarumlaut" unicode="&#x2dd;" horiz-adv-x="513" 
d="M602 845l-183 -244h-133l148 244h168zM357 845l-158 -244h-133l123 244h168z" />
    <glyph glyph-name="pi" unicode="&#x3c0;" horiz-adv-x="708" 
d="M60 564h693l-30 -166h-65l-70 -398h-222l70 398h-119l-70 -398h-222l70 398h-65z" />
    <glyph glyph-name="Wgrave" unicode="&#x1e80;" horiz-adv-x="1100" 
d="M105 708h239l-14 -446l174 446h242l17 -446l143 446h239l-287 -708h-276l-11 402l-153 -402h-276zM523 1004l240 -110l-27 -148l-242 94z" />
    <glyph glyph-name="wgrave" unicode="&#x1e81;" horiz-adv-x="903" 
d="M49 564h220l-13 -343l133 343h237l16 -347l109 347h205l-234 -564h-250l-12 318l-128 -318h-250zM425 860l240 -110l-27 -148l-242 94z" />
    <glyph glyph-name="Wacute" unicode="&#x1e82;" horiz-adv-x="1100" 
d="M105 708h239l-14 -446l174 446h242l17 -446l143 446h239l-287 -708h-276l-11 402l-153 -402h-276zM782 1004l-29 -164l-276 -94l27 148z" />
    <glyph glyph-name="wacute" unicode="&#x1e83;" horiz-adv-x="903" 
d="M49 564h220l-13 -343l133 343h237l16 -347l109 347h205l-234 -564h-250l-12 318l-128 -318h-250zM684 860l-29 -164l-276 -94l27 148z" />
    <glyph glyph-name="Wdieresis" unicode="&#x1e84;" horiz-adv-x="1100" 
d="M105 708h239l-14 -446l174 446h242l17 -446l143 446h239l-287 -708h-276l-11 402l-153 -402h-276zM497 764q-32 0 -52 19.5t-20 49.5q0 22 8.5 40.5t22.5 32.5t32.5 22t38.5 8q34 0 53.5 -19.5t19.5 -51.5q0 -21 -8.5 -39.5t-22.5 -32t-32.5 -21.5t-39.5 -8zM722 764
q-32 0 -52 19.5t-20 49.5q0 22 8.5 40.5t22.5 32.5t32.5 22t38.5 8q34 0 53.5 -19.5t19.5 -51.5q0 -21 -8.5 -39.5t-22.5 -32t-32.5 -21.5t-39.5 -8z" />
    <glyph glyph-name="wdieresis" unicode="&#x1e85;" horiz-adv-x="903" 
d="M49 564h220l-13 -343l133 343h237l16 -347l109 347h205l-234 -564h-250l-12 318l-128 -318h-250zM399 620q-32 0 -52 19.5t-20 49.5q0 22 8.5 40.5t22.5 32.5t32.5 22t38.5 8q34 0 53.5 -19.5t19.5 -51.5q0 -21 -8.5 -39.5t-22.5 -32t-32.5 -21.5t-39.5 -8zM624 620
q-32 0 -52 19.5t-20 49.5q0 22 8.5 40.5t22.5 32.5t32.5 22t38.5 8q34 0 53.5 -19.5t19.5 -51.5q0 -21 -8.5 -39.5t-22.5 -32t-32.5 -21.5t-39.5 -8z" />
    <glyph glyph-name="uni1EA0" unicode="&#x1ea0;" horiz-adv-x="773" 
d="M307 -248q-50 0 -77 27.5t-23 67.5q3 39 33.5 67t80.5 28q49 0 75.5 -28t23.5 -67q-4 -40 -34 -67.5t-79 -27.5zM473 107h-236l-54 -107h-233l384 708h256l133 -708h-234zM420 471l-99 -197h128z" />
    <glyph glyph-name="uni1EA1" unicode="&#x1ea1;" 
d="M247 -248q-50 0 -77 27.5t-23 67.5q3 39 33.5 67t80.5 28q49 0 75.5 -28t23.5 -67q-4 -40 -34 -67.5t-79 -27.5zM20 282q12 68 39.5 122t65.5 91t84 56.5t95 19.5q57 0 92 -23t49 -61l14 77h221l-100 -564h-221l14 77q-27 -38 -70.5 -61t-100.5 -23q-49 0 -88 19.5
t-64 56.5t-33.5 91t3.5 122zM409 282q8 47 -11 71t-54 24t-63 -24t-36 -71t11 -71t54 -24t63 24t36 71z" />
    <glyph glyph-name="uni1EA2" unicode="&#x1ea2;" horiz-adv-x="773" 
d="M424 814q29 10 44.5 21.5t18.5 28.5q1 25 -37 25q-9 0 -21 -1.5t-26 -6.5l14 90q21 8 43 12.5t40 4.5q25 0 47 -6t38 -18t24 -31.5t6 -46.5q-3 -39 -35 -76t-107 -58zM473 107h-236l-54 -107h-233l384 708h256l133 -708h-234zM420 471l-99 -197h128z" />
    <glyph glyph-name="uni1EA3" unicode="&#x1ea3;" 
d="M359 671q29 10 44.5 21.5t18.5 28.5q1 25 -37 25q-9 0 -21 -1.5t-26 -6.5l14 90q21 8 43 12.5t40 4.5q25 0 47 -6t38 -18t24 -31.5t6 -46.5q-3 -39 -35 -76t-107 -58zM20 282q12 68 39.5 122t65.5 91t84 56.5t95 19.5q57 0 92 -23t49 -61l14 77h221l-100 -564h-221l14 77
q-27 -38 -70.5 -61t-100.5 -23q-49 0 -88 19.5t-64 56.5t-33.5 91t3.5 122zM409 282q8 47 -11 71t-54 24t-63 -24t-36 -71t11 -71t54 -24t63 24t36 71z" />
    <glyph glyph-name="uni1EA4" unicode="&#x1ea4;" horiz-adv-x="773" 
d="M851 998l-208 -120l-66 93l203 134zM473 107h-236l-54 -107h-233l384 708h256l133 -708h-234zM420 471l-99 -197h128zM343 742l-53 95l200 106l170 -106l-70 -95l-115 62z" />
    <glyph glyph-name="uni1EA5" unicode="&#x1ea5;" 
d="M783 855l-208 -120l-66 93l203 134zM20 282q12 68 39.5 122t65.5 91t84 56.5t95 19.5q57 0 92 -23t49 -61l14 77h221l-100 -564h-221l14 77q-27 -38 -70.5 -61t-100.5 -23q-49 0 -88 19.5t-64 56.5t-33.5 91t3.5 122zM409 282q8 47 -11 71t-54 24t-63 -24t-36 -71t11 -71
t54 -24t63 24t36 71zM275 599l-53 95l200 106l170 -106l-70 -95l-115 62z" />
    <glyph glyph-name="uni1EA6" unicode="&#x1ea6;" horiz-adv-x="773" 
d="M595 1105l158 -145l-79 -82l-169 126zM473 107h-236l-54 -107h-233l384 708h256l133 -708h-234zM420 471l-99 -197h128zM343 742l-53 95l200 106l170 -106l-70 -95l-115 62z" />
    <glyph glyph-name="uni1EA7" unicode="&#x1ea7;" 
d="M527 962l158 -145l-79 -82l-169 126zM20 282q12 68 39.5 122t65.5 91t84 56.5t95 19.5q57 0 92 -23t49 -61l14 77h221l-100 -564h-221l14 77q-27 -38 -70.5 -61t-100.5 -23q-49 0 -88 19.5t-64 56.5t-33.5 91t3.5 122zM409 282q8 47 -11 71t-54 24t-63 -24t-36 -71
t11 -71t54 -24t63 24t36 71zM275 599l-53 95l200 106l170 -106l-70 -95l-115 62z" />
    <glyph glyph-name="uni1EA8" unicode="&#x1ea8;" horiz-adv-x="773" 
d="M600 940q29 10 44.5 21.5t18.5 28.5q1 25 -37 25q-9 0 -21 -1.5t-26 -6.5l14 90q21 8 43 12.5t40 4.5q25 0 47 -6t38 -18t24 -31.5t6 -46.5q-3 -39 -35 -76t-107 -58zM473 107h-236l-54 -107h-233l384 708h256l133 -708h-234zM420 471l-99 -197h128zM343 742l-53 95
l200 106l170 -106l-70 -95l-115 62z" />
    <glyph glyph-name="uni1EA9" unicode="&#x1ea9;" 
d="M532 797q29 10 44.5 21.5t18.5 28.5q1 25 -37 25q-9 0 -21 -1.5t-26 -6.5l14 90q21 8 43 12.5t40 4.5q25 0 47 -6t38 -18t24 -31.5t6 -46.5q-3 -39 -35 -76t-107 -58zM20 282q12 68 39.5 122t65.5 91t84 56.5t95 19.5q57 0 92 -23t49 -61l14 77h221l-100 -564h-221l14 77
q-27 -38 -70.5 -61t-100.5 -23q-49 0 -88 19.5t-64 56.5t-33.5 91t3.5 122zM409 282q8 47 -11 71t-54 24t-63 -24t-36 -71t11 -71t54 -24t63 24t36 71zM275 599l-53 95l200 106l170 -106l-70 -95l-115 62z" />
    <glyph glyph-name="uni1EAA" unicode="&#x1eaa;" horiz-adv-x="773" 
d="M305 961q11 78 47 117t84 39q27 0 43.5 -6.5t28 -15t20 -15t18.5 -6.5q9 0 17 7t12 33h116q-10 -78 -47 -116.5t-85 -38.5q-28 0 -44.5 6.5t-27.5 14t-18.5 14t-17.5 6.5q-9 0 -17 -6.5t-12 -32.5h-117zM473 107h-236l-54 -107h-233l384 708h256l133 -708h-234zM420 471
l-99 -197h128zM343 742l-53 95l200 106l170 -106l-70 -95l-115 62z" />
    <glyph glyph-name="uni1EAB" unicode="&#x1eab;" 
d="M237 818q11 78 47 117t84 39q27 0 43.5 -6.5t28 -15t20 -15t18.5 -6.5q9 0 17 7t12 33h116q-10 -78 -47 -116.5t-85 -38.5q-28 0 -44.5 6.5t-27.5 14t-18.5 14t-17.5 6.5q-9 0 -17 -6.5t-12 -32.5h-117zM20 282q12 68 39.5 122t65.5 91t84 56.5t95 19.5q57 0 92 -23
t49 -61l14 77h221l-100 -564h-221l14 77q-27 -38 -70.5 -61t-100.5 -23q-49 0 -88 19.5t-64 56.5t-33.5 91t3.5 122zM409 282q8 47 -11 71t-54 24t-63 -24t-36 -71t11 -71t54 -24t63 24t36 71zM275 599l-53 95l200 106l170 -106l-70 -95l-115 62z" />
    <glyph glyph-name="uni1EAC" unicode="&#x1eac;" horiz-adv-x="773" 
d="M307 -248q-50 0 -77 27.5t-23 67.5q3 39 33.5 67t80.5 28q49 0 75.5 -28t23.5 -67q-4 -40 -34 -67.5t-79 -27.5zM473 107h-236l-54 -107h-233l384 708h256l133 -708h-234zM420 471l-99 -197h128zM343 742l-53 95l200 106l170 -106l-70 -95l-115 62z" />
    <glyph glyph-name="uni1EAD" unicode="&#x1ead;" 
d="M247 -248q-50 0 -77 27.5t-23 67.5q3 39 33.5 67t80.5 28q49 0 75.5 -28t23.5 -67q-4 -40 -34 -67.5t-79 -27.5zM20 282q12 68 39.5 122t65.5 91t84 56.5t95 19.5q57 0 92 -23t49 -61l14 77h221l-100 -564h-221l14 77q-27 -38 -70.5 -61t-100.5 -23q-49 0 -88 19.5
t-64 56.5t-33.5 91t3.5 122zM409 282q8 47 -11 71t-54 24t-63 -24t-36 -71t11 -71t54 -24t63 24t36 71zM275 599l-53 95l200 106l170 -106l-70 -95l-115 62z" />
    <glyph glyph-name="uni1EAE" unicode="&#x1eae;" horiz-adv-x="773" 
d="M695 1041l-208 -120l-66 93l203 134zM473 107h-236l-54 -107h-233l384 708h256l133 -708h-234zM420 471l-99 -197h128zM467 742q-82 0 -125 40.5t-29 118.5h130q-5 -29 6.5 -41.5t36.5 -12.5q22 0 38.5 12.5t21.5 41.5h132q-14 -78 -69.5 -118.5t-141.5 -40.5z" />
    <glyph glyph-name="uni1EAF" unicode="&#x1eaf;" 
d="M621 898l-208 -120l-66 93l203 134zM20 282q12 68 39.5 122t65.5 91t84 56.5t95 19.5q57 0 92 -23t49 -61l14 77h221l-100 -564h-221l14 77q-27 -38 -70.5 -61t-100.5 -23q-49 0 -88 19.5t-64 56.5t-33.5 91t3.5 122zM409 282q8 47 -11 71t-54 24t-63 -24t-36 -71t11 -71
t54 -24t63 24t36 71zM393 599q-82 0 -125 40.5t-29 118.5h130q-5 -29 6.5 -41.5t36.5 -12.5q22 0 38.5 12.5t21.5 41.5h132q-14 -78 -69.5 -118.5t-141.5 -40.5z" />
    <glyph glyph-name="uni1EB0" unicode="&#x1eb0;" horiz-adv-x="773" 
d="M425 1148l158 -145l-79 -82l-169 126zM473 107h-236l-54 -107h-233l384 708h256l133 -708h-234zM420 471l-99 -197h128zM467 742q-82 0 -125 40.5t-29 118.5h130q-5 -29 6.5 -41.5t36.5 -12.5q22 0 38.5 12.5t21.5 41.5h132q-14 -78 -69.5 -118.5t-141.5 -40.5z" />
    <glyph glyph-name="uni1EB1" unicode="&#x1eb1;" 
d="M351 1005l158 -145l-79 -82l-169 126zM20 282q12 68 39.5 122t65.5 91t84 56.5t95 19.5q57 0 92 -23t49 -61l14 77h221l-100 -564h-221l14 77q-27 -38 -70.5 -61t-100.5 -23q-49 0 -88 19.5t-64 56.5t-33.5 91t3.5 122zM409 282q8 47 -11 71t-54 24t-63 -24t-36 -71
t11 -71t54 -24t63 24t36 71zM393 599q-82 0 -125 40.5t-29 118.5h130q-5 -29 6.5 -41.5t36.5 -12.5q22 0 38.5 12.5t21.5 41.5h132q-14 -78 -69.5 -118.5t-141.5 -40.5z" />
    <glyph glyph-name="uni1EB2" unicode="&#x1eb2;" horiz-adv-x="773" 
d="M449 973q29 10 44.5 21.5t18.5 28.5q1 25 -37 25q-9 0 -21 -1.5t-26 -6.5l14 90q21 8 43 12.5t40 4.5q25 0 47 -6t38 -18t24 -31.5t6 -46.5q-3 -39 -35 -76t-107 -58zM473 107h-236l-54 -107h-233l384 708h256l133 -708h-234zM420 471l-99 -197h128zM467 742
q-82 0 -125 40.5t-29 118.5h130q-5 -29 6.5 -41.5t36.5 -12.5q22 0 38.5 12.5t21.5 41.5h132q-14 -78 -69.5 -118.5t-141.5 -40.5z" />
    <glyph glyph-name="uni1EB3" unicode="&#x1eb3;" 
d="M375 830q29 10 44.5 21.5t18.5 28.5q1 25 -37 25q-9 0 -21 -1.5t-26 -6.5l14 90q21 8 43 12.5t40 4.5q25 0 47 -6t38 -18t24 -31.5t6 -46.5q-3 -39 -35 -76t-107 -58zM20 282q12 68 39.5 122t65.5 91t84 56.5t95 19.5q57 0 92 -23t49 -61l14 77h221l-100 -564h-221l14 77
q-27 -38 -70.5 -61t-100.5 -23q-49 0 -88 19.5t-64 56.5t-33.5 91t3.5 122zM409 282q8 47 -11 71t-54 24t-63 -24t-36 -71t11 -71t54 -24t63 24t36 71zM393 599q-82 0 -125 40.5t-29 118.5h130q-5 -29 6.5 -41.5t36.5 -12.5q22 0 38.5 12.5t21.5 41.5h132
q-14 -78 -69.5 -118.5t-141.5 -40.5z" />
    <glyph glyph-name="uni1EB4" unicode="&#x1eb4;" horiz-adv-x="773" 
d="M314 936q11 78 47 117t84 39q27 0 43.5 -6.5t28 -15t20 -15t18.5 -6.5q9 0 17 7t12 33h116q-10 -78 -47 -116.5t-85 -38.5q-28 0 -44.5 6.5t-27.5 14t-18.5 14t-17.5 6.5q-9 0 -17 -6.5t-12 -32.5h-117zM473 107h-236l-54 -107h-233l384 708h256l133 -708h-234zM420 471
l-99 -197h128zM467 742q-82 0 -125 40.5t-29 118.5h130q-5 -29 6.5 -41.5t36.5 -12.5q22 0 38.5 12.5t21.5 41.5h132q-14 -78 -69.5 -118.5t-141.5 -40.5z" />
    <glyph glyph-name="uni1EB5" unicode="&#x1eb5;" 
d="M240 793q11 78 47 117t84 39q27 0 43.5 -6.5t28 -15t20 -15t18.5 -6.5q9 0 17 7t12 33h116q-10 -78 -47 -116.5t-85 -38.5q-28 0 -44.5 6.5t-27.5 14t-18.5 14t-17.5 6.5q-9 0 -17 -6.5t-12 -32.5h-117zM20 282q12 68 39.5 122t65.5 91t84 56.5t95 19.5q57 0 92 -23
t49 -61l14 77h221l-100 -564h-221l14 77q-27 -38 -70.5 -61t-100.5 -23q-49 0 -88 19.5t-64 56.5t-33.5 91t3.5 122zM409 282q8 47 -11 71t-54 24t-63 -24t-36 -71t11 -71t54 -24t63 24t36 71zM393 599q-82 0 -125 40.5t-29 118.5h130q-5 -29 6.5 -41.5t36.5 -12.5
q22 0 38.5 12.5t21.5 41.5h132q-14 -78 -69.5 -118.5t-141.5 -40.5z" />
    <glyph glyph-name="uni1EB6" unicode="&#x1eb6;" horiz-adv-x="773" 
d="M307 -248q-50 0 -77 27.5t-23 67.5q3 39 33.5 67t80.5 28q49 0 75.5 -28t23.5 -67q-4 -40 -34 -67.5t-79 -27.5zM473 107h-236l-54 -107h-233l384 708h256l133 -708h-234zM420 471l-99 -197h128zM467 742q-82 0 -125 40.5t-29 118.5h130q-5 -29 6.5 -41.5t36.5 -12.5
q22 0 38.5 12.5t21.5 41.5h132q-14 -78 -69.5 -118.5t-141.5 -40.5z" />
    <glyph glyph-name="uni1EB7" unicode="&#x1eb7;" 
d="M247 -248q-50 0 -77 27.5t-23 67.5q3 39 33.5 67t80.5 28q49 0 75.5 -28t23.5 -67q-4 -40 -34 -67.5t-79 -27.5zM20 282q12 68 39.5 122t65.5 91t84 56.5t95 19.5q57 0 92 -23t49 -61l14 77h221l-100 -564h-221l14 77q-27 -38 -70.5 -61t-100.5 -23q-49 0 -88 19.5
t-64 56.5t-33.5 91t3.5 122zM409 282q8 47 -11 71t-54 24t-63 -24t-36 -71t11 -71t54 -24t63 24t36 71zM393 599q-82 0 -125 40.5t-29 118.5h130q-5 -29 6.5 -41.5t36.5 -12.5q22 0 38.5 12.5t21.5 41.5h132q-14 -78 -69.5 -118.5t-141.5 -40.5z" />
    <glyph glyph-name="uni1EB8" unicode="&#x1eb8;" horiz-adv-x="556" 
d="M204 -248q-50 0 -77 27.5t-23 67.5q3 39 33.5 67t80.5 28q49 0 75.5 -28t23.5 -67q-4 -40 -34 -67.5t-79 -27.5zM566 532h-250l-15 -88h220l-30 -167h-220l-18 -100h250l-31 -177h-472l125 708h472z" />
    <glyph glyph-name="uni1EB9" unicode="&#x1eb9;" horiz-adv-x="616" 
d="M224 -248q-50 0 -77 27.5t-23 67.5q3 39 33.5 67t80.5 28q49 0 75.5 -28t23.5 -67q-4 -40 -34 -67.5t-79 -27.5zM328 397q-60 0 -81 -63h133q6 34 -10.5 48.5t-41.5 14.5zM570 203q-17 -45 -48 -83.5t-72 -66.5t-90.5 -44t-102.5 -16q-63 0 -112.5 20t-81 57t-43.5 90.5
t0 121.5q12 67 42.5 121t75.5 91t101.5 57t119.5 20t112.5 -19.5t81.5 -56t44 -89.5t0 -119q-2 -11 -4.5 -22t-6.5 -22h-356q-5 -43 9.5 -58t37.5 -15q22 0 36 10t22 23h235z" />
    <glyph glyph-name="uni1EBA" unicode="&#x1eba;" horiz-adv-x="556" 
d="M324 814q29 10 44.5 21.5t18.5 28.5q1 25 -37 25q-9 0 -21 -1.5t-26 -6.5l14 90q21 8 43 12.5t40 4.5q25 0 47 -6t38 -18t24 -31.5t6 -46.5q-3 -39 -35 -76t-107 -58zM566 532h-250l-15 -88h220l-30 -167h-220l-18 -100h250l-31 -177h-472l125 708h472z" />
    <glyph glyph-name="uni1EBB" unicode="&#x1ebb;" horiz-adv-x="616" 
d="M341 671q29 10 44.5 21.5t18.5 28.5q1 25 -37 25q-9 0 -21 -1.5t-26 -6.5l14 90q21 8 43 12.5t40 4.5q25 0 47 -6t38 -18t24 -31.5t6 -46.5q-3 -39 -35 -76t-107 -58zM328 397q-60 0 -81 -63h133q6 34 -10.5 48.5t-41.5 14.5zM570 203q-17 -45 -48 -83.5t-72 -66.5
t-90.5 -44t-102.5 -16q-63 0 -112.5 20t-81 57t-43.5 90.5t0 121.5q12 67 42.5 121t75.5 91t101.5 57t119.5 20t112.5 -19.5t81.5 -56t44 -89.5t0 -119q-2 -11 -4.5 -22t-6.5 -22h-356q-5 -43 9.5 -58t37.5 -15q22 0 36 10t22 23h235z" />
    <glyph glyph-name="uni1EBC" unicode="&#x1ebc;" horiz-adv-x="556" 
d="M176 754q11 78 47 117t84 39q27 0 43.5 -6.5t28 -15t20 -15t18.5 -6.5q9 0 17 7t12 33h116q-10 -78 -47 -116.5t-85 -38.5q-28 0 -44.5 6.5t-27.5 14t-18.5 14t-17.5 6.5q-9 0 -17 -6.5t-12 -32.5h-117zM566 532h-250l-15 -88h220l-30 -167h-220l-18 -100h250l-31 -177
h-472l125 708h472z" />
    <glyph glyph-name="uni1EBD" unicode="&#x1ebd;" horiz-adv-x="616" 
d="M182 611q11 78 47 117t84 39q27 0 43.5 -6.5t28 -15t20 -15t18.5 -6.5q9 0 17 7t12 33h116q-10 -78 -47 -116.5t-85 -38.5q-28 0 -44.5 6.5t-27.5 14t-18.5 14t-17.5 6.5q-9 0 -17 -6.5t-12 -32.5h-117zM328 397q-60 0 -81 -63h133q6 34 -10.5 48.5t-41.5 14.5zM570 203
q-17 -45 -48 -83.5t-72 -66.5t-90.5 -44t-102.5 -16q-63 0 -112.5 20t-81 57t-43.5 90.5t0 121.5q12 67 42.5 121t75.5 91t101.5 57t119.5 20t112.5 -19.5t81.5 -56t44 -89.5t0 -119q-2 -11 -4.5 -22t-6.5 -22h-356q-5 -43 9.5 -58t37.5 -15q22 0 36 10t22 23h235z" />
    <glyph glyph-name="uni1EBE" unicode="&#x1ebe;" horiz-adv-x="556" 
d="M740 998l-208 -120l-66 93l203 134zM566 532h-250l-15 -88h220l-30 -167h-220l-18 -100h250l-31 -177h-472l125 708h472zM232 742l-53 95l200 106l170 -106l-70 -95l-115 62z" />
    <glyph glyph-name="uni1EBF" unicode="&#x1ebf;" horiz-adv-x="616" 
d="M749 855l-208 -120l-66 93l203 134zM328 397q-60 0 -81 -63h133q6 34 -10.5 48.5t-41.5 14.5zM570 203q-17 -45 -48 -83.5t-72 -66.5t-90.5 -44t-102.5 -16q-63 0 -112.5 20t-81 57t-43.5 90.5t0 121.5q12 67 42.5 121t75.5 91t101.5 57t119.5 20t112.5 -19.5t81.5 -56
t44 -89.5t0 -119q-2 -11 -4.5 -22t-6.5 -22h-356q-5 -43 9.5 -58t37.5 -15q22 0 36 10t22 23h235zM241 599l-53 95l200 106l170 -106l-70 -95l-115 62z" />
    <glyph glyph-name="uni1EC0" unicode="&#x1ec0;" horiz-adv-x="556" 
d="M484 1105l158 -145l-79 -82l-169 126zM566 532h-250l-15 -88h220l-30 -167h-220l-18 -100h250l-31 -177h-472l125 708h472zM232 742l-53 95l200 106l170 -106l-70 -95l-115 62z" />
    <glyph glyph-name="uni1EC1" unicode="&#x1ec1;" horiz-adv-x="616" 
d="M493 962l158 -145l-79 -82l-169 126zM328 397q-60 0 -81 -63h133q6 34 -10.5 48.5t-41.5 14.5zM570 203q-17 -45 -48 -83.5t-72 -66.5t-90.5 -44t-102.5 -16q-63 0 -112.5 20t-81 57t-43.5 90.5t0 121.5q12 67 42.5 121t75.5 91t101.5 57t119.5 20t112.5 -19.5t81.5 -56
t44 -89.5t0 -119q-2 -11 -4.5 -22t-6.5 -22h-356q-5 -43 9.5 -58t37.5 -15q22 0 36 10t22 23h235zM241 599l-53 95l200 106l170 -106l-70 -95l-115 62z" />
    <glyph glyph-name="uni1EC2" unicode="&#x1ec2;" horiz-adv-x="556" 
d="M489 940q29 10 44.5 21.5t18.5 28.5q1 25 -37 25q-9 0 -21 -1.5t-26 -6.5l14 90q21 8 43 12.5t40 4.5q25 0 47 -6t38 -18t24 -31.5t6 -46.5q-3 -39 -35 -76t-107 -58zM566 532h-250l-15 -88h220l-30 -167h-220l-18 -100h250l-31 -177h-472l125 708h472zM232 742l-53 95
l200 106l170 -106l-70 -95l-115 62z" />
    <glyph glyph-name="uni1EC3" unicode="&#x1ec3;" horiz-adv-x="616" 
d="M498 797q29 10 44.5 21.5t18.5 28.5q1 25 -37 25q-9 0 -21 -1.5t-26 -6.5l14 90q21 8 43 12.5t40 4.5q25 0 47 -6t38 -18t24 -31.5t6 -46.5q-3 -39 -35 -76t-107 -58zM328 397q-60 0 -81 -63h133q6 34 -10.5 48.5t-41.5 14.5zM570 203q-17 -45 -48 -83.5t-72 -66.5
t-90.5 -44t-102.5 -16q-63 0 -112.5 20t-81 57t-43.5 90.5t0 121.5q12 67 42.5 121t75.5 91t101.5 57t119.5 20t112.5 -19.5t81.5 -56t44 -89.5t0 -119q-2 -11 -4.5 -22t-6.5 -22h-356q-5 -43 9.5 -58t37.5 -15q22 0 36 10t22 23h235zM241 599l-53 95l200 106l170 -106
l-70 -95l-115 62z" />
    <glyph glyph-name="uni1EC4" unicode="&#x1ec4;" horiz-adv-x="556" 
d="M194 961q11 78 47 117t84 39q27 0 43.5 -6.5t28 -15t20 -15t18.5 -6.5q9 0 17 7t12 33h116q-10 -78 -47 -116.5t-85 -38.5q-28 0 -44.5 6.5t-27.5 14t-18.5 14t-17.5 6.5q-9 0 -17 -6.5t-12 -32.5h-117zM566 532h-250l-15 -88h220l-30 -167h-220l-18 -100h250l-31 -177
h-472l125 708h472zM232 742l-53 95l200 106l170 -106l-70 -95l-115 62z" />
    <glyph glyph-name="uni1EC5" unicode="&#x1ec5;" horiz-adv-x="616" 
d="M203 818q11 78 47 117t84 39q27 0 43.5 -6.5t28 -15t20 -15t18.5 -6.5q9 0 17 7t12 33h116q-10 -78 -47 -116.5t-85 -38.5q-28 0 -44.5 6.5t-27.5 14t-18.5 14t-17.5 6.5q-9 0 -17 -6.5t-12 -32.5h-117zM328 397q-60 0 -81 -63h133q6 34 -10.5 48.5t-41.5 14.5zM570 203
q-17 -45 -48 -83.5t-72 -66.5t-90.5 -44t-102.5 -16q-63 0 -112.5 20t-81 57t-43.5 90.5t0 121.5q12 67 42.5 121t75.5 91t101.5 57t119.5 20t112.5 -19.5t81.5 -56t44 -89.5t0 -119q-2 -11 -4.5 -22t-6.5 -22h-356q-5 -43 9.5 -58t37.5 -15q22 0 36 10t22 23h235zM241 599
l-53 95l200 106l170 -106l-70 -95l-115 62z" />
    <glyph glyph-name="uni1EC6" unicode="&#x1ec6;" horiz-adv-x="556" 
d="M204 -248q-50 0 -77 27.5t-23 67.5q3 39 33.5 67t80.5 28q49 0 75.5 -28t23.5 -67q-4 -40 -34 -67.5t-79 -27.5zM566 532h-250l-15 -88h220l-30 -167h-220l-18 -100h250l-31 -177h-472l125 708h472zM232 742l-53 95l200 106l170 -106l-70 -95l-115 62z" />
    <glyph glyph-name="uni1EC7" unicode="&#x1ec7;" horiz-adv-x="616" 
d="M224 -248q-50 0 -77 27.5t-23 67.5q3 39 33.5 67t80.5 28q49 0 75.5 -28t23.5 -67q-4 -40 -34 -67.5t-79 -27.5zM328 397q-60 0 -81 -63h133q6 34 -10.5 48.5t-41.5 14.5zM570 203q-17 -45 -48 -83.5t-72 -66.5t-90.5 -44t-102.5 -16q-63 0 -112.5 20t-81 57t-43.5 90.5
t0 121.5q12 67 42.5 121t75.5 91t101.5 57t119.5 20t112.5 -19.5t81.5 -56t44 -89.5t0 -119q-2 -11 -4.5 -22t-6.5 -22h-356q-5 -43 9.5 -58t37.5 -15q22 0 36 10t22 23h235zM241 599l-53 95l200 106l170 -106l-70 -95l-115 62z" />
    <glyph glyph-name="uni1EC8" unicode="&#x1ec8;" horiz-adv-x="322" 
d="M208 814q29 10 44.5 21.5t18.5 28.5q1 25 -37 25q-9 0 -21 -1.5t-26 -6.5l14 90q21 8 43 12.5t40 4.5q25 0 47 -6t38 -18t24 -31.5t6 -46.5q-3 -39 -35 -76t-107 -58zM125 708h222l-125 -708h-222z" />
    <glyph glyph-name="uni1EC9" unicode="&#x1ec9;" horiz-adv-x="372" 
d="M208 671q29 10 44.5 21.5t18.5 28.5q1 25 -37 25q-9 0 -21 -1.5t-26 -6.5l14 90q21 8 43 12.5t40 4.5q25 0 47 -6t38 -18t24 -31.5t6 -46.5q-3 -39 -35 -76t-107 -58zM125 564h222l-100 -564h-222z" />
    <glyph glyph-name="uni1ECA" unicode="&#x1eca;" horiz-adv-x="322" 
d="M77 -248q-50 0 -77 27.5t-23 67.5q3 39 33.5 67t80.5 28q49 0 75.5 -28t23.5 -67q-4 -40 -34 -67.5t-79 -27.5zM125 708h222l-125 -708h-222z" />
    <glyph glyph-name="uni1ECB" unicode="&#x1ecb;" horiz-adv-x="322" 
d="M78 -248q-50 0 -77 27.5t-23 67.5q3 39 33.5 67t80.5 28q49 0 75.5 -28t23.5 -67q-4 -40 -34 -67.5t-79 -27.5zM100 564h222l-100 -564h-222zM231 620q-53 0 -81.5 28t-24.5 69q3 41 35.5 69.5t85.5 28.5q52 0 80 -28.5t25 -69.5q-4 -41 -36 -69t-84 -28z" />
    <glyph glyph-name="uni1ECC" unicode="&#x1ecc;" horiz-adv-x="788" 
d="M310 -248q-50 0 -77 27.5t-23 67.5q3 39 33.5 67t80.5 28q49 0 75.5 -28t23.5 -67q-4 -40 -34 -67.5t-79 -27.5zM767 427q0 -96 -30 -175.5t-85.5 -137t-133 -89.5t-171.5 -32q-68 0 -123.5 21.5t-94.5 60.5t-60.5 93.5t-21.5 120.5q0 96 30 175.5t85 136t132 88
t170 31.5q70 0 126 -21t95.5 -59.5t60.5 -92.5t21 -120zM265 317q0 -54 29 -85.5t87 -31.5q40 0 71.5 16.5t53.5 44t33 63.5t11 75q0 54 -28.5 85t-85.5 31q-41 0 -72.5 -16t-53.5 -43.5t-33.5 -63.5t-11.5 -75z" />
    <glyph glyph-name="uni1ECD" unicode="&#x1ecd;" horiz-adv-x="636" 
d="M228 -248q-50 0 -77 27.5t-23 67.5q3 39 33.5 67t80.5 28q49 0 75.5 -28t23.5 -67q-4 -40 -34 -67.5t-79 -27.5zM622 334q0 -75 -27 -137.5t-74.5 -108t-112.5 -70.5t-141 -25q-56 0 -102.5 16.5t-80 47.5t-52 74.5t-18.5 97.5q0 74 27 137t74.5 108.5t112.5 71t141 25.5
q56 0 102.5 -17t80 -47.5t52 -74.5t18.5 -98zM242 253q0 -35 16.5 -51.5t42.5 -16.5q23 0 40.5 11.5t29 30t17.5 41t6 43.5q0 35 -17 51.5t-42 16.5q-23 0 -40.5 -11.5t-29 -30t-17.5 -41t-6 -43.5z" />
    <glyph glyph-name="uni1ECE" unicode="&#x1ece;" horiz-adv-x="788" 
d="M447 814q29 10 44.5 21.5t18.5 28.5q1 25 -37 25q-9 0 -21 -1.5t-26 -6.5l14 90q21 8 43 12.5t40 4.5q25 0 47 -6t38 -18t24 -31.5t6 -46.5q-3 -39 -35 -76t-107 -58zM767 427q0 -96 -30 -175.5t-85.5 -137t-133 -89.5t-171.5 -32q-68 0 -123.5 21.5t-94.5 60.5
t-60.5 93.5t-21.5 120.5q0 96 30 175.5t85 136t132 88t170 31.5q70 0 126 -21t95.5 -59.5t60.5 -92.5t21 -120zM265 317q0 -54 29 -85.5t87 -31.5q40 0 71.5 16.5t53.5 44t33 63.5t11 75q0 54 -28.5 85t-85.5 31q-41 0 -72.5 -16t-53.5 -43.5t-33.5 -63.5t-11.5 -75z" />
    <glyph glyph-name="uni1ECF" unicode="&#x1ecf;" horiz-adv-x="636" 
d="M346 671q29 10 44.5 21.5t18.5 28.5q1 25 -37 25q-9 0 -21 -1.5t-26 -6.5l14 90q21 8 43 12.5t40 4.5q25 0 47 -6t38 -18t24 -31.5t6 -46.5q-3 -39 -35 -76t-107 -58zM622 334q0 -75 -27 -137.5t-74.5 -108t-112.5 -70.5t-141 -25q-56 0 -102.5 16.5t-80 47.5t-52 74.5
t-18.5 97.5q0 74 27 137t74.5 108.5t112.5 71t141 25.5q56 0 102.5 -17t80 -47.5t52 -74.5t18.5 -98zM242 253q0 -35 16.5 -51.5t42.5 -16.5q23 0 40.5 11.5t29 30t17.5 41t6 43.5q0 35 -17 51.5t-42 16.5q-23 0 -40.5 -11.5t-29 -30t-17.5 -41t-6 -43.5z" />
    <glyph glyph-name="uni1ED0" unicode="&#x1ed0;" horiz-adv-x="788" 
d="M853 998l-208 -120l-66 93l203 134zM767 427q0 -96 -30 -175.5t-85.5 -137t-133 -89.5t-171.5 -32q-68 0 -123.5 21.5t-94.5 60.5t-60.5 93.5t-21.5 120.5q0 96 30 175.5t85 136t132 88t170 31.5q70 0 126 -21t95.5 -59.5t60.5 -92.5t21 -120zM265 317q0 -54 29 -85.5
t87 -31.5q40 0 71.5 16.5t53.5 44t33 63.5t11 75q0 54 -28.5 85t-85.5 31q-41 0 -72.5 -16t-53.5 -43.5t-33.5 -63.5t-11.5 -75zM345 742l-53 95l200 106l170 -106l-70 -95l-115 62z" />
    <glyph glyph-name="uni1ED1" unicode="&#x1ed1;" horiz-adv-x="636" 
d="M756 855l-208 -120l-66 93l203 134zM622 334q0 -75 -27 -137.5t-74.5 -108t-112.5 -70.5t-141 -25q-56 0 -102.5 16.5t-80 47.5t-52 74.5t-18.5 97.5q0 74 27 137t74.5 108.5t112.5 71t141 25.5q56 0 102.5 -17t80 -47.5t52 -74.5t18.5 -98zM242 253q0 -35 16.5 -51.5
t42.5 -16.5q23 0 40.5 11.5t29 30t17.5 41t6 43.5q0 35 -17 51.5t-42 16.5q-23 0 -40.5 -11.5t-29 -30t-17.5 -41t-6 -43.5zM248 599l-53 95l200 106l170 -106l-70 -95l-115 62z" />
    <glyph glyph-name="uni1ED2" unicode="&#x1ed2;" horiz-adv-x="788" 
d="M597 1105l158 -145l-79 -82l-169 126zM767 427q0 -96 -30 -175.5t-85.5 -137t-133 -89.5t-171.5 -32q-68 0 -123.5 21.5t-94.5 60.5t-60.5 93.5t-21.5 120.5q0 96 30 175.5t85 136t132 88t170 31.5q70 0 126 -21t95.5 -59.5t60.5 -92.5t21 -120zM265 317q0 -54 29 -85.5
t87 -31.5q40 0 71.5 16.5t53.5 44t33 63.5t11 75q0 54 -28.5 85t-85.5 31q-41 0 -72.5 -16t-53.5 -43.5t-33.5 -63.5t-11.5 -75zM345 742l-53 95l200 106l170 -106l-70 -95l-115 62z" />
    <glyph glyph-name="uni1ED3" unicode="&#x1ed3;" horiz-adv-x="636" 
d="M500 962l158 -145l-79 -82l-169 126zM622 334q0 -75 -27 -137.5t-74.5 -108t-112.5 -70.5t-141 -25q-56 0 -102.5 16.5t-80 47.5t-52 74.5t-18.5 97.5q0 74 27 137t74.5 108.5t112.5 71t141 25.5q56 0 102.5 -17t80 -47.5t52 -74.5t18.5 -98zM242 253q0 -35 16.5 -51.5
t42.5 -16.5q23 0 40.5 11.5t29 30t17.5 41t6 43.5q0 35 -17 51.5t-42 16.5q-23 0 -40.5 -11.5t-29 -30t-17.5 -41t-6 -43.5zM248 599l-53 95l200 106l170 -106l-70 -95l-115 62z" />
    <glyph glyph-name="uni1ED4" unicode="&#x1ed4;" horiz-adv-x="788" 
d="M602 940q29 10 44.5 21.5t18.5 28.5q1 25 -37 25q-9 0 -21 -1.5t-26 -6.5l14 90q21 8 43 12.5t40 4.5q25 0 47 -6t38 -18t24 -31.5t6 -46.5q-3 -39 -35 -76t-107 -58zM767 427q0 -96 -30 -175.5t-85.5 -137t-133 -89.5t-171.5 -32q-68 0 -123.5 21.5t-94.5 60.5
t-60.5 93.5t-21.5 120.5q0 96 30 175.5t85 136t132 88t170 31.5q70 0 126 -21t95.5 -59.5t60.5 -92.5t21 -120zM265 317q0 -54 29 -85.5t87 -31.5q40 0 71.5 16.5t53.5 44t33 63.5t11 75q0 54 -28.5 85t-85.5 31q-41 0 -72.5 -16t-53.5 -43.5t-33.5 -63.5t-11.5 -75z
M345 742l-53 95l200 106l170 -106l-70 -95l-115 62z" />
    <glyph glyph-name="uni1ED5" unicode="&#x1ed5;" horiz-adv-x="636" 
d="M505 797q29 10 44.5 21.5t18.5 28.5q1 25 -37 25q-9 0 -21 -1.5t-26 -6.5l14 90q21 8 43 12.5t40 4.5q25 0 47 -6t38 -18t24 -31.5t6 -46.5q-3 -39 -35 -76t-107 -58zM622 334q0 -75 -27 -137.5t-74.5 -108t-112.5 -70.5t-141 -25q-56 0 -102.5 16.5t-80 47.5t-52 74.5
t-18.5 97.5q0 74 27 137t74.5 108.5t112.5 71t141 25.5q56 0 102.5 -17t80 -47.5t52 -74.5t18.5 -98zM242 253q0 -35 16.5 -51.5t42.5 -16.5q23 0 40.5 11.5t29 30t17.5 41t6 43.5q0 35 -17 51.5t-42 16.5q-23 0 -40.5 -11.5t-29 -30t-17.5 -41t-6 -43.5zM248 599l-53 95
l200 106l170 -106l-70 -95l-115 62z" />
    <glyph glyph-name="uni1ED6" unicode="&#x1ed6;" horiz-adv-x="788" 
d="M307 961q11 78 47 117t84 39q27 0 43.5 -6.5t28 -15t20 -15t18.5 -6.5q9 0 17 7t12 33h116q-10 -78 -47 -116.5t-85 -38.5q-28 0 -44.5 6.5t-27.5 14t-18.5 14t-17.5 6.5q-9 0 -17 -6.5t-12 -32.5h-117zM767 427q0 -96 -30 -175.5t-85.5 -137t-133 -89.5t-171.5 -32
q-68 0 -123.5 21.5t-94.5 60.5t-60.5 93.5t-21.5 120.5q0 96 30 175.5t85 136t132 88t170 31.5q70 0 126 -21t95.5 -59.5t60.5 -92.5t21 -120zM265 317q0 -54 29 -85.5t87 -31.5q40 0 71.5 16.5t53.5 44t33 63.5t11 75q0 54 -28.5 85t-85.5 31q-41 0 -72.5 -16t-53.5 -43.5
t-33.5 -63.5t-11.5 -75zM345 742l-53 95l200 106l170 -106l-70 -95l-115 62z" />
    <glyph glyph-name="uni1ED7" unicode="&#x1ed7;" horiz-adv-x="636" 
d="M210 818q11 78 47 117t84 39q27 0 43.5 -6.5t28 -15t20 -15t18.5 -6.5q9 0 17 7t12 33h116q-10 -78 -47 -116.5t-85 -38.5q-28 0 -44.5 6.5t-27.5 14t-18.5 14t-17.5 6.5q-9 0 -17 -6.5t-12 -32.5h-117zM622 334q0 -75 -27 -137.5t-74.5 -108t-112.5 -70.5t-141 -25
q-56 0 -102.5 16.5t-80 47.5t-52 74.5t-18.5 97.5q0 74 27 137t74.5 108.5t112.5 71t141 25.5q56 0 102.5 -17t80 -47.5t52 -74.5t18.5 -98zM242 253q0 -35 16.5 -51.5t42.5 -16.5q23 0 40.5 11.5t29 30t17.5 41t6 43.5q0 35 -17 51.5t-42 16.5q-23 0 -40.5 -11.5t-29 -30
t-17.5 -41t-6 -43.5zM248 599l-53 95l200 106l170 -106l-70 -95l-115 62z" />
    <glyph glyph-name="uni1ED8" unicode="&#x1ed8;" horiz-adv-x="788" 
d="M310 -248q-50 0 -77 27.5t-23 67.5q3 39 33.5 67t80.5 28q49 0 75.5 -28t23.5 -67q-4 -40 -34 -67.5t-79 -27.5zM767 427q0 -96 -30 -175.5t-85.5 -137t-133 -89.5t-171.5 -32q-68 0 -123.5 21.5t-94.5 60.5t-60.5 93.5t-21.5 120.5q0 96 30 175.5t85 136t132 88
t170 31.5q70 0 126 -21t95.5 -59.5t60.5 -92.5t21 -120zM265 317q0 -54 29 -85.5t87 -31.5q40 0 71.5 16.5t53.5 44t33 63.5t11 75q0 54 -28.5 85t-85.5 31q-41 0 -72.5 -16t-53.5 -43.5t-33.5 -63.5t-11.5 -75zM345 742l-53 95l200 106l170 -106l-70 -95l-115 62z" />
    <glyph glyph-name="uni1ED9" unicode="&#x1ed9;" horiz-adv-x="636" 
d="M228 -248q-50 0 -77 27.5t-23 67.5q3 39 33.5 67t80.5 28q49 0 75.5 -28t23.5 -67q-4 -40 -34 -67.5t-79 -27.5zM622 334q0 -75 -27 -137.5t-74.5 -108t-112.5 -70.5t-141 -25q-56 0 -102.5 16.5t-80 47.5t-52 74.5t-18.5 97.5q0 74 27 137t74.5 108.5t112.5 71t141 25.5
q56 0 102.5 -17t80 -47.5t52 -74.5t18.5 -98zM242 253q0 -35 16.5 -51.5t42.5 -16.5q23 0 40.5 11.5t29 30t17.5 41t6 43.5q0 35 -17 51.5t-42 16.5q-23 0 -40.5 -11.5t-29 -30t-17.5 -41t-6 -43.5zM248 599l-53 95l200 106l170 -106l-70 -95l-115 62z" />
    <glyph glyph-name="uni1EDA" unicode="&#x1eda;" horiz-adv-x="788" 
d="M652 856l-240 -104l-57 104l236 117zM767 427q0 -96 -30 -175.5t-85.5 -137t-133 -89.5t-171.5 -32q-68 0 -123.5 21.5t-94.5 60.5t-60.5 93.5t-21.5 120.5q0 96 30 175.5t85 136t132 88t170 31.5q52 0 97 -12q37 2 65 25t37 75h175q-13 -73 -53.5 -115.5t-95.5 -57.5
q38 -38 58 -91t20 -117zM265 317q0 -54 29 -85.5t87 -31.5q40 0 71.5 16.5t53.5 44t33 63.5t11 75q0 54 -28.5 85t-85.5 31q-41 0 -72.5 -16t-53.5 -43.5t-33.5 -63.5t-11.5 -75z" />
    <glyph glyph-name="uni1EDB" unicode="&#x1edb;" horiz-adv-x="636" 
d="M555 713l-240 -104l-57 104l236 117zM622 334q0 -75 -27 -137.5t-74.5 -108t-112.5 -70.5t-141 -25q-56 0 -102.5 16.5t-80 47.5t-52 74.5t-18.5 97.5q0 74 27 137t74.5 108.5t112.5 71t141 25.5q17 0 34 -2t33 -5q36 2 63 25.5t36 74.5h175q-12 -72 -51.5 -114
t-93.5 -58q27 -30 42 -70t15 -88zM242 253q0 -35 16.5 -51.5t42.5 -16.5q23 0 40.5 11.5t29 30t17.5 41t6 43.5q0 35 -17 51.5t-42 16.5q-23 0 -40.5 -11.5t-29 -30t-17.5 -41t-6 -43.5z" />
    <glyph glyph-name="uni1EDC" unicode="&#x1edc;" horiz-adv-x="788" 
d="M391 973l206 -120l-68 -101l-213 107zM767 427q0 -96 -30 -175.5t-85.5 -137t-133 -89.5t-171.5 -32q-68 0 -123.5 21.5t-94.5 60.5t-60.5 93.5t-21.5 120.5q0 96 30 175.5t85 136t132 88t170 31.5q52 0 97 -12q37 2 65 25t37 75h175q-13 -73 -53.5 -115.5t-95.5 -57.5
q38 -38 58 -91t20 -117zM265 317q0 -54 29 -85.5t87 -31.5q40 0 71.5 16.5t53.5 44t33 63.5t11 75q0 54 -28.5 85t-85.5 31q-41 0 -72.5 -16t-53.5 -43.5t-33.5 -63.5t-11.5 -75z" />
    <glyph glyph-name="uni1EDD" unicode="&#x1edd;" horiz-adv-x="636" 
d="M309 830l206 -120l-68 -101l-213 107zM622 334q0 -75 -27 -137.5t-74.5 -108t-112.5 -70.5t-141 -25q-56 0 -102.5 16.5t-80 47.5t-52 74.5t-18.5 97.5q0 74 27 137t74.5 108.5t112.5 71t141 25.5q17 0 34 -2t33 -5q36 2 63 25.5t36 74.5h175q-12 -72 -51.5 -114
t-93.5 -58q27 -30 42 -70t15 -88zM242 253q0 -35 16.5 -51.5t42.5 -16.5q23 0 40.5 11.5t29 30t17.5 41t6 43.5q0 35 -17 51.5t-42 16.5q-23 0 -40.5 -11.5t-29 -30t-17.5 -41t-6 -43.5z" />
    <glyph glyph-name="uni1EDE" unicode="&#x1ede;" horiz-adv-x="788" 
d="M447 814q29 10 44.5 21.5t18.5 28.5q1 25 -37 25q-9 0 -21 -1.5t-26 -6.5l14 90q21 8 43 12.5t40 4.5q25 0 47 -6t38 -18t24 -31.5t6 -46.5q-3 -39 -35 -76t-107 -58zM767 427q0 -96 -30 -175.5t-85.5 -137t-133 -89.5t-171.5 -32q-68 0 -123.5 21.5t-94.5 60.5
t-60.5 93.5t-21.5 120.5q0 96 30 175.5t85 136t132 88t170 31.5q52 0 97 -12q37 2 65 25t37 75h175q-13 -73 -53.5 -115.5t-95.5 -57.5q38 -38 58 -91t20 -117zM265 317q0 -54 29 -85.5t87 -31.5q40 0 71.5 16.5t53.5 44t33 63.5t11 75q0 54 -28.5 85t-85.5 31
q-41 0 -72.5 -16t-53.5 -43.5t-33.5 -63.5t-11.5 -75z" />
    <glyph glyph-name="uni1EDF" unicode="&#x1edf;" horiz-adv-x="636" 
d="M346 671q29 10 44.5 21.5t18.5 28.5q1 25 -37 25q-9 0 -21 -1.5t-26 -6.5l14 90q21 8 43 12.5t40 4.5q25 0 47 -6t38 -18t24 -31.5t6 -46.5q-3 -39 -35 -76t-107 -58zM622 334q0 -75 -27 -137.5t-74.5 -108t-112.5 -70.5t-141 -25q-56 0 -102.5 16.5t-80 47.5t-52 74.5
t-18.5 97.5q0 74 27 137t74.5 108.5t112.5 71t141 25.5q17 0 34 -2t33 -5q36 2 63 25.5t36 74.5h175q-12 -72 -51.5 -114t-93.5 -58q27 -30 42 -70t15 -88zM242 253q0 -35 16.5 -51.5t42.5 -16.5q23 0 40.5 11.5t29 30t17.5 41t6 43.5q0 35 -17 51.5t-42 16.5
q-23 0 -40.5 -11.5t-29 -30t-17.5 -41t-6 -43.5z" />
    <glyph glyph-name="uni1EE0" unicode="&#x1ee0;" horiz-adv-x="788" 
d="M287 754q11 78 47 117t84 39q27 0 43.5 -6.5t28 -15t20 -15t18.5 -6.5q9 0 17 7t12 33h116q-10 -78 -47 -116.5t-85 -38.5q-28 0 -44.5 6.5t-27.5 14t-18.5 14t-17.5 6.5q-9 0 -17 -6.5t-12 -32.5h-117zM767 427q0 -96 -30 -175.5t-85.5 -137t-133 -89.5t-171.5 -32
q-68 0 -123.5 21.5t-94.5 60.5t-60.5 93.5t-21.5 120.5q0 96 30 175.5t85 136t132 88t170 31.5q52 0 97 -12q37 2 65 25t37 75h175q-13 -73 -53.5 -115.5t-95.5 -57.5q38 -38 58 -91t20 -117zM265 317q0 -54 29 -85.5t87 -31.5q40 0 71.5 16.5t53.5 44t33 63.5t11 75
q0 54 -28.5 85t-85.5 31q-41 0 -72.5 -16t-53.5 -43.5t-33.5 -63.5t-11.5 -75z" />
    <glyph glyph-name="uni1EE1" unicode="&#x1ee1;" horiz-adv-x="636" 
d="M166 611q11 78 46 117t83 39q26 0 42 -6.5t27.5 -15t20 -15t18.5 -6.5q8 0 16 7t12 33h114q-10 -78 -46.5 -116.5t-83.5 -38.5q-27 0 -43.5 6.5t-27 14t-18 14t-17.5 6.5q-8 0 -16 -6.5t-12 -32.5h-115zM622 334q0 -75 -27 -137.5t-74.5 -108t-112.5 -70.5t-141 -25
q-56 0 -102.5 16.5t-80 47.5t-52 74.5t-18.5 97.5q0 74 27 137t74.5 108.5t112.5 71t141 25.5q17 0 34 -2t33 -5q36 2 63 25.5t36 74.5h175q-12 -72 -51.5 -114t-93.5 -58q27 -30 42 -70t15 -88zM242 253q0 -35 16.5 -51.5t42.5 -16.5q23 0 40.5 11.5t29 30t17.5 41t6 43.5
q0 35 -17 51.5t-42 16.5q-23 0 -40.5 -11.5t-29 -30t-17.5 -41t-6 -43.5z" />
    <glyph glyph-name="uni1EE2" unicode="&#x1ee2;" horiz-adv-x="788" 
d="M310 -248q-50 0 -77 27.5t-23 67.5q3 39 33.5 67t80.5 28q49 0 75.5 -28t23.5 -67q-4 -40 -34 -67.5t-79 -27.5zM767 427q0 -96 -30 -175.5t-85.5 -137t-133 -89.5t-171.5 -32q-68 0 -123.5 21.5t-94.5 60.5t-60.5 93.5t-21.5 120.5q0 96 30 175.5t85 136t132 88
t170 31.5q52 0 97 -12q37 2 65 25t37 75h175q-13 -73 -53.5 -115.5t-95.5 -57.5q38 -38 58 -91t20 -117zM265 317q0 -54 29 -85.5t87 -31.5q40 0 71.5 16.5t53.5 44t33 63.5t11 75q0 54 -28.5 85t-85.5 31q-41 0 -72.5 -16t-53.5 -43.5t-33.5 -63.5t-11.5 -75z" />
    <glyph glyph-name="uni1EE3" unicode="&#x1ee3;" horiz-adv-x="636" 
d="M228 -248q-50 0 -77 27.5t-23 67.5q3 39 33.5 67t80.5 28q49 0 75.5 -28t23.5 -67q-4 -40 -34 -67.5t-79 -27.5zM622 334q0 -75 -27 -137.5t-74.5 -108t-112.5 -70.5t-141 -25q-56 0 -102.5 16.5t-80 47.5t-52 74.5t-18.5 97.5q0 74 27 137t74.5 108.5t112.5 71t141 25.5
q17 0 34 -2t33 -5q36 2 63 25.5t36 74.5h175q-12 -72 -51.5 -114t-93.5 -58q27 -30 42 -70t15 -88zM242 253q0 -35 16.5 -51.5t42.5 -16.5q23 0 40.5 11.5t29 30t17.5 41t6 43.5q0 35 -17 51.5t-42 16.5q-23 0 -40.5 -11.5t-29 -30t-17.5 -41t-6 -43.5z" />
    <glyph glyph-name="uni1EE4" unicode="&#x1ee4;" horiz-adv-x="719" 
d="M258 -248q-50 0 -77 27.5t-23 67.5q3 39 33.5 67t80.5 28q49 0 75.5 -28t23.5 -67q-4 -40 -34 -67.5t-79 -27.5zM121 708h221l-70 -399q-8 -46 7 -76t65 -30q51 0 78 30t35 76l70 399h221l-70 -399q-14 -81 -48.5 -140.5t-84 -98.5t-111 -58t-129.5 -19q-66 0 -119.5 20
t-88 59.5t-47.5 99t1 137.5z" />
    <glyph glyph-name="uni1EE5" unicode="&#x1ee5;" horiz-adv-x="697" 
d="M268 -248q-50 0 -77 27.5t-23 67.5q3 39 33.5 67t80.5 28q49 0 75.5 -28t23.5 -67q-4 -40 -34 -67.5t-79 -27.5zM597 0h-222l15 85q-30 -36 -77.5 -62.5t-110.5 -26.5q-49 0 -84.5 17t-56.5 48.5t-27 76t4 99.5l58 327h221l-53 -299q-8 -41 10 -64t54 -23q37 0 61.5 23
t32.5 63l53 300h222z" />
    <glyph glyph-name="uni1EE6" unicode="&#x1ee6;" horiz-adv-x="719" 
d="M410 814q29 10 44.5 21.5t18.5 28.5q1 25 -37 25q-9 0 -21 -1.5t-26 -6.5l14 90q21 8 43 12.5t40 4.5q25 0 47 -6t38 -18t24 -31.5t6 -46.5q-3 -39 -35 -76t-107 -58zM121 708h221l-70 -399q-8 -46 7 -76t65 -30q51 0 78 30t35 76l70 399h221l-70 -399
q-14 -81 -48.5 -140.5t-84 -98.5t-111 -58t-129.5 -19q-66 0 -119.5 20t-88 59.5t-47.5 99t1 137.5z" />
    <glyph glyph-name="uni1EE7" unicode="&#x1ee7;" horiz-adv-x="697" 
d="M358 671q29 10 44.5 21.5t18.5 28.5q1 25 -37 25q-9 0 -21 -1.5t-26 -6.5l14 90q21 8 43 12.5t40 4.5q25 0 47 -6t38 -18t24 -31.5t6 -46.5q-3 -39 -35 -76t-107 -58zM597 0h-222l15 85q-30 -36 -77.5 -62.5t-110.5 -26.5q-49 0 -84.5 17t-56.5 48.5t-27 76t4 99.5
l58 327h221l-53 -299q-8 -41 10 -64t54 -23q37 0 61.5 23t32.5 63l53 300h222z" />
    <glyph glyph-name="uni1EE8" unicode="&#x1ee8;" horiz-adv-x="719" 
d="M650 856l-240 -104l-57 104l236 117zM121 708h221l-70 -399q-8 -46 7 -76t65 -30q51 0 78 30t35 76l70 399h36q39 0 69 23t39 77h175q-10 -59 -39 -98t-69 -59l-60 -342q-14 -81 -48.5 -140.5t-84 -98.5t-111 -58t-129.5 -19q-66 0 -119.5 20t-88 59.5t-47.5 99t1 137.5z
" />
    <glyph glyph-name="uni1EE9" unicode="&#x1ee9;" horiz-adv-x="697" 
d="M609 713l-240 -104l-57 104l236 117zM795 664q-11 -60 -39.5 -98.5t-68.5 -59.5l-90 -506h-222l15 85q-30 -36 -77.5 -62.5t-110.5 -26.5q-49 0 -84.5 17t-56.5 48.5t-27 76t4 99.5l58 327h221l-53 -299q-8 -41 10 -64t54 -23q37 0 61.5 23t32.5 63l53 300h37q39 0 69 23
t39 77h175z" />
    <glyph glyph-name="uni1EEA" unicode="&#x1eea;" horiz-adv-x="719" 
d="M353 973l206 -120l-68 -101l-213 107zM121 708h221l-70 -399q-8 -46 7 -76t65 -30q51 0 78 30t35 76l70 399h36q39 0 69 23t39 77h175q-10 -59 -39 -98t-69 -59l-60 -342q-14 -81 -48.5 -140.5t-84 -98.5t-111 -58t-129.5 -19q-66 0 -119.5 20t-88 59.5t-47.5 99t1 137.5
z" />
    <glyph glyph-name="uni1EEB" unicode="&#x1eeb;" horiz-adv-x="697" 
d="M309 830l206 -120l-68 -101l-213 107zM795 664q-11 -60 -39.5 -98.5t-68.5 -59.5l-90 -506h-222l15 85q-30 -36 -77.5 -62.5t-110.5 -26.5q-49 0 -84.5 17t-56.5 48.5t-27 76t4 99.5l58 327h221l-53 -299q-8 -41 10 -64t54 -23q37 0 61.5 23t32.5 63l53 300h37
q39 0 69 23t39 77h175z" />
    <glyph glyph-name="uni1EEC" unicode="&#x1eec;" horiz-adv-x="719" 
d="M410 814q29 10 44.5 21.5t18.5 28.5q1 25 -37 25q-9 0 -21 -1.5t-26 -6.5l14 90q21 8 43 12.5t40 4.5q25 0 47 -6t38 -18t24 -31.5t6 -46.5q-3 -39 -35 -76t-107 -58zM121 708h221l-70 -399q-8 -46 7 -76t65 -30q51 0 78 30t35 76l70 399h36q39 0 69 23t39 77h175
q-10 -59 -39 -98t-69 -59l-60 -342q-14 -81 -48.5 -140.5t-84 -98.5t-111 -58t-129.5 -19q-66 0 -119.5 20t-88 59.5t-47.5 99t1 137.5z" />
    <glyph glyph-name="uni1EED" unicode="&#x1eed;" horiz-adv-x="697" 
d="M358 671q29 10 44.5 21.5t18.5 28.5q1 25 -37 25q-9 0 -21 -1.5t-26 -6.5l14 90q21 8 43 12.5t40 4.5q25 0 47 -6t38 -18t24 -31.5t6 -46.5q-3 -39 -35 -76t-107 -58zM795 664q-11 -60 -39.5 -98.5t-68.5 -59.5l-90 -506h-222l15 85q-30 -36 -77.5 -62.5t-110.5 -26.5
q-49 0 -84.5 17t-56.5 48.5t-27 76t4 99.5l58 327h221l-53 -299q-8 -41 10 -64t54 -23q37 0 61.5 23t32.5 63l53 300h37q39 0 69 23t39 77h175z" />
    <glyph glyph-name="uni1EEE" unicode="&#x1eee;" horiz-adv-x="719" 
d="M253 754q11 78 47 117t84 39q27 0 43.5 -6.5t28 -15t20 -15t18.5 -6.5q9 0 17 7t12 33h116q-10 -78 -47 -116.5t-85 -38.5q-28 0 -44.5 6.5t-27.5 14t-18.5 14t-17.5 6.5q-9 0 -17 -6.5t-12 -32.5h-117zM121 708h221l-70 -399q-8 -46 7 -76t65 -30q51 0 78 30t35 76
l70 399h36q39 0 69 23t39 77h175q-10 -59 -39 -98t-69 -59l-60 -342q-14 -81 -48.5 -140.5t-84 -98.5t-111 -58t-129.5 -19q-66 0 -119.5 20t-88 59.5t-47.5 99t1 137.5z" />
    <glyph glyph-name="uni1EEF" unicode="&#x1eef;" horiz-adv-x="697" 
d="M219 611q11 78 47 117t84 39q27 0 43.5 -6.5t28 -15t20 -15t18.5 -6.5q9 0 17 7t12 33h116q-10 -78 -47 -116.5t-85 -38.5q-28 0 -44.5 6.5t-27.5 14t-18.5 14t-17.5 6.5q-9 0 -17 -6.5t-12 -32.5h-117zM795 664q-11 -60 -39.5 -98.5t-68.5 -59.5l-90 -506h-222l15 85
q-30 -36 -77.5 -62.5t-110.5 -26.5q-49 0 -84.5 17t-56.5 48.5t-27 76t4 99.5l58 327h221l-53 -299q-8 -41 10 -64t54 -23q37 0 61.5 23t32.5 63l53 300h37q39 0 69 23t39 77h175z" />
    <glyph glyph-name="uni1EF0" unicode="&#x1ef0;" horiz-adv-x="719" 
d="M258 -248q-50 0 -77 27.5t-23 67.5q3 39 33.5 67t80.5 28q49 0 75.5 -28t23.5 -67q-4 -40 -34 -67.5t-79 -27.5zM121 708h221l-70 -399q-8 -46 7 -76t65 -30q51 0 78 30t35 76l70 399h36q39 0 69 23t39 77h175q-10 -59 -39 -98t-69 -59l-60 -342q-14 -81 -48.5 -140.5
t-84 -98.5t-111 -58t-129.5 -19q-66 0 -119.5 20t-88 59.5t-47.5 99t1 137.5z" />
    <glyph glyph-name="uni1EF1" unicode="&#x1ef1;" horiz-adv-x="697" 
d="M268 -248q-50 0 -77 27.5t-23 67.5q3 39 33.5 67t80.5 28q49 0 75.5 -28t23.5 -67q-4 -40 -34 -67.5t-79 -27.5zM795 664q-11 -60 -39.5 -98.5t-68.5 -59.5l-90 -506h-222l15 85q-30 -36 -77.5 -62.5t-110.5 -26.5q-49 0 -84.5 17t-56.5 48.5t-27 76t4 99.5l58 327h221
l-53 -299q-8 -41 10 -64t54 -23q37 0 61.5 23t32.5 63l53 300h37q39 0 69 23t39 77h175z" />
    <glyph glyph-name="Ygrave" unicode="&#x1ef2;" horiz-adv-x="730" 
d="M75 708h254l69 -251l157 251h250l-341 -493l-38 -215h-222l38 215zM339 973l206 -120l-68 -101l-213 107z" />
    <glyph glyph-name="ygrave" unicode="&#x1ef3;" horiz-adv-x="677" 
d="M40 564h247l55 -286l150 286h245l-508 -834h-243l194 298zM297 830l206 -120l-68 -101l-213 107z" />
    <glyph glyph-name="uni1EF4" unicode="&#x1ef4;" horiz-adv-x="730" 
d="M282 -248q-50 0 -77 27.5t-23 67.5q3 39 33.5 67t80.5 28q49 0 75.5 -28t23.5 -67q-4 -40 -34 -67.5t-79 -27.5zM75 708h254l69 -251l157 251h250l-341 -493l-38 -215h-222l38 215z" />
    <glyph glyph-name="uni1EF5" unicode="&#x1ef5;" horiz-adv-x="677" 
d="M485 -248q-50 0 -77 27.5t-23 67.5q3 39 33.5 67t80.5 28q49 0 75.5 -28t23.5 -67q-4 -40 -34 -67.5t-79 -27.5zM40 564h247l55 -286l150 286h245l-508 -834h-243l194 298z" />
    <glyph glyph-name="uni1EF6" unicode="&#x1ef6;" horiz-adv-x="730" 
d="M403 814q29 10 44.5 21.5t18.5 28.5q1 25 -37 25q-9 0 -21 -1.5t-26 -6.5l14 90q21 8 43 12.5t40 4.5q25 0 47 -6t38 -18t24 -31.5t6 -46.5q-3 -39 -35 -76t-107 -58zM75 708h254l69 -251l157 251h250l-341 -493l-38 -215h-222l38 215z" />
    <glyph glyph-name="uni1EF7" unicode="&#x1ef7;" horiz-adv-x="677" 
d="M349 671q29 10 44.5 21.5t18.5 28.5q1 25 -37 25q-9 0 -21 -1.5t-26 -6.5l14 90q21 8 43 12.5t40 4.5q25 0 47 -6t38 -18t24 -31.5t6 -46.5q-3 -39 -35 -76t-107 -58zM40 564h247l55 -286l150 286h245l-508 -834h-243l194 298z" />
    <glyph glyph-name="uni1EF8" unicode="&#x1ef8;" horiz-adv-x="730" 
d="M257 754q11 78 47 117t84 39q27 0 43.5 -6.5t28 -15t20 -15t18.5 -6.5q9 0 17 7t12 33h116q-10 -78 -47 -116.5t-85 -38.5q-28 0 -44.5 6.5t-27.5 14t-18.5 14t-17.5 6.5q-9 0 -17 -6.5t-12 -32.5h-117zM75 708h254l69 -251l157 251h250l-341 -493l-38 -215h-222l38 215z
" />
    <glyph glyph-name="uni1EF9" unicode="&#x1ef9;" horiz-adv-x="677" 
d="M202 611q11 78 47 117t84 39q27 0 43.5 -6.5t28 -15t20 -15t18.5 -6.5q9 0 17 7t12 33h116q-10 -78 -47 -116.5t-85 -38.5q-28 0 -44.5 6.5t-27.5 14t-18.5 14t-17.5 6.5q-9 0 -17 -6.5t-12 -32.5h-117zM40 564h247l55 -286l150 286h245l-508 -834h-243l194 298z" />
    <glyph glyph-name="endash" unicode="&#x2013;" horiz-adv-x="683" 
d="M82 433h573l-33 -183h-573z" />
    <glyph glyph-name="emdash" unicode="&#x2014;" horiz-adv-x="936" 
d="M82 433h826l-33 -183h-826z" />
    <glyph glyph-name="quoteleft" unicode="&#x2018;" horiz-adv-x="378" 
d="M389 708l-96 -295h-220l170 295h146z" />
    <glyph glyph-name="quoteright" unicode="&#x2019;" horiz-adv-x="378" 
d="M87 413l96 295h220l-170 -295h-146z" />
    <glyph glyph-name="quotesinglbase" unicode="&#x201a;" horiz-adv-x="362" 
d="M-11 -107l96 295h220l-170 -295h-146z" />
    <glyph glyph-name="quotedblleft" unicode="&#x201c;" horiz-adv-x="660" 
d="M389 708l-96 -295h-220l170 295h146zM671 708l-96 -295h-220l170 295h146z" />
    <glyph glyph-name="quotedblright" unicode="&#x201d;" horiz-adv-x="660" 
d="M369 413l96 295h220l-170 -295h-146zM87 413l96 295h220l-170 -295h-146z" />
    <glyph glyph-name="quotedblbase" unicode="&#x201e;" horiz-adv-x="631" 
d="M-11 -107l96 295h220l-170 -295h-146zM257 -107l96 295h220l-170 -295h-146z" />
    <glyph glyph-name="dagger" unicode="&#x2020;" horiz-adv-x="717" 
d="M716 564l-30 -166l-216 15l-98 -683h-222l141 683l-220 -15l30 166l214 -15l22 245h222l-65 -245z" />
    <glyph glyph-name="daggerdbl" unicode="&#x2021;" horiz-adv-x="716" 
d="M686 398l-216 15l-53 -302l222 16l-30 -167l-216 15l-22 -245h-222l65 245l-221 -15l30 167l215 -16l53 302l-221 -15l30 166l215 -15l21 245h222l-64 -245l222 15z" />
    <glyph glyph-name="bullet" unicode="&#x2022;" horiz-adv-x="536" 
d="M248 166q-35 0 -63.5 13t-47.5 35.5t-26.5 53t-1.5 65.5q6 36 24.5 66.5t45.5 53.5t60 36t68 13q36 0 64 -13t47 -36t26 -53.5t1 -66.5q-6 -35 -24.5 -65.5t-45 -53t-59 -35.5t-68.5 -13z" />
    <glyph glyph-name="ellipsis" unicode="&#x2026;" horiz-adv-x="869" 
d="M530 101q-4 -23 -16.5 -43t-31.5 -34.5t-44 -23t-54 -8.5q-60 0 -88.5 31.5t-20.5 77.5q8 47 48 79t100 32q59 0 87 -32t20 -79zM805 101q-4 -23 -16.5 -43t-31.5 -34.5t-44 -23t-54 -8.5q-60 0 -88.5 31.5t-20.5 77.5q8 47 48 79t100 32q59 0 87 -32t20 -79zM255 101
q-4 -23 -16.5 -43t-31.5 -34.5t-44 -23t-54 -8.5q-60 0 -88.5 31.5t-20.5 77.5q8 47 48 79t100 32q59 0 87 -32t20 -79z" />
    <glyph glyph-name="perthousand" unicode="&#x2030;" horiz-adv-x="1284" 
d="M65 540q8 46 28 80t48 56.5t63 33.5t74 11q38 0 69 -11t51 -33.5t27.5 -56.5t-0.5 -80q-8 -45 -27.5 -79t-47 -56.5t-62.5 -33.5t-73 -11q-39 0 -70 11t-51.5 33.5t-28.5 56.5t0 79zM254 592q-34 0 -44 -52q-9 -51 25 -51q37 0 46 51q10 52 -27 52zM605 711h212
l-499 -711h-212zM497 171q8 46 28 80t48 56.5t63 33.5t73 11q39 0 69.5 -11t50.5 -33.5t27.5 -56.5t-0.5 -80t-27.5 -80t-47 -56.5t-62 -33.5t-73.5 -11q-38 0 -69 11t-51.5 33.5t-28.5 56.5t0 80zM686 223q-36 0 -45 -52t26 -52q17 0 28.5 13t16.5 39q9 52 -26 52zM884 171
q8 46 28 80t48 56.5t63 33.5t74 11q38 0 69 -11t51 -33.5t27.5 -56.5t-0.5 -80t-27.5 -80t-47 -56.5t-62.5 -33.5t-73 -11q-39 0 -70 11t-51.5 33.5t-28.5 56.5t0 80zM1073 223q-35 0 -44 -52t25 -52q37 0 46 52t-27 52z" />
    <glyph glyph-name="guilsinglleft" unicode="&#x2039;" horiz-adv-x="373" 
d="M294 120h-201l-46 175l108 175h201l-110 -175z" />
    <glyph glyph-name="guilsinglright" unicode="&#x203a;" horiz-adv-x="373" 
d="M21 120l111 175l-49 175h202l45 -175l-107 -175h-202z" />
    <glyph glyph-name="fraction" unicode="&#x2044;" horiz-adv-x="555" 
d="M422 711h212l-499 -711h-212z" />
    <glyph glyph-name="uni20A8" unicode="&#x20a8;" horiz-adv-x="1229" 
d="M456 462q5 27 -8.5 43.5t-45.5 16.5h-88l-21 -120h88q32 0 50.5 14t24.5 46zM455 708q67 0 114 -18t75.5 -49.5t38 -73.5t0.5 -91q-13 -70 -61 -125t-129 -80l107 -271h-244l-89 254l-45 -254h-222l125 708h330zM694 393q6 36 27 68.5t56 56.5t83 38.5t108 14.5
q64 0 111 -15.5t77 -42.5t45 -64t16 -80h-217q-2 22 -21 30t-43 8q-20 0 -33 -5t-15 -17q-3 -15 21 -22.5t60.5 -14.5t78.5 -16t76.5 -27.5t54 -49.5t10.5 -82q-7 -38 -28 -70.5t-55.5 -57t-81 -38.5t-103.5 -14q-125 0 -191 51.5t-65 150.5h217q-1 -12 4.5 -19.5t15 -12
t21.5 -6t24 -1.5q23 0 32 6t11 16q2 13 -11 20t-36 12t-52 9.5t-59 12t-58 18.5t-48 29.5t-29.5 46t-2.5 67.5z" />
    <glyph glyph-name="Euro" unicode="&#x20ac;" horiz-adv-x="790" 
d="M80 355q1 4 1.5 8t1.5 8h-52l17 100h67q25 55 62.5 100.5t85.5 77t106 49t124 17.5q70 0 125 -20t92.5 -57t57 -88t19.5 -114h-234q-10 35 -36 54.5t-64 19.5q-54 0 -93 -39h124l-17 -100h-159q-1 -4 -1.5 -8t-1.5 -8q-1 -3 -1 -6t-1 -6h159l-18 -99h-127q25 -44 82 -44
q38 0 70.5 19.5t55.5 54.5h234q-22 -63 -60 -114t-88.5 -88t-112.5 -57t-132 -20q-66 0 -118.5 18t-89.5 50.5t-58.5 78.5t-25.5 102h-66l18 99h52q1 3 1 6t1 6z" />
    <glyph glyph-name="uni20B9" unicode="&#x20b9;" horiz-adv-x="577" 
d="M105 708h517l-25 -145h-58l-6 -33h58l-22 -124h-63q-14 -37 -38.5 -70.5t-59 -58.5t-79.5 -39.5t-102 -14.5l-4 -19q-4 -22 1 -35.5t25 -13.5t28.5 13t13.5 43h205q-11 -48 -33 -89t-55 -70t-77.5 -45.5t-100.5 -16.5q-59 0 -103 14t-71 44.5t-36 78t3 115.5l22 123
q66 0 110.5 1t73 5t44.5 12.5t25 22.5h-246l22 124h252l6 33h-252z" />
    <glyph glyph-name="uni20BA" unicode="&#x20ba;" horiz-adv-x="819" 
d="M390 572l111 16l-23 -129l-110 -15l-6 -34l114 16l-23 -130l-114 -15l-12 -68q20 -5 39 -6t38 -1q63 0 101.5 24.5t61 63.5t33 88t19.5 99h225q-23 -129 -59.5 -220.5t-93 -150t-135.5 -85.5t-187 -27q-69 0 -143 9t-156 24l38 218l-106 -14l22 129l107 15l6 33l-107 -15
l22 125l107 16l31 174h225z" />
    <glyph glyph-name="uni20BD" unicode="&#x20bd;" horiz-adv-x="709" 
d="M359 432h73q29 0 46 15t22 40q4 21 -7.5 38t-40.5 17h-74zM36 432h100l49 276h310q67 0 114.5 -16.5t76 -46t38.5 -70.5t1 -89t-33 -89t-63 -70.5t-92 -46t-120 -16.5h-88l-8 -41h115l-29 -165h-115l-10 -58h-222l10 58h-99l29 165h99l8 41h-100z" />
    <glyph glyph-name="uni2113" unicode="&#x2113;" horiz-adv-x="322" 
d="M131 740h222l-131 -740h-222z" />
    <glyph glyph-name="trademark" unicode="&#x2122;" horiz-adv-x="947" 
d="M105 708h326l-22 -127h-86l-40 -223h-154l40 223h-86zM476 708h211l22 -157l91 157h192l-62 -350h-141l27 168l-98 -168h-103l-35 179l-32 -179h-134z" />
    <glyph glyph-name="uni2126" unicode="&#x2126;" horiz-adv-x="791" 
d="M52 387q14 81 53 143t95.5 104t126.5 64t146 22t138 -22t104 -64t59.5 -104t3.5 -143q-11 -65 -37.5 -120t-82.5 -100h81l-30 -167h-267l31 172q27 46 45 88t28 95q27 160 -109 160q-66 0 -109 -40t-57 -120q-10 -53 -5.5 -95t15.5 -88l-31 -172h-267l30 167h81
q-40 45 -46.5 100t4.5 120z" />
    <glyph glyph-name="estimated" unicode="&#x212e;" horiz-adv-x="740" 
d="M657 133q-76 -69 -157 -104.5t-172 -35.5q-75 0 -135.5 23t-99.5 67.5t-54.5 109t-0.5 147.5q14 81 49 150.5t87.5 120.5t121 80.5t151.5 29.5q82 0 141.5 -28t95 -74t47.5 -106.5t1 -124.5l-12 -64h-460l-32 -184q29 -11 60 -17t62 -6q70 0 132 25.5t119 73.5zM516 427
l28 159q-24 10 -54 13.5t-63 3.5q-38 0 -66.5 -6.5t-54.5 -14.5l-27 -155h237z" />
    <glyph glyph-name="partialdiff" unicode="&#x2202;" horiz-adv-x="642" 
d="M383 311q6 35 -7 50.5t-33 15.5q-39 0 -60.5 -30.5t-30.5 -79.5q-8 -44 6 -62.5t36 -18.5q37 0 57.5 33t31.5 92zM27 266q13 71 44.5 126t75 92.5t96.5 57t109 19.5q28 0 54.5 -7t43.5 -27q-9 44 -39 67t-100 23q-25 0 -53 -3l18 107q76 19 138 19q69 0 117.5 -23.5
t75.5 -68t33.5 -107t-7.5 -140.5q-17 -96 -51.5 -171.5t-84.5 -128t-115 -80t-142 -27.5q-53 0 -97 16.5t-74 50t-42 85t0 120.5z" />
    <glyph glyph-name="uni2206" unicode="&#x2206;" horiz-adv-x="770" 
d="M372 711h179l179 -543l-30 -168h-730l30 168zM417 460l-188 -292h272z" />
    <glyph glyph-name="product" unicode="&#x220f;" horiz-adv-x="753" 
d="M86 711h733l-30 -166h-65l-96 -545h-222l96 545h-159l-96 -545h-222l96 545h-65z" />
    <glyph glyph-name="summation" unicode="&#x2211;" horiz-adv-x="586" 
d="M116 711h506l-30 -167h-271l179 -109l-29 -167l-245 -145h292l-30 -168h-506l46 259l241 132l-199 107z" />
    <glyph glyph-name="minus" unicode="&#x2212;" horiz-adv-x="506" 
d="M47 433h466l-33 -183h-466z" />
    <glyph glyph-name="uni2215" unicode="&#x2215;" horiz-adv-x="399" 
d="M349 955h212l-469 -1153h-213z" />
    <glyph glyph-name="uni2219" unicode="&#x2219;" horiz-adv-x="349" 
d="M270 296q-4 -23 -16.5 -43t-31.5 -34.5t-44 -23t-54 -8.5q-60 0 -88.5 31.5t-20.5 77.5q8 47 48 79t100 32q59 0 87 -32t20 -79z" />
    <glyph glyph-name="radical" unicode="&#x221a;" horiz-adv-x="1020" 
d="M281 -40l-113 295l-102 -54l-44 100l321 171l101 -265l539 720h124l-721 -967h-105z" />
    <glyph glyph-name="infinity" unicode="&#x221e;" horiz-adv-x="844" 
d="M251 303q20 0 42.5 8t43.5 27q-16 24 -32 39.5t-38 15.5q-19 0 -33 -11.5t-19 -34.5q-4 -22 6.5 -33t29.5 -11zM601 303q19 0 33.5 11.5t18.5 33.5q4 23 -6.5 34t-29.5 11q-23 0 -48.5 -11t-48.5 -35q14 -20 33 -32t48 -12zM44 347q8 45 29.5 80t52.5 59t68.5 36.5
t76.5 12.5q38 0 67 -7t51 -19.5t38.5 -28.5t29.5 -34q39 41 90.5 65.5t110.5 23.5q95 -1 138.5 -49t27.5 -138q-8 -44 -29.5 -79t-52.5 -59t-68.5 -37t-77.5 -13q-71 0 -116.5 24t-75.5 58q-38 -38 -88 -60.5t-107 -21.5q-94 1 -137 49.5t-28 137.5z" />
    <glyph glyph-name="integral" unicode="&#x222b;" horiz-adv-x="312" 
d="M167 746q18 64 49 105t71 65t86.5 33t96.5 9h13l-51 -190h-18q-10 0 -16.5 -6.5t-9.5 -15.5l-233 -844q-18 -64 -49 -105t-71 -65t-87 -33t-96 -9h-13l51 190h17q11 0 17.5 6.5t9.5 15.5z" />
    <glyph glyph-name="approxequal" unicode="&#x2248;" horiz-adv-x="711" 
d="M2 70q24 70 54.5 120.5t66.5 82t76.5 46.5t84.5 15q36 0 63.5 -10.5t50.5 -23t43 -23t42 -10.5q27 0 43 15.5t28 53.5h166q-23 -71 -54 -121t-67 -81.5t-77 -46.5t-84 -15q-36 0 -63.5 10.5t-50.5 23t-43.5 23t-42.5 10.5q-27 0 -43 -16t-29 -53h-164zM2 345
q24 70 54.5 120.5t66.5 82t76.5 46.5t84.5 15q36 0 63.5 -10.5t50.5 -23t43 -23t42 -10.5q27 0 43 15.5t28 53.5h166q-23 -71 -54 -121t-67 -81.5t-77 -46.5t-84 -15q-36 0 -63.5 10.5t-50.5 23t-43.5 23t-42.5 10.5q-27 0 -43 -16t-29 -53h-164z" />
    <glyph glyph-name="notequal" unicode="&#x2260;" horiz-adv-x="626" 
d="M59 99h-71l35 201h213l69 79h-268l36 201h409l88 100h106l-88 -100h71l-36 -201h-211l-70 -79h267l-35 -201h-408l-88 -100h-107z" />
    <glyph glyph-name="lessequal" unicode="&#x2264;" horiz-adv-x="492" 
d="M185 195l-149 180l212 181h272l-211 -181l148 -180h-272zM18 111h424l-30 -171h-424z" />
    <glyph glyph-name="greaterequal" unicode="&#x2265;" horiz-adv-x="492" 
d="M5 195l211 180l-148 181h272l148 -181l-211 -180h-272zM414 111l-30 -171h-424l30 171h424z" />
    <glyph glyph-name="lozenge" unicode="&#x25ca;" horiz-adv-x="572" 
d="M348 630l227 -275l-324 -276l-228 276zM312 423l-81 -68l57 -69l80 69z" />
    <glyph glyph-name="fi" unicode="&#xfb01;" horiz-adv-x="712" 
d="M87 379h-60l33 185h60q23 121 109.5 181t221.5 48l-33 -189q-32 4 -49 -5t-26 -35h344l-100 -564h-222l67 379h-123l-67 -379h-222zM581 589q-60 0 -88.5 29t-20.5 76q8 46 47 75.5t99 29.5q59 0 88 -29.5t21 -75.5q-8 -47 -47.5 -76t-98.5 -29z" />
    <glyph glyph-name="fl" unicode="&#xfb02;" horiz-adv-x="707" 
d="M87 379h-60l33 185h60q12 60 40.5 105.5t73 75t102.5 42t129 6.5l-33 -189q-38 5 -58.5 -4t-30.5 -36h82l-33 -185h-83l-67 -379h-222zM516 740h222l-131 -740h-222z" />
    <glyph glyph-name="exclam.ss01" horiz-adv-x="442" 
d="M183 755h242l-109 -474h-190zM99 212h220l-38 -212h-220z" />
    <glyph glyph-name="comma.ss01" horiz-adv-x="276" 
d="M169 131q14 -31 18 -71.5t-4 -82.5q-6 -36 -21.5 -69.5t-41.5 -60t-63.5 -42t-86.5 -15.5l14 78q26 0 42 10.5t24 49.5l2 11h-87l33 192h171z" />
    <glyph glyph-name="period.ss01" horiz-adv-x="277" 
d="M16 212h220l-38 -212h-220z" />
    <glyph glyph-name="colon.ss01" horiz-adv-x="332" 
d="M50 212h220l-38 -212h-220zM119 603h220l-38 -212h-220z" />
    <glyph glyph-name="semicolon.ss01" horiz-adv-x="431" 
d="M266 131q14 -31 18 -71.5t-4 -82.5q-6 -36 -21.5 -69.5t-41.5 -60t-63.5 -42t-86.5 -15.5l14 78q26 0 42 10.5t24 49.5l2 11h-87l33 192h171zM153 582h220l-38 -212h-220z" />
    <glyph glyph-name="question.ss01" horiz-adv-x="538" 
d="M78 212h220l-38 -212h-220zM67 548q6 45 27.5 85.5t58.5 71.5t89.5 49.5t119.5 18.5q53 0 95.5 -13t69.5 -40t38 -67.5t1 -95.5q-8 -45 -30 -81t-55 -62.5t-75 -41t-90 -15.5l-12 -71h-208l37 212h84q58 0 92.5 13t39.5 45q4 18 -4.5 27.5t-22.5 9.5q-20 0 -31.5 -13.5
t-14.5 -31.5h-209z" />
    <glyph glyph-name="exclamdown.ss01" horiz-adv-x="442" 
d="M259 -190h-242l109 474h190zM343 353h-220l38 212h220z" />
    <glyph glyph-name="periodcentered.ss01" horiz-adv-x="320" 
d="M38 402h220l-38 -212h-220z" />
    <glyph glyph-name="questiondown.ss01" horiz-adv-x="536" 
d="M460 352h-220l38 212h220zM471 16q-6 -45 -27.5 -85.5t-58.5 -71.5t-89.5 -49.5t-119.5 -18.5q-53 0 -95.5 13t-69.5 40t-38 67.5t-1 95.5q7 45 29 81t55 62.5t75.5 41t90.5 15.5l12 71h208l-37 -212h-84q-58 0 -92.5 -13t-39.5 -45q-4 -18 4.5 -27.5t22.5 -9.5
q20 0 31.5 13.5t14.5 31.5h209z" />
    <glyph glyph-name="divide.ss01" horiz-adv-x="551" 
d="M48 441h511l-35 -201h-511zM152 212h220l-38 -212h-220zM234 681h220l-37 -212h-220z" />
    <glyph glyph-name="apostrophemod.ss01" horiz-adv-x="281" 
d="M311 876q8 -35 7.5 -68.5t-6.5 -65.5q-6 -36 -21.5 -68.5t-40 -56.5t-58 -38t-75.5 -14l14 79q26 0 43.5 18t24.5 56l2 12h-72l26 146h156z" />
    <glyph glyph-name="quoteleft.ss01" horiz-adv-x="281" 
d="M126 565q-8 35 -8 69t6 66q6 36 21.5 68t40 56t58 38t76.5 14l-14 -78q-26 0 -43.5 -18t-24.5 -57l-2 -11h72l-26 -147h-156z" />
    <glyph glyph-name="quoteright.ss01" horiz-adv-x="281" 
d="M311 876q8 -35 7.5 -68.5t-6.5 -65.5q-6 -36 -21.5 -68.5t-40 -56.5t-58 -38t-75.5 -14l14 79q26 0 43.5 18t24.5 56l2 12h-72l26 146h156z" />
    <glyph glyph-name="quotedblleft.ss01" horiz-adv-x="506" 
d="M350 565q-8 35 -7 69t6 66q6 36 21.5 68t40 56t58 38t75.5 14l-14 -78q-26 0 -43.5 -18t-24.5 -57l-2 -11h72l-26 -147h-156zM126 565q-8 35 -7.5 69t5.5 66q6 36 21.5 68t40 56t58 38t76.5 14l-14 -78q-26 0 -43.5 -18t-24.5 -57l-2 -11h72l-26 -147h-156z" />
    <glyph glyph-name="quotedblright.ss01" horiz-adv-x="506" 
d="M535 876q8 -35 8 -68.5t-6 -65.5q-6 -36 -21.5 -68.5t-40 -56.5t-58 -38t-76.5 -14l14 79q55 0 68 74l2 12h-72l26 146h156zM311 876q8 -35 7.5 -68.5t-6.5 -65.5q-6 -36 -21.5 -68.5t-40 -56.5t-58 -38t-75.5 -14l14 79q26 0 43.5 18t24.5 56l2 12h-72l26 146h156z" />
    <glyph glyph-name="ellipsis.ss01" horiz-adv-x="854" 
d="M30 212h220l-38 -212h-220zM310 212h220l-38 -212h-220zM580 212h220l-38 -212h-220z" />
    <glyph glyph-name="a.ss02" horiz-adv-x="646" 
d="M338 76q-14 -21 -35 -37t-46.5 -27.5t-54.5 -17t-57 -5.5q-32 0 -59 8.5t-47 26t-31.5 43.5t-11.5 61q0 46 22.5 83.5t61.5 63t91.5 39.5t112.5 14h97q1 5 1.5 9t0.5 9q0 23 -14 35.5t-37 12.5q-25 0 -41 -12t-25 -28h-224q16 47 45 87t69.5 69t92 45.5t111.5 16.5
q119 0 183.5 -52.5t64.5 -140.5q0 -12 -1 -24t-3 -26l-58 -329h-221zM227 174q0 -15 11 -23t30 -8q16 0 32 6.5t28.5 17t21.5 25t12 29.5v2h-70q-29 0 -47 -14.5t-18 -34.5z" />
    <glyph glyph-name="aacute.ss02" horiz-adv-x="646" 
d="M338 76q-14 -21 -35 -37t-46.5 -27.5t-54.5 -17t-57 -5.5q-32 0 -59 8.5t-47 26t-31.5 43.5t-11.5 61q0 46 22.5 83.5t61.5 63t91.5 39.5t112.5 14h97q1 5 1.5 9t0.5 9q0 23 -14 35.5t-37 12.5q-25 0 -41 -12t-25 -28h-224q16 47 45 87t69.5 69t92 45.5t111.5 16.5
q119 0 183.5 -52.5t64.5 -140.5q0 -12 -1 -24t-3 -26l-58 -329h-221zM227 174q0 -15 11 -23t30 -8q16 0 32 6.5t28.5 17t21.5 25t12 29.5v2h-70q-29 0 -47 -14.5t-18 -34.5zM563 713l-240 -104l-57 104l236 117z" />
    <glyph glyph-name="abreve.ss02" horiz-adv-x="646" 
d="M338 76q-14 -21 -35 -37t-46.5 -27.5t-54.5 -17t-57 -5.5q-32 0 -59 8.5t-47 26t-31.5 43.5t-11.5 61q0 46 22.5 83.5t61.5 63t91.5 39.5t112.5 14h97q1 5 1.5 9t0.5 9q0 23 -14 35.5t-37 12.5q-25 0 -41 -12t-25 -28h-224q16 47 45 87t69.5 69t92 45.5t111.5 16.5
q119 0 183.5 -52.5t64.5 -140.5q0 -12 -1 -24t-3 -26l-58 -329h-221zM227 174q0 -15 11 -23t30 -8q16 0 32 6.5t28.5 17t21.5 25t12 29.5v2h-70q-29 0 -47 -14.5t-18 -34.5zM378 599q-82 0 -125 40.5t-29 118.5h130q-5 -29 6.5 -41.5t36.5 -12.5q22 0 38.5 12.5t21.5 41.5
h132q-14 -78 -69.5 -118.5t-141.5 -40.5z" />
    <glyph glyph-name="acircumflex.ss02" horiz-adv-x="646" 
d="M338 76q-14 -21 -35 -37t-46.5 -27.5t-54.5 -17t-57 -5.5q-32 0 -59 8.5t-47 26t-31.5 43.5t-11.5 61q0 46 22.5 83.5t61.5 63t91.5 39.5t112.5 14h97q1 5 1.5 9t0.5 9q0 23 -14 35.5t-37 12.5q-25 0 -41 -12t-25 -28h-224q16 47 45 87t69.5 69t92 45.5t111.5 16.5
q119 0 183.5 -52.5t64.5 -140.5q0 -12 -1 -24t-3 -26l-58 -329h-221zM227 174q0 -15 11 -23t30 -8q16 0 32 6.5t28.5 17t21.5 25t12 29.5v2h-70q-29 0 -47 -14.5t-18 -34.5zM258 599l-53 95l200 106l170 -106l-70 -95l-115 62z" />
    <glyph glyph-name="adieresis.ss02" horiz-adv-x="646" 
d="M293 620q-32 0 -52 19.5t-20 49.5q0 22 8.5 40.5t22.5 32.5t32.5 22t38.5 8q34 0 53.5 -19.5t19.5 -51.5q0 -21 -8.5 -39.5t-22.5 -32t-32.5 -21.5t-39.5 -8zM518 620q-32 0 -52 19.5t-20 49.5q0 22 8.5 40.5t22.5 32.5t32.5 22t38.5 8q34 0 53.5 -19.5t19.5 -51.5
q0 -21 -8.5 -39.5t-22.5 -32t-32.5 -21.5t-39.5 -8zM338 76q-14 -21 -35 -37t-46.5 -27.5t-54.5 -17t-57 -5.5q-32 0 -59 8.5t-47 26t-31.5 43.5t-11.5 61q0 46 22.5 83.5t61.5 63t91.5 39.5t112.5 14h97q1 5 1.5 9t0.5 9q0 23 -14 35.5t-37 12.5q-25 0 -41 -12t-25 -28
h-224q16 47 45 87t69.5 69t92 45.5t111.5 16.5q119 0 183.5 -52.5t64.5 -140.5q0 -12 -1 -24t-3 -26l-58 -329h-221zM227 174q0 -15 11 -23t30 -8q16 0 32 6.5t28.5 17t21.5 25t12 29.5v2h-70q-29 0 -47 -14.5t-18 -34.5z" />
    <glyph glyph-name="agrave.ss02" horiz-adv-x="646" 
d="M338 76q-14 -21 -35 -37t-46.5 -27.5t-54.5 -17t-57 -5.5q-32 0 -59 8.5t-47 26t-31.5 43.5t-11.5 61q0 46 22.5 83.5t61.5 63t91.5 39.5t112.5 14h97q1 5 1.5 9t0.5 9q0 23 -14 35.5t-37 12.5q-25 0 -41 -12t-25 -28h-224q16 47 45 87t69.5 69t92 45.5t111.5 16.5
q119 0 183.5 -52.5t64.5 -140.5q0 -12 -1 -24t-3 -26l-58 -329h-221zM227 174q0 -15 11 -23t30 -8q16 0 32 6.5t28.5 17t21.5 25t12 29.5v2h-70q-29 0 -47 -14.5t-18 -34.5zM299 830l206 -120l-68 -101l-213 107z" />
    <glyph glyph-name="amacron.ss02" horiz-adv-x="646" 
d="M218 769h431l-26 -147h-431zM338 76q-14 -21 -35 -37t-46.5 -27.5t-54.5 -17t-57 -5.5q-32 0 -59 8.5t-47 26t-31.5 43.5t-11.5 61q0 46 22.5 83.5t61.5 63t91.5 39.5t112.5 14h97q1 5 1.5 9t0.5 9q0 23 -14 35.5t-37 12.5q-25 0 -41 -12t-25 -28h-224q16 47 45 87
t69.5 69t92 45.5t111.5 16.5q119 0 183.5 -52.5t64.5 -140.5q0 -12 -1 -24t-3 -26l-58 -329h-221zM227 174q0 -15 11 -23t30 -8q16 0 32 6.5t28.5 17t21.5 25t12 29.5v2h-70q-29 0 -47 -14.5t-18 -34.5z" />
    <glyph glyph-name="aogonek.ss02" horiz-adv-x="646" 
d="M510 -207q-26 -8 -55 -12t-61 -4q-76 0 -113 32t-27 88q5 29 20.5 54t50.5 51l13 74q-14 -21 -35 -37t-46.5 -27.5t-54.5 -17t-57 -5.5q-32 0 -59 8.5t-47 26t-31.5 43.5t-11.5 61q0 46 22.5 83.5t61.5 63t91.5 39.5t112.5 14h97q1 5 1.5 9t0.5 9q0 23 -14 35.5t-37 12.5
q-25 0 -41 -12t-25 -28h-224q16 47 45 87t69.5 69t92 45.5t111.5 16.5q119 0 183.5 -52.5t64.5 -140.5q0 -12 -1 -24t-3 -26l-58 -329l-46 -21q-45 -20 -65 -35t-23 -30q-2 -9 5.5 -15t24.5 -6q37 0 88 16zM227 174q0 -15 11 -23t30 -8q16 0 32 6.5t28.5 17t21.5 25t12 29.5
v2h-70q-29 0 -47 -14.5t-18 -34.5z" />
    <glyph glyph-name="aring.ss02" horiz-adv-x="646" 
d="M293 725q6 31 20.5 55.5t35.5 41.5t46.5 26t52.5 9t49.5 -9t37.5 -26t21.5 -41.5t0.5 -55.5q-5 -31 -19.5 -55.5t-35.5 -41.5t-47 -26t-53 -9t-49.5 9t-37.5 26t-21 41.5t-1 55.5zM471 725q4 22 -7 34.5t-31 12.5t-35 -12.5t-19 -34.5q-4 -21 7 -34t31 -13t35 13t19 34z
M338 76q-14 -21 -35 -37t-46.5 -27.5t-54.5 -17t-57 -5.5q-32 0 -59 8.5t-47 26t-31.5 43.5t-11.5 61q0 46 22.5 83.5t61.5 63t91.5 39.5t112.5 14h97q1 5 1.5 9t0.5 9q0 23 -14 35.5t-37 12.5q-25 0 -41 -12t-25 -28h-224q16 47 45 87t69.5 69t92 45.5t111.5 16.5
q119 0 183.5 -52.5t64.5 -140.5q0 -12 -1 -24t-3 -26l-58 -329h-221zM227 174q0 -15 11 -23t30 -8q16 0 32 6.5t28.5 17t21.5 25t12 29.5v2h-70q-29 0 -47 -14.5t-18 -34.5z" />
    <glyph glyph-name="atilde.ss02" horiz-adv-x="646" 
d="M338 76q-14 -21 -35 -37t-46.5 -27.5t-54.5 -17t-57 -5.5q-32 0 -59 8.5t-47 26t-31.5 43.5t-11.5 61q0 46 22.5 83.5t61.5 63t91.5 39.5t112.5 14h97q1 5 1.5 9t0.5 9q0 23 -14 35.5t-37 12.5q-25 0 -41 -12t-25 -28h-224q16 47 45 87t69.5 69t92 45.5t111.5 16.5
q119 0 183.5 -52.5t64.5 -140.5q0 -12 -1 -24t-3 -26l-58 -329h-221zM227 174q0 -15 11 -23t30 -8q16 0 32 6.5t28.5 17t21.5 25t12 29.5v2h-70q-29 0 -47 -14.5t-18 -34.5zM201 611q11 78 47 117t84 39q27 0 43.5 -6.5t28 -15t20 -15t18.5 -6.5q9 0 17 7t12 33h116
q-10 -78 -47 -116.5t-85 -38.5q-28 0 -44.5 6.5t-27.5 14t-18.5 14t-17.5 6.5q-9 0 -17 -6.5t-12 -32.5h-117z" />
    <glyph glyph-name="ampersand.ss03" horiz-adv-x="700" 
d="M183 537q6 34 26 66t52 57t76.5 40t99.5 15q50 0 85.5 -10.5t59 -28t36.5 -41.5t19 -51q6 -29 4 -60t-9 -60h-206q2 12 3 22.5t1 18.5q0 14 -4.5 20.5t-16.5 6.5q-20 0 -23 -20q-2 -9 1.5 -18t11.5 -26l251 -468h-221l-30 56q-35 -28 -81.5 -45.5t-104.5 -17.5
q-60 0 -101.5 18.5t-66 49t-32 71.5t0.5 86q7 40 23.5 74t40 61t53 45t61.5 27q-11 26 -12.5 53.5t3.5 58.5zM204 224q-4 -22 8 -35t35 -13t40 13t21 35q4 21 -8.5 33.5t-35.5 12.5t-39.5 -12.5t-20.5 -33.5z" />
    <glyph glyph-name="two.ss04" horiz-adv-x="566" 
d="M6 160l198 164q30 25 56.5 48t46 45t31 43.5t11.5 42.5q0 15 -7.5 21.5t-19.5 6.5q-17 0 -31 -18t-22 -65h-215q15 73 46.5 124t73.5 83t92 47t101 15q58 0 99 -14.5t66 -38.5t36.5 -56t11.5 -67q0 -41 -12 -75.5t-35 -67t-56 -64.5t-76 -68l-105 -87h230l-31 -179h-517z
" />
    <glyph glyph-name="three.ss04" horiz-adv-x="615" 
d="M256 -7q-58 0 -104.5 14t-77 45t-42.5 79.5t-1 117.5h216q-8 -35 1 -54t41 -19q22 0 37 14.5t20 38.5q6 35 -14.5 54t-59.5 19h-87l24 139l115 86h-207l34 190h474l-29 -163l-180 -134q75 -17 111.5 -68t21.5 -137q-9 -49 -34.5 -90t-64 -70t-88 -45.5t-106.5 -16.5z" />
    <glyph glyph-name="six.ss04" horiz-adv-x="630" 
d="M592 285q0 -66 -24 -119.5t-66 -92t-99 -59.5t-124 -21q-53 0 -96 14t-73.5 40.5t-47 63.5t-16.5 83q0 74 33.5 141t87.5 133l208 253h241l-223 -260q8 1 16 1.5t16 0.5q36 0 66.5 -12t53 -35t35 -56t12.5 -75zM330 295q-29 0 -50 -20.5t-21 -49.5q0 -21 13.5 -33.5
t36.5 -12.5q29 0 49.5 19.5t20.5 51.5q0 21 -13 33t-36 12z" />
    <glyph glyph-name="nine.ss04" horiz-adv-x="631" 
d="M65 427q0 66 24.5 120t67 93t100 60.5t124.5 21.5q53 0 95.5 -15t72.5 -42t46 -64.5t16 -83.5q0 -75 -34.5 -141t-86.5 -129l-208 -253h-241l223 260q-8 -1 -16 -1.5t-16 -0.5q-36 0 -66.5 11.5t-53 34t-35 55t-12.5 74.5zM348 536q-29 0 -49.5 -19t-20.5 -51
q0 -21 13.5 -33.5t36.5 -12.5q29 0 49.5 19t20.5 51q0 21 -13.5 33.5t-36.5 12.5z" />
    <glyph glyph-name="uni1EA1.ss02" horiz-adv-x="646" 
d="M338 76q-14 -21 -35 -37t-46.5 -27.5t-54.5 -17t-57 -5.5q-32 0 -59 8.5t-47 26t-31.5 43.5t-11.5 61q0 46 22.5 83.5t61.5 63t91.5 39.5t112.5 14h97q1 5 1.5 9t0.5 9q0 23 -14 35.5t-37 12.5q-25 0 -41 -12t-25 -28h-224q16 47 45 87t69.5 69t92 45.5t111.5 16.5
q119 0 183.5 -52.5t64.5 -140.5q0 -12 -1 -24t-3 -26l-58 -329h-221zM227 174q0 -15 11 -23t30 -8q16 0 32 6.5t28.5 17t21.5 25t12 29.5v2h-70q-29 0 -47 -14.5t-18 -34.5zM236 -248q-50 0 -77 27.5t-23 67.5q3 39 33.5 67t80.5 28q49 0 75.5 -28t23.5 -67
q-4 -40 -34 -67.5t-79 -27.5z" />
    <glyph glyph-name="uni1EA3.ss02" horiz-adv-x="646" 
d="M338 76q-14 -21 -35 -37t-46.5 -27.5t-54.5 -17t-57 -5.5q-32 0 -59 8.5t-47 26t-31.5 43.5t-11.5 61q0 46 22.5 83.5t61.5 63t91.5 39.5t112.5 14h97q1 5 1.5 9t0.5 9q0 23 -14 35.5t-37 12.5q-25 0 -41 -12t-25 -28h-224q16 47 45 87t69.5 69t92 45.5t111.5 16.5
q119 0 183.5 -52.5t64.5 -140.5q0 -12 -1 -24t-3 -26l-58 -329h-221zM227 174q0 -15 11 -23t30 -8q16 0 32 6.5t28.5 17t21.5 25t12 29.5v2h-70q-29 0 -47 -14.5t-18 -34.5zM339 671q29 10 44.5 21.5t18.5 28.5q1 25 -37 25q-9 0 -21 -1.5t-26 -6.5l14 90q21 8 43 12.5
t40 4.5q25 0 47 -6t38 -18t24 -31.5t6 -46.5q-3 -39 -35 -76t-107 -58z" />
    <glyph glyph-name="uni1EA5.ss02" horiz-adv-x="646" 
d="M338 76q-14 -21 -35 -37t-46.5 -27.5t-54.5 -17t-57 -5.5q-32 0 -59 8.5t-47 26t-31.5 43.5t-11.5 61q0 46 22.5 83.5t61.5 63t91.5 39.5t112.5 14h97q1 5 1.5 9t0.5 9q0 23 -14 35.5t-37 12.5q-25 0 -41 -12t-25 -28h-224q16 47 45 87t69.5 69t92 45.5t111.5 16.5
q119 0 183.5 -52.5t64.5 -140.5q0 -12 -1 -24t-3 -26l-58 -329h-221zM227 174q0 -15 11 -23t30 -8q16 0 32 6.5t28.5 17t21.5 25t12 29.5v2h-70q-29 0 -47 -14.5t-18 -34.5zM258 599l-53 95l200 106l170 -106l-70 -95l-115 62zM766 855l-208 -120l-66 93l203 134z" />
    <glyph glyph-name="uni1EA7.ss02" horiz-adv-x="646" 
d="M338 76q-14 -21 -35 -37t-46.5 -27.5t-54.5 -17t-57 -5.5q-32 0 -59 8.5t-47 26t-31.5 43.5t-11.5 61q0 46 22.5 83.5t61.5 63t91.5 39.5t112.5 14h97q1 5 1.5 9t0.5 9q0 23 -14 35.5t-37 12.5q-25 0 -41 -12t-25 -28h-224q16 47 45 87t69.5 69t92 45.5t111.5 16.5
q119 0 183.5 -52.5t64.5 -140.5q0 -12 -1 -24t-3 -26l-58 -329h-221zM227 174q0 -15 11 -23t30 -8q16 0 32 6.5t28.5 17t21.5 25t12 29.5v2h-70q-29 0 -47 -14.5t-18 -34.5zM258 599l-53 95l200 106l170 -106l-70 -95l-115 62zM510 962l158 -145l-79 -82l-169 126z" />
    <glyph glyph-name="uni1EA9.ss02" horiz-adv-x="646" 
d="M338 76q-14 -21 -35 -37t-46.5 -27.5t-54.5 -17t-57 -5.5q-32 0 -59 8.5t-47 26t-31.5 43.5t-11.5 61q0 46 22.5 83.5t61.5 63t91.5 39.5t112.5 14h97q1 5 1.5 9t0.5 9q0 23 -14 35.5t-37 12.5q-25 0 -41 -12t-25 -28h-224q16 47 45 87t69.5 69t92 45.5t111.5 16.5
q119 0 183.5 -52.5t64.5 -140.5q0 -12 -1 -24t-3 -26l-58 -329h-221zM227 174q0 -15 11 -23t30 -8q16 0 32 6.5t28.5 17t21.5 25t12 29.5v2h-70q-29 0 -47 -14.5t-18 -34.5zM258 599l-53 95l200 106l170 -106l-70 -95l-115 62zM515 797q29 10 44.5 21.5t18.5 28.5
q1 25 -37 25q-9 0 -21 -1.5t-26 -6.5l14 90q21 8 43 12.5t40 4.5q25 0 47 -6t38 -18t24 -31.5t6 -46.5q-3 -39 -35 -76t-107 -58z" />
    <glyph glyph-name="uni1EAB.ss02" horiz-adv-x="646" 
d="M338 76q-14 -21 -35 -37t-46.5 -27.5t-54.5 -17t-57 -5.5q-32 0 -59 8.5t-47 26t-31.5 43.5t-11.5 61q0 46 22.5 83.5t61.5 63t91.5 39.5t112.5 14h97q1 5 1.5 9t0.5 9q0 23 -14 35.5t-37 12.5q-25 0 -41 -12t-25 -28h-224q16 47 45 87t69.5 69t92 45.5t111.5 16.5
q119 0 183.5 -52.5t64.5 -140.5q0 -12 -1 -24t-3 -26l-58 -329h-221zM227 174q0 -15 11 -23t30 -8q16 0 32 6.5t28.5 17t21.5 25t12 29.5v2h-70q-29 0 -47 -14.5t-18 -34.5zM258 599l-53 95l200 106l170 -106l-70 -95l-115 62zM220 818q11 78 47 117t84 39q27 0 43.5 -6.5
t28 -15t20 -15t18.5 -6.5q9 0 17 7t12 33h116q-10 -78 -47 -116.5t-85 -38.5q-28 0 -44.5 6.5t-27.5 14t-18.5 14t-17.5 6.5q-9 0 -17 -6.5t-12 -32.5h-117z" />
    <glyph glyph-name="uni1EAD.ss02" horiz-adv-x="646" 
d="M338 76q-14 -21 -35 -37t-46.5 -27.5t-54.5 -17t-57 -5.5q-32 0 -59 8.5t-47 26t-31.5 43.5t-11.5 61q0 46 22.5 83.5t61.5 63t91.5 39.5t112.5 14h97q1 5 1.5 9t0.5 9q0 23 -14 35.5t-37 12.5q-25 0 -41 -12t-25 -28h-224q16 47 45 87t69.5 69t92 45.5t111.5 16.5
q119 0 183.5 -52.5t64.5 -140.5q0 -12 -1 -24t-3 -26l-58 -329h-221zM227 174q0 -15 11 -23t30 -8q16 0 32 6.5t28.5 17t21.5 25t12 29.5v2h-70q-29 0 -47 -14.5t-18 -34.5zM258 599l-53 95l200 106l170 -106l-70 -95l-115 62zM236 -248q-50 0 -77 27.5t-23 67.5
q3 39 33.5 67t80.5 28q49 0 75.5 -28t23.5 -67q-4 -40 -34 -67.5t-79 -27.5z" />
    <glyph glyph-name="uni1EAF.ss02" horiz-adv-x="646" 
d="M338 76q-14 -21 -35 -37t-46.5 -27.5t-54.5 -17t-57 -5.5q-32 0 -59 8.5t-47 26t-31.5 43.5t-11.5 61q0 46 22.5 83.5t61.5 63t91.5 39.5t112.5 14h97q1 5 1.5 9t0.5 9q0 23 -14 35.5t-37 12.5q-25 0 -41 -12t-25 -28h-224q16 47 45 87t69.5 69t92 45.5t111.5 16.5
q119 0 183.5 -52.5t64.5 -140.5q0 -12 -1 -24t-3 -26l-58 -329h-221zM227 174q0 -15 11 -23t30 -8q16 0 32 6.5t28.5 17t21.5 25t12 29.5v2h-70q-29 0 -47 -14.5t-18 -34.5zM378 599q-82 0 -125 40.5t-29 118.5h130q-5 -29 6.5 -41.5t36.5 -12.5q22 0 38.5 12.5t21.5 41.5
h132q-14 -78 -69.5 -118.5t-141.5 -40.5zM606 898l-208 -120l-66 93l203 134z" />
    <glyph glyph-name="uni1EB1.ss02" horiz-adv-x="646" 
d="M338 76q-14 -21 -35 -37t-46.5 -27.5t-54.5 -17t-57 -5.5q-32 0 -59 8.5t-47 26t-31.5 43.5t-11.5 61q0 46 22.5 83.5t61.5 63t91.5 39.5t112.5 14h97q1 5 1.5 9t0.5 9q0 23 -14 35.5t-37 12.5q-25 0 -41 -12t-25 -28h-224q16 47 45 87t69.5 69t92 45.5t111.5 16.5
q119 0 183.5 -52.5t64.5 -140.5q0 -12 -1 -24t-3 -26l-58 -329h-221zM227 174q0 -15 11 -23t30 -8q16 0 32 6.5t28.5 17t21.5 25t12 29.5v2h-70q-29 0 -47 -14.5t-18 -34.5zM378 599q-82 0 -125 40.5t-29 118.5h130q-5 -29 6.5 -41.5t36.5 -12.5q22 0 38.5 12.5t21.5 41.5
h132q-14 -78 -69.5 -118.5t-141.5 -40.5zM336 1005l158 -145l-79 -82l-169 126z" />
    <glyph glyph-name="uni1EB3.ss02" horiz-adv-x="646" 
d="M338 76q-14 -21 -35 -37t-46.5 -27.5t-54.5 -17t-57 -5.5q-32 0 -59 8.5t-47 26t-31.5 43.5t-11.5 61q0 46 22.5 83.5t61.5 63t91.5 39.5t112.5 14h97q1 5 1.5 9t0.5 9q0 23 -14 35.5t-37 12.5q-25 0 -41 -12t-25 -28h-224q16 47 45 87t69.5 69t92 45.5t111.5 16.5
q119 0 183.5 -52.5t64.5 -140.5q0 -12 -1 -24t-3 -26l-58 -329h-221zM227 174q0 -15 11 -23t30 -8q16 0 32 6.5t28.5 17t21.5 25t12 29.5v2h-70q-29 0 -47 -14.5t-18 -34.5zM378 599q-82 0 -125 40.5t-29 118.5h130q-5 -29 6.5 -41.5t36.5 -12.5q22 0 38.5 12.5t21.5 41.5
h132q-14 -78 -69.5 -118.5t-141.5 -40.5zM360 830q29 10 44.5 21.5t18.5 28.5q1 25 -37 25q-9 0 -21 -1.5t-26 -6.5l14 90q21 8 43 12.5t40 4.5q25 0 47 -6t38 -18t24 -31.5t6 -46.5q-3 -39 -35 -76t-107 -58z" />
    <glyph glyph-name="uni1EB5.ss02" horiz-adv-x="646" 
d="M338 76q-14 -21 -35 -37t-46.5 -27.5t-54.5 -17t-57 -5.5q-32 0 -59 8.5t-47 26t-31.5 43.5t-11.5 61q0 46 22.5 83.5t61.5 63t91.5 39.5t112.5 14h97q1 5 1.5 9t0.5 9q0 23 -14 35.5t-37 12.5q-25 0 -41 -12t-25 -28h-224q16 47 45 87t69.5 69t92 45.5t111.5 16.5
q119 0 183.5 -52.5t64.5 -140.5q0 -12 -1 -24t-3 -26l-58 -329h-221zM227 174q0 -15 11 -23t30 -8q16 0 32 6.5t28.5 17t21.5 25t12 29.5v2h-70q-29 0 -47 -14.5t-18 -34.5zM378 599q-82 0 -125 40.5t-29 118.5h130q-5 -29 6.5 -41.5t36.5 -12.5q22 0 38.5 12.5t21.5 41.5
h132q-14 -78 -69.5 -118.5t-141.5 -40.5zM225 793q11 78 47 117t84 39q27 0 43.5 -6.5t28 -15t20 -15t18.5 -6.5q9 0 17 7t12 33h116q-10 -78 -47 -116.5t-85 -38.5q-28 0 -44.5 6.5t-27.5 14t-18.5 14t-17.5 6.5q-9 0 -17 -6.5t-12 -32.5h-117z" />
    <glyph glyph-name="uni1EB7.ss02" horiz-adv-x="646" 
d="M338 76q-14 -21 -35 -37t-46.5 -27.5t-54.5 -17t-57 -5.5q-32 0 -59 8.5t-47 26t-31.5 43.5t-11.5 61q0 46 22.5 83.5t61.5 63t91.5 39.5t112.5 14h97q1 5 1.5 9t0.5 9q0 23 -14 35.5t-37 12.5q-25 0 -41 -12t-25 -28h-224q16 47 45 87t69.5 69t92 45.5t111.5 16.5
q119 0 183.5 -52.5t64.5 -140.5q0 -12 -1 -24t-3 -26l-58 -329h-221zM227 174q0 -15 11 -23t30 -8q16 0 32 6.5t28.5 17t21.5 25t12 29.5v2h-70q-29 0 -47 -14.5t-18 -34.5zM378 599q-82 0 -125 40.5t-29 118.5h130q-5 -29 6.5 -41.5t36.5 -12.5q22 0 38.5 12.5t21.5 41.5
h132q-14 -78 -69.5 -118.5t-141.5 -40.5zM236 -248q-50 0 -77 27.5t-23 67.5q3 39 33.5 67t80.5 28q49 0 75.5 -28t23.5 -67q-4 -40 -34 -67.5t-79 -27.5z" />
    </font>
</defs>
</svg>
