<?xml version="1.0" standalone="no"?>
<!DOCTYPE svg PUBLIC "-//W3C//DTD SVG 1.1//EN" "http://www.w3.org/Graphics/SVG/1.1/DTD/svg11.dtd" >
<svg xmlns="http://www.w3.org/2000/svg" xmlns:xlink="http://www.w3.org/1999/xlink" version="1.1">
<metadata>
Created by FontForge 20170731 at Wed Feb  9 10:23:54 2022
 By Aleksey,,,
Copyright 2014-2018 Indian Type Foundry. All rights reserved.
</metadata>
<defs>
<font id="SVN-Poppins-Italic" horiz-adv-x="640" >
  <font-face 
    font-family="SVN-Poppins"
    font-weight="400"
    font-style="italic"
    font-stretch="normal"
    units-per-em="1000"
    panose-1="0 0 5 0 0 0 0 0 0 0"
    ascent="800"
    descent="-200"
    x-height="548"
    cap-height="697"
    bbox="-134 -270 1100 1099"
    underline-thickness="50"
    underline-position="-150"
    slope="-10"
    unicode-range="U+0020-FB02"
  />
<missing-glyph horiz-adv-x="500" 
d="M0 700h500v-700h-500v700zM420 650h-340l170 -255zM450 95v510l-170 -255zM420 50l-170 255l-170 -255h340zM50 95l170 255l-170 255v-510z" />
    <glyph glyph-name=".notdef" horiz-adv-x="500" 
d="M0 700h500v-700h-500v700zM420 650h-340l170 -255zM450 95v510l-170 -255zM420 50l-170 255l-170 -255h340zM50 95l170 255l-170 255v-510z" />
    <glyph glyph-name=".null" horiz-adv-x="0" 
 />
    <glyph glyph-name="nonmarkingreturn" horiz-adv-x="298" 
 />
    <glyph glyph-name="space" unicode=" " horiz-adv-x="298" 
 />
    <glyph glyph-name="exclam" unicode="!" horiz-adv-x="298" 
d="M170 697h97l-99 -500h-76zM170 56q-5 -26 -25.5 -44t-46.5 -18t-41 18t-10 44t26 44t47 18t40.5 -18t9.5 -44z" />
    <glyph glyph-name="quotedbl" unicode="&#x22;" horiz-adv-x="292" 
d="M125 796h86l-46 -199h-63zM260 796h85l-45 -199h-63z" />
    <glyph glyph-name="numbersign" unicode="#" horiz-adv-x="840" 
d="M573 460h-210l-71 -180h210zM471 200h-210l-78 -200h-87l78 200h-156l14 80h173l71 180h-156l15 80h172l78 200h87l-78 -200h210l78 200h87l-78 -200h139l-14 -80h-156l-71 -180h139l-15 -80h-155l-78 -200h-87z" />
    <glyph glyph-name="dollar" unicode="$" horiz-adv-x="622" 
d="M216 -6q-45 4 -80 18.5t-58 39t-32.5 57t-3.5 72.5h97q-2 -20 2.5 -38t15 -33t28.5 -26t44 -15l44 250q-36 10 -71 21.5t-60.5 32.5t-38 54t-3.5 85q7 41 27.5 75t52 59.5t72.5 40.5t89 18l15 83h54l-15 -83q85 -8 127.5 -55t37.5 -123h-97q2 32 -17.5 61t-63.5 39
l-43 -243q36 -9 70.5 -21t60 -33t37.5 -54t3 -85q-6 -35 -25 -69t-49.5 -61t-72 -45.5t-93.5 -21.5l-14 -81h-54zM418 186q4 27 -1.5 46t-18 32.5t-32 22.5t-41.5 17l-42 -236q57 7 92 40t43 78zM193 517q-5 -27 0.5 -46t19 -32.5t33 -23t42.5 -16.5l40 231
q-51 -4 -88.5 -31.5t-46.5 -81.5z" />
    <glyph glyph-name="percent" unicode="%" horiz-adv-x="675" 
d="M89 560q6 34 22 61.5t38.5 46.5t51 29t60.5 10q63 0 97.5 -39t22.5 -108q-6 -34 -22 -61.5t-39 -46.5t-51.5 -29.5t-59.5 -10.5q-32 0 -56.5 10.5t-41 29.5t-22.5 46.5t0 61.5zM251 651q-34 0 -58 -23t-32 -68t8 -68t50 -23q33 0 57.5 23t32.5 68t-8.5 68t-49.5 23z
M567 698h90l-528 -698h-91zM317 138q6 34 22 61.5t38.5 47t51 29.5t60.5 10q31 0 55.5 -10t40.5 -29.5t22.5 -47t0.5 -61.5t-22 -61.5t-38.5 -46.5t-51 -29.5t-59.5 -10.5q-32 0 -56.5 10.5t-41 29.5t-22.5 46.5t0 61.5zM478 229q-33 0 -57.5 -22.5t-32.5 -68.5
q-8 -45 8.5 -67.5t49.5 -22.5t57.5 22.5t32.5 67.5q8 46 -8.5 68.5t-49.5 22.5z" />
    <glyph glyph-name="ampersand" unicode="&#x26;" horiz-adv-x="750" 
d="M459 556q1 5 1 15q0 31 -20.5 48t-53.5 17q-46 0 -75.5 -29t-29.5 -70q0 -25 12.5 -50t37.5 -58l172 -209q5 7 11 14t12 15l89 113h98l-107 -142q-13 -17 -25.5 -33t-26.5 -30l129 -157h-118l-75 92q-60 -53 -122 -78.5t-135 -25.5q-98 0 -155 47t-57 131q0 43 15 81
t42 70t65 57.5t84 42.5q-39 55 -39 105q0 42 15.5 76.5t43.5 59.5t67 39t86 14q72 0 112 -36.5t40 -91.5q0 -7 -0.5 -13.5t-1.5 -13.5h-91zM246 66q54 0 100.5 21t94.5 66l-168 205q-71 -26 -115 -70.5t-44 -108.5q0 -50 35.5 -81.5t96.5 -31.5z" />
    <glyph glyph-name="quotesingle" unicode="'" horiz-adv-x="159" 
d="M125 796h88l-47 -199h-63z" />
    <glyph glyph-name="parenleft" unicode="(" horiz-adv-x="455" 
d="M230 -186q-58 70 -89 168.5t-31 216.5q0 103 22.5 207.5t65.5 201t104.5 180.5t139.5 146h95l-1 -9q-78 -63 -140 -144t-105.5 -173.5t-67 -192t-23.5 -198.5q0 -112 31.5 -212.5t94.5 -181.5l-1 -9h-95z" />
    <glyph glyph-name="parenright" unicode=")" horiz-adv-x="454" 
d="M377 533q0 -100 -22 -202t-62.5 -196.5t-98.5 -177t-131 -143.5h-95l1 9q75 65 134 145.5t100.5 170.5t63 186t21.5 192q0 115 -33.5 220t-106.5 188l2 9h95q66 -73 99 -176.5t33 -224.5z" />
    <glyph glyph-name="asterisk" unicode="*" horiz-adv-x="486" 
d="M316 582l138 88l25 -65l-150 -58l129 -58l-47 -66l-107 88l-10 -151h-74l41 151l-138 -89l-27 68l150 58l-128 57l47 65l109 -88l11 152h75z" />
    <glyph glyph-name="plus" unicode="+" horiz-adv-x="683" 
d="M444 621l-38 -215h212l-15 -81h-211l-38 -214h-87l38 214h-211l14 81h211l38 215h87z" />
    <glyph glyph-name="comma" unicode="," horiz-adv-x="198" 
d="M42 126h100l-159 -269h-61z" />
    <glyph glyph-name="hyphen" unicode="-" horiz-adv-x="551" 
d="M79 405h399l-14 -77h-399z" />
    <glyph glyph-name="period" unicode="." horiz-adv-x="210" 
d="M126 56q-5 -26 -25.5 -44t-46.5 -18t-41 18t-10 44t26 44t47 18t40.5 -18t9.5 -44z" />
    <glyph glyph-name="slash" unicode="/" horiz-adv-x="476" 
d="M441 942h91l-470 -1112h-90z" />
    <glyph glyph-name="zero" unicode="0" horiz-adv-x="628" 
d="M76 353q13 74 36 138t60 111.5t90.5 75t128.5 27.5t118.5 -27.5t63.5 -75t19 -111.5t-14 -138q-14 -74 -36.5 -138.5t-59.5 -112t-90.5 -75t-128.5 -27.5t-118.5 27.5t-63.5 75t-19.5 112t14.5 138.5zM489 353q10 54 13.5 103.5t-6.5 86.5t-38 59t-81 22q-54 0 -90 -22
t-60 -59t-38 -86.5t-24 -103.5q-10 -55 -13.5 -104t6.5 -86.5t38 -59.5t81 -22q54 0 90 22t59.5 59.5t38 86.5t24.5 104z" />
    <glyph glyph-name="one" unicode="1" horiz-adv-x="320" 
d="M193 616h-96l15 82h188l-125 -698h-92z" />
    <glyph glyph-name="two" unicode="2" horiz-adv-x="575" 
d="M13 71q81 55 158 109t138 107t102 105.5t50 104.5q5 27 2.5 51t-15.5 42t-36.5 28.5t-60.5 10.5q-70 0 -113.5 -42t-59.5 -109h-88q12 56 38.5 98.5t62.5 71t80.5 43t93.5 14.5q103 0 153.5 -54t33.5 -150q-12 -64 -55 -123t-101 -112.5t-123.5 -99.5t-120.5 -84h344
l-13 -74h-482z" />
    <glyph glyph-name="three" unicode="3" horiz-adv-x="589" 
d="M104 517q12 45 37 80t61 59t80.5 36.5t94.5 12.5q53 0 91 -14t61 -38t31 -56.5t1 -69.5q-6 -30 -20 -56t-34.5 -46.5t-46.5 -35t-56 -20.5v-5q60 -14 90.5 -58.5t17.5 -119.5q-8 -40 -29 -75t-54.5 -60.5t-78.5 -40.5t-102 -15q-51 0 -93 13t-70.5 38.5t-41.5 64t-8 88.5
h88q-4 -56 30.5 -93t106.5 -37t114.5 35.5t52.5 89.5q13 74 -33 104.5t-144 30.5h-24l14 73h25q91 1 143.5 28.5t63.5 87.5q9 50 -18.5 81t-93.5 31q-64 0 -107 -31t-60 -82h-89v0z" />
    <glyph glyph-name="four" unicode="4" horiz-adv-x="629" 
d="M388 157h-371l12 67l437 474h109l-83 -464h100l-15 -77h-100l-28 -157h-90zM406 234l67 371l-336 -371h269z" />
    <glyph glyph-name="five" unicode="5" horiz-adv-x="628" 
d="M600 698l-13 -77h-352l-40 -220q28 30 75.5 50t101.5 20q66 0 107 -21t62 -54t25 -74t-3 -81q-9 -51 -32 -95t-60 -77t-87 -52t-113 -19q-54 0 -94.5 14t-67.5 39t-40 60.5t-12 77.5h88q3 -55 40 -86t100 -31q41 0 73.5 12.5t56.5 35t39 53t22 66.5q14 75 -18.5 116
t-111.5 41q-56 0 -98.5 -24.5t-68.5 -66.5h-86l72 393h435z" />
    <glyph glyph-name="six" unicode="6" horiz-adv-x="635" 
d="M511 526q-2 51 -28.5 78.5t-88.5 27.5q-43 0 -79 -15t-64.5 -48.5t-49.5 -87t-35 -130.5q16 25 40 45t52.5 34t60 21t63.5 7q102 0 152.5 -60.5t30.5 -170.5q-9 -47 -31 -89t-57.5 -73t-83 -49t-107.5 -18q-80 0 -126.5 26t-67 73.5t-20 113t15.5 143.5q15 81 41.5 146
t65.5 110.5t92 70t122 24.5q51 0 87.5 -14.5t59 -39t32 -57t7.5 -68.5h-84zM349 384q-31 0 -62 -9t-58 -27.5t-46.5 -46.5t-26.5 -67q-6 -35 -1.5 -64.5t21.5 -51.5t46.5 -34.5t72.5 -12.5q71 0 120 41.5t62 111.5q14 74 -17.5 117t-110.5 43z" />
    <glyph glyph-name="seven" unicode="7" horiz-adv-x="546" 
d="M584 698l-13 -67l-393 -631h-100l403 623h-385l13 75h475z" />
    <glyph glyph-name="eight" unicode="8" horiz-adv-x="631" 
d="M211 364q-51 21 -74.5 60.5t-12.5 96.5q7 38 28.5 71.5t56 58.5t81.5 39.5t106 14.5q58 0 100 -14.5t67 -39.5t34 -58.5t2 -71.5q-11 -56 -49.5 -96.5t-96.5 -60.5q59 -18 87.5 -63t16.5 -113q-9 -48 -35 -86.5t-65 -65.5t-89 -41.5t-107 -14.5t-101.5 14.5t-73 41.5
t-40 65.5t-2.5 86.5q13 69 58 114t109 62zM382 633q-67 0 -114 -31t-58 -91q-10 -54 25.5 -86.5t102.5 -32.5t114 33t58 87q11 59 -24 90t-104 31zM325 326q-35 0 -67 -8t-58 -24.5t-44 -42t-24 -60.5q-12 -63 26.5 -101t116.5 -38q77 0 129 38t63 101q7 35 -1 60.5
t-27.5 42t-48.5 24.5t-65 8z" />
    <glyph glyph-name="nine" unicode="9" horiz-adv-x="630" 
d="M162 186q1 -54 31 -84t94 -30q39 0 72 14t59 46t46 83.5t33 127.5q-30 -44 -83.5 -67.5t-113.5 -23.5q-50 0 -89.5 14.5t-65.5 43t-35.5 70.5t0.5 97q9 49 32 91t58.5 72.5t83.5 47.5t107 17q73 0 117 -24t64.5 -69t21 -109t-14.5 -144q-16 -87 -39.5 -154t-60.5 -112.5
t-88.5 -69.5t-122.5 -24q-54 0 -91.5 15t-60.5 40.5t-32 59.5t-6 72h84zM329 325q33 0 62.5 10t53.5 29t41 46.5t23 62.5q13 70 -19.5 114.5t-110.5 44.5q-71 0 -119.5 -42t-61.5 -111q-12 -67 19 -110.5t112 -43.5z" />
    <glyph glyph-name="colon" unicode=":" horiz-adv-x="213" 
d="M126 56q-5 -26 -25.5 -44t-46.5 -18t-41 18t-10 44t26 44t47 18t40.5 -18t9.5 -44zM126 484q-5 -26 -25.5 -44t-46.5 -18t-41 18t-10 44t26 44t47 18t40.5 -18t9.5 -44z" />
    <glyph glyph-name="semicolon" unicode=";" horiz-adv-x="264" 
d="M231 485q-5 -26 -25.5 -44t-46.5 -18t-41 18t-10 44t26 44t47 18t40.5 -18t9.5 -44zM67 126h100l-159 -269h-61z" />
    <glyph glyph-name="less" unicode="&#x3c;" horiz-adv-x="555" 
d="M413 136h-114l-201 230l281 229h115l-282 -229z" />
    <glyph glyph-name="equal" unicode="=" horiz-adv-x="723" 
d="M103 299h520l-14 -81h-520zM141 514h520l-14 -81h-520z" />
    <glyph glyph-name="greater" unicode="&#x3e;" horiz-adv-x="539" 
d="M350 366l-201 229h114l201 -229l-281 -230h-115z" />
    <glyph glyph-name="question" unicode="?" horiz-adv-x="524" 
d="M75 505q8 45 30.5 82.5t56 63.5t76 40.5t91.5 14.5t87.5 -14.5t63 -41t34 -64.5t0.5 -86q-10 -55 -35 -94t-61.5 -64t-82.5 -36.5t-98 -11.5l-21 -95h-79l24 158h29q43 0 82.5 5.5t71 21t53.5 43.5t30 73q11 60 -19 95t-91 35q-62 0 -103.5 -33t-52.5 -92h-86zM212 56
q-5 -26 -25.5 -44t-46.5 -18t-41 18t-10 44t26 44t47 18t40.5 -18t9.5 -44z" />
    <glyph glyph-name="at" unicode="@" horiz-adv-x="1011" 
d="M720 -7q-51 0 -77.5 25.5t-31.5 67.5q-31 -44 -78 -68.5t-100 -24.5q-78 0 -120.5 47t-42.5 125q0 56 18 107.5t50 90.5t77.5 62.5t99.5 23.5q95 0 128 -72l11 62h80l-51 -289q-7 -43 2.5 -69t47.5 -26q33 0 57 24t40.5 60.5t24.5 80t8 82.5q0 131 -78.5 203t-222.5 72
q-90 0 -167 -33.5t-132.5 -92.5t-87 -138.5t-31.5 -171.5q0 -134 80 -204.5t222 -70.5q42 0 84.5 8t80.5 26l13 -62q-46 -19 -95.5 -28t-101.5 -9q-81 0 -147 23.5t-113 66.5t-72.5 104.5t-25.5 137.5q0 106 37.5 199t104.5 161.5t160 108t203 39.5q84 0 151.5 -24.5
t114.5 -68.5t72 -105.5t25 -135.5q0 -58 -14.5 -114t-42 -100.5t-68 -72t-92.5 -27.5zM624 247q2 27 -4 51t-19.5 42t-35 28.5t-50.5 10.5q-38 0 -67.5 -17.5t-50 -45.5t-31.5 -64t-11 -73q0 -51 25.5 -83t79.5 -32q33 0 62 14t51 39t35.5 58t15.5 72z" />
    <glyph glyph-name="A" unicode="A" horiz-adv-x="674" 
d="M466 155h-305l-83 -155h-96l374 693h105l129 -693h-96zM389 582l-190 -356h254z" />
    <glyph glyph-name="B" unicode="B" horiz-adv-x="613" 
d="M456 196q11 58 -23.5 92t-100.5 34h-158l-44 -250h161q68 0 111.5 33t53.5 91zM494 509q10 54 -19.5 85t-95.5 31h-151l-41 -231h153q64 0 104.5 30.5t49.5 84.5zM546 187q-7 -39 -28 -73.5t-54.5 -59.5t-78.5 -39.5t-99 -14.5h-260l124 697h250q55 0 94 -14t62 -38
t31 -56.5t1 -68.5q-11 -66 -53.5 -105t-96.5 -56q28 -5 50.5 -20.5t37 -38.5t20.5 -52t0 -61z" />
    <glyph glyph-name="C" unicode="C" horiz-adv-x="772" 
d="M54 349q14 78 52.5 144t93.5 113t123 73.5t141 26.5q114 0 189.5 -54.5t97.5 -156.5h-109q-18 61 -66.5 94.5t-125.5 33.5q-55 0 -105 -19t-90 -55t-68.5 -86.5t-39.5 -113.5t-0.5 -113.5t38 -86t71 -54.5t97.5 -19q77 0 137.5 33.5t99.5 93.5h109q-57 -101 -151.5 -155
t-208.5 -54q-73 0 -132 26t-97.5 73t-54 112.5t-1.5 143.5z" />
    <glyph glyph-name="D" unicode="D" horiz-adv-x="707" 
d="M367 697q85 0 149.5 -24.5t104 -69.5t54 -110t-0.5 -146q-14 -81 -51 -145.5t-93 -109t-128.5 -68.5t-158.5 -24h-217l124 697h217zM256 70q68 0 123 19.5t96.5 55.5t68 87t37.5 115t2.5 115t-37 87t-76.5 55t-116 19h-126l-98 -553h126z" />
    <glyph glyph-name="E" unicode="E" horiz-adv-x="513" 
d="M511 626h-283l-42 -239h253l-12 -70h-253l-44 -245h284l-13 -72h-375l124 698h374z" />
    <glyph glyph-name="F" unicode="F" horiz-adv-x="504" 
d="M150 697h393l-13 -71h-302l-42 -239h246l-13 -71h-246l-56 -316h-91z" />
    <glyph glyph-name="G" unicode="G" horiz-adv-x="778" 
d="M54 349q14 78 52.5 143.5t94 113t123.5 73.5t142 26q112 0 187.5 -54.5t97.5 -155.5h-109q-18 61 -67 94.5t-123 33.5q-55 0 -105.5 -19t-91 -55t-69 -86.5t-39.5 -113.5t-0.5 -113.5t38.5 -86t71.5 -54.5t98.5 -19q52 0 97.5 16t83 45.5t64.5 71.5t41 95h-278l13 72h375
l-13 -70q-17 -65 -54.5 -122t-90 -99t-117 -66.5t-135.5 -24.5q-74 0 -133 26t-98 73t-54.5 112.5t-1.5 143.5z" />
    <glyph glyph-name="H" unicode="H" horiz-adv-x="691" 
d="M528 318h-354l-57 -318h-91l124 697h91l-55 -308h355l54 308h91l-123 -697h-91z" />
    <glyph glyph-name="I" unicode="I" horiz-adv-x="246" 
d="M150 697h91l-124 -697h-91z" />
    <glyph glyph-name="J" unicode="J" horiz-adv-x="530" 
d="M408 697h92l-91 -515q-8 -44 -28 -78.5t-49.5 -59.5t-67.5 -38t-81 -13q-44 0 -77 13.5t-54 39t-28.5 61.5t0.5 82h91q-8 -48 10 -81.5t73 -33.5q27 0 47.5 8.5t35 23.5t24 34.5t13.5 41.5z" />
    <glyph glyph-name="K" unicode="K" horiz-adv-x="599" 
d="M174 318l-57 -318h-91l124 697h91l-57 -322l345 322h114l-377 -349l257 -348h-119z" />
    <glyph glyph-name="L" unicode="L" horiz-adv-x="432" 
d="M241 697l-111 -627h244l-13 -70h-335l124 697h91z" />
    <glyph glyph-name="M" unicode="M" horiz-adv-x="861" 
d="M149 692h98l155 -572l356 572h97l-122 -692h-91l91 516l-321 -516h-64l-140 514l-91 -514h-91z" />
    <glyph glyph-name="N" unicode="N" horiz-adv-x="703" 
d="M698 698l-124 -698h-91l-267 555l-99 -555h-91l124 698h91l268 -554l98 554h91z" />
    <glyph glyph-name="O" unicode="O" horiz-adv-x="786" 
d="M756 416q0 -90 -31 -167.5t-86 -134t-130.5 -89t-164.5 -32.5q-66 0 -120 21.5t-92 59.5t-59 91.5t-21 117.5q0 90 31 167t86 133.5t130.5 89t163.5 32.5q67 0 121 -21.5t92 -59.5t59 -91t21 -117zM146 289q0 -100 56.5 -157t154.5 -57q67 0 123.5 27t96.5 73t62.5 106.5
t22.5 128.5q0 100 -56.5 156.5t-155.5 56.5q-68 0 -124 -27t-96 -73t-62 -106.5t-22 -127.5z" />
    <glyph glyph-name="P" unicode="P" horiz-adv-x="579" 
d="M316 363q78 0 118.5 35.5t51.5 94.5q11 61 -17.5 96.5t-106.5 35.5h-134l-46 -262h134zM579 493q-7 -40 -26.5 -76.5t-53.5 -64.5t-83 -44.5t-113 -16.5h-134l-52 -291h-91l124 697h225q61 0 103.5 -16t67.5 -43.5t32.5 -64.5t0.5 -80z" />
    <glyph glyph-name="Q" unicode="Q" horiz-adv-x="788" 
d="M146 289q0 -100 56.5 -157t154.5 -57q67 0 123.5 27t96.5 73t62.5 106.5t22.5 128.5q0 100 -56.5 156.5t-155.5 56.5q-68 0 -124 -27t-96 -73t-62 -106.5t-22 -127.5zM756 416q0 -63 -15.5 -120t-44 -105.5t-69 -87t-90.5 -64.5l143 -171h-118l-113 138q-48 -13 -105 -13
q-66 0 -120 21.5t-92 59.5t-59 91.5t-21 117.5q0 90 31 167t86 133.5t130.5 89t163.5 32.5q67 0 121 -21.5t92 -59.5t59 -91t21 -117z" />
    <glyph glyph-name="R" unicode="R" horiz-adv-x="608" 
d="M486 492q11 61 -18 97t-107 36h-133l-47 -267h134q77 0 118.5 37.5t52.5 96.5zM374 697q61 0 104 -16t68 -44t33 -65t1 -80q-6 -33 -21 -65t-40 -58.5t-60 -46.5t-80 -30l123 -292h-109l-116 285h-109l-51 -285h-91l124 697h224z" />
    <glyph glyph-name="S" unicode="S" horiz-adv-x="582" 
d="M510 184q-2 -41 -19.5 -76t-49.5 -60.5t-77 -40t-100 -14.5q-51 0 -93.5 13.5t-71.5 38.5t-43 61t-9 80h90q-2 -22 5 -43.5t23 -38t41.5 -27t61.5 -10.5q66 0 105.5 28t42.5 82q3 42 -20.5 67.5t-60.5 44t-80.5 34.5t-80.5 39t-61.5 57.5t-22.5 89.5q0 44 18 80.5
t50 62.5t76 40t97 14q52 0 93 -13.5t68.5 -37.5t41 -57t11.5 -71h-95q1 19 -5.5 37.5t-22 33.5t-39.5 24t-57 9q-62 0 -101.5 -28t-42.5 -79q-2 -30 11.5 -51t37 -37t54 -29t62 -27t62 -30.5t53.5 -39t36.5 -53t11.5 -73.5z" />
    <glyph glyph-name="T" unicode="T" horiz-adv-x="541" 
d="M107 697h471l-13 -71h-190l-110 -626h-91l110 626h-190z" />
    <glyph glyph-name="U" unicode="U" horiz-adv-x="675" 
d="M148 697h91l-78 -440q-8 -48 -2 -82.5t25 -57t48.5 -33t67.5 -10.5q78 0 132.5 44t71.5 139l78 440h91l-78 -440q-12 -68 -41.5 -117.5t-71.5 -82t-92.5 -48.5t-104.5 -16t-99 16t-74.5 48.5t-41.5 82t0 117.5z" />
    <glyph glyph-name="V" unicode="V" horiz-adv-x="676" 
d="M94 697h98l111 -599l325 599h98l-387 -697h-105z" />
    <glyph glyph-name="W" unicode="W" horiz-adv-x="976" 
d="M95 697h98l48 -589l271 589h103l56 -587l256 587h98l-325 -697h-102l-63 561l-266 -561l-102 -1z" />
    <glyph glyph-name="X" unicode="X" horiz-adv-x="621" 
d="M303 273l-207 -273h-102l276 349l-152 348h102l119 -272l208 272h102l-276 -349l152 -348h-103z" />
    <glyph glyph-name="Y" unicode="Y" horiz-adv-x="584" 
d="M91 697h102l109 -351l233 351h103l-304 -434l-47 -263h-91l47 263z" />
    <glyph glyph-name="Z" unicode="Z" horiz-adv-x="541" 
d="M551 625l-434 -546h341l-15 -79h-448l13 72l434 546h-335l15 79h442z" />
    <glyph glyph-name="bracketleft" unicode="[" horiz-adv-x="423" 
d="M248 942h180l-13 -76h-95l-170 -968h94l-14 -76h-180z" />
    <glyph glyph-name="backslash" unicode="\" horiz-adv-x="509" 
d="M354 -170h-89l-87 1112h90z" />
    <glyph glyph-name="bracketright" unicode="]" horiz-adv-x="423" 
d="M406 934l-197 -1120h-180l13 76h94l172 969h-95l13 75h180z" />
    <glyph glyph-name="asciicircum" unicode="^" horiz-adv-x="629" 
d="M368 581l-258 -412h-94l328 524h84l144 -524h-95z" />
    <glyph glyph-name="underscore" unicode="_" horiz-adv-x="733" 
d="M47 -38h533l-15 -84h-532z" />
    <glyph glyph-name="grave" unicode="`" horiz-adv-x="257" 
d="M105 782l190 -125l-12 -68l-192 114z" />
    <glyph glyph-name="a" unicode="a" horiz-adv-x="676" 
d="M40 276q11 64 40.5 116t71 88.5t92.5 56.5t107 20q38 0 68.5 -9t53.5 -24t38.5 -35t23.5 -41l18 100h92l-97 -548h-92l19 102q-17 -22 -40 -42t-51.5 -35.5t-62 -24.5t-71.5 -9q-55 0 -99 20.5t-72.5 58t-39 90t0.5 116.5zM505 275q9 48 0.5 85.5t-29.5 63.5t-52.5 40
t-68.5 14q-38 0 -74 -13.5t-66 -39t-51.5 -63.5t-29.5 -86q-9 -48 -0.5 -86.5t29 -64.5t51.5 -40t69 -14q37 0 73.5 13.5t66.5 40t51.5 64.5t30.5 86z" />
    <glyph glyph-name="b" unicode="b" horiz-adv-x="676" 
d="M196 446q35 46 93 78.5t131 32.5q56 0 100 -20t72.5 -56.5t39 -88.5t-0.5 -116t-40.5 -116.5t-71 -90t-92.5 -58t-106 -20.5q-75 0 -121.5 32.5t-64.5 77.5l-18 -101h-91l131 740h91zM538 276q9 48 0.5 86t-29 63.5t-52 39t-69.5 13.5q-37 0 -73 -14t-66.5 -40t-52 -63.5
t-30.5 -85.5t-0.5 -86t29.5 -64.5t52.5 -40t68.5 -13.5q38 0 74 14t66 40t51.5 64.5t30.5 86.5z" />
    <glyph glyph-name="c" unicode="c" horiz-adv-x="607" 
d="M40 275q12 64 41 116.5t71 89t94.5 56.5t111.5 20q103 0 158.5 -49t61.5 -136h-98q-5 50 -40 79t-96 29q-38 0 -72 -13t-62 -39t-47.5 -64.5t-28.5 -88.5q-9 -51 -2.5 -89.5t25 -65t48 -39.5t67.5 -13q60 0 104.5 28t68.5 80h98q-18 -41 -45.5 -75t-63.5 -58.5t-80.5 -38
t-95.5 -13.5q-59 0 -104.5 20t-74.5 57t-40 89.5t1 117.5z" />
    <glyph glyph-name="d" unicode="d" horiz-adv-x="676" 
d="M40 276q11 64 40.5 116t71 88.5t93 56.5t107.5 20q65 0 114 -29.5t70 -77.5l51 290h92l-131 -740h-92l19 103q-17 -23 -40 -43.5t-51.5 -35.5t-62 -24t-70.5 -9q-55 0 -99 20.5t-72.5 58t-39.5 90t0 116.5zM505 275q9 48 0.5 85.5t-29.5 63.5t-52.5 40t-68.5 14
q-38 0 -74 -13.5t-66 -39t-51.5 -63.5t-29.5 -86q-9 -48 -0.5 -86.5t29 -64.5t51.5 -40t69 -14q37 0 73.5 13.5t66.5 40t51.5 64.5t30.5 86z" />
    <glyph glyph-name="e" unicode="e" horiz-adv-x="620" 
d="M344 480q-34 0 -66 -11.5t-59 -33t-48 -53.5t-31 -73h347q7 42 -1 74t-28 53.5t-49.5 32.5t-64.5 11zM545 169q-17 -38 -44.5 -70.5t-63.5 -56.5t-80 -37.5t-95 -13.5q-59 0 -105 20t-76 57t-41.5 89.5t0.5 117.5t41 117t71.5 89t95.5 56.5t113 19.5t105 -20t73.5 -54.5
t39 -82.5t0.5 -103q-4 -26 -13 -54h-438q-5 -42 4 -74.5t29 -55t49.5 -34t65.5 -11.5q62 0 105 28t66 73h98z" />
    <glyph glyph-name="f" unicode="f" horiz-adv-x="329" 
d="M126 473h-70l13 75h70l7 39q17 92 71.5 134.5t160.5 42.5l-13 -76q-62 0 -90 -23.5t-37 -77.5l-7 -39h115l-13 -75h-115l-84 -473h-91z" />
    <glyph glyph-name="g" unicode="g" horiz-adv-x="676" 
d="M40 276q11 64 40.5 116t71 88.5t92.5 56.5t107 20q37 0 67.5 -8.5t53.5 -23.5t39 -35t24 -42l18 100h92l-99 -560q-10 -57 -37 -104t-67 -81.5t-91.5 -53.5t-111.5 -19q-54 0 -97.5 13t-73.5 38t-46 60t-15 79h91q6 -50 46.5 -80.5t108.5 -30.5q36 0 69.5 11.5t60 34
t45.5 56t27 77.5l20 115q-17 -22 -40 -42.5t-51.5 -36t-62 -24.5t-70.5 -9q-55 0 -99 20.5t-72.5 58t-39.5 90t0 116.5zM505 275q9 48 0.5 85.5t-29.5 63.5t-52.5 40t-68.5 14q-38 0 -74 -13.5t-66 -39t-51.5 -63.5t-29.5 -86q-9 -48 -0.5 -86.5t29 -64.5t51.5 -40t69 -14
q37 0 73.5 13.5t66.5 40t51.5 64.5t30.5 86z" />
    <glyph glyph-name="h" unicode="h" 
d="M157 740h91l-48 -271q35 43 87 66t110 23q46 0 83 -14.5t61.5 -44t33.5 -73.5t-1 -103l-57 -323h-90l55 310q14 85 -20 127t-103 42q-70 0 -121 -43.5t-67 -132.5v2l-54 -305h-91z" />
    <glyph glyph-name="i" unicode="i" horiz-adv-x="246" 
d="M123 548h91l-97 -548h-91zM192 637q-27 0 -44 18.5t-15 45.5t21.5 45.5t46.5 18.5q26 0 43 -18.5t15 -45.5t-21.5 -45.5t-45.5 -18.5z" />
    <glyph glyph-name="j" unicode="j" horiz-adv-x="248" 
d="M217 548l-118 -667q-13 -75 -56 -108t-113 -33h-54l14 77h38q38 0 56 15t24 51l118 665h91zM194 637q-27 0 -44 18.5t-15 45.5t21.5 45.5t46.5 18.5q26 0 43 -18.5t15 -45.5t-21.5 -45.5t-45.5 -18.5z" />
    <glyph glyph-name="k" unicode="k" horiz-adv-x="515" 
d="M157 740h91l-77 -434l254 242h126l-305 -274l210 -274h-124l-172 241l-43 -241h-91z" />
    <glyph glyph-name="l" unicode="l" horiz-adv-x="246" 
d="M157 740h91l-131 -740h-91z" />
    <glyph glyph-name="m" unicode="m" horiz-adv-x="1030" 
d="M872 310q14 85 -19 127t-101 42q-66 0 -115.5 -40.5t-67.5 -121.5l-57 -317h-90l55 310q15 85 -18 127t-102 42t-120 -44t-66 -133v2l-54 -304h-91l97 548h91l-14 -79q35 44 85 66.5t104 22.5q68 0 115.5 -30.5t63.5 -91.5q17 30 41 52.5t52.5 38t59.5 23.5t63 8
q46 0 84 -14.5t63 -44t34 -73.5t-1 -103l-57 -323h-90z" />
    <glyph glyph-name="n" unicode="n" 
d="M482 310q14 85 -20 127t-103 42q-70 0 -121 -43.5t-67 -132.5v2l-54 -305h-91l97 548h91l-14 -79q35 44 85.5 66.5t106.5 22.5q47 0 85.5 -14.5t63.5 -44t34 -73.5t-1 -103l-57 -323h-90z" />
    <glyph glyph-name="o" unicode="o" 
d="M600 328q0 -71 -25.5 -132t-70 -107t-105.5 -72t-132 -26q-52 0 -95 16.5t-73.5 46.5t-47 72t-16.5 93q0 70 25 131.5t69 107.5t104.5 72.5t131.5 26.5q52 0 95.5 -16t74.5 -46t48 -72.5t17 -94.5zM129 223q0 -39 11.5 -68t32 -48.5t47.5 -29t58 -9.5q50 0 92 21t72 56
t47 81.5t17 96.5q0 40 -12.5 69.5t-33.5 49t-49 29t-59 9.5q-50 0 -91.5 -21t-70.5 -56.5t-45 -82t-16 -97.5z" />
    <glyph glyph-name="p" unicode="p" horiz-adv-x="676" 
d="M196 447q16 22 39.5 42t52 35t62 24t70.5 9q55 0 99.5 -20t73 -56.5t39 -88.5t-0.5 -116t-40.5 -116.5t-71 -90t-92.5 -58t-106 -20.5q-38 0 -68 9.5t-53 24.5t-39.5 35t-25.5 41l-63 -361h-91l142 808h91zM538 276q9 48 0.5 86t-29 63.5t-52 39t-69.5 13.5
q-37 0 -73 -14t-66.5 -40t-52 -63.5t-30.5 -85.5t-0.5 -86t29.5 -64.5t52.5 -40t68.5 -13.5q38 0 74 14t66 40t51.5 64.5t30.5 86.5z" />
    <glyph glyph-name="q" unicode="q" horiz-adv-x="676" 
d="M40 276q11 64 40.5 116t71 88.5t93 56.5t107.5 20q37 0 67.5 -9t53.5 -24t38.5 -35t23.5 -41l18 100h92l-143 -808h-91l63 361q-15 -21 -37.5 -41t-51.5 -35t-63.5 -24.5t-72.5 -9.5q-54 0 -98 20.5t-72.5 58t-39 90t0.5 116.5zM505 275q9 48 0.5 85.5t-29.5 63.5
t-52.5 40t-68.5 14q-38 0 -74 -13.5t-66 -39t-51.5 -63.5t-29.5 -86q-9 -48 -0.5 -86.5t29 -64.5t51.5 -40t69 -14q37 0 73.5 13.5t66.5 40t51.5 64.5t30.5 86z" />
    <glyph glyph-name="r" unicode="r" horiz-adv-x="373" 
d="M117 0h-91l97 548h91l-18 -104q32 53 81.5 83.5t115.5 30.5l-17 -94h-24q-33 0 -62 -8t-53 -27.5t-41 -51t-26 -79.5z" />
    <glyph glyph-name="s" unicode="s" horiz-adv-x="522" 
d="M439 149q0 -37 -16.5 -66t-46 -49.5t-70 -31.5t-87.5 -11q-45 0 -82.5 12t-64 34t-40 53.5t-8.5 70.5h89q-4 -42 25 -69.5t86 -27.5q54 0 89.5 21t35.5 61q0 28 -20.5 45.5t-51.5 30.5t-66.5 26t-66.5 31.5t-51.5 47t-20.5 73.5q0 35 15.5 64t43 49.5t66 32t84.5 11.5
q45 0 82 -12.5t63 -35t38.5 -54t7.5 -70.5h-87q5 45 -25.5 72t-84.5 27q-49 0 -80.5 -21.5t-31.5 -59.5q0 -30 20.5 -48t51 -32t66.5 -27t66.5 -31t51 -45.5t20.5 -70.5z" />
    <glyph glyph-name="t" unicode="t" horiz-adv-x="364" 
d="M129 473h-70l13 75h71l24 138h92l-24 -138h142l-13 -75h-143l-57 -323q-8 -41 6.5 -57t56.5 -16h67l-14 -77h-82q-73 0 -106.5 33.5t-19.5 116.5z" />
    <glyph glyph-name="u" unicode="u" 
d="M512 0h-91l14 80q-34 -43 -85 -65.5t-105 -22.5q-47 0 -85.5 14.5t-64 44t-35 73.5t0.5 103l57 321h90l-54 -309q-14 -84 20 -126t103 -42q35 0 66 11t55.5 33t41.5 55t24 77v-3l54 304h91z" />
    <glyph glyph-name="v" unicode="v" horiz-adv-x="561" 
d="M156 548l89 -462l252 462h98l-312 -548h-107l-118 548h98z" />
    <glyph glyph-name="w" unicode="w" horiz-adv-x="820" 
d="M58 548h93l45 -460l216 460h94l52 -457l205 457h90l-268 -548h-94l-54 436l-210 -436h-94z" />
    <glyph glyph-name="x" unicode="x" horiz-adv-x="479" 
d="M218 204l-161 -204h-96l226 272l-128 276h103l93 -202l160 202h96l-224 -271l128 -277h-103z" />
    <glyph glyph-name="y" unicode="y" horiz-adv-x="563" 
d="M58 548h101l93 -442l249 442h94l-472 -806h-95l155 264z" />
    <glyph glyph-name="z" unicode="z" horiz-adv-x="455" 
d="M444 474l-336 -399h269l-14 -75h-373l13 75l337 399h-264l13 74h368z" />
    <glyph glyph-name="braceleft" unicode="{" horiz-adv-x="462" 
d="M203 262q0 32 -21 50t-66 26l13 71q57 10 85 37t36 68q5 29 8 63.5t5.5 70t5.5 71t9 67.5q13 74 60.5 111t113.5 37h58l-14 -79h-41q-38 0 -60 -17t-30 -58q-5 -29 -8 -62.5t-5.5 -69t-5.5 -71t-9 -66.5q-9 -53 -40 -89t-90 -47l-1 -2q45 -11 65.5 -34t20.5 -61
q0 -17 -5.5 -45t-13.5 -61t-17 -68t-17 -67t-13.5 -57.5t-5.5 -38.5q0 -49 66 -49h41l-15 -79h-58q-57 0 -91 28t-34 85q0 28 11.5 76t25.5 98.5t25.5 95t11.5 66.5z" />
    <glyph glyph-name="bar" unicode="|" horiz-adv-x="291" 
d="M281 795l-160 -901h-91l160 901h91z" />
    <glyph glyph-name="braceright" unicode="}" horiz-adv-x="462" 
d="M368 338q-58 -11 -86 -39t-34 -66q-6 -29 -9 -63.5t-5.5 -70t-5.5 -71t-9 -67.5q-13 -74 -60.5 -111t-113.5 -37h-58l14 79h41q38 0 60 17t29 58q5 28 8 62t6 69.5l6 71t9 66.5q9 51 40.5 87.5t91.5 49.5l1 2q-56 12 -74.5 48.5t-10.5 87.5q6 31 15 66.5t19 71t19 69
t14 62.5q7 41 -9.5 58t-54.5 17h-40l13 79h58q66 0 101 -37t22 -111q-6 -32 -15.5 -67.5t-19.5 -71t-19 -70t-14 -63.5q-7 -38 11 -66t73 -39z" />
    <glyph glyph-name="asciitilde" unicode="~" horiz-adv-x="519" 
d="M30 248q27 75 70 110.5t97 35.5q28 0 48 -10t37 -22.5t33.5 -22.5t38.5 -10q24 0 46 16.5t32 47.5h68q-26 -76 -70 -111t-98 -35q-29 0 -48.5 10t-36 22.5t-33 22.5t-38.5 10q-25 0 -46.5 -17t-32.5 -47h-67v0z" />
    <glyph glyph-name="uni00A0" unicode="&#xa0;" horiz-adv-x="298" 
 />
    <glyph glyph-name="exclamdown" unicode="&#xa1;" horiz-adv-x="335" 
d="M143 -139h-97l99 500h76zM143 502q5 26 25.5 44t46.5 18t41 -18t10 -44t-26 -44t-47 -18t-40.5 18t-9.5 44z" />
    <glyph glyph-name="cent" unicode="&#xa2;" horiz-adv-x="665" 
d="M538 184q-11 -36 -33.5 -67.5t-53.5 -55t-70 -38.5t-84 -18l-17 -94h-54l17 94q-54 5 -93 26.5t-61.5 55.5t-30 78.5t1.5 96.5t32 96.5t58 78.5t81 55.5t102 26.5l16 92h54l-16 -92q88 -7 135 -56t43 -122h-85q-3 48 -35 76t-95 28q-75 0 -131 -47t-73 -136
q-8 -44 -1 -78t26 -57t48.5 -35t66.5 -12q63 0 105 28t62 76h85v0z" />
    <glyph glyph-name="sterling" unicode="&#xa3;" horiz-adv-x="620" 
d="M147 508q9 48 31.5 87t56 66.5t76.5 42.5t91 15q54 0 91 -17t58.5 -45.5t28.5 -66t1 -79.5h-83q8 57 -17.5 94t-91.5 37q-27 0 -52.5 -8t-46.5 -24.5t-36 -42.5t-21 -63t-3 -69t8 -63h194l-11 -64h-174q1 -15 0.5 -30.5t-2.5 -31.5q-9 -50 -34 -92t-68 -80h364l-13 -76
h-446l-7 52q45 41 75.5 84.5t42.5 111.5q3 17 3.5 32.5t-1.5 29.5h-113l11 64h91q-5 29 -7.5 61.5t4.5 74.5z" />
    <glyph glyph-name="currency" unicode="&#xa4;" horiz-adv-x="537" 
d="M388 377q5 30 0.5 52.5t-16 38t-29 23.5t-38.5 8q-42 0 -77.5 -31t-46.5 -91q-5 -30 -1 -53t15 -38t28 -23t38 -8q41 0 78.5 31t48.5 91zM361 230q-25 -14 -53 -22t-57 -8q-59 0 -97 29l-70 -59l-35 42l70 59q-21 45 -11 106q5 32 18 59t32 48l-50 60l50 42l50 -61
q49 29 107 29t98 -29l72 61l34 -42l-71 -60q11 -21 15 -48t-1 -59q-5 -31 -18.5 -57.5t-32.5 -48.5l49 -59l-49 -42z" />
    <glyph glyph-name="yen" unicode="&#xa5;" horiz-adv-x="595" 
d="M231 315l-172 2l11 66h137l-110 314h102l109 -351l233 351h103l-220 -314h137l-11 -66l-173 -2l-37 -52l-7 -39h200l-12 -67h-200l-28 -157h-91l28 157h-200l12 67h200l7 39z" />
    <glyph glyph-name="brokenbar" unicode="&#xa6;" horiz-adv-x="291" 
d="M189 273l-68 -379h-91l68 379h91zM123 417l67 378h91l-67 -378h-91z" />
    <glyph glyph-name="section" unicode="&#xa7;" horiz-adv-x="575" 
d="M123 555q6 32 25 60.5t49 50t70.5 34t88.5 12.5q45 0 81 -11t60 -32t35 -52t5 -71h-91q2 20 -2.5 38.5t-16.5 32.5t-32 22t-50 8q-53 0 -87 -21t-42 -63q-3 -19 1.5 -34t20.5 -28.5t45 -27t73 -28.5t78 -32t56.5 -39t31.5 -50.5t2 -65.5q-10 -55 -51.5 -98t-115.5 -65
q21 -11 38.5 -23.5t29.5 -28.5t16.5 -36.5t-0.5 -45.5q-6 -32 -24.5 -60.5t-48.5 -50t-70 -34t-88 -12.5q-45 0 -81.5 11t-60.5 32t-35 51.5t-5 70.5h91q-2 -21 2.5 -39.5t16.5 -32t33 -21.5t51 -8q52 0 85.5 21t41.5 65q3 19 -2 33.5t-21 28t-44.5 26.5t-72.5 28t-78 32.5
t-56.5 39.5t-31.5 50t-3 66q10 55 53 98.5t115 63.5q-21 11 -38.5 24t-29.5 29t-17 36t0 46zM431 258q9 49 -25.5 81.5t-104.5 32.5q-35 0 -64 -9t-51 -25t-35.5 -36.5t-17.5 -43.5q-8 -48 26 -81.5t105 -33.5q35 0 64 9.5t50.5 25t35 36.5t17.5 44z" />
    <glyph glyph-name="dieresis" unicode="&#xa8;" horiz-adv-x="314" 
d="M135 622q-20 0 -32.5 12t-12.5 31q0 25 19 43.5t44 18.5q20 0 32 -12.5t12 -30.5q0 -26 -19.5 -44t-42.5 -18zM298 622q-20 0 -32.5 12t-12.5 31q0 25 19 43.5t44 18.5q19 0 31.5 -12.5t12.5 -30.5q0 -26 -19.5 -44t-42.5 -18z" />
    <glyph glyph-name="copyright" unicode="&#xa9;" horiz-adv-x="792" 
d="M470 704q77 0 136 -26t96.5 -73.5t51.5 -112.5t0 -143t-51 -143t-91 -112.5t-122 -73.5t-145 -26t-136.5 26t-97 73.5t-51.5 112.5t0 143t51 143t91 112.5t122.5 73.5t145.5 26zM464 665q-71 0 -131.5 -23t-107.5 -64.5t-78.5 -99.5t-43.5 -129t-1 -129t43 -100t84.5 -65
t122.5 -23t130 23t107 65t78.5 100t43.5 129q13 71 2 129t-43 99.5t-84 64.5t-122 23zM447 581q75 0 123 -38.5t55 -110.5h-84q-5 41 -34 62t-72 21q-57 0 -103.5 -41.5t-61.5 -124.5q-7 -41 -2 -72t20 -51.5t37.5 -31t51.5 -10.5q47 0 80.5 21.5t54.5 61.5h84
q-32 -68 -93.5 -108.5t-137.5 -40.5q-45 0 -81.5 16t-60.5 46t-33.5 73t-0.5 97q10 54 34.5 97t59 72.5t77 45.5t87.5 16z" />
    <glyph glyph-name="ordfeminine" unicode="&#xaa;" horiz-adv-x="450" 
d="M76 530q7 40 25.5 73t45 56.5t59 36.5t68.5 13q50 0 79.5 -21.5t38.5 -55.5l12 71h72l-61 -350h-72l12 71q-20 -34 -57 -55.5t-87 -21.5q-36 0 -64 13.5t-46 38t-25 58t0 73.5zM373 528q11 60 -16.5 92t-73.5 32q-23 0 -44.5 -8t-39.5 -24t-31 -38.5t-18 -52.5t0 -53
t17.5 -39t31 -24.5t40.5 -8.5q47 0 85.5 32t48.5 92z" />
    <glyph glyph-name="guillemotleft" unicode="&#xab;" horiz-adv-x="461" 
d="M201 120h-90l-65 175l127 175h89l-130 -175zM381 120h-90l-65 175l127 175h90l-130 -175z" />
    <glyph glyph-name="logicalnot" unicode="&#xac;" horiz-adv-x="738" 
d="M71 432h641l-38 -212h-90l25 140h-551z" />
    <glyph glyph-name="uni00AD" unicode="&#xad;" horiz-adv-x="551" 
d="M79 405h399l-14 -77h-399z" />
    <glyph glyph-name="registered" unicode="&#xae;" horiz-adv-x="509" 
d="M325 667q-37 0 -69 -12t-56.5 -34t-41.5 -52.5t-23 -66.5q-13 -73 22 -119t109 -46q36 0 68 12t57 34t42 52.5t23 66.5q13 73 -22.5 119t-108.5 46zM259 297q-45 0 -79.5 15.5t-56.5 43t-30.5 65t-0.5 81.5t29.5 81.5t53.5 64.5t72 42.5t85 15.5q44 0 78.5 -15.5
t56.5 -42.5t30 -64.5t1 -81.5q-8 -44 -30 -81.5t-53.5 -65t-71.5 -43t-84 -15.5zM392 544q-4 -24 -19.5 -40.5t-38.5 -23.5l41 -83l-62 -1l-35 80h-16l-15 -80h-52l38 215h97q33 0 50 -18t12 -49zM277 563l-7 -42h40q23 0 28 21q2 11 -4 16t-17 5h-40z" />
    <glyph glyph-name="macron" unicode="&#xaf;" horiz-adv-x="387" 
d="M92 709h352l-12 -68h-352z" />
    <glyph glyph-name="degree" unicode="&#xb0;" horiz-adv-x="410" 
d="M70 524q7 40 26 72.5t46.5 55t62 35t73.5 12.5q38 0 68 -12.5t49.5 -35t27 -55t0.5 -72.5t-26 -72.5t-47 -56t-62.5 -36t-73.5 -12.5q-78 0 -118 48t-26 129zM349 524q10 59 -14.5 90.5t-67.5 31.5q-42 0 -77.5 -31t-46.5 -91q-5 -30 -1.5 -53t14.5 -38.5t28.5 -23
t38.5 -7.5t41.5 7.5t37.5 23t29.5 38.5t17.5 53z" />
    <glyph glyph-name="plusminus" unicode="&#xb1;" horiz-adv-x="686" 
d="M446 624l-30 -168h211l-15 -82h-210l-32 -177h211l-14 -81h-509l14 81h211l32 177h-212l15 82h211l30 168h87z" />
    <glyph glyph-name="twosuperior" unicode="&#xb2;" horiz-adv-x="330" 
d="M86 603q11 46 48.5 76.5t99.5 30.5q29 0 51 -9t35.5 -24t19 -35t1.5 -42q-8 -40 -36 -69.5t-81 -63.5l-89 -56h176l-11 -59h-257l9 52l125 88q33 24 57 48.5t30 56.5q5 28 -7.5 42.5t-34.5 14.5q-24 0 -40 -13.5t-23 -37.5h-73v0z" />
    <glyph glyph-name="threesuperior" unicode="&#xb3;" horiz-adv-x="332" 
d="M84 611q12 44 53 71.5t101 27.5q28 0 50.5 -8t37.5 -22t22 -32.5t3 -40.5q-5 -31 -26 -50.5t-50 -27.5v-2q25 -9 40 -30t10 -53q-7 -40 -49 -68.5t-105 -28.5q-60 0 -92 28t-26 79h71q-1 -28 14 -40.5t41 -12.5q28 0 47 14t23 38q5 25 -10.5 38.5t-43.5 13.5h-43l9 48h41
q28 0 47 12.5t24 37.5q5 23 -8.5 37.5t-41.5 14.5q-27 0 -44.5 -12t-25.5 -32h-69v0z" />
    <glyph glyph-name="acute" unicode="&#xb4;" horiz-adv-x="247" 
d="M318 782l-14 -79l-234 -114l12 68z" />
    <glyph glyph-name="uni00B5" unicode="&#xb5;" horiz-adv-x="645" 
d="M517 0h-91l18 99q-36 -54 -89 -81t-112 -27q-37 0 -68.5 14t-48.5 48l-55 -313h-90l142 808h90l-53 -300q-16 -90 19.5 -134.5t104.5 -44.5t119.5 44t65.5 132v-1l54 304h91z" />
    <glyph glyph-name="paragraph" unicode="&#xb6;" horiz-adv-x="596" 
d="M590 692l-123 -692h-81l110 621h-77l-110 -621h-81l50 286h-10q-62 0 -103.5 15.5t-66 43t-32 64.5t0.5 79q7 43 28 80t55 64.5t81.5 43.5t107.5 16h251z" />
    <glyph glyph-name="periodcentered" unicode="&#xb7;" horiz-adv-x="212" 
d="M129 341q-5 -26 -25.5 -44t-46.5 -18t-41 18t-10 44t26 44t47 18t40.5 -18t9.5 -44z" />
    <glyph glyph-name="cedilla" unicode="&#xb8;" horiz-adv-x="272" 
d="M65 -58q57 1 88.5 -24t22.5 -75q-8 -47 -47.5 -75t-92.5 -28h-115l10 59h97q32 0 49.5 10t22.5 34q5 23 -9.5 33t-46.5 10h-51l22 121h61z" />
    <glyph glyph-name="onesuperior" unicode="&#xb9;" horiz-adv-x="196" 
d="M142 648h-54l10 56h126l-62 -352h-72z" />
    <glyph glyph-name="ordmasculine" unicode="&#xba;" horiz-adv-x="436" 
d="M75 528q7 41 27 74.5t48.5 57t64.5 36.5t75 13q40 0 72 -13t53 -36.5t29 -57t1 -74.5t-27 -74.5t-48.5 -57.5t-64.5 -37t-75 -13q-40 0 -71.5 13t-52.5 37t-29.5 57.5t-1.5 74.5zM371 527q6 31 0.5 55t-18 40t-31.5 24t-41 8q-44 0 -82 -32t-49 -95q-6 -31 -1 -54.5
t17.5 -39t31.5 -23.5t41 -8q44 0 82.5 31t49.5 94z" />
    <glyph glyph-name="guillemotright" unicode="&#xbb;" horiz-adv-x="461" 
d="M201 120l129 175l-68 175h90l65 -175l-127 -175h-89zM20 120l130 175l-68 175h89l65 -175l-127 -175h-89z" />
    <glyph glyph-name="onequarter" unicode="&#xbc;" 
d="M508 698h86l-497 -698h-86zM571 116l-8 -47h-48l-12 -69h-72l12 69h-183l8 42l200 242h98l-43 -237h48zM453 116l31 175l-142 -175h111zM157 648h-54l10 56h126l-62 -352h-72z" />
    <glyph glyph-name="onehalf" unicode="&#xbd;" horiz-adv-x="675" 
d="M495 698h87l-489 -698h-87zM158 648h-54l10 56h126l-62 -352h-72zM429 250q11 46 48.5 76.5t99.5 30.5q29 0 51 -9t35.5 -24t19 -35t1.5 -42q-8 -40 -36 -69.5t-81 -63.5l-89 -56h176l-11 -59h-257l9 52l125 88q33 24 57 48.5t30 56.5q5 28 -7.5 42.5t-34.5 14.5
q-24 0 -40 -13.5t-23 -37.5h-73z" />
    <glyph glyph-name="threequarters" unicode="&#xbe;" horiz-adv-x="691" 
d="M592 698h86l-512 -698h-86zM631 116l-8 -47h-48l-12 -69h-72l12 69h-182l7 42l200 242h98l-42 -237h47zM513 116l31 175l-142 -175h111zM99 611q12 44 53 71.5t101 27.5q28 0 50.5 -8t37.5 -22t22 -32.5t3 -40.5q-5 -31 -26 -50.5t-50 -27.5v-2q25 -9 40 -30t10 -53
q-7 -40 -49 -68.5t-105 -28.5q-60 0 -92 28t-26 79h71q-1 -28 14 -40.5t41 -12.5q28 0 47 14t23 38q5 25 -10.5 38.5t-43.5 13.5h-43l9 48h41q28 0 47 12.5t24 37.5q5 23 -8.5 37.5t-41.5 14.5q-27 0 -44.5 -12t-25.5 -32h-69z" />
    <glyph glyph-name="questiondown" unicode="&#xbf;" horiz-adv-x="519" 
d="M447 45q-8 -45 -30.5 -82.5t-56 -63.5t-76 -40.5t-91.5 -14.5t-87.5 14.5t-63 41t-34 64.5t-0.5 86q10 55 35 94t61.5 64t82.5 36.5t98 11.5l21 95h79l-24 -158h-29q-43 0 -82.5 -5.5t-71 -21t-53.5 -43.5t-30 -73q-11 -60 19 -95t91 -35q62 0 103.5 33t52.5 92h86z
M310 494q5 26 25.5 44t46.5 18t41 -18t10 -44t-26 -44t-47 -18t-40.5 18t-9.5 44z" />
    <glyph glyph-name="Agrave" unicode="&#xc0;" horiz-adv-x="674" 
d="M466 155h-305l-83 -155h-96l374 693h105l129 -693h-96zM389 582l-190 -356h254zM331 921l180 -111l-41 -58l-186 100z" />
    <glyph glyph-name="Aacute" unicode="&#xc1;" horiz-adv-x="674" 
d="M466 155h-305l-83 -155h-96l374 693h105l129 -693h-96zM389 582l-190 -356h254zM553 851l-212 -99l-35 59l212 110z" />
    <glyph glyph-name="Acircumflex" unicode="&#xc2;" horiz-adv-x="674" 
d="M466 155h-305l-83 -155h-96l374 693h105l129 -693h-96zM389 582l-190 -356h254zM288 742l-36 55l186 110l148 -110l-50 -55l-110 80z" />
    <glyph glyph-name="Atilde" unicode="&#xc3;" horiz-adv-x="674" 
d="M466 155h-305l-83 -155h-96l374 693h105l129 -693h-96zM389 582l-190 -356h254zM253 754q11 61 42 92t74 31q22 0 38.5 -8t29 -18t24 -18t24.5 -8q33 0 42 49h69q-9 -60 -41.5 -91t-74.5 -31q-23 0 -39.5 8t-29 18t-23.5 18t-24 8q-32 0 -41 -50h-70z" />
    <glyph glyph-name="Adieresis" unicode="&#xc4;" horiz-adv-x="674" 
d="M466 155h-305l-83 -155h-96l374 693h105l129 -693h-96zM341 767q-20 0 -32.5 12t-12.5 31q0 25 19 43.5t44 18.5q20 0 32 -12.5t12 -30.5q0 -26 -19.5 -44t-42.5 -18zM504 767q-20 0 -32.5 12t-12.5 31q0 25 19 43.5t44 18.5q19 0 31.5 -12.5t12.5 -30.5q0 -26 -19.5 -44
t-42.5 -18zM389 582l-190 -356h254z" />
    <glyph glyph-name="Aring" unicode="&#xc5;" horiz-adv-x="674" 
d="M466 155h-305l-83 -155h-96l374 693h105l129 -693h-96zM494 858q5 26 -9 41t-38 15q-23 0 -41.5 -15t-23.5 -41t8.5 -41.5t36.5 -15.5q24 0 43 15.5t24 41.5zM333 857q9 49 44.5 77t78.5 28q45 0 69.5 -28t16.5 -77q-9 -49 -44 -77t-79 -28q-43 0 -68.5 28t-17.5 77z
M389 582l-190 -356h254z" />
    <glyph glyph-name="AE" unicode="&#xc6;" horiz-adv-x="900" 
d="M227 226h227l71 403zM615 626l-42 -239h253l-12 -70h-253l-43 -245h282l-13 -72h-373l27 155h-266l-115 -155h-100l519 698h432l-13 -72h-283z" />
    <glyph glyph-name="Ccedilla" unicode="&#xc7;" horiz-adv-x="772" 
d="M54 349q14 78 52.5 144t93.5 113t123 73.5t141 26.5q114 0 189.5 -54.5t97.5 -156.5h-109q-18 61 -66.5 94.5t-125.5 33.5q-55 0 -105 -19t-90 -55t-68.5 -86.5t-39.5 -113.5t-0.5 -113.5t38 -86t71 -54.5t97.5 -19q77 0 137.5 33.5t99.5 93.5h109q-53 -93 -137 -146.5
t-187 -61.5l-9 -53q57 1 88.5 -24t22.5 -75q-8 -47 -47.5 -75t-92.5 -28h-115l10 59h97q32 0 49.5 10t22.5 34q5 23 -9.5 33t-46.5 10h-51l20 109q-68 4 -122 32t-89 74.5t-48.5 109.5t-0.5 138z" />
    <glyph glyph-name="Egrave" unicode="&#xc8;" horiz-adv-x="513" 
d="M511 626h-283l-42 -239h253l-12 -70h-253l-44 -245h284l-13 -72h-375l124 698h374zM273 921l180 -111l-41 -58l-186 100z" />
    <glyph glyph-name="Eacute" unicode="&#xc9;" horiz-adv-x="513" 
d="M511 626h-283l-42 -239h253l-12 -70h-253l-44 -245h284l-13 -72h-375l124 698h374zM493 851l-212 -99l-35 59l212 110z" />
    <glyph glyph-name="Ecircumflex" unicode="&#xca;" horiz-adv-x="513" 
d="M511 626h-283l-42 -239h253l-12 -70h-253l-44 -245h284l-13 -72h-375l124 698h374zM211 742l-36 55l186 110l148 -110l-50 -55l-110 80z" />
    <glyph glyph-name="Edieresis" unicode="&#xcb;" horiz-adv-x="513" 
d="M511 626h-283l-42 -239h253l-12 -70h-253l-44 -245h284l-13 -72h-375l124 698h374zM259 767q-20 0 -32.5 12t-12.5 31q0 25 19 43.5t44 18.5q20 0 32 -12.5t12 -30.5q0 -26 -19.5 -44t-42.5 -18zM422 767q-20 0 -32.5 12t-12.5 31q0 25 19 43.5t44 18.5q19 0 31.5 -12.5
t12.5 -30.5q0 -26 -19.5 -44t-42.5 -18z" />
    <glyph glyph-name="Igrave" unicode="&#xcc;" horiz-adv-x="246" 
d="M150 697h91l-124 -697h-91zM126 921l180 -111l-41 -58l-186 100z" />
    <glyph glyph-name="Iacute" unicode="&#xcd;" horiz-adv-x="246" 
d="M150 697h91l-124 -697h-91zM338 851l-212 -99l-35 59l212 110z" />
    <glyph glyph-name="Icircumflex" unicode="&#xce;" horiz-adv-x="246" 
d="M150 697h91l-124 -697h-91zM342 747l-123 85l-153 -85l12 72l154 83l123 -83z" />
    <glyph glyph-name="Idieresis" unicode="&#xcf;" horiz-adv-x="246" 
d="M150 697h91l-124 -697h-91zM127 767q-20 0 -32.5 12t-12.5 31q0 25 19 43.5t44 18.5q20 0 32 -12.5t12 -30.5q0 -26 -19.5 -44t-42.5 -18zM290 767q-20 0 -32.5 12t-12.5 31q0 25 19 43.5t44 18.5q19 0 31.5 -12.5t12.5 -30.5q0 -26 -19.5 -44t-42.5 -18z" />
    <glyph glyph-name="Eth" unicode="&#xd0;" horiz-adv-x="725" 
d="M385 697q86 0 150 -24.5t104 -69.5t54 -110t-1 -146q-14 -81 -51 -145.5t-92.5 -109t-128.5 -68.5t-158 -24h-217l54 305h-87l16 84h86l54 308h217zM275 70q68 0 123 19.5t96 55.5t67.5 87t37.5 115t2.5 115t-37 87t-76.5 55t-116 19h-125l-41 -234h191l-15 -84h-191
l-42 -235h126z" />
    <glyph glyph-name="Ntilde" unicode="&#xd1;" horiz-adv-x="703" 
d="M698 698l-124 -698h-91l-267 555l-99 -555h-91l124 698h91l268 -554l98 554h91zM288 752q16 52 47.5 78.5t70.5 26.5q20 0 33 -7t24 -16t22 -16t27 -7q17 0 30.5 10.5t20.5 32.5h53q-16 -51 -48 -77.5t-71 -26.5q-20 0 -33.5 7t-24.5 16t-22 16t-26 7q-17 0 -30 -10.5
t-20 -33.5h-53z" />
    <glyph glyph-name="Ograve" unicode="&#xd2;" horiz-adv-x="786" 
d="M756 416q0 -90 -31 -167.5t-86 -134t-130.5 -89t-164.5 -32.5q-66 0 -120 21.5t-92 59.5t-59 91.5t-21 117.5q0 90 31 167t86 133.5t130.5 89t163.5 32.5q67 0 121 -21.5t92 -59.5t59 -91t21 -117zM146 289q0 -100 56.5 -157t154.5 -57q67 0 123.5 27t96.5 73t62.5 106.5
t22.5 128.5q0 100 -56.5 156.5t-155.5 56.5q-68 0 -124 -27t-96 -73t-62 -106.5t-22 -127.5zM391 921l180 -111l-41 -58l-186 100z" />
    <glyph glyph-name="Oacute" unicode="&#xd3;" horiz-adv-x="786" 
d="M756 416q0 -90 -31 -167.5t-86 -134t-130.5 -89t-164.5 -32.5q-66 0 -120 21.5t-92 59.5t-59 91.5t-21 117.5q0 90 31 167t86 133.5t130.5 89t163.5 32.5q67 0 121 -21.5t92 -59.5t59 -91t21 -117zM146 289q0 -100 56.5 -157t154.5 -57q67 0 123.5 27t96.5 73t62.5 106.5
t22.5 128.5q0 100 -56.5 156.5t-155.5 56.5q-68 0 -124 -27t-96 -73t-62 -106.5t-22 -127.5zM633 851l-212 -99l-35 59l212 110z" />
    <glyph glyph-name="Ocircumflex" unicode="&#xd4;" horiz-adv-x="786" 
d="M756 416q0 -90 -31 -167.5t-86 -134t-130.5 -89t-164.5 -32.5q-66 0 -120 21.5t-92 59.5t-59 91.5t-21 117.5q0 90 31 167t86 133.5t130.5 89t163.5 32.5q67 0 121 -21.5t92 -59.5t59 -91t21 -117zM146 289q0 -100 56.5 -157t154.5 -57q67 0 123.5 27t96.5 73t62.5 106.5
t22.5 128.5q0 100 -56.5 156.5t-155.5 56.5q-68 0 -124 -27t-96 -73t-62 -106.5t-22 -127.5zM341 742l-36 55l186 110l148 -110l-50 -55l-110 80z" />
    <glyph glyph-name="Otilde" unicode="&#xd5;" horiz-adv-x="786" 
d="M756 416q0 -90 -31 -167.5t-86 -134t-130.5 -89t-164.5 -32.5q-66 0 -120 21.5t-92 59.5t-59 91.5t-21 117.5q0 90 31 167t86 133.5t130.5 89t163.5 32.5q67 0 121 -21.5t92 -59.5t59 -91t21 -117zM146 289q0 -100 56.5 -157t154.5 -57q67 0 123.5 27t96.5 73t62.5 106.5
t22.5 128.5q0 100 -56.5 156.5t-155.5 56.5q-68 0 -124 -27t-96 -73t-62 -106.5t-22 -127.5zM307 754q11 61 42 92t74 31q22 0 38.5 -8t29 -18t24 -18t24.5 -8q33 0 42 49h69q-9 -60 -41.5 -91t-74.5 -31q-23 0 -39.5 8t-29 18t-23.5 18t-24 8q-32 0 -41 -50h-70z" />
    <glyph glyph-name="Odieresis" unicode="&#xd6;" horiz-adv-x="786" 
d="M756 416q0 -90 -31 -167.5t-86 -134t-130.5 -89t-164.5 -32.5q-66 0 -120 21.5t-92 59.5t-59 91.5t-21 117.5q0 90 31 167t86 133.5t130.5 89t163.5 32.5q67 0 121 -21.5t92 -59.5t59 -91t21 -117zM146 289q0 -100 56.5 -157t154.5 -57q67 0 123.5 27t96.5 73t62.5 106.5
t22.5 128.5q0 100 -56.5 156.5t-155.5 56.5q-68 0 -124 -27t-96 -73t-62 -106.5t-22 -127.5zM397 773q-20 0 -32.5 12t-12.5 31q0 25 19 43.5t44 18.5q20 0 32 -12.5t12 -30.5q0 -26 -19.5 -44t-42.5 -18zM560 773q-20 0 -32.5 12t-12.5 31q0 25 19 43.5t44 18.5
q19 0 31.5 -12.5t12.5 -30.5q0 -26 -19.5 -44t-42.5 -18z" />
    <glyph glyph-name="multiply" unicode="&#xd7;" horiz-adv-x="643" 
d="M89 210l188 159l-129 156l69 59l129 -156l184 156l49 -60l-184 -156l131 -160l-69 -58l-131 159l-187 -159z" />
    <glyph glyph-name="Oslash" unicode="&#xd8;" horiz-adv-x="786" 
d="M756 416q0 -90 -31 -167.5t-86 -134t-130.5 -89t-164.5 -32.5q-65 0 -118 20t-91 58l-77 -71h-74l119 109q-25 35 -38 79t-13 95q0 90 31 167t86 133.5t130.5 89t163.5 32.5q66 0 118.5 -20t90.5 -57l77 70h75l-119 -108q25 -35 38 -79t13 -95zM146 289q0 -68 27 -116
l432 393q-57 57 -155 57q-68 0 -124 -27t-96 -73t-62 -106.5t-22 -127.5zM357 75q67 0 123.5 27t96.5 73t62.5 106.5t22.5 128.5t-27 116l-432 -394q57 -57 154 -57z" />
    <glyph glyph-name="Ugrave" unicode="&#xd9;" horiz-adv-x="675" 
d="M148 697h91l-78 -440q-8 -48 -2 -82.5t25 -57t48.5 -33t67.5 -10.5q78 0 132.5 44t71.5 139l78 440h91l-78 -440q-12 -68 -41.5 -117.5t-71.5 -82t-92.5 -48.5t-104.5 -16t-99 16t-74.5 48.5t-41.5 82t0 117.5zM330 921l180 -111l-41 -58l-186 100z" />
    <glyph glyph-name="Uacute" unicode="&#xda;" horiz-adv-x="675" 
d="M148 697h91l-78 -440q-8 -48 -2 -82.5t25 -57t48.5 -33t67.5 -10.5q78 0 132.5 44t71.5 139l78 440h91l-78 -440q-12 -68 -41.5 -117.5t-71.5 -82t-92.5 -48.5t-104.5 -16t-99 16t-74.5 48.5t-41.5 82t0 117.5zM583 851l-212 -99l-35 59l212 110z" />
    <glyph glyph-name="Ucircumflex" unicode="&#xdb;" horiz-adv-x="675" 
d="M148 697h91l-78 -440q-8 -48 -2 -82.5t25 -57t48.5 -33t67.5 -10.5q78 0 132.5 44t71.5 139l78 440h91l-78 -440q-12 -68 -41.5 -117.5t-71.5 -82t-92.5 -48.5t-104.5 -16t-99 16t-74.5 48.5t-41.5 82t0 117.5zM556 747l-123 85l-153 -85l12 72l154 83l123 -83z" />
    <glyph glyph-name="Udieresis" unicode="&#xdc;" horiz-adv-x="675" 
d="M148 697h91l-78 -440q-8 -48 -2 -82.5t25 -57t48.5 -33t67.5 -10.5q78 0 132.5 44t71.5 139l78 440h91l-78 -440q-12 -68 -41.5 -117.5t-71.5 -82t-92.5 -48.5t-104.5 -16t-99 16t-74.5 48.5t-41.5 82t0 117.5zM341 767q-20 0 -32.5 12t-12.5 31q0 25 19 43.5t44 18.5
q20 0 32 -12.5t12 -30.5q0 -26 -19.5 -44t-42.5 -18zM504 767q-20 0 -32.5 12t-12.5 31q0 25 19 43.5t44 18.5q19 0 31.5 -12.5t12.5 -30.5q0 -26 -19.5 -44t-42.5 -18z" />
    <glyph glyph-name="Yacute" unicode="&#xdd;" horiz-adv-x="584" 
d="M91 697h102l109 -351l233 351h103l-304 -434l-47 -263h-91l47 263zM527 851l-212 -99l-35 59l212 110z" />
    <glyph glyph-name="Thorn" unicode="&#xde;" horiz-adv-x="579" 
d="M290 219q78 0 119 35.5t52 94.5q11 60 -17.5 96t-106.5 36h-134l-47 -262h134zM554 349q-7 -40 -27 -77t-54 -65t-83 -44.5t-113 -16.5h-134l-26 -146h-91l124 698h90l-26 -145h135q61 0 104 -16t67.5 -43.5t32.5 -64.5t1 -80z" />
    <glyph glyph-name="germandbls" unicode="&#xdf;" horiz-adv-x="659" 
d="M111 561q8 44 28.5 82t54.5 66.5t81 45t107 16.5q49 0 85 -11.5t60 -30.5t36 -45t12 -54q0 -35 -13.5 -63.5t-33.5 -51t-44 -41t-44 -34.5t-33.5 -31t-13.5 -31q0 -8 4 -15.5t14.5 -15.5t29.5 -16.5t50 -19.5q60 -20 87 -52.5t27 -84.5q0 -41 -16.5 -74.5t-46 -58
t-69.5 -38t-87 -13.5q-90 0 -137 49t-38 131h92q-5 -49 18.5 -78t74.5 -29t82 26t31 74q0 27 -19 45t-64 34q-66 23 -97 49t-31 67q0 29 13.5 51.5t34 42.5t44.5 38.5t44.5 37.5t34 40.5t13.5 47.5q0 37 -30 57.5t-84 20.5q-77 0 -116.5 -38t-51.5 -106l-96 -550h-91z" />
    <glyph glyph-name="agrave" unicode="&#xe0;" horiz-adv-x="676" 
d="M40 276q11 64 40.5 116t71 88.5t92.5 56.5t107 20q38 0 68.5 -9t53.5 -24t38.5 -35t23.5 -41l18 100h92l-97 -548h-92l19 102q-17 -22 -40 -42t-51.5 -35.5t-62 -24.5t-71.5 -9q-55 0 -99 20.5t-72.5 58t-39 90t0.5 116.5zM505 275q9 48 0.5 85.5t-29.5 63.5t-52.5 40
t-68.5 14q-38 0 -74 -13.5t-66 -39t-51.5 -63.5t-29.5 -86q-9 -48 -0.5 -86.5t29 -64.5t51.5 -40t69 -14q37 0 73.5 13.5t66.5 40t51.5 64.5t30.5 86zM301 787l180 -111l-41 -58l-186 100z" />
    <glyph glyph-name="aacute" unicode="&#xe1;" horiz-adv-x="676" 
d="M40 276q11 64 40.5 116t71 88.5t92.5 56.5t107 20q38 0 68.5 -9t53.5 -24t38.5 -35t23.5 -41l18 100h92l-97 -548h-92l19 102q-17 -22 -40 -42t-51.5 -35.5t-62 -24.5t-71.5 -9q-55 0 -99 20.5t-72.5 58t-39 90t0.5 116.5zM505 275q9 48 0.5 85.5t-29.5 63.5t-52.5 40
t-68.5 14q-38 0 -74 -13.5t-66 -39t-51.5 -63.5t-29.5 -86q-9 -48 -0.5 -86.5t29 -64.5t51.5 -40t69 -14q37 0 73.5 13.5t66.5 40t51.5 64.5t30.5 86zM554 717l-212 -99l-35 59l212 110z" />
    <glyph glyph-name="acircumflex" unicode="&#xe2;" horiz-adv-x="676" 
d="M40 276q11 64 40.5 116t71 88.5t92.5 56.5t107 20q38 0 68.5 -9t53.5 -24t38.5 -35t23.5 -41l18 100h92l-97 -548h-92l19 102q-17 -22 -40 -42t-51.5 -35.5t-62 -24.5t-71.5 -9q-55 0 -99 20.5t-72.5 58t-39 90t0.5 116.5zM505 275q9 48 0.5 85.5t-29.5 63.5t-52.5 40
t-68.5 14q-38 0 -74 -13.5t-66 -39t-51.5 -63.5t-29.5 -86q-9 -48 -0.5 -86.5t29 -64.5t51.5 -40t69 -14q37 0 73.5 13.5t66.5 40t51.5 64.5t30.5 86zM267 608l-36 55l186 110l148 -110l-50 -55l-110 80z" />
    <glyph glyph-name="atilde" unicode="&#xe3;" horiz-adv-x="676" 
d="M40 276q11 64 40.5 116t71 88.5t92.5 56.5t107 20q38 0 68.5 -9t53.5 -24t38.5 -35t23.5 -41l18 100h92l-97 -548h-92l19 102q-17 -22 -40 -42t-51.5 -35.5t-62 -24.5t-71.5 -9q-55 0 -99 20.5t-72.5 58t-39 90t0.5 116.5zM505 275q9 48 0.5 85.5t-29.5 63.5t-52.5 40
t-68.5 14q-38 0 -74 -13.5t-66 -39t-51.5 -63.5t-29.5 -86q-9 -48 -0.5 -86.5t29 -64.5t51.5 -40t69 -14q37 0 73.5 13.5t66.5 40t51.5 64.5t30.5 86zM234 620q11 61 42 92t74 31q22 0 38.5 -8t29 -18t24 -18t24.5 -8q33 0 42 49h69q-9 -60 -41.5 -91t-74.5 -31
q-23 0 -39.5 8t-29 18t-23.5 18t-24 8q-32 0 -41 -50h-70z" />
    <glyph glyph-name="adieresis" unicode="&#xe4;" horiz-adv-x="676" 
d="M40 276q11 64 40.5 116t71 88.5t92.5 56.5t107 20q38 0 68.5 -9t53.5 -24t38.5 -35t23.5 -41l18 100h92l-97 -548h-92l19 102q-17 -22 -40 -42t-51.5 -35.5t-62 -24.5t-71.5 -9q-55 0 -99 20.5t-72.5 58t-39 90t0.5 116.5zM505 275q9 48 0.5 85.5t-29.5 63.5t-52.5 40
t-68.5 14q-38 0 -74 -13.5t-66 -39t-51.5 -63.5t-29.5 -86q-9 -48 -0.5 -86.5t29 -64.5t51.5 -40t69 -14q37 0 73.5 13.5t66.5 40t51.5 64.5t30.5 86zM317 622q-20 0 -32.5 12t-12.5 31q0 25 19 43.5t44 18.5q20 0 32 -12.5t12 -30.5q0 -26 -19.5 -44t-42.5 -18zM480 622
q-20 0 -32.5 12t-12.5 31q0 25 19 43.5t44 18.5q19 0 31.5 -12.5t12.5 -30.5q0 -26 -19.5 -44t-42.5 -18z" />
    <glyph glyph-name="aring" unicode="&#xe5;" horiz-adv-x="676" 
d="M40 276q11 64 40.5 116t71 88.5t92.5 56.5t107 20q38 0 68.5 -9t53.5 -24t38.5 -35t23.5 -41l18 100h92l-97 -548h-92l19 102q-17 -22 -40 -42t-51.5 -35.5t-62 -24.5t-71.5 -9q-55 0 -99 20.5t-72.5 58t-39 90t0.5 116.5zM505 275q9 48 0.5 85.5t-29.5 63.5t-52.5 40
t-68.5 14q-38 0 -74 -13.5t-66 -39t-51.5 -63.5t-29.5 -86q-9 -48 -0.5 -86.5t29 -64.5t51.5 -40t69 -14q37 0 73.5 13.5t66.5 40t51.5 64.5t30.5 86zM309 712q9 49 44.5 77t78.5 28q45 0 69.5 -28t16.5 -77q-9 -49 -44 -77t-79 -28q-43 0 -68.5 28t-17.5 77zM470 713
q5 26 -9 41t-38 15q-23 0 -41.5 -15t-23.5 -41t8.5 -41.5t36.5 -15.5q24 0 43 15.5t24 41.5z" />
    <glyph glyph-name="ae" unicode="&#xe6;" horiz-adv-x="1097" 
d="M818 480q-35 0 -68.5 -11.5t-62 -33.5t-50.5 -54t-33 -72h361q7 41 -1 73t-28.5 53.5t-51 33t-66.5 11.5zM1022 169q-17 -38 -44 -70.5t-62 -56.5t-78 -37.5t-92 -13.5q-67 0 -117 31t-68 84l-18 -106h-86l19 105q-37 -48 -95 -81t-130 -33q-55 0 -99 20.5t-72.5 58
t-39.5 90t0 116.5t40.5 116t71.5 88.5t94 56.5t109 20q69 0 114.5 -28.5t66.5 -81.5l18 101h85l-17 -101q45 58 101.5 84t122.5 26q58 0 102 -20t71.5 -55.5t37 -83t0.5 -101.5q-3 -14 -6 -27t-8 -27h-451q-4 -44 7.5 -77t33 -54.5t51 -32.5t61.5 -11q66 0 111.5 28t67.5 73
h98zM134 276q-9 -48 -0.5 -86.5t29 -64.5t51.5 -40t69 -14q37 0 73.5 13.5t66.5 40t51.5 64.5t30.5 86t0.5 85.5t-29.5 63.5t-52.5 40t-68.5 14q-38 0 -74 -13.5t-66 -39t-51.5 -63.5t-29.5 -86z" />
    <glyph glyph-name="ccedilla" unicode="&#xe7;" horiz-adv-x="607" 
d="M40 275q12 64 41 116.5t71 89t94.5 56.5t111.5 20q103 0 158.5 -49t61.5 -136h-98q-5 50 -40 79t-96 29q-38 0 -72 -13t-62 -39t-47.5 -64.5t-28.5 -88.5q-9 -51 -2.5 -89.5t25 -65t48 -39.5t67.5 -13q60 0 104.5 28t68.5 80h98q-33 -76 -99 -126t-158 -58l-8 -50
q57 1 88.5 -24t22.5 -75q-8 -47 -47.5 -75t-92.5 -28h-115l10 59h97q32 0 49.5 10t22.5 34q5 23 -9.5 33t-46.5 10h-51l19 107q-51 5 -90.5 27t-64 58.5t-33 86t2.5 110.5z" />
    <glyph glyph-name="egrave" unicode="&#xe8;" horiz-adv-x="620" 
d="M344 480q-34 0 -66 -11.5t-59 -33t-48 -53.5t-31 -73h347q7 42 -1 74t-28 53.5t-49.5 32.5t-64.5 11zM545 169q-17 -38 -44.5 -70.5t-63.5 -56.5t-80 -37.5t-95 -13.5q-59 0 -105 20t-76 57t-41.5 89.5t0.5 117.5t41 117t71.5 89t95.5 56.5t113 19.5t105 -20t73.5 -54.5
t39 -82.5t0.5 -103q-4 -26 -13 -54h-438q-5 -42 4 -74.5t29 -55t49.5 -34t65.5 -11.5q62 0 105 28t66 73h98zM291 787l180 -111l-41 -58l-186 100z" />
    <glyph glyph-name="eacute" unicode="&#xe9;" horiz-adv-x="620" 
d="M344 480q-34 0 -66 -11.5t-59 -33t-48 -53.5t-31 -73h347q7 42 -1 74t-28 53.5t-49.5 32.5t-64.5 11zM545 169q-17 -38 -44.5 -70.5t-63.5 -56.5t-80 -37.5t-95 -13.5q-59 0 -105 20t-76 57t-41.5 89.5t0.5 117.5t41 117t71.5 89t95.5 56.5t113 19.5t105 -20t73.5 -54.5
t39 -82.5t0.5 -103q-4 -26 -13 -54h-438q-5 -42 4 -74.5t29 -55t49.5 -34t65.5 -11.5q62 0 105 28t66 73h98zM531 717l-212 -99l-35 59l212 110z" />
    <glyph glyph-name="ecircumflex" unicode="&#xea;" horiz-adv-x="620" 
d="M344 480q-34 0 -66 -11.5t-59 -33t-48 -53.5t-31 -73h347q7 42 -1 74t-28 53.5t-49.5 32.5t-64.5 11zM545 169q-17 -38 -44.5 -70.5t-63.5 -56.5t-80 -37.5t-95 -13.5q-59 0 -105 20t-76 57t-41.5 89.5t0.5 117.5t41 117t71.5 89t95.5 56.5t113 19.5t105 -20t73.5 -54.5
t39 -82.5t0.5 -103q-4 -26 -13 -54h-438q-5 -42 4 -74.5t29 -55t49.5 -34t65.5 -11.5q62 0 105 28t66 73h98zM246 608l-36 55l186 110l148 -110l-50 -55l-110 80z" />
    <glyph glyph-name="edieresis" unicode="&#xeb;" horiz-adv-x="620" 
d="M344 480q-34 0 -66 -11.5t-59 -33t-48 -53.5t-31 -73h347q7 42 -1 74t-28 53.5t-49.5 32.5t-64.5 11zM545 169q-17 -38 -44.5 -70.5t-63.5 -56.5t-80 -37.5t-95 -13.5q-59 0 -105 20t-76 57t-41.5 89.5t0.5 117.5t41 117t71.5 89t95.5 56.5t113 19.5t105 -20t73.5 -54.5
t39 -82.5t0.5 -103q-4 -26 -13 -54h-438q-5 -42 4 -74.5t29 -55t49.5 -34t65.5 -11.5q62 0 105 28t66 73h98zM288 622q-20 0 -32.5 12t-12.5 31q0 25 19 43.5t44 18.5q20 0 32 -12.5t12 -30.5q0 -26 -19.5 -44t-42.5 -18zM451 622q-20 0 -32.5 12t-12.5 31q0 25 19 43.5
t44 18.5q19 0 31.5 -12.5t12.5 -30.5q0 -26 -19.5 -44t-42.5 -18z" />
    <glyph glyph-name="igrave" unicode="&#xec;" horiz-adv-x="246" 
d="M123 548h91l-97 -548h-91zM101 787l180 -111l-41 -58l-186 100z" />
    <glyph glyph-name="iacute" unicode="&#xed;" horiz-adv-x="246" 
d="M123 548h91l-97 -548h-91zM321 717l-212 -99l-35 59l212 110z" />
    <glyph glyph-name="icircumflex" unicode="&#xee;" horiz-adv-x="246" 
d="M123 548h91l-97 -548h-91zM316 602l-123 85l-153 -85l12 72l154 83l123 -83z" />
    <glyph glyph-name="idieresis" unicode="&#xef;" horiz-adv-x="246" 
d="M123 548h91l-97 -548h-91zM101 622q-20 0 -32.5 12t-12.5 31q0 25 19 43.5t44 18.5q20 0 32 -12.5t12 -30.5q0 -26 -19.5 -44t-42.5 -18zM264 622q-20 0 -32.5 12t-12.5 31q0 25 19 43.5t44 18.5q19 0 31.5 -12.5t12.5 -30.5q0 -26 -19.5 -44t-42.5 -18z" />
    <glyph glyph-name="eth" unicode="&#xf0;" horiz-adv-x="638" 
d="M423 676q-13 16 -28.5 31.5l-32.5 32.5h93l20.5 -20.5t18.5 -20.5l138 44l-8 -51l-100 -32q55 -76 74.5 -161t1.5 -184q-14 -81 -46 -141.5t-76.5 -101t-99 -61t-114.5 -20.5t-106.5 20.5t-76.5 58t-41 90.5t1 118q11 64 41 115.5t72.5 88t95 56.5t109.5 20
q58 0 99.5 -22.5t64.5 -69.5q-7 47 -23.5 88.5t-46.5 83.5l-138 -44l9 50zM134 278q-9 -51 -1.5 -90.5t27 -66t50 -40t68.5 -13.5q36 0 72 13.5t66.5 39.5t52.5 64.5t31 89.5t0.5 89.5t-29.5 64.5t-52 39t-67 13q-37 0 -72 -13t-64.5 -38.5t-51 -63.5t-30.5 -88z" />
    <glyph glyph-name="ntilde" unicode="&#xf1;" 
d="M482 310q14 85 -20 127t-103 42q-70 0 -121 -43.5t-67 -132.5v2l-54 -305h-91l97 548h91l-14 -79q35 44 85.5 66.5t106.5 22.5q47 0 85.5 -14.5t63.5 -44t34 -73.5t-1 -103l-57 -323h-90zM232 607q16 52 47.5 78.5t70.5 26.5q20 0 33 -7t24 -16t22 -16t27 -7
q17 0 30.5 10.5t20.5 32.5h53q-16 -51 -48 -77.5t-71 -26.5q-20 0 -33.5 7t-24.5 16t-22 16t-26 7q-17 0 -30 -10.5t-20 -33.5h-53z" />
    <glyph glyph-name="ograve" unicode="&#xf2;" 
d="M600 328q0 -71 -25.5 -132t-70 -107t-105.5 -72t-132 -26q-52 0 -95 16.5t-73.5 46.5t-47 72t-16.5 93q0 70 25 131.5t69 107.5t104.5 72.5t131.5 26.5q52 0 95.5 -16t74.5 -46t48 -72.5t17 -94.5zM129 223q0 -39 11.5 -68t32 -48.5t47.5 -29t58 -9.5q50 0 92 21t72 56
t47 81.5t17 96.5q0 40 -12.5 69.5t-33.5 49t-49 29t-59 9.5q-50 0 -91.5 -21t-70.5 -56.5t-45 -82t-16 -97.5zM291 787l180 -111l-41 -58l-186 100z" />
    <glyph glyph-name="oacute" unicode="&#xf3;" 
d="M600 328q0 -71 -25.5 -132t-70 -107t-105.5 -72t-132 -26q-52 0 -95 16.5t-73.5 46.5t-47 72t-16.5 93q0 70 25 131.5t69 107.5t104.5 72.5t131.5 26.5q52 0 95.5 -16t74.5 -46t48 -72.5t17 -94.5zM129 223q0 -39 11.5 -68t32 -48.5t47.5 -29t58 -9.5q50 0 92 21t72 56
t47 81.5t17 96.5q0 40 -12.5 69.5t-33.5 49t-49 29t-59 9.5q-50 0 -91.5 -21t-70.5 -56.5t-45 -82t-16 -97.5zM529 717l-212 -99l-35 59l212 110z" />
    <glyph glyph-name="ocircumflex" unicode="&#xf4;" 
d="M600 328q0 -71 -25.5 -132t-70 -107t-105.5 -72t-132 -26q-52 0 -95 16.5t-73.5 46.5t-47 72t-16.5 93q0 70 25 131.5t69 107.5t104.5 72.5t131.5 26.5q52 0 95.5 -16t74.5 -46t48 -72.5t17 -94.5zM129 223q0 -39 11.5 -68t32 -48.5t47.5 -29t58 -9.5q50 0 92 21t72 56
t47 81.5t17 96.5q0 40 -12.5 69.5t-33.5 49t-49 29t-59 9.5q-50 0 -91.5 -21t-70.5 -56.5t-45 -82t-16 -97.5zM256 608l-36 55l186 110l148 -110l-50 -55l-110 80z" />
    <glyph glyph-name="otilde" unicode="&#xf5;" 
d="M600 328q0 -71 -25.5 -132t-70 -107t-105.5 -72t-132 -26q-52 0 -95 16.5t-73.5 46.5t-47 72t-16.5 93q0 70 25 131.5t69 107.5t104.5 72.5t131.5 26.5q52 0 95.5 -16t74.5 -46t48 -72.5t17 -94.5zM129 223q0 -39 11.5 -68t32 -48.5t47.5 -29t58 -9.5q50 0 92 21t72 56
t47 81.5t17 96.5q0 40 -12.5 69.5t-33.5 49t-49 29t-59 9.5q-50 0 -91.5 -21t-70.5 -56.5t-45 -82t-16 -97.5zM222 620q11 61 42 92t74 31q22 0 38.5 -8t29 -18t24 -18t24.5 -8q33 0 42 49h69q-9 -60 -41.5 -91t-74.5 -31q-23 0 -39.5 8t-29 18t-23.5 18t-24 8
q-32 0 -41 -50h-70z" />
    <glyph glyph-name="odieresis" unicode="&#xf6;" 
d="M600 328q0 -71 -25.5 -132t-70 -107t-105.5 -72t-132 -26q-52 0 -95 16.5t-73.5 46.5t-47 72t-16.5 93q0 70 25 131.5t69 107.5t104.5 72.5t131.5 26.5q52 0 95.5 -16t74.5 -46t48 -72.5t17 -94.5zM129 223q0 -39 11.5 -68t32 -48.5t47.5 -29t58 -9.5q50 0 92 21t72 56
t47 81.5t17 96.5q0 40 -12.5 69.5t-33.5 49t-49 29t-59 9.5q-50 0 -91.5 -21t-70.5 -56.5t-45 -82t-16 -97.5zM298 631q-20 0 -32.5 12t-12.5 31q0 25 19 43.5t44 18.5q20 0 32 -12.5t12 -30.5q0 -26 -19.5 -44t-42.5 -18zM461 631q-20 0 -32.5 12t-12.5 31q0 25 19 43.5
t44 18.5q19 0 31.5 -12.5t12.5 -30.5q0 -26 -19.5 -44t-42.5 -18z" />
    <glyph glyph-name="divide" unicode="&#xf7;" horiz-adv-x="657" 
d="M99 406h510l-15 -80h-510zM361 153q-5 -26 -25.5 -44t-46.5 -18t-41 18t-10 44t26 44t47 18t40.5 -18t9.5 -44zM436 582q-5 -26 -25.5 -44t-46.5 -18t-41 18t-10 44t26 44t47 18t40.5 -18t9.5 -44z" />
    <glyph glyph-name="oslash" unicode="&#xf8;" 
d="M600 328q0 -71 -25.5 -132t-70 -107t-105.5 -72t-132 -26q-50 0 -91 15t-71 42l-53 -48h-65l88 81q-40 57 -40 138q0 70 25 131.5t69 107.5t104.5 72.5t131.5 26.5q51 0 92.5 -15t72.5 -43l54 49h65l-90 -82q20 -28 30.5 -62.5t10.5 -75.5zM129 223q0 -43 16 -78l319 293
q-22 21 -51 31.5t-61 10.5q-50 0 -91.5 -21t-70.5 -56.5t-45 -82t-16 -97.5zM278 68q50 0 92 21t72 56t47 81.5t17 96.5q0 45 -17 79l-318 -293q20 -20 47.5 -30.5t59.5 -10.5z" />
    <glyph glyph-name="ugrave" unicode="&#xf9;" 
d="M512 0h-91l14 80q-34 -43 -85 -65.5t-105 -22.5q-47 0 -85.5 14.5t-64 44t-35 73.5t0.5 103l57 321h90l-54 -309q-14 -84 20 -126t103 -42q35 0 66 11t55.5 33t41.5 55t24 77v-3l54 304h91zM284 787l180 -111l-41 -58l-186 100z" />
    <glyph glyph-name="uacute" unicode="&#xfa;" 
d="M512 0h-91l14 80q-34 -43 -85 -65.5t-105 -22.5q-47 0 -85.5 14.5t-64 44t-35 73.5t0.5 103l57 321h90l-54 -309q-14 -84 20 -126t103 -42q35 0 66 11t55.5 33t41.5 55t24 77v-3l54 304h91zM537 717l-212 -99l-35 59l212 110z" />
    <glyph glyph-name="ucircumflex" unicode="&#xfb;" 
d="M512 0h-91l14 80q-34 -43 -85 -65.5t-105 -22.5q-47 0 -85.5 14.5t-64 44t-35 73.5t0.5 103l57 321h90l-54 -309q-14 -84 20 -126t103 -42q35 0 66 11t55.5 33t41.5 55t24 77v-3l54 304h91zM514 602l-123 85l-153 -85l12 72l154 83l123 -83z" />
    <glyph glyph-name="udieresis" unicode="&#xfc;" 
d="M512 0h-91l14 80q-34 -43 -85 -65.5t-105 -22.5q-47 0 -85.5 14.5t-64 44t-35 73.5t0.5 103l57 321h90l-54 -309q-14 -84 20 -126t103 -42q35 0 66 11t55.5 33t41.5 55t24 77v-3l54 304h91zM299 622q-20 0 -32.5 12t-12.5 31q0 25 19 43.5t44 18.5q20 0 32 -12.5
t12 -30.5q0 -26 -19.5 -44t-42.5 -18zM462 622q-20 0 -32.5 12t-12.5 31q0 25 19 43.5t44 18.5q19 0 31.5 -12.5t12.5 -30.5q0 -26 -19.5 -44t-42.5 -18z" />
    <glyph glyph-name="yacute" unicode="&#xfd;" horiz-adv-x="563" 
d="M58 548h101l93 -442l249 442h94l-472 -806h-95l155 264zM492 717l-212 -99l-35 59l212 110z" />
    <glyph glyph-name="thorn" unicode="&#xfe;" horiz-adv-x="676" 
d="M194 432q17 27 40.5 49.5t52 39.5t62 26.5t71.5 9.5q55 0 99.5 -20t73 -56.5t39 -88.5t-0.5 -116t-40.5 -116.5t-71 -90t-92.5 -58t-106 -20.5q-75 0 -120.5 36.5t-62.5 92.5l-66 -380h-91l176 1000h91zM538 276q9 48 0.5 86t-29 63.5t-52 39t-69.5 13.5q-37 0 -73 -14
t-66.5 -40t-52 -63.5t-30.5 -85.5t-0.5 -86t29.5 -64.5t52.5 -40t68.5 -13.5q38 0 74 14t66 40t51.5 64.5t30.5 86.5z" />
    <glyph glyph-name="ydieresis" unicode="&#xff;" horiz-adv-x="563" 
d="M58 548h101l93 -442l249 442h94l-472 -806h-95l155 264zM260 622q-20 0 -32.5 12t-12.5 31q0 25 19 43.5t44 18.5q20 0 32 -12.5t12 -30.5q0 -26 -19.5 -44t-42.5 -18zM423 622q-20 0 -32.5 12t-12.5 31q0 25 19 43.5t44 18.5q19 0 31.5 -12.5t12.5 -30.5
q0 -26 -19.5 -44t-42.5 -18z" />
    <glyph glyph-name="Amacron" unicode="&#x100;" horiz-adv-x="674" 
d="M466 155h-305l-83 -155h-96l374 693h105l129 -693h-96zM262 854h352l-12 -68h-352zM389 582l-190 -356h254z" />
    <glyph glyph-name="amacron" unicode="&#x101;" horiz-adv-x="676" 
d="M40 276q11 64 40.5 116t71 88.5t92.5 56.5t107 20q38 0 68.5 -9t53.5 -24t38.5 -35t23.5 -41l18 100h92l-97 -548h-92l19 102q-17 -22 -40 -42t-51.5 -35.5t-62 -24.5t-71.5 -9q-55 0 -99 20.5t-72.5 58t-39 90t0.5 116.5zM505 275q9 48 0.5 85.5t-29.5 63.5t-52.5 40
t-68.5 14q-38 0 -74 -13.5t-66 -39t-51.5 -63.5t-29.5 -86q-9 -48 -0.5 -86.5t29 -64.5t51.5 -40t69 -14q37 0 73.5 13.5t66.5 40t51.5 64.5t30.5 86zM238 709h352l-12 -68h-352z" />
    <glyph glyph-name="Abreve" unicode="&#x102;" horiz-adv-x="674" 
d="M466 155h-305l-83 -155h-96l374 693h105l129 -693h-96zM389 582l-190 -356h254zM414 742q-35 0 -63 9t-47.5 27t-27.5 44t-2 61h78q-6 -36 13 -54t61 -18q37 0 64 18t33 54h81q-12 -69 -64.5 -105t-125.5 -36z" />
    <glyph glyph-name="abreve" unicode="&#x103;" horiz-adv-x="676" 
d="M40 276q11 64 40.5 116t71 88.5t92.5 56.5t107 20q38 0 68.5 -9t53.5 -24t38.5 -35t23.5 -41l18 100h92l-97 -548h-92l19 102q-17 -22 -40 -42t-51.5 -35.5t-62 -24.5t-71.5 -9q-55 0 -99 20.5t-72.5 58t-39 90t0.5 116.5zM505 275q9 48 0.5 85.5t-29.5 63.5t-52.5 40
t-68.5 14q-38 0 -74 -13.5t-66 -39t-51.5 -63.5t-29.5 -86q-9 -48 -0.5 -86.5t29 -64.5t51.5 -40t69 -14q37 0 73.5 13.5t66.5 40t51.5 64.5t30.5 86zM390 608q-35 0 -63 9t-47.5 27t-27.5 44t-2 61h78q-6 -36 13 -54t61 -18q37 0 64 18t33 54h81q-12 -69 -64.5 -105
t-125.5 -36z" />
    <glyph glyph-name="Aogonek" unicode="&#x104;" horiz-adv-x="674" 
d="M461 693l129 -693l-59 -27q-37 -17 -53 -34t-20 -36q-4 -23 10 -35.5t40 -12.5q15 0 32.5 3.5t36.5 9.5l-11 -60q-18 -6 -38.5 -10t-40.5 -4q-23 0 -44 5.5t-36.5 17.5t-23 31t-2.5 47q6 32 31 64t79 60l-25 136h-305l-83 -155h-96l374 693h105zM389 582l-190 -356h254z
" />
    <glyph glyph-name="aogonek" unicode="&#x105;" horiz-adv-x="676" 
d="M40 276q11 64 40.5 116t71 88.5t92.5 56.5t107 20q38 0 68.5 -9t53.5 -24t38.5 -35t23.5 -41l18 100h92l-97 -548l-59 -27q-37 -17 -53 -34t-20 -36q-4 -23 10 -35.5t40 -12.5q14 0 32 3.5t36 9.5l-10 -60q-19 -6 -39.5 -10t-40.5 -4q-23 0 -43.5 5.5t-35.5 17.5
t-22.5 31t-2.5 46q5 33 32.5 63.5t86.5 59.5l16 85q-17 -22 -40 -42t-51.5 -35.5t-62 -24.5t-71.5 -9q-55 0 -99 20.5t-72.5 58t-39 90t0.5 116.5zM505 275q9 48 0.5 85.5t-29.5 63.5t-52.5 40t-68.5 14q-38 0 -74 -13.5t-66 -39t-51.5 -63.5t-29.5 -86q-9 -48 -0.5 -86.5
t29 -64.5t51.5 -40t69 -14q37 0 73.5 13.5t66.5 40t51.5 64.5t30.5 86z" />
    <glyph glyph-name="Cacute" unicode="&#x106;" horiz-adv-x="772" 
d="M54 349q14 78 52.5 144t93.5 113t123 73.5t141 26.5q114 0 189.5 -54.5t97.5 -156.5h-109q-18 61 -66.5 94.5t-125.5 33.5q-55 0 -105 -19t-90 -55t-68.5 -86.5t-39.5 -113.5t-0.5 -113.5t38 -86t71 -54.5t97.5 -19q77 0 137.5 33.5t99.5 93.5h109q-57 -101 -151.5 -155
t-208.5 -54q-73 0 -132 26t-97.5 73t-54 112.5t-1.5 143.5zM603 927l-14 -79l-234 -114l12 68z" />
    <glyph glyph-name="cacute" unicode="&#x107;" horiz-adv-x="607" 
d="M40 275q12 64 41 116.5t71 89t94.5 56.5t111.5 20q103 0 158.5 -49t61.5 -136h-98q-5 50 -40 79t-96 29q-38 0 -72 -13t-62 -39t-47.5 -64.5t-28.5 -88.5q-9 -51 -2.5 -89.5t25 -65t48 -39.5t67.5 -13q60 0 104.5 28t68.5 80h98q-18 -41 -45.5 -75t-63.5 -58.5t-80.5 -38
t-95.5 -13.5q-59 0 -104.5 20t-74.5 57t-40 89.5t1 117.5zM490 782l-14 -79l-234 -114l12 68z" />
    <glyph glyph-name="Cdotaccent" unicode="&#x10a;" horiz-adv-x="772" 
d="M54 349q14 78 52.5 144t93.5 113t123 73.5t141 26.5q114 0 189.5 -54.5t97.5 -156.5h-109q-18 61 -66.5 94.5t-125.5 33.5q-55 0 -105 -19t-90 -55t-68.5 -86.5t-39.5 -113.5t-0.5 -113.5t38 -86t71 -54.5t97.5 -19q77 0 137.5 33.5t99.5 93.5h109q-57 -101 -151.5 -155
t-208.5 -54q-73 0 -132 26t-97.5 73t-54 112.5t-1.5 143.5zM476 761q-23 0 -35.5 15t-8.5 37t22 37.5t40 15.5t35 -15.5t8 -37.5q-4 -22 -21.5 -37t-39.5 -15z" />
    <glyph glyph-name="cdotaccent" unicode="&#x10b;" horiz-adv-x="607" 
d="M40 275q12 64 41 116.5t71 89t94.5 56.5t111.5 20q103 0 158.5 -49t61.5 -136h-98q-5 50 -40 79t-96 29q-38 0 -72 -13t-62 -39t-47.5 -64.5t-28.5 -88.5q-9 -51 -2.5 -89.5t25 -65t48 -39.5t67.5 -13q60 0 104.5 28t68.5 80h98q-18 -41 -45.5 -75t-63.5 -58.5t-80.5 -38
t-95.5 -13.5q-59 0 -104.5 20t-74.5 57t-40 89.5t1 117.5zM362 617q-23 0 -35.5 15t-8.5 37t22 37.5t40 15.5t35 -15.5t8 -37.5q-4 -22 -21.5 -37t-39.5 -15z" />
    <glyph glyph-name="Ccaron" unicode="&#x10c;" horiz-adv-x="772" 
d="M54 349q14 78 52.5 144t93.5 113t123 73.5t141 26.5q114 0 189.5 -54.5t97.5 -156.5h-109q-18 61 -66.5 94.5t-125.5 33.5q-55 0 -105 -19t-90 -55t-68.5 -86.5t-39.5 -113.5t-0.5 -113.5t38 -86t71 -54.5t97.5 -19q77 0 137.5 33.5t99.5 93.5h109q-57 -101 -151.5 -155
t-208.5 -54q-73 0 -132 26t-97.5 73t-54 112.5t-1.5 143.5zM639 901l-13 -72l-153 -83l-124 83l13 72l124 -85z" />
    <glyph glyph-name="ccaron" unicode="&#x10d;" horiz-adv-x="607" 
d="M40 275q12 64 41 116.5t71 89t94.5 56.5t111.5 20q103 0 158.5 -49t61.5 -136h-98q-5 50 -40 79t-96 29q-38 0 -72 -13t-62 -39t-47.5 -64.5t-28.5 -88.5q-9 -51 -2.5 -89.5t25 -65t48 -39.5t67.5 -13q60 0 104.5 28t68.5 80h98q-18 -41 -45.5 -75t-63.5 -58.5t-80.5 -38
t-95.5 -13.5q-59 0 -104.5 20t-74.5 57t-40 89.5t1 117.5zM525 756l-13 -72l-153 -83l-124 83l13 72l124 -85z" />
    <glyph glyph-name="Dcaron" unicode="&#x10e;" horiz-adv-x="707" 
d="M367 697q85 0 149.5 -24.5t104 -69.5t54 -110t-0.5 -146q-14 -81 -51 -145.5t-93 -109t-128.5 -68.5t-158.5 -24h-217l124 697h217zM256 70q68 0 123 19.5t96.5 55.5t68 87t37.5 115t2.5 115t-37 87t-76.5 55t-116 19h-126l-98 -553h126zM598 901l-13 -72l-153 -83
l-124 83l13 72l124 -85z" />
    <glyph glyph-name="dcaron" unicode="&#x10f;" horiz-adv-x="754" 
d="M823 740q1 -26 -0.5 -49t-4.5 -43q-11 -59 -41.5 -86t-80.5 -27l7 43q26 0 39.5 13.5t18.5 39.5l4 23h-49l15 86h92zM40 276q11 64 40.5 116t71 88.5t93 56.5t107.5 20q65 0 114 -29.5t70 -77.5l51 290h92l-131 -740h-92l19 103q-17 -23 -40 -43.5t-51.5 -35.5t-62 -24
t-70.5 -9q-55 0 -99 20.5t-72.5 58t-39.5 90t0 116.5zM505 275q9 48 0.5 85.5t-29.5 63.5t-52.5 40t-68.5 14q-38 0 -74 -13.5t-66 -39t-51.5 -63.5t-29.5 -86q-9 -48 -0.5 -86.5t29 -64.5t51.5 -40t69 -14q37 0 73.5 13.5t66.5 40t51.5 64.5t30.5 86z" />
    <glyph glyph-name="Dcroat" unicode="&#x110;" horiz-adv-x="725" 
d="M385 697q86 0 150 -24.5t104 -69.5t54 -110t-1 -146q-14 -81 -51 -145.5t-92.5 -109t-128.5 -68.5t-158 -24h-217l55 310h-77l14 74h76l55 313h217zM275 70q68 0 123 19.5t96 55.5t67.5 87t37.5 115t2.5 115t-37 87t-76.5 55t-116 19h-125l-42 -239h191l-13 -74h-191
l-43 -240h126z" />
    <glyph glyph-name="dcroat" unicode="&#x111;" horiz-adv-x="675" 
d="M505 275q9 48 0.5 85.5t-29.5 63.5t-52.5 40t-68.5 14q-38 0 -74 -13.5t-66 -39t-51.5 -63.5t-29.5 -86q-9 -48 -0.5 -86.5t29 -64.5t51.5 -40t69 -14q37 0 73.5 13.5t66.5 40t51.5 64.5t30.5 86zM40 276q11 64 40.5 116t71 88.5t93 56.5t107.5 20q65 0 114 -29.5
t70 -77.5l27 155h-184l14 74h184l10 61h92l-10 -61h61l-14 -74h-61l-107 -605h-92l19 103q-17 -23 -40 -43.5t-51.5 -35.5t-62 -24t-70.5 -9q-55 0 -99 20.5t-72.5 58t-39.5 90t0 116.5z" />
    <glyph glyph-name="Emacron" unicode="&#x112;" horiz-adv-x="513" 
d="M511 626h-283l-42 -239h253l-12 -70h-253l-44 -245h284l-13 -72h-375l124 698h374zM179 854h352l-12 -68h-352z" />
    <glyph glyph-name="emacron" unicode="&#x113;" horiz-adv-x="620" 
d="M344 480q-34 0 -66 -11.5t-59 -33t-48 -53.5t-31 -73h347q7 42 -1 74t-28 53.5t-49.5 32.5t-64.5 11zM545 169q-17 -38 -44.5 -70.5t-63.5 -56.5t-80 -37.5t-95 -13.5q-59 0 -105 20t-76 57t-41.5 89.5t0.5 117.5t41 117t71.5 89t95.5 56.5t113 19.5t105 -20t73.5 -54.5
t39 -82.5t0.5 -103q-4 -26 -13 -54h-438q-5 -42 4 -74.5t29 -55t49.5 -34t65.5 -11.5q62 0 105 28t66 73h98zM209 709h352l-12 -68h-352z" />
    <glyph glyph-name="Ebreve" unicode="&#x114;" horiz-adv-x="513" 
d="M511 626h-283l-42 -239h253l-12 -70h-253l-44 -245h284l-13 -72h-375l124 698h374zM503 885q-5 -28 -18.5 -51.5t-34.5 -41t-49.5 -27.5t-62.5 -10q-69 0 -99 37.5t-21 93.5l3 17h54q-6 -36 10.5 -56t64.5 -20t71.5 20t30.5 56h54z" />
    <glyph glyph-name="ebreve" unicode="&#x115;" horiz-adv-x="620" 
d="M344 480q-34 0 -66 -11.5t-59 -33t-48 -53.5t-31 -73h347q7 42 -1 74t-28 53.5t-49.5 32.5t-64.5 11zM545 169q-17 -38 -44.5 -70.5t-63.5 -56.5t-80 -37.5t-95 -13.5q-59 0 -105 20t-76 57t-41.5 89.5t0.5 117.5t41 117t71.5 89t95.5 56.5t113 19.5t105 -20t73.5 -54.5
t39 -82.5t0.5 -103q-4 -26 -13 -54h-438q-5 -42 4 -74.5t29 -55t49.5 -34t65.5 -11.5q62 0 105 28t66 73h98zM533 740q-5 -28 -18.5 -51.5t-34.5 -41t-49.5 -27.5t-62.5 -10q-69 0 -99 37.5t-21 93.5l3 17h54q-6 -36 10.5 -56t64.5 -20t71.5 20t30.5 56h54z" />
    <glyph glyph-name="Edotaccent" unicode="&#x116;" horiz-adv-x="513" 
d="M511 626h-283l-42 -239h253l-12 -70h-253l-44 -245h284l-13 -72h-375l124 698h374zM339 761q-23 0 -35.5 15t-8.5 37t22 37.5t40 15.5t35 -15.5t8 -37.5q-4 -22 -21.5 -37t-39.5 -15z" />
    <glyph glyph-name="edotaccent" unicode="&#x117;" horiz-adv-x="620" 
d="M344 480q-34 0 -66 -11.5t-59 -33t-48 -53.5t-31 -73h347q7 42 -1 74t-28 53.5t-49.5 32.5t-64.5 11zM545 169q-17 -38 -44.5 -70.5t-63.5 -56.5t-80 -37.5t-95 -13.5q-59 0 -105 20t-76 57t-41.5 89.5t0.5 117.5t41 117t71.5 89t95.5 56.5t113 19.5t105 -20t73.5 -54.5
t39 -82.5t0.5 -103q-4 -26 -13 -54h-438q-5 -42 4 -74.5t29 -55t49.5 -34t65.5 -11.5q62 0 105 28t66 73h98zM369 617q-23 0 -35.5 15t-8.5 37t22 37.5t40 15.5t35 -15.5t8 -37.5q-4 -22 -21.5 -37t-39.5 -15z" />
    <glyph glyph-name="Eogonek" unicode="&#x118;" horiz-adv-x="513" 
d="M511 626h-283l-42 -239h253l-12 -70h-253l-44 -245h284l-13 -72l-59 -27q-37 -17 -53 -34t-20 -36q-4 -23 10 -35.5t40 -12.5q14 0 32 3.5t36 9.5l-10 -60q-19 -6 -39.5 -10t-40.5 -4q-23 0 -43.5 5.5t-35.5 17.5t-22.5 31t-2.5 46q5 29 25 55t62 51h-254l124 698h374z
" />
    <glyph glyph-name="eogonek" unicode="&#x119;" horiz-adv-x="620" 
d="M344 480q-34 0 -66 -11.5t-59 -33t-48 -53.5t-31 -73h347q7 42 -1 74t-28 53.5t-49.5 32.5t-64.5 11zM348 -178q-19 -6 -39.5 -10t-40.5 -4q-23 0 -43.5 5.5t-35.5 17.5t-22.5 31t-2.5 46q4 23 17.5 44.5t39.5 41.5q-49 6 -87.5 28.5t-62.5 59t-33 85.5t2 108
q12 65 41 117t71.5 89t95.5 56.5t113 19.5t105 -20t73.5 -54.5t39 -82.5t0.5 -103q-4 -26 -13 -54h-438q-5 -42 4 -74.5t29 -55t49.5 -34t65.5 -11.5q62 0 105 28t66 73h98q-27 -60 -78.5 -105t-122.5 -63l-31 -14q-37 -17 -53 -34t-20 -36q-4 -23 10 -35.5t40 -12.5
q14 0 32 3.5t36 9.5z" />
    <glyph glyph-name="Ecaron" unicode="&#x11a;" horiz-adv-x="513" 
d="M511 626h-283l-42 -239h253l-12 -70h-253l-44 -245h284l-13 -72h-375l124 698h374zM502 901l-13 -72l-153 -83l-124 83l13 72l124 -85z" />
    <glyph glyph-name="ecaron" unicode="&#x11b;" horiz-adv-x="620" 
d="M344 480q-34 0 -66 -11.5t-59 -33t-48 -53.5t-31 -73h347q7 42 -1 74t-28 53.5t-49.5 32.5t-64.5 11zM545 169q-17 -38 -44.5 -70.5t-63.5 -56.5t-80 -37.5t-95 -13.5q-59 0 -105 20t-76 57t-41.5 89.5t0.5 117.5t41 117t71.5 89t95.5 56.5t113 19.5t105 -20t73.5 -54.5
t39 -82.5t0.5 -103q-4 -26 -13 -54h-438q-5 -42 4 -74.5t29 -55t49.5 -34t65.5 -11.5q62 0 105 28t66 73h98zM532 756l-13 -72l-153 -83l-124 83l13 72l124 -85z" />
    <glyph glyph-name="Gbreve" unicode="&#x11e;" horiz-adv-x="778" 
d="M54 349q14 78 52.5 143.5t94 113t123.5 73.5t142 26q112 0 187.5 -54.5t97.5 -155.5h-109q-18 61 -67 94.5t-123 33.5q-55 0 -105.5 -19t-91 -55t-69 -86.5t-39.5 -113.5t-0.5 -113.5t38.5 -86t71.5 -54.5t98.5 -19q52 0 97.5 16t83 45.5t64.5 71.5t41 95h-278l13 72h375
l-13 -70q-17 -65 -54.5 -122t-90 -99t-117 -66.5t-135.5 -24.5q-74 0 -133 26t-98 73t-54.5 112.5t-1.5 143.5zM640 885q-5 -28 -18.5 -51.5t-34.5 -41t-49.5 -27.5t-62.5 -10q-69 0 -99 37.5t-21 93.5l3 17h54q-6 -36 10.5 -56t64.5 -20t71.5 20t30.5 56h54z" />
    <glyph glyph-name="gbreve" unicode="&#x11f;" horiz-adv-x="676" 
d="M40 276q11 64 40.5 116t71 88.5t92.5 56.5t107 20q37 0 67.5 -8.5t53.5 -23.5t39 -35t24 -42l18 100h92l-99 -560q-10 -57 -37 -104t-67 -81.5t-91.5 -53.5t-111.5 -19q-54 0 -97.5 13t-73.5 38t-46 60t-15 79h91q6 -50 46.5 -80.5t108.5 -30.5q36 0 69.5 11.5t60 34
t45.5 56t27 77.5l20 115q-17 -22 -40 -42.5t-51.5 -36t-62 -24.5t-70.5 -9q-55 0 -99 20.5t-72.5 58t-39.5 90t0 116.5zM505 275q9 48 0.5 85.5t-29.5 63.5t-52.5 40t-68.5 14q-38 0 -74 -13.5t-66 -39t-51.5 -63.5t-29.5 -86q-9 -48 -0.5 -86.5t29 -64.5t51.5 -40t69 -14
q37 0 73.5 13.5t66.5 40t51.5 64.5t30.5 86zM561 740q-5 -28 -18.5 -51.5t-34.5 -41t-49.5 -27.5t-62.5 -10q-69 0 -99 37.5t-21 93.5l3 17h54q-6 -36 10.5 -56t64.5 -20t71.5 20t30.5 56h54z" />
    <glyph glyph-name="Gdotaccent" unicode="&#x120;" horiz-adv-x="778" 
d="M54 349q14 78 52.5 143.5t94 113t123.5 73.5t142 26q112 0 187.5 -54.5t97.5 -155.5h-109q-18 61 -67 94.5t-123 33.5q-55 0 -105.5 -19t-91 -55t-69 -86.5t-39.5 -113.5t-0.5 -113.5t38.5 -86t71.5 -54.5t98.5 -19q52 0 97.5 16t83 45.5t64.5 71.5t41 95h-278l13 72h375
l-13 -70q-17 -65 -54.5 -122t-90 -99t-117 -66.5t-135.5 -24.5q-74 0 -133 26t-98 73t-54.5 112.5t-1.5 143.5zM476 761q-23 0 -35.5 15t-8.5 37t22 37.5t40 15.5t35 -15.5t8 -37.5q-4 -22 -21.5 -37t-39.5 -15z" />
    <glyph glyph-name="gdotaccent" unicode="&#x121;" horiz-adv-x="676" 
d="M40 276q11 64 40.5 116t71 88.5t92.5 56.5t107 20q37 0 67.5 -8.5t53.5 -23.5t39 -35t24 -42l18 100h92l-99 -560q-10 -57 -37 -104t-67 -81.5t-91.5 -53.5t-111.5 -19q-54 0 -97.5 13t-73.5 38t-46 60t-15 79h91q6 -50 46.5 -80.5t108.5 -30.5q36 0 69.5 11.5t60 34
t45.5 56t27 77.5l20 115q-17 -22 -40 -42.5t-51.5 -36t-62 -24.5t-70.5 -9q-55 0 -99 20.5t-72.5 58t-39.5 90t0 116.5zM505 275q9 48 0.5 85.5t-29.5 63.5t-52.5 40t-68.5 14q-38 0 -74 -13.5t-66 -39t-51.5 -63.5t-29.5 -86q-9 -48 -0.5 -86.5t29 -64.5t51.5 -40t69 -14
q37 0 73.5 13.5t66.5 40t51.5 64.5t30.5 86zM397 617q-23 0 -35.5 15t-8.5 37t22 37.5t40 15.5t35 -15.5t8 -37.5q-4 -22 -21.5 -37t-39.5 -15z" />
    <glyph glyph-name="uni0122" unicode="&#x122;" horiz-adv-x="778" 
d="M374 -49q3 -45 -3 -83q-11 -60 -42 -87.5t-80 -27.5l8 42q25 0 38.5 14.5t18.5 41.5l3 18h-48l15 82h90zM54 349q14 78 52.5 143.5t94 113t123.5 73.5t142 26q112 0 187.5 -54.5t97.5 -155.5h-109q-18 61 -67 94.5t-123 33.5q-55 0 -105.5 -19t-91 -55t-69 -86.5
t-39.5 -113.5t-0.5 -113.5t38.5 -86t71.5 -54.5t98.5 -19q52 0 97.5 16t83 45.5t64.5 71.5t41 95h-278l13 72h375l-13 -70q-17 -65 -54.5 -122t-90 -99t-117 -66.5t-135.5 -24.5q-74 0 -133 26t-98 73t-54.5 112.5t-1.5 143.5z" />
    <glyph glyph-name="uni0123" unicode="&#x123;" horiz-adv-x="676" 
d="M346 596q-3 50 5 92q11 59 41 86t80 27l-8 -42q-26 0 -39 -14t-18 -40l-3 -23h48l-15 -86h-91zM40 276q11 64 40.5 116t71 88.5t92.5 56.5t107 20q37 0 67.5 -8.5t53.5 -23.5t39 -35t24 -42l18 100h92l-99 -560q-10 -57 -37 -104t-67 -81.5t-91.5 -53.5t-111.5 -19
q-54 0 -97.5 13t-73.5 38t-46 60t-15 79h91q6 -50 46.5 -80.5t108.5 -30.5q36 0 69.5 11.5t60 34t45.5 56t27 77.5l20 115q-17 -22 -40 -42.5t-51.5 -36t-62 -24.5t-70.5 -9q-55 0 -99 20.5t-72.5 58t-39.5 90t0 116.5zM505 275q9 48 0.5 85.5t-29.5 63.5t-52.5 40t-68.5 14
q-38 0 -74 -13.5t-66 -39t-51.5 -63.5t-29.5 -86q-9 -48 -0.5 -86.5t29 -64.5t51.5 -40t69 -14q37 0 73.5 13.5t66.5 40t51.5 64.5t30.5 86z" />
    <glyph glyph-name="Itilde" unicode="&#x128;" horiz-adv-x="246" 
d="M150 697h91l-124 -697h-91zM36 754q11 61 42 92t74 31q22 0 38.5 -8t29 -18t24 -18t24.5 -8q33 0 42 49h69q-9 -60 -41.5 -91t-74.5 -31q-23 0 -39.5 8t-29 18t-23.5 18t-24 8q-32 0 -41 -50h-70z" />
    <glyph glyph-name="itilde" unicode="&#x129;" horiz-adv-x="246" 
d="M123 548h91l-97 -548h-91zM35 620q9 61 36 92t65 31q19 0 33 -8t25.5 -18t21 -18t21.5 -8q29 0 36 49h60q-8 -60 -36 -91t-65 -31q-20 0 -34 8t-25.5 18t-21 18t-20.5 8q-28 0 -35 -50h-61z" />
    <glyph glyph-name="Imacron" unicode="&#x12a;" horiz-adv-x="246" 
d="M150 697h91l-124 -697h-91zM47 854h352l-12 -68h-352z" />
    <glyph glyph-name="imacron" unicode="&#x12b;" horiz-adv-x="246" 
d="M123 548h91l-97 -548h-91zM21 709h352l-12 -68h-352z" />
    <glyph glyph-name="uni012C" unicode="&#x12c;" horiz-adv-x="246" 
d="M150 697h91l-124 -697h-91zM371 885q-5 -28 -18.5 -51.5t-34.5 -41t-49.5 -27.5t-62.5 -10q-69 0 -99 37.5t-21 93.5l3 17h54q-6 -36 10.5 -56t64.5 -20t71.5 20t30.5 56h54z" />
    <glyph glyph-name="uni012D" unicode="&#x12d;" horiz-adv-x="246" 
d="M123 548h91l-97 -548h-91zM345 740q-5 -28 -18.5 -51.5t-34.5 -41t-49.5 -27.5t-62.5 -10q-69 0 -99 37.5t-21 93.5l3 17h54q-6 -36 10.5 -56t64.5 -20t71.5 20t30.5 56h54z" />
    <glyph glyph-name="Iogonek" unicode="&#x12e;" horiz-adv-x="246" 
d="M94 -191q-19 -6 -39.5 -10t-40.5 -4q-23 0 -43.5 5.5t-35.5 17.5t-22.5 31t-2.5 46q5 33 32.5 63.5t86.5 59.5l121 679h91l-124 -694l1 -2h-1v-1h-1l-57 -26q-37 -17 -53 -34t-20 -36q-4 -23 10 -35.5t40 -12.5q14 0 32 3.5t36 9.5l-10 -60v0z" />
    <glyph glyph-name="iogonek" unicode="&#x12f;" horiz-adv-x="246" 
d="M94 -191q-19 -6 -39.5 -10t-40.5 -4q-23 0 -43.5 5.5t-35.5 17.5t-22.5 31t-2.5 46q5 33 32.5 63.5t86.5 59.5l94 530h91l-97 -545l1 -2h-1v-1h-1l-57 -26q-37 -17 -53 -34t-20 -36q-4 -23 10 -35.5t40 -12.5q14 0 32 3.5t36 9.5zM185 637q-26 0 -40.5 18t-9.5 44
t25.5 44t46.5 18t40.5 -18t9.5 -44t-25.5 -44t-46.5 -18z" />
    <glyph glyph-name="Idotaccent" unicode="&#x130;" horiz-adv-x="246" 
d="M150 697h91l-124 -697h-91zM207 761q-23 0 -35.5 15t-8.5 37t22 37.5t40 15.5t35 -15.5t8 -37.5q-4 -22 -21.5 -37t-39.5 -15z" />
    <glyph glyph-name="dotlessi" unicode="&#x131;" horiz-adv-x="246" 
d="M123 548h91l-97 -548h-91z" />
    <glyph glyph-name="uni0136" unicode="&#x136;" horiz-adv-x="599" 
d="M282 -49q2 -23 1 -43.5t-4 -39.5q-11 -60 -42 -87.5t-79 -27.5l8 42q24 0 37.5 14.5t18.5 41.5l3 18h-48l14 82h91zM174 318l-57 -318h-91l124 697h91l-57 -322l345 322h114l-377 -349l257 -348h-119z" />
    <glyph glyph-name="uni0137" unicode="&#x137;" horiz-adv-x="515" 
d="M243 -49q2 -23 0.5 -43.5t-4.5 -39.5q-11 -60 -42 -87.5t-79 -27.5l8 42q46 0 57 56l2 18h-47l14 82h91zM157 740h91l-77 -434l254 242h126l-305 -274l210 -274h-124l-172 241l-43 -241h-91z" />
    <glyph glyph-name="Lacute" unicode="&#x139;" horiz-adv-x="432" 
d="M241 697l-111 -627h244l-13 -70h-335l124 697h91zM428 927l-14 -79l-234 -114l12 68z" />
    <glyph glyph-name="lacute" unicode="&#x13a;" horiz-adv-x="246" 
d="M157 740h91l-131 -740h-91zM343 974l-14 -79l-234 -114l12 68z" />
    <glyph glyph-name="uni013B" unicode="&#x13b;" horiz-adv-x="432" 
d="M227 -49q2 -23 1 -43.5t-4 -39.5q-11 -60 -41.5 -87.5t-80.5 -27.5l8 42q26 0 39 14.5t18 41.5l3 18h-48l15 82h90zM241 697l-111 -627h244l-13 -70h-335l124 697h91z" />
    <glyph glyph-name="uni013C" unicode="&#x13c;" horiz-adv-x="246" 
d="M106 -49q3 -45 -3 -83q-11 -60 -42 -87.5t-80 -27.5l8 42q26 0 39 14.5t18 41.5l3 18h-48l15 82h90zM157 740h91l-131 -740h-91z" />
    <glyph glyph-name="Lcaron" unicode="&#x13d;" horiz-adv-x="446" 
d="M445 697q3 -50 -5 -91q-10 -60 -40.5 -87t-80.5 -27l8 43q48 0 56 54l5 23h-50l16 85h91zM241 697l-111 -627h244l-13 -70h-335l124 697h91z" />
    <glyph glyph-name="lcaron" unicode="&#x13e;" horiz-adv-x="369" 
d="M413 740q2 -26 0 -49t-5 -43q-10 -59 -41 -86t-80 -27l7 43q26 0 39 13.5t18 39.5l5 23h-50l15 86h92zM157 740h91l-131 -740h-91z" />
    <glyph glyph-name="Ldot" unicode="&#x13f;" horiz-adv-x="432" 
d="M241 697l-111 -627h244l-13 -70h-335l124 697h91zM301 761q-23 0 -35.5 15t-8.5 37t22 37.5t40 15.5t35 -15.5t8 -37.5q-4 -22 -21.5 -37t-39.5 -15z" />
    <glyph glyph-name="ldot" unicode="&#x140;" horiz-adv-x="246" 
d="M209 775q-23 0 -35.5 15t-7.5 37q4 22 21.5 37.5t39.5 15.5t35 -15.5t9 -37.5t-22.5 -37t-39.5 -15zM157 740h91l-131 -740h-91z" />
    <glyph glyph-name="Lslash" unicode="&#x141;" horiz-adv-x="437" 
d="M255 697l-49 -274l116 39l-15 -86l-116 -39l-47 -267h243l-13 -70h-334l54 304l-87 -29l15 85l87 29l54 308h92z" />
    <glyph glyph-name="lslash" unicode="&#x142;" horiz-adv-x="251" 
d="M87 327l-76 -28l15 85l76 27l58 329h91l-52 -293l76 27l-15 -84l-76 -28l-64 -362h-91z" />
    <glyph glyph-name="Nacute" unicode="&#x143;" horiz-adv-x="703" 
d="M698 698l-124 -698h-91l-267 555l-99 -555h-91l124 698h91l268 -554l98 554h91zM563 927l-14 -79l-234 -114l12 68z" />
    <glyph glyph-name="nacute" unicode="&#x144;" 
d="M507 782l-14 -79l-234 -114l12 68zM482 310q14 85 -20 127t-103 42q-70 0 -121 -43.5t-67 -132.5v2l-54 -305h-91l97 548h91l-14 -79q35 44 85.5 66.5t106.5 22.5q47 0 85.5 -14.5t63.5 -44t34 -73.5t-1 -103l-57 -323h-90z" />
    <glyph glyph-name="uni0145" unicode="&#x145;" horiz-adv-x="703" 
d="M335 -49q3 -45 -3 -83q-11 -60 -42 -87.5t-79 -27.5l7 42q25 0 38.5 14.5t18.5 41.5l2 18h-47l14 82h91zM698 698l-124 -698h-91l-267 555l-99 -555h-91l124 698h91l268 -554l98 554h91z" />
    <glyph glyph-name="uni0146" unicode="&#x146;" 
d="M305 -49q2 -23 1 -43.5t-4 -39.5q-11 -60 -41.5 -87.5t-79.5 -27.5l8 42q24 0 37.5 14.5t18.5 41.5l3 18h-48l15 82h90zM482 310q14 85 -20 127t-103 42q-70 0 -121 -43.5t-67 -132.5v2l-54 -305h-91l97 548h91l-14 -79q35 44 85.5 66.5t106.5 22.5q47 0 85.5 -14.5
t63.5 -44t34 -73.5t-1 -103l-57 -323h-90z" />
    <glyph glyph-name="Ncaron" unicode="&#x147;" horiz-adv-x="703" 
d="M698 698l-124 -698h-91l-267 555l-99 -555h-91l124 698h91l268 -554l98 554h91zM599 901l-13 -72l-153 -83l-124 83l13 72l124 -85z" />
    <glyph glyph-name="ncaron" unicode="&#x148;" 
d="M482 310q14 85 -20 127t-103 42q-70 0 -121 -43.5t-67 -132.5v2l-54 -305h-91l97 548h91l-14 -79q35 44 85.5 66.5t106.5 22.5q47 0 85.5 -14.5t63.5 -44t34 -73.5t-1 -103l-57 -323h-90zM543 756l-13 -72l-153 -83l-124 83l13 72l124 -85z" />
    <glyph glyph-name="Omacron" unicode="&#x14c;" horiz-adv-x="786" 
d="M756 416q0 -90 -31 -167.5t-86 -134t-130.5 -89t-164.5 -32.5q-66 0 -120 21.5t-92 59.5t-59 91.5t-21 117.5q0 90 31 167t86 133.5t130.5 89t163.5 32.5q67 0 121 -21.5t92 -59.5t59 -91t21 -117zM146 289q0 -100 56.5 -157t154.5 -57q67 0 123.5 27t96.5 73t62.5 106.5
t22.5 128.5q0 100 -56.5 156.5t-155.5 56.5q-68 0 -124 -27t-96 -73t-62 -106.5t-22 -127.5zM318 860h352l-12 -68h-352z" />
    <glyph glyph-name="omacron" unicode="&#x14d;" 
d="M600 328q0 -71 -25.5 -132t-70 -107t-105.5 -72t-132 -26q-52 0 -95 16.5t-73.5 46.5t-47 72t-16.5 93q0 70 25 131.5t69 107.5t104.5 72.5t131.5 26.5q52 0 95.5 -16t74.5 -46t48 -72.5t17 -94.5zM129 223q0 -39 11.5 -68t32 -48.5t47.5 -29t58 -9.5q50 0 92 21t72 56
t47 81.5t17 96.5q0 40 -12.5 69.5t-33.5 49t-49 29t-59 9.5q-50 0 -91.5 -21t-70.5 -56.5t-45 -82t-16 -97.5zM218 718h352l-12 -68h-352z" />
    <glyph glyph-name="uni014E" unicode="&#x14e;" horiz-adv-x="786" 
d="M756 416q0 -90 -31 -167.5t-86 -134t-130.5 -89t-164.5 -32.5q-66 0 -120 21.5t-92 59.5t-59 91.5t-21 117.5q0 90 31 167t86 133.5t130.5 89t163.5 32.5q67 0 121 -21.5t92 -59.5t59 -91t21 -117zM146 289q0 -100 56.5 -157t154.5 -57q67 0 123.5 27t96.5 73t62.5 106.5
t22.5 128.5q0 100 -56.5 156.5t-155.5 56.5q-68 0 -124 -27t-96 -73t-62 -106.5t-22 -127.5zM642 891q-5 -28 -18.5 -51.5t-34.5 -41t-49.5 -27.5t-62.5 -10q-69 0 -99 37.5t-21 93.5l3 17h54q-6 -36 10.5 -56t64.5 -20t71.5 20t30.5 56h54z" />
    <glyph glyph-name="uni014F" unicode="&#x14f;" 
d="M600 328q0 -71 -25.5 -132t-70 -107t-105.5 -72t-132 -26q-52 0 -95 16.5t-73.5 46.5t-47 72t-16.5 93q0 70 25 131.5t69 107.5t104.5 72.5t131.5 26.5q52 0 95.5 -16t74.5 -46t48 -72.5t17 -94.5zM129 223q0 -39 11.5 -68t32 -48.5t47.5 -29t58 -9.5q50 0 92 21t72 56
t47 81.5t17 96.5q0 40 -12.5 69.5t-33.5 49t-49 29t-59 9.5q-50 0 -91.5 -21t-70.5 -56.5t-45 -82t-16 -97.5zM542 749q-5 -28 -18.5 -51.5t-34.5 -41t-49.5 -27.5t-62.5 -10q-69 0 -99 37.5t-21 93.5l3 17h54q-6 -36 10.5 -56t64.5 -20t71.5 20t30.5 56h54z" />
    <glyph glyph-name="Ohungarumlaut" unicode="&#x150;" horiz-adv-x="786" 
d="M756 416q0 -90 -31 -167.5t-86 -134t-130.5 -89t-164.5 -32.5q-66 0 -120 21.5t-92 59.5t-59 91.5t-21 117.5q0 90 31 167t86 133.5t130.5 89t163.5 32.5q67 0 121 -21.5t92 -59.5t59 -91t21 -117zM146 289q0 -100 56.5 -157t154.5 -57q67 0 123.5 27t96.5 73t62.5 106.5
t22.5 128.5q0 100 -56.5 156.5t-155.5 56.5q-68 0 -124 -27t-96 -73t-62 -106.5t-22 -127.5zM697 906l-125 -154h-61l107 154h79zM535 906l-114 -154h-61l94 154h81z" />
    <glyph glyph-name="ohungarumlaut" unicode="&#x151;" 
d="M600 328q0 -71 -25.5 -132t-70 -107t-105.5 -72t-132 -26q-52 0 -95 16.5t-73.5 46.5t-47 72t-16.5 93q0 70 25 131.5t69 107.5t104.5 72.5t131.5 26.5q52 0 95.5 -16t74.5 -46t48 -72.5t17 -94.5zM129 223q0 -39 11.5 -68t32 -48.5t47.5 -29t58 -9.5q50 0 92 21t72 56
t47 81.5t17 96.5q0 40 -12.5 69.5t-33.5 49t-49 29t-59 9.5q-50 0 -91.5 -21t-70.5 -56.5t-45 -82t-16 -97.5zM597 764l-125 -154h-61l107 154h79zM435 764l-114 -154h-61l94 154h81z" />
    <glyph glyph-name="OE" unicode="&#x152;" horiz-adv-x="1088" 
d="M803 626l-42 -239h254l-13 -71h-253l-43 -244h283l-13 -72h-374l25 143q-51 -73 -126.5 -111.5t-163.5 -38.5q-71 0 -129 26t-96.5 73.5t-54 113t-1.5 143.5q14 79 52.5 144.5t93.5 112.5t122 73t138 26q88 0 150 -38t88 -109l25 139h375l-14 -71h-283zM455 623
q-55 0 -105.5 -19t-91 -55t-69 -86.5t-39.5 -113.5t-0.5 -113.5t38.5 -86t71.5 -55t98.5 -19.5t105.5 19.5t91.5 55t69.5 86t39.5 113.5t0.5 113.5t-39 86.5t-72 55t-98.5 19z" />
    <glyph glyph-name="oe" unicode="&#x153;" horiz-adv-x="1080" 
d="M501 275q9 52 0 90.5t-30 64t-52 38t-67 12.5t-71 -12.5t-64.5 -38t-51.5 -64t-31 -90.5t-1 -91t28 -64.5t50.5 -38.5t66.5 -13t71.5 13t66 38.5t53.5 64.5t32 91zM804 480q-34 0 -66.5 -11.5t-59.5 -33.5t-47.5 -54.5t-30.5 -74.5h346q8 42 0 74.5t-28 54.5t-49.5 33.5
t-64.5 11.5zM40 275q12 65 42.5 117t74.5 89t98 56.5t113 19.5q75 0 128.5 -35t75.5 -98q43 63 108 98t142 35q60 0 105 -20t73 -54.5t38.5 -82.5t0.5 -103q-2 -14 -5.5 -27t-8.5 -27h-436q-6 -42 2.5 -74.5t28 -55t48.5 -34t64 -11.5q63 0 106 28t66 73h98
q-17 -38 -44.5 -70.5t-63.5 -56.5t-80.5 -37.5t-95.5 -13.5q-75 0 -127 35t-72 100q-45 -65 -112.5 -100t-142.5 -35q-59 0 -105.5 20t-76.5 57t-42 89.5t0 117.5z" />
    <glyph glyph-name="Racute" unicode="&#x154;" horiz-adv-x="608" 
d="M486 492q11 61 -18 97t-107 36h-133l-47 -267h134q77 0 118.5 37.5t52.5 96.5zM374 697q61 0 104 -16t68 -44t33 -65t1 -80q-6 -33 -21 -65t-40 -58.5t-60 -46.5t-80 -30l123 -292h-109l-116 285h-109l-51 -285h-91l124 697h224zM522 927l-14 -79l-234 -114l12 68z" />
    <glyph glyph-name="racute" unicode="&#x155;" horiz-adv-x="373" 
d="M117 0h-91l97 548h91l-18 -104q32 53 81.5 83.5t115.5 30.5l-17 -94h-24q-33 0 -62 -8t-53 -27.5t-41 -51t-26 -79.5zM416 782l-14 -79l-234 -114l12 68z" />
    <glyph glyph-name="uni0156" unicode="&#x156;" horiz-adv-x="608" 
d="M287 -49q2 -23 0.5 -43.5t-4.5 -39.5q-11 -60 -41.5 -87.5t-79.5 -27.5l8 42q24 0 37.5 14.5t18.5 41.5l3 18h-47l14 82h91zM26 0l124 697h224q61 0 104 -16t68 -44t33 -65t1 -80q-6 -33 -21 -65t-40 -58.5t-60 -46.5t-80 -30l123 -292h-109l-116 285h-109l-51 -285h-91z
M486 492q11 61 -18 97t-107 36h-133l-47 -267h134q77 0 118.5 37.5t52.5 96.5z" />
    <glyph glyph-name="uni0157" unicode="&#x157;" horiz-adv-x="373" 
d="M105 -49q2 -23 1 -43.5t-4 -39.5q-11 -60 -41.5 -87.5t-79.5 -27.5l8 42q25 0 38.5 14.5t18.5 41.5l2 18h-48l15 82h90zM117 0h-91l97 548h91l-18 -104q32 53 81.5 83.5t115.5 30.5l-17 -94h-24q-33 0 -62 -8t-53 -27.5t-41 -51t-26 -79.5z" />
    <glyph glyph-name="Rcaron" unicode="&#x158;" horiz-adv-x="608" 
d="M486 492q11 61 -18 97t-107 36h-133l-47 -267h134q77 0 118.5 37.5t52.5 96.5zM374 697q61 0 104 -16t68 -44t33 -65t1 -80q-6 -33 -21 -65t-40 -58.5t-60 -46.5t-80 -30l123 -292h-109l-116 285h-109l-51 -285h-91l124 697h224zM558 901l-13 -72l-153 -83l-124 83l13 72
l124 -85z" />
    <glyph glyph-name="rcaron" unicode="&#x159;" horiz-adv-x="373" 
d="M117 0h-91l97 548h91l-18 -104q32 53 81.5 83.5t115.5 30.5l-17 -94h-24q-33 0 -62 -8t-53 -27.5t-41 -51t-26 -79.5zM452 756l-13 -72l-153 -83l-124 83l13 72l124 -85z" />
    <glyph glyph-name="Sacute" unicode="&#x15a;" horiz-adv-x="582" 
d="M510 184q-2 -41 -19.5 -76t-49.5 -60.5t-77 -40t-100 -14.5q-51 0 -93.5 13.5t-71.5 38.5t-43 61t-9 80h90q-2 -22 5 -43.5t23 -38t41.5 -27t61.5 -10.5q66 0 105.5 28t42.5 82q3 42 -20.5 67.5t-60.5 44t-80.5 34.5t-80.5 39t-61.5 57.5t-22.5 89.5q0 44 18 80.5
t50 62.5t76 40t97 14q52 0 93 -13.5t68.5 -37.5t41 -57t11.5 -71h-95q1 19 -5.5 37.5t-22 33.5t-39.5 24t-57 9q-62 0 -101.5 -28t-42.5 -79q-2 -30 11.5 -51t37 -37t54 -29t62 -27t62 -30.5t53.5 -39t36.5 -53t11.5 -73.5zM505 927l-14 -79l-234 -114l12 68z" />
    <glyph glyph-name="sacute" unicode="&#x15b;" horiz-adv-x="522" 
d="M439 149q0 -37 -16.5 -66t-46 -49.5t-70 -31.5t-87.5 -11q-45 0 -82.5 12t-64 34t-40 53.5t-8.5 70.5h89q-4 -42 25 -69.5t86 -27.5q54 0 89.5 21t35.5 61q0 28 -20.5 45.5t-51.5 30.5t-66.5 26t-66.5 31.5t-51.5 47t-20.5 73.5q0 35 15.5 64t43 49.5t66 32t84.5 11.5
q45 0 82 -12.5t63 -35t38.5 -54t7.5 -70.5h-87q5 45 -25.5 72t-84.5 27q-49 0 -80.5 -21.5t-31.5 -59.5q0 -30 20.5 -48t51 -32t66.5 -27t66.5 -31t51 -45.5t20.5 -70.5zM447 782l-14 -79l-234 -114l12 68z" />
    <glyph glyph-name="uni015E" unicode="&#x15e;" horiz-adv-x="582" 
d="M510 184q-2 -40 -19 -74t-47 -59.5t-72.5 -40.5t-94.5 -17l-9 -51q57 1 88.5 -24t22.5 -75q-8 -47 -47.5 -75t-92.5 -28h-115l10 59h97q32 0 49.5 10t22.5 34q5 23 -9.5 33t-46.5 10h-51l20 110q-83 12 -130 62t-39 128h90q-2 -22 5 -43.5t23 -38t41.5 -27t61.5 -10.5
q66 0 105.5 28t42.5 82q3 42 -20.5 67.5t-60.5 44t-80.5 34.5t-80.5 39t-61.5 57.5t-22.5 89.5q0 44 18 80.5t50 62.5t76 40t97 14q52 0 93 -13.5t68.5 -37.5t41 -57t11.5 -71h-95q1 19 -5.5 37.5t-22 33.5t-39.5 24t-57 9q-62 0 -101.5 -28t-42.5 -79q-2 -30 11.5 -51
t37 -37t54 -29t62 -27t62 -30.5t53.5 -39t36.5 -53t11.5 -73.5z" />
    <glyph glyph-name="uni015F" unicode="&#x15f;" horiz-adv-x="522" 
d="M439 149q0 -35 -14.5 -62.5t-40.5 -48t-62 -32t-79 -14.5l-8 -50q57 1 88.5 -24t22.5 -75q-8 -47 -47.5 -75t-92.5 -28h-115l10 59h97q32 0 49.5 10t22.5 34q5 23 -9.5 33t-46.5 10h-51l19 107q-37 4 -68 18t-52.5 35.5t-31.5 50.5t-6 64h89q-4 -42 25 -69.5t86 -27.5
q54 0 89.5 21t35.5 61q0 28 -20.5 45.5t-51.5 30.5t-66.5 26t-66.5 31.5t-51.5 47t-20.5 73.5q0 35 15.5 64t43 49.5t66 32t84.5 11.5q45 0 82 -12.5t63 -35t38.5 -54t7.5 -70.5h-87q5 45 -25.5 72t-84.5 27q-49 0 -80.5 -21.5t-31.5 -59.5q0 -30 20.5 -48t51 -32t66.5 -27
t66.5 -31t51 -45.5t20.5 -70.5z" />
    <glyph glyph-name="Scaron" unicode="&#x160;" horiz-adv-x="582" 
d="M510 184q-2 -41 -19.5 -76t-49.5 -60.5t-77 -40t-100 -14.5q-51 0 -93.5 13.5t-71.5 38.5t-43 61t-9 80h90q-2 -22 5 -43.5t23 -38t41.5 -27t61.5 -10.5q66 0 105.5 28t42.5 82q3 42 -20.5 67.5t-60.5 44t-80.5 34.5t-80.5 39t-61.5 57.5t-22.5 89.5q0 44 18 80.5
t50 62.5t76 40t97 14q52 0 93 -13.5t68.5 -37.5t41 -57t11.5 -71h-95q1 19 -5.5 37.5t-22 33.5t-39.5 24t-57 9q-62 0 -101.5 -28t-42.5 -79q-2 -30 11.5 -51t37 -37t54 -29t62 -27t62 -30.5t53.5 -39t36.5 -53t11.5 -73.5zM541 901l-13 -72l-153 -83l-124 83l13 72l124 -85
z" />
    <glyph glyph-name="scaron" unicode="&#x161;" horiz-adv-x="522" 
d="M439 149q0 -37 -16.5 -66t-46 -49.5t-70 -31.5t-87.5 -11q-45 0 -82.5 12t-64 34t-40 53.5t-8.5 70.5h89q-4 -42 25 -69.5t86 -27.5q54 0 89.5 21t35.5 61q0 28 -20.5 45.5t-51.5 30.5t-66.5 26t-66.5 31.5t-51.5 47t-20.5 73.5q0 35 15.5 64t43 49.5t66 32t84.5 11.5
q45 0 82 -12.5t63 -35t38.5 -54t7.5 -70.5h-87q5 45 -25.5 72t-84.5 27q-49 0 -80.5 -21.5t-31.5 -59.5q0 -30 20.5 -48t51 -32t66.5 -27t66.5 -31t51 -45.5t20.5 -70.5zM483 756l-13 -72l-153 -83l-124 83l13 72l124 -85z" />
    <glyph glyph-name="uni0162" unicode="&#x162;" horiz-adv-x="541" 
d="M107 697h471l-13 -71h-190l-110 -626h-13l-10 -58q57 1 88.5 -24t22.5 -75q-8 -47 -47.5 -75t-92.5 -28h-115l10 59h97q32 0 49.5 10t22.5 34q5 23 -9.5 33t-46.5 10h-51l21 114h-17l110 626h-190z" />
    <glyph glyph-name="uni0163" unicode="&#x163;" horiz-adv-x="364" 
d="M129 473h-70l13 75h71l24 138h92l-24 -138h142l-13 -75h-143l-57 -323q-8 -41 6.5 -57t56.5 -16h67l-14 -77h-82h-10.5t-10.5 1l-11 -59q57 1 88.5 -24t22.5 -75q-8 -47 -47.5 -75t-92.5 -28h-115l11 59h97q32 0 49.5 10t21.5 34q5 23 -9.5 33t-46.5 10h-50l22 129
q-31 15 -43 47.5t-2 87.5z" />
    <glyph glyph-name="Tcaron" unicode="&#x164;" horiz-adv-x="541" 
d="M107 697h471l-13 -71h-190l-110 -626h-91l110 626h-190zM518 901l-13 -72l-153 -83l-124 83l13 72l124 -85z" />
    <glyph glyph-name="tcaron" unicode="&#x165;" horiz-adv-x="367" 
d="M439 773q1 -26 0.5 -45.5t-3.5 -39.5q-10 -52 -40 -74.5t-80 -22.5l8 42q48 0 54 36l3 18h-49l16 86h91zM129 473h-70l13 75h71l24 138h92l-24 -138h142l-13 -75h-143l-57 -323q-8 -41 6.5 -57t56.5 -16h67l-14 -77h-82q-73 0 -106.5 33.5t-19.5 116.5z" />
    <glyph glyph-name="Utilde" unicode="&#x168;" horiz-adv-x="675" 
d="M148 697h91l-78 -440q-8 -48 -2 -82.5t25 -57t48.5 -33t67.5 -10.5q78 0 132.5 44t71.5 139l78 440h91l-78 -440q-12 -68 -41.5 -117.5t-71.5 -82t-92.5 -48.5t-104.5 -16t-99 16t-74.5 48.5t-41.5 82t0 117.5zM248 754q11 61 42 92t74 31q22 0 38.5 -8t29 -18t24 -18
t24.5 -8q33 0 42 49h69q-9 -60 -41.5 -91t-74.5 -31q-23 0 -39.5 8t-29 18t-23.5 18t-24 8q-32 0 -41 -50h-70z" />
    <glyph glyph-name="utilde" unicode="&#x169;" 
d="M512 0h-91l14 80q-34 -43 -85 -65.5t-105 -22.5q-47 0 -85.5 14.5t-64 44t-35 73.5t0.5 103l57 321h90l-54 -309q-14 -84 20 -126t103 -42q35 0 66 11t55.5 33t41.5 55t24 77v-3l54 304h91zM198 620q11 61 42 92t74 31q22 0 38.5 -8t29 -18t24 -18t24.5 -8q33 0 42 49h69
q-9 -60 -41.5 -91t-74.5 -31q-23 0 -39.5 8t-29 18t-23.5 18t-24 8q-32 0 -41 -50h-70z" />
    <glyph glyph-name="Umacron" unicode="&#x16a;" horiz-adv-x="675" 
d="M148 697h91l-78 -440q-8 -48 -2 -82.5t25 -57t48.5 -33t67.5 -10.5q78 0 132.5 44t71.5 139l78 440h91l-78 -440q-12 -68 -41.5 -117.5t-71.5 -82t-92.5 -48.5t-104.5 -16t-99 16t-74.5 48.5t-41.5 82t0 117.5zM262 854h352l-12 -68h-352z" />
    <glyph glyph-name="umacron" unicode="&#x16b;" 
d="M512 0h-91l14 80q-34 -43 -85 -65.5t-105 -22.5q-47 0 -85.5 14.5t-64 44t-35 73.5t0.5 103l57 321h90l-54 -309q-14 -84 20 -126t103 -42q35 0 66 11t55.5 33t41.5 55t24 77v-3l54 304h91zM219 709h352l-12 -68h-352z" />
    <glyph glyph-name="Ubreve" unicode="&#x16c;" horiz-adv-x="675" 
d="M148 697h91l-78 -440q-8 -48 -2 -82.5t25 -57t48.5 -33t67.5 -10.5q78 0 132.5 44t71.5 139l78 440h91l-78 -440q-12 -68 -41.5 -117.5t-71.5 -82t-92.5 -48.5t-104.5 -16t-99 16t-74.5 48.5t-41.5 82t0 117.5zM586 885q-5 -28 -18.5 -51.5t-34.5 -41t-49.5 -27.5
t-62.5 -10q-69 0 -99 37.5t-21 93.5l3 17h54q-6 -36 10.5 -56t64.5 -20t71.5 20t30.5 56h54z" />
    <glyph glyph-name="ubreve" unicode="&#x16d;" 
d="M512 0h-91l14 80q-34 -43 -85 -65.5t-105 -22.5q-47 0 -85.5 14.5t-64 44t-35 73.5t0.5 103l57 321h90l-54 -309q-14 -84 20 -126t103 -42q35 0 66 11t55.5 33t41.5 55t24 77v-3l54 304h91zM543 740q-5 -28 -18.5 -51.5t-34.5 -41t-49.5 -27.5t-62.5 -10q-69 0 -99 37.5
t-21 93.5l3 17h54q-6 -36 10.5 -56t64.5 -20t71.5 20t30.5 56h54z" />
    <glyph glyph-name="Uring" unicode="&#x16e;" horiz-adv-x="675" 
d="M148 697h91l-78 -440q-8 -48 -2 -82.5t25 -57t48.5 -33t67.5 -10.5q78 0 132.5 44t71.5 139l78 440h91l-78 -440q-12 -68 -41.5 -117.5t-71.5 -82t-92.5 -48.5t-104.5 -16t-99 16t-74.5 48.5t-41.5 82t0 117.5zM333 857q9 49 44.5 77t78.5 28q45 0 69.5 -28t16.5 -77
q-9 -49 -44 -77t-79 -28q-43 0 -68.5 28t-17.5 77zM494 858q5 26 -9 41t-38 15q-23 0 -41.5 -15t-23.5 -41t8.5 -41.5t36.5 -15.5q24 0 43 15.5t24 41.5z" />
    <glyph glyph-name="uring" unicode="&#x16f;" 
d="M512 0h-91l14 80q-34 -43 -85 -65.5t-105 -22.5q-47 0 -85.5 14.5t-64 44t-35 73.5t0.5 103l57 321h90l-54 -309q-14 -84 20 -126t103 -42q35 0 66 11t55.5 33t41.5 55t24 77v-3l54 304h91zM452 713q5 26 -9 41t-38 15q-23 0 -41.5 -15t-23.5 -41t8.5 -41.5t36.5 -15.5
q24 0 43 15.5t24 41.5zM291 712q9 49 44.5 77t78.5 28q45 0 69.5 -28t16.5 -77q-9 -49 -44 -77t-79 -28q-43 0 -68.5 28t-17.5 77z" />
    <glyph glyph-name="Uhungarumlaut" unicode="&#x170;" horiz-adv-x="675" 
d="M148 697h91l-78 -440q-8 -48 -2 -82.5t25 -57t48.5 -33t67.5 -10.5q78 0 132.5 44t71.5 139l78 440h91l-78 -440q-12 -68 -41.5 -117.5t-71.5 -82t-92.5 -48.5t-104.5 -16t-99 16t-74.5 48.5t-41.5 82t0 117.5zM641 900l-125 -154h-61l107 154h79zM479 900l-114 -154h-61
l94 154h81z" />
    <glyph glyph-name="uhungarumlaut" unicode="&#x171;" 
d="M512 0h-91l14 80q-34 -43 -85 -65.5t-105 -22.5q-47 0 -85.5 14.5t-64 44t-35 73.5t0.5 103l57 321h90l-54 -309q-14 -84 20 -126t103 -42q35 0 66 11t55.5 33t41.5 55t24 77v-3l54 304h91zM436 755l-114 -154h-61l94 154h81zM598 755l-125 -154h-61l107 154h79z" />
    <glyph glyph-name="Uogonek" unicode="&#x172;" horiz-adv-x="675" 
d="M148 697h91l-78 -440q-8 -48 -2 -82.5t25 -57t48.5 -33t67.5 -10.5q78 0 132.5 44t71.5 139l78 440h91l-78 -440q-10 -56 -32.5 -100t-54 -76t-70 -52t-81.5 -29l-59 -27q-37 -17 -53 -34t-20 -36q-4 -23 10 -35.5t40 -12.5q14 0 32 3.5t36 9.5l-10 -60q-19 -6 -39.5 -10
t-40.5 -4q-23 0 -43.5 5.5t-35.5 17.5t-22.5 31t-2.5 46q5 28 24 53.5t59 49.5q-43 7 -77.5 26.5t-57 51.5t-30.5 77.5t3 104.5z" />
    <glyph glyph-name="uogonek" unicode="&#x173;" 
d="M512 0v-1l-59 -27q-37 -17 -53 -34t-20 -36q-4 -23 10 -35.5t40 -12.5q14 0 32 3.5t36 9.5l-10 -60q-19 -6 -39.5 -10t-40.5 -4q-23 0 -43.5 5.5t-35.5 17.5t-22.5 31t-2.5 46q5 34 33 64.5t87 58.5l11 64q-34 -43 -85 -65.5t-105 -22.5q-47 0 -85.5 14.5t-64 44
t-35 73.5t0.5 103l57 321h90l-54 -309q-14 -84 20 -126t103 -42q35 0 66 11t55.5 33t41.5 55t24 77v-3l54 304h91z" />
    <glyph glyph-name="Wcircumflex" unicode="&#x174;" horiz-adv-x="976" 
d="M95 697h98l48 -589l271 589h103l56 -587l256 587h98l-325 -697h-102l-63 561l-266 -561l-102 -1zM678 755l-123 85l-153 -85l12 72l154 83l123 -83z" />
    <glyph glyph-name="wcircumflex" unicode="&#x175;" horiz-adv-x="820" 
d="M58 548h93l45 -460l216 460h94l52 -457l205 457h90l-268 -548h-94l-54 436l-210 -436h-94zM604 602l-123 85l-153 -85l12 72l154 83l123 -83z" />
    <glyph glyph-name="Ycircumflex" unicode="&#x176;" horiz-adv-x="584" 
d="M91 697h102l109 -351l233 351h103l-304 -434l-47 -263h-91l47 263zM512 747l-123 85l-153 -85l12 72l154 83l123 -83z" />
    <glyph glyph-name="ycircumflex" unicode="&#x177;" horiz-adv-x="563" 
d="M58 548h101l93 -442l249 442h94l-472 -806h-95l155 264zM475 602l-123 85l-153 -85l12 72l154 83l123 -83z" />
    <glyph glyph-name="Ydieresis" unicode="&#x178;" horiz-adv-x="584" 
d="M91 697h102l109 -351l233 351h103l-304 -434l-47 -263h-91l47 263zM297 767q-20 0 -32.5 12t-12.5 31q0 25 19 43.5t44 18.5q20 0 32 -12.5t12 -30.5q0 -26 -19.5 -44t-42.5 -18zM460 767q-20 0 -32.5 12t-12.5 31q0 25 19 43.5t44 18.5q19 0 31.5 -12.5t12.5 -30.5
q0 -26 -19.5 -44t-42.5 -18z" />
    <glyph glyph-name="Zacute" unicode="&#x179;" horiz-adv-x="541" 
d="M551 625l-434 -546h341l-15 -79h-448l13 72l434 546h-335l15 79h442zM482 927l-14 -79l-234 -114l12 68z" />
    <glyph glyph-name="zacute" unicode="&#x17a;" horiz-adv-x="455" 
d="M444 474l-336 -399h269l-14 -75h-373l13 75l337 399h-264l13 74h368zM414 782l-14 -79l-234 -114l12 68z" />
    <glyph glyph-name="Zdotaccent" unicode="&#x17b;" horiz-adv-x="541" 
d="M551 625l-434 -546h341l-15 -79h-448l13 72l434 546h-335l15 79h442zM355 761q-23 0 -35.5 15t-8.5 37t22 37.5t40 15.5t35 -15.5t8 -37.5q-4 -22 -21.5 -37t-39.5 -15z" />
    <glyph glyph-name="zdotaccent" unicode="&#x17c;" horiz-adv-x="455" 
d="M444 474l-336 -399h269l-14 -75h-373l13 75l337 399h-264l13 74h368zM287 617q-23 0 -35.5 15t-8.5 37t22 37.5t40 15.5t35 -15.5t8 -37.5q-4 -22 -21.5 -37t-39.5 -15z" />
    <glyph glyph-name="Zcaron" unicode="&#x17d;" horiz-adv-x="541" 
d="M551 625l-434 -546h341l-15 -79h-448l13 72l434 546h-335l15 79h442zM518 901l-13 -72l-153 -83l-124 83l13 72l124 -85z" />
    <glyph glyph-name="zcaron" unicode="&#x17e;" horiz-adv-x="455" 
d="M444 474l-336 -399h269l-14 -75h-373l13 75l337 399h-264l13 74h368zM450 756l-13 -72l-153 -83l-124 83l13 72l124 -85z" />
    <glyph glyph-name="uni018F" unicode="&#x18f;" horiz-adv-x="745" 
d="M327 75q51 0 96.5 16t82 45.5t62.5 70.5t37 91h-465q-9 -53 0.5 -94.5t34.5 -70t63.5 -43.5t88.5 -15zM316 -7q-60 0 -110.5 17.5t-86.5 51.5t-56.5 82t-20.5 110q0 30 6 64t15 65h556v1q7 54 -4 98t-36.5 75.5t-64 48.5t-87.5 17q-78 0 -141.5 -38t-97.5 -105h-105
q24 52 60.5 93.5t82.5 70.5t100.5 45t114.5 16q63 0 114.5 -20t88.5 -56.5t57 -87.5t20 -112q0 -88 -29.5 -167t-83 -139t-128 -95t-164.5 -35z" />
    <glyph glyph-name="florin" unicode="&#x192;" horiz-adv-x="332" 
d="M162 595q26 91 85.5 131.5t161.5 40.5l-21 -76q-58 0 -89.5 -22t-45.5 -74l-13 -47h115l-20 -74h-116l-150 -531q-21 -75 -65 -107.5t-114 -32.5h-24l22 75h18q29 0 45.5 14t26.5 51l150 531h-71l20 74h72l13 47v0z" />
    <glyph glyph-name="Ohorn" unicode="&#x1a0;" horiz-adv-x="786" 
d="M756 416q0 -90 -31 -167.5t-86 -134t-130.5 -89t-164.5 -32.5q-66 0 -120 21.5t-92 59.5t-59 91.5t-21 117.5q0 90 31 167t86 133.5t130.5 89t163.5 32.5q37 0 75 -8q37 0 65.5 21.5t36.5 72.5h89q-9 -51 -33.5 -84t-58.5 -51q57 -38 88 -99.5t31 -140.5zM146 289
q0 -100 56.5 -157t154.5 -57q67 0 123.5 27t96.5 73t62.5 106.5t22.5 128.5q0 100 -56.5 156.5t-155.5 56.5q-68 0 -124 -27t-96 -73t-62 -106.5t-22 -127.5z" />
    <glyph glyph-name="ohorn" unicode="&#x1a1;" 
d="M600 328q0 -71 -25.5 -132t-70 -107t-105.5 -72t-132 -26q-52 0 -95 16.5t-73.5 46.5t-47 72t-16.5 93q0 70 25 131.5t69 107.5t104.5 72.5t131.5 26.5q39 0 72 -9q36 1 63.5 22.5t35.5 71.5h89q-10 -54 -36.5 -88t-63.5 -51q35 -30 55 -74t20 -101zM129 223
q0 -39 11.5 -68t32 -48.5t47.5 -29t58 -9.5q50 0 92 21t72 56t47 81.5t17 96.5q0 40 -12.5 69.5t-33.5 49t-49 29t-59 9.5q-50 0 -91.5 -21t-70.5 -56.5t-45 -82t-16 -97.5z" />
    <glyph glyph-name="Uhorn" unicode="&#x1af;" horiz-adv-x="675" 
d="M148 697h91l-78 -440q-8 -48 -2 -82.5t25 -57t48.5 -33t67.5 -10.5q78 0 132.5 44t71.5 139l78 440h11q35 2 61 24t34 70h89q-11 -59 -41 -93.5t-72 -50.5l-69 -390q-12 -68 -41.5 -117.5t-71.5 -82t-92.5 -48.5t-104.5 -16t-99 16t-74.5 48.5t-41.5 82t0 117.5z" />
    <glyph glyph-name="uhorn" unicode="&#x1b0;" 
d="M713 642q-11 -59 -41 -93.5t-72 -50.5l-88 -498h-91l14 80q-34 -43 -85 -65.5t-105 -22.5q-47 0 -85.5 14.5t-64 44t-35 73.5t0.5 103l57 321h90l-54 -309q-14 -84 20 -126t103 -42q35 0 66 11t55.5 33t41.5 55t24 77v-3l54 304h4q37 0 65.5 21.5t36.5 72.5h89v0z" />
    <glyph glyph-name="uni01FC" unicode="&#x1fc;" horiz-adv-x="900" 
d="M745 933l-14 -79l-234 -114l12 68zM227 226h227l71 403zM615 626l-42 -239h253l-12 -70h-253l-43 -245h282l-13 -72h-373l27 155h-266l-115 -155h-100l519 698h432l-13 -72h-283z" />
    <glyph glyph-name="uni01FD" unicode="&#x1fd;" horiz-adv-x="1100" 
d="M818 480q-35 0 -68.5 -11.5t-62 -33.5t-50.5 -54t-33 -72h361q7 41 -1 73t-28.5 53.5t-51 33t-66.5 11.5zM1022 169q-17 -38 -44 -70.5t-62 -56.5t-78 -37.5t-92 -13.5q-67 0 -117 31t-68 84l-18 -106h-86l19 105q-37 -48 -95 -81t-130 -33q-55 0 -99 20.5t-72.5 58
t-39.5 90t0 116.5t40.5 116t71.5 88.5t94 56.5t109 20q69 0 114.5 -28.5t66.5 -81.5l18 101h85l-17 -101q45 58 101.5 84t122.5 26q58 0 102 -20t71.5 -55.5t37 -83t0.5 -101.5q-3 -14 -6 -27t-8 -27h-451q-4 -44 7.5 -77t33 -54.5t51 -32.5t61.5 -11q66 0 111.5 28t67.5 73
h98zM134 276q-9 -48 -0.5 -86.5t29 -64.5t51.5 -40t69 -14q37 0 73.5 13.5t66.5 40t51.5 64.5t30.5 86t0.5 85.5t-29.5 63.5t-52.5 40t-68.5 14q-38 0 -74 -13.5t-66 -39t-51.5 -63.5t-29.5 -86zM809 782l-14 -79l-234 -114l12 68z" />
    <glyph glyph-name="uni0218" unicode="&#x218;" horiz-adv-x="587" 
d="M283 -49q2 -23 1 -43.5t-4 -39.5q-11 -60 -41.5 -87.5t-79.5 -27.5l7 42q26 0 39.5 14.5t18.5 41.5l2 18h-47l14 82h90zM510 184q-2 -41 -19.5 -76t-49.5 -60.5t-77 -40t-100 -14.5q-51 0 -93.5 13.5t-71.5 38.5t-43 61t-9 80h90q-2 -22 5 -43.5t23 -38t41.5 -27
t61.5 -10.5q66 0 105.5 28t42.5 82q3 42 -20.5 67.5t-60.5 44t-80.5 34.5t-80.5 39t-61.5 57.5t-22.5 89.5q0 44 18 80.5t50 62.5t76 40t97 14q52 0 93 -13.5t68.5 -37.5t41 -57t11.5 -71h-95q1 19 -5.5 37.5t-22 33.5t-39.5 24t-57 9q-62 0 -101.5 -28t-42.5 -79
q-2 -30 11.5 -51t37 -37t54 -29t62 -27t62 -30.5t53.5 -39t36.5 -53t11.5 -73.5z" />
    <glyph glyph-name="uni0219" unicode="&#x219;" horiz-adv-x="522" 
d="M250 -49q3 -45 -3 -83q-11 -60 -42 -87.5t-80 -27.5l8 42q25 0 38.5 14.5t18.5 41.5l2 18h-47l14 82h91zM439 149q0 -37 -16.5 -66t-46 -49.5t-70 -31.5t-87.5 -11q-45 0 -82.5 12t-64 34t-40 53.5t-8.5 70.5h89q-4 -42 25 -69.5t86 -27.5q54 0 89.5 21t35.5 61
q0 28 -20.5 45.5t-51.5 30.5t-66.5 26t-66.5 31.5t-51.5 47t-20.5 73.5q0 35 15.5 64t43 49.5t66 32t84.5 11.5q45 0 82 -12.5t63 -35t38.5 -54t7.5 -70.5h-87q5 45 -25.5 72t-84.5 27q-49 0 -80.5 -21.5t-31.5 -59.5q0 -30 20.5 -48t51 -32t66.5 -27t66.5 -31t51 -45.5
t20.5 -70.5z" />
    <glyph glyph-name="uni021A" unicode="&#x21a;" horiz-adv-x="541" 
d="M254 -49q2 -23 0.5 -43.5t-4.5 -39.5q-11 -60 -41.5 -87.5t-79.5 -27.5l8 42q46 0 57 56l2 18h-47l14 82h91zM107 697h471l-13 -71h-190l-110 -626h-91l110 626h-190z" />
    <glyph glyph-name="uni021B" unicode="&#x21b;" horiz-adv-x="364" 
d="M174 -49q2 -23 1 -43.5t-4 -39.5q-11 -60 -42 -87.5t-80 -27.5l8 42q25 0 38.5 14.5t18.5 41.5l3 18h-48l15 82h90zM129 473h-70l13 75h71l24 138h92l-24 -138h142l-13 -75h-143l-57 -323q-8 -41 6.5 -57t56.5 -16h67l-14 -77h-82q-73 0 -106.5 33.5t-19.5 116.5z" />
    <glyph glyph-name="uni0259" unicode="&#x259;" horiz-adv-x="620" 
d="M276 68q34 0 66 11t59 33t47.5 54t31.5 73h-347q-8 -42 0.5 -74t28.5 -53.5t49.5 -32.5t64.5 -11zM259 -9q-60 0 -105 20t-73.5 54.5t-39 82t-0.5 103.5q4 26 13 54h438q5 42 -4 74.5t-29 55t-49.5 34t-65.5 11.5q-62 0 -105 -28t-66 -73h-98q17 37 44.5 69.5t63.5 56.5
t80 38t95 14q58 0 104.5 -20t76.5 -57t41.5 -89.5t-0.5 -117.5t-41 -117t-71.5 -89t-95.5 -56.5t-113 -19.5z" />
    <glyph glyph-name="uni02BC" unicode="&#x2bc;" horiz-adv-x="219" 
d="M79 470l99 227h102l-136 -227h-65z" />
    <glyph glyph-name="circumflex" unicode="&#x2c6;" horiz-adv-x="311" 
d="M349 602l-123 85l-153 -85l12 72l154 83l123 -83z" />
    <glyph glyph-name="caron" unicode="&#x2c7;" horiz-adv-x="311" 
d="M377 756l-13 -72l-153 -83l-124 83l13 72l124 -85z" />
    <glyph glyph-name="uni02C9" unicode="&#x2c9;" horiz-adv-x="387" 
d="M92 709h352l-12 -68h-352z" />
    <glyph glyph-name="breve" unicode="&#x2d8;" horiz-adv-x="320" 
d="M382 740q-5 -28 -18.5 -51.5t-34.5 -41t-49.5 -27.5t-62.5 -10q-69 0 -99 37.5t-21 93.5l3 17h54q-6 -36 10.5 -56t64.5 -20t71.5 20t30.5 56h54l-3 -18v0z" />
    <glyph glyph-name="dotaccent" unicode="&#x2d9;" horiz-adv-x="143" 
d="M131 622q-23 0 -35.5 15t-8.5 37t22 37.5t40 15.5t35 -15.5t8 -37.5q-4 -22 -21.5 -37t-39.5 -15z" />
    <glyph glyph-name="ring" unicode="&#x2da;" horiz-adv-x="243" 
d="M92 712q9 49 44.5 77t78.5 28q45 0 69.5 -28t16.5 -77q-9 -49 -44 -77t-79 -28q-43 0 -68.5 28t-17.5 77zM253 713q5 26 -9 41t-38 15q-23 0 -41.5 -15t-23.5 -41t8.5 -41.5t36.5 -15.5q24 0 43 15.5t24 41.5z" />
    <glyph glyph-name="ogonek" unicode="&#x2db;" horiz-adv-x="241" 
d="M143 48l16 -48l-59 -27q-37 -17 -53 -34t-20 -36q-4 -23 10 -35.5t40 -12.5q14 0 32 3.5t36 9.5l-10 -60q-19 -6 -39.5 -10t-40.5 -4q-23 0 -43.5 5.5t-35.5 17.5t-22.5 31t-2.5 46q6 36 38 69t101 63z" />
    <glyph glyph-name="tilde" unicode="&#x2dc;" horiz-adv-x="345" 
d="M74 607q16 52 47.5 78.5t70.5 26.5q20 0 33 -7t24 -16t22 -16t27 -7q17 0 30.5 10.5t20.5 32.5h53q-16 -51 -48 -77.5t-71 -26.5q-20 0 -33.5 7t-24.5 16t-22 16t-26 7q-17 0 -30 -10.5t-20 -33.5h-53v0z" />
    <glyph glyph-name="hungarumlaut" unicode="&#x2dd;" horiz-adv-x="344" 
d="M409 755l-125 -154h-61l107 154h79zM247 755l-114 -154h-61l94 154h81z" />
    <glyph glyph-name="pi" unicode="&#x3c0;" horiz-adv-x="710" 
d="M85 548h627l-12 -71h-79l-85 -477h-90l84 477h-288l-84 -477h-91l84 477h-78z" />
    <glyph glyph-name="Wgrave" unicode="&#x1e80;" horiz-adv-x="976" 
d="M95 697h98l48 -589l271 589h103l56 -587l256 587h98l-325 -697h-102l-63 561l-266 -561l-102 -1zM415 932l190 -125l-12 -68l-192 114z" />
    <glyph glyph-name="wgrave" unicode="&#x1e81;" horiz-adv-x="820" 
d="M58 548h93l45 -460l216 460h94l52 -457l205 457h90l-268 -548h-94l-54 436l-210 -436h-94zM330 782l190 -125l-12 -68l-192 114z" />
    <glyph glyph-name="Wacute" unicode="&#x1e82;" horiz-adv-x="976" 
d="M95 697h98l48 -589l271 589h103l56 -587l256 587h98l-325 -697h-102l-63 561l-266 -561l-102 -1zM743 935l-14 -79l-234 -114l12 68z" />
    <glyph glyph-name="wacute" unicode="&#x1e83;" horiz-adv-x="820" 
d="M58 548h93l45 -460l216 460h94l52 -457l205 457h90l-268 -548h-94l-54 436l-210 -436h-94zM667 782l-14 -79l-234 -114l12 68z" />
    <glyph glyph-name="Wdieresis" unicode="&#x1e84;" horiz-adv-x="976" 
d="M95 697h98l48 -589l271 589h103l56 -587l256 587h98l-325 -697h-102l-63 561l-266 -561l-102 -1zM463 773q-20 0 -32.5 12t-12.5 31q0 25 19 43.5t44 18.5q20 0 32 -12.5t12 -30.5q0 -26 -19.5 -44t-42.5 -18zM626 773q-20 0 -32.5 12t-12.5 31q0 25 19 43.5t44 18.5
q19 0 31.5 -12.5t12.5 -30.5q0 -26 -19.5 -44t-42.5 -18z" />
    <glyph glyph-name="wdieresis" unicode="&#x1e85;" horiz-adv-x="820" 
d="M58 548h93l45 -460l216 460h94l52 -457l205 457h90l-268 -548h-94l-54 436l-210 -436h-94zM388 622q-20 0 -32.5 12t-12.5 31q0 25 19 43.5t44 18.5q20 0 32 -12.5t12 -30.5q0 -26 -19.5 -44t-42.5 -18zM551 622q-20 0 -32.5 12t-12.5 31q0 25 19 43.5t44 18.5
q19 0 31.5 -12.5t12.5 -30.5q0 -26 -19.5 -44t-42.5 -18z" />
    <glyph glyph-name="uni1EA0" unicode="&#x1ea0;" horiz-adv-x="674" 
d="M255 -215q-27 0 -44 18.5t-15 45.5t21.5 45.5t46.5 18.5q26 0 43 -18.5t15 -45.5t-21.5 -45.5t-45.5 -18.5zM466 155h-305l-83 -155h-96l374 693h105l129 -693h-96zM389 582l-190 -356h254z" />
    <glyph glyph-name="uni1EA1" unicode="&#x1ea1;" horiz-adv-x="676" 
d="M230 -215q-27 0 -44 18.5t-15 45.5t21.5 45.5t46.5 18.5q26 0 43 -18.5t15 -45.5t-21.5 -45.5t-45.5 -18.5zM40 276q11 64 40.5 116t71 88.5t92.5 56.5t107 20q38 0 68.5 -9t53.5 -24t38.5 -35t23.5 -41l18 100h92l-97 -548h-92l19 102q-17 -22 -40 -42t-51.5 -35.5
t-62 -24.5t-71.5 -9q-55 0 -99 20.5t-72.5 58t-39 90t0.5 116.5zM505 275q9 48 0.5 85.5t-29.5 63.5t-52.5 40t-68.5 14q-38 0 -74 -13.5t-66 -39t-51.5 -63.5t-29.5 -86q-9 -48 -0.5 -86.5t29 -64.5t51.5 -40t69 -14q37 0 73.5 13.5t66.5 40t51.5 64.5t30.5 86z" />
    <glyph glyph-name="uni1EA2" unicode="&#x1ea2;" horiz-adv-x="674" 
d="M402 798q32 14 51.5 27t23.5 34q4 20 -9.5 27.5t-34.5 7.5q-23 0 -53 -9l11 60q17 6 32.5 9.5t32.5 3.5q20 0 39 -5t32.5 -15.5t20 -28t2.5 -41.5q-5 -32 -32 -62t-91 -54zM466 155h-305l-83 -155h-96l374 693h105l129 -693h-96zM389 582l-190 -356h254z" />
    <glyph glyph-name="uni1EA3" unicode="&#x1ea3;" horiz-adv-x="676" 
d="M387 664q32 14 51.5 27t23.5 34q4 20 -9.5 27.5t-34.5 7.5q-23 0 -53 -9l11 60q17 6 32.5 9.5t32.5 3.5q20 0 39 -5t32.5 -15.5t20 -28t2.5 -41.5q-5 -32 -32 -62t-91 -54zM40 276q11 64 40.5 116t71 88.5t92.5 56.5t107 20q38 0 68.5 -9t53.5 -24t38.5 -35t23.5 -41
l18 100h92l-97 -548h-92l19 102q-17 -22 -40 -42t-51.5 -35.5t-62 -24.5t-71.5 -9q-55 0 -99 20.5t-72.5 58t-39 90t0.5 116.5zM505 275q9 48 0.5 85.5t-29.5 63.5t-52.5 40t-68.5 14q-38 0 -74 -13.5t-66 -39t-51.5 -63.5t-29.5 -86q-9 -48 -0.5 -86.5t29 -64.5t51.5 -40
t69 -14q37 0 73.5 13.5t66.5 40t51.5 64.5t30.5 86z" />
    <glyph glyph-name="uni1EA4" unicode="&#x1ea4;" horiz-adv-x="674" 
d="M747 979l-178 -112l-39 53l176 124zM466 155h-305l-83 -155h-96l374 693h105l129 -693h-96zM389 582l-190 -356h254zM288 742l-36 55l186 110l148 -110l-50 -55l-110 80z" />
    <glyph glyph-name="uni1EA5" unicode="&#x1ea5;" horiz-adv-x="676" 
d="M726 845l-178 -112l-39 53l176 124zM40 276q11 64 40.5 116t71 88.5t92.5 56.5t107 20q38 0 68.5 -9t53.5 -24t38.5 -35t23.5 -41l18 100h92l-97 -548h-92l19 102q-17 -22 -40 -42t-51.5 -35.5t-62 -24.5t-71.5 -9q-55 0 -99 20.5t-72.5 58t-39 90t0.5 116.5zM505 275
q9 48 0.5 85.5t-29.5 63.5t-52.5 40t-68.5 14q-38 0 -74 -13.5t-66 -39t-51.5 -63.5t-29.5 -86q-9 -48 -0.5 -86.5t29 -64.5t51.5 -40t69 -14q37 0 73.5 13.5t66.5 40t51.5 64.5t30.5 86zM267 608l-36 55l186 110l148 -110l-50 -55l-110 80z" />
    <glyph glyph-name="uni1EA6" unicode="&#x1ea6;" horiz-adv-x="674" 
d="M492 1044l150 -122l-45 -55l-156 112zM466 155h-305l-83 -155h-96l374 693h105l129 -693h-96zM389 582l-190 -356h254zM288 742l-36 55l186 110l148 -110l-50 -55l-110 80z" />
    <glyph glyph-name="uni1EA7" unicode="&#x1ea7;" horiz-adv-x="676" 
d="M471 910l150 -122l-45 -55l-156 112zM40 276q11 64 40.5 116t71 88.5t92.5 56.5t107 20q38 0 68.5 -9t53.5 -24t38.5 -35t23.5 -41l18 100h92l-97 -548h-92l19 102q-17 -22 -40 -42t-51.5 -35.5t-62 -24.5t-71.5 -9q-55 0 -99 20.5t-72.5 58t-39 90t0.5 116.5zM505 275
q9 48 0.5 85.5t-29.5 63.5t-52.5 40t-68.5 14q-38 0 -74 -13.5t-66 -39t-51.5 -63.5t-29.5 -86q-9 -48 -0.5 -86.5t29 -64.5t51.5 -40t69 -14q37 0 73.5 13.5t66.5 40t51.5 64.5t30.5 86zM267 608l-36 55l186 110l148 -110l-50 -55l-110 80z" />
    <glyph glyph-name="uni1EA8" unicode="&#x1ea8;" horiz-adv-x="674" 
d="M536 913q32 14 51.5 27t23.5 34q4 20 -9.5 27.5t-34.5 7.5q-23 0 -53 -9l11 60q17 6 32.5 9.5t32.5 3.5q20 0 39 -5t32.5 -15.5t20 -28t2.5 -41.5q-5 -32 -32 -62t-91 -54zM466 155h-305l-83 -155h-96l374 693h105l129 -693h-96zM389 582l-190 -356h254zM288 742l-36 55
l186 110l148 -110l-50 -55l-110 80z" />
    <glyph glyph-name="uni1EA9" unicode="&#x1ea9;" horiz-adv-x="676" 
d="M515 779q32 14 51.5 27t23.5 34q4 20 -9.5 27.5t-34.5 7.5q-23 0 -53 -9l11 60q17 6 32.5 9.5t32.5 3.5q20 0 39 -5t32.5 -15.5t20 -28t2.5 -41.5q-5 -32 -32 -62t-91 -54zM40 276q11 64 40.5 116t71 88.5t92.5 56.5t107 20q38 0 68.5 -9t53.5 -24t38.5 -35t23.5 -41
l18 100h92l-97 -548h-92l19 102q-17 -22 -40 -42t-51.5 -35.5t-62 -24.5t-71.5 -9q-55 0 -99 20.5t-72.5 58t-39 90t0.5 116.5zM505 275q9 48 0.5 85.5t-29.5 63.5t-52.5 40t-68.5 14q-38 0 -74 -13.5t-66 -39t-51.5 -63.5t-29.5 -86q-9 -48 -0.5 -86.5t29 -64.5t51.5 -40
t69 -14q37 0 73.5 13.5t66.5 40t51.5 64.5t30.5 86zM267 608l-36 55l186 110l148 -110l-50 -55l-110 80z" />
    <glyph glyph-name="uni1EAA" unicode="&#x1eaa;" horiz-adv-x="674" 
d="M273 936q11 61 42 92t74 31q22 0 38.5 -8t29 -18t24 -18t24.5 -8q33 0 42 49h69q-9 -60 -41.5 -91t-74.5 -31q-23 0 -39.5 8t-29 18t-23.5 18t-24 8q-32 0 -41 -50h-70zM466 155h-305l-83 -155h-96l374 693h105l129 -693h-96zM389 582l-190 -356h254zM288 742l-36 55
l186 110l148 -110l-50 -55l-110 80z" />
    <glyph glyph-name="uni1EAB" unicode="&#x1eab;" horiz-adv-x="676" 
d="M252 802q11 61 42 92t74 31q22 0 38.5 -8t29 -18t24 -18t24.5 -8q33 0 42 49h69q-9 -60 -41.5 -91t-74.5 -31q-23 0 -39.5 8t-29 18t-23.5 18t-24 8q-32 0 -41 -50h-70zM40 276q11 64 40.5 116t71 88.5t92.5 56.5t107 20q38 0 68.5 -9t53.5 -24t38.5 -35t23.5 -41l18 100
h92l-97 -548h-92l19 102q-17 -22 -40 -42t-51.5 -35.5t-62 -24.5t-71.5 -9q-55 0 -99 20.5t-72.5 58t-39 90t0.5 116.5zM505 275q9 48 0.5 85.5t-29.5 63.5t-52.5 40t-68.5 14q-38 0 -74 -13.5t-66 -39t-51.5 -63.5t-29.5 -86q-9 -48 -0.5 -86.5t29 -64.5t51.5 -40t69 -14
q37 0 73.5 13.5t66.5 40t51.5 64.5t30.5 86zM267 608l-36 55l186 110l148 -110l-50 -55l-110 80z" />
    <glyph glyph-name="uni1EAC" unicode="&#x1eac;" horiz-adv-x="674" 
d="M255 -215q-27 0 -44 18.5t-15 45.5t21.5 45.5t46.5 18.5q26 0 43 -18.5t15 -45.5t-21.5 -45.5t-45.5 -18.5zM466 155h-305l-83 -155h-96l374 693h105l129 -693h-96zM389 582l-190 -356h254zM288 742l-36 55l186 110l148 -110l-50 -55l-110 80z" />
    <glyph glyph-name="uni1EAD" unicode="&#x1ead;" horiz-adv-x="676" 
d="M230 -215q-27 0 -44 18.5t-15 45.5t21.5 45.5t46.5 18.5q26 0 43 -18.5t15 -45.5t-21.5 -45.5t-45.5 -18.5zM40 276q11 64 40.5 116t71 88.5t92.5 56.5t107 20q38 0 68.5 -9t53.5 -24t38.5 -35t23.5 -41l18 100h92l-97 -548h-92l19 102q-17 -22 -40 -42t-51.5 -35.5
t-62 -24.5t-71.5 -9q-55 0 -99 20.5t-72.5 58t-39 90t0.5 116.5zM505 275q9 48 0.5 85.5t-29.5 63.5t-52.5 40t-68.5 14q-38 0 -74 -13.5t-66 -39t-51.5 -63.5t-29.5 -86q-9 -48 -0.5 -86.5t29 -64.5t51.5 -40t69 -14q37 0 73.5 13.5t66.5 40t51.5 64.5t30.5 86zM267 608
l-36 55l186 110l148 -110l-50 -55l-110 80z" />
    <glyph glyph-name="uni1EAE" unicode="&#x1eae;" horiz-adv-x="674" 
d="M603 1015l-178 -112l-39 53l176 124zM466 155h-305l-83 -155h-96l374 693h105l129 -693h-96zM389 582l-190 -356h254zM414 742q-35 0 -63 9t-47.5 27t-27.5 44t-2 61h78q-6 -36 13 -54t61 -18q37 0 64 18t33 54h81q-12 -69 -64.5 -105t-125.5 -36z" />
    <glyph glyph-name="uni1EAF" unicode="&#x1eaf;" horiz-adv-x="676" 
d="M579 881l-178 -112l-39 53l176 124zM40 276q11 64 40.5 116t71 88.5t92.5 56.5t107 20q38 0 68.5 -9t53.5 -24t38.5 -35t23.5 -41l18 100h92l-97 -548h-92l19 102q-17 -22 -40 -42t-51.5 -35.5t-62 -24.5t-71.5 -9q-55 0 -99 20.5t-72.5 58t-39 90t0.5 116.5zM505 275
q9 48 0.5 85.5t-29.5 63.5t-52.5 40t-68.5 14q-38 0 -74 -13.5t-66 -39t-51.5 -63.5t-29.5 -86q-9 -48 -0.5 -86.5t29 -64.5t51.5 -40t69 -14q37 0 73.5 13.5t66.5 40t51.5 64.5t30.5 86zM390 608q-35 0 -63 9t-47.5 27t-27.5 44t-2 61h78q-6 -36 13 -54t61 -18q37 0 64 18
t33 54h81q-12 -69 -64.5 -105t-125.5 -36z" />
    <glyph glyph-name="uni1EB0" unicode="&#x1eb0;" horiz-adv-x="674" 
d="M358 1080l150 -122l-45 -55l-156 112zM466 155h-305l-83 -155h-96l374 693h105l129 -693h-96zM389 582l-190 -356h254zM414 742q-35 0 -63 9t-47.5 27t-27.5 44t-2 61h78q-6 -36 13 -54t61 -18q37 0 64 18t33 54h81q-12 -69 -64.5 -105t-125.5 -36z" />
    <glyph glyph-name="uni1EB1" unicode="&#x1eb1;" horiz-adv-x="676" 
d="M334 946l150 -122l-45 -55l-156 112zM40 276q11 64 40.5 116t71 88.5t92.5 56.5t107 20q38 0 68.5 -9t53.5 -24t38.5 -35t23.5 -41l18 100h92l-97 -548h-92l19 102q-17 -22 -40 -42t-51.5 -35.5t-62 -24.5t-71.5 -9q-55 0 -99 20.5t-72.5 58t-39 90t0.5 116.5zM505 275
q9 48 0.5 85.5t-29.5 63.5t-52.5 40t-68.5 14q-38 0 -74 -13.5t-66 -39t-51.5 -63.5t-29.5 -86q-9 -48 -0.5 -86.5t29 -64.5t51.5 -40t69 -14q37 0 73.5 13.5t66.5 40t51.5 64.5t30.5 86zM390 608q-35 0 -63 9t-47.5 27t-27.5 44t-2 61h78q-6 -36 13 -54t61 -18q37 0 64 18
t33 54h81q-12 -69 -64.5 -105t-125.5 -36z" />
    <glyph glyph-name="uni1EB2" unicode="&#x1eb2;" horiz-adv-x="674" 
d="M412 939q32 14 51.5 27t23.5 34q4 20 -9.5 27.5t-34.5 7.5q-23 0 -53 -9l11 60q17 6 32.5 9.5t32.5 3.5q20 0 39 -5t32.5 -15.5t20 -28t2.5 -41.5q-5 -32 -32 -62t-91 -54zM466 155h-305l-83 -155h-96l374 693h105l129 -693h-96zM389 582l-190 -356h254zM414 742
q-35 0 -63 9t-47.5 27t-27.5 44t-2 61h78q-6 -36 13 -54t61 -18q37 0 64 18t33 54h81q-12 -69 -64.5 -105t-125.5 -36z" />
    <glyph glyph-name="uni1EB3" unicode="&#x1eb3;" horiz-adv-x="676" 
d="M388 805q32 14 51.5 27t23.5 34q4 20 -9.5 27.5t-34.5 7.5q-23 0 -53 -9l11 60q17 6 32.5 9.5t32.5 3.5q20 0 39 -5t32.5 -15.5t20 -28t2.5 -41.5q-5 -32 -32 -62t-91 -54zM40 276q11 64 40.5 116t71 88.5t92.5 56.5t107 20q38 0 68.5 -9t53.5 -24t38.5 -35t23.5 -41
l18 100h92l-97 -548h-92l19 102q-17 -22 -40 -42t-51.5 -35.5t-62 -24.5t-71.5 -9q-55 0 -99 20.5t-72.5 58t-39 90t0.5 116.5zM505 275q9 48 0.5 85.5t-29.5 63.5t-52.5 40t-68.5 14q-38 0 -74 -13.5t-66 -39t-51.5 -63.5t-29.5 -86q-9 -48 -0.5 -86.5t29 -64.5t51.5 -40
t69 -14q37 0 73.5 13.5t66.5 40t51.5 64.5t30.5 86zM390 608q-35 0 -63 9t-47.5 27t-27.5 44t-2 61h78q-6 -36 13 -54t61 -18q37 0 64 18t33 54h81q-12 -69 -64.5 -105t-125.5 -36z" />
    <glyph glyph-name="uni1EB4" unicode="&#x1eb4;" horiz-adv-x="674" 
d="M278 925q11 61 42 92t74 31q22 0 38.5 -8t29 -18t24 -18t24.5 -8q33 0 42 49h69q-9 -60 -41.5 -91t-74.5 -31q-23 0 -39.5 8t-29 18t-23.5 18t-24 8q-32 0 -41 -50h-70zM466 155h-305l-83 -155h-96l374 693h105l129 -693h-96zM389 582l-190 -356h254zM414 742
q-35 0 -63 9t-47.5 27t-27.5 44t-2 61h78q-6 -36 13 -54t61 -18q37 0 64 18t33 54h81q-12 -69 -64.5 -105t-125.5 -36z" />
    <glyph glyph-name="uni1EB5" unicode="&#x1eb5;" horiz-adv-x="676" 
d="M254 791q11 61 42 92t74 31q22 0 38.5 -8t29 -18t24 -18t24.5 -8q33 0 42 49h69q-9 -60 -41.5 -91t-74.5 -31q-23 0 -39.5 8t-29 18t-23.5 18t-24 8q-32 0 -41 -50h-70zM40 276q11 64 40.5 116t71 88.5t92.5 56.5t107 20q38 0 68.5 -9t53.5 -24t38.5 -35t23.5 -41l18 100
h92l-97 -548h-92l19 102q-17 -22 -40 -42t-51.5 -35.5t-62 -24.5t-71.5 -9q-55 0 -99 20.5t-72.5 58t-39 90t0.5 116.5zM505 275q9 48 0.5 85.5t-29.5 63.5t-52.5 40t-68.5 14q-38 0 -74 -13.5t-66 -39t-51.5 -63.5t-29.5 -86q-9 -48 -0.5 -86.5t29 -64.5t51.5 -40t69 -14
q37 0 73.5 13.5t66.5 40t51.5 64.5t30.5 86zM390 608q-35 0 -63 9t-47.5 27t-27.5 44t-2 61h78q-6 -36 13 -54t61 -18q37 0 64 18t33 54h81q-12 -69 -64.5 -105t-125.5 -36z" />
    <glyph glyph-name="uni1EB6" unicode="&#x1eb6;" horiz-adv-x="674" 
d="M255 -215q-27 0 -44 18.5t-15 45.5t21.5 45.5t46.5 18.5q26 0 43 -18.5t15 -45.5t-21.5 -45.5t-45.5 -18.5zM466 155h-305l-83 -155h-96l374 693h105l129 -693h-96zM389 582l-190 -356h254zM414 742q-35 0 -63 9t-47.5 27t-27.5 44t-2 61h78q-6 -36 13 -54t61 -18
q37 0 64 18t33 54h81q-12 -69 -64.5 -105t-125.5 -36z" />
    <glyph glyph-name="uni1EB7" unicode="&#x1eb7;" horiz-adv-x="676" 
d="M230 -215q-27 0 -44 18.5t-15 45.5t21.5 45.5t46.5 18.5q26 0 43 -18.5t15 -45.5t-21.5 -45.5t-45.5 -18.5zM40 276q11 64 40.5 116t71 88.5t92.5 56.5t107 20q38 0 68.5 -9t53.5 -24t38.5 -35t23.5 -41l18 100h92l-97 -548h-92l19 102q-17 -22 -40 -42t-51.5 -35.5
t-62 -24.5t-71.5 -9q-55 0 -99 20.5t-72.5 58t-39 90t0.5 116.5zM505 275q9 48 0.5 85.5t-29.5 63.5t-52.5 40t-68.5 14q-38 0 -74 -13.5t-66 -39t-51.5 -63.5t-29.5 -86q-9 -48 -0.5 -86.5t29 -64.5t51.5 -40t69 -14q37 0 73.5 13.5t66.5 40t51.5 64.5t30.5 86zM390 608
q-35 0 -63 9t-47.5 27t-27.5 44t-2 61h78q-6 -36 13 -54t61 -18q37 0 64 18t33 54h81q-12 -69 -64.5 -105t-125.5 -36z" />
    <glyph glyph-name="uni1EB8" unicode="&#x1eb8;" horiz-adv-x="513" 
d="M180 -215q-27 0 -44 18.5t-15 45.5t21.5 45.5t46.5 18.5q26 0 43 -18.5t15 -45.5t-21.5 -45.5t-45.5 -18.5zM511 626h-283l-42 -239h253l-12 -70h-253l-44 -245h284l-13 -72h-375l124 698h374z" />
    <glyph glyph-name="uni1EB9" unicode="&#x1eb9;" horiz-adv-x="620" 
d="M231 -215q-27 0 -44 18.5t-15 45.5t21.5 45.5t46.5 18.5q26 0 43 -18.5t15 -45.5t-21.5 -45.5t-45.5 -18.5zM344 480q-34 0 -66 -11.5t-59 -33t-48 -53.5t-31 -73h347q7 42 -1 74t-28 53.5t-49.5 32.5t-64.5 11zM545 169q-17 -38 -44.5 -70.5t-63.5 -56.5t-80 -37.5
t-95 -13.5q-59 0 -105 20t-76 57t-41.5 89.5t0.5 117.5t41 117t71.5 89t95.5 56.5t113 19.5t105 -20t73.5 -54.5t39 -82.5t0.5 -103q-4 -26 -13 -54h-438q-5 -42 4 -74.5t29 -55t49.5 -34t65.5 -11.5q62 0 105 28t66 73h98z" />
    <glyph glyph-name="uni1EBA" unicode="&#x1eba;" horiz-adv-x="513" 
d="M319 798q32 14 51.5 27t23.5 34q4 20 -9.5 27.5t-34.5 7.5q-23 0 -53 -9l11 60q17 6 32.5 9.5t32.5 3.5q20 0 39 -5t32.5 -15.5t20 -28t2.5 -41.5q-5 -32 -32 -62t-91 -54zM511 626h-283l-42 -239h253l-12 -70h-253l-44 -245h284l-13 -72h-375l124 698h374z" />
    <glyph glyph-name="uni1EBB" unicode="&#x1ebb;" horiz-adv-x="620" 
d="M364 664q32 14 51.5 27t23.5 34q4 20 -9.5 27.5t-34.5 7.5q-23 0 -53 -9l11 60q17 6 32.5 9.5t32.5 3.5q20 0 39 -5t32.5 -15.5t20 -28t2.5 -41.5q-5 -32 -32 -62t-91 -54zM344 480q-34 0 -66 -11.5t-59 -33t-48 -53.5t-31 -73h347q7 42 -1 74t-28 53.5t-49.5 32.5
t-64.5 11zM545 169q-17 -38 -44.5 -70.5t-63.5 -56.5t-80 -37.5t-95 -13.5q-59 0 -105 20t-76 57t-41.5 89.5t0.5 117.5t41 117t71.5 89t95.5 56.5t113 19.5t105 -20t73.5 -54.5t39 -82.5t0.5 -103q-4 -26 -13 -54h-438q-5 -42 4 -74.5t29 -55t49.5 -34t65.5 -11.5
q62 0 105 28t66 73h98z" />
    <glyph glyph-name="uni1EBC" unicode="&#x1ebc;" horiz-adv-x="513" 
d="M177 754q11 61 42 92t74 31q22 0 38.5 -8t29 -18t24 -18t24.5 -8q33 0 42 49h69q-9 -60 -41.5 -91t-74.5 -31q-23 0 -39.5 8t-29 18t-23.5 18t-24 8q-32 0 -41 -50h-70zM511 626h-283l-42 -239h253l-12 -70h-253l-44 -245h284l-13 -72h-375l124 698h374z" />
    <glyph glyph-name="uni1EBD" unicode="&#x1ebd;" horiz-adv-x="620" 
d="M213 620q11 61 42 92t74 31q22 0 38.5 -8t29 -18t24 -18t24.5 -8q33 0 42 49h69q-9 -60 -41.5 -91t-74.5 -31q-23 0 -39.5 8t-29 18t-23.5 18t-24 8q-32 0 -41 -50h-70zM344 480q-34 0 -66 -11.5t-59 -33t-48 -53.5t-31 -73h347q7 42 -1 74t-28 53.5t-49.5 32.5t-64.5 11
zM545 169q-17 -38 -44.5 -70.5t-63.5 -56.5t-80 -37.5t-95 -13.5q-59 0 -105 20t-76 57t-41.5 89.5t0.5 117.5t41 117t71.5 89t95.5 56.5t113 19.5t105 -20t73.5 -54.5t39 -82.5t0.5 -103q-4 -26 -13 -54h-438q-5 -42 4 -74.5t29 -55t49.5 -34t65.5 -11.5q62 0 105 28t66 73
h98z" />
    <glyph glyph-name="uni1EBE" unicode="&#x1ebe;" horiz-adv-x="513" 
d="M670 979l-178 -112l-39 53l176 124zM511 626h-283l-42 -239h253l-12 -70h-253l-44 -245h284l-13 -72h-375l124 698h374zM211 742l-36 55l186 110l148 -110l-50 -55l-110 80z" />
    <glyph glyph-name="uni1EBF" unicode="&#x1ebf;" horiz-adv-x="620" 
d="M705 845l-178 -112l-39 53l176 124zM344 480q-34 0 -66 -11.5t-59 -33t-48 -53.5t-31 -73h347q7 42 -1 74t-28 53.5t-49.5 32.5t-64.5 11zM545 169q-17 -38 -44.5 -70.5t-63.5 -56.5t-80 -37.5t-95 -13.5q-59 0 -105 20t-76 57t-41.5 89.5t0.5 117.5t41 117t71.5 89
t95.5 56.5t113 19.5t105 -20t73.5 -54.5t39 -82.5t0.5 -103q-4 -26 -13 -54h-438q-5 -42 4 -74.5t29 -55t49.5 -34t65.5 -11.5q62 0 105 28t66 73h98zM246 608l-36 55l186 110l148 -110l-50 -55l-110 80z" />
    <glyph glyph-name="uni1EC0" unicode="&#x1ec0;" horiz-adv-x="513" 
d="M415 1044l150 -122l-45 -55l-156 112zM511 626h-283l-42 -239h253l-12 -70h-253l-44 -245h284l-13 -72h-375l124 698h374zM211 742l-36 55l186 110l148 -110l-50 -55l-110 80z" />
    <glyph glyph-name="uni1EC1" unicode="&#x1ec1;" horiz-adv-x="620" 
d="M450 910l150 -122l-45 -55l-156 112zM344 480q-34 0 -66 -11.5t-59 -33t-48 -53.5t-31 -73h347q7 42 -1 74t-28 53.5t-49.5 32.5t-64.5 11zM545 169q-17 -38 -44.5 -70.5t-63.5 -56.5t-80 -37.5t-95 -13.5q-59 0 -105 20t-76 57t-41.5 89.5t0.5 117.5t41 117t71.5 89
t95.5 56.5t113 19.5t105 -20t73.5 -54.5t39 -82.5t0.5 -103q-4 -26 -13 -54h-438q-5 -42 4 -74.5t29 -55t49.5 -34t65.5 -11.5q62 0 105 28t66 73h98zM246 608l-36 55l186 110l148 -110l-50 -55l-110 80z" />
    <glyph glyph-name="uni1EC2" unicode="&#x1ec2;" horiz-adv-x="513" 
d="M459 913q32 14 51.5 27t23.5 34q4 20 -9.5 27.5t-34.5 7.5q-23 0 -53 -9l11 60q17 6 32.5 9.5t32.5 3.5q20 0 39 -5t32.5 -15.5t20 -28t2.5 -41.5q-5 -32 -32 -62t-91 -54zM511 626h-283l-42 -239h253l-12 -70h-253l-44 -245h284l-13 -72h-375l124 698h374zM211 742
l-36 55l186 110l148 -110l-50 -55l-110 80z" />
    <glyph glyph-name="uni1EC3" unicode="&#x1ec3;" horiz-adv-x="620" 
d="M494 779q32 14 51.5 27t23.5 34q4 20 -9.5 27.5t-34.5 7.5q-23 0 -53 -9l11 60q17 6 32.5 9.5t32.5 3.5q20 0 39 -5t32.5 -15.5t20 -28t2.5 -41.5q-5 -32 -32 -62t-91 -54zM344 480q-34 0 -66 -11.5t-59 -33t-48 -53.5t-31 -73h347q7 42 -1 74t-28 53.5t-49.5 32.5
t-64.5 11zM545 169q-17 -38 -44.5 -70.5t-63.5 -56.5t-80 -37.5t-95 -13.5q-59 0 -105 20t-76 57t-41.5 89.5t0.5 117.5t41 117t71.5 89t95.5 56.5t113 19.5t105 -20t73.5 -54.5t39 -82.5t0.5 -103q-4 -26 -13 -54h-438q-5 -42 4 -74.5t29 -55t49.5 -34t65.5 -11.5
q62 0 105 28t66 73h98zM246 608l-36 55l186 110l148 -110l-50 -55l-110 80z" />
    <glyph glyph-name="uni1EC4" unicode="&#x1ec4;" horiz-adv-x="513" 
d="M196 936q11 61 42 92t74 31q22 0 38.5 -8t29 -18t24 -18t24.5 -8q33 0 42 49h69q-9 -60 -41.5 -91t-74.5 -31q-23 0 -39.5 8t-29 18t-23.5 18t-24 8q-32 0 -41 -50h-70zM511 626h-283l-42 -239h253l-12 -70h-253l-44 -245h284l-13 -72h-375l124 698h374zM211 742l-36 55
l186 110l148 -110l-50 -55l-110 80z" />
    <glyph glyph-name="uni1EC5" unicode="&#x1ec5;" horiz-adv-x="620" 
d="M231 802q11 61 42 92t74 31q22 0 38.5 -8t29 -18t24 -18t24.5 -8q33 0 42 49h69q-9 -60 -41.5 -91t-74.5 -31q-23 0 -39.5 8t-29 18t-23.5 18t-24 8q-32 0 -41 -50h-70zM344 480q-34 0 -66 -11.5t-59 -33t-48 -53.5t-31 -73h347q7 42 -1 74t-28 53.5t-49.5 32.5t-64.5 11
zM545 169q-17 -38 -44.5 -70.5t-63.5 -56.5t-80 -37.5t-95 -13.5q-59 0 -105 20t-76 57t-41.5 89.5t0.5 117.5t41 117t71.5 89t95.5 56.5t113 19.5t105 -20t73.5 -54.5t39 -82.5t0.5 -103q-4 -26 -13 -54h-438q-5 -42 4 -74.5t29 -55t49.5 -34t65.5 -11.5q62 0 105 28t66 73
h98zM246 608l-36 55l186 110l148 -110l-50 -55l-110 80z" />
    <glyph glyph-name="uni1EC6" unicode="&#x1ec6;" horiz-adv-x="513" 
d="M180 -215q-27 0 -44 18.5t-15 45.5t21.5 45.5t46.5 18.5q26 0 43 -18.5t15 -45.5t-21.5 -45.5t-45.5 -18.5zM511 626h-283l-42 -239h253l-12 -70h-253l-44 -245h284l-13 -72h-375l124 698h374zM211 742l-36 55l186 110l148 -110l-50 -55l-110 80z" />
    <glyph glyph-name="uni1EC7" unicode="&#x1ec7;" horiz-adv-x="620" 
d="M231 -215q-27 0 -44 18.5t-15 45.5t21.5 45.5t46.5 18.5q26 0 43 -18.5t15 -45.5t-21.5 -45.5t-45.5 -18.5zM344 480q-34 0 -66 -11.5t-59 -33t-48 -53.5t-31 -73h347q7 42 -1 74t-28 53.5t-49.5 32.5t-64.5 11zM545 169q-17 -38 -44.5 -70.5t-63.5 -56.5t-80 -37.5
t-95 -13.5q-59 0 -105 20t-76 57t-41.5 89.5t0.5 117.5t41 117t71.5 89t95.5 56.5t113 19.5t105 -20t73.5 -54.5t39 -82.5t0.5 -103q-4 -26 -13 -54h-438q-5 -42 4 -74.5t29 -55t49.5 -34t65.5 -11.5q62 0 105 28t66 73h98zM246 608l-36 55l186 110l148 -110l-50 -55
l-110 80z" />
    <glyph glyph-name="uni1EC8" unicode="&#x1ec8;" horiz-adv-x="246" 
d="M189 798q32 14 51.5 27t23.5 34q4 20 -9.5 27.5t-34.5 7.5q-23 0 -53 -9l11 60q17 6 32.5 9.5t32.5 3.5q20 0 39 -5t32.5 -15.5t20 -28t2.5 -41.5q-5 -32 -32 -62t-91 -54zM150 697h91l-124 -697h-91z" />
    <glyph glyph-name="uni1EC9" unicode="&#x1ec9;" horiz-adv-x="246" 
d="M161 664q32 14 51.5 27t23.5 34q4 20 -9.5 27.5t-34.5 7.5q-23 0 -53 -9l11 60q17 6 32.5 9.5t32.5 3.5q20 0 39 -5t32.5 -15.5t20 -28t2.5 -41.5q-5 -32 -32 -62t-91 -54zM123 548h91l-97 -548h-91z" />
    <glyph glyph-name="uni1ECA" unicode="&#x1eca;" horiz-adv-x="246" 
d="M41 -215q-27 0 -44 18.5t-15 45.5t21.5 45.5t46.5 18.5q26 0 43 -18.5t15 -45.5t-21.5 -45.5t-45.5 -18.5zM150 697h91l-124 -697h-91z" />
    <glyph glyph-name="uni1ECB" unicode="&#x1ecb;" horiz-adv-x="246" 
d="M41 -215q-27 0 -44 18.5t-15 45.5t21.5 45.5t46.5 18.5q26 0 43 -18.5t15 -45.5t-21.5 -45.5t-45.5 -18.5zM123 548h91l-97 -548h-91zM192 637q-27 0 -44 18.5t-15 45.5t21.5 45.5t46.5 18.5q26 0 43 -18.5t15 -45.5t-21.5 -45.5t-45.5 -18.5z" />
    <glyph glyph-name="uni1ECC" unicode="&#x1ecc;" horiz-adv-x="786" 
d="M293 -215q-27 0 -44 18.5t-15 45.5t21.5 45.5t46.5 18.5q26 0 43 -18.5t15 -45.5t-21.5 -45.5t-45.5 -18.5zM756 416q0 -90 -31 -167.5t-86 -134t-130.5 -89t-164.5 -32.5q-66 0 -120 21.5t-92 59.5t-59 91.5t-21 117.5q0 90 31 167t86 133.5t130.5 89t163.5 32.5
q67 0 121 -21.5t92 -59.5t59 -91t21 -117zM146 289q0 -100 56.5 -157t154.5 -57q67 0 123.5 27t96.5 73t62.5 106.5t22.5 128.5q0 100 -56.5 156.5t-155.5 56.5q-68 0 -124 -27t-96 -73t-62 -106.5t-22 -127.5z" />
    <glyph glyph-name="uni1ECD" unicode="&#x1ecd;" 
d="M227 -215q-27 0 -44 18.5t-15 45.5t21.5 45.5t46.5 18.5q26 0 43 -18.5t15 -45.5t-21.5 -45.5t-45.5 -18.5zM600 328q0 -71 -25.5 -132t-70 -107t-105.5 -72t-132 -26q-52 0 -95 16.5t-73.5 46.5t-47 72t-16.5 93q0 70 25 131.5t69 107.5t104.5 72.5t131.5 26.5
q52 0 95.5 -16t74.5 -46t48 -72.5t17 -94.5zM129 223q0 -39 11.5 -68t32 -48.5t47.5 -29t58 -9.5q50 0 92 21t72 56t47 81.5t17 96.5q0 40 -12.5 69.5t-33.5 49t-49 29t-59 9.5q-50 0 -91.5 -21t-70.5 -56.5t-45 -82t-16 -97.5z" />
    <glyph glyph-name="uni1ECE" unicode="&#x1ece;" horiz-adv-x="786" 
d="M472 798q32 14 51.5 27t23.5 34q4 20 -9.5 27.5t-34.5 7.5q-23 0 -53 -9l11 60q17 6 32.5 9.5t32.5 3.5q20 0 39 -5t32.5 -15.5t20 -28t2.5 -41.5q-5 -32 -32 -62t-91 -54zM756 416q0 -90 -31 -167.5t-86 -134t-130.5 -89t-164.5 -32.5q-66 0 -120 21.5t-92 59.5
t-59 91.5t-21 117.5q0 90 31 167t86 133.5t130.5 89t163.5 32.5q67 0 121 -21.5t92 -59.5t59 -91t21 -117zM146 289q0 -100 56.5 -157t154.5 -57q67 0 123.5 27t96.5 73t62.5 106.5t22.5 128.5q0 100 -56.5 156.5t-155.5 56.5q-68 0 -124 -27t-96 -73t-62 -106.5t-22 -127.5
z" />
    <glyph glyph-name="uni1ECF" unicode="&#x1ecf;" 
d="M369 664q32 14 51.5 27t23.5 34q4 20 -9.5 27.5t-34.5 7.5q-23 0 -53 -9l11 60q17 6 32.5 9.5t32.5 3.5q20 0 39 -5t32.5 -15.5t20 -28t2.5 -41.5q-5 -32 -32 -62t-91 -54zM600 328q0 -71 -25.5 -132t-70 -107t-105.5 -72t-132 -26q-52 0 -95 16.5t-73.5 46.5t-47 72
t-16.5 93q0 70 25 131.5t69 107.5t104.5 72.5t131.5 26.5q52 0 95.5 -16t74.5 -46t48 -72.5t17 -94.5zM129 223q0 -39 11.5 -68t32 -48.5t47.5 -29t58 -9.5q50 0 92 21t72 56t47 81.5t17 96.5q0 40 -12.5 69.5t-33.5 49t-49 29t-59 9.5q-50 0 -91.5 -21t-70.5 -56.5t-45 -82
t-16 -97.5z" />
    <glyph glyph-name="uni1ED0" unicode="&#x1ed0;" horiz-adv-x="786" 
d="M800 979l-178 -112l-39 53l176 124zM756 416q0 -90 -31 -167.5t-86 -134t-130.5 -89t-164.5 -32.5q-66 0 -120 21.5t-92 59.5t-59 91.5t-21 117.5q0 90 31 167t86 133.5t130.5 89t163.5 32.5q67 0 121 -21.5t92 -59.5t59 -91t21 -117zM146 289q0 -100 56.5 -157
t154.5 -57q67 0 123.5 27t96.5 73t62.5 106.5t22.5 128.5q0 100 -56.5 156.5t-155.5 56.5q-68 0 -124 -27t-96 -73t-62 -106.5t-22 -127.5zM341 742l-36 55l186 110l148 -110l-50 -55l-110 80z" />
    <glyph glyph-name="uni1ED1" unicode="&#x1ed1;" 
d="M715 845l-178 -112l-39 53l176 124zM600 328q0 -71 -25.5 -132t-70 -107t-105.5 -72t-132 -26q-52 0 -95 16.5t-73.5 46.5t-47 72t-16.5 93q0 70 25 131.5t69 107.5t104.5 72.5t131.5 26.5q52 0 95.5 -16t74.5 -46t48 -72.5t17 -94.5zM129 223q0 -39 11.5 -68t32 -48.5
t47.5 -29t58 -9.5q50 0 92 21t72 56t47 81.5t17 96.5q0 40 -12.5 69.5t-33.5 49t-49 29t-59 9.5q-50 0 -91.5 -21t-70.5 -56.5t-45 -82t-16 -97.5zM256 608l-36 55l186 110l148 -110l-50 -55l-110 80z" />
    <glyph glyph-name="uni1ED2" unicode="&#x1ed2;" horiz-adv-x="786" 
d="M545 1044l150 -122l-45 -55l-156 112zM756 416q0 -90 -31 -167.5t-86 -134t-130.5 -89t-164.5 -32.5q-66 0 -120 21.5t-92 59.5t-59 91.5t-21 117.5q0 90 31 167t86 133.5t130.5 89t163.5 32.5q67 0 121 -21.5t92 -59.5t59 -91t21 -117zM146 289q0 -100 56.5 -157
t154.5 -57q67 0 123.5 27t96.5 73t62.5 106.5t22.5 128.5q0 100 -56.5 156.5t-155.5 56.5q-68 0 -124 -27t-96 -73t-62 -106.5t-22 -127.5zM341 742l-36 55l186 110l148 -110l-50 -55l-110 80z" />
    <glyph glyph-name="uni1ED3" unicode="&#x1ed3;" 
d="M460 910l150 -122l-45 -55l-156 112zM600 328q0 -71 -25.5 -132t-70 -107t-105.5 -72t-132 -26q-52 0 -95 16.5t-73.5 46.5t-47 72t-16.5 93q0 70 25 131.5t69 107.5t104.5 72.5t131.5 26.5q52 0 95.5 -16t74.5 -46t48 -72.5t17 -94.5zM129 223q0 -39 11.5 -68t32 -48.5
t47.5 -29t58 -9.5q50 0 92 21t72 56t47 81.5t17 96.5q0 40 -12.5 69.5t-33.5 49t-49 29t-59 9.5q-50 0 -91.5 -21t-70.5 -56.5t-45 -82t-16 -97.5zM256 608l-36 55l186 110l148 -110l-50 -55l-110 80z" />
    <glyph glyph-name="uni1ED4" unicode="&#x1ed4;" horiz-adv-x="786" 
d="M589 913q32 14 51.5 27t23.5 34q4 20 -9.5 27.5t-34.5 7.5q-23 0 -53 -9l11 60q17 6 32.5 9.5t32.5 3.5q20 0 39 -5t32.5 -15.5t20 -28t2.5 -41.5q-5 -32 -32 -62t-91 -54zM756 416q0 -90 -31 -167.5t-86 -134t-130.5 -89t-164.5 -32.5q-66 0 -120 21.5t-92 59.5
t-59 91.5t-21 117.5q0 90 31 167t86 133.5t130.5 89t163.5 32.5q67 0 121 -21.5t92 -59.5t59 -91t21 -117zM146 289q0 -100 56.5 -157t154.5 -57q67 0 123.5 27t96.5 73t62.5 106.5t22.5 128.5q0 100 -56.5 156.5t-155.5 56.5q-68 0 -124 -27t-96 -73t-62 -106.5t-22 -127.5
zM341 742l-36 55l186 110l148 -110l-50 -55l-110 80z" />
    <glyph glyph-name="uni1ED5" unicode="&#x1ed5;" 
d="M504 779q32 14 51.5 27t23.5 34q4 20 -9.5 27.5t-34.5 7.5q-23 0 -53 -9l11 60q17 6 32.5 9.5t32.5 3.5q20 0 39 -5t32.5 -15.5t20 -28t2.5 -41.5q-5 -32 -32 -62t-91 -54zM600 328q0 -71 -25.5 -132t-70 -107t-105.5 -72t-132 -26q-52 0 -95 16.5t-73.5 46.5t-47 72
t-16.5 93q0 70 25 131.5t69 107.5t104.5 72.5t131.5 26.5q52 0 95.5 -16t74.5 -46t48 -72.5t17 -94.5zM129 223q0 -39 11.5 -68t32 -48.5t47.5 -29t58 -9.5q50 0 92 21t72 56t47 81.5t17 96.5q0 40 -12.5 69.5t-33.5 49t-49 29t-59 9.5q-50 0 -91.5 -21t-70.5 -56.5t-45 -82
t-16 -97.5zM256 608l-36 55l186 110l148 -110l-50 -55l-110 80z" />
    <glyph glyph-name="uni1ED6" unicode="&#x1ed6;" horiz-adv-x="786" 
d="M326 936q11 61 42 92t74 31q22 0 38.5 -8t29 -18t24 -18t24.5 -8q33 0 42 49h69q-9 -60 -41.5 -91t-74.5 -31q-23 0 -39.5 8t-29 18t-23.5 18t-24 8q-32 0 -41 -50h-70zM756 416q0 -90 -31 -167.5t-86 -134t-130.5 -89t-164.5 -32.5q-66 0 -120 21.5t-92 59.5t-59 91.5
t-21 117.5q0 90 31 167t86 133.5t130.5 89t163.5 32.5q67 0 121 -21.5t92 -59.5t59 -91t21 -117zM146 289q0 -100 56.5 -157t154.5 -57q67 0 123.5 27t96.5 73t62.5 106.5t22.5 128.5q0 100 -56.5 156.5t-155.5 56.5q-68 0 -124 -27t-96 -73t-62 -106.5t-22 -127.5zM341 742
l-36 55l186 110l148 -110l-50 -55l-110 80z" />
    <glyph glyph-name="uni1ED7" unicode="&#x1ed7;" 
d="M241 802q11 61 42 92t74 31q22 0 38.5 -8t29 -18t24 -18t24.5 -8q33 0 42 49h69q-9 -60 -41.5 -91t-74.5 -31q-23 0 -39.5 8t-29 18t-23.5 18t-24 8q-32 0 -41 -50h-70zM600 328q0 -71 -25.5 -132t-70 -107t-105.5 -72t-132 -26q-52 0 -95 16.5t-73.5 46.5t-47 72
t-16.5 93q0 70 25 131.5t69 107.5t104.5 72.5t131.5 26.5q52 0 95.5 -16t74.5 -46t48 -72.5t17 -94.5zM129 223q0 -39 11.5 -68t32 -48.5t47.5 -29t58 -9.5q50 0 92 21t72 56t47 81.5t17 96.5q0 40 -12.5 69.5t-33.5 49t-49 29t-59 9.5q-50 0 -91.5 -21t-70.5 -56.5t-45 -82
t-16 -97.5zM256 608l-36 55l186 110l148 -110l-50 -55l-110 80z" />
    <glyph glyph-name="uni1ED8" unicode="&#x1ed8;" horiz-adv-x="786" 
d="M293 -215q-27 0 -44 18.5t-15 45.5t21.5 45.5t46.5 18.5q26 0 43 -18.5t15 -45.5t-21.5 -45.5t-45.5 -18.5zM756 416q0 -90 -31 -167.5t-86 -134t-130.5 -89t-164.5 -32.5q-66 0 -120 21.5t-92 59.5t-59 91.5t-21 117.5q0 90 31 167t86 133.5t130.5 89t163.5 32.5
q67 0 121 -21.5t92 -59.5t59 -91t21 -117zM146 289q0 -100 56.5 -157t154.5 -57q67 0 123.5 27t96.5 73t62.5 106.5t22.5 128.5q0 100 -56.5 156.5t-155.5 56.5q-68 0 -124 -27t-96 -73t-62 -106.5t-22 -127.5zM341 742l-36 55l186 110l148 -110l-50 -55l-110 80z" />
    <glyph glyph-name="uni1ED9" unicode="&#x1ed9;" 
d="M227 -215q-27 0 -44 18.5t-15 45.5t21.5 45.5t46.5 18.5q26 0 43 -18.5t15 -45.5t-21.5 -45.5t-45.5 -18.5zM600 328q0 -71 -25.5 -132t-70 -107t-105.5 -72t-132 -26q-52 0 -95 16.5t-73.5 46.5t-47 72t-16.5 93q0 70 25 131.5t69 107.5t104.5 72.5t131.5 26.5
q52 0 95.5 -16t74.5 -46t48 -72.5t17 -94.5zM129 223q0 -39 11.5 -68t32 -48.5t47.5 -29t58 -9.5q50 0 92 21t72 56t47 81.5t17 96.5q0 40 -12.5 69.5t-33.5 49t-49 29t-59 9.5q-50 0 -91.5 -21t-70.5 -56.5t-45 -82t-16 -97.5zM256 608l-36 55l186 110l148 -110l-50 -55
l-110 80z" />
    <glyph glyph-name="uni1EDA" unicode="&#x1eda;" horiz-adv-x="786" 
d="M633 851l-212 -99l-35 59l212 110zM756 416q0 -90 -31 -167.5t-86 -134t-130.5 -89t-164.5 -32.5q-66 0 -120 21.5t-92 59.5t-59 91.5t-21 117.5q0 90 31 167t86 133.5t130.5 89t163.5 32.5q37 0 75 -8q37 0 65.5 21.5t36.5 72.5h89q-9 -51 -33.5 -84t-58.5 -51
q57 -38 88 -99.5t31 -140.5zM146 289q0 -100 56.5 -157t154.5 -57q67 0 123.5 27t96.5 73t62.5 106.5t22.5 128.5q0 100 -56.5 156.5t-155.5 56.5q-68 0 -124 -27t-96 -73t-62 -106.5t-22 -127.5z" />
    <glyph glyph-name="uni1EDB" unicode="&#x1edb;" 
d="M529 717l-212 -99l-35 59l212 110zM600 328q0 -71 -25.5 -132t-70 -107t-105.5 -72t-132 -26q-52 0 -95 16.5t-73.5 46.5t-47 72t-16.5 93q0 70 25 131.5t69 107.5t104.5 72.5t131.5 26.5q39 0 72 -9q36 1 63.5 22.5t35.5 71.5h89q-10 -54 -36.5 -88t-63.5 -51
q35 -30 55 -74t20 -101zM129 223q0 -39 11.5 -68t32 -48.5t47.5 -29t58 -9.5q50 0 92 21t72 56t47 81.5t17 96.5q0 40 -12.5 69.5t-33.5 49t-49 29t-59 9.5q-50 0 -91.5 -21t-70.5 -56.5t-45 -82t-16 -97.5z" />
    <glyph glyph-name="uni1EDC" unicode="&#x1edc;" horiz-adv-x="786" 
d="M391 921l180 -111l-41 -58l-186 100zM756 416q0 -90 -31 -167.5t-86 -134t-130.5 -89t-164.5 -32.5q-66 0 -120 21.5t-92 59.5t-59 91.5t-21 117.5q0 90 31 167t86 133.5t130.5 89t163.5 32.5q37 0 75 -8q37 0 65.5 21.5t36.5 72.5h89q-9 -51 -33.5 -84t-58.5 -51
q57 -38 88 -99.5t31 -140.5zM146 289q0 -100 56.5 -157t154.5 -57q67 0 123.5 27t96.5 73t62.5 106.5t22.5 128.5q0 100 -56.5 156.5t-155.5 56.5q-68 0 -124 -27t-96 -73t-62 -106.5t-22 -127.5z" />
    <glyph glyph-name="uni1EDD" unicode="&#x1edd;" 
d="M291 787l180 -111l-41 -58l-186 100zM600 328q0 -71 -25.5 -132t-70 -107t-105.5 -72t-132 -26q-52 0 -95 16.5t-73.5 46.5t-47 72t-16.5 93q0 70 25 131.5t69 107.5t104.5 72.5t131.5 26.5q39 0 72 -9q36 1 63.5 22.5t35.5 71.5h89q-10 -54 -36.5 -88t-63.5 -51
q35 -30 55 -74t20 -101zM129 223q0 -39 11.5 -68t32 -48.5t47.5 -29t58 -9.5q50 0 92 21t72 56t47 81.5t17 96.5q0 40 -12.5 69.5t-33.5 49t-49 29t-59 9.5q-50 0 -91.5 -21t-70.5 -56.5t-45 -82t-16 -97.5z" />
    <glyph glyph-name="uni1EDE" unicode="&#x1ede;" horiz-adv-x="786" 
d="M472 798q32 14 51.5 27t23.5 34q4 20 -9.5 27.5t-34.5 7.5q-23 0 -53 -9l11 60q17 6 32.5 9.5t32.5 3.5q20 0 39 -5t32.5 -15.5t20 -28t2.5 -41.5q-5 -32 -32 -62t-91 -54zM756 416q0 -90 -31 -167.5t-86 -134t-130.5 -89t-164.5 -32.5q-66 0 -120 21.5t-92 59.5
t-59 91.5t-21 117.5q0 90 31 167t86 133.5t130.5 89t163.5 32.5q37 0 75 -8q37 0 65.5 21.5t36.5 72.5h89q-9 -51 -33.5 -84t-58.5 -51q57 -38 88 -99.5t31 -140.5zM146 289q0 -100 56.5 -157t154.5 -57q67 0 123.5 27t96.5 73t62.5 106.5t22.5 128.5q0 100 -56.5 156.5
t-155.5 56.5q-68 0 -124 -27t-96 -73t-62 -106.5t-22 -127.5z" />
    <glyph glyph-name="uni1EDF" unicode="&#x1edf;" 
d="M369 664q32 14 51.5 27t23.5 34q4 20 -9.5 27.5t-34.5 7.5q-23 0 -53 -9l11 60q17 6 32.5 9.5t32.5 3.5q20 0 39 -5t32.5 -15.5t20 -28t2.5 -41.5q-5 -32 -32 -62t-91 -54zM600 328q0 -71 -25.5 -132t-70 -107t-105.5 -72t-132 -26q-52 0 -95 16.5t-73.5 46.5t-47 72
t-16.5 93q0 70 25 131.5t69 107.5t104.5 72.5t131.5 26.5q39 0 72 -9q36 1 63.5 22.5t35.5 71.5h89q-10 -54 -36.5 -88t-63.5 -51q35 -30 55 -74t20 -101zM129 223q0 -39 11.5 -68t32 -48.5t47.5 -29t58 -9.5q50 0 92 21t72 56t47 81.5t17 96.5q0 40 -12.5 69.5t-33.5 49
t-49 29t-59 9.5q-50 0 -91.5 -21t-70.5 -56.5t-45 -82t-16 -97.5z" />
    <glyph glyph-name="uni1EE0" unicode="&#x1ee0;" horiz-adv-x="786" 
d="M301 754q11 61 42 92t74 31q22 0 38.5 -8t29 -18t24 -18t24.5 -8q33 0 42 49h69q-9 -60 -41.5 -91t-74.5 -31q-23 0 -39.5 8t-29 18t-23.5 18t-24 8q-32 0 -41 -50h-70zM756 416q0 -90 -31 -167.5t-86 -134t-130.5 -89t-164.5 -32.5q-66 0 -120 21.5t-92 59.5t-59 91.5
t-21 117.5q0 90 31 167t86 133.5t130.5 89t163.5 32.5q37 0 75 -8q37 0 65.5 21.5t36.5 72.5h89q-9 -51 -33.5 -84t-58.5 -51q57 -38 88 -99.5t31 -140.5zM146 289q0 -100 56.5 -157t154.5 -57q67 0 123.5 27t96.5 73t62.5 106.5t22.5 128.5q0 100 -56.5 156.5t-155.5 56.5
q-68 0 -124 -27t-96 -73t-62 -106.5t-22 -127.5z" />
    <glyph glyph-name="uni1EE1" unicode="&#x1ee1;" 
d="M214 620q11 61 42 92t74 31q22 0 38.5 -8t29 -18t24 -18t24.5 -8q33 0 42 49h69q-9 -60 -41.5 -91t-74.5 -31q-23 0 -39.5 8t-29 18t-23.5 18t-24 8q-32 0 -41 -50h-70zM600 328q0 -71 -25.5 -132t-70 -107t-105.5 -72t-132 -26q-52 0 -95 16.5t-73.5 46.5t-47 72
t-16.5 93q0 70 25 131.5t69 107.5t104.5 72.5t131.5 26.5q39 0 72 -9q36 1 63.5 22.5t35.5 71.5h89q-10 -54 -36.5 -88t-63.5 -51q35 -30 55 -74t20 -101zM129 223q0 -39 11.5 -68t32 -48.5t47.5 -29t58 -9.5q50 0 92 21t72 56t47 81.5t17 96.5q0 40 -12.5 69.5t-33.5 49
t-49 29t-59 9.5q-50 0 -91.5 -21t-70.5 -56.5t-45 -82t-16 -97.5z" />
    <glyph glyph-name="uni1EE2" unicode="&#x1ee2;" horiz-adv-x="786" 
d="M293 -215q-27 0 -44 18.5t-15 45.5t21.5 45.5t46.5 18.5q26 0 43 -18.5t15 -45.5t-21.5 -45.5t-45.5 -18.5zM756 416q0 -90 -31 -167.5t-86 -134t-130.5 -89t-164.5 -32.5q-66 0 -120 21.5t-92 59.5t-59 91.5t-21 117.5q0 90 31 167t86 133.5t130.5 89t163.5 32.5
q37 0 75 -8q37 0 65.5 21.5t36.5 72.5h89q-9 -51 -33.5 -84t-58.5 -51q57 -38 88 -99.5t31 -140.5zM146 289q0 -100 56.5 -157t154.5 -57q67 0 123.5 27t96.5 73t62.5 106.5t22.5 128.5q0 100 -56.5 156.5t-155.5 56.5q-68 0 -124 -27t-96 -73t-62 -106.5t-22 -127.5z" />
    <glyph glyph-name="uni1EE3" unicode="&#x1ee3;" 
d="M227 -215q-27 0 -44 18.5t-15 45.5t21.5 45.5t46.5 18.5q26 0 43 -18.5t15 -45.5t-21.5 -45.5t-45.5 -18.5zM600 328q0 -71 -25.5 -132t-70 -107t-105.5 -72t-132 -26q-52 0 -95 16.5t-73.5 46.5t-47 72t-16.5 93q0 70 25 131.5t69 107.5t104.5 72.5t131.5 26.5
q39 0 72 -9q36 1 63.5 22.5t35.5 71.5h89q-10 -54 -36.5 -88t-63.5 -51q35 -30 55 -74t20 -101zM129 223q0 -39 11.5 -68t32 -48.5t47.5 -29t58 -9.5q50 0 92 21t72 56t47 81.5t17 96.5q0 40 -12.5 69.5t-33.5 49t-49 29t-59 9.5q-50 0 -91.5 -21t-70.5 -56.5t-45 -82
t-16 -97.5z" />
    <glyph glyph-name="uni1EE4" unicode="&#x1ee4;" horiz-adv-x="675" 
d="M257 -215q-27 0 -44 18.5t-15 45.5t21.5 45.5t46.5 18.5q26 0 43 -18.5t15 -45.5t-21.5 -45.5t-45.5 -18.5zM148 697h91l-78 -440q-8 -48 -2 -82.5t25 -57t48.5 -33t67.5 -10.5q78 0 132.5 44t71.5 139l78 440h91l-78 -440q-12 -68 -41.5 -117.5t-71.5 -82t-92.5 -48.5
t-104.5 -16t-99 16t-74.5 48.5t-41.5 82t0 117.5z" />
    <glyph glyph-name="uni1EE5" unicode="&#x1ee5;" 
d="M247 -215q-27 0 -44 18.5t-15 45.5t21.5 45.5t46.5 18.5q26 0 43 -18.5t15 -45.5t-21.5 -45.5t-45.5 -18.5zM512 0h-91l14 80q-34 -43 -85 -65.5t-105 -22.5q-47 0 -85.5 14.5t-64 44t-35 73.5t0.5 103l57 321h90l-54 -309q-14 -84 20 -126t103 -42q35 0 66 11t55.5 33
t41.5 55t24 77v-3l54 304h91z" />
    <glyph glyph-name="uni1EE6" unicode="&#x1ee6;" horiz-adv-x="675" 
d="M400 798q32 14 51.5 27t23.5 34q4 20 -9.5 27.5t-34.5 7.5q-23 0 -53 -9l11 60q17 6 32.5 9.5t32.5 3.5q20 0 39 -5t32.5 -15.5t20 -28t2.5 -41.5q-5 -32 -32 -62t-91 -54zM148 697h91l-78 -440q-8 -48 -2 -82.5t25 -57t48.5 -33t67.5 -10.5q78 0 132.5 44t71.5 139
l78 440h91l-78 -440q-12 -68 -41.5 -117.5t-71.5 -82t-92.5 -48.5t-104.5 -16t-99 16t-74.5 48.5t-41.5 82t0 117.5z" />
    <glyph glyph-name="uni1EE7" unicode="&#x1ee7;" 
d="M353 664q32 14 51.5 27t23.5 34q4 20 -9.5 27.5t-34.5 7.5q-23 0 -53 -9l11 60q17 6 32.5 9.5t32.5 3.5q20 0 39 -5t32.5 -15.5t20 -28t2.5 -41.5q-5 -32 -32 -62t-91 -54zM512 0h-91l14 80q-34 -43 -85 -65.5t-105 -22.5q-47 0 -85.5 14.5t-64 44t-35 73.5t0.5 103
l57 321h90l-54 -309q-14 -84 20 -126t103 -42q35 0 66 11t55.5 33t41.5 55t24 77v-3l54 304h91z" />
    <glyph glyph-name="uni1EE8" unicode="&#x1ee8;" horiz-adv-x="675" 
d="M583 851l-212 -99l-35 59l212 110zM148 697h91l-78 -440q-8 -48 -2 -82.5t25 -57t48.5 -33t67.5 -10.5q78 0 132.5 44t71.5 139l78 440h11q35 2 61 24t34 70h89q-11 -59 -41 -93.5t-72 -50.5l-69 -390q-12 -68 -41.5 -117.5t-71.5 -82t-92.5 -48.5t-104.5 -16t-99 16
t-74.5 48.5t-41.5 82t0 117.5z" />
    <glyph glyph-name="uni1EE9" unicode="&#x1ee9;" 
d="M537 717l-212 -99l-35 59l212 110zM713 642q-11 -59 -41 -93.5t-72 -50.5l-88 -498h-91l14 80q-34 -43 -85 -65.5t-105 -22.5q-47 0 -85.5 14.5t-64 44t-35 73.5t0.5 103l57 321h90l-54 -309q-14 -84 20 -126t103 -42q35 0 66 11t55.5 33t41.5 55t24 77v-3l54 304h4
q37 0 65.5 21.5t36.5 72.5h89z" />
    <glyph glyph-name="uni1EEA" unicode="&#x1eea;" horiz-adv-x="675" 
d="M330 921l180 -111l-41 -58l-186 100zM148 697h91l-78 -440q-8 -48 -2 -82.5t25 -57t48.5 -33t67.5 -10.5q78 0 132.5 44t71.5 139l78 440h11q35 2 61 24t34 70h89q-11 -59 -41 -93.5t-72 -50.5l-69 -390q-12 -68 -41.5 -117.5t-71.5 -82t-92.5 -48.5t-104.5 -16t-99 16
t-74.5 48.5t-41.5 82t0 117.5z" />
    <glyph glyph-name="uni1EEB" unicode="&#x1eeb;" 
d="M284 787l180 -111l-41 -58l-186 100zM713 642q-11 -59 -41 -93.5t-72 -50.5l-88 -498h-91l14 80q-34 -43 -85 -65.5t-105 -22.5q-47 0 -85.5 14.5t-64 44t-35 73.5t0.5 103l57 321h90l-54 -309q-14 -84 20 -126t103 -42q35 0 66 11t55.5 33t41.5 55t24 77v-3l54 304h4
q37 0 65.5 21.5t36.5 72.5h89z" />
    <glyph glyph-name="uni1EEC" unicode="&#x1eec;" horiz-adv-x="675" 
d="M400 798q32 14 51.5 27t23.5 34q4 20 -9.5 27.5t-34.5 7.5q-23 0 -53 -9l11 60q17 6 32.5 9.5t32.5 3.5q20 0 39 -5t32.5 -15.5t20 -28t2.5 -41.5q-5 -32 -32 -62t-91 -54zM148 697h91l-78 -440q-8 -48 -2 -82.5t25 -57t48.5 -33t67.5 -10.5q78 0 132.5 44t71.5 139
l78 440h11q35 2 61 24t34 70h89q-11 -59 -41 -93.5t-72 -50.5l-69 -390q-12 -68 -41.5 -117.5t-71.5 -82t-92.5 -48.5t-104.5 -16t-99 16t-74.5 48.5t-41.5 82t0 117.5z" />
    <glyph glyph-name="uni1EED" unicode="&#x1eed;" 
d="M353 664q32 14 51.5 27t23.5 34q4 20 -9.5 27.5t-34.5 7.5q-23 0 -53 -9l11 60q17 6 32.5 9.5t32.5 3.5q20 0 39 -5t32.5 -15.5t20 -28t2.5 -41.5q-5 -32 -32 -62t-91 -54zM713 642q-11 -59 -41 -93.5t-72 -50.5l-88 -498h-91l14 80q-34 -43 -85 -65.5t-105 -22.5
q-47 0 -85.5 14.5t-64 44t-35 73.5t0.5 103l57 321h90l-54 -309q-14 -84 20 -126t103 -42q35 0 66 11t55.5 33t41.5 55t24 77v-3l54 304h4q37 0 65.5 21.5t36.5 72.5h89z" />
    <glyph glyph-name="uni1EEE" unicode="&#x1eee;" horiz-adv-x="675" 
d="M248 754q11 61 42 92t74 31q22 0 38.5 -8t29 -18t24 -18t24.5 -8q33 0 42 49h69q-9 -60 -41.5 -91t-74.5 -31q-23 0 -39.5 8t-29 18t-23.5 18t-24 8q-32 0 -41 -50h-70zM148 697h91l-78 -440q-8 -48 -2 -82.5t25 -57t48.5 -33t67.5 -10.5q78 0 132.5 44t71.5 139l78 440
h11q35 2 61 24t34 70h89q-11 -59 -41 -93.5t-72 -50.5l-69 -390q-12 -68 -41.5 -117.5t-71.5 -82t-92.5 -48.5t-104.5 -16t-99 16t-74.5 48.5t-41.5 82t0 117.5z" />
    <glyph glyph-name="uni1EEF" unicode="&#x1eef;" 
d="M198 620q11 61 42 92t74 31q22 0 38.5 -8t29 -18t24 -18t24.5 -8q33 0 42 49h69q-9 -60 -41.5 -91t-74.5 -31q-23 0 -39.5 8t-29 18t-23.5 18t-24 8q-32 0 -41 -50h-70zM713 642q-11 -59 -41 -93.5t-72 -50.5l-88 -498h-91l14 80q-34 -43 -85 -65.5t-105 -22.5
q-47 0 -85.5 14.5t-64 44t-35 73.5t0.5 103l57 321h90l-54 -309q-14 -84 20 -126t103 -42q35 0 66 11t55.5 33t41.5 55t24 77v-3l54 304h4q37 0 65.5 21.5t36.5 72.5h89z" />
    <glyph glyph-name="uni1EF0" unicode="&#x1ef0;" horiz-adv-x="675" 
d="M257 -215q-27 0 -44 18.5t-15 45.5t21.5 45.5t46.5 18.5q26 0 43 -18.5t15 -45.5t-21.5 -45.5t-45.5 -18.5zM148 697h91l-78 -440q-8 -48 -2 -82.5t25 -57t48.5 -33t67.5 -10.5q78 0 132.5 44t71.5 139l78 440h11q35 2 61 24t34 70h89q-11 -59 -41 -93.5t-72 -50.5
l-69 -390q-12 -68 -41.5 -117.5t-71.5 -82t-92.5 -48.5t-104.5 -16t-99 16t-74.5 48.5t-41.5 82t0 117.5z" />
    <glyph glyph-name="uni1EF1" unicode="&#x1ef1;" 
d="M247 -215q-27 0 -44 18.5t-15 45.5t21.5 45.5t46.5 18.5q26 0 43 -18.5t15 -45.5t-21.5 -45.5t-45.5 -18.5zM713 642q-11 -59 -41 -93.5t-72 -50.5l-88 -498h-91l14 80q-34 -43 -85 -65.5t-105 -22.5q-47 0 -85.5 14.5t-64 44t-35 73.5t0.5 103l57 321h90l-54 -309
q-14 -84 20 -126t103 -42q35 0 66 11t55.5 33t41.5 55t24 77v-3l54 304h4q37 0 65.5 21.5t36.5 72.5h89z" />
    <glyph glyph-name="Ygrave" unicode="&#x1ef2;" horiz-adv-x="584" 
d="M91 697h102l109 -351l233 351h103l-304 -434l-47 -263h-91l47 263zM271 921l180 -111l-41 -58l-186 100z" />
    <glyph glyph-name="ygrave" unicode="&#x1ef3;" horiz-adv-x="563" 
d="M58 548h101l93 -442l249 442h94l-472 -806h-95l155 264zM241 787l180 -111l-41 -58l-186 100z" />
    <glyph glyph-name="uni1EF4" unicode="&#x1ef4;" horiz-adv-x="584" 
d="M211 -215q-27 0 -44 18.5t-15 45.5t21.5 45.5t46.5 18.5q26 0 43 -18.5t15 -45.5t-21.5 -45.5t-45.5 -18.5zM91 697h102l109 -351l233 351h103l-304 -434l-47 -263h-91l47 263z" />
    <glyph glyph-name="uni1EF5" unicode="&#x1ef5;" horiz-adv-x="563" 
d="M353 -215q-27 0 -44 18.5t-15 45.5t21.5 45.5t46.5 18.5q26 0 43 -18.5t15 -45.5t-21.5 -45.5t-45.5 -18.5zM58 548h101l93 -442l249 442h94l-472 -806h-95l155 264z" />
    <glyph glyph-name="uni1EF6" unicode="&#x1ef6;" horiz-adv-x="584" 
d="M338 798q32 14 51.5 27t23.5 34q4 20 -9.5 27.5t-34.5 7.5q-23 0 -53 -9l11 60q17 6 32.5 9.5t32.5 3.5q20 0 39 -5t32.5 -15.5t20 -28t2.5 -41.5q-5 -32 -32 -62t-91 -54zM91 697h102l109 -351l233 351h103l-304 -434l-47 -263h-91l47 263z" />
    <glyph glyph-name="uni1EF7" unicode="&#x1ef7;" horiz-adv-x="563" 
d="M305 664q32 14 51.5 27t23.5 34q4 20 -9.5 27.5t-34.5 7.5q-23 0 -53 -9l11 60q17 6 32.5 9.5t32.5 3.5q20 0 39 -5t32.5 -15.5t20 -28t2.5 -41.5q-5 -32 -32 -62t-91 -54zM58 548h101l93 -442l249 442h94l-472 -806h-95l155 264z" />
    <glyph glyph-name="uni1EF8" unicode="&#x1ef8;" horiz-adv-x="584" 
d="M198 754q11 61 42 92t74 31q22 0 38.5 -8t29 -18t24 -18t24.5 -8q33 0 42 49h69q-9 -60 -41.5 -91t-74.5 -31q-23 0 -39.5 8t-29 18t-23.5 18t-24 8q-32 0 -41 -50h-70zM91 697h102l109 -351l233 351h103l-304 -434l-47 -263h-91l47 263z" />
    <glyph glyph-name="uni1EF9" unicode="&#x1ef9;" horiz-adv-x="563" 
d="M166 620q11 61 42 92t74 31q22 0 38.5 -8t29 -18t24 -18t24.5 -8q33 0 42 49h69q-9 -60 -41.5 -91t-74.5 -31q-23 0 -39.5 8t-29 18t-23.5 18t-24 8q-32 0 -41 -50h-70zM58 548h101l93 -442l249 442h94l-472 -806h-95l155 264z" />
    <glyph glyph-name="endash" unicode="&#x2013;" horiz-adv-x="677" 
d="M97 405h526l-13 -77h-527z" />
    <glyph glyph-name="emdash" unicode="&#x2014;" horiz-adv-x="885" 
d="M97 405h733l-13 -77h-734z" />
    <glyph glyph-name="quoteleft" unicode="&#x2018;" horiz-adv-x="219" 
d="M247 697l-99 -227h-102l136 227h65z" />
    <glyph glyph-name="quoteright" unicode="&#x2019;" horiz-adv-x="219" 
d="M79 470l99 227h102l-136 -227h-65z" />
    <glyph glyph-name="quotesinglbase" unicode="&#x201a;" horiz-adv-x="187" 
d="M-71 -103l99 226h102l-136 -226h-65z" />
    <glyph glyph-name="quotedblleft" unicode="&#x201c;" horiz-adv-x="381" 
d="M247 697l-99 -227h-102l136 227h65zM410 697l-100 -227h-101l136 227h65z" />
    <glyph glyph-name="quotedblright" unicode="&#x201d;" horiz-adv-x="381" 
d="M242 470l99 227h102l-136 -227h-65zM79 470l99 227h102l-136 -227h-65z" />
    <glyph glyph-name="quotedblbase" unicode="&#x201e;" horiz-adv-x="360" 
d="M-71 -103l99 226h102l-136 -226h-65zM101 -103l100 226h101l-136 -226h-65z" />
    <glyph glyph-name="dagger" unicode="&#x2020;" horiz-adv-x="546" 
d="M547 548l-12 -72l-191 8l-122 -744h-91l141 744l-194 -8l12 72l192 -8l33 241h90l-51 -241z" />
    <glyph glyph-name="daggerdbl" unicode="&#x2021;" horiz-adv-x="547" 
d="M535 476l-191 8l-79 -447l195 9l-14 -73l-191 8l-33 -241h-91l52 241l-193 -8l13 73l190 -9l80 447l-194 -8l12 72l191 -8l33 241h90l-51 -241l194 8z" />
    <glyph glyph-name="bullet" unicode="&#x2022;" horiz-adv-x="412" 
d="M191 211q-25 0 -45.5 9.5t-34 26t-19.5 38.5t-1 48q4 26 17.5 48.5t33 39t43.5 26t50 9.5t47 -9.5t34.5 -26t19 -39t1.5 -48.5q-5 -26 -18.5 -48t-33 -38.5t-44 -26t-50.5 -9.5z" />
    <glyph glyph-name="ellipsis" unicode="&#x2026;" horiz-adv-x="581" 
d="M313 56q-5 -26 -25.5 -44t-46.5 -18t-41 18t-10 44t26 44t47 18t40.5 -18t9.5 -44zM501 56q-5 -26 -25.5 -44t-46.5 -18t-41 18t-10 44t26 44t47 18t40.5 -18t9.5 -44zM126 56q-5 -26 -25.5 -44t-46.5 -18t-41 18t-10 44t26 44t47 18t40.5 -18t9.5 -44z" />
    <glyph glyph-name="perthousand" unicode="&#x2030;" horiz-adv-x="1005" 
d="M89 560q6 34 22 61.5t38.5 46.5t51 29t60.5 10q63 0 97.5 -39t22.5 -108q-6 -34 -22 -61.5t-39 -46.5t-51.5 -29.5t-59.5 -10.5q-32 0 -56.5 10.5t-41 29.5t-22.5 46.5t0 61.5zM251 651q-34 0 -58 -23t-32 -68t8 -68t50 -23q33 0 57.5 23t32.5 68t-8.5 68t-49.5 23z
M567 698h90l-528 -698h-91zM317 138q6 34 22 61.5t38.5 47t51 29.5t60.5 10q31 0 55.5 -10t40.5 -29.5t22.5 -47t0.5 -61.5t-22 -61.5t-38.5 -46.5t-51 -29.5t-59.5 -10.5q-32 0 -56.5 10.5t-41 29.5t-22.5 46.5t0 61.5zM478 229q-33 0 -57.5 -22.5t-32.5 -68.5
q-8 -45 8.5 -67.5t49.5 -22.5t57.5 22.5t32.5 67.5q8 46 -8.5 68.5t-49.5 22.5zM646 138q6 34 22 61.5t39 47t51.5 29.5t59.5 10q63 0 97.5 -39.5t22.5 -108.5q-6 -34 -22 -61.5t-38.5 -46.5t-51.5 -29.5t-60 -10.5t-55.5 10.5t-41 29.5t-23 46.5t-0.5 61.5zM808 229
q-34 0 -57.5 -22.5t-31.5 -68.5q-9 -45 7 -67.5t50 -22.5q33 0 57.5 22.5t32.5 67.5q8 46 -8.5 68.5t-49.5 22.5z" />
    <glyph glyph-name="guilsinglleft" unicode="&#x2039;" horiz-adv-x="280" 
d="M201 120h-90l-65 175l127 175h89l-130 -175z" />
    <glyph glyph-name="guilsinglright" unicode="&#x203a;" horiz-adv-x="280" 
d="M20 120l130 175l-68 175h89l65 -175l-127 -175h-89z" />
    <glyph glyph-name="fraction" unicode="&#x2044;" horiz-adv-x="494" 
d="M487 698h91l-529 -698h-91z" />
    <glyph glyph-name="uni20A8" unicode="&#x20a8;" horiz-adv-x="1109" 
d="M486 492q11 61 -17.5 97t-106.5 36h-134l-47 -265h134q78 0 119 36.5t52 95.5zM375 697q61 0 103.5 -16t67.5 -44t32.5 -65t0.5 -80q-6 -35 -22 -67.5t-42.5 -59.5t-64.5 -46t-87 -27l139 -292h-111l-133 288h-89l-52 -288h-91l124 697h225zM631 396q6 33 25 62.5
t49.5 51.5t70.5 34.5t88 12.5q89 0 135.5 -46.5t37.5 -127.5h-93q4 45 -20 73t-79 28q-53 0 -85 -24t-40 -61q-5 -26 6.5 -42.5t32.5 -27t49.5 -17t57.5 -13.5t56.5 -17t47.5 -26.5t29.5 -42.5t2.5 -65q-6 -35 -26 -63.5t-50.5 -49.5t-69 -32.5t-82.5 -11.5q-93 0 -143.5 45
t-42.5 130h94q-5 -45 22 -73.5t83 -28.5q54 0 86.5 24t39.5 62q6 36 -15 54t-55 28.5t-74.5 19t-74 24t-53 43t-10.5 77.5z" />
    <glyph glyph-name="Euro" unicode="&#x20ac;" horiz-adv-x="811" 
d="M116 349q4 24 12 49h-84l11 63h97q26 55 66 100.5t88.5 77.5t105 49.5t115.5 17.5q113 0 188.5 -54.5t96.5 -156.5h-108q-18 61 -66 94.5t-125 33.5q-83 0 -152.5 -42.5t-111.5 -119.5h235l-10 -63h-252q-8 -25 -12 -49q-5 -27 -6 -52h252l-12 -64h-234q15 -75 70 -116
t136 -41q77 0 137 33.5t99 93.5h109q-57 -101 -151.5 -155t-207.5 -54q-59 0 -109 17t-87.5 48t-61.5 75.5t-31 98.5h-98l11 64h84q1 25 6 52z" />
    <glyph glyph-name="uni20B9" unicode="&#x20b9;" horiz-adv-x="635" 
d="M123 698h544l-12 -67h-129l-16 -91q-1 -5 -1.5 -8.5t-1.5 -8.5h129l-12 -66h-133q-16 -51 -40.5 -85.5t-61.5 -56t-88.5 -30.5t-121.5 -9l-14 -79q-5 -30 -3.5 -54.5t12.5 -42.5t32 -28t54 -10q62 0 94.5 35t43.5 95h85q-20 -102 -80.5 -152t-156.5 -50q-101 0 -142 55.5
t-24 153.5l25 141q79 0 131.5 3.5t86.5 15.5t52.5 35.5t30.5 62.5h-326l12 66h330l3 18l16 90h-330z" />
    <glyph glyph-name="uni20BA" unicode="&#x20ba;" horiz-adv-x="830" 
d="M318 498l185 44l-12 -66l-185 -43l-17 -100l181 42l-12 -66l-181 -42l-34 -192q20 -5 39 -6t38 -1q73 0 128.5 23t96 67.5t66.5 109.5t41 149h93q-38 -216 -143 -325.5t-297 -109.5q-40 0 -81.5 5.5t-86.5 16.5l42 240l-166 -39l11 66l167 39l18 100l-170 -39l11 63
l170 41l40 227h94z" />
    <glyph glyph-name="uni20BD" unicode="&#x20bd;" horiz-adv-x="624" 
d="M226 363h135q78 0 118.5 35.5t51.5 94.5q11 61 -17.5 96.5t-106.5 35.5h-134zM49 363h87l59 334h225q61 0 103.5 -16t67 -43.5t32.5 -64.5t1 -80q-7 -40 -26.5 -76.5t-53.5 -64.5t-83 -44.5t-113 -16.5h-134l-17 -96h218l-13 -73h-218l-22 -122h-91l22 122h-86l13 73h86
l17 96h-87z" />
    <glyph glyph-name="uni2113" unicode="&#x2113;" horiz-adv-x="246" 
d="M157 740h91l-131 -740h-91z" />
    <glyph glyph-name="trademark" unicode="&#x2122;" horiz-adv-x="781" 
d="M99 704h241l-10 -56h-85l-52 -296h-72l53 296h-85zM396 704h93l63 -267l159 267h88l-63 -352h-67l45 255l-155 -255h-51l-62 258l-46 -258h-66z" />
    <glyph glyph-name="uni2126" unicode="&#x2126;" horiz-adv-x="787" 
d="M52 350q14 78 53 143.5t95 113t124.5 73.5t142.5 26q73 0 133 -26t99.5 -73.5t55.5 -113t2 -143.5q-15 -88 -65 -161.5t-130 -116.5h133l-13 -72h-274l13 75q45 11 85 34.5t72 58t54.5 79t31.5 97.5q11 64 0.5 115.5t-39 88t-73 56t-100.5 19.5t-107 -20t-92.5 -56.5
t-70 -88t-39.5 -114.5q-9 -53 -2.5 -97.5t27 -79t52 -58t71.5 -34.5l-14 -75h-275l13 72h133q-64 43 -88 116.5t-8 161.5z" />
    <glyph glyph-name="estimated" unicode="&#x212e;" horiz-adv-x="761" 
d="M659 137q-74 -67 -154 -105.5t-168 -38.5q-73 0 -132 22.5t-97 65.5t-53 106t-1 144q14 77 48 144.5t85 117.5t118 78.5t147 28.5q81 0 138.5 -27t92.5 -72t46.5 -103.5t0.5 -121.5l-11 -61h-533l-29 -168q31 -46 75.5 -69.5t115.5 -23.5q77 0 142 33.5t136 93.5z
M587 379l30 176q-25 41 -69 63t-106 22q-61 0 -116 -23t-99 -73l-29 -165h389z" />
    <glyph glyph-name="partialdiff" unicode="&#x2202;" horiz-adv-x="572" 
d="M435 324q14 79 -10.5 118t-78.5 39q-39 0 -76 -20t-67 -54.5t-51.5 -82t-31.5 -101.5q-7 -40 -3.5 -69.5t15.5 -48.5t31 -28t43 -9q40 0 77.5 21t68 56t52.5 81.5t31 97.5zM28 223q12 66 42.5 126.5t74.5 107t98 74t113 27.5q45 0 75 -19.5t39 -70.5q7 46 5 86t-15.5 69
t-39 45.5t-65.5 16.5q-36 0 -82 -12l9 53q26 8 49.5 11t46.5 3q112 0 157.5 -86.5t19.5 -241.5q-17 -98 -54.5 -176t-87.5 -132.5t-109.5 -84t-120.5 -29.5q-41 0 -74 14t-54.5 43t-29.5 72.5t3 103.5z" />
    <glyph glyph-name="uni2206" unicode="&#x2206;" horiz-adv-x="680" 
d="M374 693h75l173 -622l-13 -71h-640l13 71zM393 589l-318 -518h454z" />
    <glyph glyph-name="product" unicode="&#x220f;" horiz-adv-x="739" 
d="M112 698h660l-13 -72h-80l-110 -626h-90l110 626h-321l-110 -626h-91l110 626h-78z" />
    <glyph glyph-name="summation" unicode="&#x2211;" horiz-adv-x="457" 
d="M111 693h390l-12 -71h-313l218 -269l-12 -71l-316 -274h314l-13 -71h-389l19 106l308 272l-212 273z" />
    <glyph glyph-name="minus" unicode="&#x2212;" horiz-adv-x="551" 
d="M97 405h399l-14 -77h-399z" />
    <glyph glyph-name="uni2215" unicode="&#x2215;" horiz-adv-x="476" 
d="M441 942h91l-470 -1112h-90z" />
    <glyph glyph-name="uni2219" unicode="&#x2219;" horiz-adv-x="212" 
d="M129 341q-5 -26 -25.5 -44t-46.5 -18t-41 18t-10 44t26 44t47 18t40.5 -18t9.5 -44z" />
    <glyph glyph-name="radical" unicode="&#x221a;" horiz-adv-x="788" 
d="M179 -44l-86 220l-72 -38l-19 47l156 84l79 -201l573 801h66l-652 -913h-45z" />
    <glyph glyph-name="infinity" unicode="&#x221e;" horiz-adv-x="679" 
d="M493 265q37 0 63 22t33 61t-11 60t-55 21q-35 0 -71 -22.5t-63 -59.5q20 -33 43.5 -57.5t60.5 -24.5zM178 266q35 0 69.5 21.5t61.5 56.5q-21 35 -44 60.5t-57 25.5q-37 0 -63.5 -22t-32.5 -61q-8 -39 10.5 -60t55.5 -21zM35 347q6 35 23 63t41 47t54 29t62 10
q28 0 49.5 -8.5t38.5 -22t31 -32t26 -37.5q32 42 78.5 71.5t103.5 28.5q31 0 56.5 -10t42.5 -29t24 -46.5t1 -62.5t-23.5 -63t-41.5 -47t-54 -29t-62 -10q-27 0 -49 8t-39.5 21.5t-32 31t-26.5 36.5q-32 -41 -78 -69.5t-102 -27.5q-32 0 -57.5 10t-42 29t-23 46.5t-0.5 62.5
z" />
    <glyph glyph-name="integral" unicode="&#x222b;" horiz-adv-x="261" 
d="M222 779q21 75 64.5 107t109.5 32h23l-21 -76h-17q-26 0 -42 -14t-27 -49l-238 -836q-22 -75 -64.5 -107.5t-110.5 -32.5h-23l21 75h19q27 0 41.5 14.5t24.5 50.5z" />
    <glyph glyph-name="approxequal" unicode="&#x2248;" horiz-adv-x="519" 
d="M30 201q27 75 70 110.5t97 35.5q28 0 48 -10t37 -22.5t33.5 -22.5t38.5 -10q24 0 46 16.5t32 47.5h68q-26 -76 -70 -111t-98 -35q-29 0 -48.5 10t-36 22.5t-33 22.5t-38.5 10q-25 0 -46.5 -17t-32.5 -47h-67zM30 412q27 75 70 110.5t97 35.5q28 0 48 -10t37 -22.5
t33.5 -22.5t38.5 -10q24 0 46 16.5t32 47.5h68q-26 -76 -70 -111t-98 -35q-29 0 -48.5 10t-36 22.5t-33 22.5t-38.5 10q-25 0 -46.5 -17t-32.5 -47h-67z" />
    <glyph glyph-name="notequal" unicode="&#x2260;" horiz-adv-x="706" 
d="M188 218h-99l14 81h168l139 134h-283l14 81h352l99 96h69l-99 -96h99l-14 -81h-168l-139 -134h283l-14 -81h-352l-99 -96h-69z" />
    <glyph glyph-name="lessequal" unicode="&#x2264;" horiz-adv-x="511" 
d="M302 212l-207 191l275 192h120l-273 -191l206 -192h-121zM57 162h354l-12 -69h-354z" />
    <glyph glyph-name="greaterequal" unicode="&#x2265;" horiz-adv-x="511" 
d="M62 212l273 192l-205 191h119l209 -192l-276 -191h-120zM409 162l-12 -69h-354l12 69h354z" />
    <glyph glyph-name="lozenge" unicode="&#x25ca;" horiz-adv-x="554" 
d="M331 591l198 -241l-284 -242l-198 242zM315 497l-174 -148l120 -147l174 149z" />
    <glyph glyph-name="fi" unicode="&#xfb01;" horiz-adv-x="571" 
d="M126 473h-70l13 75h70l7 39q17 92 71.5 134.5t160.5 42.5l-13 -76q-62 0 -90 -23.5t-37 -77.5l-7 -39h311l-97 -548h-91l84 473h-220l-84 -473h-91zM520 637q-27 0 -44 18.5t-15 45.5t21.5 45.5t46.5 18.5q26 0 43 -18.5t15 -45.5t-21.5 -45.5t-45.5 -18.5z" />
    <glyph glyph-name="fl" unicode="&#xfb02;" horiz-adv-x="574" 
d="M126 473h-70l13 75h70l7 39q17 92 71.5 134.5t160.5 42.5l-13 -76q-62 0 -90 -23.5t-37 -77.5l-7 -39h115l-13 -75h-115l-84 -473h-91zM486 740h91l-131 -740h-91z" />
    <glyph glyph-name="NULL" horiz-adv-x="0" 
 />
    <glyph glyph-name="exclam.ss01" horiz-adv-x="273" 
d="M160 699h98l-100 -502h-75zM51 112h110l-21 -112h-109z" />
    <glyph glyph-name="comma.ss01" horiz-adv-x="187" 
d="M100 94q3 -55 -4 -93q-11 -66 -45 -96t-88 -30l8 46q51 0 62 62l3 19h-53l16 92h101z" />
    <glyph glyph-name="period.ss01" horiz-adv-x="205" 
d="M17 112h110l-21 -112h-109z" />
    <glyph glyph-name="colon.ss01" horiz-adv-x="238" 
d="M30 112h109l-20 -112h-110zM104 539h110l-19 -111h-110z" />
    <glyph glyph-name="semicolon.ss01" horiz-adv-x="189" 
d="M102 94q3 -55 -4 -93q-11 -66 -45 -96t-88 -30l8 46q51 0 62 62l3 19h-53l16 92h101zM78 539h110l-21 -112h-109z" />
    <glyph glyph-name="question.ss01" horiz-adv-x="524" 
d="M112 112h110l-21 -112h-109zM75 505q8 45 30.5 82.5t56 63.5t76 40.5t91.5 14.5t87.5 -14.5t63 -41t34 -64.5t0.5 -86q-10 -55 -35 -94t-61.5 -64t-82.5 -36.5t-98 -11.5l-17 -95h-87l28 158h29q43 0 82.5 5.5t71 21t53.5 43.5t30 73q11 60 -19 95t-91 35
q-62 0 -103.5 -33t-52.5 -92h-86z" />
    <glyph glyph-name="exclamdown.ss01" horiz-adv-x="273" 
d="M109 -145h-98l100 502h75zM218 442h-110l21 112h109z" />
    <glyph glyph-name="periodcentered.ss01" horiz-adv-x="205" 
d="M17 399h110l-21 -112h-109z" />
    <glyph glyph-name="questiondown.ss01" horiz-adv-x="524" 
d="M412 439h-110l21 112h109zM449 46q-8 -45 -30.5 -82.5t-56 -63.5t-76 -40.5t-91.5 -14.5t-87.5 14.5t-63 41t-34 64.5t-0.5 86q10 55 35 94t61.5 64t82.5 36.5t98 11.5l17 95h87l-28 -158h-29q-43 0 -82.5 -5.5t-71 -21t-53.5 -43.5t-30 -73q-11 -60 19 -95t91 -35
q62 0 103.5 33t52.5 92h86z" />
    <glyph glyph-name="divide.ss01" horiz-adv-x="657" 
d="M99 406h510l-15 -80h-510zM265 210h109l-19 -113h-110zM339 635h110l-19 -112h-110z" />
    <glyph glyph-name="apostrophemod.ss01" horiz-adv-x="162" 
d="M209 785q2 -26 0.5 -49t-4.5 -43q-11 -59 -41.5 -86t-79.5 -27l7 42q26 0 39 13.5t18 40.5l4 23h-50l15 86h92z" />
    <glyph glyph-name="quoteleft.ss01" horiz-adv-x="162" 
d="M93 580q-2 26 -1 49t5 43q11 59 41 86t80 27l-7 -42q-26 0 -39 -14t-18 -40l-4 -23h49l-15 -86h-91z" />
    <glyph glyph-name="quoteright.ss01" horiz-adv-x="162" 
d="M209 785q2 -26 0.5 -49t-4.5 -43q-11 -59 -41.5 -86t-79.5 -27l7 42q26 0 39 13.5t18 40.5l4 23h-50l15 86h92z" />
    <glyph glyph-name="quotedblleft.ss01" horiz-adv-x="297" 
d="M228 580q-2 26 -1 49t5 43q11 59 41 86t81 27l-7 -42q-26 0 -39.5 -14t-18.5 -40l-4 -23h49l-15 -86h-91zM93 580q-2 26 -1 49t5 43q11 59 41 86t80 27l-7 -42q-26 0 -39 -14t-18 -40l-4 -23h49l-15 -86h-91z" />
    <glyph glyph-name="quotedblright.ss01" horiz-adv-x="297" 
d="M345 785q1 -26 0 -49t-5 -43q-11 -59 -41.5 -86t-79.5 -27l7 42q26 0 39.5 13.5t18.5 40.5l3 23h-49l15 86h92zM209 785q2 -26 0.5 -49t-4.5 -43q-11 -59 -41.5 -86t-79.5 -27l7 42q26 0 39 13.5t18 40.5l4 23h-50l15 86h92z" />
    <glyph glyph-name="ellipsis.ss01" horiz-adv-x="582" 
d="M17 112h110l-21 -112h-109zM205 112h110l-21 -112h-109zM394 112h110l-21 -112h-109z" />
    <glyph glyph-name="a.ss02" horiz-adv-x="601" 
d="M397 96q-15 -22 -38 -41t-51.5 -33.5t-61.5 -23t-69 -8.5q-72 0 -115.5 38t-43.5 105q0 43 19 78.5t53 60t79 38t98 13.5h169q4 20 4 42q0 59 -29.5 90t-88.5 31q-56 0 -98.5 -32t-62.5 -92h-89q14 43 37.5 79.5t57.5 63.5t77 42t96 15q42 0 78 -12t61.5 -35.5t40 -58.5
t14.5 -80q0 -12 -1.5 -26t-3.5 -29l-57 -321h-92zM113 151q0 -38 26 -60t74 -22q32 0 66 11t63 33t51 55t30 77l2 13h-169q-69 0 -106 -31.5t-37 -75.5z" />
    <glyph glyph-name="aacute.ss02" horiz-adv-x="601" 
d="M397 96q-15 -22 -38 -41t-51.5 -33.5t-61.5 -23t-69 -8.5q-72 0 -115.5 38t-43.5 105q0 43 19 78.5t53 60t79 38t98 13.5h169q4 20 4 42q0 59 -29.5 90t-88.5 31q-56 0 -98.5 -32t-62.5 -92h-89q14 43 37.5 79.5t57.5 63.5t77 42t96 15q42 0 78 -12t61.5 -35.5t40 -58.5
t14.5 -80q0 -12 -1.5 -26t-3.5 -29l-57 -321h-92zM113 151q0 -38 26 -60t74 -22q32 0 66 11t63 33t51 55t30 77l2 13h-169q-69 0 -106 -31.5t-37 -75.5zM527 717l-212 -99l-35 59l212 110z" />
    <glyph glyph-name="abreve.ss02" horiz-adv-x="601" 
d="M397 96q-15 -22 -38 -41t-51.5 -33.5t-61.5 -23t-69 -8.5q-72 0 -115.5 38t-43.5 105q0 43 19 78.5t53 60t79 38t98 13.5h169q4 20 4 42q0 59 -29.5 90t-88.5 31q-56 0 -98.5 -32t-62.5 -92h-89q14 43 37.5 79.5t57.5 63.5t77 42t96 15q42 0 78 -12t61.5 -35.5t40 -58.5
t14.5 -80q0 -12 -1.5 -26t-3.5 -29l-57 -321h-92zM113 151q0 -38 26 -60t74 -22q32 0 66 11t63 33t51 55t30 77l2 13h-169q-69 0 -106 -31.5t-37 -75.5zM342 608q-35 0 -63 9t-47.5 27t-27.5 44t-2 61h78q-6 -36 13 -54t61 -18q37 0 64 18t33 54h81q-12 -69 -64.5 -105
t-125.5 -36z" />
    <glyph glyph-name="acircumflex.ss02" horiz-adv-x="601" 
d="M397 96q-15 -22 -38 -41t-51.5 -33.5t-61.5 -23t-69 -8.5q-72 0 -115.5 38t-43.5 105q0 43 19 78.5t53 60t79 38t98 13.5h169q4 20 4 42q0 59 -29.5 90t-88.5 31q-56 0 -98.5 -32t-62.5 -92h-89q14 43 37.5 79.5t57.5 63.5t77 42t96 15q42 0 78 -12t61.5 -35.5t40 -58.5
t14.5 -80q0 -12 -1.5 -26t-3.5 -29l-57 -321h-92zM113 151q0 -38 26 -60t74 -22q32 0 66 11t63 33t51 55t30 77l2 13h-169q-69 0 -106 -31.5t-37 -75.5zM217 608l-36 55l186 110l148 -110l-50 -55l-110 80z" />
    <glyph glyph-name="adieresis.ss02" horiz-adv-x="601" 
d="M317 622q-20 0 -32.5 12t-12.5 31q0 25 19 43.5t44 18.5q20 0 32 -12.5t12 -30.5q0 -26 -19.5 -44t-42.5 -18zM480 622q-20 0 -32.5 12t-12.5 31q0 25 19 43.5t44 18.5q19 0 31.5 -12.5t12.5 -30.5q0 -26 -19.5 -44t-42.5 -18zM397 96q-15 -22 -38 -41t-51.5 -33.5
t-61.5 -23t-69 -8.5q-72 0 -115.5 38t-43.5 105q0 43 19 78.5t53 60t79 38t98 13.5h169q4 20 4 42q0 59 -29.5 90t-88.5 31q-56 0 -98.5 -32t-62.5 -92h-89q14 43 37.5 79.5t57.5 63.5t77 42t96 15q42 0 78 -12t61.5 -35.5t40 -58.5t14.5 -80q0 -12 -1.5 -26t-3.5 -29
l-57 -321h-92zM113 151q0 -38 26 -60t74 -22q32 0 66 11t63 33t51 55t30 77l2 13h-169q-69 0 -106 -31.5t-37 -75.5z" />
    <glyph glyph-name="agrave.ss02" horiz-adv-x="601" 
d="M397 96q-15 -22 -38 -41t-51.5 -33.5t-61.5 -23t-69 -8.5q-72 0 -115.5 38t-43.5 105q0 43 19 78.5t53 60t79 38t98 13.5h169q4 20 4 42q0 59 -29.5 90t-88.5 31q-56 0 -98.5 -32t-62.5 -92h-89q14 43 37.5 79.5t57.5 63.5t77 42t96 15q42 0 78 -12t61.5 -35.5t40 -58.5
t14.5 -80q0 -12 -1.5 -26t-3.5 -29l-57 -321h-92zM113 151q0 -38 26 -60t74 -22q32 0 66 11t63 33t51 55t30 77l2 13h-169q-69 0 -106 -31.5t-37 -75.5zM265 787l180 -111l-41 -58l-186 100z" />
    <glyph glyph-name="amacron.ss02" horiz-adv-x="601" 
d="M237 709h352l-12 -68h-352zM397 96q-15 -22 -38 -41t-51.5 -33.5t-61.5 -23t-69 -8.5q-72 0 -115.5 38t-43.5 105q0 43 19 78.5t53 60t79 38t98 13.5h169q4 20 4 42q0 59 -29.5 90t-88.5 31q-56 0 -98.5 -32t-62.5 -92h-89q14 43 37.5 79.5t57.5 63.5t77 42t96 15
q42 0 78 -12t61.5 -35.5t40 -58.5t14.5 -80q0 -12 -1.5 -26t-3.5 -29l-57 -321h-92zM113 151q0 -38 26 -60t74 -22q32 0 66 11t63 33t51 55t30 77l2 13h-169q-69 0 -106 -31.5t-37 -75.5z" />
    <glyph glyph-name="aogonek.ss02" horiz-adv-x="601" 
d="M448 -192q-19 -6 -39.5 -10t-40.5 -4q-23 0 -43.5 5.5t-35.5 17.5t-22.5 31t-2.5 46q5 33 32.5 63.5t86.5 59.5l14 79q-15 -22 -38 -41t-51.5 -33.5t-61.5 -23t-69 -8.5q-72 0 -115.5 38t-43.5 105q0 43 19 78.5t53 60t79 38t98 13.5h169q4 20 4 42q0 59 -29.5 90
t-88.5 31q-56 0 -98.5 -32t-62.5 -92h-89q14 43 37.5 79.5t57.5 63.5t77 42t96 15q42 0 78 -12t61.5 -35.5t40 -58.5t14.5 -80q0 -12 -1.5 -26t-3.5 -29l-57 -321l-59 -27q-37 -17 -53 -34t-20 -36q-4 -23 10 -35.5t40 -12.5q14 0 32 3.5t36 9.5zM113 151q0 -38 26 -60
t74 -22q32 0 66 11t63 33t51 55t30 77l2 13h-169q-69 0 -106 -31.5t-37 -75.5z" />
    <glyph glyph-name="aring.ss02" horiz-adv-x="601" 
d="M309 712q9 49 44.5 77t78.5 28q45 0 69.5 -28t16.5 -77q-9 -49 -44 -77t-79 -28q-43 0 -68.5 28t-17.5 77zM470 713q5 26 -9 41t-38 15q-23 0 -41.5 -15t-23.5 -41t8.5 -41.5t36.5 -15.5q24 0 43 15.5t24 41.5zM397 96q-15 -22 -38 -41t-51.5 -33.5t-61.5 -23t-69 -8.5
q-72 0 -115.5 38t-43.5 105q0 43 19 78.5t53 60t79 38t98 13.5h169q4 20 4 42q0 59 -29.5 90t-88.5 31q-56 0 -98.5 -32t-62.5 -92h-89q14 43 37.5 79.5t57.5 63.5t77 42t96 15q42 0 78 -12t61.5 -35.5t40 -58.5t14.5 -80q0 -12 -1.5 -26t-3.5 -29l-57 -321h-92zM113 151
q0 -38 26 -60t74 -22q32 0 66 11t63 33t51 55t30 77l2 13h-169q-69 0 -106 -31.5t-37 -75.5z" />
    <glyph glyph-name="atilde.ss02" horiz-adv-x="601" 
d="M397 96q-15 -22 -38 -41t-51.5 -33.5t-61.5 -23t-69 -8.5q-72 0 -115.5 38t-43.5 105q0 43 19 78.5t53 60t79 38t98 13.5h169q4 20 4 42q0 59 -29.5 90t-88.5 31q-56 0 -98.5 -32t-62.5 -92h-89q14 43 37.5 79.5t57.5 63.5t77 42t96 15q42 0 78 -12t61.5 -35.5t40 -58.5
t14.5 -80q0 -12 -1.5 -26t-3.5 -29l-57 -321h-92zM113 151q0 -38 26 -60t74 -22q32 0 66 11t63 33t51 55t30 77l2 13h-169q-69 0 -106 -31.5t-37 -75.5zM183 620q11 61 42 92t74 31q22 0 38.5 -8t29 -18t24 -18t24.5 -8q33 0 42 49h69q-9 -60 -41.5 -91t-74.5 -31
q-23 0 -39.5 8t-29 18t-23.5 18t-24 8q-32 0 -41 -50h-70z" />
    <glyph glyph-name="ampersand.ss03" horiz-adv-x="663" 
d="M207 571q5 31 22 60t43.5 51.5t62.5 36.5t80 14q45 0 77 -14t50.5 -36.5t25 -51t1.5 -58.5q-2 -11 -6 -23t-9 -22h-89q5 8 7.5 18l4.5 18q8 41 -13 66.5t-63 25.5t-69.5 -25.5t-33.5 -60.5q-5 -27 1.5 -49.5t24.5 -51.5l290 -469h-109l-91 145q-13 -33 -35.5 -61
t-52 -48.5t-63.5 -32t-71 -11.5q-42 0 -77.5 15t-58.5 42.5t-33 66t-1 85.5q8 46 30 83.5t53 64t68.5 41t76.5 14.5h8l-8 11q-26 41 -38.5 77t-4.5 79zM103 202q-5 -30 0.5 -54.5t20 -42t35.5 -27.5t47 -10t50.5 10t44.5 27.5t33.5 41.5t18.5 51q5 28 -1 52.5t-21 42.5
t-36.5 28.5t-46.5 10.5q-26 0 -50 -9.5t-43.5 -26.5t-33 -41t-18.5 -53z" />
    <glyph glyph-name="two.ss04" horiz-adv-x="596" 
d="M21 65l244 202q50 41 87 75t62.5 64t39.5 58.5t17 58.5q3 25 -2 47t-18.5 38t-36.5 25t-57 9q-69 0 -113 -43.5t-58 -112.5h-88q12 58 38 101.5t62 73t80.5 44.5t92.5 15q52 0 91 -14.5t63.5 -40.5t34 -62t3.5 -79q-5 -37 -20 -71.5t-43.5 -71.5t-70.5 -77t-99 -88
l-171 -140h345l-13 -76h-481z" />
    <glyph glyph-name="three.ss04" horiz-adv-x="601" 
d="M253 -5q-105 0 -160.5 53.5t-47.5 159.5h84q-4 -29 4 -54t26 -43.5t45 -29t61 -10.5q42 0 75.5 14.5t57 39.5t36.5 59t13 74q0 56 -32.5 85.5t-94.5 29.5h-108l12 64l239 218h-302l14 79h416l-12 -68l-243 -224q95 -1 146.5 -49t51.5 -129q0 -60 -21 -109.5t-58 -85
t-89 -55t-113 -19.5z" />
    <glyph glyph-name="six.ss04" horiz-adv-x="634" 
d="M579 276q0 -61 -22 -113t-61 -90.5t-92.5 -60t-116.5 -21.5q-49 0 -88 15t-66.5 41.5t-42 63t-14.5 79.5q0 75 34 139t86 124l231 266h101l-234 -266q20 6 41.5 9.5t44.5 3.5q45 0 82 -14t63 -39.5t40 -60.5t14 -76zM357 403q-44 0 -80.5 -16.5t-62.5 -44.5t-40.5 -65.5
t-14.5 -79.5q0 -61 36.5 -96t102.5 -35q44 0 80.5 16.5t62.5 44.5t40.5 65.5t14.5 80.5q0 60 -36.5 95t-102.5 35z" />
    <glyph glyph-name="nine.ss04" horiz-adv-x="624" 
d="M78 437q0 60 22 112.5t60.5 91.5t91 61.5t114.5 22.5q50 0 89.5 -14.5t66.5 -41t41.5 -63t14.5 -80.5q0 -74 -34 -138.5t-86 -124.5l-230 -265h-101l238 268q-42 -16 -94 -16q-46 0 -82 13.5t-60.5 38.5t-37.5 59.5t-13 75.5zM356 650q-45 0 -81 -16.5t-62 -44.5
t-40 -65.5t-14 -79.5q0 -60 36 -95.5t102 -35.5q44 0 80.5 16t62.5 44t40.5 65.5t14.5 80.5q0 60 -36.5 95.5t-102.5 35.5z" />
    <glyph glyph-name="uni1EA1.ss02" horiz-adv-x="601" 
d="M397 96q-15 -22 -38 -41t-51.5 -33.5t-61.5 -23t-69 -8.5q-72 0 -115.5 38t-43.5 105q0 43 19 78.5t53 60t79 38t98 13.5h169q4 20 4 42q0 59 -29.5 90t-88.5 31q-56 0 -98.5 -32t-62.5 -92h-89q14 43 37.5 79.5t57.5 63.5t77 42t96 15q42 0 78 -12t61.5 -35.5t40 -58.5
t14.5 -80q0 -12 -1.5 -26t-3.5 -29l-57 -321h-92zM113 151q0 -38 26 -60t74 -22q32 0 66 11t63 33t51 55t30 77l2 13h-169q-69 0 -106 -31.5t-37 -75.5zM210 -215q-27 0 -44 18.5t-15 45.5t21.5 45.5t46.5 18.5q26 0 43 -18.5t15 -45.5t-21.5 -45.5t-45.5 -18.5z" />
    <glyph glyph-name="uni1EA3.ss02" horiz-adv-x="601" 
d="M397 96q-15 -22 -38 -41t-51.5 -33.5t-61.5 -23t-69 -8.5q-72 0 -115.5 38t-43.5 105q0 43 19 78.5t53 60t79 38t98 13.5h169q4 20 4 42q0 59 -29.5 90t-88.5 31q-56 0 -98.5 -32t-62.5 -92h-89q14 43 37.5 79.5t57.5 63.5t77 42t96 15q42 0 78 -12t61.5 -35.5t40 -58.5
t14.5 -80q0 -12 -1.5 -26t-3.5 -29l-57 -321h-92zM113 151q0 -38 26 -60t74 -22q32 0 66 11t63 33t51 55t30 77l2 13h-169q-69 0 -106 -31.5t-37 -75.5zM331 664q32 14 51.5 27t23.5 34q4 20 -9.5 27.5t-34.5 7.5q-23 0 -53 -9l11 60q17 6 32.5 9.5t32.5 3.5q20 0 39 -5
t32.5 -15.5t20 -28t2.5 -41.5q-5 -32 -32 -62t-91 -54z" />
    <glyph glyph-name="uni1EA5.ss02" horiz-adv-x="601" 
d="M397 96q-15 -22 -38 -41t-51.5 -33.5t-61.5 -23t-69 -8.5q-72 0 -115.5 38t-43.5 105q0 43 19 78.5t53 60t79 38t98 13.5h169q4 20 4 42q0 59 -29.5 90t-88.5 31q-56 0 -98.5 -32t-62.5 -92h-89q14 43 37.5 79.5t57.5 63.5t77 42t96 15q42 0 78 -12t61.5 -35.5t40 -58.5
t14.5 -80q0 -12 -1.5 -26t-3.5 -29l-57 -321h-92zM113 151q0 -38 26 -60t74 -22q32 0 66 11t63 33t51 55t30 77l2 13h-169q-69 0 -106 -31.5t-37 -75.5zM217 608l-36 55l186 110l148 -110l-50 -55l-110 80zM676 845l-178 -112l-39 53l176 124z" />
    <glyph glyph-name="uni1EA7.ss02" horiz-adv-x="601" 
d="M397 96q-15 -22 -38 -41t-51.5 -33.5t-61.5 -23t-69 -8.5q-72 0 -115.5 38t-43.5 105q0 43 19 78.5t53 60t79 38t98 13.5h169q4 20 4 42q0 59 -29.5 90t-88.5 31q-56 0 -98.5 -32t-62.5 -92h-89q14 43 37.5 79.5t57.5 63.5t77 42t96 15q42 0 78 -12t61.5 -35.5t40 -58.5
t14.5 -80q0 -12 -1.5 -26t-3.5 -29l-57 -321h-92zM113 151q0 -38 26 -60t74 -22q32 0 66 11t63 33t51 55t30 77l2 13h-169q-69 0 -106 -31.5t-37 -75.5zM217 608l-36 55l186 110l148 -110l-50 -55l-110 80zM421 910l150 -122l-45 -55l-156 112z" />
    <glyph glyph-name="uni1EA9.ss02" horiz-adv-x="601" 
d="M397 96q-15 -22 -38 -41t-51.5 -33.5t-61.5 -23t-69 -8.5q-72 0 -115.5 38t-43.5 105q0 43 19 78.5t53 60t79 38t98 13.5h169q4 20 4 42q0 59 -29.5 90t-88.5 31q-56 0 -98.5 -32t-62.5 -92h-89q14 43 37.5 79.5t57.5 63.5t77 42t96 15q42 0 78 -12t61.5 -35.5t40 -58.5
t14.5 -80q0 -12 -1.5 -26t-3.5 -29l-57 -321h-92zM113 151q0 -38 26 -60t74 -22q32 0 66 11t63 33t51 55t30 77l2 13h-169q-69 0 -106 -31.5t-37 -75.5zM217 608l-36 55l186 110l148 -110l-50 -55l-110 80zM465 779q32 14 51.5 27t23.5 34q4 20 -9.5 27.5t-34.5 7.5
q-23 0 -53 -9l11 60q17 6 32.5 9.5t32.5 3.5q20 0 39 -5t32.5 -15.5t20 -28t2.5 -41.5q-5 -32 -32 -62t-91 -54z" />
    <glyph glyph-name="uni1EAB.ss02" horiz-adv-x="601" 
d="M397 96q-15 -22 -38 -41t-51.5 -33.5t-61.5 -23t-69 -8.5q-72 0 -115.5 38t-43.5 105q0 43 19 78.5t53 60t79 38t98 13.5h169q4 20 4 42q0 59 -29.5 90t-88.5 31q-56 0 -98.5 -32t-62.5 -92h-89q14 43 37.5 79.5t57.5 63.5t77 42t96 15q42 0 78 -12t61.5 -35.5t40 -58.5
t14.5 -80q0 -12 -1.5 -26t-3.5 -29l-57 -321h-92zM113 151q0 -38 26 -60t74 -22q32 0 66 11t63 33t51 55t30 77l2 13h-169q-69 0 -106 -31.5t-37 -75.5zM217 608l-36 55l186 110l148 -110l-50 -55l-110 80zM202 802q11 61 42 92t74 31q22 0 38.5 -8t29 -18t24 -18t24.5 -8
q33 0 42 49h69q-9 -60 -41.5 -91t-74.5 -31q-23 0 -39.5 8t-29 18t-23.5 18t-24 8q-32 0 -41 -50h-70z" />
    <glyph glyph-name="uni1EAD.ss02" horiz-adv-x="601" 
d="M397 96q-15 -22 -38 -41t-51.5 -33.5t-61.5 -23t-69 -8.5q-72 0 -115.5 38t-43.5 105q0 43 19 78.5t53 60t79 38t98 13.5h169q4 20 4 42q0 59 -29.5 90t-88.5 31q-56 0 -98.5 -32t-62.5 -92h-89q14 43 37.5 79.5t57.5 63.5t77 42t96 15q42 0 78 -12t61.5 -35.5t40 -58.5
t14.5 -80q0 -12 -1.5 -26t-3.5 -29l-57 -321h-92zM113 151q0 -38 26 -60t74 -22q32 0 66 11t63 33t51 55t30 77l2 13h-169q-69 0 -106 -31.5t-37 -75.5zM217 608l-36 55l186 110l148 -110l-50 -55l-110 80zM210 -215q-27 0 -44 18.5t-15 45.5t21.5 45.5t46.5 18.5
q26 0 43 -18.5t15 -45.5t-21.5 -45.5t-45.5 -18.5z" />
    <glyph glyph-name="uni1EAF.ss02" horiz-adv-x="601" 
d="M397 96q-15 -22 -38 -41t-51.5 -33.5t-61.5 -23t-69 -8.5q-72 0 -115.5 38t-43.5 105q0 43 19 78.5t53 60t79 38t98 13.5h169q4 20 4 42q0 59 -29.5 90t-88.5 31q-56 0 -98.5 -32t-62.5 -92h-89q14 43 37.5 79.5t57.5 63.5t77 42t96 15q42 0 78 -12t61.5 -35.5t40 -58.5
t14.5 -80q0 -12 -1.5 -26t-3.5 -29l-57 -321h-92zM113 151q0 -38 26 -60t74 -22q32 0 66 11t63 33t51 55t30 77l2 13h-169q-69 0 -106 -31.5t-37 -75.5zM342 608q-35 0 -63 9t-47.5 27t-27.5 44t-2 61h78q-6 -36 13 -54t61 -18q37 0 64 18t33 54h81q-12 -69 -64.5 -105
t-125.5 -36zM531 881l-178 -112l-39 53l176 124z" />
    <glyph glyph-name="uni1EB1.ss02" horiz-adv-x="601" 
d="M397 96q-15 -22 -38 -41t-51.5 -33.5t-61.5 -23t-69 -8.5q-72 0 -115.5 38t-43.5 105q0 43 19 78.5t53 60t79 38t98 13.5h169q4 20 4 42q0 59 -29.5 90t-88.5 31q-56 0 -98.5 -32t-62.5 -92h-89q14 43 37.5 79.5t57.5 63.5t77 42t96 15q42 0 78 -12t61.5 -35.5t40 -58.5
t14.5 -80q0 -12 -1.5 -26t-3.5 -29l-57 -321h-92zM113 151q0 -38 26 -60t74 -22q32 0 66 11t63 33t51 55t30 77l2 13h-169q-69 0 -106 -31.5t-37 -75.5zM342 608q-35 0 -63 9t-47.5 27t-27.5 44t-2 61h78q-6 -36 13 -54t61 -18q37 0 64 18t33 54h81q-12 -69 -64.5 -105
t-125.5 -36zM286 946l150 -122l-45 -55l-156 112z" />
    <glyph glyph-name="uni1EB3.ss02" horiz-adv-x="601" 
d="M397 96q-15 -22 -38 -41t-51.5 -33.5t-61.5 -23t-69 -8.5q-72 0 -115.5 38t-43.5 105q0 43 19 78.5t53 60t79 38t98 13.5h169q4 20 4 42q0 59 -29.5 90t-88.5 31q-56 0 -98.5 -32t-62.5 -92h-89q14 43 37.5 79.5t57.5 63.5t77 42t96 15q42 0 78 -12t61.5 -35.5t40 -58.5
t14.5 -80q0 -12 -1.5 -26t-3.5 -29l-57 -321h-92zM113 151q0 -38 26 -60t74 -22q32 0 66 11t63 33t51 55t30 77l2 13h-169q-69 0 -106 -31.5t-37 -75.5zM342 608q-35 0 -63 9t-47.5 27t-27.5 44t-2 61h78q-6 -36 13 -54t61 -18q37 0 64 18t33 54h81q-12 -69 -64.5 -105
t-125.5 -36zM340 805q32 14 51.5 27t23.5 34q4 20 -9.5 27.5t-34.5 7.5q-23 0 -53 -9l11 60q17 6 32.5 9.5t32.5 3.5q20 0 39 -5t32.5 -15.5t20 -28t2.5 -41.5q-5 -32 -32 -62t-91 -54z" />
    <glyph glyph-name="uni1EB5.ss02" horiz-adv-x="601" 
d="M397 96q-15 -22 -38 -41t-51.5 -33.5t-61.5 -23t-69 -8.5q-72 0 -115.5 38t-43.5 105q0 43 19 78.5t53 60t79 38t98 13.5h169q4 20 4 42q0 59 -29.5 90t-88.5 31q-56 0 -98.5 -32t-62.5 -92h-89q14 43 37.5 79.5t57.5 63.5t77 42t96 15q42 0 78 -12t61.5 -35.5t40 -58.5
t14.5 -80q0 -12 -1.5 -26t-3.5 -29l-57 -321h-92zM113 151q0 -38 26 -60t74 -22q32 0 66 11t63 33t51 55t30 77l2 13h-169q-69 0 -106 -31.5t-37 -75.5zM342 608q-35 0 -63 9t-47.5 27t-27.5 44t-2 61h78q-6 -36 13 -54t61 -18q37 0 64 18t33 54h81q-12 -69 -64.5 -105
t-125.5 -36zM206 791q11 61 42 92t74 31q22 0 38.5 -8t29 -18t24 -18t24.5 -8q33 0 42 49h69q-9 -60 -41.5 -91t-74.5 -31q-23 0 -39.5 8t-29 18t-23.5 18t-24 8q-32 0 -41 -50h-70z" />
    <glyph glyph-name="uni1EB7.ss02" horiz-adv-x="601" 
d="M397 96q-15 -22 -38 -41t-51.5 -33.5t-61.5 -23t-69 -8.5q-72 0 -115.5 38t-43.5 105q0 43 19 78.5t53 60t79 38t98 13.5h169q4 20 4 42q0 59 -29.5 90t-88.5 31q-56 0 -98.5 -32t-62.5 -92h-89q14 43 37.5 79.5t57.5 63.5t77 42t96 15q42 0 78 -12t61.5 -35.5t40 -58.5
t14.5 -80q0 -12 -1.5 -26t-3.5 -29l-57 -321h-92zM113 151q0 -38 26 -60t74 -22q32 0 66 11t63 33t51 55t30 77l2 13h-169q-69 0 -106 -31.5t-37 -75.5zM342 608q-35 0 -63 9t-47.5 27t-27.5 44t-2 61h78q-6 -36 13 -54t61 -18q37 0 64 18t33 54h81q-12 -69 -64.5 -105
t-125.5 -36zM210 -215q-27 0 -44 18.5t-15 45.5t21.5 45.5t46.5 18.5q26 0 43 -18.5t15 -45.5t-21.5 -45.5t-45.5 -18.5z" />
    </font>
</defs>
</svg>
