<?xml version="1.0" standalone="no"?>
<!DOCTYPE svg PUBLIC "-//W3C//DTD SVG 1.1//EN" "http://www.w3.org/Graphics/SVG/1.1/DTD/svg11.dtd" >
<svg xmlns="http://www.w3.org/2000/svg" xmlns:xlink="http://www.w3.org/1999/xlink" version="1.1">
<metadata>
Created by FontForge 20170731 at Wed Feb  9 10:23:22 2022
 By Aleksey,,,
Copyright 2014-2018 Indian Type Foundry. All rights reserved.
</metadata>
<defs>
<font id="SVN-Poppins-BoldItalic" horiz-adv-x="679" >
  <font-face 
    font-family="SVN-Poppins"
    font-weight="700"
    font-style="italic"
    font-stretch="normal"
    units-per-em="1000"
    panose-1="0 0 8 0 0 0 0 0 0 0"
    ascent="800"
    descent="-200"
    x-height="558"
    cap-height="702"
    bbox="-161 -310 1146.28 1135"
    underline-thickness="50"
    underline-position="-150"
    slope="-10"
    unicode-range="U+0020-FB02"
  />
<missing-glyph horiz-adv-x="500" 
d="M0 700h500v-700h-500v700zM420 650h-340l170 -255zM450 95v510l-170 -255zM420 50l-170 255l-170 -255h340zM50 95l170 255l-170 255v-510z" />
    <glyph glyph-name=".notdef" horiz-adv-x="500" 
d="M0 700h500v-700h-500v700zM420 650h-340l170 -255zM450 95v510l-170 -255zM420 50l-170 255l-170 -255h340zM50 95l170 255l-170 255v-510z" />
    <glyph glyph-name=".null" horiz-adv-x="0" 
 />
    <glyph glyph-name="nonmarkingreturn" horiz-adv-x="231" 
 />
    <glyph glyph-name="space" unicode=" " horiz-adv-x="231" 
 />
    <glyph glyph-name="exclam" unicode="!" horiz-adv-x="392" 
d="M180 727h185l-105 -479h-145zM262 84q-7 -38 -39.5 -65t-77.5 -27q-46 0 -69.5 27t-16.5 65q7 40 39.5 67t79.5 27q45 0 68 -27t16 -67z" />
    <glyph glyph-name="quotedbl" unicode="&#x22;" horiz-adv-x="411" 
d="M130 800h141l-51 -221h-115zM320 800h142l-52 -221h-115z" />
    <glyph glyph-name="numbersign" unicode="#" horiz-adv-x="904" 
d="M581 438h-166l-51 -131h166zM470 153h-166l-60 -153h-160l60 153h-148l28 154h180l51 131h-144l27 154h177l58 148h160l-58 -148h166l58 148h160l-58 -148h124l-27 -154h-157l-51 -131h121l-28 -154h-153l-60 -153h-160z" />
    <glyph glyph-name="dollar" unicode="$" horiz-adv-x="658" 
d="M234 -5q-50 4 -90.5 20t-68 42.5t-39.5 64t-5 85.5h182q-6 -62 45 -77l28 158q-38 10 -78.5 23t-72 36t-48 60t-5.5 96q8 47 33.5 84t62.5 63.5t84 42t99 18.5l14 81h63l-14 -81q101 -8 154 -60.5t43 -147.5h-183q4 54 -39 70l-27 -155q38 -11 79 -24t72.5 -36t48 -59.5
t6.5 -94.5q-7 -41 -29.5 -77.5t-58.5 -65t-84.5 -46.5t-108.5 -21l-14 -81h-63zM398 198q5 27 -10 43t-42 27l-25 -141q31 5 51.5 24t25.5 47zM264 511q-5 -27 9 -44t40 -28l24 139q-29 -5 -48.5 -21.5t-24.5 -45.5z" />
    <glyph glyph-name="percent" unicode="%" horiz-adv-x="814" 
d="M75 546q7 41 25.5 72.5t45 52.5t58.5 32t68 11t64.5 -11t47 -32t25.5 -52.5t0 -72.5t-25 -72.5t-44 -52.5t-58 -32t-68 -11t-65 11t-47.5 32t-26 52.5t-0.5 72.5zM254 613q-23 0 -38.5 -16t-21.5 -51t3.5 -51t32.5 -16t39 16t22 51t-4 51t-33 16zM591 704h165l-510 -704
h-165zM429 158q7 41 25 72.5t44.5 52.5t58.5 32t68 11t64.5 -11t47 -32t25 -52.5t-0.5 -72.5t-25 -72.5t-44 -52.5t-58 -32t-68 -11t-64.5 11t-47 32t-26 52.5t0.5 72.5zM607 225q-23 0 -39 -16t-22 -51q-12 -67 37 -67q22 0 38 16t22 51t-4 51t-32 16z" />
    <glyph glyph-name="ampersand" unicode="&#x26;" horiz-adv-x="808" 
d="M445 536q1 4 1 12q0 20 -13 30t-33 10q-27 0 -46 -17.5t-19 -44.5q0 -35 40 -85l141 -167q5 7 9 13.5t9 14.5l48 63h172l-63 -87q-20 -32 -40.5 -60t-42.5 -53l140 -165h-199l-54 63q-109 -74 -245 -74q-110 0 -173.5 48t-63.5 132q0 41 14 77t39 66.5t60 54.5t76 42
q-17 26 -24 48.5t-7 45.5q0 47 18.5 85.5t52 65.5t79.5 42t100 15q47 0 82 -11.5t58.5 -31t35 -46t11.5 -56.5q0 -14 -3 -30h-160zM284 127q67 0 124 37l-129 151q-42 -20 -66.5 -49.5t-24.5 -64.5q0 -32 24.5 -53t71.5 -21z" />
    <glyph glyph-name="quotesingle" unicode="'" horiz-adv-x="221" 
d="M130 800h141l-51 -221h-115z" />
    <glyph glyph-name="parenleft" unicode="(" horiz-adv-x="477" 
d="M206 -209q-60 69 -91 169t-31 219q0 102 22.5 206.5t65 201.5t103.5 181t138 145h169l-3 -16q-74 -63 -134.5 -142.5t-103.5 -169t-66.5 -186t-23.5 -193.5q0 -114 32 -216.5t95 -182.5l-3 -16h-169z" />
    <glyph glyph-name="parenright" unicode=")" horiz-adv-x="477" 
d="M417 515q0 -100 -22 -203t-63 -198.5t-100 -178.5t-133 -144h-169l3 16q73 64 131.5 143t100 167.5t64 183t22.5 188.5q0 116 -33.5 221.5t-102.5 186.5l3 16h169q65 -71 97.5 -174t32.5 -224z" />
    <glyph glyph-name="asterisk" unicode="*" horiz-adv-x="534" 
d="M360 608l118 87l39 -102l-130 -43l116 -42l-79 -106l-85 88l2 -130h-117l46 130l-114 -89l-43 108l130 43l-114 40l75 103l88 -87l-2 132h119z" />
    <glyph glyph-name="plus" unicode="+" horiz-adv-x="628" 
d="M452 605l-31 -178h173l-28 -155h-173l-31 -177h-164l31 177h-173l27 155h174l31 178h164z" />
    <glyph glyph-name="comma" unicode="," horiz-adv-x="290" 
d="M60 162h174l-162 -290h-112z" />
    <glyph glyph-name="hyphen" unicode="-" horiz-adv-x="580" 
d="M76 422h440l-26 -142h-440z" />
    <glyph glyph-name="period" unicode="." horiz-adv-x="282" 
d="M207 84q-7 -38 -39.5 -65t-77.5 -27q-46 0 -69.5 27t-16.5 65q7 40 39.5 67t79.5 27q45 0 68 -27t16 -67z" />
    <glyph glyph-name="slash" unicode="/" horiz-adv-x="453" 
d="M395 950h166l-470 -1137h-165z" />
    <glyph glyph-name="zero" unicode="0" horiz-adv-x="652" 
d="M59 357q13 76 39.5 141t68 112.5t100 74.5t136.5 27t127 -27t74 -74.5t28 -112.5t-11 -141q-14 -75 -40 -140t-68 -112.5t-100.5 -74.5t-136.5 -27t-126.5 27t-73.5 74.5t-28 112.5t11 140zM452 357q7 39 10 75t-3.5 63t-26 43.5t-57.5 16.5t-63.5 -16.5t-42 -43.5
t-26 -63t-16.5 -75t-10 -74.5t3.5 -62.5t26 -43.5t57.5 -16.5t63.5 16.5t42 43.5t26 62.5t16.5 74.5z" />
    <glyph glyph-name="one" unicode="1" horiz-adv-x="376" 
d="M172 548h-99l28 158h277l-125 -706h-178z" />
    <glyph glyph-name="two" unicode="2" horiz-adv-x="571" 
d="M12 134q67 46 132 92t118 90.5t88.5 88t42.5 84.5q8 40 -6.5 61.5t-52.5 21.5q-77 0 -98 -107h-166q14 65 43.5 111.5t69.5 76.5t87.5 44.5t97.5 14.5q62 0 104 -17t66 -45.5t31 -67t0 -80.5q-10 -56 -43 -106t-79 -95t-98.5 -84t-101.5 -72h270l-25 -135h-502z" />
    <glyph glyph-name="three" unicode="3" horiz-adv-x="605" 
d="M93 499q23 103 99.5 158t188.5 55q58 0 99.5 -15t66.5 -40.5t34 -60t2 -73.5q-6 -34 -21 -60.5t-34.5 -45.5t-41.5 -31.5t-42 -18.5v-4q51 -17 77.5 -58t13.5 -109q-8 -44 -31 -81t-58.5 -64t-83 -42t-104.5 -15t-103 13t-76 41t-43 70.5t-4 101.5h166q-7 -42 11.5 -66.5
t66.5 -24.5q40 0 65.5 22t31.5 57q8 46 -19 66.5t-93 20.5h-32l25 132h32q21 0 42 3t38.5 11.5t30 23.5t17.5 38q6 35 -10.5 54t-51.5 19q-41 0 -63 -24t-30 -53h-166v0z" />
    <glyph glyph-name="four" unicode="4" horiz-adv-x="677" 
d="M358 127h-336l24 136l395 443h192l-78 -433h82l-26 -146h-82l-23 -127h-172zM396 273l45 249l-213 -249h168z" />
    <glyph glyph-name="five" unicode="5" horiz-adv-x="650" 
d="M637 706l-26 -145h-312l-24 -133q23 21 60.5 34.5t81.5 13.5q60 0 98 -20t58.5 -52.5t25 -74t-3.5 -84.5q-10 -56 -35 -101t-63 -77t-88 -49.5t-111 -17.5q-62 0 -107 15.5t-73.5 43.5t-40 66.5t-5.5 84.5h166q1 -28 19.5 -49t60.5 -21q49 0 76.5 30t36.5 76
q17 98 -77 98q-36 0 -60 -16.5t-35 -41.5h-165l76 420h467z" />
    <glyph glyph-name="six" unicode="6" horiz-adv-x="637" 
d="M449 509q-2 35 -18 53t-54 18q-58 0 -91.5 -48t-53.5 -149q29 34 74 53t95 19q48 0 85 -15t60.5 -43.5t31.5 -70t-2 -95.5q-9 -53 -34 -96t-62.5 -74t-87 -48t-108.5 -17q-82 0 -130 26.5t-70 74t-22 113.5t15 144q33 179 112 268.5t220 89.5q59 0 99 -17t63.5 -45.5
t32 -65t4.5 -75.5h-159zM336 326q-20 0 -39 -6t-35 -17.5t-27.5 -29t-15.5 -41.5q-8 -47 13.5 -72.5t70.5 -25.5q45 0 75 25t38 71q8 44 -12 70t-68 26z" />
    <glyph glyph-name="seven" unicode="7" horiz-adv-x="535" 
d="M588 706l-22 -123l-366 -583h-179l369 564h-310l26 142h482z" />
    <glyph glyph-name="eight" unicode="8" horiz-adv-x="648" 
d="M184 375q-38 21 -57 57t-9 91q7 35 28.5 69t57.5 60.5t86.5 43t115.5 16.5q64 0 108.5 -16.5t71 -43t35.5 -60.5t2 -69q-10 -54 -43 -91t-78 -57q48 -25 69 -67.5t10 -104.5q-10 -52 -38.5 -92.5t-70.5 -68t-94 -42t-108 -14.5t-102.5 14.5t-77.5 42t-44.5 68t-3.5 92.5
q11 62 48 104.5t94 67.5zM381 580q-38 0 -65.5 -21.5t-34.5 -61.5q-8 -38 12.5 -59t57.5 -21q38 0 66 21t35 59q8 40 -12 61.5t-59 21.5zM330 305q-46 0 -80 -24t-42 -69q-8 -42 14.5 -68t72.5 -26t82 26.5t39 67.5q8 45 -16 69t-70 24z" />
    <glyph glyph-name="nine" unicode="9" horiz-adv-x="615" 
d="M216 204q2 -36 20 -55.5t58 -19.5q54 0 84 45.5t48 145.5q-26 -29 -67.5 -45.5t-88.5 -16.5t-85 14t-62.5 41.5t-33.5 69t1 96.5q10 53 35 96t63 73.5t87 47t108 16.5q78 0 125 -24.5t69 -69.5t22.5 -109t-13.5 -143q-17 -89 -41.5 -157.5t-62 -115.5t-90.5 -71.5
t-125 -24.5q-61 0 -103 17.5t-67 46t-34.5 66t-5.5 77.5h159zM332 387q43 0 72 24t37 67q9 47 -12 71t-66 24t-74.5 -25t-37.5 -69q-8 -40 11.5 -66t69.5 -26z" />
    <glyph glyph-name="colon" unicode=":" horiz-adv-x="284" 
d="M207 84q-7 -38 -39.5 -65t-77.5 -27q-46 0 -69.5 27t-16.5 65q7 40 39.5 67t79.5 27q45 0 68 -27t16 -67zM207 491q-7 -38 -39.5 -65t-77.5 -27q-46 0 -69.5 27t-16.5 65q7 40 39.5 67t79.5 27q45 0 68 -27t16 -67z" />
    <glyph glyph-name="semicolon" unicode=";" horiz-adv-x="347" 
d="M305 483q-7 -38 -39.5 -65t-77.5 -27q-46 0 -69.5 27t-16.5 65q7 40 39.5 67t79.5 27q45 0 68 -27t16 -67zM69 162h174l-162 -290h-112z" />
    <glyph glyph-name="less" unicode="&#x3c;" horiz-adv-x="551" 
d="M447 129h-215l-164 221l242 221h215l-243 -221z" />
    <glyph glyph-name="equal" unicode="=" horiz-adv-x="696" 
d="M70 299h560l-27 -154h-560zM115 554h561l-28 -154h-561z" />
    <glyph glyph-name="greater" unicode="&#x3e;" horiz-adv-x="541" 
d="M278 350l-165 221h215l164 -221l-242 -221h-215z" />
    <glyph glyph-name="question" unicode="?" horiz-adv-x="538" 
d="M70 525q7 45 29 84.5t57.5 68.5t83.5 46t108 17q52 0 92.5 -14t67 -41t37 -67t1.5 -92q-9 -48 -32 -85.5t-57.5 -62.5t-78 -38.5t-92.5 -13.5l-18 -75h-150l27 186h60q35 0 65 4t53 14t37.5 27.5t19.5 44.5q5 34 -11 53.5t-49 19.5q-37 0 -60 -20.5t-29 -55.5h-161z
M266 84q-7 -38 -39.5 -65t-77.5 -27q-46 0 -69.5 27t-16.5 65q7 40 39.5 67t79.5 27q45 0 68 -27t16 -67z" />
    <glyph glyph-name="at" unicode="@" horiz-adv-x="1072" 
d="M745 -5q-54 0 -87.5 21t-46.5 59q-27 -39 -70.5 -60.5t-96.5 -21.5q-75 0 -117 44t-42 122q0 55 17 105.5t47.5 89.5t73 62t94.5 23q43 0 71.5 -15.5t42.5 -44.5l9 53h138l-45 -251q-5 -35 1 -55.5t36 -20.5q26 0 44.5 18.5t30.5 47.5t18 65.5t6 71.5q0 57 -18.5 102.5
t-54 77t-87 48.5t-116.5 17q-86 0 -159 -31.5t-126.5 -86.5t-84 -129.5t-30.5 -159.5q0 -121 70.5 -188t198.5 -67q48 0 93 9.5t83 26.5l28 -109q-50 -22 -105 -32.5t-115 -10.5q-87 0 -157 25.5t-120 72t-77 112.5t-27 148q0 115 41 213t114 169.5t173 112t217 40.5
q90 0 161.5 -26t122 -73t77.5 -112t27 -144q0 -63 -16.5 -120.5t-48.5 -101.5t-79.5 -70t-108.5 -26zM605 240q0 34 -18 55.5t-52 21.5q-23 0 -42 -10.5t-32.5 -28t-21 -41t-7.5 -48.5q0 -32 17 -52.5t50 -20.5q22 0 41 10t33.5 26.5t23 39t8.5 48.5z" />
    <glyph glyph-name="A" unicode="A" horiz-adv-x="737" 
d="M470 124h-262l-64 -124h-179l378 702h198l130 -702h-181zM409 514l-134 -260h175z" />
    <glyph glyph-name="B" unicode="B" horiz-adv-x="659" 
d="M435 214q8 38 -13 59t-64 21h-124l-28 -158h126q89 0 103 78zM468 491q12 76 -74 76h-112l-26 -150h111q43 0 69 19t32 55zM605 191q-15 -88 -85 -139.5t-182 -51.5h-327l124 702h316q108 0 159.5 -49t36.5 -133q-11 -64 -52 -104.5t-95 -55.5q29 -6 51 -22t36 -38.5
t18.5 -50.5t-0.5 -58z" />
    <glyph glyph-name="C" unicode="C" horiz-adv-x="762" 
d="M45 352q14 79 51.5 144.5t92.5 113t124 74t147 26.5q63 0 114 -17t88.5 -49t60 -77.5t27.5 -102.5h-188q-14 44 -48 66t-84 22q-39 0 -74 -14t-63 -40t-47 -63t-27 -83t-2 -83t25 -63.5t49 -40.5t69 -14q49 0 91.5 22.5t71.5 66.5h188q-25 -57 -63.5 -102.5t-87.5 -77
t-106 -48.5t-120 -17q-78 0 -138 26t-98 73.5t-52.5 113t-0.5 144.5z" />
    <glyph glyph-name="D" unicode="D" horiz-adv-x="727" 
d="M398 702q84 0 147.5 -25.5t103.5 -71.5t54.5 -111t0.5 -143t-51.5 -142.5t-93.5 -111t-128.5 -72t-156.5 -25.5h-263l124 702h263zM289 146q97 0 160.5 54t80.5 151t-27 151t-141 54h-82l-72 -410h81z" />
    <glyph glyph-name="E" unicode="E" horiz-adv-x="541" 
d="M541 567h-259l-25 -146h229l-23 -129h-229l-28 -157h259l-24 -135h-430l124 702h430z" />
    <glyph glyph-name="F" unicode="F" horiz-adv-x="547" 
d="M135 702h457l-24 -135h-286l-26 -151h214l-24 -130h-214l-50 -286h-171z" />
    <glyph glyph-name="G" unicode="G" horiz-adv-x="762" 
d="M45 352q14 79 51.5 144.5t93 113t125.5 74t149 26.5q127 0 202.5 -60.5t83.5 -169.5h-188q-28 72 -125 72q-42 0 -78 -14t-64.5 -40t-48 -63t-27.5 -83q-17 -98 25 -152t135 -54q65 0 114 32.5t78 92.5h-216l21 125h372l-28 -159q-22 -45 -58 -88.5t-85 -77.5t-109 -55
t-129 -21q-79 0 -140 26t-100 73.5t-53.5 113t-0.5 144.5z" />
    <glyph glyph-name="H" unicode="H" horiz-adv-x="731" 
d="M499 291h-266l-51 -291h-171l124 702h171l-49 -276h266l49 276h171l-124 -702h-171z" />
    <glyph glyph-name="I" unicode="I" horiz-adv-x="295" 
d="M135 702h171l-124 -702h-171z" />
    <glyph glyph-name="J" unicode="J" horiz-adv-x="578" 
d="M404 702h171l-84 -478q-10 -57 -34.5 -100t-59.5 -72t-80.5 -44t-97.5 -15q-54 0 -96.5 15.5t-69.5 46t-37 76t1 104.5h170q-8 -45 6.5 -67t47.5 -22q64 0 79 78z" />
    <glyph glyph-name="K" unicode="K" horiz-adv-x="697" 
d="M237 310l-55 -310h-171l124 702h171l-54 -308l289 308h200l-333 -344l219 -358h-209z" />
    <glyph glyph-name="L" unicode="L" horiz-adv-x="477" 
d="M306 702l-101 -572h224l-23 -130h-395l124 702h171z" />
    <glyph glyph-name="M" unicode="M" horiz-adv-x="918" 
d="M135 702h202l112 -486l280 486h201l-124 -702h-171l75 421l-232 -421h-138l-84 423l-74 -423h-171z" />
    <glyph glyph-name="N" unicode="N" horiz-adv-x="752" 
d="M763 702l-124 -702h-171l-209 433l-77 -433h-171l124 702h171l209 -435l77 435h171z" />
    <glyph glyph-name="O" unicode="O" horiz-adv-x="786" 
d="M762 420q0 -93 -30.5 -171.5t-85.5 -135.5t-132 -88.5t-169 -31.5q-68 0 -123 21.5t-94 60.5t-60 93t-21 120q0 93 30.5 171t85.5 134.5t131.5 87.5t167.5 31q69 0 124.5 -21t94.5 -59.5t60 -92.5t21 -119zM218 306q0 -72 39 -113.5t114 -41.5q51 0 92 20.5t69.5 55
t44 79.5t15.5 95q0 72 -39.5 113t-112.5 41q-51 0 -92.5 -20t-70 -54t-44 -79.5t-15.5 -95.5z" />
    <glyph glyph-name="P" unicode="P" horiz-adv-x="624" 
d="M343 386q52 0 78.5 24.5t34.5 65.5t-11 65.5t-70 24.5h-93l-31 -180h92zM630 476q-8 -44 -30 -84t-59 -71.5t-89 -50t-119 -18.5h-106l-45 -252h-171l124 702h277q64 0 109.5 -17t72.5 -47.5t36 -72t0 -89.5z" />
    <glyph glyph-name="Q" unicode="Q" horiz-adv-x="788" 
d="M218 306q0 -72 39 -113.5t114 -41.5q51 0 92 20.5t69.5 55t44 79.5t15.5 95q0 72 -39.5 113t-112.5 41q-51 0 -92.5 -20t-70 -54t-44 -79.5t-15.5 -95.5zM762 420q0 -119 -48.5 -212.5t-133.5 -148.5l117 -179h-207l-67 119q-38 -6 -78 -6q-68 0 -123 21.5t-94 60.5
t-60 93t-21 120q0 93 30.5 171t85.5 134.5t131.5 87.5t167.5 31q69 0 124.5 -21t94.5 -59.5t60 -92.5t21 -119z" />
    <glyph glyph-name="R" unicode="R" horiz-adv-x="652" 
d="M466 474q8 40 -11.5 64t-67.5 24h-106l-31 -176h106q48 0 75 23t35 65zM422 702q64 0 109.5 -17.5t72.5 -47.5t36 -70t1 -86q-6 -33 -20.5 -64.5t-38.5 -58t-57 -47.5t-76 -33l113 -278h-193l-99 265h-41l-47 -265h-171l124 702h287z" />
    <glyph glyph-name="S" unicode="S" horiz-adv-x="622" 
d="M563 208q0 -47 -19 -86t-54 -68t-86 -45t-114 -16q-59 0 -108.5 14t-84 41t-51.5 67.5t-11 94.5h178q-3 -37 17.5 -59.5t64.5 -22.5q38 0 61 16.5t23 48.5q0 28 -22 46.5t-55.5 34t-72.5 31t-72.5 39t-56.5 57.5t-23 86q-1 53 19.5 95t57 71t86.5 44t110 15
q58 0 105 -14.5t80 -41.5t49 -66t11 -88h-182q5 33 -14.5 54t-57.5 21q-36 0 -58.5 -17.5t-22.5 -47.5q0 -27 22.5 -45.5t56 -35t73 -34t73 -42.5t56 -60t22.5 -87z" />
    <glyph glyph-name="T" unicode="T" horiz-adv-x="591" 
d="M97 702h543l-23 -135h-187l-100 -567h-171l100 567h-186z" />
    <glyph glyph-name="U" unicode="U" horiz-adv-x="705" 
d="M132 702h171l-74 -419q-11 -63 13.5 -97t85.5 -34t98.5 34t48.5 97l74 419h171l-74 -419q-13 -74 -46 -128.5t-79.5 -90.5t-103.5 -53.5t-119 -17.5q-61 0 -110.5 18t-82.5 54t-46 90.5t0 127.5z" />
    <glyph glyph-name="V" unicode="V" horiz-adv-x="730" 
d="M82 702h182l81 -530l267 530h182l-373 -702h-214z" />
    <glyph glyph-name="W" unicode="W" horiz-adv-x="1052" 
d="M98 702h183l11 -511l215 511h189l30 -508l191 508h184l-307 -702h-207l-31 461l-197 -461h-207z" />
    <glyph glyph-name="X" unicode="X" horiz-adv-x="715" 
d="M336 215l-164 -215h-194l288 357l-169 345h199l104 -212l161 212h194l-286 -354l171 -348h-199z" />
    <glyph glyph-name="Y" unicode="Y" horiz-adv-x="671" 
d="M80 702h194l84 -293l187 293h192l-325 -470l-42 -232h-171l42 232z" />
    <glyph glyph-name="Z" unicode="Z" horiz-adv-x="596" 
d="M596 572l-378 -432h302l-25 -140h-496l23 130l376 432h-300l25 140h496z" />
    <glyph glyph-name="bracketleft" unicode="[" horiz-adv-x="510" 
d="M231 918h300l-24 -138h-140l-149 -845h140l-25 -139h-300z" />
    <glyph glyph-name="backslash" unicode="\" horiz-adv-x="564" 
d="M405 -187h-165l-48 1137h165z" />
    <glyph glyph-name="bracketright" unicode="]" horiz-adv-x="510" 
d="M502 913l-198 -1122h-300l24 139h140l149 845h-139l24 138h300z" />
    <glyph glyph-name="asciicircum" unicode="^" horiz-adv-x="709" 
d="M394 506l-213 -341h-172l337 539h166l146 -539h-173z" />
    <glyph glyph-name="underscore" unicode="_" horiz-adv-x="780" 
d="M27 -41h620l-28 -164h-620z" />
    <glyph glyph-name="grave" unicode="`" horiz-adv-x="291" 
d="M106 830l221 -116l-22 -118l-222 101z" />
    <glyph glyph-name="a" unicode="a" 
d="M27 280q12 66 40 119t68 90t88.5 57t99.5 20q63 0 101.5 -25t55.5 -62l14 79h171l-99 -558h-171l15 79q-30 -37 -78 -62t-111 -25q-51 0 -92 20t-67.5 57.5t-36.5 91t2 119.5zM445 279q6 33 0.5 59t-19 43.5t-34.5 26.5t-45 9t-47.5 -9t-43.5 -26t-34.5 -43t-20.5 -59
t-0.5 -59t19 -44t34 -27t44.5 -9t48 9t44 26.5t34.5 43.5t20.5 59z" />
    <glyph glyph-name="b" unicode="b" 
d="M266 479q31 38 79.5 62.5t108.5 24.5q52 0 93 -20t67.5 -57t36.5 -90t-2 -119t-40.5 -119.5t-68 -91t-88 -57.5t-99.5 -20q-62 0 -101 24.5t-56 61.5l-14 -78h-171l131 740h171zM476 280q6 33 0 59t-19.5 43t-34 26t-44.5 9t-48 -9t-44 -26.5t-34.5 -43.5t-20.5 -59
t-0.5 -59t19 -43.5t34 -26.5t44.5 -9t48 9t44.5 27t35 44t20.5 59z" />
    <glyph glyph-name="c" unicode="c" horiz-adv-x="605" 
d="M27 279q12 66 42 119t73.5 90.5t98 57.5t116.5 20q106 0 166 -55t65 -155h-182q-5 29 -24 46.5t-54 17.5q-46 0 -80.5 -35.5t-46.5 -105.5q-13 -70 9.5 -105.5t68.5 -35.5q35 0 59 16.5t40 47.5h183q-20 -48 -50 -87t-69.5 -66.5t-86.5 -42t-99 -14.5q-62 0 -109.5 20
t-78.5 57t-42 90.5t1 119.5z" />
    <glyph glyph-name="d" unicode="d" 
d="M27 280q12 66 40 119t68 90t88.5 57t99.5 20q56 0 97 -23.5t60 -61.5l46 259h171l-131 -740h-171l14 80q-30 -38 -77.5 -63t-109.5 -25q-51 0 -92.5 20t-68 57.5t-36.5 91t2 119.5zM445 279q6 33 0.5 59t-19 43.5t-34.5 26.5t-45 9t-47.5 -9t-43.5 -26t-34.5 -43
t-20.5 -59t-0.5 -59t19 -44t34 -27t44.5 -9t48 9t44 26.5t34.5 43.5t20.5 59z" />
    <glyph glyph-name="e" unicode="e" horiz-adv-x="616" 
d="M332 429q-43 0 -77 -26t-49 -76h215q4 25 -1.5 44t-17.5 32t-30 19.5t-40 6.5zM557 185q-18 -41 -47 -76t-68 -61t-85.5 -41t-98.5 -15q-62 0 -110 20t-79 57t-42.5 90.5t0.5 119.5t42 119.5t73.5 90.5t99 57t117.5 20q61 0 109 -19.5t78.5 -55.5t42 -87.5t0.5 -114.5
q-4 -23 -12 -49h-387q-6 -56 19.5 -82.5t67.5 -26.5q36 0 60 15.5t38 38.5h182z" />
    <glyph glyph-name="f" unicode="f" horiz-adv-x="360" 
d="M101 416h-62l25 142h62l3 16q20 110 95 163t202 46l-25 -145q-49 3 -72 -14t-30 -61l-1 -5h92l-25 -142h-92l-73 -416h-172z" />
    <glyph glyph-name="g" unicode="g" 
d="M27 280q12 66 40 119t68 90t88.5 57t99.5 20q62 0 101.5 -24.5t55.5 -62.5l14 79h171l-98 -557q-10 -56 -35.5 -106t-66.5 -88t-97.5 -60t-128.5 -22q-63 0 -111 15t-80.5 43.5t-47.5 68.5t-12 90h169q3 -32 29 -50.5t71 -18.5q24 0 46.5 7t41 22t32 39.5t19.5 59.5
l14 79q-30 -37 -78 -62.5t-110 -25.5q-51 0 -92.5 20t-68 57.5t-36.5 91t2 119.5zM445 279q6 33 0.5 59t-19 43.5t-34.5 26.5t-45 9t-47.5 -9t-43.5 -26t-34.5 -43t-20.5 -59t-0.5 -59t19 -44t34 -27t44.5 -9t48 9t44 26.5t34.5 43.5t20.5 59z" />
    <glyph glyph-name="h" unicode="h" horiz-adv-x="674" 
d="M142 740h171l-45 -256q32 35 79.5 57.5t105.5 22.5q96 0 143.5 -62.5t27.5 -175.5l-58 -326h-170l54 303q10 57 -14 87.5t-72 30.5q-50 0 -84 -30.5t-44 -87.5v2l-54 -305h-171z" />
    <glyph glyph-name="i" unicode="i" horiz-adv-x="295" 
d="M109 558h171l-98 -558h-171zM213 631q-45 0 -69 27t-19 65q5 39 35 66t75 27q44 0 68.5 -27t20.5 -66q-3 -19 -12 -36t-24 -29.5t-34 -19.5t-41 -7z" />
    <glyph glyph-name="j" unicode="j" horiz-adv-x="294" 
d="M280 558l-111 -630q-9 -54 -30 -91.5t-51 -60t-68.5 -32.5t-81.5 -10h-67l26 145h41q29 0 42 11t18 36l111 632h171zM213 631q-45 0 -69 27t-19 65q5 39 35 66t75 27q44 0 68.5 -27t20.5 -66q-3 -19 -12 -36t-24 -29.5t-34 -19.5t-41 -7z" />
    <glyph glyph-name="k" unicode="k" horiz-adv-x="618" 
d="M142 740h171l-72 -408l208 226h211l-281 -280l185 -278h-212l-129 233l-41 -233h-171z" />
    <glyph glyph-name="l" unicode="l" horiz-adv-x="295" 
d="M142 740h171l-131 -740h-171z" />
    <glyph glyph-name="m" unicode="m" horiz-adv-x="1059" 
d="M834 303q9 55 -14.5 84t-72.5 29t-83.5 -29t-43.5 -84l-54 -303h-170l54 303q9 55 -14.5 84t-72.5 29t-83.5 -29t-43.5 -84v5l-54 -308h-171l98 558h171l-12 -71q31 35 76.5 56t99.5 21q64 0 108.5 -27t63.5 -78q18 22 41 41.5t49.5 33.5t56 22t60.5 8q104 0 154.5 -62.5
t30.5 -175.5l-58 -326h-170z" />
    <glyph glyph-name="n" unicode="n" horiz-adv-x="674" 
d="M450 303q10 57 -14 87.5t-72 30.5q-50 0 -84 -30.5t-44 -87.5v5l-54 -308h-171l98 558h171l-13 -75q32 36 79 58.5t104 22.5q98 0 146 -62.5t28 -175.5l-58 -326h-170z" />
    <glyph glyph-name="o" unicode="o" horiz-adv-x="637" 
d="M613 331q0 -73 -26.5 -135t-73.5 -107.5t-110.5 -71t-136.5 -25.5q-55 0 -100 16.5t-77.5 47.5t-50 74t-17.5 96q0 72 26 134.5t72 108t109.5 71.5t137.5 26q55 0 100.5 -17t78 -47.5t50.5 -74t18 -96.5zM197 241q0 -51 26.5 -76.5t66.5 -25.5q33 0 60 15.5t46 40
t29.5 56t10.5 64.5q0 53 -28 78.5t-67 25.5q-33 0 -60 -15.5t-45.5 -40.5t-28.5 -57t-10 -65z" />
    <glyph glyph-name="p" unicode="p" 
d="M266 479q30 37 78 62t110 25q51 0 92.5 -20t68 -57t36.5 -90t-2 -119t-40.5 -119.5t-68 -91t-88 -57.5t-99.5 -20q-62 0 -101 25.5t-56 60.5l-61 -344h-171l145 824h171zM476 280q6 33 0 59t-19.5 43t-34 26t-44.5 9t-48 -9t-44 -26.5t-34.5 -43.5t-20.5 -59t-0.5 -59
t19 -43.5t34 -26.5t44.5 -9t48 9t44.5 27t35 44t20.5 59z" />
    <glyph glyph-name="q" unicode="q" 
d="M26 278q11 64 40.5 116.5t71 90t91.5 58.5t102 21q56 0 93.5 -19t58.5 -51l11 64h171l-145 -824h-171l59 336q-33 -33 -78 -55t-101 -22q-51 0 -93.5 20.5t-70.5 58t-39 90t0 116.5zM445 279q6 35 0 61t-20.5 43t-35 25t-42.5 8q-21 0 -44.5 -8.5t-44 -25.5t-36.5 -43
t-22 -61t0.5 -61t21 -43t35 -25t41.5 -8q22 0 45 8.5t43.5 25.5t36.5 43t22 61z" />
    <glyph glyph-name="r" unicode="r" horiz-adv-x="428" 
d="M182 0h-171l98 558h171l-18 -101q38 48 88 77.5t107 29.5l-32 -181h-47q-61 0 -99 -26t-51 -98z" />
    <glyph glyph-name="s" unicode="s" horiz-adv-x="558" 
d="M493 165q0 -41 -19 -73.5t-52.5 -54.5t-79 -33.5t-99.5 -11.5t-99 14t-76 39t-46 60.5t-8 77.5h165q-2 -32 18.5 -50t58.5 -18q30 0 52 11.5t22 34.5q0 20 -20.5 32.5t-51 23t-66.5 22.5t-66.5 31.5t-51 48.5t-20.5 75q0 37 16.5 68.5t47 54.5t73 36t95.5 13
q55 0 98.5 -14.5t73 -40t43.5 -60.5t11 -75h-155q2 30 -17.5 48t-57.5 18q-29 0 -47.5 -12t-18.5 -33t20.5 -34t51.5 -24.5t66.5 -24t66.5 -31.5t51.5 -47t20.5 -71z" />
    <glyph glyph-name="t" unicode="t" horiz-adv-x="406" 
d="M112 416h-68l25 142h68l24 136h171l-24 -136h112l-25 -142h-112l-40 -224q-4 -25 5.5 -36t38.5 -11h61l-26 -145h-87q-44 0 -78 10t-56 32.5t-30 60t1 91.5z" />
    <glyph glyph-name="u" unicode="u" horiz-adv-x="674" 
d="M562 0h-171l13 76q-32 -36 -78.5 -59t-103.5 -23q-49 0 -86 16t-60 47t-31 75t2 100l58 326h170l-53 -303q-11 -57 13 -87.5t73 -30.5q48 0 81.5 28.5t44.5 82.5l55 310h171z" />
    <glyph glyph-name="v" unicode="v" horiz-adv-x="626" 
d="M239 558l51 -398l192 398h183l-297 -558h-212l-99 558h182z" />
    <glyph glyph-name="w" unicode="w" horiz-adv-x="866" 
d="M52 558h171l8 -399l165 399h181l25 -399l148 399h161l-250 -558h-189l-24 362l-155 -362h-188z" />
    <glyph glyph-name="x" unicode="x" horiz-adv-x="588" 
d="M261 154l-117 -154h-185l234 285l-141 273h192l80 -155l117 155h185l-236 -282l143 -276h-192z" />
    <glyph glyph-name="y" unicode="y" horiz-adv-x="632" 
d="M47 558h190l68 -349l190 349h185l-495 -823h-184l178 284z" />
    <glyph glyph-name="z" unicode="z" horiz-adv-x="496" 
d="M482 422l-286 -281h243l-26 -141h-433l25 136l281 281h-230l25 141h425z" />
    <glyph glyph-name="braceleft" unicode="{" horiz-adv-x="499" 
d="M176 224q0 28 -19.5 43t-64.5 17l24 136q51 2 77 22t32 55q4 24 6.5 53.5t4 61.5t3.5 63.5t7 58.5q7 43 27 77t49 56.5t66 34.5t80 12h72l-25 -140h-38q-62 0 -72 -57q-3 -20 -5.5 -48.5t-4.5 -59t-5 -62t-8 -57.5q-9 -54 -40.5 -90t-88.5 -47l-1 -2q45 -9 65 -33.5
t20 -61.5q0 -25 -9.5 -67t-21 -85.5t-21 -81.5t-9.5 -54q0 -18 12.5 -28.5t39.5 -10.5h39l-25 -140h-72q-75 0 -119 36t-44 105q0 29 11 72t23.5 86.5t23.5 80.5t11 55z" />
    <glyph glyph-name="bar" unicode="|" horiz-adv-x="291" 
d="M324 815l-166 -944h-171l166 944h171z" />
    <glyph glyph-name="braceright" unicode="}" horiz-adv-x="499" 
d="M409 284q-51 -2 -77 -23t-32 -54q-4 -23 -6 -52.5t-3.5 -61t-4 -63.5t-7.5 -60q-8 -44 -27.5 -77.5t-48.5 -56.5t-66.5 -35t-79.5 -12h-72l25 140h38q32 0 49 14.5t22 43.5q4 20 6 48t4.5 59l5 62t7.5 57q10 54 41.5 90.5t88.5 47.5l1 2q-54 11 -73 47t-10 90
q5 26 13 57.5t17 62t16.5 59t10.5 48.5q5 29 -6.5 43t-43.5 14h-39l25 140h72q42 0 75.5 -12t54.5 -34.5t29 -56.5t0 -77q-5 -29 -14 -60.5t-18.5 -63t-18 -61t-12.5 -52.5q-6 -35 12.5 -55t69.5 -22z" />
    <glyph glyph-name="asciitilde" unicode="~" horiz-adv-x="636" 
d="M13 208q40 116 101.5 166.5t136.5 50.5q33 0 57 -10.5t44.5 -22.5t39 -22.5t40.5 -10.5q26 0 44.5 15.5t29.5 50.5h127q-19 -58 -44.5 -99t-56.5 -67.5t-65.5 -38.5t-71.5 -12q-33 0 -57 10.5t-44.5 22.5t-39 22.5t-40.5 10.5q-53 0 -75 -66h-126v0z" />
    <glyph glyph-name="uni00A0" unicode="&#xa0;" horiz-adv-x="231" 
 />
    <glyph glyph-name="exclamdown" unicode="&#xa1;" horiz-adv-x="411" 
d="M219 -163h-185l105 479h145zM137 480q7 38 39.5 65t77.5 27q46 0 69.5 -27t16.5 -65q-7 -40 -39.5 -67t-79.5 -27q-45 0 -68 27t-16 67z" />
    <glyph glyph-name="cent" unicode="&#xa2;" horiz-adv-x="631" 
d="M545 190q-11 -42 -35 -76t-57.5 -59t-74 -40t-85.5 -19l-14 -81h-64l14 81q-112 10 -162 79t-31 181q20 112 94.5 181t190.5 79l14 81h64l-14 -81q43 -4 78 -19t60 -40t37 -59t8 -76h-157q-9 57 -80 57q-52 0 -86.5 -32.5t-45.5 -90.5t12.5 -90.5t75.5 -32.5
q35 0 61.5 15t38.5 42h158v0z" />
    <glyph glyph-name="sterling" unicode="&#xa3;" horiz-adv-x="663" 
d="M140 527q9 52 34.5 93t62.5 69t84 43t100 15q60 0 102 -17.5t66.5 -48.5t33 -72t2.5 -89h-156q2 19 0 35t-10 27.5t-22.5 18t-36.5 6.5q-38 0 -65 -23.5t-35 -73.5q-5 -26 -3 -53t6 -55h181l-20 -115h-157v-3q-6 -34 -28 -77t-66 -77h347l-23 -134h-510l-9 84
q53 40 83.5 87t43.5 118v2h-108l20 115h80q-3 27 -3 58t6 67z" />
    <glyph glyph-name="currency" unicode="&#xa4;" horiz-adv-x="577" 
d="M381 377q8 44 -11.5 64t-49.5 20q-29 0 -55.5 -20t-34.5 -64q-8 -43 11.5 -62.5t48.5 -19.5q15 0 29.5 5t27 15t21.5 25.5t13 36.5zM374 214q-47 -18 -102 -18t-95 18l-75 -64l-54 67l64 55q-25 44 -14 106q12 65 53 107l-46 56l78 67l55 -67q46 17 99 17q50 0 93 -16
l78 66l54 -67l-64 -55q13 -21 17.5 -48.5t-1.5 -59.5q-10 -62 -54 -107l45 -54l-78 -67z" />
    <glyph glyph-name="yen" unicode="&#xa5;" horiz-adv-x="671" 
d="M394 134l-24 -134h-171l24 134h-200l20 114h193l-21 61l-161 1l20 115h101l-95 277h194l81 -311l190 311h192l-192 -277h100l-20 -115l-160 -1l-42 -61h191l-20 -114h-200z" />
    <glyph glyph-name="brokenbar" unicode="&#xa6;" horiz-adv-x="381" 
d="M275 281l-73 -410h-171l73 410h171zM125 405l73 410h171l-72 -410h-172z" />
    <glyph glyph-name="section" unicode="&#xa7;" horiz-adv-x="587" 
d="M109 533q7 38 28 71t55 57t79.5 37.5t100.5 13.5q102 0 152 -51.5t39 -137.5h-169q4 36 -8 52.5t-38 16.5t-43 -11.5t-22 -37.5q-3 -15 2 -28t20.5 -25.5t42.5 -27t68 -33.5q72 -34 108.5 -78t24.5 -107q-8 -48 -38.5 -85.5t-93.5 -64.5q60 -58 45 -139q-7 -38 -28 -71
t-54.5 -57t-79 -37.5t-100.5 -13.5q-102 0 -152 51.5t-39 137.5h169q-4 -36 8 -52.5t38 -16.5t43 11.5t21 37.5q3 15 -2 27.5t-20.5 25.5t-42.5 27.5t-67 33.5q-73 34 -109 78t-25 107q9 48 40 87.5t94 62.5q-61 58 -47 139zM369 244q7 32 -11 55t-57 23q-40 0 -66 -23
t-32 -55q-5 -32 13 -55t57 -23t65 23t31 55z" />
    <glyph glyph-name="dieresis" unicode="&#xa8;" horiz-adv-x="367" 
d="M142 620q-27 0 -44.5 17t-17.5 43q0 18 7.5 34t19.5 27.5t28 18.5t33 7q28 0 45 -17t17 -43q0 -18 -7.5 -34t-19.5 -27.5t-28 -18.5t-33 -7zM342 620q-27 0 -44.5 17t-17.5 43q0 18 7.5 34t19.5 27.5t28 18.5t33 7q28 0 45 -17t17 -43q0 -18 -7.5 -34t-19.5 -27.5
t-28 -18.5t-33 -7z" />
    <glyph glyph-name="copyright" unicode="&#xa9;" horiz-adv-x="779" 
d="M465 712q78 0 138.5 -26.5t98.5 -74t52 -113.5t0 -145t-51.5 -145t-92 -114t-124.5 -74.5t-148 -26.5t-138.5 26.5t-98.5 74.5t-52 114t0 145t51.5 145t92.5 113.5t124.5 74t147.5 26.5zM456 657q-68 0 -126 -21.5t-103 -61t-75 -96t-42 -125.5t-1.5 -125t41 -96
t80.5 -62t118 -22q67 0 125 22t103 62t75 96t42 125t2 125.5t-41 96t-81 61t-117 21.5zM442 578q80 0 129 -43.5t51 -120.5h-147q-3 22 -17 35.5t-41 13.5q-35 0 -62 -27t-37 -83q-9 -55 8 -82.5t52 -27.5q29 0 47 14t29 35h146q-14 -37 -38 -67.5t-55 -52t-68 -33
t-76 -11.5q-48 0 -86 15.5t-62.5 45t-34 71t-0.5 93.5t33 93.5t59 70.5t78.5 45t91.5 16z" />
    <glyph glyph-name="ordfeminine" unicode="&#xaa;" horiz-adv-x="469" 
d="M68 530q7 42 26 75.5t45.5 57t59 36t67.5 12.5q44 0 70 -16t38 -45l10 56h128l-61 -352h-129l10 55q-23 -28 -54 -44t-75 -16q-35 0 -63 12.5t-46.5 36t-26 57t0.5 75.5zM353 530q7 39 -12.5 59t-49.5 20t-56.5 -20.5t-33.5 -59.5t12.5 -59t49.5 -20t56.5 20.5t33.5 59.5
z" />
    <glyph glyph-name="guillemotleft" unicode="&#xab;" horiz-adv-x="557" 
d="M257 120h-158l-53 175l115 175h158l-118 -175zM482 120h-158l-53 175l115 175h158l-118 -175z" />
    <glyph glyph-name="logicalnot" unicode="&#xac;" horiz-adv-x="772" 
d="M58 442h682l-46 -262h-171l23 132h-511z" />
    <glyph glyph-name="uni00AD" unicode="&#xad;" horiz-adv-x="580" 
d="M76 422h440l-26 -142h-440z" />
    <glyph glyph-name="registered" unicode="&#xae;" horiz-adv-x="514" 
d="M324 657q-36 0 -67 -11.5t-55 -32.5t-40.5 -50.5t-22.5 -65.5q-12 -72 22 -116t106 -44q36 0 67 11.5t55 32.5t40.5 50.5t22.5 65.5q13 72 -22 116t-106 44zM258 281q-48 0 -85 16t-61 44.5t-33.5 68.5t-0.5 87q8 48 31.5 87.5t57.5 68t76.5 44.5t90.5 16t85 -16
t60.5 -44.5t32.5 -68t1 -87.5q-9 -47 -32 -87t-56.5 -68.5t-76 -44.5t-90.5 -16zM400 537q-8 -44 -50 -61l36 -82h-84l-28 74h-1l-13 -74h-74l38 212h111q35 0 52.5 -18.5t12.5 -50.5zM285 544l-4 -25h24q14 0 17 13q1 12 -12 12h-25z" />
    <glyph glyph-name="macron" unicode="&#xaf;" horiz-adv-x="420" 
d="M91 746h400l-21 -118h-400z" />
    <glyph glyph-name="degree" unicode="&#xb0;" horiz-adv-x="463" 
d="M68 529q7 42 28 75.5t52.5 56.5t72 35.5t86.5 12.5q45 0 81 -12.5t59 -35.5t32 -56.5t2 -75.5q-8 -42 -28.5 -75.5t-51.5 -57t-71 -36.5t-86 -13t-82 13t-59.5 36.5t-33 57t-1.5 75.5zM348 528q8 47 -11 68t-47 21q-27 0 -54.5 -21.5t-35.5 -67.5t12 -67t48 -21
q27 0 53.5 21t34.5 67z" />
    <glyph glyph-name="plusminus" unicode="&#xb1;" horiz-adv-x="629" 
d="M456 626l-20 -116h173l-27 -154h-173l-16 -93h173l-28 -154h-510l28 154h173l16 93h-173l27 154h173l20 116h164z" />
    <glyph glyph-name="twosuperior" unicode="&#xb2;" horiz-adv-x="383" 
d="M87 586q13 57 64 92.5t129 35.5q39 0 65 -10t41.5 -25.5t20.5 -35.5t2 -40q-7 -37 -39.5 -64t-100.5 -57l-66 -30h174l-18 -100h-309l17 96l136 74q61 35 68 72q5 28 -20 28q-27 0 -36 -36h-128v0z" />
    <glyph glyph-name="threesuperior" unicode="&#xb3;" horiz-adv-x="374" 
d="M75 592q5 24 19 46t37.5 39t56.5 27t76 10q35 0 62 -8t45 -22t25.5 -33.5t3.5 -41.5q-5 -32 -27 -50.5t-55 -25.5l-1 -3q71 -20 61 -81q-8 -47 -57 -74t-121 -27q-44 0 -74.5 8.5t-48.5 24.5t-25 38.5t-4 50.5h132q-3 -31 28 -31q14 0 24 7.5t13 24.5q6 34 -34 34h-33
l9 56h28q39 0 45 33q5 29 -25 29q-28 0 -38 -31h-122v0z" />
    <glyph glyph-name="acute" unicode="&#xb4;" horiz-adv-x="261" 
d="M347 830l-23 -133l-260 -101l21 118z" />
    <glyph glyph-name="uni00B5" unicode="&#xb5;" horiz-adv-x="705" 
d="M579 0h-171l14 81q-31 -40 -78 -63.5t-105 -23.5q-23 0 -44 8l-47 -268h-170l145 824h170l-54 -303q-9 -55 14.5 -84t72.5 -29t83.5 29t43.5 84v-2l54 305h171z" />
    <glyph glyph-name="paragraph" unicode="&#xb6;" horiz-adv-x="708" 
d="M706 702l-124 -702h-141l101 572h-62l-101 -572h-141l49 273h-23q-63 0 -105 18t-66 47.5t-30.5 68t0.5 80.5t27.5 80.5t55 68.5t82.5 48t111 18h367z" />
    <glyph glyph-name="periodcentered" unicode="&#xb7;" horiz-adv-x="299" 
d="M217 314q-7 -38 -39.5 -65t-77.5 -27q-46 0 -69.5 27t-16.5 65q7 40 39.5 67t79.5 27q45 0 68 -27t16 -67z" />
    <glyph glyph-name="cedilla" unicode="&#xb8;" horiz-adv-x="313" 
d="M116 -37q22 0 44.5 -6t38.5 -19.5t24 -35.5t2 -53q-5 -31 -21 -53t-38 -36t-48 -20.5t-52 -6.5h-154l17 94h130q19 0 31 5.5t14 20.5q3 14 -6.5 19.5t-28.5 5.5h-71l23 129h103z" />
    <glyph glyph-name="onesuperior" unicode="&#xb9;" horiz-adv-x="249" 
d="M136 605h-60l17 99h189l-62 -352h-129z" />
    <glyph glyph-name="ordmasculine" unicode="&#xba;" horiz-adv-x="458" 
d="M68 529q7 40 27.5 73t51 57t70 37t85.5 13t81.5 -13t58 -37t31.5 -57t2 -73t-27.5 -73.5t-51 -57.5t-70.5 -37.5t-86 -13.5t-81 13.5t-57.5 37.5t-31.5 57.5t-2 73.5zM344 528q7 43 -11.5 63.5t-47.5 20.5t-53.5 -20.5t-32.5 -63.5q-7 -42 11 -62.5t47 -20.5t54 20.5
t33 62.5z" />
    <glyph glyph-name="guillemotright" unicode="&#xbb;" horiz-adv-x="557" 
d="M245 120l118 175l-56 175h158l53 -175l-115 -175h-158zM20 120l118 175l-56 175h158l53 -175l-115 -175h-158z" />
    <glyph glyph-name="onequarter" unicode="&#xbc;" horiz-adv-x="786" 
d="M547 702h164l-509 -702h-165zM729 135l-12 -73h-40l-12 -62h-129l12 62h-195l11 68l185 222h179l-38 -217h39zM567 138l22 129l-100 -129h78zM156 605h-60l17 99h189l-62 -352h-129z" />
    <glyph glyph-name="onehalf" unicode="&#xbd;" horiz-adv-x="821" 
d="M547 704h165l-510 -704h-165zM156 605h-60l17 99h189l-62 -352h-129zM496 233q13 57 64 92.5t129 35.5q39 0 65 -10t41.5 -25.5t20.5 -35.5t2 -40q-7 -37 -39.5 -64t-100.5 -57l-66 -30h174l-18 -100h-309l17 96l136 74q61 35 68 72q5 28 -20 28q-27 0 -36 -36h-128z" />
    <glyph glyph-name="threequarters" unicode="&#xbe;" horiz-adv-x="891" 
d="M662 704h165l-510 -704h-164zM844 135l-13 -73h-39l-12 -62h-128l11 62h-196l12 68l175 222h189l-39 -217h40zM681 135l26 142l-104 -142h78zM110 592q5 24 19 46t37.5 39t56.5 27t76 10q35 0 62 -8t45 -22t25.5 -33.5t3.5 -41.5q-5 -32 -27 -50.5t-55 -25.5l-1 -3
q71 -20 61 -81q-8 -47 -57 -74t-121 -27q-44 0 -74.5 8.5t-48.5 24.5t-25 38.5t-4 50.5h132q-3 -31 28 -31q14 0 24 7.5t13 24.5q6 34 -34 34h-33l9 56h28q39 0 45 33q5 29 -25 29q-28 0 -38 -31h-122z" />
    <glyph glyph-name="questiondown" unicode="&#xbf;" horiz-adv-x="538" 
d="M467 39q-7 -45 -29 -84.5t-57.5 -68.5t-83.5 -46t-108 -17q-52 0 -92.5 14t-67 41t-37 67t-1.5 92q9 48 32 85.5t57.5 62.5t78 38.5t92.5 13.5l18 75h150l-27 -186h-60q-35 0 -65 -4t-53 -14t-38 -27.5t-19 -44.5q-5 -34 11 -53.5t49 -19.5q37 0 60 20.5t29 55.5h161z
M271 480q7 38 39.5 65t77.5 27q46 0 69.5 -27t16.5 -65q-7 -40 -39.5 -67t-79.5 -27q-45 0 -68 27t-16 67z" />
    <glyph glyph-name="Agrave" unicode="&#xc0;" horiz-adv-x="737" 
d="M470 124h-262l-64 -124h-179l378 702h198l130 -702h-181zM409 514l-134 -260h175zM380 960l190 -121l-61 -87l-199 110z" />
    <glyph glyph-name="Aacute" unicode="&#xc1;" horiz-adv-x="737" 
d="M470 124h-262l-64 -124h-179l378 702h198l130 -702h-181zM409 514l-134 -260h175zM615 858l-226 -106l-53 89l224 119z" />
    <glyph glyph-name="Acircumflex" unicode="&#xc2;" horiz-adv-x="737" 
d="M470 124h-262l-64 -124h-179l378 702h198l130 -702h-181zM409 514l-134 -260h175zM322 742l-48 83l198 115l160 -115l-65 -83l-111 73z" />
    <glyph glyph-name="Atilde" unicode="&#xc3;" horiz-adv-x="737" 
d="M470 124h-262l-64 -124h-179l378 702h198l130 -702h-181zM409 514l-134 -260h175zM272 754q12 73 47 110t81 37q26 0 43 -6.5t29 -15t21 -15t19 -6.5q8 0 16 8t13 32h102q-11 -73 -47 -109.5t-81 -36.5q-26 0 -43 6.5t-29 14t-21 14t-18 6.5q-8 0 -16 -7t-13 -32h-103z
" />
    <glyph glyph-name="Adieresis" unicode="&#xc4;" horiz-adv-x="737" 
d="M470 124h-262l-64 -124h-179l378 702h198l130 -702h-181zM353 766q-27 0 -44.5 17t-17.5 43q0 18 7.5 34t19.5 27.5t28 18.5t33 7q28 0 45 -17t17 -43q0 -18 -7.5 -34t-19.5 -27.5t-28 -18.5t-33 -7zM553 766q-27 0 -44.5 17t-17.5 43q0 18 7.5 34t19.5 27.5t28 18.5
t33 7q28 0 45 -17t17 -43q0 -18 -7.5 -34t-19.5 -27.5t-28 -18.5t-33 -7zM409 514l-134 -260h175z" />
    <glyph glyph-name="Aring" unicode="&#xc5;" horiz-adv-x="737" 
d="M470 124h-262l-64 -124h-179l378 702h198l130 -702h-181zM520 866q5 23 -7.5 36t-32.5 13t-36.5 -13t-20.5 -36q-4 -22 8 -35.5t32 -13.5t36.5 13.5t20.5 35.5zM350 866q11 57 51.5 89t91.5 32q25 0 45.5 -8.5t34 -24t19 -38t0.5 -50.5q-10 -57 -50.5 -89t-91.5 -32
q-25 0 -45.5 8.5t-34.5 24t-19.5 38t-0.5 50.5zM409 514l-134 -260h175z" />
    <glyph glyph-name="AE" unicode="&#xc6;" horiz-adv-x="955" 
d="M310 248h165l57 327zM702 567l-26 -144h224l-22 -130h-224l-28 -158h253l-24 -135h-424l21 118h-231l-80 -118h-186l484 702h540l-24 -135h-253z" />
    <glyph glyph-name="Ccedilla" unicode="&#xc7;" horiz-adv-x="762" 
d="M45 352q14 79 51.5 144.5t92.5 113t124 74t147 26.5q63 0 114 -17t88.5 -49t60 -77.5t27.5 -102.5h-188q-14 44 -48 66t-84 22q-39 0 -74 -14t-63 -40t-47 -63t-27 -83t-2 -83t25 -63.5t49 -40.5t69 -14q49 0 91.5 22.5t71.5 66.5h188q-45 -102 -129.5 -165t-192.5 -77
l-7 -39q22 0 44.5 -6t38.5 -19.5t24 -35.5t2 -53q-5 -31 -21 -53t-38 -36t-48 -20.5t-52 -6.5h-154l17 94h130q19 0 31 5.5t14 20.5q3 14 -6.5 19.5t-28.5 5.5h-71l22 124q-66 8 -117 37t-82.5 75.5t-43 108t1.5 133.5z" />
    <glyph glyph-name="Egrave" unicode="&#xc8;" horiz-adv-x="541" 
d="M541 567h-259l-25 -146h229l-23 -129h-229l-28 -157h259l-24 -135h-430l124 702h430zM287 960l190 -121l-61 -87l-199 110z" />
    <glyph glyph-name="Eacute" unicode="&#xc9;" horiz-adv-x="541" 
d="M541 567h-259l-25 -146h229l-23 -129h-229l-28 -157h259l-24 -135h-430l124 702h430zM535 858l-226 -106l-53 89l224 119z" />
    <glyph glyph-name="Ecircumflex" unicode="&#xca;" horiz-adv-x="541" 
d="M541 567h-259l-25 -146h229l-23 -129h-229l-28 -157h259l-24 -135h-430l124 702h430zM224 742l-48 83l198 115l160 -115l-65 -83l-111 73z" />
    <glyph glyph-name="Edieresis" unicode="&#xcb;" horiz-adv-x="541" 
d="M541 567h-259l-25 -146h229l-23 -129h-229l-28 -157h259l-24 -135h-430l124 702h430zM257 766q-27 0 -44.5 17t-17.5 43q0 18 7.5 34t19.5 27.5t28 18.5t33 7q28 0 45 -17t17 -43q0 -18 -7.5 -34t-19.5 -27.5t-28 -18.5t-33 -7zM457 766q-27 0 -44.5 17t-17.5 43
q0 18 7.5 34t19.5 27.5t28 18.5t33 7q28 0 45 -17t17 -43q0 -18 -7.5 -34t-19.5 -27.5t-28 -18.5t-33 -7z" />
    <glyph glyph-name="Igrave" unicode="&#xcc;" horiz-adv-x="295" 
d="M135 702h171l-124 -702h-171zM182 960l190 -121l-61 -87l-199 110z" />
    <glyph glyph-name="Iacute" unicode="&#xcd;" horiz-adv-x="295" 
d="M135 702h171l-124 -702h-171zM367 858l-226 -106l-53 89l224 119z" />
    <glyph glyph-name="Icircumflex" unicode="&#xce;" horiz-adv-x="295" 
d="M135 702h171l-124 -702h-171zM383 740l-139 87l-171 -87l21 118l170 84l140 -84z" />
    <glyph glyph-name="Idieresis" unicode="&#xcf;" horiz-adv-x="295" 
d="M135 702h171l-124 -702h-171zM132 766q-27 0 -44.5 17t-17.5 43q0 18 7.5 34t19.5 27.5t28 18.5t33 7q28 0 45 -17t17 -43q0 -18 -7.5 -34t-19.5 -27.5t-28 -18.5t-33 -7zM332 766q-27 0 -44.5 17t-17.5 43q0 18 7.5 34t19.5 27.5t28 18.5t33 7q28 0 45 -17t17 -43
q0 -18 -7.5 -34t-19.5 -27.5t-28 -18.5t-33 -7z" />
    <glyph glyph-name="Eth" unicode="&#xd0;" horiz-adv-x="732" 
d="M403 702q84 0 147.5 -25.5t103.5 -71.5t54.5 -111t0.5 -143t-51 -142.5t-93 -111t-129 -72t-157 -25.5h-263l49 280h-62l26 142h62l49 280h263zM295 146q97 0 160 54t80 151t-27 151t-141 54h-81l-24 -134h153l-25 -142h-152l-24 -134h81z" />
    <glyph glyph-name="Ntilde" unicode="&#xd1;" horiz-adv-x="752" 
d="M763 702l-124 -702h-171l-209 433l-77 -433h-171l124 702h171l209 -435l77 435h171zM259 756q26 79 68 113.5t96 34.5q22 0 38.5 -7t30.5 -15.5t26.5 -15.5t27.5 -7q17 0 30.5 11t20.5 34h88q-26 -79 -68 -113.5t-96 -34.5q-23 0 -39 7t-30 15.5t-26.5 15.5t-27.5 7
q-36 0 -52 -45h-87z" />
    <glyph glyph-name="Ograve" unicode="&#xd2;" horiz-adv-x="786" 
d="M762 420q0 -93 -30.5 -171.5t-85.5 -135.5t-132 -88.5t-169 -31.5q-68 0 -123 21.5t-94 60.5t-60 93t-21 120q0 93 30.5 171t85.5 134.5t131.5 87.5t167.5 31q69 0 124.5 -21t94.5 -59.5t60 -92.5t21 -119zM218 306q0 -72 39 -113.5t114 -41.5q51 0 92 20.5t69.5 55
t44 79.5t15.5 95q0 72 -39.5 113t-112.5 41q-51 0 -92.5 -20t-70 -54t-44 -79.5t-15.5 -95.5zM389 960l190 -121l-61 -87l-199 110z" />
    <glyph glyph-name="Oacute" unicode="&#xd3;" horiz-adv-x="786" 
d="M762 420q0 -93 -30.5 -171.5t-85.5 -135.5t-132 -88.5t-169 -31.5q-68 0 -123 21.5t-94 60.5t-60 93t-21 120q0 93 30.5 171t85.5 134.5t131.5 87.5t167.5 31q69 0 124.5 -21t94.5 -59.5t60 -92.5t21 -119zM218 306q0 -72 39 -113.5t114 -41.5q51 0 92 20.5t69.5 55
t44 79.5t15.5 95q0 72 -39.5 113t-112.5 41q-51 0 -92.5 -20t-70 -54t-44 -79.5t-15.5 -95.5zM649 858l-226 -106l-53 89l224 119z" />
    <glyph glyph-name="Ocircumflex" unicode="&#xd4;" horiz-adv-x="786" 
d="M762 420q0 -93 -30.5 -171.5t-85.5 -135.5t-132 -88.5t-169 -31.5q-68 0 -123 21.5t-94 60.5t-60 93t-21 120q0 93 30.5 171t85.5 134.5t131.5 87.5t167.5 31q69 0 124.5 -21t94.5 -59.5t60 -92.5t21 -119zM218 306q0 -72 39 -113.5t114 -41.5q51 0 92 20.5t69.5 55
t44 79.5t15.5 95q0 72 -39.5 113t-112.5 41q-51 0 -92.5 -20t-70 -54t-44 -79.5t-15.5 -95.5zM346 742l-48 83l198 115l160 -115l-65 -83l-111 73z" />
    <glyph glyph-name="Otilde" unicode="&#xd5;" horiz-adv-x="786" 
d="M762 420q0 -93 -30.5 -171.5t-85.5 -135.5t-132 -88.5t-169 -31.5q-68 0 -123 21.5t-94 60.5t-60 93t-21 120q0 93 30.5 171t85.5 134.5t131.5 87.5t167.5 31q69 0 124.5 -21t94.5 -59.5t60 -92.5t21 -119zM218 306q0 -72 39 -113.5t114 -41.5q51 0 92 20.5t69.5 55
t44 79.5t15.5 95q0 72 -39.5 113t-112.5 41q-51 0 -92.5 -20t-70 -54t-44 -79.5t-15.5 -95.5zM296 754q12 73 47 110t81 37q26 0 43 -6.5t29 -15t21 -15t19 -6.5q8 0 16 8t13 32h102q-11 -73 -47 -109.5t-81 -36.5q-26 0 -43 6.5t-29 14t-21 14t-18 6.5q-8 0 -16 -7t-13 -32
h-103z" />
    <glyph glyph-name="Odieresis" unicode="&#xd6;" horiz-adv-x="786" 
d="M762 420q0 -93 -30.5 -171.5t-85.5 -135.5t-132 -88.5t-169 -31.5q-68 0 -123 21.5t-94 60.5t-60 93t-21 120q0 93 30.5 171t85.5 134.5t131.5 87.5t167.5 31q69 0 124.5 -21t94.5 -59.5t60 -92.5t21 -119zM218 306q0 -72 39 -113.5t114 -41.5q51 0 92 20.5t69.5 55
t44 79.5t15.5 95q0 72 -39.5 113t-112.5 41q-51 0 -92.5 -20t-70 -54t-44 -79.5t-15.5 -95.5zM376 770q-27 0 -44.5 17t-17.5 43q0 18 7.5 34t19.5 27.5t28 18.5t33 7q28 0 45 -17t17 -43q0 -18 -7.5 -34t-19.5 -27.5t-28 -18.5t-33 -7zM576 770q-27 0 -44.5 17t-17.5 43
q0 18 7.5 34t19.5 27.5t28 18.5t33 7q28 0 45 -17t17 -43q0 -18 -7.5 -34t-19.5 -27.5t-28 -18.5t-33 -7z" />
    <glyph glyph-name="multiply" unicode="&#xd7;" horiz-adv-x="637" 
d="M56 217l162 138l-110 134l132 111l109 -133l156 133l92 -110l-156 -133l115 -140l-132 -111l-114 139l-162 -138z" />
    <glyph glyph-name="Oslash" unicode="&#xd8;" horiz-adv-x="786" 
d="M761 420q0 -93 -30.5 -171.5t-85.5 -135.5t-132 -88.5t-169 -31.5q-62 0 -113.5 18t-89.5 51l-66 -61h-104l124 114q-49 72 -49 173q0 93 30.5 171t85.5 134.5t131.5 87.5t167.5 31q64 0 116 -18t90 -51l67 61h103l-123 -114q23 -35 35 -77.5t12 -92.5zM217 306
q0 -37 11 -68l311 287q-39 30 -100 30q-51 0 -92.5 -20t-70 -54t-44 -79.5t-15.5 -95.5zM370 151q51 0 92 20.5t69.5 55t44 79.5t15.5 95q0 36 -11 66l-310 -286q39 -30 100 -30z" />
    <glyph glyph-name="Ugrave" unicode="&#xd9;" horiz-adv-x="705" 
d="M132 702h171l-74 -419q-11 -63 13.5 -97t85.5 -34t98.5 34t48.5 97l74 419h171l-74 -419q-13 -74 -46 -128.5t-79.5 -90.5t-103.5 -53.5t-119 -17.5q-61 0 -110.5 18t-82.5 54t-46 90.5t0 127.5zM351 960l190 -121l-61 -87l-199 110z" />
    <glyph glyph-name="Uacute" unicode="&#xda;" horiz-adv-x="705" 
d="M132 702h171l-74 -419q-11 -63 13.5 -97t85.5 -34t98.5 34t48.5 97l74 419h171l-74 -419q-13 -74 -46 -128.5t-79.5 -90.5t-103.5 -53.5t-119 -17.5q-61 0 -110.5 18t-82.5 54t-46 90.5t0 127.5zM625 858l-226 -106l-53 89l224 119z" />
    <glyph glyph-name="Ucircumflex" unicode="&#xdb;" horiz-adv-x="705" 
d="M132 702h171l-74 -419q-11 -63 13.5 -97t85.5 -34t98.5 34t48.5 97l74 419h171l-74 -419q-13 -74 -46 -128.5t-79.5 -90.5t-103.5 -53.5t-119 -17.5q-61 0 -110.5 18t-82.5 54t-46 90.5t0 127.5zM588 740l-139 87l-171 -87l21 118l170 84l140 -84z" />
    <glyph glyph-name="Udieresis" unicode="&#xdc;" horiz-adv-x="705" 
d="M132 702h171l-74 -419q-11 -63 13.5 -97t85.5 -34t98.5 34t48.5 97l74 419h171l-74 -419q-13 -74 -46 -128.5t-79.5 -90.5t-103.5 -53.5t-119 -17.5q-61 0 -110.5 18t-82.5 54t-46 90.5t0 127.5zM337 766q-27 0 -44.5 17t-17.5 43q0 18 7.5 34t19.5 27.5t28 18.5t33 7
q28 0 45 -17t17 -43q0 -18 -7.5 -34t-19.5 -27.5t-28 -18.5t-33 -7zM537 766q-27 0 -44.5 17t-17.5 43q0 18 7.5 34t19.5 27.5t28 18.5t33 7q28 0 45 -17t17 -43q0 -18 -7.5 -34t-19.5 -27.5t-28 -18.5t-33 -7z" />
    <glyph glyph-name="Yacute" unicode="&#xdd;" horiz-adv-x="671" 
d="M80 702h194l84 -293l187 293h192l-325 -470l-42 -232h-171l42 232zM595 858l-226 -106l-53 89l224 119z" />
    <glyph glyph-name="Thorn" unicode="&#xde;" horiz-adv-x="624" 
d="M321 262q51 0 78.5 24.5t34.5 65.5q8 41 -11 65.5t-70 24.5h-93l-32 -180h93zM609 352q-8 -43 -30 -82.5t-59 -70t-89.5 -48.5t-119.5 -18h-106l-23 -133h-171l124 702h169l-22 -130h107q64 0 110 -17t73 -46.5t36 -69.5t1 -87z" />
    <glyph glyph-name="germandbls" unicode="&#xdf;" horiz-adv-x="730" 
d="M94 534q9 52 34.5 95t66 74t95.5 48t123 17q55 0 97.5 -12.5t71.5 -33.5t44.5 -49.5t15.5 -61.5q0 -47 -23 -81.5t-50.5 -61t-50.5 -45.5t-23 -35q0 -6 2.5 -10.5t11 -10.5t25 -13.5t44.5 -18.5q62 -25 89.5 -58t27.5 -90q0 -44 -18 -80.5t-51 -62.5t-78 -40t-99 -14
q-103 0 -156.5 50t-48.5 141h157q-2 -31 14.5 -49t46.5 -18t47.5 13.5t17.5 39.5q0 19 -15 32.5t-57 29.5q-70 26 -103 53.5t-33 68.5q0 36 23 64.5t51 54t51 50t23 51.5q0 26 -21.5 40.5t-59.5 14.5q-55 0 -85.5 -27.5t-38.5 -76.5l-92 -522h-170z" />
    <glyph glyph-name="agrave" unicode="&#xe0;" 
d="M27 280q12 66 40 119t68 90t88.5 57t99.5 20q63 0 101.5 -25t55.5 -62l14 79h171l-99 -558h-171l15 79q-30 -37 -78 -62t-111 -25q-51 0 -92 20t-67.5 57.5t-36.5 91t2 119.5zM445 279q6 33 0.5 59t-19 43.5t-34.5 26.5t-45 9t-47.5 -9t-43.5 -26t-34.5 -43t-20.5 -59
t-0.5 -59t19 -44t34 -27t44.5 -9t48 9t44 26.5t34.5 43.5t20.5 59zM310 824l190 -121l-61 -87l-199 110z" />
    <glyph glyph-name="aacute" unicode="&#xe1;" 
d="M27 280q12 66 40 119t68 90t88.5 57t99.5 20q63 0 101.5 -25t55.5 -62l14 79h171l-99 -558h-171l15 79q-30 -37 -78 -62t-111 -25q-51 0 -92 20t-67.5 57.5t-36.5 91t2 119.5zM445 279q6 33 0.5 59t-19 43.5t-34.5 26.5t-45 9t-47.5 -9t-43.5 -26t-34.5 -43t-20.5 -59
t-0.5 -59t19 -44t34 -27t44.5 -9t48 9t44 26.5t34.5 43.5t20.5 59zM586 722l-226 -106l-53 89l224 119z" />
    <glyph glyph-name="acircumflex" unicode="&#xe2;" 
d="M27 280q12 66 40 119t68 90t88.5 57t99.5 20q63 0 101.5 -25t55.5 -62l14 79h171l-99 -558h-171l15 79q-30 -37 -78 -62t-111 -25q-51 0 -92 20t-67.5 57.5t-36.5 91t2 119.5zM445 279q6 33 0.5 59t-19 43.5t-34.5 26.5t-45 9t-47.5 -9t-43.5 -26t-34.5 -43t-20.5 -59
t-0.5 -59t19 -44t34 -27t44.5 -9t48 9t44 26.5t34.5 43.5t20.5 59zM268 606l-48 83l198 115l160 -115l-65 -83l-111 73z" />
    <glyph glyph-name="atilde" unicode="&#xe3;" 
d="M27 280q12 66 40 119t68 90t88.5 57t99.5 20q63 0 101.5 -25t55.5 -62l14 79h171l-99 -558h-171l15 79q-30 -37 -78 -62t-111 -25q-51 0 -92 20t-67.5 57.5t-36.5 91t2 119.5zM445 279q6 33 0.5 59t-19 43.5t-34.5 26.5t-45 9t-47.5 -9t-43.5 -26t-34.5 -43t-20.5 -59
t-0.5 -59t19 -44t34 -27t44.5 -9t48 9t44 26.5t34.5 43.5t20.5 59zM218 618q12 73 47 110t81 37q26 0 43 -6.5t29 -15t21 -15t19 -6.5q8 0 16 8t13 32h102q-11 -73 -47 -109.5t-81 -36.5q-26 0 -43 6.5t-29 14t-21 14t-18 6.5q-8 0 -16 -7t-13 -32h-103z" />
    <glyph glyph-name="adieresis" unicode="&#xe4;" 
d="M27 280q12 66 40 119t68 90t88.5 57t99.5 20q63 0 101.5 -25t55.5 -62l14 79h171l-99 -558h-171l15 79q-30 -37 -78 -62t-111 -25q-51 0 -92 20t-67.5 57.5t-36.5 91t2 119.5zM445 279q6 33 0.5 59t-19 43.5t-34.5 26.5t-45 9t-47.5 -9t-43.5 -26t-34.5 -43t-20.5 -59
t-0.5 -59t19 -44t34 -27t44.5 -9t48 9t44 26.5t34.5 43.5t20.5 59zM301 620q-27 0 -44.5 17t-17.5 43q0 18 7.5 34t19.5 27.5t28 18.5t33 7q28 0 45 -17t17 -43q0 -18 -7.5 -34t-19.5 -27.5t-28 -18.5t-33 -7zM501 620q-27 0 -44.5 17t-17.5 43q0 18 7.5 34t19.5 27.5
t28 18.5t33 7q28 0 45 -17t17 -43q0 -18 -7.5 -34t-19.5 -27.5t-28 -18.5t-33 -7z" />
    <glyph glyph-name="aring" unicode="&#xe5;" 
d="M27 280q12 66 40 119t68 90t88.5 57t99.5 20q63 0 101.5 -25t55.5 -62l14 79h171l-99 -558h-171l15 79q-30 -37 -78 -62t-111 -25q-51 0 -92 20t-67.5 57.5t-36.5 91t2 119.5zM445 279q6 33 0.5 59t-19 43.5t-34.5 26.5t-45 9t-47.5 -9t-43.5 -26t-34.5 -43t-20.5 -59
t-0.5 -59t19 -44t34 -27t44.5 -9t48 9t44 26.5t34.5 43.5t20.5 59zM298 720q11 57 51.5 89t91.5 32q25 0 45.5 -8.5t34 -24t19 -38t0.5 -50.5q-10 -57 -50.5 -89t-91.5 -32q-25 0 -45.5 8.5t-34.5 24t-19.5 38t-0.5 50.5zM468 720q5 23 -7.5 36t-32.5 13t-36.5 -13
t-20.5 -36q-4 -22 8 -35.5t32 -13.5t36.5 13.5t20.5 35.5z" />
    <glyph glyph-name="ae" unicode="&#xe6;" horiz-adv-x="1069" 
d="M770 429q-45 0 -83.5 -25t-56.5 -77h243q8 49 -22 75.5t-81 26.5zM1009 185q-17 -41 -44 -76t-61.5 -61t-75.5 -41t-87 -15q-62 0 -104 24t-60 64l-14 -80h-167l14 80q-32 -38 -80 -63t-108 -25q-51 0 -92.5 20t-68 57.5t-36.5 91t2 119.5t40.5 119t68.5 90t88.5 57
t101.5 20q57 0 96 -22t59 -64l13 78h168l-14 -78q73 86 194 86q54 0 96 -20t68.5 -56t36 -87t-1.5 -114q-5 -26 -13 -49h-414q-2 -59 28 -85t72 -26t70 15.5t42 40.5h183zM201 280q-6 -33 -0.5 -59t19 -44t34 -27t44.5 -9t48 9t44 26.5t34.5 43.5t20.5 59t0.5 59t-19 43.5
t-34.5 26.5t-45 9t-47.5 -9t-43.5 -26t-34.5 -43t-20.5 -59z" />
    <glyph glyph-name="ccedilla" unicode="&#xe7;" horiz-adv-x="605" 
d="M27 279q12 66 42 119t73.5 90.5t98 57.5t116.5 20q106 0 166 -55t65 -155h-182q-5 29 -24 46.5t-54 17.5q-46 0 -80.5 -35.5t-46.5 -105.5q-13 -70 9.5 -105.5t68.5 -35.5q35 0 59 16.5t40 47.5h183q-35 -85 -100.5 -139t-153.5 -67l-7 -37q22 0 44.5 -6t38.5 -19.5
t24 -35.5t2 -53q-5 -31 -21 -53t-38 -36t-48 -20.5t-52 -6.5h-154l17 94h130q19 0 31 5.5t14 20.5q3 14 -6.5 19.5t-28.5 5.5h-71l22 122q-50 8 -87.5 31t-61 59.5t-31.5 85t3 107.5z" />
    <glyph glyph-name="egrave" unicode="&#xe8;" horiz-adv-x="616" 
d="M332 429q-43 0 -77 -26t-49 -76h215q4 25 -1.5 44t-17.5 32t-30 19.5t-40 6.5zM557 185q-18 -41 -47 -76t-68 -61t-85.5 -41t-98.5 -15q-62 0 -110 20t-79 57t-42.5 90.5t0.5 119.5t42 119.5t73.5 90.5t99 57t117.5 20q61 0 109 -19.5t78.5 -55.5t42 -87.5t0.5 -114.5
q-4 -23 -12 -49h-387q-6 -56 19.5 -82.5t67.5 -26.5q36 0 60 15.5t38 38.5h182zM287 824l190 -121l-61 -87l-199 110z" />
    <glyph glyph-name="eacute" unicode="&#xe9;" horiz-adv-x="616" 
d="M332 429q-43 0 -77 -26t-49 -76h215q4 25 -1.5 44t-17.5 32t-30 19.5t-40 6.5zM557 185q-18 -41 -47 -76t-68 -61t-85.5 -41t-98.5 -15q-62 0 -110 20t-79 57t-42.5 90.5t0.5 119.5t42 119.5t73.5 90.5t99 57t117.5 20q61 0 109 -19.5t78.5 -55.5t42 -87.5t0.5 -114.5
q-4 -23 -12 -49h-387q-6 -56 19.5 -82.5t67.5 -26.5q36 0 60 15.5t38 38.5h182zM537 722l-226 -106l-53 89l224 119z" />
    <glyph glyph-name="ecircumflex" unicode="&#xea;" horiz-adv-x="616" 
d="M332 429q-43 0 -77 -26t-49 -76h215q4 25 -1.5 44t-17.5 32t-30 19.5t-40 6.5zM557 185q-18 -41 -47 -76t-68 -61t-85.5 -41t-98.5 -15q-62 0 -110 20t-79 57t-42.5 90.5t0.5 119.5t42 119.5t73.5 90.5t99 57t117.5 20q61 0 109 -19.5t78.5 -55.5t42 -87.5t0.5 -114.5
q-4 -23 -12 -49h-387q-6 -56 19.5 -82.5t67.5 -26.5q36 0 60 15.5t38 38.5h182zM246 606l-48 83l198 115l160 -115l-65 -83l-111 73z" />
    <glyph glyph-name="edieresis" unicode="&#xeb;" horiz-adv-x="616" 
d="M332 429q-43 0 -77 -26t-49 -76h215q4 25 -1.5 44t-17.5 32t-30 19.5t-40 6.5zM557 185q-18 -41 -47 -76t-68 -61t-85.5 -41t-98.5 -15q-62 0 -110 20t-79 57t-42.5 90.5t0.5 119.5t42 119.5t73.5 90.5t99 57t117.5 20q61 0 109 -19.5t78.5 -55.5t42 -87.5t0.5 -114.5
q-4 -23 -12 -49h-387q-6 -56 19.5 -82.5t67.5 -26.5q36 0 60 15.5t38 38.5h182zM274 620q-27 0 -44.5 17t-17.5 43q0 18 7.5 34t19.5 27.5t28 18.5t33 7q28 0 45 -17t17 -43q0 -18 -7.5 -34t-19.5 -27.5t-28 -18.5t-33 -7zM474 620q-27 0 -44.5 17t-17.5 43q0 18 7.5 34
t19.5 27.5t28 18.5t33 7q28 0 45 -17t17 -43q0 -18 -7.5 -34t-19.5 -27.5t-28 -18.5t-33 -7z" />
    <glyph glyph-name="igrave" unicode="&#xec;" horiz-adv-x="321" 
d="M123 558h171l-99 -558h-171zM172 824l190 -121l-61 -87l-199 110z" />
    <glyph glyph-name="iacute" unicode="&#xed;" horiz-adv-x="321" 
d="M123 558h171l-99 -558h-171zM354 722l-226 -106l-53 89l224 119z" />
    <glyph glyph-name="icircumflex" unicode="&#xee;" horiz-adv-x="321" 
d="M123 558h171l-99 -558h-171zM370 594l-139 87l-171 -87l21 118l170 84l140 -84z" />
    <glyph glyph-name="idieresis" unicode="&#xef;" horiz-adv-x="321" 
d="M123 558h171l-99 -558h-171zM119 620q-27 0 -44.5 17t-17.5 43q0 18 7.5 34t19.5 27.5t28 18.5t33 7q28 0 45 -17t17 -43q0 -18 -7.5 -34t-19.5 -27.5t-28 -18.5t-33 -7zM319 620q-27 0 -44.5 17t-17.5 43q0 18 7.5 34t19.5 27.5t28 18.5t33 7q28 0 45 -17t17 -43
q0 -18 -7.5 -34t-19.5 -27.5t-28 -18.5t-33 -7z" />
    <glyph glyph-name="eth" unicode="&#xf0;" horiz-adv-x="640" 
d="M27 280q12 66 42.5 118.5t74 89.5t97.5 56.5t111 19.5q33 0 60.5 -8t51.5 -23q-12 45 -36 87l-111 -32l12 67l65 19q-26 34 -57 66h157q7 -8 13 -15t12 -15l100 29l-12 -67l-52 -15q43 -74 60.5 -160t1.5 -180q-14 -80 -47.5 -140.5t-80 -101.5t-103.5 -61.5t-117 -20.5
t-110 20t-83 57.5t-47 90.5t-2 119zM201 279q-6 -36 -0.5 -62.5t19.5 -44t33.5 -25.5t41.5 -8t44 8t41.5 25.5t34 44t21.5 62.5q6 36 0.5 62.5t-19 43.5t-33.5 25t-41 8q-22 0 -44.5 -8t-42 -25t-34.5 -43.5t-21 -62.5z" />
    <glyph glyph-name="ntilde" unicode="&#xf1;" horiz-adv-x="674" 
d="M450 303q10 57 -14 87.5t-72 30.5q-50 0 -84 -30.5t-44 -87.5v5l-54 -308h-171l98 558h171l-13 -75q32 36 79 58.5t104 22.5q98 0 146 -62.5t28 -175.5l-58 -326h-170zM218 610q26 79 68 113.5t96 34.5q22 0 38.5 -7t30.5 -15.5t26.5 -15.5t27.5 -7q17 0 30.5 11t20.5 34
h88q-26 -79 -68 -113.5t-96 -34.5q-23 0 -39 7t-30 15.5t-26.5 15.5t-27.5 7q-36 0 -52 -45h-87z" />
    <glyph glyph-name="ograve" unicode="&#xf2;" horiz-adv-x="637" 
d="M613 331q0 -73 -26.5 -135t-73.5 -107.5t-110.5 -71t-136.5 -25.5q-55 0 -100 16.5t-77.5 47.5t-50 74t-17.5 96q0 72 26 134.5t72 108t109.5 71.5t137.5 26q55 0 100.5 -17t78 -47.5t50.5 -74t18 -96.5zM197 241q0 -51 26.5 -76.5t66.5 -25.5q33 0 60 15.5t46 40
t29.5 56t10.5 64.5q0 53 -28 78.5t-67 25.5q-33 0 -60 -15.5t-45.5 -40.5t-28.5 -57t-10 -65zM290 824l190 -121l-61 -87l-199 110z" />
    <glyph glyph-name="oacute" unicode="&#xf3;" horiz-adv-x="637" 
d="M613 331q0 -73 -26.5 -135t-73.5 -107.5t-110.5 -71t-136.5 -25.5q-55 0 -100 16.5t-77.5 47.5t-50 74t-17.5 96q0 72 26 134.5t72 108t109.5 71.5t137.5 26q55 0 100.5 -17t78 -47.5t50.5 -74t18 -96.5zM197 241q0 -51 26.5 -76.5t66.5 -25.5q33 0 60 15.5t46 40
t29.5 56t10.5 64.5q0 53 -28 78.5t-67 25.5q-33 0 -60 -15.5t-45.5 -40.5t-28.5 -57t-10 -65zM556 722l-226 -106l-53 89l224 119z" />
    <glyph glyph-name="ocircumflex" unicode="&#xf4;" horiz-adv-x="637" 
d="M613 331q0 -73 -26.5 -135t-73.5 -107.5t-110.5 -71t-136.5 -25.5q-55 0 -100 16.5t-77.5 47.5t-50 74t-17.5 96q0 72 26 134.5t72 108t109.5 71.5t137.5 26q55 0 100.5 -17t78 -47.5t50.5 -74t18 -96.5zM197 241q0 -51 26.5 -76.5t66.5 -25.5q33 0 60 15.5t46 40
t29.5 56t10.5 64.5q0 53 -28 78.5t-67 25.5q-33 0 -60 -15.5t-45.5 -40.5t-28.5 -57t-10 -65zM256 606l-48 83l198 115l160 -115l-65 -83l-111 73z" />
    <glyph glyph-name="otilde" unicode="&#xf5;" horiz-adv-x="637" 
d="M613 331q0 -73 -26.5 -135t-73.5 -107.5t-110.5 -71t-136.5 -25.5q-55 0 -100 16.5t-77.5 47.5t-50 74t-17.5 96q0 72 26 134.5t72 108t109.5 71.5t137.5 26q55 0 100.5 -17t78 -47.5t50.5 -74t18 -96.5zM197 241q0 -51 26.5 -76.5t66.5 -25.5q33 0 60 15.5t46 40
t29.5 56t10.5 64.5q0 53 -28 78.5t-67 25.5q-33 0 -60 -15.5t-45.5 -40.5t-28.5 -57t-10 -65zM206 618q12 73 47 110t81 37q26 0 43 -6.5t29 -15t21 -15t19 -6.5q8 0 16 8t13 32h102q-11 -73 -47 -109.5t-81 -36.5q-26 0 -43 6.5t-29 14t-21 14t-18 6.5q-8 0 -16 -7t-13 -32
h-103z" />
    <glyph glyph-name="odieresis" unicode="&#xf6;" horiz-adv-x="637" 
d="M613 331q0 -73 -26.5 -135t-73.5 -107.5t-110.5 -71t-136.5 -25.5q-55 0 -100 16.5t-77.5 47.5t-50 74t-17.5 96q0 72 26 134.5t72 108t109.5 71.5t137.5 26q55 0 100.5 -17t78 -47.5t50.5 -74t18 -96.5zM197 241q0 -51 26.5 -76.5t66.5 -25.5q33 0 60 15.5t46 40
t29.5 56t10.5 64.5q0 53 -28 78.5t-67 25.5q-33 0 -60 -15.5t-45.5 -40.5t-28.5 -57t-10 -65zM277 628q-27 0 -44.5 17t-17.5 43q0 18 7.5 34t19.5 27.5t28 18.5t33 7q28 0 45 -17t17 -43q0 -18 -7.5 -34t-19.5 -27.5t-28 -18.5t-33 -7zM477 628q-27 0 -44.5 17t-17.5 43
q0 18 7.5 34t19.5 27.5t28 18.5t33 7q28 0 45 -17t17 -43q0 -18 -7.5 -34t-19.5 -27.5t-28 -18.5t-33 -7z" />
    <glyph glyph-name="divide" unicode="&#xf7;" horiz-adv-x="611" 
d="M78 427h510l-27 -154h-510zM365 123q-7 -38 -39.5 -65t-77.5 -27q-46 0 -69.5 27t-16.5 65q7 40 39.5 67t79.5 27q45 0 68 -27t16 -67zM461 576q-7 -38 -39.5 -65t-77.5 -27q-46 0 -69.5 27t-16.5 65q7 40 39.5 67t79.5 27q45 0 68 -27t16 -67z" />
    <glyph glyph-name="oslash" unicode="&#xf8;" horiz-adv-x="629" 
d="M609 331q0 -73 -26.5 -135t-73.5 -107.5t-110.5 -71t-136.5 -25.5q-97 0 -162 51l-46 -43h-92l96 88q-20 28 -30.5 62.5t-10.5 75.5q0 72 26 134.5t72 108t109.5 71.5t137.5 26q98 0 163 -51l47 43h91l-96 -88q20 -28 31 -63t11 -76zM193 241q0 -8 0.5 -14.5t1.5 -12.5
l203 185q-26 20 -61 20q-33 0 -60 -15.5t-45.5 -40.5t-28.5 -57t-10 -65zM286 139q33 0 60 15.5t46 40t29.5 56t10.5 64.5q0 15 -3 29l-202 -186q23 -19 59 -19z" />
    <glyph glyph-name="ugrave" unicode="&#xf9;" horiz-adv-x="674" 
d="M562 0h-171l13 76q-32 -36 -78.5 -59t-103.5 -23q-49 0 -86 16t-60 47t-31 75t2 100l58 326h170l-53 -303q-11 -57 13 -87.5t73 -30.5q48 0 81.5 28.5t44.5 82.5l55 310h171zM299 824l190 -121l-61 -87l-199 110z" />
    <glyph glyph-name="uacute" unicode="&#xfa;" horiz-adv-x="674" 
d="M562 0h-171l13 76q-32 -36 -78.5 -59t-103.5 -23q-49 0 -86 16t-60 47t-31 75t2 100l58 326h170l-53 -303q-11 -57 13 -87.5t73 -30.5q48 0 81.5 28.5t44.5 82.5l55 310h171zM582 722l-226 -106l-53 89l224 119z" />
    <glyph glyph-name="ucircumflex" unicode="&#xfb;" horiz-adv-x="674" 
d="M562 0h-171l13 76q-32 -36 -78.5 -59t-103.5 -23q-49 0 -86 16t-60 47t-31 75t2 100l58 326h170l-53 -303q-11 -57 13 -87.5t73 -30.5q48 0 81.5 28.5t44.5 82.5l55 310h171zM547 594l-139 87l-171 -87l21 118l170 84l140 -84z" />
    <glyph glyph-name="udieresis" unicode="&#xfc;" horiz-adv-x="674" 
d="M562 0h-171l13 76q-32 -36 -78.5 -59t-103.5 -23q-49 0 -86 16t-60 47t-31 75t2 100l58 326h170l-53 -303q-11 -57 13 -87.5t73 -30.5q48 0 81.5 28.5t44.5 82.5l55 310h171zM296 620q-27 0 -44.5 17t-17.5 43q0 18 7.5 34t19.5 27.5t28 18.5t33 7q28 0 45 -17t17 -43
q0 -18 -7.5 -34t-19.5 -27.5t-28 -18.5t-33 -7zM496 620q-27 0 -44.5 17t-17.5 43q0 18 7.5 34t19.5 27.5t28 18.5t33 7q28 0 45 -17t17 -43q0 -18 -7.5 -34t-19.5 -27.5t-28 -18.5t-33 -7z" />
    <glyph glyph-name="yacute" unicode="&#xfd;" horiz-adv-x="632" 
d="M47 558h190l68 -349l190 349h185l-495 -823h-184l178 284zM558 722l-226 -106l-53 89l224 119z" />
    <glyph glyph-name="thorn" unicode="&#xfe;" 
d="M268 485q34 38 77.5 58.5t99.5 20.5q52 0 95 -21t71 -58.5t38.5 -90t-0.5 -116.5t-40.5 -116.5t-70.5 -90t-91 -58t-102 -20.5q-56 0 -92 23.5t-57 64.5l-61 -347h-171l178 1006h171zM475 278q6 35 0 61t-20.5 43t-34.5 25.5t-42 8.5t-45 -8t-43.5 -25t-36.5 -43t-22 -61
t0.5 -61t21 -43t34.5 -25.5t42 -8.5t45 8t43.5 25t36 43t21.5 61z" />
    <glyph glyph-name="ydieresis" unicode="&#xff;" horiz-adv-x="632" 
d="M47 558h190l68 -349l190 349h185l-495 -823h-184l178 284zM274 620q-27 0 -44.5 17t-17.5 43q0 18 7.5 34t19.5 27.5t28 18.5t33 7q28 0 45 -17t17 -43q0 -18 -7.5 -34t-19.5 -27.5t-28 -18.5t-33 -7zM474 620q-27 0 -44.5 17t-17.5 43q0 18 7.5 34t19.5 27.5t28 18.5
t33 7q28 0 45 -17t17 -43q0 -18 -7.5 -34t-19.5 -27.5t-28 -18.5t-33 -7z" />
    <glyph glyph-name="Amacron" unicode="&#x100;" horiz-adv-x="737" 
d="M470 124h-262l-64 -124h-179l378 702h198l130 -702h-181zM276 892h400l-21 -118h-400zM409 514l-134 -260h175z" />
    <glyph glyph-name="amacron" unicode="&#x101;" 
d="M27 280q12 66 40 119t68 90t88.5 57t99.5 20q63 0 101.5 -25t55.5 -62l14 79h171l-99 -558h-171l15 79q-30 -37 -78 -62t-111 -25q-51 0 -92 20t-67.5 57.5t-36.5 91t2 119.5zM445 279q6 33 0.5 59t-19 43.5t-34.5 26.5t-45 9t-47.5 -9t-43.5 -26t-34.5 -43t-20.5 -59
t-0.5 -59t19 -44t34 -27t44.5 -9t48 9t44 26.5t34.5 43.5t20.5 59zM224 746h400l-21 -118h-400z" />
    <glyph glyph-name="Abreve" unicode="&#x102;" horiz-adv-x="737" 
d="M470 124h-262l-64 -124h-179l378 702h198l130 -702h-181zM409 514l-134 -260h175zM448 742q-36 0 -66.5 10t-50.5 29.5t-29 49t-2 67.5h112q-11 -60 53 -60q58 0 69 60h117q-14 -77 -68 -116.5t-135 -39.5z" />
    <glyph glyph-name="abreve" unicode="&#x103;" 
d="M27 280q12 66 40 119t68 90t88.5 57t99.5 20q63 0 101.5 -25t55.5 -62l14 79h171l-99 -558h-171l15 79q-30 -37 -78 -62t-111 -25q-51 0 -92 20t-67.5 57.5t-36.5 91t2 119.5zM445 279q6 33 0.5 59t-19 43.5t-34.5 26.5t-45 9t-47.5 -9t-43.5 -26t-34.5 -43t-20.5 -59
t-0.5 -59t19 -44t34 -27t44.5 -9t48 9t44 26.5t34.5 43.5t20.5 59zM387 608q-36 0 -66.5 10t-50.5 29.5t-29 49t-2 67.5h112q-11 -60 53 -60q58 0 69 60h117q-14 -77 -68 -116.5t-135 -39.5z" />
    <glyph glyph-name="Aogonek" unicode="&#x104;" horiz-adv-x="737" 
d="M541 702l130 -702l-50 -22q-44 -18 -59.5 -33.5t-18.5 -30.5q-6 -35 39 -35q32 0 77 15l-16 -96q-23 -7 -48.5 -11t-53.5 -4q-31 0 -56.5 7t-43 21.5t-25 37t-2.5 52.5q5 29 22 56t52 53l-18 114h-262l-64 -124h-179l378 702h198zM409 514l-134 -260h175z" />
    <glyph glyph-name="aogonek" unicode="&#x105;" 
d="M27 280q12 66 40 119t68 90t88.5 57t99.5 20q63 0 101.5 -25t55.5 -62l14 79h171l-99 -558l-49 -23q-41 -19 -58.5 -33.5t-20.5 -31.5q-3 -15 7 -24t31 -9q32 0 79 15l-17 -96q-23 -7 -48.5 -11t-52.5 -4q-31 0 -57 7t-43 21t-25 35.5t-3 50.5q5 30 25 58t63 55l13 69
q-30 -37 -78 -62t-111 -25q-51 0 -92 20t-67.5 57.5t-36.5 91t2 119.5zM445 279q6 33 0.5 59t-19 43.5t-34.5 26.5t-45 9t-47.5 -9t-43.5 -26t-34.5 -43t-20.5 -59t-0.5 -59t19 -44t34 -27t44.5 -9t48 9t44 26.5t34.5 43.5t20.5 59z" />
    <glyph glyph-name="Cacute" unicode="&#x106;" horiz-adv-x="762" 
d="M45 352q14 79 51.5 144.5t92.5 113t124 74t147 26.5q63 0 114 -17t88.5 -49t60 -77.5t27.5 -102.5h-188q-14 44 -48 66t-84 22q-39 0 -74 -14t-63 -40t-47 -63t-27 -83t-2 -83t25 -63.5t49 -40.5t69 -14q49 0 91.5 22.5t71.5 66.5h188q-25 -57 -63.5 -102.5t-87.5 -77
t-106 -48.5t-120 -17q-78 0 -138 26t-98 73.5t-52.5 113t-0.5 144.5zM619 976l-23 -133l-260 -101l21 118z" />
    <glyph glyph-name="cacute" unicode="&#x107;" horiz-adv-x="605" 
d="M27 279q12 66 42 119t73.5 90.5t98 57.5t116.5 20q106 0 166 -55t65 -155h-182q-5 29 -24 46.5t-54 17.5q-46 0 -80.5 -35.5t-46.5 -105.5q-13 -70 9.5 -105.5t68.5 -35.5q35 0 59 16.5t40 47.5h183q-20 -48 -50 -87t-69.5 -66.5t-86.5 -42t-99 -14.5q-62 0 -109.5 20
t-78.5 57t-42 90.5t1 119.5zM512 830l-23 -133l-260 -101l21 118z" />
    <glyph glyph-name="Cdotaccent" unicode="&#x10a;" horiz-adv-x="762" 
d="M45 352q14 79 51.5 144.5t92.5 113t124 74t147 26.5q63 0 114 -17t88.5 -49t60 -77.5t27.5 -102.5h-188q-14 44 -48 66t-84 22q-39 0 -74 -14t-63 -40t-47 -63t-27 -83t-2 -83t25 -63.5t49 -40.5t69 -14q49 0 91.5 22.5t71.5 66.5h188q-25 -57 -63.5 -102.5t-87.5 -77
t-106 -48.5t-120 -17q-78 0 -138 26t-98 73.5t-52.5 113t-0.5 144.5zM465 766q-31 0 -48.5 21t-11.5 52q5 32 30 53t56 21q32 0 49 -21t12 -53q-5 -31 -30 -52t-57 -21z" />
    <glyph glyph-name="cdotaccent" unicode="&#x10b;" horiz-adv-x="605" 
d="M27 279q12 66 42 119t73.5 90.5t98 57.5t116.5 20q106 0 166 -55t65 -155h-182q-5 29 -24 46.5t-54 17.5q-46 0 -80.5 -35.5t-46.5 -105.5q-13 -70 9.5 -105.5t68.5 -35.5q35 0 59 16.5t40 47.5h183q-20 -48 -50 -87t-69.5 -66.5t-86.5 -42t-99 -14.5q-62 0 -109.5 20
t-78.5 57t-42 90.5t1 119.5zM357 620q-31 0 -48.5 21t-11.5 52q5 32 30 53t56 21q32 0 49 -21t12 -53q-5 -31 -30 -52t-57 -21z" />
    <glyph glyph-name="Ccaron" unicode="&#x10c;" horiz-adv-x="762" 
d="M45 352q14 79 51.5 144.5t92.5 113t124 74t147 26.5q63 0 114 -17t88.5 -49t60 -77.5t27.5 -102.5h-188q-14 44 -48 66t-84 22q-39 0 -74 -14t-63 -40t-47 -63t-27 -83t-2 -83t25 -63.5t49 -40.5t69 -14q49 0 91.5 22.5t71.5 66.5h188q-25 -57 -63.5 -102.5t-87.5 -77
t-106 -48.5t-120 -17q-78 0 -138 26t-98 73.5t-52.5 113t-0.5 144.5zM652 942l-21 -118l-170 -84l-140 84l21 118l140 -87z" />
    <glyph glyph-name="ccaron" unicode="&#x10d;" horiz-adv-x="605" 
d="M27 279q12 66 42 119t73.5 90.5t98 57.5t116.5 20q106 0 166 -55t65 -155h-182q-5 29 -24 46.5t-54 17.5q-46 0 -80.5 -35.5t-46.5 -105.5q-13 -70 9.5 -105.5t68.5 -35.5q35 0 59 16.5t40 47.5h183q-20 -48 -50 -87t-69.5 -66.5t-86.5 -42t-99 -14.5q-62 0 -109.5 20
t-78.5 57t-42 90.5t1 119.5zM544 796l-21 -118l-170 -84l-140 84l21 118l140 -87z" />
    <glyph glyph-name="Dcaron" unicode="&#x10e;" horiz-adv-x="727" 
d="M398 702q84 0 147.5 -25.5t103.5 -71.5t54.5 -111t0.5 -143t-51.5 -142.5t-93.5 -111t-128.5 -72t-156.5 -25.5h-263l124 702h263zM289 146q97 0 160.5 54t80.5 151t-27 151t-141 54h-82l-72 -410h81zM628 942l-21 -118l-170 -84l-140 84l21 118l140 -87z" />
    <glyph glyph-name="dcaron" unicode="&#x10f;" horiz-adv-x="834" 
d="M884 740q9 -65 -1 -118q-11 -68 -53 -110t-114 -42l12 65q51 0 63 66l3 16h-63l22 123h131zM27 280q12 66 40 119t68 90t88.5 57t99.5 20q56 0 97 -23.5t60 -61.5l46 259h171l-131 -740h-171l14 80q-30 -38 -77.5 -63t-109.5 -25q-51 0 -92.5 20t-68 57.5t-36.5 91
t2 119.5zM445 279q6 33 0.5 59t-19 43.5t-34.5 26.5t-45 9t-47.5 -9t-43.5 -26t-34.5 -43t-20.5 -59t-0.5 -59t19 -44t34 -27t44.5 -9t48 9t44 26.5t34.5 43.5t20.5 59z" />
    <glyph glyph-name="Dcroat" unicode="&#x110;" horiz-adv-x="732" 
d="M402 702q84 0 147.5 -25.5t103.5 -71.5t54.5 -111t0.5 -143t-51 -142.5t-93 -111t-129 -72t-157 -25.5h-263l52 292h-62l22 118h62l50 292h263zM294 146q97 0 160 54t80 151t-27 151t-141 54h-81l-25 -146h153l-21 -118h-152l-27 -146h81z" />
    <glyph glyph-name="dcroat" unicode="&#x111;" horiz-adv-x="692" 
d="M445 279q6 33 0.5 59t-19 43.5t-34.5 26.5t-45 9t-47.5 -9t-43.5 -26t-34.5 -43t-20.5 -59t-0.5 -59t19 -44t34 -27t44.5 -9t48 9t44 26.5t34.5 43.5t20.5 59zM27 280q12 66 40 119t68 90t88.5 57t99.5 20q56 0 97 -23.5t60 -61.5l20 110h-170l19 104h169l8 45h171
l-8 -45h62l-19 -104h-61l-105 -591h-171l14 80q-30 -38 -77.5 -63t-109.5 -25q-51 0 -92.5 20t-68 57.5t-36.5 91t2 119.5z" />
    <glyph glyph-name="Emacron" unicode="&#x112;" horiz-adv-x="541" 
d="M541 567h-259l-25 -146h229l-23 -129h-229l-28 -157h259l-24 -135h-430l124 702h430zM180 892h400l-21 -118h-400z" />
    <glyph glyph-name="emacron" unicode="&#x113;" horiz-adv-x="616" 
d="M332 429q-43 0 -77 -26t-49 -76h215q4 25 -1.5 44t-17.5 32t-30 19.5t-40 6.5zM557 185q-18 -41 -47 -76t-68 -61t-85.5 -41t-98.5 -15q-62 0 -110 20t-79 57t-42.5 90.5t0.5 119.5t42 119.5t73.5 90.5t99 57t117.5 20q61 0 109 -19.5t78.5 -55.5t42 -87.5t0.5 -114.5
q-4 -23 -12 -49h-387q-6 -56 19.5 -82.5t67.5 -26.5q36 0 60 15.5t38 38.5h182zM197 746h400l-21 -118h-400z" />
    <glyph glyph-name="Ebreve" unicode="&#x114;" horiz-adv-x="541" 
d="M541 567h-259l-25 -146h229l-23 -129h-229l-28 -157h259l-24 -135h-430l124 702h430zM555 923q-15 -84 -70.5 -128.5t-130.5 -44.5t-114.5 44t-25.5 129l4 19h85q-6 -32 9 -49.5t64 -17.5t70 17.5t27 49.5h85z" />
    <glyph glyph-name="ebreve" unicode="&#x115;" horiz-adv-x="616" 
d="M332 429q-43 0 -77 -26t-49 -76h215q4 25 -1.5 44t-17.5 32t-30 19.5t-40 6.5zM557 185q-18 -41 -47 -76t-68 -61t-85.5 -41t-98.5 -15q-62 0 -110 20t-79 57t-42.5 90.5t0.5 119.5t42 119.5t73.5 90.5t99 57t117.5 20q61 0 109 -19.5t78.5 -55.5t42 -87.5t0.5 -114.5
q-4 -23 -12 -49h-387q-6 -56 19.5 -82.5t67.5 -26.5q36 0 60 15.5t38 38.5h182zM573 777q-15 -84 -70.5 -128.5t-130.5 -44.5t-114.5 44t-25.5 129l4 19h85q-6 -32 9 -49.5t64 -17.5t70 17.5t27 49.5h85z" />
    <glyph glyph-name="Edotaccent" unicode="&#x116;" horiz-adv-x="541" 
d="M541 567h-259l-25 -146h229l-23 -129h-229l-28 -157h259l-24 -135h-430l124 702h430zM356 766q-31 0 -48.5 21t-11.5 52q5 32 30 53t56 21q32 0 49 -21t12 -53q-5 -31 -30 -52t-57 -21z" />
    <glyph glyph-name="edotaccent" unicode="&#x117;" horiz-adv-x="616" 
d="M332 429q-43 0 -77 -26t-49 -76h215q4 25 -1.5 44t-17.5 32t-30 19.5t-40 6.5zM557 185q-18 -41 -47 -76t-68 -61t-85.5 -41t-98.5 -15q-62 0 -110 20t-79 57t-42.5 90.5t0.5 119.5t42 119.5t73.5 90.5t99 57t117.5 20q61 0 109 -19.5t78.5 -55.5t42 -87.5t0.5 -114.5
q-4 -23 -12 -49h-387q-6 -56 19.5 -82.5t67.5 -26.5q36 0 60 15.5t38 38.5h182zM374 620q-31 0 -48.5 21t-11.5 52q5 32 30 53t56 21q32 0 49 -21t12 -53q-5 -31 -30 -52t-57 -21z" />
    <glyph glyph-name="Eogonek" unicode="&#x118;" horiz-adv-x="541" 
d="M541 567h-259l-25 -146h229l-23 -129h-229l-28 -157h259l-24 -135l-49 -23q-41 -19 -58.5 -33.5t-20.5 -31.5q-3 -15 7 -24t31 -9q32 0 79 15l-17 -96q-23 -7 -48.5 -11t-52.5 -4q-31 0 -57 7t-43 21t-25 35.5t-3 50.5q5 28 21.5 53t51.5 50h-246l124 702h430z" />
    <glyph glyph-name="eogonek" unicode="&#x119;" horiz-adv-x="616" 
d="M332 429q-43 0 -77 -26t-49 -76h215q4 25 -1.5 44t-17.5 32t-30 19.5t-40 6.5zM334 -191q-23 -7 -48.5 -11t-52.5 -4q-31 0 -57 7t-43 21t-25 35.5t-3 50.5q5 26 19.5 49.5t44.5 46.5q-41 13 -72 37.5t-49.5 59.5t-24.5 80t4 98q12 66 42 119.5t73.5 90.5t99 57t117.5 20
q61 0 109 -19.5t78.5 -55.5t42 -87.5t0.5 -114.5q-4 -23 -12 -49h-387q-6 -56 19.5 -82.5t67.5 -26.5q36 0 60 15.5t38 38.5h182q-27 -64 -82 -112.5t-128 -68.5l-34 -16q-41 -19 -58.5 -33.5t-20.5 -31.5q-3 -15 7 -24t31 -9q32 0 79 15z" />
    <glyph glyph-name="Ecaron" unicode="&#x11a;" horiz-adv-x="541" 
d="M541 567h-259l-25 -146h229l-23 -129h-229l-28 -157h259l-24 -135h-430l124 702h430zM543 942l-21 -118l-170 -84l-140 84l21 118l140 -87z" />
    <glyph glyph-name="ecaron" unicode="&#x11b;" horiz-adv-x="616" 
d="M332 429q-43 0 -77 -26t-49 -76h215q4 25 -1.5 44t-17.5 32t-30 19.5t-40 6.5zM557 185q-18 -41 -47 -76t-68 -61t-85.5 -41t-98.5 -15q-62 0 -110 20t-79 57t-42.5 90.5t0.5 119.5t42 119.5t73.5 90.5t99 57t117.5 20q61 0 109 -19.5t78.5 -55.5t42 -87.5t0.5 -114.5
q-4 -23 -12 -49h-387q-6 -56 19.5 -82.5t67.5 -26.5q36 0 60 15.5t38 38.5h182zM561 796l-21 -118l-170 -84l-140 84l21 118l140 -87z" />
    <glyph glyph-name="Gbreve" unicode="&#x11e;" horiz-adv-x="762" 
d="M45 352q14 79 51.5 144.5t93 113t125.5 74t149 26.5q127 0 202.5 -60.5t83.5 -169.5h-188q-28 72 -125 72q-42 0 -78 -14t-64.5 -40t-48 -63t-27.5 -83q-17 -98 25 -152t135 -54q65 0 114 32.5t78 92.5h-216l21 125h372l-28 -159q-22 -45 -58 -88.5t-85 -77.5t-109 -55
t-129 -21q-79 0 -140 26t-100 73.5t-53.5 113t-0.5 144.5zM664 923q-15 -84 -70.5 -128.5t-130.5 -44.5t-114.5 44t-25.5 129l4 19h85q-6 -32 9 -49.5t64 -17.5t70 17.5t27 49.5h85z" />
    <glyph glyph-name="gbreve" unicode="&#x11f;" 
d="M27 280q12 66 40 119t68 90t88.5 57t99.5 20q62 0 101.5 -24.5t55.5 -62.5l14 79h171l-98 -557q-10 -56 -35.5 -106t-66.5 -88t-97.5 -60t-128.5 -22q-63 0 -111 15t-80.5 43.5t-47.5 68.5t-12 90h169q3 -32 29 -50.5t71 -18.5q24 0 46.5 7t41 22t32 39.5t19.5 59.5
l14 79q-30 -37 -78 -62.5t-110 -25.5q-51 0 -92.5 20t-68 57.5t-36.5 91t2 119.5zM445 279q6 33 0.5 59t-19 43.5t-34.5 26.5t-45 9t-47.5 -9t-43.5 -26t-34.5 -43t-20.5 -59t-0.5 -59t19 -44t34 -27t44.5 -9t48 9t44 26.5t34.5 43.5t20.5 59zM600 777q-15 -84 -70.5 -128.5
t-130.5 -44.5t-114.5 44t-25.5 129l4 19h85q-6 -32 9 -49.5t64 -17.5t70 17.5t27 49.5h85z" />
    <glyph glyph-name="Gdotaccent" unicode="&#x120;" horiz-adv-x="762" 
d="M45 352q14 79 51.5 144.5t93 113t125.5 74t149 26.5q127 0 202.5 -60.5t83.5 -169.5h-188q-28 72 -125 72q-42 0 -78 -14t-64.5 -40t-48 -63t-27.5 -83q-17 -98 25 -152t135 -54q65 0 114 32.5t78 92.5h-216l21 125h372l-28 -159q-22 -45 -58 -88.5t-85 -77.5t-109 -55
t-129 -21q-79 0 -140 26t-100 73.5t-53.5 113t-0.5 144.5zM465 766q-31 0 -48.5 21t-11.5 52q5 32 30 53t56 21q32 0 49 -21t12 -53q-5 -31 -30 -52t-57 -21z" />
    <glyph glyph-name="gdotaccent" unicode="&#x121;" 
d="M27 280q12 66 40 119t68 90t88.5 57t99.5 20q62 0 101.5 -24.5t55.5 -62.5l14 79h171l-98 -557q-10 -56 -35.5 -106t-66.5 -88t-97.5 -60t-128.5 -22q-63 0 -111 15t-80.5 43.5t-47.5 68.5t-12 90h169q3 -32 29 -50.5t71 -18.5q24 0 46.5 7t41 22t32 39.5t19.5 59.5
l14 79q-30 -37 -78 -62.5t-110 -25.5q-51 0 -92.5 20t-68 57.5t-36.5 91t2 119.5zM445 279q6 33 0.5 59t-19 43.5t-34.5 26.5t-45 9t-47.5 -9t-43.5 -26t-34.5 -43t-20.5 -59t-0.5 -59t19 -44t34 -27t44.5 -9t48 9t44 26.5t34.5 43.5t20.5 59zM401 620q-31 0 -48.5 21
t-11.5 52q5 32 30 53t56 21q32 0 49 -21t12 -53q-5 -31 -30 -52t-57 -21z" />
    <glyph glyph-name="uni0122" unicode="&#x122;" horiz-adv-x="764" 
d="M387 -40q5 -32 5 -61.5t-5 -56.5q-12 -68 -53.5 -110t-113.5 -42l11 65q52 0 64 66l2 16h-63l22 123h131zM45 352q14 79 51.5 144.5t93 113t125.5 74t149 26.5q127 0 202.5 -60.5t83.5 -169.5h-188q-28 72 -125 72q-42 0 -78 -14t-64.5 -40t-48 -63t-27.5 -83
q-17 -98 25 -152t135 -54q65 0 114 32.5t78 92.5h-216l21 125h372l-28 -159q-22 -45 -58 -88.5t-85 -77.5t-109 -55t-129 -21q-79 0 -140 26t-100 73.5t-53.5 113t-0.5 144.5z" />
    <glyph glyph-name="uni0123" unicode="&#x123;" 
d="M341 598q-5 32 -4.5 61.5t5.5 56.5q12 68 53.5 110t112.5 42l-11 -65q-51 0 -64 -66l-2 -16h63l-22 -123h-131zM27 280q12 66 40 119t68 90t88.5 57t99.5 20q62 0 101.5 -24.5t55.5 -62.5l14 79h171l-98 -557q-10 -56 -35.5 -106t-66.5 -88t-97.5 -60t-128.5 -22
q-63 0 -111 15t-80.5 43.5t-47.5 68.5t-12 90h169q3 -32 29 -50.5t71 -18.5q24 0 46.5 7t41 22t32 39.5t19.5 59.5l14 79q-30 -37 -78 -62.5t-110 -25.5q-51 0 -92.5 20t-68 57.5t-36.5 91t2 119.5zM445 279q6 33 0.5 59t-19 43.5t-34.5 26.5t-45 9t-47.5 -9t-43.5 -26
t-34.5 -43t-20.5 -59t-0.5 -59t19 -44t34 -27t44.5 -9t48 9t44 26.5t34.5 43.5t20.5 59z" />
    <glyph glyph-name="Itilde" unicode="&#x128;" horiz-adv-x="295" 
d="M135 702h171l-124 -702h-171zM55 754q12 73 47 110t81 37q26 0 43 -6.5t29 -15t21 -15t19 -6.5q8 0 16 8t13 32h102q-11 -73 -47 -109.5t-81 -36.5q-26 0 -43 6.5t-29 14t-21 14t-18 6.5q-8 0 -16 -7t-13 -32h-103z" />
    <glyph glyph-name="itilde" unicode="&#x129;" horiz-adv-x="321" 
d="M123 558h171l-99 -558h-171zM55 618q11 73 43 110t74 37q24 0 39.5 -6.5t26.5 -15t19 -15t17 -6.5q8 0 15 8t12 32h93q-10 -73 -42.5 -109.5t-74.5 -36.5q-24 0 -39.5 6.5t-26.5 14t-19 14t-16 6.5t-15 -7t-12 -32h-94z" />
    <glyph glyph-name="Imacron" unicode="&#x12a;" horiz-adv-x="295" 
d="M135 702h171l-124 -702h-171zM55 892h400l-21 -118h-400z" />
    <glyph glyph-name="imacron" unicode="&#x12b;" horiz-adv-x="321" 
d="M123 558h171l-99 -558h-171zM42 746h400l-21 -118h-400z" />
    <glyph glyph-name="uni012C" unicode="&#x12c;" horiz-adv-x="295" 
d="M135 702h171l-124 -702h-171zM431 923q-15 -84 -70.5 -128.5t-130.5 -44.5t-114.5 44t-25.5 129l4 19h85q-6 -32 9 -49.5t64 -17.5t70 17.5t27 49.5h85z" />
    <glyph glyph-name="uni012D" unicode="&#x12d;" horiz-adv-x="321" 
d="M123 558h171l-99 -558h-171zM418 777q-15 -84 -70.5 -128.5t-130.5 -44.5t-114.5 44t-25.5 129l4 19h85q-6 -32 9 -49.5t64 -17.5t70 17.5t27 49.5h85z" />
    <glyph glyph-name="Iogonek" unicode="&#x12e;" horiz-adv-x="295" 
d="M154 -202q-23 -7 -48.5 -11t-52.5 -4q-31 0 -57 7t-43 21t-25 35.5t-3 50.5q5 30 25 58t63 54l122 693h171l-124 -702l-49 -23q-41 -19 -58.5 -33.5t-20.5 -31.5q-3 -15 7 -24t31 -9q32 0 79 15l-17 -96v0z" />
    <glyph glyph-name="iogonek" unicode="&#x12f;" horiz-adv-x="295" 
d="M154 -202q-23 -7 -48.5 -11t-52.5 -4q-31 0 -57 7t-43 21t-25 35.5t-3 50.5q5 30 25 58t63 54l96 549h171l-98 -558l-49 -23q-41 -19 -58.5 -33.5t-20.5 -31.5q-3 -15 7 -24t31 -9q32 0 79 15zM206 616q-46 0 -69.5 27t-16.5 65q8 39 40.5 66t78.5 27q45 0 68.5 -27
t16.5 -66q-8 -38 -40.5 -65t-77.5 -27z" />
    <glyph glyph-name="Idotaccent" unicode="&#x130;" horiz-adv-x="295" 
d="M135 702h171l-124 -702h-171zM232 766q-31 0 -48.5 21t-11.5 52q5 32 30 53t56 21q32 0 49 -21t12 -53q-5 -31 -30 -52t-57 -21z" />
    <glyph glyph-name="dotlessi" unicode="&#x131;" horiz-adv-x="321" 
d="M123 558h171l-99 -558h-171z" />
    <glyph glyph-name="uni0136" unicode="&#x136;" horiz-adv-x="720" 
d="M365 -40q5 -32 4.5 -61.5t-5.5 -56.5q-12 -68 -53 -110t-113 -42l12 65q51 0 63 66l3 16h-64l22 123h131zM237 310l-55 -310h-171l124 702h171l-54 -308l289 308h200l-333 -344l219 -358h-209z" />
    <glyph glyph-name="uni0137" unicode="&#x137;" horiz-adv-x="618" 
d="M317 -40q9 -62 -2 -118q-12 -68 -53 -110t-113 -42l12 65q51 0 64 66l2 16h-63l22 123h131zM142 740h171l-72 -408l208 226h211l-281 -280l185 -278h-212l-129 233l-41 -233h-171z" />
    <glyph glyph-name="Lacute" unicode="&#x139;" horiz-adv-x="477" 
d="M306 702l-101 -572h224l-23 -130h-395l124 702h171zM465 976l-23 -133l-260 -101l21 118z" />
    <glyph glyph-name="lacute" unicode="&#x13a;" horiz-adv-x="295" 
d="M142 740h171l-131 -740h-171zM392 1012l-23 -133l-260 -101l21 118z" />
    <glyph glyph-name="uni013B" unicode="&#x13b;" horiz-adv-x="479" 
d="M275 -40q5 -32 5 -61.5t-5 -56.5q-12 -68 -53.5 -110t-113.5 -42l11 65q52 0 64 66l2 16h-63l22 123h131zM306 702l-101 -572h224l-23 -130h-395l124 702h171z" />
    <glyph glyph-name="uni013C" unicode="&#x13c;" horiz-adv-x="295" 
d="M156 -40q5 -32 4.5 -61.5t-5.5 -56.5q-12 -68 -53.5 -110t-113.5 -42l12 65q52 0 64 66l2 16h-63l22 123h131zM142 740h171l-131 -740h-171z" />
    <glyph glyph-name="Lcaron" unicode="&#x13d;" horiz-adv-x="523" 
d="M539 702q5 -32 4.5 -61.5t-5.5 -56.5q-12 -68 -53.5 -110t-112.5 -42l11 65q53 0 63 66l3 16h-63l22 123h131zM306 702l-101 -572h224l-23 -130h-395l124 702h171z" />
    <glyph glyph-name="lcaron" unicode="&#x13e;" horiz-adv-x="474" 
d="M509 740q9 -62 -2 -118q-11 -68 -52.5 -110t-113.5 -42l12 65q51 0 63 66l3 16h-63l22 123h131zM142 740h171l-131 -740h-171z" />
    <glyph glyph-name="Ldot" unicode="&#x13f;" horiz-adv-x="477" 
d="M306 702l-101 -572h224l-23 -130h-395l124 702h171zM310 766q-31 0 -48.5 21t-11.5 52q5 32 30 53t56 21q32 0 49 -21t12 -53q-5 -31 -30 -52t-57 -21z" />
    <glyph glyph-name="ldot" unicode="&#x140;" horiz-adv-x="295" 
d="M234 781q-31 0 -48.5 21t-11.5 53q5 32 29.5 53t56.5 21t49 -21t12 -53t-30 -53t-57 -21zM142 740h171l-131 -740h-171z" />
    <glyph glyph-name="Lslash" unicode="&#x141;" horiz-adv-x="485" 
d="M320 702l-40 -227l87 25l-29 -165l-87 -24l-32 -181h223l-23 -130h-395l46 260l-69 -19l29 163l69 20l49 278h172z" />
    <glyph glyph-name="lslash" unicode="&#x142;" horiz-adv-x="321" 
d="M70 259l-69 -20l29 164l69 20l56 317h171l-47 -266l69 20l-29 -164l-69 -20l-55 -310h-171z" />
    <glyph glyph-name="Nacute" unicode="&#x143;" horiz-adv-x="752" 
d="M763 702l-124 -702h-171l-209 433l-77 -433h-171l124 702h171l209 -435l77 435h171zM614 976l-23 -133l-260 -101l21 118z" />
    <glyph glyph-name="nacute" unicode="&#x144;" horiz-adv-x="674" 
d="M573 830l-23 -133l-260 -101l21 118zM450 303q10 57 -14 87.5t-72 30.5q-50 0 -84 -30.5t-44 -87.5v5l-54 -308h-171l98 558h171l-13 -75q32 36 79 58.5t104 22.5q98 0 146 -62.5t28 -175.5l-58 -326h-170z" />
    <glyph glyph-name="uni0145" unicode="&#x145;" horiz-adv-x="778" 
d="M394 -40q5 -32 5 -61.5t-5 -56.5q-13 -68 -54 -110t-113 -42l11 65q52 0 64 66l2 16h-63l22 123h131zM763 702l-124 -702h-171l-209 433l-77 -433h-171l124 702h171l209 -435l77 435h171z" />
    <glyph glyph-name="uni0146" unicode="&#x146;" horiz-adv-x="674" 
d="M355 -40q5 -32 4.5 -61.5t-5.5 -56.5q-12 -68 -53 -110t-113 -42l12 65q51 0 63 66l3 16h-63l21 123h131zM450 303q10 57 -14 87.5t-72 30.5q-50 0 -84 -30.5t-44 -87.5v5l-54 -308h-171l98 558h171l-13 -75q32 36 79 58.5t104 22.5q98 0 146 -62.5t28 -175.5l-58 -326
h-170z" />
    <glyph glyph-name="Ncaron" unicode="&#x147;" horiz-adv-x="752" 
d="M763 702l-124 -702h-171l-209 433l-77 -433h-171l124 702h171l209 -435l77 435h171zM647 942l-21 -118l-170 -84l-140 84l21 118l140 -87z" />
    <glyph glyph-name="ncaron" unicode="&#x148;" horiz-adv-x="674" 
d="M450 303q10 57 -14 87.5t-72 30.5q-50 0 -84 -30.5t-44 -87.5v5l-54 -308h-171l98 558h171l-13 -75q32 36 79 58.5t104 22.5q98 0 146 -62.5t28 -175.5l-58 -326h-170zM606 796l-21 -118l-170 -84l-140 84l21 118l140 -87z" />
    <glyph glyph-name="Omacron" unicode="&#x14c;" horiz-adv-x="786" 
d="M762 420q0 -93 -30.5 -171.5t-85.5 -135.5t-132 -88.5t-169 -31.5q-68 0 -123 21.5t-94 60.5t-60 93t-21 120q0 93 30.5 171t85.5 134.5t131.5 87.5t167.5 31q69 0 124.5 -21t94.5 -59.5t60 -92.5t21 -119zM218 306q0 -72 39 -113.5t114 -41.5q51 0 92 20.5t69.5 55
t44 79.5t15.5 95q0 72 -39.5 113t-112.5 41q-51 0 -92.5 -20t-70 -54t-44 -79.5t-15.5 -95.5zM299 896h400l-21 -118h-400z" />
    <glyph glyph-name="omacron" unicode="&#x14d;" horiz-adv-x="637" 
d="M613 331q0 -73 -26.5 -135t-73.5 -107.5t-110.5 -71t-136.5 -25.5q-55 0 -100 16.5t-77.5 47.5t-50 74t-17.5 96q0 72 26 134.5t72 108t109.5 71.5t137.5 26q55 0 100.5 -17t78 -47.5t50.5 -74t18 -96.5zM197 241q0 -51 26.5 -76.5t66.5 -25.5q33 0 60 15.5t46 40
t29.5 56t10.5 64.5q0 53 -28 78.5t-67 25.5q-33 0 -60 -15.5t-45.5 -40.5t-28.5 -57t-10 -65zM200 754h400l-21 -118h-400z" />
    <glyph glyph-name="uni014E" unicode="&#x14e;" horiz-adv-x="786" 
d="M762 420q0 -93 -30.5 -171.5t-85.5 -135.5t-132 -88.5t-169 -31.5q-68 0 -123 21.5t-94 60.5t-60 93t-21 120q0 93 30.5 171t85.5 134.5t131.5 87.5t167.5 31q69 0 124.5 -21t94.5 -59.5t60 -92.5t21 -119zM218 306q0 -72 39 -113.5t114 -41.5q51 0 92 20.5t69.5 55
t44 79.5t15.5 95q0 72 -39.5 113t-112.5 41q-51 0 -92.5 -20t-70 -54t-44 -79.5t-15.5 -95.5zM675 927q-15 -84 -70.5 -128.5t-130.5 -44.5t-114.5 44t-25.5 129l4 19h85q-6 -32 9 -49.5t64 -17.5t70 17.5t27 49.5h85z" />
    <glyph glyph-name="uni014F" unicode="&#x14f;" horiz-adv-x="637" 
d="M613 331q0 -73 -26.5 -135t-73.5 -107.5t-110.5 -71t-136.5 -25.5q-55 0 -100 16.5t-77.5 47.5t-50 74t-17.5 96q0 72 26 134.5t72 108t109.5 71.5t137.5 26q55 0 100.5 -17t78 -47.5t50.5 -74t18 -96.5zM197 241q0 -51 26.5 -76.5t66.5 -25.5q33 0 60 15.5t46 40
t29.5 56t10.5 64.5q0 53 -28 78.5t-67 25.5q-33 0 -60 -15.5t-45.5 -40.5t-28.5 -57t-10 -65zM575 785q-15 -84 -70.5 -128.5t-130.5 -44.5t-114.5 44t-25.5 129l4 19h85q-6 -32 9 -49.5t64 -17.5t70 17.5t27 49.5h85z" />
    <glyph glyph-name="Ohungarumlaut" unicode="&#x150;" horiz-adv-x="786" 
d="M762 420q0 -93 -30.5 -171.5t-85.5 -135.5t-132 -88.5t-169 -31.5q-68 0 -123 21.5t-94 60.5t-60 93t-21 120q0 93 30.5 171t85.5 134.5t131.5 87.5t167.5 31q69 0 124.5 -21t94.5 -59.5t60 -92.5t21 -119zM218 306q0 -72 39 -113.5t114 -41.5q51 0 92 20.5t69.5 55
t44 79.5t15.5 95q0 72 -39.5 113t-112.5 41q-51 0 -92.5 -20t-70 -54t-44 -79.5t-15.5 -95.5zM771 960l-162 -209h-105l132 209h135zM558 960l-142 -209h-105l112 209h135z" />
    <glyph glyph-name="ohungarumlaut" unicode="&#x151;" horiz-adv-x="637" 
d="M613 331q0 -73 -26.5 -135t-73.5 -107.5t-110.5 -71t-136.5 -25.5q-55 0 -100 16.5t-77.5 47.5t-50 74t-17.5 96q0 72 26 134.5t72 108t109.5 71.5t137.5 26q55 0 100.5 -17t78 -47.5t50.5 -74t18 -96.5zM197 241q0 -51 26.5 -76.5t66.5 -25.5q33 0 60 15.5t46 40
t29.5 56t10.5 64.5q0 53 -28 78.5t-67 25.5q-33 0 -60 -15.5t-45.5 -40.5t-28.5 -57t-10 -65zM672 818l-162 -209h-105l132 209h135zM459 818l-142 -209h-105l112 209h135z" />
    <glyph glyph-name="OE" unicode="&#x152;" horiz-adv-x="1069" 
d="M810 567l-26 -146h230l-23 -130h-230l-27 -156h259l-24 -135h-430l13 72q-46 -42 -102 -61t-117 -21q-73 0 -131.5 26.5t-96.5 74.5t-53.5 114.5t-1.5 146.5q14 79 52.5 145.5t94 114t123 74t140.5 26.5q61 0 110 -19.5t81 -60.5l12 70h430l-24 -135h-259zM446 555
q-42 0 -79 -14.5t-65.5 -40.5t-48.5 -64t-28 -84q-8 -47 -2 -84.5t25.5 -64.5t51.5 -41.5t74 -14.5t79 14.5t66 41.5t49 64.5t28 84.5q8 46 1.5 84t-26 64t-51.5 40.5t-74 14.5z" />
    <glyph glyph-name="oe" unicode="&#x153;" horiz-adv-x="1041" 
d="M433 279q6 36 1 62t-18.5 43.5t-33 26t-42.5 8.5t-45.5 -8.5t-41 -26t-32.5 -43.5t-20 -62q-6 -35 -2 -61.5t16.5 -44t32 -26t42.5 -8.5t45.5 8.5t42 26t34.5 44t21 61.5zM743 429q-44 0 -78 -26.5t-49 -77.5h215q8 51 -18.5 77.5t-69.5 26.5zM27 279q12 66 43.5 119.5
t77 90.5t102 57t118.5 20q61 0 109 -22t78 -62q43 40 97.5 62t117.5 22q61 0 108.5 -19.5t78.5 -55.5t42.5 -87.5t0.5 -114.5q-2 -12 -5.5 -24t-8.5 -25h-385q-7 -57 17.5 -83t66.5 -26q37 0 60.5 15.5t37.5 38.5h183q-18 -41 -47.5 -76t-68 -61t-85.5 -41t-99 -15
q-61 0 -107.5 21.5t-75.5 62.5q-45 -41 -101 -62.5t-118 -21.5t-111 20t-81 57t-44.5 90.5t-0.5 119.5z" />
    <glyph glyph-name="Racute" unicode="&#x154;" horiz-adv-x="652" 
d="M466 474q8 40 -11.5 64t-67.5 24h-106l-31 -176h106q48 0 75 23t35 65zM422 702q64 0 109.5 -17.5t72.5 -47.5t36 -70t1 -86q-6 -33 -20.5 -64.5t-38.5 -58t-57 -47.5t-76 -33l113 -278h-193l-99 265h-41l-47 -265h-171l124 702h287zM559 976l-23 -133l-260 -101l21 118z
" />
    <glyph glyph-name="racute" unicode="&#x155;" horiz-adv-x="428" 
d="M182 0h-171l98 558h171l-18 -101q38 48 88 77.5t107 29.5l-32 -181h-47q-61 0 -99 -26t-51 -98zM471 830l-23 -133l-260 -101l21 118z" />
    <glyph glyph-name="uni0156" unicode="&#x156;" horiz-adv-x="668" 
d="M339 -40q5 -32 5 -61.5t-5 -56.5q-13 -68 -54 -110t-113 -42l11 65q52 0 64 66l2 16h-62l21 123h131zM11 0l124 702h287q64 0 109.5 -17.5t72.5 -47.5t36 -70t1 -86q-6 -33 -20.5 -64.5t-38.5 -58t-57 -47.5t-76 -33l113 -278h-193l-99 265h-41l-47 -265h-171zM466 474
q8 40 -11.5 64t-67.5 24h-106l-31 -176h106q48 0 75 23t35 65z" />
    <glyph glyph-name="uni0157" unicode="&#x157;" horiz-adv-x="428" 
d="M152 -40q5 -32 4.5 -61.5t-5.5 -56.5q-12 -68 -53.5 -110t-112.5 -42l11 65q51 0 64 66l2 16h-63l22 123h131zM182 0h-171l98 558h171l-18 -101q38 48 88 77.5t107 29.5l-32 -181h-47q-61 0 -99 -26t-51 -98z" />
    <glyph glyph-name="Rcaron" unicode="&#x158;" horiz-adv-x="652" 
d="M466 474q8 40 -11.5 64t-67.5 24h-106l-31 -176h106q48 0 75 23t35 65zM422 702q64 0 109.5 -17.5t72.5 -47.5t36 -70t1 -86q-6 -33 -20.5 -64.5t-38.5 -58t-57 -47.5t-76 -33l113 -278h-193l-99 265h-41l-47 -265h-171l124 702h287zM592 942l-21 -118l-170 -84l-140 84
l21 118l140 -87z" />
    <glyph glyph-name="rcaron" unicode="&#x159;" horiz-adv-x="428" 
d="M182 0h-171l98 558h171l-18 -101q38 48 88 77.5t107 29.5l-32 -181h-47q-61 0 -99 -26t-51 -98zM504 796l-21 -118l-170 -84l-140 84l21 118l140 -87z" />
    <glyph glyph-name="Sacute" unicode="&#x15a;" horiz-adv-x="622" 
d="M563 208q0 -47 -19 -86t-54 -68t-86 -45t-114 -16q-59 0 -108.5 14t-84 41t-51.5 67.5t-11 94.5h178q-3 -37 17.5 -59.5t64.5 -22.5q38 0 61 16.5t23 48.5q0 28 -22 46.5t-55.5 34t-72.5 31t-72.5 39t-56.5 57.5t-23 86q-1 53 19.5 95t57 71t86.5 44t110 15
q58 0 105 -14.5t80 -41.5t49 -66t11 -88h-182q5 33 -14.5 54t-57.5 21q-36 0 -58.5 -17.5t-22.5 -47.5q0 -27 22.5 -45.5t56 -35t73 -34t73 -42.5t56 -60t22.5 -87zM555 976l-23 -133l-260 -101l21 118z" />
    <glyph glyph-name="sacute" unicode="&#x15b;" horiz-adv-x="558" 
d="M493 165q0 -41 -19 -73.5t-52.5 -54.5t-79 -33.5t-99.5 -11.5t-99 14t-76 39t-46 60.5t-8 77.5h165q-2 -32 18.5 -50t58.5 -18q30 0 52 11.5t22 34.5q0 20 -20.5 32.5t-51 23t-66.5 22.5t-66.5 31.5t-51 48.5t-20.5 75q0 37 16.5 68.5t47 54.5t73 36t95.5 13
q55 0 98.5 -14.5t73 -40t43.5 -60.5t11 -75h-155q2 30 -17.5 48t-57.5 18q-29 0 -47.5 -12t-18.5 -33t20.5 -34t51.5 -24.5t66.5 -24t66.5 -31.5t51.5 -47t20.5 -71zM498 830l-23 -133l-260 -101l21 118z" />
    <glyph glyph-name="uni015E" unicode="&#x15e;" horiz-adv-x="622" 
d="M563 208q0 -43 -16.5 -80t-47 -65.5t-75 -46.5t-100.5 -22l-6 -35q22 0 44.5 -6t38.5 -19.5t24 -35.5t2 -53q-5 -31 -21 -53t-38 -36t-48 -20.5t-52 -6.5h-154l17 94h130q19 0 31 5.5t14 20.5q3 14 -6.5 19.5t-28.5 5.5h-71l22 124q-45 7 -82 24t-62 43.5t-36.5 63
t-6.5 81.5h178q-3 -37 17.5 -59.5t64.5 -22.5q38 0 61 16.5t23 48.5q0 28 -22 46.5t-55.5 34t-72.5 31t-72.5 39t-56.5 57.5t-23 86q-1 53 19.5 95t57 71t86.5 44t110 15q58 0 105 -14.5t80 -41.5t49 -66t11 -88h-182q5 33 -14.5 54t-57.5 21q-36 0 -58.5 -17.5t-22.5 -47.5
q0 -27 22.5 -45.5t56 -35t73 -34t73 -42.5t56 -60t22.5 -87z" />
    <glyph glyph-name="uni015F" unicode="&#x15f;" horiz-adv-x="558" 
d="M493 165q0 -36 -15 -65.5t-41.5 -51t-63.5 -35t-81 -18.5l-6 -36q22 0 44.5 -6t38.5 -19.5t24 -35.5t2 -53q-5 -31 -21 -53t-38 -36t-48 -20.5t-52 -6.5h-154l17 94h130q19 0 31 5.5t14 20.5q3 14 -6.5 19.5t-28.5 5.5h-71l22 122q-43 6 -78 22.5t-59 40.5t-34.5 55.5
t-4.5 68.5h165q-2 -32 18.5 -50t58.5 -18q30 0 52 11.5t22 34.5q0 20 -20.5 32.5t-51 23t-66.5 22.5t-66.5 31.5t-51 48.5t-20.5 75q0 37 16.5 68.5t47 54.5t73 36t95.5 13q55 0 98.5 -14.5t73 -40t43.5 -60.5t11 -75h-155q2 30 -17.5 48t-57.5 18q-29 0 -47.5 -12
t-18.5 -33t20.5 -34t51.5 -24.5t66.5 -24t66.5 -31.5t51.5 -47t20.5 -71z" />
    <glyph glyph-name="Scaron" unicode="&#x160;" horiz-adv-x="622" 
d="M563 208q0 -47 -19 -86t-54 -68t-86 -45t-114 -16q-59 0 -108.5 14t-84 41t-51.5 67.5t-11 94.5h178q-3 -37 17.5 -59.5t64.5 -22.5q38 0 61 16.5t23 48.5q0 28 -22 46.5t-55.5 34t-72.5 31t-72.5 39t-56.5 57.5t-23 86q-1 53 19.5 95t57 71t86.5 44t110 15
q58 0 105 -14.5t80 -41.5t49 -66t11 -88h-182q5 33 -14.5 54t-57.5 21q-36 0 -58.5 -17.5t-22.5 -47.5q0 -27 22.5 -45.5t56 -35t73 -34t73 -42.5t56 -60t22.5 -87zM588 942l-21 -118l-170 -84l-140 84l21 118l140 -87z" />
    <glyph glyph-name="scaron" unicode="&#x161;" horiz-adv-x="558" 
d="M493 165q0 -41 -19 -73.5t-52.5 -54.5t-79 -33.5t-99.5 -11.5t-99 14t-76 39t-46 60.5t-8 77.5h165q-2 -32 18.5 -50t58.5 -18q30 0 52 11.5t22 34.5q0 20 -20.5 32.5t-51 23t-66.5 22.5t-66.5 31.5t-51 48.5t-20.5 75q0 37 16.5 68.5t47 54.5t73 36t95.5 13
q55 0 98.5 -14.5t73 -40t43.5 -60.5t11 -75h-155q2 30 -17.5 48t-57.5 18q-29 0 -47.5 -12t-18.5 -33t20.5 -34t51.5 -24.5t66.5 -24t66.5 -31.5t51.5 -47t20.5 -71zM530 796l-21 -118l-170 -84l-140 84l21 118l140 -87z" />
    <glyph glyph-name="uni0162" unicode="&#x162;" horiz-adv-x="591" 
d="M97 702h543l-23 -135h-187l-100 -567h-30l-7 -41q22 0 44.5 -6t38.5 -19.5t24 -35.5t2 -53q-5 -31 -21 -53t-38 -36t-48 -20.5t-52 -6.5h-154l17 94h130q19 0 31 5.5t14 20.5q3 14 -6.5 19.5t-28.5 5.5h-71l22 126h-38l100 567h-186z" />
    <glyph glyph-name="uni0163" unicode="&#x163;" horiz-adv-x="406" 
d="M112 416h-68l25 142h68l24 136h171l-24 -136h112l-25 -142h-112l-40 -224q-4 -25 5.5 -36t38.5 -11h61l-26 -145h-87h-13l-6 -37q22 0 44 -6t38.5 -19.5t24.5 -35.5t2 -53t-22 -53t-38 -36t-48 -20.5t-52 -6.5h-153l16 94h131q19 0 30.5 5.5t13.5 20.5q3 14 -6.5 19.5
t-28.5 5.5h-71l26 147q-34 20 -48 61t-3 108z" />
    <glyph glyph-name="Tcaron" unicode="&#x164;" horiz-adv-x="591" 
d="M97 702h543l-23 -135h-187l-100 -567h-171l100 567h-186zM564 942l-21 -118l-170 -84l-140 84l21 118l140 -87z" />
    <glyph glyph-name="tcaron" unicode="&#x165;" horiz-adv-x="408" 
d="M540 840q5 -32 5.5 -56.5t-4.5 -51.5q-11 -60 -51.5 -96t-112.5 -36l12 65q52 0 58 36l2 16h-63l23 123h131zM112 416h-68l25 142h68l24 136h171l-24 -136h112l-25 -142h-112l-40 -224q-4 -25 5.5 -36t38.5 -11h61l-26 -145h-87q-44 0 -78 10t-56 32.5t-30 60t1 91.5z
" />
    <glyph glyph-name="Utilde" unicode="&#x168;" horiz-adv-x="705" 
d="M132 702h171l-74 -419q-11 -63 13.5 -97t85.5 -34t98.5 34t48.5 97l74 419h171l-74 -419q-13 -74 -46 -128.5t-79.5 -90.5t-103.5 -53.5t-119 -17.5q-61 0 -110.5 18t-82.5 54t-46 90.5t0 127.5zM249 754q12 73 47 110t81 37q26 0 43 -6.5t29 -15t21 -15t19 -6.5
q8 0 16 8t13 32h102q-11 -73 -47 -109.5t-81 -36.5q-26 0 -43 6.5t-29 14t-21 14t-18 6.5q-8 0 -16 -7t-13 -32h-103z" />
    <glyph glyph-name="utilde" unicode="&#x169;" horiz-adv-x="674" 
d="M404 76q-32 -36 -78.5 -59t-103.5 -23q-49 0 -86 16t-60 47t-31 75t2 100l58 326h170l-53 -303q-11 -57 13 -87.5t73 -30.5q48 0 81.5 28.5t44.5 82.5l55 310h171l-98 -558h-171zM206 618q12 73 47 110t81 37q26 0 43 -6.5t29 -15t21 -15t19 -6.5q8 0 16 8t13 32h102
q-11 -73 -47 -109.5t-81 -36.5q-26 0 -43 6.5t-29 14t-21 14t-18 6.5q-8 0 -16 -7t-13 -32h-103z" />
    <glyph glyph-name="Umacron" unicode="&#x16a;" horiz-adv-x="705" 
d="M132 702h171l-74 -419q-11 -63 13.5 -97t85.5 -34t98.5 34t48.5 97l74 419h171l-74 -419q-13 -74 -46 -128.5t-79.5 -90.5t-103.5 -53.5t-119 -17.5q-61 0 -110.5 18t-82.5 54t-46 90.5t0 127.5zM260 892h400l-21 -118h-400z" />
    <glyph glyph-name="umacron" unicode="&#x16b;" horiz-adv-x="674" 
d="M562 0h-171l13 76q-32 -36 -78.5 -59t-103.5 -23q-49 0 -86 16t-60 47t-31 75t2 100l58 326h170l-53 -303q-11 -57 13 -87.5t73 -30.5q48 0 81.5 28.5t44.5 82.5l55 310h171zM219 746h400l-21 -118h-400z" />
    <glyph glyph-name="Ubreve" unicode="&#x16c;" horiz-adv-x="705" 
d="M132 702h171l-74 -419q-11 -63 13.5 -97t85.5 -34t98.5 34t48.5 97l74 419h171l-74 -419q-13 -74 -46 -128.5t-79.5 -90.5t-103.5 -53.5t-119 -17.5q-61 0 -110.5 18t-82.5 54t-46 90.5t0 127.5zM636 923q-15 -84 -70.5 -128.5t-130.5 -44.5t-114.5 44t-25.5 129l4 19h85
q-6 -32 9 -49.5t64 -17.5t70 17.5t27 49.5h85z" />
    <glyph glyph-name="ubreve" unicode="&#x16d;" horiz-adv-x="674" 
d="M562 0h-171l13 76q-32 -36 -78.5 -59t-103.5 -23q-49 0 -86 16t-60 47t-31 75t2 100l58 326h170l-53 -303q-11 -57 13 -87.5t73 -30.5q48 0 81.5 28.5t44.5 82.5l55 310h171zM595 777q-15 -84 -70.5 -128.5t-130.5 -44.5t-114.5 44t-25.5 129l4 19h85q-6 -32 9 -49.5
t64 -17.5t70 17.5t27 49.5h85z" />
    <glyph glyph-name="Uring" unicode="&#x16e;" horiz-adv-x="705" 
d="M132 702h171l-74 -419q-11 -63 13.5 -97t85.5 -34t98.5 34t48.5 97l74 419h171l-74 -419q-13 -74 -46 -128.5t-79.5 -90.5t-103.5 -53.5t-119 -17.5q-61 0 -110.5 18t-82.5 54t-46 90.5t0 127.5zM334 866q11 57 51.5 89t91.5 32q25 0 45.5 -8.5t34 -24t19 -38t0.5 -50.5
q-10 -57 -50.5 -89t-91.5 -32q-25 0 -45.5 8.5t-34.5 24t-19.5 38t-0.5 50.5zM504 866q5 23 -7.5 36t-32.5 13t-36.5 -13t-20.5 -36q-4 -22 8 -35.5t32 -13.5t36.5 13.5t20.5 35.5z" />
    <glyph glyph-name="uring" unicode="&#x16f;" horiz-adv-x="674" 
d="M562 0h-171l13 76q-32 -36 -78.5 -59t-103.5 -23q-49 0 -86 16t-60 47t-31 75t2 100l58 326h170l-53 -303q-11 -57 13 -87.5t73 -30.5q48 0 81.5 28.5t44.5 82.5l55 310h171zM463 720q5 23 -7.5 36t-32.5 13t-36.5 -13t-20.5 -36q-4 -22 8 -35.5t32 -13.5t36.5 13.5
t20.5 35.5zM293 720q11 57 51.5 89t91.5 32q25 0 45.5 -8.5t34 -24t19 -38t0.5 -50.5q-10 -57 -50.5 -89t-91.5 -32q-25 0 -45.5 8.5t-34.5 24t-19.5 38t-0.5 50.5z" />
    <glyph glyph-name="Uhungarumlaut" unicode="&#x170;" horiz-adv-x="705" 
d="M132 702h171l-74 -419q-11 -63 13.5 -97t85.5 -34t98.5 34t48.5 97l74 419h171l-74 -419q-13 -74 -46 -128.5t-79.5 -90.5t-103.5 -53.5t-119 -17.5q-61 0 -110.5 18t-82.5 54t-46 90.5t0 127.5zM732 956l-162 -209h-105l132 209h135zM519 956l-142 -209h-105l112 209
h135z" />
    <glyph glyph-name="uhungarumlaut" unicode="&#x171;" horiz-adv-x="674" 
d="M562 0h-171l13 76q-32 -36 -78.5 -59t-103.5 -23q-49 0 -86 16t-60 47t-31 75t2 100l58 326h170l-53 -303q-11 -57 13 -87.5t73 -30.5q48 0 81.5 28.5t44.5 82.5l55 310h171zM478 810l-142 -209h-105l112 209h135zM691 810l-162 -209h-105l132 209h135z" />
    <glyph glyph-name="Uogonek" unicode="&#x172;" horiz-adv-x="705" 
d="M132 702h171l-74 -419q-11 -63 13.5 -97t85.5 -34t98.5 34t48.5 97l74 419h171l-74 -419q-11 -61 -35 -108.5t-58.5 -82.5t-77.5 -57.5t-91 -32.5l-49 -23q-41 -19 -58.5 -33.5t-20.5 -31.5q-3 -15 7 -24t31 -9q32 0 79 15l-17 -96q-23 -7 -48.5 -11t-52.5 -4
q-31 0 -57 7t-43 21t-25 35.5t-3 50.5t22.5 54.5t55.5 51.5q-41 12 -73 35.5t-51.5 58t-26 80.5t4.5 104z" />
    <glyph glyph-name="uogonek" unicode="&#x173;" horiz-adv-x="674" 
d="M562 0h-1l1 -2l-49 -23q-41 -19 -58.5 -33.5t-20.5 -31.5q-3 -15 7 -24t31 -9q32 0 79 15l-17 -96q-23 -7 -48.5 -11t-52.5 -4q-31 0 -57 7t-43 21t-25 35.5t-3 50.5q5 30 25 57.5t62 54.5l12 69q-32 -36 -78.5 -59t-103.5 -23q-49 0 -86 16t-60 47t-31 75t2 100l58 326
h170l-53 -303q-11 -57 13 -87.5t73 -30.5q48 0 81.5 28.5t44.5 82.5l55 310h171z" />
    <glyph glyph-name="Wcircumflex" unicode="&#x174;" horiz-adv-x="1052" 
d="M98 702h183l11 -511l215 511h189l30 -508l191 508h184l-307 -702h-207l-31 461l-197 -461h-207zM733 741l-139 87l-171 -87l21 118l170 84l140 -84z" />
    <glyph glyph-name="wcircumflex" unicode="&#x175;" horiz-adv-x="866" 
d="M52 558h171l8 -399l165 399h181l25 -399l148 399h161l-250 -558h-189l-24 362l-155 -362h-188zM643 594l-139 87l-171 -87l21 118l170 84l140 -84z" />
    <glyph glyph-name="Ycircumflex" unicode="&#x176;" horiz-adv-x="671" 
d="M80 702h194l84 -293l187 293h192l-325 -470l-42 -232h-171l42 232zM571 740l-139 87l-171 -87l21 118l170 84l140 -84z" />
    <glyph glyph-name="ycircumflex" unicode="&#x177;" horiz-adv-x="632" 
d="M47 558h190l68 -349l190 349h185l-495 -823h-184l178 284zM525 594l-139 87l-171 -87l21 118l170 84l140 -84z" />
    <glyph glyph-name="Ydieresis" unicode="&#x178;" horiz-adv-x="671" 
d="M80 702h194l84 -293l187 293h192l-325 -470l-42 -232h-171l42 232zM320 766q-27 0 -44.5 17t-17.5 43q0 18 7.5 34t19.5 27.5t28 18.5t33 7q28 0 45 -17t17 -43q0 -18 -7.5 -34t-19.5 -27.5t-28 -18.5t-33 -7zM520 766q-27 0 -44.5 17t-17.5 43q0 18 7.5 34t19.5 27.5
t28 18.5t33 7q28 0 45 -17t17 -43q0 -18 -7.5 -34t-19.5 -27.5t-28 -18.5t-33 -7z" />
    <glyph glyph-name="Zacute" unicode="&#x179;" horiz-adv-x="596" 
d="M596 572l-378 -432h302l-25 -140h-496l23 130l376 432h-300l25 140h496zM536 976l-23 -133l-260 -101l21 118z" />
    <glyph glyph-name="zacute" unicode="&#x17a;" horiz-adv-x="496" 
d="M482 422l-286 -281h243l-26 -141h-433l25 136l281 281h-230l25 141h425zM464 830l-23 -133l-260 -101l21 118z" />
    <glyph glyph-name="Zdotaccent" unicode="&#x17b;" horiz-adv-x="596" 
d="M596 572l-378 -432h302l-25 -140h-496l23 130l376 432h-300l25 140h496zM382 766q-31 0 -48.5 21t-11.5 52q5 32 30 53t56 21q32 0 49 -21t12 -53q-5 -31 -30 -52t-57 -21z" />
    <glyph glyph-name="zdotaccent" unicode="&#x17c;" horiz-adv-x="496" 
d="M482 422l-286 -281h243l-26 -141h-433l25 136l281 281h-230l25 141h425zM310 620q-31 0 -48.5 21t-11.5 52q5 32 30 53t56 21q32 0 49 -21t12 -53q-5 -31 -30 -52t-57 -21z" />
    <glyph glyph-name="Zcaron" unicode="&#x17d;" horiz-adv-x="596" 
d="M596 572l-378 -432h302l-25 -140h-496l23 130l376 432h-300l25 140h496zM569 942l-21 -118l-170 -84l-140 84l21 118l140 -87z" />
    <glyph glyph-name="zcaron" unicode="&#x17e;" horiz-adv-x="496" 
d="M482 422l-286 -281h243l-26 -141h-433l25 136l281 281h-230l25 141h425zM497 796l-21 -118l-170 -84l-140 84l21 118l140 -87z" />
    <glyph glyph-name="uni018F" unicode="&#x18f;" horiz-adv-x="764" 
d="M351 149q33 0 64.5 9t57.5 27t46 44t30 60h-335q-8 -68 31 -104t106 -36zM328 -8q-64 0 -117 20.5t-91 57t-59 88t-21 114.5q0 30 5 63.5t16 65.5h508q8 75 -30 118t-109 43q-54 0 -97.5 -24t-66.5 -66h-185q23 55 60 100.5t85 77t105.5 49t120.5 17.5q66 0 120.5 -21
t93.5 -59t60 -90t21 -113q0 -91 -31 -171t-86.5 -140t-132.5 -95t-169 -35z" />
    <glyph glyph-name="florin" unicode="&#x192;" horiz-adv-x="336" 
d="M136 579q31 107 103.5 155.5t197.5 48.5l-39 -145q-39 0 -60.5 -13t-30.5 -46l-6 -21h81l-39 -142h-82l-140 -498q-15 -54 -40 -89.5t-58 -56.5t-72.5 -29.5t-83.5 -8.5h-28l40 145h28q31 0 42 39l141 498h-52l39 142h53l6 21v0z" />
    <glyph glyph-name="Ohorn" unicode="&#x1a0;" horiz-adv-x="786" 
d="M762 420q0 -93 -30.5 -171.5t-85.5 -135.5t-132 -88.5t-169 -31.5q-68 0 -123 21.5t-94 60.5t-60 93t-21 120q0 93 30.5 171t85.5 134.5t131.5 87.5t167.5 31q23 0 45 -2.5t42 -7.5q38 1 66.5 24t37.5 76h144q-11 -65 -44.5 -105t-79.5 -59q43 -39 66 -94t23 -124z
M218 306q0 -72 39 -113.5t114 -41.5q51 0 92 20.5t69.5 55t44 79.5t15.5 95q0 72 -39.5 113t-112.5 41q-51 0 -92.5 -20t-70 -54t-44 -79.5t-15.5 -95.5z" />
    <glyph glyph-name="ohorn" unicode="&#x1a1;" horiz-adv-x="637" 
d="M613 331q0 -73 -26.5 -135t-73.5 -107.5t-110.5 -71t-136.5 -25.5q-55 0 -100 16.5t-77.5 47.5t-50 74t-17.5 96q0 72 26 134.5t72 108t109.5 71.5t137.5 26q35 0 70 -8q36 2 63.5 25.5t36.5 74.5h144q-11 -66 -45.5 -106.5t-81.5 -59.5q29 -30 44.5 -71t15.5 -90z
M197 241q0 -51 26.5 -76.5t66.5 -25.5q33 0 60 15.5t46 40t29.5 56t10.5 64.5q0 53 -28 78.5t-67 25.5q-33 0 -60 -15.5t-45.5 -40.5t-28.5 -57t-10 -65z" />
    <glyph glyph-name="Uhorn" unicode="&#x1af;" horiz-adv-x="705" 
d="M132 702h171l-74 -419q-11 -63 13.5 -97t85.5 -34t98.5 34t48.5 97l74 419h26q39 0 69 23t39 77h144q-11 -63 -42.5 -102.5t-75.5 -59.5l-63 -357q-13 -74 -46 -128.5t-79.5 -90.5t-103.5 -53.5t-119 -17.5q-61 0 -110.5 18t-82.5 54t-46 90.5t0 127.5z" />
    <glyph glyph-name="uhorn" unicode="&#x1b0;" horiz-adv-x="674" 
d="M767 658q-11 -63 -42.5 -102.5t-75.5 -59.5l-87 -496h-171l13 76q-32 -36 -78.5 -59t-103.5 -23q-49 0 -86 16t-60 47t-31 75t2 100l58 326h170l-53 -303q-11 -57 13 -87.5t73 -30.5q48 0 81.5 28.5t44.5 82.5l55 310h33q37 2 64.5 25t36.5 75h144v0z" />
    <glyph glyph-name="uni01FC" unicode="&#x1fc;" horiz-adv-x="955" 
d="M728 975l-23 -133l-260 -101l21 118zM310 248h165l57 327zM702 567l-26 -144h224l-22 -130h-224l-28 -158h253l-24 -135h-424l21 118h-231l-80 -118h-186l484 702h540l-24 -135h-253z" />
    <glyph glyph-name="uni01FD" unicode="&#x1fd;" horiz-adv-x="1070" 
d="M770 429q-45 0 -83.5 -25t-56.5 -77h243q8 49 -22 75.5t-81 26.5zM1009 185q-17 -41 -44 -76t-61.5 -61t-75.5 -41t-87 -15q-62 0 -104 24t-60 64l-14 -80h-167l14 80q-32 -38 -80 -63t-108 -25q-51 0 -92.5 20t-68 57.5t-36.5 91t2 119.5t40.5 119t68.5 90t88.5 57
t101.5 20q57 0 96 -22t59 -64l13 78h168l-14 -78q73 86 194 86q54 0 96 -20t68.5 -56t36 -87t-1.5 -114q-5 -26 -13 -49h-414q-2 -59 28 -85t72 -26t70 15.5t42 40.5h183zM201 280q-6 -33 -0.5 -59t19 -44t34 -27t44.5 -9t48 9t44 26.5t34.5 43.5t20.5 59t0.5 59t-19 43.5
t-34.5 26.5t-45 9t-47.5 -9t-43.5 -26t-34.5 -43t-20.5 -59zM778 830l-23 -133l-260 -101l21 118z" />
    <glyph glyph-name="uni0218" unicode="&#x218;" horiz-adv-x="647" 
d="M329 -40q5 -32 5 -61.5t-5 -56.5q-12 -68 -54 -110t-114 -42l12 65q52 0 64 66l2 16h-63l22 123h131zM563 208q0 -47 -19 -86t-54 -68t-86 -45t-114 -16q-59 0 -108.5 14t-84 41t-51.5 67.5t-11 94.5h178q-3 -37 17.5 -59.5t64.5 -22.5q38 0 61 16.5t23 48.5
q0 28 -22 46.5t-55.5 34t-72.5 31t-72.5 39t-56.5 57.5t-23 86q-1 53 19.5 95t57 71t86.5 44t110 15q58 0 105 -14.5t80 -41.5t49 -66t11 -88h-182q5 33 -14.5 54t-57.5 21q-36 0 -58.5 -17.5t-22.5 -47.5q0 -27 22.5 -45.5t56 -35t73 -34t73 -42.5t56 -60t22.5 -87z" />
    <glyph glyph-name="uni0219" unicode="&#x219;" horiz-adv-x="558" 
d="M283 -40q5 -32 5 -61.5t-5 -56.5q-12 -68 -54 -110t-113 -42l12 65q51 0 63 66l3 16h-63l21 123h131zM493 165q0 -41 -19 -73.5t-52.5 -54.5t-79 -33.5t-99.5 -11.5t-99 14t-76 39t-46 60.5t-8 77.5h165q-2 -32 18.5 -50t58.5 -18q30 0 52 11.5t22 34.5q0 20 -20.5 32.5
t-51 23t-66.5 22.5t-66.5 31.5t-51 48.5t-20.5 75q0 37 16.5 68.5t47 54.5t73 36t95.5 13q55 0 98.5 -14.5t73 -40t43.5 -60.5t11 -75h-155q2 30 -17.5 48t-57.5 18q-29 0 -47.5 -12t-18.5 -33t20.5 -34t51.5 -24.5t66.5 -24t66.5 -31.5t51.5 -47t20.5 -71z" />
    <glyph glyph-name="uni021A" unicode="&#x21a;" horiz-adv-x="591" 
d="M302 -40q9 -62 -2 -118q-12 -68 -53 -110t-113 -42l12 65q51 0 63 66l3 16h-63l22 123h131zM97 702h543l-23 -135h-187l-100 -567h-171l100 567h-186z" />
    <glyph glyph-name="uni021B" unicode="&#x21b;" horiz-adv-x="406" 
d="M213 -40q5 -32 5 -61.5t-5 -56.5q-12 -68 -54 -110t-114 -42l12 65q52 0 64 66l2 16h-63l22 123h131zM112 416h-68l25 142h68l24 136h171l-24 -136h112l-25 -142h-112l-40 -224q-4 -25 5.5 -36t38.5 -11h61l-26 -145h-87q-44 0 -78 10t-56 32.5t-30 60t1 91.5z" />
    <glyph glyph-name="uni0259" unicode="&#x259;" horiz-adv-x="616" 
d="M284 129q43 0 77 26t49 76h-215q-4 -25 1.5 -44t17.5 -32t30 -19.5t40 -6.5zM257 -8q-61 0 -109 19.5t-78.5 55.5t-42 87.5t-0.5 114.5q4 23 12 49h387q6 56 -19.5 82.5t-67.5 26.5q-36 0 -60 -15.5t-38 -38.5h-182q18 41 47 76t68 61t85.5 41t98.5 15q61 0 109.5 -20
t79.5 -57t42.5 -90.5t-0.5 -119.5t-42 -119.5t-73.5 -90.5t-99 -57t-117.5 -20z" />
    <glyph glyph-name="uni02BC" unicode="&#x2bc;" horiz-adv-x="314" 
d="M84 434l99 268h175l-159 -268h-115z" />
    <glyph glyph-name="circumflex" unicode="&#x2c6;" horiz-adv-x="330" 
d="M374 594l-139 87l-171 -87l21 118l170 84l140 -84z" />
    <glyph glyph-name="caron" unicode="&#x2c7;" horiz-adv-x="330" 
d="M410 796l-21 -118l-170 -84l-140 84l21 118l140 -87z" />
    <glyph glyph-name="uni02C9" unicode="&#x2c9;" horiz-adv-x="420" 
d="M91 746h400l-21 -118h-400z" />
    <glyph glyph-name="breve" unicode="&#x2d8;" horiz-adv-x="360" 
d="M437 777q-15 -84 -70.5 -128.5t-130.5 -44.5t-114.5 44t-25.5 129l4 19h85q-6 -32 9 -49.5t64 -17.5t70 17.5t27 49.5h85l-3 -19v0z" />
    <glyph glyph-name="dotaccent" unicode="&#x2d9;" horiz-adv-x="167" 
d="M142 620q-31 0 -48.5 21t-11.5 52q5 32 30 53t56 21q32 0 49 -21t12 -53q-5 -31 -30 -52t-57 -21z" />
    <glyph glyph-name="ring" unicode="&#x2da;" horiz-adv-x="262" 
d="M86 720q11 57 51.5 89t91.5 32q25 0 45.5 -8.5t34 -24t19 -38t0.5 -50.5q-10 -57 -50.5 -89t-91.5 -32q-25 0 -45.5 8.5t-34.5 24t-19.5 38t-0.5 50.5zM256 720q5 23 -7.5 36t-32.5 13t-36.5 -13t-20.5 -36q-4 -22 8 -35.5t32 -13.5t36.5 13.5t20.5 35.5z" />
    <glyph glyph-name="ogonek" unicode="&#x2db;" horiz-adv-x="270" 
d="M180 77l22 -77l-49 -23q-41 -19 -58.5 -33.5t-20.5 -31.5q-3 -15 7 -24t31 -9q32 0 79 15l-17 -96q-23 -7 -48.5 -11t-52.5 -4q-31 0 -57 7t-43 21t-25 35.5t-3 50.5q4 22 15.5 43t33.5 41t57 39.5t86 39.5z" />
    <glyph glyph-name="tilde" unicode="&#x2dc;" horiz-adv-x="410" 
d="M62 610q26 79 68 113.5t96 34.5q22 0 38.5 -7t30.5 -15.5t26.5 -15.5t27.5 -7q17 0 30.5 11t20.5 34h88q-26 -79 -68 -113.5t-96 -34.5q-23 0 -39 7t-30 15.5t-26.5 15.5t-27.5 7q-36 0 -52 -45h-87v0z" />
    <glyph glyph-name="hungarumlaut" unicode="&#x2dd;" horiz-adv-x="443" 
d="M525 810l-162 -209h-105l132 209h135zM312 810l-142 -209h-105l112 209h135z" />
    <glyph glyph-name="pi" unicode="&#x3c0;" horiz-adv-x="707" 
d="M68 558h667l-23 -130h-71l-75 -428h-171l76 428h-185l-76 -428h-171l76 428h-70z" />
    <glyph glyph-name="Wgrave" unicode="&#x1e80;" horiz-adv-x="1052" 
d="M98 702h183l11 -511l215 511h189l30 -508l191 508h184l-307 -702h-207l-31 461l-197 -461h-207zM483 974l221 -116l-22 -118l-222 101z" />
    <glyph glyph-name="wgrave" unicode="&#x1e81;" horiz-adv-x="866" 
d="M52 558h171l8 -399l165 399h181l25 -399l148 399h161l-250 -558h-189l-24 362l-155 -362h-188zM386 830l221 -116l-22 -118l-222 101z" />
    <glyph glyph-name="Wacute" unicode="&#x1e82;" horiz-adv-x="1052" 
d="M98 702h183l11 -511l215 511h189l30 -508l191 508h184l-307 -702h-207l-31 461l-197 -461h-207zM767 977l-23 -133l-260 -101l21 118z" />
    <glyph glyph-name="wacute" unicode="&#x1e83;" horiz-adv-x="866" 
d="M52 558h171l8 -399l165 399h181l25 -399l148 399h161l-250 -558h-189l-24 362l-155 -362h-188zM676 830l-23 -133l-260 -101l21 118z" />
    <glyph glyph-name="Wdieresis" unicode="&#x1e84;" horiz-adv-x="1052" 
d="M98 702h183l11 -511l215 511h189l30 -508l191 508h184l-307 -702h-207l-31 461l-197 -461h-207zM483 765q-27 0 -44.5 17t-17.5 43q0 18 7.5 34t19.5 27.5t28 18.5t33 7q28 0 45 -17t17 -43q0 -18 -7.5 -34t-19.5 -27.5t-28 -18.5t-33 -7zM683 765q-27 0 -44.5 17
t-17.5 43q0 18 7.5 34t19.5 27.5t28 18.5t33 7q28 0 45 -17t17 -43q0 -18 -7.5 -34t-19.5 -27.5t-28 -18.5t-33 -7z" />
    <glyph glyph-name="wdieresis" unicode="&#x1e85;" horiz-adv-x="866" 
d="M52 558h171l8 -399l165 399h181l25 -399l148 399h161l-250 -558h-189l-24 362l-155 -362h-188zM392 620q-27 0 -44.5 17t-17.5 43q0 18 7.5 34t19.5 27.5t28 18.5t33 7q28 0 45 -17t17 -43q0 -18 -7.5 -34t-19.5 -27.5t-28 -18.5t-33 -7zM592 620q-27 0 -44.5 17
t-17.5 43q0 18 7.5 34t19.5 27.5t28 18.5t33 7q28 0 45 -17t17 -43q0 -18 -7.5 -34t-19.5 -27.5t-28 -18.5t-33 -7z" />
    <glyph glyph-name="uni1EA0" unicode="&#x1ea0;" horiz-adv-x="737" 
d="M273 -254q-44 0 -66.5 25.5t-17.5 62.5q4 38 33 63.5t72 25.5q42 0 66 -25.5t19 -63.5q-5 -37 -34.5 -62.5t-71.5 -25.5zM470 124h-262l-64 -124h-179l378 702h198l130 -702h-181zM409 514l-134 -260h175z" />
    <glyph glyph-name="uni1EA1" unicode="&#x1ea1;" 
d="M244 -254q-44 0 -66.5 25.5t-17.5 62.5q4 38 33 63.5t72 25.5q42 0 66 -25.5t19 -63.5q-5 -37 -34.5 -62.5t-71.5 -25.5zM27 280q12 66 40 119t68 90t88.5 57t99.5 20q63 0 101.5 -25t55.5 -62l14 79h171l-99 -558h-171l15 79q-30 -37 -78 -62t-111 -25q-51 0 -92 20
t-67.5 57.5t-36.5 91t2 119.5zM445 279q6 33 0.5 59t-19 43.5t-34.5 26.5t-45 9t-47.5 -9t-43.5 -26t-34.5 -43t-20.5 -59t-0.5 -59t19 -44t34 -27t44.5 -9t48 9t44 26.5t34.5 43.5t20.5 59z" />
    <glyph glyph-name="uni1EA2" unicode="&#x1ea2;" horiz-adv-x="737" 
d="M426 812q27 11 43.5 22.5t19.5 29.5q2 15 -8.5 21t-27.5 6q-9 0 -21.5 -2t-25.5 -7l13 82q40 16 75 16q23 0 44 -5.5t36 -17.5t22.5 -30.5t4.5 -45.5q-5 -38 -36 -73.5t-100 -55.5zM470 124h-262l-64 -124h-179l378 702h198l130 -702h-181zM409 514l-134 -260h175z" />
    <glyph glyph-name="uni1EA3" unicode="&#x1ea3;" 
d="M375 676q27 11 43.5 22.5t19.5 29.5q2 15 -8.5 21t-27.5 6q-9 0 -21.5 -2t-25.5 -7l13 82q40 16 75 16q23 0 44 -5.5t36 -17.5t22.5 -30.5t4.5 -45.5q-5 -38 -36 -73.5t-100 -55.5zM27 280q12 66 40 119t68 90t88.5 57t99.5 20q63 0 101.5 -25t55.5 -62l14 79h171
l-99 -558h-171l15 79q-30 -37 -78 -62t-111 -25q-51 0 -92 20t-67.5 57.5t-36.5 91t2 119.5zM445 279q6 33 0.5 59t-19 43.5t-34.5 26.5t-45 9t-47.5 -9t-43.5 -26t-34.5 -43t-20.5 -59t-0.5 -59t19 -44t34 -27t44.5 -9t48 9t44 26.5t34.5 43.5t20.5 59z" />
    <glyph glyph-name="uni1EA4" unicode="&#x1ea4;" horiz-adv-x="737" 
d="M822 984l-192 -116l-59 85l189 127zM470 124h-262l-64 -124h-179l378 702h198l130 -702h-181zM409 514l-134 -260h175zM322 742l-48 83l198 115l160 -115l-65 -83l-111 73z" />
    <glyph glyph-name="uni1EA5" unicode="&#x1ea5;" 
d="M768 848l-192 -116l-59 85l189 127zM27 280q12 66 40 119t68 90t88.5 57t99.5 20q63 0 101.5 -25t55.5 -62l14 79h171l-99 -558h-171l15 79q-30 -37 -78 -62t-111 -25q-51 0 -92 20t-67.5 57.5t-36.5 91t2 119.5zM445 279q6 33 0.5 59t-19 43.5t-34.5 26.5t-45 9
t-47.5 -9t-43.5 -26t-34.5 -43t-20.5 -59t-0.5 -59t19 -44t34 -27t44.5 -9t48 9t44 26.5t34.5 43.5t20.5 59zM268 606l-48 83l198 115l160 -115l-65 -83l-111 73z" />
    <glyph glyph-name="uni1EA6" unicode="&#x1ea6;" horiz-adv-x="737" 
d="M574 1080l153 -135l-73 -77l-159 123zM470 124h-262l-64 -124h-179l378 702h198l130 -702h-181zM409 514l-134 -260h175zM322 742l-48 83l198 115l160 -115l-65 -83l-111 73z" />
    <glyph glyph-name="uni1EA7" unicode="&#x1ea7;" 
d="M520 944l153 -135l-73 -77l-159 123zM27 280q12 66 40 119t68 90t88.5 57t99.5 20q63 0 101.5 -25t55.5 -62l14 79h171l-99 -558h-171l15 79q-30 -37 -78 -62t-111 -25q-51 0 -92 20t-67.5 57.5t-36.5 91t2 119.5zM445 279q6 33 0.5 59t-19 43.5t-34.5 26.5t-45 9
t-47.5 -9t-43.5 -26t-34.5 -43t-20.5 -59t-0.5 -59t19 -44t34 -27t44.5 -9t48 9t44 26.5t34.5 43.5t20.5 59zM268 606l-48 83l198 115l160 -115l-65 -83l-111 73z" />
    <glyph glyph-name="uni1EA8" unicode="&#x1ea8;" horiz-adv-x="737" 
d="M580 931q27 11 43.5 22.5t19.5 29.5q2 15 -8.5 21t-27.5 6q-9 0 -21.5 -2t-25.5 -7l13 82q40 16 75 16q23 0 44 -5.5t36 -17.5t22.5 -30.5t4.5 -45.5q-5 -38 -36 -73.5t-100 -55.5zM470 124h-262l-64 -124h-179l378 702h198l130 -702h-181zM409 514l-134 -260h175z
M322 742l-48 83l198 115l160 -115l-65 -83l-111 73z" />
    <glyph glyph-name="uni1EA9" unicode="&#x1ea9;" 
d="M526 795q27 11 43.5 22.5t19.5 29.5q2 15 -8.5 21t-27.5 6q-9 0 -21.5 -2t-25.5 -7l13 82q40 16 75 16q23 0 44 -5.5t36 -17.5t22.5 -30.5t4.5 -45.5q-5 -38 -36 -73.5t-100 -55.5zM27 280q12 66 40 119t68 90t88.5 57t99.5 20q63 0 101.5 -25t55.5 -62l14 79h171
l-99 -558h-171l15 79q-30 -37 -78 -62t-111 -25q-51 0 -92 20t-67.5 57.5t-36.5 91t2 119.5zM445 279q6 33 0.5 59t-19 43.5t-34.5 26.5t-45 9t-47.5 -9t-43.5 -26t-34.5 -43t-20.5 -59t-0.5 -59t19 -44t34 -27t44.5 -9t48 9t44 26.5t34.5 43.5t20.5 59zM268 606l-48 83
l198 115l160 -115l-65 -83l-111 73z" />
    <glyph glyph-name="uni1EAA" unicode="&#x1eaa;" horiz-adv-x="737" 
d="M292 963q12 73 47 110t81 37q26 0 43 -6.5t29 -15t21 -15t19 -6.5q8 0 16 8t13 32h102q-11 -73 -47 -109.5t-81 -36.5q-26 0 -43 6.5t-29 14t-21 14t-18 6.5q-8 0 -16 -7t-13 -32h-103zM470 124h-262l-64 -124h-179l378 702h198l130 -702h-181zM409 514l-134 -260h175z
M322 742l-48 83l198 115l160 -115l-65 -83l-111 73z" />
    <glyph glyph-name="uni1EAB" unicode="&#x1eab;" 
d="M238 827q12 73 47 110t81 37q26 0 43 -6.5t29 -15t21 -15t19 -6.5q8 0 16 8t13 32h102q-11 -73 -47 -109.5t-81 -36.5q-26 0 -43 6.5t-29 14t-21 14t-18 6.5q-8 0 -16 -7t-13 -32h-103zM27 280q12 66 40 119t68 90t88.5 57t99.5 20q63 0 101.5 -25t55.5 -62l14 79h171
l-99 -558h-171l15 79q-30 -37 -78 -62t-111 -25q-51 0 -92 20t-67.5 57.5t-36.5 91t2 119.5zM445 279q6 33 0.5 59t-19 43.5t-34.5 26.5t-45 9t-47.5 -9t-43.5 -26t-34.5 -43t-20.5 -59t-0.5 -59t19 -44t34 -27t44.5 -9t48 9t44 26.5t34.5 43.5t20.5 59zM268 606l-48 83
l198 115l160 -115l-65 -83l-111 73z" />
    <glyph glyph-name="uni1EAC" unicode="&#x1eac;" horiz-adv-x="737" 
d="M273 -254q-44 0 -66.5 25.5t-17.5 62.5q4 38 33 63.5t72 25.5q42 0 66 -25.5t19 -63.5q-5 -37 -34.5 -62.5t-71.5 -25.5zM470 124h-262l-64 -124h-179l378 702h198l130 -702h-181zM409 514l-134 -260h175zM322 742l-48 83l198 115l160 -115l-65 -83l-111 73z" />
    <glyph glyph-name="uni1EAD" unicode="&#x1ead;" 
d="M244 -254q-44 0 -66.5 25.5t-17.5 62.5q4 38 33 63.5t72 25.5q42 0 66 -25.5t19 -63.5q-5 -37 -34.5 -62.5t-71.5 -25.5zM27 280q12 66 40 119t68 90t88.5 57t99.5 20q63 0 101.5 -25t55.5 -62l14 79h171l-99 -558h-171l15 79q-30 -37 -78 -62t-111 -25q-51 0 -92 20
t-67.5 57.5t-36.5 91t2 119.5zM445 279q6 33 0.5 59t-19 43.5t-34.5 26.5t-45 9t-47.5 -9t-43.5 -26t-34.5 -43t-20.5 -59t-0.5 -59t19 -44t34 -27t44.5 -9t48 9t44 26.5t34.5 43.5t20.5 59zM268 606l-48 83l198 115l160 -115l-65 -83l-111 73z" />
    <glyph glyph-name="uni1EAE" unicode="&#x1eae;" horiz-adv-x="737" 
d="M656 1034l-192 -116l-59 85l189 127zM470 124h-262l-64 -124h-179l378 702h198l130 -702h-181zM409 514l-134 -260h175zM448 742q-36 0 -66.5 10t-50.5 29.5t-29 49t-2 67.5h112q-11 -60 53 -60q58 0 69 60h117q-14 -77 -68 -116.5t-135 -39.5z" />
    <glyph glyph-name="uni1EAF" unicode="&#x1eaf;" 
d="M595 900l-192 -116l-59 85l189 127zM27 280q12 66 40 119t68 90t88.5 57t99.5 20q63 0 101.5 -25t55.5 -62l14 79h171l-99 -558h-171l15 79q-30 -37 -78 -62t-111 -25q-51 0 -92 20t-67.5 57.5t-36.5 91t2 119.5zM445 279q6 33 0.5 59t-19 43.5t-34.5 26.5t-45 9
t-47.5 -9t-43.5 -26t-34.5 -43t-20.5 -59t-0.5 -59t19 -44t34 -27t44.5 -9t48 9t44 26.5t34.5 43.5t20.5 59zM387 608q-36 0 -66.5 10t-50.5 29.5t-29 49t-2 67.5h112q-11 -60 53 -60q58 0 69 60h117q-14 -77 -68 -116.5t-135 -39.5z" />
    <glyph glyph-name="uni1EB0" unicode="&#x1eb0;" horiz-adv-x="737" 
d="M413 1130l153 -135l-73 -77l-159 123zM470 124h-262l-64 -124h-179l378 702h198l130 -702h-181zM409 514l-134 -260h175zM448 742q-36 0 -66.5 10t-50.5 29.5t-29 49t-2 67.5h112q-11 -60 53 -60q58 0 69 60h117q-14 -77 -68 -116.5t-135 -39.5z" />
    <glyph glyph-name="uni1EB1" unicode="&#x1eb1;" 
d="M352 996l153 -135l-73 -77l-159 123zM27 280q12 66 40 119t68 90t88.5 57t99.5 20q63 0 101.5 -25t55.5 -62l14 79h171l-99 -558h-171l15 79q-30 -37 -78 -62t-111 -25q-51 0 -92 20t-67.5 57.5t-36.5 91t2 119.5zM445 279q6 33 0.5 59t-19 43.5t-34.5 26.5t-45 9
t-47.5 -9t-43.5 -26t-34.5 -43t-20.5 -59t-0.5 -59t19 -44t34 -27t44.5 -9t48 9t44 26.5t34.5 43.5t20.5 59zM387 608q-36 0 -66.5 10t-50.5 29.5t-29 49t-2 67.5h112q-11 -60 53 -60q58 0 69 60h117q-14 -77 -68 -116.5t-135 -39.5z" />
    <glyph glyph-name="uni1EB2" unicode="&#x1eb2;" horiz-adv-x="737" 
d="M436 967q27 11 43.5 22.5t19.5 29.5q2 15 -8.5 21t-27.5 6q-9 0 -21.5 -2t-25.5 -7l13 82q40 16 75 16q23 0 44 -5.5t36 -17.5t22.5 -30.5t4.5 -45.5q-5 -38 -36 -73.5t-100 -55.5zM470 124h-262l-64 -124h-179l378 702h198l130 -702h-181zM409 514l-134 -260h175z
M448 742q-36 0 -66.5 10t-50.5 29.5t-29 49t-2 67.5h112q-11 -60 53 -60q58 0 69 60h117q-14 -77 -68 -116.5t-135 -39.5z" />
    <glyph glyph-name="uni1EB3" unicode="&#x1eb3;" 
d="M375 833q27 11 43.5 22.5t19.5 29.5q2 15 -8.5 21t-27.5 6q-9 0 -21.5 -2t-25.5 -7l13 82q40 16 75 16q23 0 44 -5.5t36 -17.5t22.5 -30.5t4.5 -45.5q-5 -38 -36 -73.5t-100 -55.5zM27 280q12 66 40 119t68 90t88.5 57t99.5 20q63 0 101.5 -25t55.5 -62l14 79h171
l-99 -558h-171l15 79q-30 -37 -78 -62t-111 -25q-51 0 -92 20t-67.5 57.5t-36.5 91t2 119.5zM445 279q6 33 0.5 59t-19 43.5t-34.5 26.5t-45 9t-47.5 -9t-43.5 -26t-34.5 -43t-20.5 -59t-0.5 -59t19 -44t34 -27t44.5 -9t48 9t44 26.5t34.5 43.5t20.5 59zM387 608
q-36 0 -66.5 10t-50.5 29.5t-29 49t-2 67.5h112q-11 -60 53 -60q58 0 69 60h117q-14 -77 -68 -116.5t-135 -39.5z" />
    <glyph glyph-name="uni1EB4" unicode="&#x1eb4;" horiz-adv-x="737" 
d="M303 933q12 73 47 110t81 37q26 0 43 -6.5t29 -15t21 -15t19 -6.5q8 0 16 8t13 32h102q-11 -73 -47 -109.5t-81 -36.5q-26 0 -43 6.5t-29 14t-21 14t-18 6.5q-8 0 -16 -7t-13 -32h-103zM470 124h-262l-64 -124h-179l378 702h198l130 -702h-181zM409 514l-134 -260h175z
M448 742q-36 0 -66.5 10t-50.5 29.5t-29 49t-2 67.5h112q-11 -60 53 -60q58 0 69 60h117q-14 -77 -68 -116.5t-135 -39.5z" />
    <glyph glyph-name="uni1EB5" unicode="&#x1eb5;" 
d="M242 799q12 73 47 110t81 37q26 0 43 -6.5t29 -15t21 -15t19 -6.5q8 0 16 8t13 32h102q-11 -73 -47 -109.5t-81 -36.5q-26 0 -43 6.5t-29 14t-21 14t-18 6.5q-8 0 -16 -7t-13 -32h-103zM27 280q12 66 40 119t68 90t88.5 57t99.5 20q63 0 101.5 -25t55.5 -62l14 79h171
l-99 -558h-171l15 79q-30 -37 -78 -62t-111 -25q-51 0 -92 20t-67.5 57.5t-36.5 91t2 119.5zM445 279q6 33 0.5 59t-19 43.5t-34.5 26.5t-45 9t-47.5 -9t-43.5 -26t-34.5 -43t-20.5 -59t-0.5 -59t19 -44t34 -27t44.5 -9t48 9t44 26.5t34.5 43.5t20.5 59zM387 608
q-36 0 -66.5 10t-50.5 29.5t-29 49t-2 67.5h112q-11 -60 53 -60q58 0 69 60h117q-14 -77 -68 -116.5t-135 -39.5z" />
    <glyph glyph-name="uni1EB6" unicode="&#x1eb6;" horiz-adv-x="737" 
d="M273 -254q-44 0 -66.5 25.5t-17.5 62.5q4 38 33 63.5t72 25.5q42 0 66 -25.5t19 -63.5q-5 -37 -34.5 -62.5t-71.5 -25.5zM470 124h-262l-64 -124h-179l378 702h198l130 -702h-181zM409 514l-134 -260h175zM448 742q-36 0 -66.5 10t-50.5 29.5t-29 49t-2 67.5h112
q-11 -60 53 -60q58 0 69 60h117q-14 -77 -68 -116.5t-135 -39.5z" />
    <glyph glyph-name="uni1EB7" unicode="&#x1eb7;" 
d="M244 -254q-44 0 -66.5 25.5t-17.5 62.5q4 38 33 63.5t72 25.5q42 0 66 -25.5t19 -63.5q-5 -37 -34.5 -62.5t-71.5 -25.5zM27 280q12 66 40 119t68 90t88.5 57t99.5 20q63 0 101.5 -25t55.5 -62l14 79h171l-99 -558h-171l15 79q-30 -37 -78 -62t-111 -25q-51 0 -92 20
t-67.5 57.5t-36.5 91t2 119.5zM445 279q6 33 0.5 59t-19 43.5t-34.5 26.5t-45 9t-47.5 -9t-43.5 -26t-34.5 -43t-20.5 -59t-0.5 -59t19 -44t34 -27t44.5 -9t48 9t44 26.5t34.5 43.5t20.5 59zM387 608q-36 0 -66.5 10t-50.5 29.5t-29 49t-2 67.5h112q-11 -60 53 -60
q58 0 69 60h117q-14 -77 -68 -116.5t-135 -39.5z" />
    <glyph glyph-name="uni1EB8" unicode="&#x1eb8;" horiz-adv-x="541" 
d="M184 -254q-44 0 -66.5 25.5t-17.5 62.5q4 38 33 63.5t72 25.5q42 0 66 -25.5t19 -63.5q-5 -37 -34.5 -62.5t-71.5 -25.5zM541 567h-259l-25 -146h229l-23 -129h-229l-28 -157h259l-24 -135h-430l124 702h430z" />
    <glyph glyph-name="uni1EB9" unicode="&#x1eb9;" horiz-adv-x="616" 
d="M217 -254q-44 0 -66.5 25.5t-17.5 62.5q4 38 33 63.5t72 25.5q42 0 66 -25.5t19 -63.5q-5 -37 -34.5 -62.5t-71.5 -25.5zM332 429q-43 0 -77 -26t-49 -76h215q4 25 -1.5 44t-17.5 32t-30 19.5t-40 6.5zM557 185q-18 -41 -47 -76t-68 -61t-85.5 -41t-98.5 -15
q-62 0 -110 20t-79 57t-42.5 90.5t0.5 119.5t42 119.5t73.5 90.5t99 57t117.5 20q61 0 109 -19.5t78.5 -55.5t42 -87.5t0.5 -114.5q-4 -23 -12 -49h-387q-6 -56 19.5 -82.5t67.5 -26.5q36 0 60 15.5t38 38.5h182z" />
    <glyph glyph-name="uni1EBA" unicode="&#x1eba;" horiz-adv-x="541" 
d="M324 812q27 11 43.5 22.5t19.5 29.5q2 15 -8.5 21t-27.5 6q-9 0 -21.5 -2t-25.5 -7l13 82q40 16 75 16q23 0 44 -5.5t36 -17.5t22.5 -30.5t4.5 -45.5q-5 -38 -36 -73.5t-100 -55.5zM541 567h-259l-25 -146h229l-23 -129h-229l-28 -157h259l-24 -135h-430l124 702h430z
" />
    <glyph glyph-name="uni1EBB" unicode="&#x1ebb;" horiz-adv-x="616" 
d="M334 676q27 11 43.5 22.5t19.5 29.5q2 15 -8.5 21t-27.5 6q-9 0 -21.5 -2t-25.5 -7l13 82q40 16 75 16q23 0 44 -5.5t36 -17.5t22.5 -30.5t4.5 -45.5q-5 -38 -36 -73.5t-100 -55.5zM332 429q-43 0 -77 -26t-49 -76h215q4 25 -1.5 44t-17.5 32t-30 19.5t-40 6.5zM557 185
q-18 -41 -47 -76t-68 -61t-85.5 -41t-98.5 -15q-62 0 -110 20t-79 57t-42.5 90.5t0.5 119.5t42 119.5t73.5 90.5t99 57t117.5 20q61 0 109 -19.5t78.5 -55.5t42 -87.5t0.5 -114.5q-4 -23 -12 -49h-387q-6 -56 19.5 -82.5t67.5 -26.5q36 0 60 15.5t38 38.5h182z" />
    <glyph glyph-name="uni1EBC" unicode="&#x1ebc;" horiz-adv-x="541" 
d="M175 754q12 73 47 110t81 37q26 0 43 -6.5t29 -15t21 -15t19 -6.5q8 0 16 8t13 32h102q-11 -73 -47 -109.5t-81 -36.5q-26 0 -43 6.5t-29 14t-21 14t-18 6.5q-8 0 -16 -7t-13 -32h-103zM541 567h-259l-25 -146h229l-23 -129h-229l-28 -157h259l-24 -135h-430l124 702h430
z" />
    <glyph glyph-name="uni1EBD" unicode="&#x1ebd;" horiz-adv-x="616" 
d="M197 618q12 73 47 110t81 37q26 0 43 -6.5t29 -15t21 -15t19 -6.5q8 0 16 8t13 32h102q-11 -73 -47 -109.5t-81 -36.5q-26 0 -43 6.5t-29 14t-21 14t-18 6.5q-8 0 -16 -7t-13 -32h-103zM332 429q-43 0 -77 -26t-49 -76h215q4 25 -1.5 44t-17.5 32t-30 19.5t-40 6.5z
M557 185q-18 -41 -47 -76t-68 -61t-85.5 -41t-98.5 -15q-62 0 -110 20t-79 57t-42.5 90.5t0.5 119.5t42 119.5t73.5 90.5t99 57t117.5 20q61 0 109 -19.5t78.5 -55.5t42 -87.5t0.5 -114.5q-4 -23 -12 -49h-387q-6 -56 19.5 -82.5t67.5 -26.5q36 0 60 15.5t38 38.5h182z" />
    <glyph glyph-name="uni1EBE" unicode="&#x1ebe;" horiz-adv-x="541" 
d="M724 984l-192 -116l-59 85l189 127zM541 567h-259l-25 -146h229l-23 -129h-229l-28 -157h259l-24 -135h-430l124 702h430zM224 742l-48 83l198 115l160 -115l-65 -83l-111 73z" />
    <glyph glyph-name="uni1EBF" unicode="&#x1ebf;" horiz-adv-x="616" 
d="M746 848l-192 -116l-59 85l189 127zM332 429q-43 0 -77 -26t-49 -76h215q4 25 -1.5 44t-17.5 32t-30 19.5t-40 6.5zM557 185q-18 -41 -47 -76t-68 -61t-85.5 -41t-98.5 -15q-62 0 -110 20t-79 57t-42.5 90.5t0.5 119.5t42 119.5t73.5 90.5t99 57t117.5 20q61 0 109 -19.5
t78.5 -55.5t42 -87.5t0.5 -114.5q-4 -23 -12 -49h-387q-6 -56 19.5 -82.5t67.5 -26.5q36 0 60 15.5t38 38.5h182zM246 606l-48 83l198 115l160 -115l-65 -83l-111 73z" />
    <glyph glyph-name="uni1EC0" unicode="&#x1ec0;" horiz-adv-x="541" 
d="M476 1080l153 -135l-73 -77l-159 123zM541 567h-259l-25 -146h229l-23 -129h-229l-28 -157h259l-24 -135h-430l124 702h430zM224 742l-48 83l198 115l160 -115l-65 -83l-111 73z" />
    <glyph glyph-name="uni1EC1" unicode="&#x1ec1;" horiz-adv-x="616" 
d="M498 944l153 -135l-73 -77l-159 123zM332 429q-43 0 -77 -26t-49 -76h215q4 25 -1.5 44t-17.5 32t-30 19.5t-40 6.5zM557 185q-18 -41 -47 -76t-68 -61t-85.5 -41t-98.5 -15q-62 0 -110 20t-79 57t-42.5 90.5t0.5 119.5t42 119.5t73.5 90.5t99 57t117.5 20
q61 0 109 -19.5t78.5 -55.5t42 -87.5t0.5 -114.5q-4 -23 -12 -49h-387q-6 -56 19.5 -82.5t67.5 -26.5q36 0 60 15.5t38 38.5h182zM246 606l-48 83l198 115l160 -115l-65 -83l-111 73z" />
    <glyph glyph-name="uni1EC2" unicode="&#x1ec2;" horiz-adv-x="541" 
d="M482 931q27 11 43.5 22.5t19.5 29.5q2 15 -8.5 21t-27.5 6q-9 0 -21.5 -2t-25.5 -7l13 82q40 16 75 16q23 0 44 -5.5t36 -17.5t22.5 -30.5t4.5 -45.5q-5 -38 -36 -73.5t-100 -55.5zM541 567h-259l-25 -146h229l-23 -129h-229l-28 -157h259l-24 -135h-430l124 702h430z
M224 742l-48 83l198 115l160 -115l-65 -83l-111 73z" />
    <glyph glyph-name="uni1EC3" unicode="&#x1ec3;" horiz-adv-x="616" 
d="M504 795q27 11 43.5 22.5t19.5 29.5q2 15 -8.5 21t-27.5 6q-9 0 -21.5 -2t-25.5 -7l13 82q40 16 75 16q23 0 44 -5.5t36 -17.5t22.5 -30.5t4.5 -45.5q-5 -38 -36 -73.5t-100 -55.5zM332 429q-43 0 -77 -26t-49 -76h215q4 25 -1.5 44t-17.5 32t-30 19.5t-40 6.5zM557 185
q-18 -41 -47 -76t-68 -61t-85.5 -41t-98.5 -15q-62 0 -110 20t-79 57t-42.5 90.5t0.5 119.5t42 119.5t73.5 90.5t99 57t117.5 20q61 0 109 -19.5t78.5 -55.5t42 -87.5t0.5 -114.5q-4 -23 -12 -49h-387q-6 -56 19.5 -82.5t67.5 -26.5q36 0 60 15.5t38 38.5h182zM246 606
l-48 83l198 115l160 -115l-65 -83l-111 73z" />
    <glyph glyph-name="uni1EC4" unicode="&#x1ec4;" horiz-adv-x="541" 
d="M194 963q12 73 47 110t81 37q26 0 43 -6.5t29 -15t21 -15t19 -6.5q8 0 16 8t13 32h102q-11 -73 -47 -109.5t-81 -36.5q-26 0 -43 6.5t-29 14t-21 14t-18 6.5q-8 0 -16 -7t-13 -32h-103zM541 567h-259l-25 -146h229l-23 -129h-229l-28 -157h259l-24 -135h-430l124 702h430
zM224 742l-48 83l198 115l160 -115l-65 -83l-111 73z" />
    <glyph glyph-name="uni1EC5" unicode="&#x1ec5;" horiz-adv-x="616" 
d="M216 827q12 73 47 110t81 37q26 0 43 -6.5t29 -15t21 -15t19 -6.5q8 0 16 8t13 32h102q-11 -73 -47 -109.5t-81 -36.5q-26 0 -43 6.5t-29 14t-21 14t-18 6.5q-8 0 -16 -7t-13 -32h-103zM332 429q-43 0 -77 -26t-49 -76h215q4 25 -1.5 44t-17.5 32t-30 19.5t-40 6.5z
M557 185q-18 -41 -47 -76t-68 -61t-85.5 -41t-98.5 -15q-62 0 -110 20t-79 57t-42.5 90.5t0.5 119.5t42 119.5t73.5 90.5t99 57t117.5 20q61 0 109 -19.5t78.5 -55.5t42 -87.5t0.5 -114.5q-4 -23 -12 -49h-387q-6 -56 19.5 -82.5t67.5 -26.5q36 0 60 15.5t38 38.5h182z
M246 606l-48 83l198 115l160 -115l-65 -83l-111 73z" />
    <glyph glyph-name="uni1EC6" unicode="&#x1ec6;" horiz-adv-x="541" 
d="M184 -254q-44 0 -66.5 25.5t-17.5 62.5q4 38 33 63.5t72 25.5q42 0 66 -25.5t19 -63.5q-5 -37 -34.5 -62.5t-71.5 -25.5zM541 567h-259l-25 -146h229l-23 -129h-229l-28 -157h259l-24 -135h-430l124 702h430zM224 742l-48 83l198 115l160 -115l-65 -83l-111 73z" />
    <glyph glyph-name="uni1EC7" unicode="&#x1ec7;" horiz-adv-x="616" 
d="M217 -254q-44 0 -66.5 25.5t-17.5 62.5q4 38 33 63.5t72 25.5q42 0 66 -25.5t19 -63.5q-5 -37 -34.5 -62.5t-71.5 -25.5zM332 429q-43 0 -77 -26t-49 -76h215q4 25 -1.5 44t-17.5 32t-30 19.5t-40 6.5zM557 185q-18 -41 -47 -76t-68 -61t-85.5 -41t-98.5 -15
q-62 0 -110 20t-79 57t-42.5 90.5t0.5 119.5t42 119.5t73.5 90.5t99 57t117.5 20q61 0 109 -19.5t78.5 -55.5t42 -87.5t0.5 -114.5q-4 -23 -12 -49h-387q-6 -56 19.5 -82.5t67.5 -26.5q36 0 60 15.5t38 38.5h182zM246 606l-48 83l198 115l160 -115l-65 -83l-111 73z" />
    <glyph glyph-name="uni1EC8" unicode="&#x1ec8;" horiz-adv-x="295" 
d="M198 812q27 11 43.5 22.5t19.5 29.5q2 15 -8.5 21t-27.5 6q-9 0 -21.5 -2t-25.5 -7l13 82q40 16 75 16q23 0 44 -5.5t36 -17.5t22.5 -30.5t4.5 -45.5q-5 -38 -36 -73.5t-100 -55.5zM135 702h171l-124 -702h-171z" />
    <glyph glyph-name="uni1EC9" unicode="&#x1ec9;" horiz-adv-x="321" 
d="M196 676q27 11 43.5 22.5t19.5 29.5q2 15 -8.5 21t-27.5 6q-9 0 -21.5 -2t-25.5 -7l13 82q40 16 75 16q23 0 44 -5.5t36 -17.5t22.5 -30.5t4.5 -45.5q-5 -38 -36 -73.5t-100 -55.5zM123 558h171l-99 -558h-171z" />
    <glyph glyph-name="uni1ECA" unicode="&#x1eca;" horiz-adv-x="295" 
d="M56 -254q-44 0 -66.5 25.5t-17.5 62.5q4 38 33 63.5t72 25.5q42 0 66 -25.5t19 -63.5q-5 -37 -34.5 -62.5t-71.5 -25.5zM135 702h171l-124 -702h-171z" />
    <glyph glyph-name="uni1ECB" unicode="&#x1ecb;" horiz-adv-x="295" 
d="M57 -254q-44 0 -66.5 25.5t-17.5 62.5q4 38 33 63.5t72 25.5q42 0 66 -25.5t19 -63.5q-5 -37 -34.5 -62.5t-71.5 -25.5zM109 558h171l-98 -558h-171zM213 631q-45 0 -69 27t-19 65q5 39 35 66t75 27q44 0 68.5 -27t20.5 -66q-3 -19 -12 -36t-24 -29.5t-34 -19.5t-41 -7z
" />
    <glyph glyph-name="uni1ECC" unicode="&#x1ecc;" horiz-adv-x="786" 
d="M296 -254q-44 0 -66.5 25.5t-17.5 62.5q4 38 33 63.5t72 25.5q42 0 66 -25.5t19 -63.5q-5 -37 -34.5 -62.5t-71.5 -25.5zM762 420q0 -93 -30.5 -171.5t-85.5 -135.5t-132 -88.5t-169 -31.5q-68 0 -123 21.5t-94 60.5t-60 93t-21 120q0 93 30.5 171t85.5 134.5t131.5 87.5
t167.5 31q69 0 124.5 -21t94.5 -59.5t60 -92.5t21 -119zM218 306q0 -72 39 -113.5t114 -41.5q51 0 92 20.5t69.5 55t44 79.5t15.5 95q0 72 -39.5 113t-112.5 41q-51 0 -92.5 -20t-70 -54t-44 -79.5t-15.5 -95.5z" />
    <glyph glyph-name="uni1ECD" unicode="&#x1ecd;" horiz-adv-x="637" 
d="M227 -254q-44 0 -66.5 25.5t-17.5 62.5q4 38 33 63.5t72 25.5q42 0 66 -25.5t19 -63.5q-5 -37 -34.5 -62.5t-71.5 -25.5zM613 331q0 -73 -26.5 -135t-73.5 -107.5t-110.5 -71t-136.5 -25.5q-55 0 -100 16.5t-77.5 47.5t-50 74t-17.5 96q0 72 26 134.5t72 108t109.5 71.5
t137.5 26q55 0 100.5 -17t78 -47.5t50.5 -74t18 -96.5zM197 241q0 -51 26.5 -76.5t66.5 -25.5q33 0 60 15.5t46 40t29.5 56t10.5 64.5q0 53 -28 78.5t-67 25.5q-33 0 -60 -15.5t-45.5 -40.5t-28.5 -57t-10 -65z" />
    <glyph glyph-name="uni1ECE" unicode="&#x1ece;" horiz-adv-x="786" 
d="M456 812q27 11 43.5 22.5t19.5 29.5q2 15 -8.5 21t-27.5 6q-9 0 -21.5 -2t-25.5 -7l13 82q40 16 75 16q23 0 44 -5.5t36 -17.5t22.5 -30.5t4.5 -45.5q-5 -38 -36 -73.5t-100 -55.5zM762 420q0 -93 -30.5 -171.5t-85.5 -135.5t-132 -88.5t-169 -31.5q-68 0 -123 21.5
t-94 60.5t-60 93t-21 120q0 93 30.5 171t85.5 134.5t131.5 87.5t167.5 31q69 0 124.5 -21t94.5 -59.5t60 -92.5t21 -119zM218 306q0 -72 39 -113.5t114 -41.5q51 0 92 20.5t69.5 55t44 79.5t15.5 95q0 72 -39.5 113t-112.5 41q-51 0 -92.5 -20t-70 -54t-44 -79.5
t-15.5 -95.5z" />
    <glyph glyph-name="uni1ECF" unicode="&#x1ecf;" horiz-adv-x="637" 
d="M357 676q27 11 43.5 22.5t19.5 29.5q2 15 -8.5 21t-27.5 6q-9 0 -21.5 -2t-25.5 -7l13 82q40 16 75 16q23 0 44 -5.5t36 -17.5t22.5 -30.5t4.5 -45.5q-5 -38 -36 -73.5t-100 -55.5zM613 331q0 -73 -26.5 -135t-73.5 -107.5t-110.5 -71t-136.5 -25.5q-55 0 -100 16.5
t-77.5 47.5t-50 74t-17.5 96q0 72 26 134.5t72 108t109.5 71.5t137.5 26q55 0 100.5 -17t78 -47.5t50.5 -74t18 -96.5zM197 241q0 -51 26.5 -76.5t66.5 -25.5q33 0 60 15.5t46 40t29.5 56t10.5 64.5q0 53 -28 78.5t-67 25.5q-33 0 -60 -15.5t-45.5 -40.5t-28.5 -57t-10 -65z
" />
    <glyph glyph-name="uni1ED0" unicode="&#x1ed0;" horiz-adv-x="786" 
d="M846 984l-192 -116l-59 85l189 127zM762 420q0 -93 -30.5 -171.5t-85.5 -135.5t-132 -88.5t-169 -31.5q-68 0 -123 21.5t-94 60.5t-60 93t-21 120q0 93 30.5 171t85.5 134.5t131.5 87.5t167.5 31q69 0 124.5 -21t94.5 -59.5t60 -92.5t21 -119zM218 306q0 -72 39 -113.5
t114 -41.5q51 0 92 20.5t69.5 55t44 79.5t15.5 95q0 72 -39.5 113t-112.5 41q-51 0 -92.5 -20t-70 -54t-44 -79.5t-15.5 -95.5zM346 742l-48 83l198 115l160 -115l-65 -83l-111 73z" />
    <glyph glyph-name="uni1ED1" unicode="&#x1ed1;" horiz-adv-x="637" 
d="M756 848l-192 -116l-59 85l189 127zM613 331q0 -73 -26.5 -135t-73.5 -107.5t-110.5 -71t-136.5 -25.5q-55 0 -100 16.5t-77.5 47.5t-50 74t-17.5 96q0 72 26 134.5t72 108t109.5 71.5t137.5 26q55 0 100.5 -17t78 -47.5t50.5 -74t18 -96.5zM197 241q0 -51 26.5 -76.5
t66.5 -25.5q33 0 60 15.5t46 40t29.5 56t10.5 64.5q0 53 -28 78.5t-67 25.5q-33 0 -60 -15.5t-45.5 -40.5t-28.5 -57t-10 -65zM256 606l-48 83l198 115l160 -115l-65 -83l-111 73z" />
    <glyph glyph-name="uni1ED2" unicode="&#x1ed2;" horiz-adv-x="786" 
d="M598 1080l153 -135l-73 -77l-159 123zM762 420q0 -93 -30.5 -171.5t-85.5 -135.5t-132 -88.5t-169 -31.5q-68 0 -123 21.5t-94 60.5t-60 93t-21 120q0 93 30.5 171t85.5 134.5t131.5 87.5t167.5 31q69 0 124.5 -21t94.5 -59.5t60 -92.5t21 -119zM218 306q0 -72 39 -113.5
t114 -41.5q51 0 92 20.5t69.5 55t44 79.5t15.5 95q0 72 -39.5 113t-112.5 41q-51 0 -92.5 -20t-70 -54t-44 -79.5t-15.5 -95.5zM346 742l-48 83l198 115l160 -115l-65 -83l-111 73z" />
    <glyph glyph-name="uni1ED3" unicode="&#x1ed3;" horiz-adv-x="637" 
d="M508 944l153 -135l-73 -77l-159 123zM613 331q0 -73 -26.5 -135t-73.5 -107.5t-110.5 -71t-136.5 -25.5q-55 0 -100 16.5t-77.5 47.5t-50 74t-17.5 96q0 72 26 134.5t72 108t109.5 71.5t137.5 26q55 0 100.5 -17t78 -47.5t50.5 -74t18 -96.5zM197 241q0 -51 26.5 -76.5
t66.5 -25.5q33 0 60 15.5t46 40t29.5 56t10.5 64.5q0 53 -28 78.5t-67 25.5q-33 0 -60 -15.5t-45.5 -40.5t-28.5 -57t-10 -65zM256 606l-48 83l198 115l160 -115l-65 -83l-111 73z" />
    <glyph glyph-name="uni1ED4" unicode="&#x1ed4;" horiz-adv-x="786" 
d="M604 931q27 11 43.5 22.5t19.5 29.5q2 15 -8.5 21t-27.5 6q-9 0 -21.5 -2t-25.5 -7l13 82q40 16 75 16q23 0 44 -5.5t36 -17.5t22.5 -30.5t4.5 -45.5q-5 -38 -36 -73.5t-100 -55.5zM762 420q0 -93 -30.5 -171.5t-85.5 -135.5t-132 -88.5t-169 -31.5q-68 0 -123 21.5
t-94 60.5t-60 93t-21 120q0 93 30.5 171t85.5 134.5t131.5 87.5t167.5 31q69 0 124.5 -21t94.5 -59.5t60 -92.5t21 -119zM218 306q0 -72 39 -113.5t114 -41.5q51 0 92 20.5t69.5 55t44 79.5t15.5 95q0 72 -39.5 113t-112.5 41q-51 0 -92.5 -20t-70 -54t-44 -79.5
t-15.5 -95.5zM346 742l-48 83l198 115l160 -115l-65 -83l-111 73z" />
    <glyph glyph-name="uni1ED5" unicode="&#x1ed5;" horiz-adv-x="637" 
d="M514 795q27 11 43.5 22.5t19.5 29.5q2 15 -8.5 21t-27.5 6q-9 0 -21.5 -2t-25.5 -7l13 82q40 16 75 16q23 0 44 -5.5t36 -17.5t22.5 -30.5t4.5 -45.5q-5 -38 -36 -73.5t-100 -55.5zM613 331q0 -73 -26.5 -135t-73.5 -107.5t-110.5 -71t-136.5 -25.5q-55 0 -100 16.5
t-77.5 47.5t-50 74t-17.5 96q0 72 26 134.5t72 108t109.5 71.5t137.5 26q55 0 100.5 -17t78 -47.5t50.5 -74t18 -96.5zM197 241q0 -51 26.5 -76.5t66.5 -25.5q33 0 60 15.5t46 40t29.5 56t10.5 64.5q0 53 -28 78.5t-67 25.5q-33 0 -60 -15.5t-45.5 -40.5t-28.5 -57t-10 -65z
M256 606l-48 83l198 115l160 -115l-65 -83l-111 73z" />
    <glyph glyph-name="uni1ED6" unicode="&#x1ed6;" horiz-adv-x="786" 
d="M316 963q12 73 47 110t81 37q26 0 43 -6.5t29 -15t21 -15t19 -6.5q8 0 16 8t13 32h102q-11 -73 -47 -109.5t-81 -36.5q-26 0 -43 6.5t-29 14t-21 14t-18 6.5q-8 0 -16 -7t-13 -32h-103zM762 420q0 -93 -30.5 -171.5t-85.5 -135.5t-132 -88.5t-169 -31.5q-68 0 -123 21.5
t-94 60.5t-60 93t-21 120q0 93 30.5 171t85.5 134.5t131.5 87.5t167.5 31q69 0 124.5 -21t94.5 -59.5t60 -92.5t21 -119zM218 306q0 -72 39 -113.5t114 -41.5q51 0 92 20.5t69.5 55t44 79.5t15.5 95q0 72 -39.5 113t-112.5 41q-51 0 -92.5 -20t-70 -54t-44 -79.5
t-15.5 -95.5zM346 742l-48 83l198 115l160 -115l-65 -83l-111 73z" />
    <glyph glyph-name="uni1ED7" unicode="&#x1ed7;" horiz-adv-x="637" 
d="M226 827q12 73 47 110t81 37q26 0 43 -6.5t29 -15t21 -15t19 -6.5q8 0 16 8t13 32h102q-11 -73 -47 -109.5t-81 -36.5q-26 0 -43 6.5t-29 14t-21 14t-18 6.5q-8 0 -16 -7t-13 -32h-103zM613 331q0 -73 -26.5 -135t-73.5 -107.5t-110.5 -71t-136.5 -25.5q-55 0 -100 16.5
t-77.5 47.5t-50 74t-17.5 96q0 72 26 134.5t72 108t109.5 71.5t137.5 26q55 0 100.5 -17t78 -47.5t50.5 -74t18 -96.5zM197 241q0 -51 26.5 -76.5t66.5 -25.5q33 0 60 15.5t46 40t29.5 56t10.5 64.5q0 53 -28 78.5t-67 25.5q-33 0 -60 -15.5t-45.5 -40.5t-28.5 -57t-10 -65z
M256 606l-48 83l198 115l160 -115l-65 -83l-111 73z" />
    <glyph glyph-name="uni1ED8" unicode="&#x1ed8;" horiz-adv-x="786" 
d="M296 -254q-44 0 -66.5 25.5t-17.5 62.5q4 38 33 63.5t72 25.5q42 0 66 -25.5t19 -63.5q-5 -37 -34.5 -62.5t-71.5 -25.5zM762 420q0 -93 -30.5 -171.5t-85.5 -135.5t-132 -88.5t-169 -31.5q-68 0 -123 21.5t-94 60.5t-60 93t-21 120q0 93 30.5 171t85.5 134.5t131.5 87.5
t167.5 31q69 0 124.5 -21t94.5 -59.5t60 -92.5t21 -119zM218 306q0 -72 39 -113.5t114 -41.5q51 0 92 20.5t69.5 55t44 79.5t15.5 95q0 72 -39.5 113t-112.5 41q-51 0 -92.5 -20t-70 -54t-44 -79.5t-15.5 -95.5zM346 742l-48 83l198 115l160 -115l-65 -83l-111 73z" />
    <glyph glyph-name="uni1ED9" unicode="&#x1ed9;" horiz-adv-x="637" 
d="M227 -254q-44 0 -66.5 25.5t-17.5 62.5q4 38 33 63.5t72 25.5q42 0 66 -25.5t19 -63.5q-5 -37 -34.5 -62.5t-71.5 -25.5zM613 331q0 -73 -26.5 -135t-73.5 -107.5t-110.5 -71t-136.5 -25.5q-55 0 -100 16.5t-77.5 47.5t-50 74t-17.5 96q0 72 26 134.5t72 108t109.5 71.5
t137.5 26q55 0 100.5 -17t78 -47.5t50.5 -74t18 -96.5zM197 241q0 -51 26.5 -76.5t66.5 -25.5q33 0 60 15.5t46 40t29.5 56t10.5 64.5q0 53 -28 78.5t-67 25.5q-33 0 -60 -15.5t-45.5 -40.5t-28.5 -57t-10 -65zM256 606l-48 83l198 115l160 -115l-65 -83l-111 73z" />
    <glyph glyph-name="uni1EDA" unicode="&#x1eda;" horiz-adv-x="786" 
d="M649 858l-226 -106l-53 89l224 119zM762 420q0 -93 -30.5 -171.5t-85.5 -135.5t-132 -88.5t-169 -31.5q-68 0 -123 21.5t-94 60.5t-60 93t-21 120q0 93 30.5 171t85.5 134.5t131.5 87.5t167.5 31q23 0 45 -2.5t42 -7.5q38 1 66.5 24t37.5 76h144q-11 -65 -44.5 -105
t-79.5 -59q43 -39 66 -94t23 -124zM218 306q0 -72 39 -113.5t114 -41.5q51 0 92 20.5t69.5 55t44 79.5t15.5 95q0 72 -39.5 113t-112.5 41q-51 0 -92.5 -20t-70 -54t-44 -79.5t-15.5 -95.5z" />
    <glyph glyph-name="uni1EDB" unicode="&#x1edb;" horiz-adv-x="637" 
d="M556 722l-226 -106l-53 89l224 119zM613 331q0 -73 -26.5 -135t-73.5 -107.5t-110.5 -71t-136.5 -25.5q-55 0 -100 16.5t-77.5 47.5t-50 74t-17.5 96q0 72 26 134.5t72 108t109.5 71.5t137.5 26q35 0 70 -8q36 2 63.5 25.5t36.5 74.5h144q-11 -66 -45.5 -106.5
t-81.5 -59.5q29 -30 44.5 -71t15.5 -90zM197 241q0 -51 26.5 -76.5t66.5 -25.5q33 0 60 15.5t46 40t29.5 56t10.5 64.5q0 53 -28 78.5t-67 25.5q-33 0 -60 -15.5t-45.5 -40.5t-28.5 -57t-10 -65z" />
    <glyph glyph-name="uni1EDC" unicode="&#x1edc;" horiz-adv-x="786" 
d="M389 960l190 -121l-61 -87l-199 110zM762 420q0 -93 -30.5 -171.5t-85.5 -135.5t-132 -88.5t-169 -31.5q-68 0 -123 21.5t-94 60.5t-60 93t-21 120q0 93 30.5 171t85.5 134.5t131.5 87.5t167.5 31q23 0 45 -2.5t42 -7.5q38 1 66.5 24t37.5 76h144q-11 -65 -44.5 -105
t-79.5 -59q43 -39 66 -94t23 -124zM218 306q0 -72 39 -113.5t114 -41.5q51 0 92 20.5t69.5 55t44 79.5t15.5 95q0 72 -39.5 113t-112.5 41q-51 0 -92.5 -20t-70 -54t-44 -79.5t-15.5 -95.5z" />
    <glyph glyph-name="uni1EDD" unicode="&#x1edd;" horiz-adv-x="637" 
d="M290 824l190 -121l-61 -87l-199 110zM613 331q0 -73 -26.5 -135t-73.5 -107.5t-110.5 -71t-136.5 -25.5q-55 0 -100 16.5t-77.5 47.5t-50 74t-17.5 96q0 72 26 134.5t72 108t109.5 71.5t137.5 26q35 0 70 -8q36 2 63.5 25.5t36.5 74.5h144q-11 -66 -45.5 -106.5
t-81.5 -59.5q29 -30 44.5 -71t15.5 -90zM197 241q0 -51 26.5 -76.5t66.5 -25.5q33 0 60 15.5t46 40t29.5 56t10.5 64.5q0 53 -28 78.5t-67 25.5q-33 0 -60 -15.5t-45.5 -40.5t-28.5 -57t-10 -65z" />
    <glyph glyph-name="uni1EDE" unicode="&#x1ede;" horiz-adv-x="786" 
d="M456 812q27 11 43.5 22.5t19.5 29.5q2 15 -8.5 21t-27.5 6q-9 0 -21.5 -2t-25.5 -7l13 82q40 16 75 16q23 0 44 -5.5t36 -17.5t22.5 -30.5t4.5 -45.5q-5 -38 -36 -73.5t-100 -55.5zM762 420q0 -93 -30.5 -171.5t-85.5 -135.5t-132 -88.5t-169 -31.5q-68 0 -123 21.5
t-94 60.5t-60 93t-21 120q0 93 30.5 171t85.5 134.5t131.5 87.5t167.5 31q23 0 45 -2.5t42 -7.5q38 1 66.5 24t37.5 76h144q-11 -65 -44.5 -105t-79.5 -59q43 -39 66 -94t23 -124zM218 306q0 -72 39 -113.5t114 -41.5q51 0 92 20.5t69.5 55t44 79.5t15.5 95q0 72 -39.5 113
t-112.5 41q-51 0 -92.5 -20t-70 -54t-44 -79.5t-15.5 -95.5z" />
    <glyph glyph-name="uni1EDF" unicode="&#x1edf;" horiz-adv-x="637" 
d="M357 676q27 11 43.5 22.5t19.5 29.5q2 15 -8.5 21t-27.5 6q-9 0 -21.5 -2t-25.5 -7l13 82q40 16 75 16q23 0 44 -5.5t36 -17.5t22.5 -30.5t4.5 -45.5q-5 -38 -36 -73.5t-100 -55.5zM613 331q0 -73 -26.5 -135t-73.5 -107.5t-110.5 -71t-136.5 -25.5q-55 0 -100 16.5
t-77.5 47.5t-50 74t-17.5 96q0 72 26 134.5t72 108t109.5 71.5t137.5 26q35 0 70 -8q36 2 63.5 25.5t36.5 74.5h144q-11 -66 -45.5 -106.5t-81.5 -59.5q29 -30 44.5 -71t15.5 -90zM197 241q0 -51 26.5 -76.5t66.5 -25.5q33 0 60 15.5t46 40t29.5 56t10.5 64.5q0 53 -28 78.5
t-67 25.5q-33 0 -60 -15.5t-45.5 -40.5t-28.5 -57t-10 -65z" />
    <glyph glyph-name="uni1EE0" unicode="&#x1ee0;" horiz-adv-x="786" 
d="M293 754q12 73 47 110t81 37q26 0 43 -6.5t29 -15t21 -15t19 -6.5q8 0 16 8t13 32h102q-11 -73 -47 -109.5t-81 -36.5q-26 0 -43 6.5t-29 14t-21 14t-18 6.5q-8 0 -16 -7t-13 -32h-103zM762 420q0 -93 -30.5 -171.5t-85.5 -135.5t-132 -88.5t-169 -31.5q-68 0 -123 21.5
t-94 60.5t-60 93t-21 120q0 93 30.5 171t85.5 134.5t131.5 87.5t167.5 31q23 0 45 -2.5t42 -7.5q38 1 66.5 24t37.5 76h144q-11 -65 -44.5 -105t-79.5 -59q43 -39 66 -94t23 -124zM218 306q0 -72 39 -113.5t114 -41.5q51 0 92 20.5t69.5 55t44 79.5t15.5 95q0 72 -39.5 113
t-112.5 41q-51 0 -92.5 -20t-70 -54t-44 -79.5t-15.5 -95.5z" />
    <glyph glyph-name="uni1EE1" unicode="&#x1ee1;" horiz-adv-x="637" 
d="M188 618q12 73 46 110t79 37q25 0 41.5 -6.5t28.5 -15t21 -15t18 -6.5q8 0 16 8t12 32h100q-11 -73 -45.5 -109.5t-79.5 -36.5q-26 0 -42.5 6.5t-28 14t-20 14t-17.5 6.5q-8 0 -16 -7t-12 -32h-101zM613 331q0 -73 -26.5 -135t-73.5 -107.5t-110.5 -71t-136.5 -25.5
q-55 0 -100 16.5t-77.5 47.5t-50 74t-17.5 96q0 72 26 134.5t72 108t109.5 71.5t137.5 26q35 0 70 -8q36 2 63.5 25.5t36.5 74.5h144q-11 -66 -45.5 -106.5t-81.5 -59.5q29 -30 44.5 -71t15.5 -90zM197 241q0 -51 26.5 -76.5t66.5 -25.5q33 0 60 15.5t46 40t29.5 56
t10.5 64.5q0 53 -28 78.5t-67 25.5q-33 0 -60 -15.5t-45.5 -40.5t-28.5 -57t-10 -65z" />
    <glyph glyph-name="uni1EE2" unicode="&#x1ee2;" horiz-adv-x="786" 
d="M296 -254q-44 0 -66.5 25.5t-17.5 62.5q4 38 33 63.5t72 25.5q42 0 66 -25.5t19 -63.5q-5 -37 -34.5 -62.5t-71.5 -25.5zM762 420q0 -93 -30.5 -171.5t-85.5 -135.5t-132 -88.5t-169 -31.5q-68 0 -123 21.5t-94 60.5t-60 93t-21 120q0 93 30.5 171t85.5 134.5t131.5 87.5
t167.5 31q23 0 45 -2.5t42 -7.5q38 1 66.5 24t37.5 76h144q-11 -65 -44.5 -105t-79.5 -59q43 -39 66 -94t23 -124zM218 306q0 -72 39 -113.5t114 -41.5q51 0 92 20.5t69.5 55t44 79.5t15.5 95q0 72 -39.5 113t-112.5 41q-51 0 -92.5 -20t-70 -54t-44 -79.5t-15.5 -95.5z" />
    <glyph glyph-name="uni1EE3" unicode="&#x1ee3;" horiz-adv-x="637" 
d="M227 -254q-44 0 -66.5 25.5t-17.5 62.5q4 38 33 63.5t72 25.5q42 0 66 -25.5t19 -63.5q-5 -37 -34.5 -62.5t-71.5 -25.5zM613 331q0 -73 -26.5 -135t-73.5 -107.5t-110.5 -71t-136.5 -25.5q-55 0 -100 16.5t-77.5 47.5t-50 74t-17.5 96q0 72 26 134.5t72 108t109.5 71.5
t137.5 26q35 0 70 -8q36 2 63.5 25.5t36.5 74.5h144q-11 -66 -45.5 -106.5t-81.5 -59.5q29 -30 44.5 -71t15.5 -90zM197 241q0 -51 26.5 -76.5t66.5 -25.5q33 0 60 15.5t46 40t29.5 56t10.5 64.5q0 53 -28 78.5t-67 25.5q-33 0 -60 -15.5t-45.5 -40.5t-28.5 -57t-10 -65z
" />
    <glyph glyph-name="uni1EE4" unicode="&#x1ee4;" horiz-adv-x="705" 
d="M259 -254q-44 0 -66.5 25.5t-17.5 62.5q4 38 33 63.5t72 25.5q42 0 66 -25.5t19 -63.5q-5 -37 -34.5 -62.5t-71.5 -25.5zM132 702h171l-74 -419q-11 -63 13.5 -97t85.5 -34t98.5 34t48.5 97l74 419h171l-74 -419q-13 -74 -46 -128.5t-79.5 -90.5t-103.5 -53.5t-119 -17.5
q-61 0 -110.5 18t-82.5 54t-46 90.5t0 127.5z" />
    <glyph glyph-name="uni1EE5" unicode="&#x1ee5;" horiz-adv-x="674" 
d="M249 -254q-44 0 -66.5 25.5t-17.5 62.5q4 38 33 63.5t72 25.5q42 0 66 -25.5t19 -63.5q-5 -37 -34.5 -62.5t-71.5 -25.5zM562 0h-171l13 76q-32 -36 -78.5 -59t-103.5 -23q-49 0 -86 16t-60 47t-31 75t2 100l58 326h170l-53 -303q-11 -57 13 -87.5t73 -30.5
q48 0 81.5 28.5t44.5 82.5l55 310h171z" />
    <glyph glyph-name="uni1EE6" unicode="&#x1ee6;" horiz-adv-x="705" 
d="M401 812q27 11 43.5 22.5t19.5 29.5q2 15 -8.5 21t-27.5 6q-9 0 -21.5 -2t-25.5 -7l13 82q40 16 75 16q23 0 44 -5.5t36 -17.5t22.5 -30.5t4.5 -45.5q-5 -38 -36 -73.5t-100 -55.5zM132 702h171l-74 -419q-11 -63 13.5 -97t85.5 -34t98.5 34t48.5 97l74 419h171l-74 -419
q-13 -74 -46 -128.5t-79.5 -90.5t-103.5 -53.5t-119 -17.5q-61 0 -110.5 18t-82.5 54t-46 90.5t0 127.5z" />
    <glyph glyph-name="uni1EE7" unicode="&#x1ee7;" horiz-adv-x="674" 
d="M365 676q27 11 43.5 22.5t19.5 29.5q2 15 -8.5 21t-27.5 6q-9 0 -21.5 -2t-25.5 -7l13 82q40 16 75 16q23 0 44 -5.5t36 -17.5t22.5 -30.5t4.5 -45.5q-5 -38 -36 -73.5t-100 -55.5zM562 0h-171l13 76q-32 -36 -78.5 -59t-103.5 -23q-49 0 -86 16t-60 47t-31 75t2 100
l58 326h170l-53 -303q-11 -57 13 -87.5t73 -30.5q48 0 81.5 28.5t44.5 82.5l55 310h171z" />
    <glyph glyph-name="uni1EE8" unicode="&#x1ee8;" horiz-adv-x="705" 
d="M625 858l-226 -106l-53 89l224 119zM132 702h171l-74 -419q-11 -63 13.5 -97t85.5 -34t98.5 34t48.5 97l74 419h26q39 0 69 23t39 77h144q-11 -63 -42.5 -102.5t-75.5 -59.5l-63 -357q-13 -74 -46 -128.5t-79.5 -90.5t-103.5 -53.5t-119 -17.5q-61 0 -110.5 18t-82.5 54
t-46 90.5t0 127.5z" />
    <glyph glyph-name="uni1EE9" unicode="&#x1ee9;" horiz-adv-x="674" 
d="M582 722l-226 -106l-53 89l224 119zM767 658q-11 -63 -42.5 -102.5t-75.5 -59.5l-87 -496h-171l13 76q-32 -36 -78.5 -59t-103.5 -23q-49 0 -86 16t-60 47t-31 75t2 100l58 326h170l-53 -303q-11 -57 13 -87.5t73 -30.5q48 0 81.5 28.5t44.5 82.5l55 310h33q37 2 64.5 25
t36.5 75h144z" />
    <glyph glyph-name="uni1EEA" unicode="&#x1eea;" horiz-adv-x="705" 
d="M351 960l190 -121l-61 -87l-199 110zM132 702h171l-74 -419q-11 -63 13.5 -97t85.5 -34t98.5 34t48.5 97l74 419h26q39 0 69 23t39 77h144q-11 -63 -42.5 -102.5t-75.5 -59.5l-63 -357q-13 -74 -46 -128.5t-79.5 -90.5t-103.5 -53.5t-119 -17.5q-61 0 -110.5 18t-82.5 54
t-46 90.5t0 127.5z" />
    <glyph glyph-name="uni1EEB" unicode="&#x1eeb;" horiz-adv-x="674" 
d="M299 824l190 -121l-61 -87l-199 110zM767 658q-11 -63 -42.5 -102.5t-75.5 -59.5l-87 -496h-171l13 76q-32 -36 -78.5 -59t-103.5 -23q-49 0 -86 16t-60 47t-31 75t2 100l58 326h170l-53 -303q-11 -57 13 -87.5t73 -30.5q48 0 81.5 28.5t44.5 82.5l55 310h33
q37 2 64.5 25t36.5 75h144z" />
    <glyph glyph-name="uni1EEC" unicode="&#x1eec;" horiz-adv-x="705" 
d="M401 812q27 11 43.5 22.5t19.5 29.5q2 15 -8.5 21t-27.5 6q-9 0 -21.5 -2t-25.5 -7l13 82q40 16 75 16q23 0 44 -5.5t36 -17.5t22.5 -30.5t4.5 -45.5q-5 -38 -36 -73.5t-100 -55.5zM132 702h171l-74 -419q-11 -63 13.5 -97t85.5 -34t98.5 34t48.5 97l74 419h26
q39 0 69 23t39 77h144q-11 -63 -42.5 -102.5t-75.5 -59.5l-63 -357q-13 -74 -46 -128.5t-79.5 -90.5t-103.5 -53.5t-119 -17.5q-61 0 -110.5 18t-82.5 54t-46 90.5t0 127.5z" />
    <glyph glyph-name="uni1EED" unicode="&#x1eed;" horiz-adv-x="674" 
d="M365 676q27 11 43.5 22.5t19.5 29.5q2 15 -8.5 21t-27.5 6q-9 0 -21.5 -2t-25.5 -7l13 82q40 16 75 16q23 0 44 -5.5t36 -17.5t22.5 -30.5t4.5 -45.5q-5 -38 -36 -73.5t-100 -55.5zM767 658q-11 -63 -42.5 -102.5t-75.5 -59.5l-87 -496h-171l13 76q-32 -36 -78.5 -59
t-103.5 -23q-49 0 -86 16t-60 47t-31 75t2 100l58 326h170l-53 -303q-11 -57 13 -87.5t73 -30.5q48 0 81.5 28.5t44.5 82.5l55 310h33q37 2 64.5 25t36.5 75h144z" />
    <glyph glyph-name="uni1EEE" unicode="&#x1eee;" horiz-adv-x="705" 
d="M249 754q12 73 47 110t81 37q26 0 43 -6.5t29 -15t21 -15t19 -6.5q8 0 16 8t13 32h102q-11 -73 -47 -109.5t-81 -36.5q-26 0 -43 6.5t-29 14t-21 14t-18 6.5q-8 0 -16 -7t-13 -32h-103zM132 702h171l-74 -419q-11 -63 13.5 -97t85.5 -34t98.5 34t48.5 97l74 419h26
q39 0 69 23t39 77h144q-11 -63 -42.5 -102.5t-75.5 -59.5l-63 -357q-13 -74 -46 -128.5t-79.5 -90.5t-103.5 -53.5t-119 -17.5q-61 0 -110.5 18t-82.5 54t-46 90.5t0 127.5z" />
    <glyph glyph-name="uni1EEF" unicode="&#x1eef;" horiz-adv-x="674" 
d="M206 618q12 73 47 110t81 37q26 0 43 -6.5t29 -15t21 -15t19 -6.5q8 0 16 8t13 32h102q-11 -73 -47 -109.5t-81 -36.5q-26 0 -43 6.5t-29 14t-21 14t-18 6.5q-8 0 -16 -7t-13 -32h-103zM767 658q-11 -63 -42.5 -102.5t-75.5 -59.5l-87 -496h-171l13 76q-32 -36 -78.5 -59
t-103.5 -23q-49 0 -86 16t-60 47t-31 75t2 100l58 326h170l-53 -303q-11 -57 13 -87.5t73 -30.5q48 0 81.5 28.5t44.5 82.5l55 310h33q37 2 64.5 25t36.5 75h144z" />
    <glyph glyph-name="uni1EF0" unicode="&#x1ef0;" horiz-adv-x="705" 
d="M259 -254q-44 0 -66.5 25.5t-17.5 62.5q4 38 33 63.5t72 25.5q42 0 66 -25.5t19 -63.5q-5 -37 -34.5 -62.5t-71.5 -25.5zM132 702h171l-74 -419q-11 -63 13.5 -97t85.5 -34t98.5 34t48.5 97l74 419h26q39 0 69 23t39 77h144q-11 -63 -42.5 -102.5t-75.5 -59.5l-63 -357
q-13 -74 -46 -128.5t-79.5 -90.5t-103.5 -53.5t-119 -17.5q-61 0 -110.5 18t-82.5 54t-46 90.5t0 127.5z" />
    <glyph glyph-name="uni1EF1" unicode="&#x1ef1;" horiz-adv-x="674" 
d="M249 -254q-44 0 -66.5 25.5t-17.5 62.5q4 38 33 63.5t72 25.5q42 0 66 -25.5t19 -63.5q-5 -37 -34.5 -62.5t-71.5 -25.5zM767 658q-11 -63 -42.5 -102.5t-75.5 -59.5l-87 -496h-171l13 76q-32 -36 -78.5 -59t-103.5 -23q-49 0 -86 16t-60 47t-31 75t2 100l58 326h170
l-53 -303q-11 -57 13 -87.5t73 -30.5q48 0 81.5 28.5t44.5 82.5l55 310h33q37 2 64.5 25t36.5 75h144z" />
    <glyph glyph-name="Ygrave" unicode="&#x1ef2;" horiz-adv-x="671" 
d="M80 702h194l84 -293l187 293h192l-325 -470l-42 -232h-171l42 232zM325 960l190 -121l-61 -87l-199 110z" />
    <glyph glyph-name="ygrave" unicode="&#x1ef3;" horiz-adv-x="632" 
d="M47 558h190l68 -349l190 349h185l-495 -823h-184l178 284zM282 824l190 -121l-61 -87l-199 110z" />
    <glyph glyph-name="uni1EF4" unicode="&#x1ef4;" horiz-adv-x="671" 
d="M243 -254q-44 0 -66.5 25.5t-17.5 62.5q4 38 33 63.5t72 25.5q42 0 66 -25.5t19 -63.5q-5 -37 -34.5 -62.5t-71.5 -25.5zM80 702h194l84 -293l187 293h192l-325 -470l-42 -232h-171l42 232z" />
    <glyph glyph-name="uni1EF5" unicode="&#x1ef5;" horiz-adv-x="632" 
d="M430 -254q-44 0 -66.5 25.5t-17.5 62.5q4 38 33 63.5t72 25.5q42 0 66 -25.5t19 -63.5q-5 -37 -34.5 -62.5t-71.5 -25.5zM47 558h190l68 -349l190 349h185l-495 -823h-184l178 284z" />
    <glyph glyph-name="uni1EF6" unicode="&#x1ef6;" horiz-adv-x="671" 
d="M377 812q27 11 43.5 22.5t19.5 29.5q2 15 -8.5 21t-27.5 6q-9 0 -21.5 -2t-25.5 -7l13 82q40 16 75 16q23 0 44 -5.5t36 -17.5t22.5 -30.5t4.5 -45.5q-5 -38 -36 -73.5t-100 -55.5zM80 702h194l84 -293l187 293h192l-325 -470l-42 -232h-171l42 232z" />
    <glyph glyph-name="uni1EF7" unicode="&#x1ef7;" horiz-adv-x="632" 
d="M333 676q27 11 43.5 22.5t19.5 29.5q2 15 -8.5 21t-27.5 6q-9 0 -21.5 -2t-25.5 -7l13 82q40 16 75 16q23 0 44 -5.5t36 -17.5t22.5 -30.5t4.5 -45.5q-5 -38 -36 -73.5t-100 -55.5zM47 558h190l68 -349l190 349h185l-495 -823h-184l178 284z" />
    <glyph glyph-name="uni1EF8" unicode="&#x1ef8;" horiz-adv-x="671" 
d="M236 754q12 73 47 110t81 37q26 0 43 -6.5t29 -15t21 -15t19 -6.5q8 0 16 8t13 32h102q-11 -73 -47 -109.5t-81 -36.5q-26 0 -43 6.5t-29 14t-21 14t-18 6.5q-8 0 -16 -7t-13 -32h-103zM80 702h194l84 -293l187 293h192l-325 -470l-42 -232h-171l42 232z" />
    <glyph glyph-name="uni1EF9" unicode="&#x1ef9;" horiz-adv-x="632" 
d="M183 618q12 73 47 110t81 37q26 0 43 -6.5t29 -15t21 -15t19 -6.5q8 0 16 8t13 32h102q-11 -73 -47 -109.5t-81 -36.5q-26 0 -43 6.5t-29 14t-21 14t-18 6.5q-8 0 -16 -7t-13 -32h-103zM47 558h190l68 -349l190 349h185l-495 -823h-184l178 284z" />
    <glyph glyph-name="endash" unicode="&#x2013;" horiz-adv-x="695" 
d="M94 422h555l-25 -142h-555z" />
    <glyph glyph-name="emdash" unicode="&#x2014;" horiz-adv-x="930" 
d="M94 422h790l-25 -142h-790z" />
    <glyph glyph-name="quoteleft" unicode="&#x2018;" horiz-adv-x="314" 
d="M331 702l-99 -268h-175l160 268h114z" />
    <glyph glyph-name="quoteright" unicode="&#x2019;" horiz-adv-x="314" 
d="M84 434l99 268h175l-159 -268h-115z" />
    <glyph glyph-name="quotesinglbase" unicode="&#x201a;" horiz-adv-x="294" 
d="M-36 -105l99 268h175l-160 -268h-114z" />
    <glyph glyph-name="quotedblleft" unicode="&#x201c;" horiz-adv-x="548" 
d="M331 702l-99 -268h-175l160 268h114zM565 702l-99 -268h-175l159 268h115z" />
    <glyph glyph-name="quotedblright" unicode="&#x201d;" horiz-adv-x="548" 
d="M318 434l99 268h175l-159 -268h-115zM84 434l99 268h175l-159 -268h-115z" />
    <glyph glyph-name="quotedblbase" unicode="&#x201e;" horiz-adv-x="524" 
d="M-36 -105l99 268h175l-160 -268h-114zM193 -105l100 268h174l-159 -268h-115z" />
    <glyph glyph-name="dagger" unicode="&#x2020;" horiz-adv-x="654" 
d="M652 558l-23 -130l-207 13l-107 -707h-171l141 707l-210 -13l23 130l206 -13l25 244h172l-60 -244z" />
    <glyph glyph-name="daggerdbl" unicode="&#x2021;" horiz-adv-x="654" 
d="M629 428l-207 13l-63 -359l212 13l-24 -130l-206 13l-27 -244h-171l61 244l-211 -13l23 130l206 -13l63 359l-210 -13l23 130l206 -13l25 244h171l-59 -244l211 13z" />
    <glyph glyph-name="bullet" unicode="&#x2022;" horiz-adv-x="501" 
d="M232 183q-32 0 -57 11.5t-42 32t-24 47.5t-1 59t22.5 59.5t40.5 48t53 32t61 11.5t57.5 -11.5t42 -32t23.5 -48t1 -59.5t-22 -59t-40 -47.5t-53.5 -32t-61.5 -11.5z" />
    <glyph glyph-name="ellipsis" unicode="&#x2026;" horiz-adv-x="760" 
d="M447 84q-7 -38 -39.5 -65t-77.5 -27q-46 0 -69.5 27t-16.5 65q7 40 39.5 67t79.5 27q45 0 68 -27t16 -67zM688 84q-7 -38 -39.5 -65t-77.5 -27q-46 0 -69.5 27t-16.5 65q7 40 39.5 67t79.5 27q45 0 68 -27t16 -67zM207 84q-7 -38 -39.5 -65t-77.5 -27q-46 0 -69.5 27
t-16.5 65q7 40 39.5 67t79.5 27q45 0 68 -27t16 -67z" />
    <glyph glyph-name="perthousand" unicode="&#x2030;" horiz-adv-x="1179" 
d="M75 546q7 41 25.5 72.5t45 52.5t58.5 32t68 11t64.5 -11t47 -32t25.5 -52.5t0 -72.5t-25 -72.5t-44 -52.5t-58 -32t-68 -11t-65 11t-47.5 32t-26 52.5t-0.5 72.5zM254 613q-23 0 -38.5 -16t-21.5 -51t3.5 -51t32.5 -16t39 16t22 51t-4 51t-33 16zM591 704h165l-510 -704
h-165zM429 158q7 41 25 72.5t44.5 52.5t58.5 32t68 11t64.5 -11t47 -32t25 -52.5t-0.5 -72.5t-25 -72.5t-44 -52.5t-58 -32t-68 -11t-64.5 11t-47 32t-26 52.5t0.5 72.5zM607 225q-23 0 -39 -16t-22 -51q-12 -67 37 -67q22 0 38 16t22 51t-4 51t-32 16zM793 158
q7 41 25.5 72.5t45 52.5t58.5 32t68 11t64.5 -11t47 -32t25.5 -52.5t0 -72.5q-8 -41 -26 -72.5t-44 -52.5t-58 -32t-68 -11t-64.5 11t-47.5 32t-26 52.5t0 72.5zM972 225q-23 0 -39 -16t-21 -51q-7 -35 2.5 -51t32.5 -16t39 16t22 51t-3.5 51t-32.5 16z" />
    <glyph glyph-name="guilsinglleft" unicode="&#x2039;" horiz-adv-x="337" 
d="M257 120h-158l-53 175l115 175h158l-118 -175z" />
    <glyph glyph-name="guilsinglright" unicode="&#x203a;" horiz-adv-x="337" 
d="M20 120l118 175l-56 175h158l53 -175l-115 -175h-158z" />
    <glyph glyph-name="fraction" unicode="&#x2044;" horiz-adv-x="570" 
d="M469 704h165l-510 -704h-165z" />
    <glyph glyph-name="uni20A8" unicode="&#x20a8;" horiz-adv-x="1190" 
d="M466 474q8 40 -11.5 64t-67.5 24h-106l-30 -175h105q49 0 75.5 22.5t34.5 64.5zM422 702q64 0 109.5 -17t72.5 -47t36 -70t1 -86q-11 -68 -60 -124.5t-138 -79.5l119 -278h-194l-105 267h-34l-47 -267h-171l124 702h287zM669 393q6 35 26.5 66.5t54 55t79.5 37.5t102 14
q111 0 165 -53t50 -137h-170q1 30 -18.5 45.5t-54.5 15.5q-33 0 -53.5 -13t-24.5 -33q-4 -23 18.5 -34.5t58 -20t76.5 -17t74.5 -26t52.5 -48t10 -81.5q-6 -37 -27.5 -68.5t-54.5 -54.5t-77.5 -36t-96.5 -13q-110 0 -169.5 48.5t-54.5 141.5h170q-3 -32 19 -46.5t56 -14.5
q35 0 54.5 13t23.5 33q4 24 -18.5 36t-57.5 20t-76 16.5t-74.5 25.5t-52.5 47t-10 81z" />
    <glyph glyph-name="Euro" unicode="&#x20ac;" horiz-adv-x="796" 
d="M93 352q2 8 3 14.5t3 14.5h-62l15 90h79q26 54 65 98.5t88 75.5t105.5 48t118.5 17q63 0 114 -17t88.5 -49t60 -77.5t27.5 -102.5h-188q-14 44 -48 66t-84 22q-48 0 -89.5 -21.5t-71.5 -59.5h167l-15 -90h-196q-2 -7 -3 -14t-3 -15q-3 -14 -3 -27h195l-16 -89h-169
q16 -41 50 -63t84 -22t92 22.5t71 66.5h188q-25 -57 -63.5 -102.5t-87.5 -77t-106 -48.5t-120 -17t-114 17t-88.5 48.5t-61 76t-29.5 99.5h-78l16 89h62q1 7 1.5 13.5t2.5 13.5z" />
    <glyph glyph-name="uni20B9" unicode="&#x20b9;" horiz-adv-x="598" 
d="M111 702h529l-20 -115h-85l-11 -60h86l-19 -104h-91q-15 -43 -39.5 -77t-60 -57t-83 -35.5t-108.5 -12.5l-7 -40q-7 -35 3 -58.5t49 -23.5q37 0 55 21.5t25 62.5h158q-21 -100 -85 -156.5t-171 -56.5q-111 0 -161 57t-29 177l23 129q70 0 118 2t78.5 9t48 21t27.5 38
h-280l19 104h284l11 60h-285z" />
    <glyph glyph-name="uni20BA" unicode="&#x20ba;" horiz-adv-x="834" 
d="M357 545l139 25l-19 -106l-138 -24l-11 -58l139 24l-19 -106l-138 -24l-21 -117q20 -5 39 -6t38 -1q67 0 112 23.5t74.5 65t46.5 97t28 118.5h174q-21 -121 -57.5 -208.5t-92 -144.5t-132.5 -84t-180 -27q-57 0 -119 7.5t-129 21.5l39 224l-129 -23l18 106l130 23l10 57
l-131 -23l18 103l132 24l34 195h174z" />
    <glyph glyph-name="uni20BD" unicode="&#x20bd;" horiz-adv-x="674" 
d="M304 403h98q47 0 73.5 23t32.5 61q7 37 -11 61t-65 24h-98zM38 403h94l53 299h277q64 0 110 -16.5t73 -45.5t36.5 -68.5t1.5 -84.5q-8 -43 -30 -82t-59 -68.5t-88.5 -47t-118.5 -17.5h-106l-11 -60h155l-23 -130h-155l-15 -82h-171l14 82h-93l23 130h93l11 60h-94z" />
    <glyph glyph-name="uni2113" unicode="&#x2113;" horiz-adv-x="295" 
d="M142 740h171l-131 -740h-171z" />
    <glyph glyph-name="trademark" unicode="&#x2122;" horiz-adv-x="883" 
d="M101 706h288l-18 -99h-82l-45 -252h-123l45 252h-83zM440 706h166l35 -201l117 201h154l-62 -351h-113l33 201l-119 -201h-83l-44 211l-37 -211h-109z" />
    <glyph glyph-name="uni2126" unicode="&#x2126;" horiz-adv-x="788" 
d="M50 369q14 79 53 143t95.5 108t126 68t144.5 24t136.5 -24t102 -68t57.5 -108t3 -143q-12 -71 -46 -132.5t-98 -106.5h97l-24 -130h-270l25 134q51 37 88 89t50 126q17 99 -23.5 152.5t-125.5 53.5q-42 0 -78.5 -14t-65.5 -40t-48.5 -64.5t-28.5 -87.5q-14 -74 6 -126
t58 -89l-25 -134h-270l24 130h95q-47 45 -58.5 106.5t0.5 132.5z" />
    <glyph glyph-name="estimated" unicode="&#x212e;" horiz-adv-x="748" 
d="M657 134q-75 -68 -156 -104.5t-170 -36.5q-75 0 -134.5 23t-98.5 66.5t-54 107.5t0 146q14 79 48.5 148t86 120t120 80t149.5 29q82 0 141 -27.5t94 -73.5t47 -105.5t1 -123.5l-12 -63h-488l-31 -177q29 -25 65.5 -38t83.5 -13q72 0 135.5 28.5t125.5 81.5zM543 408
l29 166q-49 43 -140 43q-48 0 -86.5 -13t-71.5 -37l-27 -159h296z" />
    <glyph glyph-name="partialdiff" unicode="&#x2202;" horiz-adv-x="615" 
d="M403 316q9 52 -8.5 77t-50.5 25q-27 0 -50 -13t-41.5 -35.5t-32 -53t-19.5 -66.5q-11 -59 7 -85t51 -26q26 0 49 13.5t42 37.5t32.5 56t20.5 70zM27 249q12 69 44 126.5t76 99t98 64t110 22.5q33 0 59 -10t44 -33q-2 56 -30.5 90.5t-96.5 34.5q-31 0 -66 -7l15 87
q33 9 63 13t56 4q64 0 109 -24t70.5 -67.5t31 -105.5t-7.5 -138q-17 -96 -53 -172.5t-86.5 -130t-113.5 -81.5t-133 -28q-48 0 -87.5 15.5t-66 47t-37 79.5t1.5 114z" />
    <glyph glyph-name="uni2206" unicode="&#x2206;" horiz-adv-x="735" 
d="M372 704h139l177 -574l-24 -130h-695l23 130zM407 510l-238 -380h342z" />
    <glyph glyph-name="product" unicode="&#x220f;" horiz-adv-x="747" 
d="M94 704h707l-23 -130h-71l-101 -574h-171l101 574h-225l-101 -574h-171l101 574h-70z" />
    <glyph glyph-name="summation" unicode="&#x2211;" horiz-adv-x="536" 
d="M114 704h456l-23 -130h-299l210 -171l-22 -130l-280 -193h304l-24 -130h-456l36 199l267 185l-205 171z" />
    <glyph glyph-name="minus" unicode="&#x2212;" horiz-adv-x="543" 
d="M76 422h440l-26 -142h-440z" />
    <glyph glyph-name="uni2215" unicode="&#x2215;" horiz-adv-x="453" 
d="M395 950h166l-470 -1137h-165z" />
    <glyph glyph-name="uni2219" unicode="&#x2219;" horiz-adv-x="299" 
d="M217 314q-7 -38 -39.5 -65t-77.5 -27q-46 0 -69.5 27t-16.5 65q7 40 39.5 67t79.5 27q45 0 68 -27t16 -67z" />
    <glyph glyph-name="radical" unicode="&#x221a;" horiz-adv-x="930" 
d="M241 -41l-102 265l-90 -48l-35 80l257 137l92 -240l552 751h104l-695 -945h-83z" />
    <glyph glyph-name="infinity" unicode="&#x221e;" horiz-adv-x="777" 
d="M223 289q25 0 51.5 13t49.5 37q-18 29 -36.5 48t-44.5 19q-25 0 -43.5 -15t-23.5 -44t8.5 -43.5t38.5 -14.5zM556 289q25 0 43.5 15t23.5 44t-8.5 43.5t-38.5 14.5q-27 0 -56 -15t-53 -43q17 -26 37.5 -42.5t51.5 -16.5zM41 347q7 41 27 73t48 54.5t62.5 34t70.5 11.5
q33 0 58.5 -7.5t45.5 -20t35.5 -29.5t28.5 -35q36 42 85.5 67.5t106.5 24.5q81 -1 122.5 -45.5t26.5 -126.5q-7 -41 -27 -73t-48.5 -54.5t-63 -34t-70.5 -11.5q-32 0 -57.5 7t-46.5 19t-37.5 27.5t-30.5 32.5q-36 -38 -84.5 -62.5t-103.5 -23.5q-81 1 -121.5 45.5
t-26.5 126.5z" />
    <glyph glyph-name="integral" unicode="&#x222b;" horiz-adv-x="292" 
d="M187 758q15 54 40 89.5t58 56.5t72 29.5t83 8.5h18l-40 -145h-17q-31 0 -43 -39l-235 -840q-15 -54 -40.5 -89.5t-58.5 -56.5t-72.5 -29.5t-82.5 -8.5h-16l39 145h17q32 0 43 39z" />
    <glyph glyph-name="approxequal" unicode="&#x2248;" horiz-adv-x="636" 
d="M13 122q40 116 101.5 166.5t136.5 50.5q33 0 57 -10.5t44.5 -22.5t39 -22.5t40.5 -10.5q26 0 44.5 15.5t29.5 50.5h127q-19 -58 -44.5 -99t-56.5 -67.5t-65.5 -38.5t-71.5 -12q-33 0 -57 10.5t-44.5 22.5t-39 22.5t-40.5 10.5q-53 0 -75 -66h-126zM13 372
q40 116 101.5 166.5t136.5 50.5q33 0 57 -10.5t44.5 -22.5t39 -22.5t40.5 -10.5q26 0 44.5 15.5t29.5 50.5h127q-19 -58 -44.5 -99t-56.5 -67.5t-65.5 -38.5t-71.5 -12q-33 0 -57 10.5t-44.5 22.5t-39 22.5t-40.5 10.5q-53 0 -75 -66h-126z" />
    <glyph glyph-name="notequal" unicode="&#x2260;" horiz-adv-x="685" 
d="M117 145h-74l27 154h193l96 101h-272l28 154h390l91 96h96l-91 -96h75l-28 -154h-193l-96 -101h271l-27 -154h-390l-91 -96h-96z" />
    <glyph glyph-name="lessequal" unicode="&#x2264;" horiz-adv-x="519" 
d="M239 201l-171 185l236 185h215l-235 -185l170 -185h-215zM41 131h398l-23 -131h-398z" />
    <glyph glyph-name="greaterequal" unicode="&#x2265;" horiz-adv-x="519" 
d="M36 201l234 185l-169 185h214l171 -185l-236 -185h-214zM423 131l-23 -131h-398l23 131h398z" />
    <glyph glyph-name="lozenge" unicode="&#x25ca;" horiz-adv-x="565" 
d="M341 615l216 -262l-309 -263l-217 263zM312 450l-115 -97l81 -98l114 98z" />
    <glyph glyph-name="fi" unicode="&#xfb01;" horiz-adv-x="657" 
d="M101 416h-62l25 142h62l3 16q20 110 93 163t196 46l-25 -145q-45 3 -65.5 -13.5t-28.5 -61.5l-1 -5h332l-99 -558h-171l74 416h-161l-73 -416h-172zM563 631q-45 0 -69 27t-19 65q5 39 35 66t75 27q44 0 68.5 -27t20.5 -66q-3 -19 -12 -36t-24 -29.5t-34 -19.5t-41 -7z
" />
    <glyph glyph-name="fl" unicode="&#xfb02;" horiz-adv-x="655" 
d="M101 416h-62l25 142h62l3 16q20 110 95 163t202 46l-25 -145q-49 3 -72 -14t-30 -61l-1 -5h92l-25 -142h-92l-73 -416h-172zM502 740h171l-131 -740h-171z" />
    <glyph glyph-name="NULL" horiz-adv-x="0" 
 />
    <glyph glyph-name="exclam.ss01" horiz-adv-x="370" 
d="M170 728h185l-105 -480h-145zM77 174h177l-31 -174h-178z" />
    <glyph glyph-name="comma.ss01" horiz-adv-x="244" 
d="M144 123q8 -31 10 -66t-4 -68q-6 -36 -20.5 -66t-37 -52t-53.5 -34.5t-72 -12.5l12 67q26 0 42 13t23 49l3 17h-74l26 153h145z" />
    <glyph glyph-name="period.ss01" horiz-adv-x="257" 
d="M20 174h177l-31 -174h-177z" />
    <glyph glyph-name="colon.ss01" horiz-adv-x="307" 
d="M46 174h177l-31 -174h-177zM117 578h177l-31 -174h-177z" />
    <glyph glyph-name="semicolon.ss01" horiz-adv-x="328" 
d="M197 123q8 -31 10 -66t-4 -68q-6 -36 -20.5 -66t-37 -52t-54 -34.5t-72.5 -12.5l12 67q26 0 42.5 13t23.5 49l3 17h-75l27 153h145zM119 568h177l-31 -174h-177z" />
    <glyph glyph-name="question.ss01" horiz-adv-x="538" 
d="M95 174h177l-32 -174h-177zM71 525q7 45 29 84.5t57.5 68.5t84 46t107.5 17q52 0 92.5 -13.5t66.5 -40.5t36.5 -67t1.5 -92q-9 -48 -32 -85.5t-57.5 -63t-78 -39t-92.5 -13.5l-13 -75h-160l32 186h60q35 0 65 4t53 14t37.5 27.5t19.5 44.5q6 34 -10 53.5t-49 19.5
q-36 0 -59.5 -20.5t-29.5 -55.5h-161z" />
    <glyph glyph-name="exclamdown.ss01" horiz-adv-x="370" 
d="M197 -166h-185l105 480h145zM290 388h-177l31 174h178z" />
    <glyph glyph-name="periodcentered.ss01" horiz-adv-x="280" 
d="M32 403h177l-31 -174h-177z" />
    <glyph glyph-name="questiondown.ss01" horiz-adv-x="537" 
d="M443 386h-177l32 174h177zM467 35q-7 -45 -29 -84.5t-57.5 -68.5t-84 -46t-107.5 -17q-52 0 -92.5 13.5t-67 40.5t-36.5 67t-1 92q9 48 32 85.5t57.5 63t78 39t92.5 13.5l13 75h160l-32 -186h-60q-35 0 -65 -4t-53 -14t-37.5 -27.5t-19.5 -44.5q-6 -34 10 -53.5t49 -19.5
q36 0 59.5 20.5t29.5 55.5h161z" />
    <glyph glyph-name="divide.ss01" horiz-adv-x="611" 
d="M78 427h510l-27 -154h-510zM206 213h177l-31 -174h-177zM285 662h177l-30 -175h-177z" />
    <glyph glyph-name="apostrophemod.ss01" horiz-adv-x="231" 
d="M269 840q5 -32 4.5 -61.5t-5.5 -56.5q-12 -68 -53.5 -110t-113.5 -42l12 65q51 0 63 66l3 16h-63l22 123h131z" />
    <glyph glyph-name="quoteleft.ss01" horiz-adv-x="231" 
d="M110 570q-5 32 -4.5 61.5t5.5 56.5q12 68 53.5 110t113.5 42l-12 -65q-51 0 -63 -66l-3 -16h63l-22 -123h-131z" />
    <glyph glyph-name="quoteright.ss01" horiz-adv-x="231" 
d="M269 840q5 -32 4.5 -61.5t-5.5 -56.5q-12 -68 -53.5 -110t-113.5 -42l12 65q51 0 63 66l3 16h-63l22 123h131z" />
    <glyph glyph-name="quotedblleft.ss01" horiz-adv-x="421" 
d="M300 570q-5 32 -4.5 61.5t5.5 56.5q11 68 53 110t114 42l-12 -65q-53 0 -63 -66l-3 -16h63l-22 -123h-131zM110 570q-5 32 -4.5 61.5t5.5 56.5q11 68 53 110t114 42l-12 -65q-51 0 -63 -66l-3 -16h63l-22 -123h-131z" />
    <glyph glyph-name="quotedblright.ss01" horiz-adv-x="421" 
d="M459 840q9 -65 -1 -118q-12 -68 -53.5 -110t-113.5 -42l12 65q51 0 63 66l3 16h-63l22 123h131zM269 840q5 -32 4.5 -61.5t-5.5 -56.5q-12 -68 -53.5 -110t-113.5 -42l12 65q51 0 63 66l3 16h-63l22 123h131z" />
    <glyph glyph-name="ellipsis.ss01" horiz-adv-x="753" 
d="M27 174h177l-31 -174h-177zM270 174h177l-31 -174h-177zM509 174h177l-31 -174h-177z" />
    <glyph glyph-name="a.ss02" horiz-adv-x="629" 
d="M358 78q-14 -20 -35.5 -36t-47.5 -28t-56 -18.5t-61 -6.5q-68 0 -111 36.5t-43 105.5q0 45 21 81.5t58 62t86.5 39t106.5 13.5h125q1 7 1.5 13.5t0.5 13.5q0 37 -20 57t-57 20q-35 0 -61.5 -19.5t-40.5 -53.5h-171q15 46 42 84.5t65 67t86 44.5t106 16q51 0 93 -13.5
t71.5 -38t45.5 -60t16 -80.5q0 -12 -1.5 -25t-3.5 -27l-57 -326h-172zM182 167q0 -23 16.5 -36t46.5 -13q21 0 43.5 7.5t42 22t34 35.5t19.5 48v2h-110q-44 0 -68 -20t-24 -46z" />
    <glyph glyph-name="aacute.ss02" horiz-adv-x="629" 
d="M358 78q-14 -20 -35.5 -36t-47.5 -28t-56 -18.5t-61 -6.5q-68 0 -111 36.5t-43 105.5q0 45 21 81.5t58 62t86.5 39t106.5 13.5h125q1 7 1.5 13.5t0.5 13.5q0 37 -20 57t-57 20q-35 0 -61.5 -19.5t-40.5 -53.5h-171q15 46 42 84.5t65 67t86 44.5t106 16q51 0 93 -13.5
t71.5 -38t45.5 -60t16 -80.5q0 -12 -1.5 -25t-3.5 -27l-57 -326h-172zM182 167q0 -23 16.5 -36t46.5 -13q21 0 43.5 7.5t42 22t34 35.5t19.5 48v2h-110q-44 0 -68 -20t-24 -46zM550 722l-226 -106l-53 89l224 119z" />
    <glyph glyph-name="abreve.ss02" horiz-adv-x="629" 
d="M358 78q-14 -20 -35.5 -36t-47.5 -28t-56 -18.5t-61 -6.5q-68 0 -111 36.5t-43 105.5q0 45 21 81.5t58 62t86.5 39t106.5 13.5h125q1 7 1.5 13.5t0.5 13.5q0 37 -20 57t-57 20q-35 0 -61.5 -19.5t-40.5 -53.5h-171q15 46 42 84.5t65 67t86 44.5t106 16q51 0 93 -13.5
t71.5 -38t45.5 -60t16 -80.5q0 -12 -1.5 -25t-3.5 -27l-57 -326h-172zM182 167q0 -23 16.5 -36t46.5 -13q21 0 43.5 7.5t42 22t34 35.5t19.5 48v2h-110q-44 0 -68 -20t-24 -46zM363 608q-36 0 -66.5 10t-50.5 29.5t-29 49t-2 67.5h112q-11 -60 53 -60q58 0 69 60h117
q-14 -77 -68 -116.5t-135 -39.5z" />
    <glyph glyph-name="acircumflex.ss02" horiz-adv-x="629" 
d="M358 78q-14 -20 -35.5 -36t-47.5 -28t-56 -18.5t-61 -6.5q-68 0 -111 36.5t-43 105.5q0 45 21 81.5t58 62t86.5 39t106.5 13.5h125q1 7 1.5 13.5t0.5 13.5q0 37 -20 57t-57 20q-35 0 -61.5 -19.5t-40.5 -53.5h-171q15 46 42 84.5t65 67t86 44.5t106 16q51 0 93 -13.5
t71.5 -38t45.5 -60t16 -80.5q0 -12 -1.5 -25t-3.5 -27l-57 -326h-172zM182 167q0 -23 16.5 -36t46.5 -13q21 0 43.5 7.5t42 22t34 35.5t19.5 48v2h-110q-44 0 -68 -20t-24 -46zM241 606l-48 83l198 115l160 -115l-65 -83l-111 73z" />
    <glyph glyph-name="adieresis.ss02" horiz-adv-x="629" 
d="M301 620q-27 0 -44.5 17t-17.5 43q0 18 7.5 34t19.5 27.5t28 18.5t33 7q28 0 45 -17t17 -43q0 -18 -7.5 -34t-19.5 -27.5t-28 -18.5t-33 -7zM501 620q-27 0 -44.5 17t-17.5 43q0 18 7.5 34t19.5 27.5t28 18.5t33 7q28 0 45 -17t17 -43q0 -18 -7.5 -34t-19.5 -27.5
t-28 -18.5t-33 -7zM358 78q-14 -20 -35.5 -36t-47.5 -28t-56 -18.5t-61 -6.5q-68 0 -111 36.5t-43 105.5q0 45 21 81.5t58 62t86.5 39t106.5 13.5h125q1 7 1.5 13.5t0.5 13.5q0 37 -20 57t-57 20q-35 0 -61.5 -19.5t-40.5 -53.5h-171q15 46 42 84.5t65 67t86 44.5t106 16
q51 0 93 -13.5t71.5 -38t45.5 -60t16 -80.5q0 -12 -1.5 -25t-3.5 -27l-57 -326h-172zM182 167q0 -23 16.5 -36t46.5 -13q21 0 43.5 7.5t42 22t34 35.5t19.5 48v2h-110q-44 0 -68 -20t-24 -46z" />
    <glyph glyph-name="agrave.ss02" horiz-adv-x="629" 
d="M358 78q-14 -20 -35.5 -36t-47.5 -28t-56 -18.5t-61 -6.5q-68 0 -111 36.5t-43 105.5q0 45 21 81.5t58 62t86.5 39t106.5 13.5h125q1 7 1.5 13.5t0.5 13.5q0 37 -20 57t-57 20q-35 0 -61.5 -19.5t-40.5 -53.5h-171q15 46 42 84.5t65 67t86 44.5t106 16q51 0 93 -13.5
t71.5 -38t45.5 -60t16 -80.5q0 -12 -1.5 -25t-3.5 -27l-57 -326h-172zM182 167q0 -23 16.5 -36t46.5 -13q21 0 43.5 7.5t42 22t34 35.5t19.5 48v2h-110q-44 0 -68 -20t-24 -46zM284 824l190 -121l-61 -87l-199 110z" />
    <glyph glyph-name="amacron.ss02" horiz-adv-x="629" 
d="M224 746h400l-21 -118h-400zM358 78q-14 -20 -35.5 -36t-47.5 -28t-56 -18.5t-61 -6.5q-68 0 -111 36.5t-43 105.5q0 45 21 81.5t58 62t86.5 39t106.5 13.5h125q1 7 1.5 13.5t0.5 13.5q0 37 -20 57t-57 20q-35 0 -61.5 -19.5t-40.5 -53.5h-171q15 46 42 84.5t65 67
t86 44.5t106 16q51 0 93 -13.5t71.5 -38t45.5 -60t16 -80.5q0 -12 -1.5 -25t-3.5 -27l-57 -326h-172zM182 167q0 -23 16.5 -36t46.5 -13q21 0 43.5 7.5t42 22t34 35.5t19.5 48v2h-110q-44 0 -68 -20t-24 -46z" />
    <glyph glyph-name="aogonek.ss02" horiz-adv-x="629" 
d="M488 -202q-23 -7 -48.5 -11t-52.5 -4q-31 0 -57 7t-43 21t-25 35.5t-3 50.5q5 30 24.5 57.5t62.5 54.5l12 69q-14 -20 -35.5 -36t-47.5 -28t-56 -18.5t-61 -6.5q-68 0 -111 36.5t-43 105.5q0 45 21 81.5t58 62t86.5 39t106.5 13.5h125q1 7 1.5 13.5t0.5 13.5q0 37 -20 57
t-57 20q-35 0 -61.5 -19.5t-40.5 -53.5h-171q15 46 42 84.5t65 67t86 44.5t106 16q51 0 93 -13.5t71.5 -38t45.5 -60t16 -80.5q0 -12 -1.5 -25t-3.5 -27l-57 -326l-49 -23q-41 -19 -58.5 -33.5t-20.5 -31.5q-3 -15 7 -24t31 -9q32 0 79 15zM182 167q0 -23 16.5 -36t46.5 -13
q21 0 43.5 7.5t42 22t34 35.5t19.5 48v2h-110q-44 0 -68 -20t-24 -46z" />
    <glyph glyph-name="aring.ss02" horiz-adv-x="629" 
d="M298 720q11 57 51.5 89t91.5 32q25 0 45.5 -8.5t34 -24t19 -38t0.5 -50.5q-10 -57 -50.5 -89t-91.5 -32q-25 0 -45.5 8.5t-34.5 24t-19.5 38t-0.5 50.5zM468 720q5 23 -7.5 36t-32.5 13t-36.5 -13t-20.5 -36q-4 -22 8 -35.5t32 -13.5t36.5 13.5t20.5 35.5zM358 78
q-14 -20 -35.5 -36t-47.5 -28t-56 -18.5t-61 -6.5q-68 0 -111 36.5t-43 105.5q0 45 21 81.5t58 62t86.5 39t106.5 13.5h125q1 7 1.5 13.5t0.5 13.5q0 37 -20 57t-57 20q-35 0 -61.5 -19.5t-40.5 -53.5h-171q15 46 42 84.5t65 67t86 44.5t106 16q51 0 93 -13.5t71.5 -38
t45.5 -60t16 -80.5q0 -12 -1.5 -25t-3.5 -27l-57 -326h-172zM182 167q0 -23 16.5 -36t46.5 -13q21 0 43.5 7.5t42 22t34 35.5t19.5 48v2h-110q-44 0 -68 -20t-24 -46z" />
    <glyph glyph-name="atilde.ss02" horiz-adv-x="629" 
d="M358 78q-14 -20 -35.5 -36t-47.5 -28t-56 -18.5t-61 -6.5q-68 0 -111 36.5t-43 105.5q0 45 21 81.5t58 62t86.5 39t106.5 13.5h125q1 7 1.5 13.5t0.5 13.5q0 37 -20 57t-57 20q-35 0 -61.5 -19.5t-40.5 -53.5h-171q15 46 42 84.5t65 67t86 44.5t106 16q51 0 93 -13.5
t71.5 -38t45.5 -60t16 -80.5q0 -12 -1.5 -25t-3.5 -27l-57 -326h-172zM182 167q0 -23 16.5 -36t46.5 -13q21 0 43.5 7.5t42 22t34 35.5t19.5 48v2h-110q-44 0 -68 -20t-24 -46zM191 618q12 73 47 110t81 37q26 0 43 -6.5t29 -15t21 -15t19 -6.5q8 0 16 8t13 32h102
q-11 -73 -47 -109.5t-81 -36.5q-26 0 -43 6.5t-29 14t-21 14t-18 6.5q-8 0 -16 -7t-13 -32h-103z" />
    <glyph glyph-name="ampersand.ss03" horiz-adv-x="683" 
d="M190 554q6 33 25 64t49 55.5t71 39t92 14.5q48 0 82 -12t55.5 -32t32 -46t11.5 -54q2 -22 -1.5 -44.5t-9.5 -43.5h-162q4 11 6 21.5t3 19.5q2 22 -8 35.5t-32 13.5q-20 0 -35 -13t-18 -32q-3 -14 1 -28t16 -37l265 -475h-181l-47 84q-35 -40 -86.5 -65.5t-114.5 -25.5
q-53 0 -91.5 17t-62.5 46.5t-32.5 69.5t-0.5 85q7 42 26 77.5t45.5 62.5t59 44.5t67.5 23.5q-20 34 -26 66.5t1 68.5zM165 215q-6 -35 12 -58t53 -23q34 0 61 23t33 58q6 34 -13 56.5t-53 22.5t-60.5 -22.5t-32.5 -56.5z" />
    <glyph glyph-name="two.ss04" horiz-adv-x="584" 
d="M15 124l216 179q78 65 120.5 111.5t47.5 92.5q4 30 -10 49.5t-51 19.5t-62.5 -27.5t-35.5 -81.5h-166q14 66 43 114t68.5 79t86.5 45.5t97 14.5q57 0 98 -15t66.5 -41t35.5 -61t6 -75q-3 -38 -16 -71.5t-37.5 -67t-61.5 -69.5t-87 -78l-124 -103h271l-24 -139h-502z" />
    <glyph glyph-name="three.ss04" horiz-adv-x="613" 
d="M256 -6q-56 0 -100 13.5t-73 42.5t-41 74t-4 107h164q-9 -43 12.5 -69t66.5 -26q48 0 76.5 30.5t30.5 78.5q3 42 -21.5 65.5t-71.5 23.5h-98l19 110l165 138h-247l26 147h454l-22 -126l-202 -167q81 -12 123 -62t34 -132q-5 -55 -28.5 -100.5t-62 -78.5t-89.5 -51
t-111 -18z" />
    <glyph glyph-name="six.ss04" horiz-adv-x="635" 
d="M587 280q0 -64 -23 -117t-63.5 -91t-96 -59t-120.5 -21q-51 0 -92.5 14.5t-71 41.5t-45 64t-15.5 82q0 75 35 142.5t90 132.5l216 253h187l-231 -263q12 2 24 3.5t25 1.5q40 0 73.5 -13t57.5 -37t37 -58t13 -76zM342 339q-27 0 -49 -10t-38 -27t-25 -39.5t-9 -48.5
q0 -37 22.5 -58.5t62.5 -21.5q27 0 49 9.5t38 26.5t24.5 40t8.5 50q0 37 -22 58t-62 21z" />
    <glyph glyph-name="nine.ss04" horiz-adv-x="629" 
d="M71 434q0 63 23.5 116.5t64 92.5t96 61t120.5 22q52 0 93 -14.5t70 -41t44.5 -64t15.5 -83.5q0 -38 -9.5 -74t-26.5 -70t-40 -66.5t-50 -63.5l-215 -253h-187l233 264q-26 -6 -54 -6q-81 0 -129.5 48t-48.5 132zM351 584q-27 0 -49 -9.5t-37.5 -26.5t-24.5 -40t-9 -50
q0 -36 22.5 -57.5t62.5 -21.5q27 0 49 9.5t37.5 26.5t24.5 40t9 50q0 36 -22 57.5t-63 21.5z" />
    <glyph glyph-name="uni1EA1.ss02" horiz-adv-x="629" 
d="M358 78q-14 -20 -35.5 -36t-47.5 -28t-56 -18.5t-61 -6.5q-68 0 -111 36.5t-43 105.5q0 45 21 81.5t58 62t86.5 39t106.5 13.5h125q1 7 1.5 13.5t0.5 13.5q0 37 -20 57t-57 20q-35 0 -61.5 -19.5t-40.5 -53.5h-171q15 46 42 84.5t65 67t86 44.5t106 16q51 0 93 -13.5
t71.5 -38t45.5 -60t16 -80.5q0 -12 -1.5 -25t-3.5 -27l-57 -326h-172zM182 167q0 -23 16.5 -36t46.5 -13q21 0 43.5 7.5t42 22t34 35.5t19.5 48v2h-110q-44 0 -68 -20t-24 -46zM215 -254q-44 0 -66.5 25.5t-17.5 62.5q4 38 33 63.5t72 25.5q42 0 66 -25.5t19 -63.5
q-5 -37 -34.5 -62.5t-71.5 -25.5z" />
    <glyph glyph-name="uni1EA3.ss02" horiz-adv-x="629" 
d="M358 78q-14 -20 -35.5 -36t-47.5 -28t-56 -18.5t-61 -6.5q-68 0 -111 36.5t-43 105.5q0 45 21 81.5t58 62t86.5 39t106.5 13.5h125q1 7 1.5 13.5t0.5 13.5q0 37 -20 57t-57 20q-35 0 -61.5 -19.5t-40.5 -53.5h-171q15 46 42 84.5t65 67t86 44.5t106 16q51 0 93 -13.5
t71.5 -38t45.5 -60t16 -80.5q0 -12 -1.5 -25t-3.5 -27l-57 -326h-172zM182 167q0 -23 16.5 -36t46.5 -13q21 0 43.5 7.5t42 22t34 35.5t19.5 48v2h-110q-44 0 -68 -20t-24 -46zM340 676q27 11 43.5 22.5t19.5 29.5q2 15 -8.5 21t-27.5 6q-9 0 -21.5 -2t-25.5 -7l13 82
q40 16 75 16q23 0 44 -5.5t36 -17.5t22.5 -30.5t4.5 -45.5q-5 -38 -36 -73.5t-100 -55.5z" />
    <glyph glyph-name="uni1EA5.ss02" horiz-adv-x="629" 
d="M358 78q-14 -20 -35.5 -36t-47.5 -28t-56 -18.5t-61 -6.5q-68 0 -111 36.5t-43 105.5q0 45 21 81.5t58 62t86.5 39t106.5 13.5h125q1 7 1.5 13.5t0.5 13.5q0 37 -20 57t-57 20q-35 0 -61.5 -19.5t-40.5 -53.5h-171q15 46 42 84.5t65 67t86 44.5t106 16q51 0 93 -13.5
t71.5 -38t45.5 -60t16 -80.5q0 -12 -1.5 -25t-3.5 -27l-57 -326h-172zM182 167q0 -23 16.5 -36t46.5 -13q21 0 43.5 7.5t42 22t34 35.5t19.5 48v2h-110q-44 0 -68 -20t-24 -46zM241 606l-48 83l198 115l160 -115l-65 -83l-111 73zM741 848l-192 -116l-59 85l189 127z" />
    <glyph glyph-name="uni1EA7.ss02" horiz-adv-x="629" 
d="M358 78q-14 -20 -35.5 -36t-47.5 -28t-56 -18.5t-61 -6.5q-68 0 -111 36.5t-43 105.5q0 45 21 81.5t58 62t86.5 39t106.5 13.5h125q1 7 1.5 13.5t0.5 13.5q0 37 -20 57t-57 20q-35 0 -61.5 -19.5t-40.5 -53.5h-171q15 46 42 84.5t65 67t86 44.5t106 16q51 0 93 -13.5
t71.5 -38t45.5 -60t16 -80.5q0 -12 -1.5 -25t-3.5 -27l-57 -326h-172zM182 167q0 -23 16.5 -36t46.5 -13q21 0 43.5 7.5t42 22t34 35.5t19.5 48v2h-110q-44 0 -68 -20t-24 -46zM241 606l-48 83l198 115l160 -115l-65 -83l-111 73zM493 944l153 -135l-73 -77l-159 123z" />
    <glyph glyph-name="uni1EA9.ss02" horiz-adv-x="629" 
d="M358 78q-14 -20 -35.5 -36t-47.5 -28t-56 -18.5t-61 -6.5q-68 0 -111 36.5t-43 105.5q0 45 21 81.5t58 62t86.5 39t106.5 13.5h125q1 7 1.5 13.5t0.5 13.5q0 37 -20 57t-57 20q-35 0 -61.5 -19.5t-40.5 -53.5h-171q15 46 42 84.5t65 67t86 44.5t106 16q51 0 93 -13.5
t71.5 -38t45.5 -60t16 -80.5q0 -12 -1.5 -25t-3.5 -27l-57 -326h-172zM182 167q0 -23 16.5 -36t46.5 -13q21 0 43.5 7.5t42 22t34 35.5t19.5 48v2h-110q-44 0 -68 -20t-24 -46zM241 606l-48 83l198 115l160 -115l-65 -83l-111 73zM499 795q27 11 43.5 22.5t19.5 29.5
q2 15 -8.5 21t-27.5 6q-9 0 -21.5 -2t-25.5 -7l13 82q40 16 75 16q23 0 44 -5.5t36 -17.5t22.5 -30.5t4.5 -45.5q-5 -38 -36 -73.5t-100 -55.5z" />
    <glyph glyph-name="uni1EAB.ss02" horiz-adv-x="629" 
d="M358 78q-14 -20 -35.5 -36t-47.5 -28t-56 -18.5t-61 -6.5q-68 0 -111 36.5t-43 105.5q0 45 21 81.5t58 62t86.5 39t106.5 13.5h125q1 7 1.5 13.5t0.5 13.5q0 37 -20 57t-57 20q-35 0 -61.5 -19.5t-40.5 -53.5h-171q15 46 42 84.5t65 67t86 44.5t106 16q51 0 93 -13.5
t71.5 -38t45.5 -60t16 -80.5q0 -12 -1.5 -25t-3.5 -27l-57 -326h-172zM182 167q0 -23 16.5 -36t46.5 -13q21 0 43.5 7.5t42 22t34 35.5t19.5 48v2h-110q-44 0 -68 -20t-24 -46zM241 606l-48 83l198 115l160 -115l-65 -83l-111 73zM211 827q12 73 47 110t81 37q26 0 43 -6.5
t29 -15t21 -15t19 -6.5q8 0 16 8t13 32h102q-11 -73 -47 -109.5t-81 -36.5q-26 0 -43 6.5t-29 14t-21 14t-18 6.5q-8 0 -16 -7t-13 -32h-103z" />
    <glyph glyph-name="uni1EAD.ss02" horiz-adv-x="629" 
d="M358 78q-14 -20 -35.5 -36t-47.5 -28t-56 -18.5t-61 -6.5q-68 0 -111 36.5t-43 105.5q0 45 21 81.5t58 62t86.5 39t106.5 13.5h125q1 7 1.5 13.5t0.5 13.5q0 37 -20 57t-57 20q-35 0 -61.5 -19.5t-40.5 -53.5h-171q15 46 42 84.5t65 67t86 44.5t106 16q51 0 93 -13.5
t71.5 -38t45.5 -60t16 -80.5q0 -12 -1.5 -25t-3.5 -27l-57 -326h-172zM182 167q0 -23 16.5 -36t46.5 -13q21 0 43.5 7.5t42 22t34 35.5t19.5 48v2h-110q-44 0 -68 -20t-24 -46zM241 606l-48 83l198 115l160 -115l-65 -83l-111 73zM215 -254q-44 0 -66.5 25.5t-17.5 62.5
q4 38 33 63.5t72 25.5q42 0 66 -25.5t19 -63.5q-5 -37 -34.5 -62.5t-71.5 -25.5z" />
    <glyph glyph-name="uni1EAF.ss02" horiz-adv-x="629" 
d="M358 78q-14 -20 -35.5 -36t-47.5 -28t-56 -18.5t-61 -6.5q-68 0 -111 36.5t-43 105.5q0 45 21 81.5t58 62t86.5 39t106.5 13.5h125q1 7 1.5 13.5t0.5 13.5q0 37 -20 57t-57 20q-35 0 -61.5 -19.5t-40.5 -53.5h-171q15 46 42 84.5t65 67t86 44.5t106 16q51 0 93 -13.5
t71.5 -38t45.5 -60t16 -80.5q0 -12 -1.5 -25t-3.5 -27l-57 -326h-172zM182 167q0 -23 16.5 -36t46.5 -13q21 0 43.5 7.5t42 22t34 35.5t19.5 48v2h-110q-44 0 -68 -20t-24 -46zM363 608q-36 0 -66.5 10t-50.5 29.5t-29 49t-2 67.5h112q-11 -60 53 -60q58 0 69 60h117
q-14 -77 -68 -116.5t-135 -39.5zM571 900l-192 -116l-59 85l189 127z" />
    <glyph glyph-name="uni1EB1.ss02" horiz-adv-x="629" 
d="M358 78q-14 -20 -35.5 -36t-47.5 -28t-56 -18.5t-61 -6.5q-68 0 -111 36.5t-43 105.5q0 45 21 81.5t58 62t86.5 39t106.5 13.5h125q1 7 1.5 13.5t0.5 13.5q0 37 -20 57t-57 20q-35 0 -61.5 -19.5t-40.5 -53.5h-171q15 46 42 84.5t65 67t86 44.5t106 16q51 0 93 -13.5
t71.5 -38t45.5 -60t16 -80.5q0 -12 -1.5 -25t-3.5 -27l-57 -326h-172zM182 167q0 -23 16.5 -36t46.5 -13q21 0 43.5 7.5t42 22t34 35.5t19.5 48v2h-110q-44 0 -68 -20t-24 -46zM363 608q-36 0 -66.5 10t-50.5 29.5t-29 49t-2 67.5h112q-11 -60 53 -60q58 0 69 60h117
q-14 -77 -68 -116.5t-135 -39.5zM328 996l153 -135l-73 -77l-159 123z" />
    <glyph glyph-name="uni1EB3.ss02" horiz-adv-x="629" 
d="M358 78q-14 -20 -35.5 -36t-47.5 -28t-56 -18.5t-61 -6.5q-68 0 -111 36.5t-43 105.5q0 45 21 81.5t58 62t86.5 39t106.5 13.5h125q1 7 1.5 13.5t0.5 13.5q0 37 -20 57t-57 20q-35 0 -61.5 -19.5t-40.5 -53.5h-171q15 46 42 84.5t65 67t86 44.5t106 16q51 0 93 -13.5
t71.5 -38t45.5 -60t16 -80.5q0 -12 -1.5 -25t-3.5 -27l-57 -326h-172zM182 167q0 -23 16.5 -36t46.5 -13q21 0 43.5 7.5t42 22t34 35.5t19.5 48v2h-110q-44 0 -68 -20t-24 -46zM363 608q-36 0 -66.5 10t-50.5 29.5t-29 49t-2 67.5h112q-11 -60 53 -60q58 0 69 60h117
q-14 -77 -68 -116.5t-135 -39.5zM351 833q27 11 43.5 22.5t19.5 29.5q2 15 -8.5 21t-27.5 6q-9 0 -21.5 -2t-25.5 -7l13 82q40 16 75 16q23 0 44 -5.5t36 -17.5t22.5 -30.5t4.5 -45.5q-5 -38 -36 -73.5t-100 -55.5z" />
    <glyph glyph-name="uni1EB5.ss02" horiz-adv-x="629" 
d="M358 78q-14 -20 -35.5 -36t-47.5 -28t-56 -18.5t-61 -6.5q-68 0 -111 36.5t-43 105.5q0 45 21 81.5t58 62t86.5 39t106.5 13.5h125q1 7 1.5 13.5t0.5 13.5q0 37 -20 57t-57 20q-35 0 -61.5 -19.5t-40.5 -53.5h-171q15 46 42 84.5t65 67t86 44.5t106 16q51 0 93 -13.5
t71.5 -38t45.5 -60t16 -80.5q0 -12 -1.5 -25t-3.5 -27l-57 -326h-172zM182 167q0 -23 16.5 -36t46.5 -13q21 0 43.5 7.5t42 22t34 35.5t19.5 48v2h-110q-44 0 -68 -20t-24 -46zM363 608q-36 0 -66.5 10t-50.5 29.5t-29 49t-2 67.5h112q-11 -60 53 -60q58 0 69 60h117
q-14 -77 -68 -116.5t-135 -39.5zM218 799q12 73 47 110t81 37q26 0 43 -6.5t29 -15t21 -15t19 -6.5q8 0 16 8t13 32h102q-11 -73 -47 -109.5t-81 -36.5q-26 0 -43 6.5t-29 14t-21 14t-18 6.5q-8 0 -16 -7t-13 -32h-103z" />
    <glyph glyph-name="uni1EB7.ss02" horiz-adv-x="629" 
d="M358 78q-14 -20 -35.5 -36t-47.5 -28t-56 -18.5t-61 -6.5q-68 0 -111 36.5t-43 105.5q0 45 21 81.5t58 62t86.5 39t106.5 13.5h125q1 7 1.5 13.5t0.5 13.5q0 37 -20 57t-57 20q-35 0 -61.5 -19.5t-40.5 -53.5h-171q15 46 42 84.5t65 67t86 44.5t106 16q51 0 93 -13.5
t71.5 -38t45.5 -60t16 -80.5q0 -12 -1.5 -25t-3.5 -27l-57 -326h-172zM182 167q0 -23 16.5 -36t46.5 -13q21 0 43.5 7.5t42 22t34 35.5t19.5 48v2h-110q-44 0 -68 -20t-24 -46zM363 608q-36 0 -66.5 10t-50.5 29.5t-29 49t-2 67.5h112q-11 -60 53 -60q58 0 69 60h117
q-14 -77 -68 -116.5t-135 -39.5zM215 -254q-44 0 -66.5 25.5t-17.5 62.5q4 38 33 63.5t72 25.5q42 0 66 -25.5t19 -63.5q-5 -37 -34.5 -62.5t-71.5 -25.5z" />
    </font>
</defs>
</svg>
